<svg xmlns="http://www.w3.org/2000/svg" viewBox="0 0 800 400" width="800" height="400">
  <style>
    @keyframes drawLine {
      to { stroke-dashoffset: 0; }
    }
    @keyframes fadeInPoint {
      from { opacity: 0; }
      to { opacity: 1; }
    }
    .data-line-0 {
      stroke-dasharray: 1312;
      stroke-dashoffset: 1312;
      animation: drawLine 2s ease-out forwards;
    }
    .data-point {
      opacity: 0;
      animation: fadeInPoint 0.5s ease-out forwards;
    }
    .chart-bg { fill: #fff; }
    .chart-text { fill: #24292e; }
    .chart-muted { fill: #6a737d; }
    .chart-grid { stroke: #eee; }
    .chart-axis { stroke: #6a737d; }
    @media (prefers-color-scheme: dark) {
      .chart-bg { fill: #0d1117; }
      .chart-text { fill: #e6edf3; }
      .chart-muted { fill: #8b949e; }
      .chart-grid { stroke: #21262d; }
      .chart-axis { stroke: #8b949e; }
    }
  </style>
  <rect width="800" height="400" class="chart-bg" />
  <text x="400" y="34" text-anchor="middle" class="chart-text" font-size="16" font-weight="bold" font-family="-apple-system, BlinkMacSystemFont, 'Segoe UI', Helvetica, Arial, sans-serif">action-pack/cancel Star History</text>
  
  <g class="grid">
    <line x1="60" y1="350" x2="770" y2="350" class="chart-grid" stroke-opacity="0.3" />
    <text x="778" y="354" text-anchor="start" class="chart-muted" font-size="11" font-family="-apple-system, BlinkMacSystemFont, 'Segoe UI', Helvetica, Arial, sans-serif">0</text>
    <line x1="60" y1="283.33333333333337" x2="770" y2="283.33333333333337" class="chart-grid" stroke-opacity="0.3" />
    <text x="778" y="287.33333333333337" text-anchor="start" class="chart-muted" font-size="11" font-family="-apple-system, BlinkMacSystemFont, 'Segoe UI', Helvetica, Arial, sans-serif">2</text>
    <line x1="60" y1="216.66666666666669" x2="770" y2="216.66666666666669" class="chart-grid" stroke-opacity="0.3" />
    <text x="778" y="220.66666666666669" text-anchor="start" class="chart-muted" font-size="11" font-family="-apple-system, BlinkMacSystemFont, 'Segoe UI', Helvetica, Arial, sans-serif">4</text>
    <line x1="60" y1="150" x2="770" y2="150" class="chart-grid" stroke-opacity="0.3" />
    <text x="778" y="154" text-anchor="start" class="chart-muted" font-size="11" font-family="-apple-system, BlinkMacSystemFont, 'Segoe UI', Helvetica, Arial, sans-serif">6</text>
    <line x1="60" y1="83.33333333333337" x2="770" y2="83.33333333333337" class="chart-grid" stroke-opacity="0.3" />
    <text x="778" y="87.33333333333337" text-anchor="start" class="chart-muted" font-size="11" font-family="-apple-system, BlinkMacSystemFont, 'Segoe UI', Helvetica, Arial, sans-serif">8</text>
    <line x1="60" y1="16.66666666666663" x2="770" y2="16.66666666666663" class="chart-grid" stroke-opacity="0.3" />
    <text x="778" y="20.66666666666663" text-anchor="start" class="chart-muted" font-size="11" font-family="-apple-system, BlinkMacSystemFont, 'Segoe UI', Helvetica, Arial, sans-serif">10</text>
  </g>
  <g class="milestones">
    
  </g>
  <g class="x-axis">
    <text x="60" y="370" text-anchor="middle" class="chart-muted" font-size="11" font-family="-apple-system, BlinkMacSystemFont, 'Segoe UI', Helvetica, Arial, sans-serif">2024</text>
    <text x="255.86206896551724" y="370" text-anchor="middle" class="chart-muted" font-size="11" font-family="-apple-system, BlinkMacSystemFont, 'Segoe UI', Helvetica, Arial, sans-serif">2025</text>
    <text x="623.1034482758621" y="370" text-anchor="middle" class="chart-muted" font-size="11" font-family="-apple-system, BlinkMacSystemFont, 'Segoe UI', Helvetica, Arial, sans-serif">2026</text>
  </g>
  <line x1="770" y1="50" x2="770" y2="350" class="chart-axis" stroke-width="1" />
  <line x1="60" y1="350" x2="770" y2="350" class="chart-axis" stroke-width="1" />
  <path d="M60,350 L60,316.6666666666667 C63.264367816091955,312.22222222222223 77.95402298850574,287.7777777777778 84.48275862068965,283.33333333333337 C91.01149425287356,283.33333333333337 102.43678160919539,283.33333333333337 108.9655172413793,283.33333333333337 C115.49425287356321,283.33333333333337 126.91954022988504,283.33333333333337 133.44827586206895,283.33333333333337 C139.97701149425285,278.8888888888889 151.40229885057468,254.44444444444446 157.9310344827586,250 C164.45977011494253,250 175.88505747126436,250 182.41379310344828,250 C188.9425287356322,250 200.36781609195404,250 206.89655172413794,250 C213.42528735632183,250 224.8505747126437,250 231.3793103448276,250 C237.90804597701148,241.11111111111111 249.33333333333334,192.2222222222222 255.86206896551724,183.33333333333331 C262.39080459770116,183.33333333333331 273.81609195402297,183.33333333333331 280.34482758620686,183.33333333333331 C286.87356321839076,183.33333333333331 298.2988505747127,183.33333333333331 304.82758620689657,183.33333333333331 C311.35632183908046,183.33333333333331 322.7816091954023,183.33333333333331 329.3103448275862,183.33333333333331 C335.8390804597701,178.88888888888889 347.264367816092,154.44444444444443 353.7931034482759,150 C360.32183908045977,150 371.7471264367816,150 378.2758620689655,150 C384.8045977011494,150 396.2298850574713,150 402.7586206896552,150 C409.28735632183907,150 420.71264367816093,150 427.2413793103448,150 C433.7701149425287,150 445.1954022988506,150 451.7241379310345,150 C458.2528735632184,145.55555555555554 469.67816091954023,121.1111111111111 476.2068965517241,116.66666666666666 C482.735632183908,116.66666666666666 494.1609195402299,116.66666666666666 500.6896551724138,116.66666666666666 C507.2183908045977,116.66666666666666 518.6436781609195,116.66666666666666 525.1724137931035,116.66666666666666 C531.7011494252874,116.66666666666666 543.1264367816092,116.66666666666666 549.6551724137931,116.66666666666666 C556.1839080459771,116.66666666666666 567.6091954022988,116.66666666666666 574.1379310344828,116.66666666666666 C580.6666666666667,116.66666666666666 592.0919540229885,116.66666666666666 598.6206896551724,116.66666666666666 C605.1494252873564,116.66666666666666 616.5747126436781,116.66666666666666 623.1034482758621,116.66666666666666 C629.632183908046,116.66666666666666 641.0574712643678,116.66666666666666 647.5862068965517,116.66666666666666 C654.1149425287357,116.66666666666666 665.5402298850574,116.66666666666666 672.0689655172414,116.66666666666666 C678.5977011494253,116.66666666666666 690.0229885057471,116.66666666666666 696.551724137931,116.66666666666666 C703.080459770115,112.22222222222221 714.5057471264367,87.77777777777781 721.0344827586207,83.33333333333337 C727.5632183908046,83.33333333333337 738.9885057471264,83.33333333333337 745.5172413793103,83.33333333333337 C752.0459770114943,83.33333333333337 766.735632183908,83.33333333333337 770,83.33333333333337 L770,350 L60,350 Z" fill="#6b63ff" fill-opacity="0.1" />
  <path d="M60,350 L60,316.6666666666667 C63.264367816091955,312.22222222222223 77.95402298850574,287.7777777777778 84.48275862068965,283.33333333333337 C91.01149425287356,283.33333333333337 102.43678160919539,283.33333333333337 108.9655172413793,283.33333333333337 C115.49425287356321,283.33333333333337 126.91954022988504,283.33333333333337 133.44827586206895,283.33333333333337 C139.97701149425285,278.8888888888889 151.40229885057468,254.44444444444446 157.9310344827586,250 C164.45977011494253,250 175.88505747126436,250 182.41379310344828,250 C188.9425287356322,250 200.36781609195404,250 206.89655172413794,250 C213.42528735632183,250 224.8505747126437,250 231.3793103448276,250 C237.90804597701148,241.11111111111111 249.33333333333334,192.2222222222222 255.86206896551724,183.33333333333331 C262.39080459770116,183.33333333333331 273.81609195402297,183.33333333333331 280.34482758620686,183.33333333333331 C286.87356321839076,183.33333333333331 298.2988505747127,183.33333333333331 304.82758620689657,183.33333333333331 C311.35632183908046,183.33333333333331 322.7816091954023,183.33333333333331 329.3103448275862,183.33333333333331 C335.8390804597701,178.88888888888889 347.264367816092,154.44444444444443 353.7931034482759,150 C360.32183908045977,150 371.7471264367816,150 378.2758620689655,150 C384.8045977011494,150 396.2298850574713,150 402.7586206896552,150 C409.28735632183907,150 420.71264367816093,150 427.2413793103448,150 C433.7701149425287,150 445.1954022988506,150 451.7241379310345,150 C458.2528735632184,145.55555555555554 469.67816091954023,121.1111111111111 476.2068965517241,116.66666666666666 C482.735632183908,116.66666666666666 494.1609195402299,116.66666666666666 500.6896551724138,116.66666666666666 C507.2183908045977,116.66666666666666 518.6436781609195,116.66666666666666 525.1724137931035,116.66666666666666 C531.7011494252874,116.66666666666666 543.1264367816092,116.66666666666666 549.6551724137931,116.66666666666666 C556.1839080459771,116.66666666666666 567.6091954022988,116.66666666666666 574.1379310344828,116.66666666666666 C580.6666666666667,116.66666666666666 592.0919540229885,116.66666666666666 598.6206896551724,116.66666666666666 C605.1494252873564,116.66666666666666 616.5747126436781,116.66666666666666 623.1034482758621,116.66666666666666 C629.632183908046,116.66666666666666 641.0574712643678,116.66666666666666 647.5862068965517,116.66666666666666 C654.1149425287357,116.66666666666666 665.5402298850574,116.66666666666666 672.0689655172414,116.66666666666666 C678.5977011494253,116.66666666666666 690.0229885057471,116.66666666666666 696.551724137931,116.66666666666666 C703.080459770115,112.22222222222221 714.5057471264367,87.77777777777781 721.0344827586207,83.33333333333337 C727.5632183908046,83.33333333333337 738.9885057471264,83.33333333333337 745.5172413793103,83.33333333333337 C752.0459770114943,83.33333333333337 766.735632183908,83.33333333333337 770,83.33333333333337" fill="none" stroke="#6b63ff" stroke-width="2.5" class="data-line-0" />
  <g class="points">
    
    <circle cx="60" cy="316.6666666666667" r="4" fill="#6b63ff" class="data-point" style="animation-delay: 1.50s" />
    <circle cx="84.48275862068965" cy="283.33333333333337" r="4" fill="#6b63ff" class="data-point" style="animation-delay: 1.55s" />
    <circle cx="108.9655172413793" cy="283.33333333333337" r="4" fill="#6b63ff" class="data-point" style="animation-delay: 1.60s" />
    <circle cx="133.44827586206895" cy="283.33333333333337" r="4" fill="#6b63ff" class="data-point" style="animation-delay: 1.65s" />
    <circle cx="157.9310344827586" cy="250" r="4" fill="#6b63ff" class="data-point" style="animation-delay: 1.70s" />
    <circle cx="182.41379310344828" cy="250" r="4" fill="#6b63ff" class="data-point" style="animation-delay: 1.75s" />
    <circle cx="206.89655172413794" cy="250" r="4" fill="#6b63ff" class="data-point" style="animation-delay: 1.80s" />
    <circle cx="231.3793103448276" cy="250" r="4" fill="#6b63ff" class="data-point" style="animation-delay: 1.85s" />
    <circle cx="255.86206896551724" cy="183.33333333333331" r="4" fill="#6b63ff" class="data-point" style="animation-delay: 1.90s" />
    <circle cx="280.34482758620686" cy="183.33333333333331" r="4" fill="#6b63ff" class="data-point" style="animation-delay: 1.95s" />
    <circle cx="304.82758620689657" cy="183.33333333333331" r="4" fill="#6b63ff" class="data-point" style="animation-delay: 2.00s" />
    <circle cx="329.3103448275862" cy="183.33333333333331" r="4" fill="#6b63ff" class="data-point" style="animation-delay: 2.05s" />
    <circle cx="353.7931034482759" cy="150" r="4" fill="#6b63ff" class="data-point" style="animation-delay: 2.10s" />
    <circle cx="378.2758620689655" cy="150" r="4" fill="#6b63ff" class="data-point" style="animation-delay: 2.15s" />
    <circle cx="402.7586206896552" cy="150" r="4" fill="#6b63ff" class="data-point" style="animation-delay: 2.20s" />
    <circle cx="427.2413793103448" cy="150" r="4" fill="#6b63ff" class="data-point" style="animation-delay: 2.25s" />
    <circle cx="451.7241379310345" cy="150" r="4" fill="#6b63ff" class="data-point" style="animation-delay: 2.30s" />
    <circle cx="476.2068965517241" cy="116.66666666666666" r="4" fill="#6b63ff" class="data-point" style="animation-delay: 2.35s" />
    <circle cx="500.6896551724138" cy="116.66666666666666" r="4" fill="#6b63ff" class="data-point" style="animation-delay: 2.40s" />
    <circle cx="525.1724137931035" cy="116.66666666666666" r="4" fill="#6b63ff" class="data-point" style="animation-delay: 2.45s" />
    <circle cx="549.6551724137931" cy="116.66666666666666" r="4" fill="#6b63ff" class="data-point" style="animation-delay: 2.50s" />
    <circle cx="574.1379310344828" cy="116.66666666666666" r="4" fill="#6b63ff" class="data-point" style="animation-delay: 2.55s" />
    <circle cx="598.6206896551724" cy="116.66666666666666" r="4" fill="#6b63ff" class="data-point" style="animation-delay: 2.60s" />
    <circle cx="623.1034482758621" cy="116.66666666666666" r="4" fill="#6b63ff" class="data-point" style="animation-delay: 2.65s" />
    <circle cx="647.5862068965517" cy="116.66666666666666" r="4" fill="#6b63ff" class="data-point" style="animation-delay: 2.70s" />
    <circle cx="672.0689655172414" cy="116.66666666666666" r="4" fill="#6b63ff" class="data-point" style="animation-delay: 2.75s" />
    <circle cx="696.551724137931" cy="116.66666666666666" r="4" fill="#6b63ff" class="data-point" style="animation-delay: 2.80s" />
    <circle cx="721.0344827586207" cy="83.33333333333337" r="4" fill="#6b63ff" class="data-point" style="animation-delay: 2.85s" />
    <circle cx="745.5172413793103" cy="83.33333333333337" r="4" fill="#6b63ff" class="data-point" style="animation-delay: 2.90s" />
    <circle cx="770" cy="83.33333333333337" r="4" fill="#6b63ff" class="data-point" style="animation-delay: 2.95s" />
  </g>
</svg>