<svg xmlns="http://www.w3.org/2000/svg" viewBox="0 0 800 400" width="800" height="400">
  <style>
    @keyframes drawLine {
      to { stroke-dashoffset: 0; }
    }
    @keyframes fadeInPoint {
      from { opacity: 0; }
      to { opacity: 1; }
    }
    .data-line-0 {
      stroke-dasharray: 1261;
      stroke-dashoffset: 1261;
      animation: drawLine 2s ease-out forwards;
    }
    .data-point {
      opacity: 0;
      animation: fadeInPoint 0.5s ease-out forwards;
    }
    .chart-bg { fill: #fff; }
    .chart-text { fill: #24292e; }
    .chart-muted { fill: #6a737d; }
    .chart-grid { stroke: #eee; }
    .chart-axis { stroke: #6a737d; }
    @media (prefers-color-scheme: dark) {
      .chart-bg { fill: #0d1117; }
      .chart-text { fill: #e6edf3; }
      .chart-muted { fill: #8b949e; }
      .chart-grid { stroke: #21262d; }
      .chart-axis { stroke: #8b949e; }
    }
  </style>
  <rect width="800" height="400" class="chart-bg" />
  <text x="400" y="14" text-anchor="middle" class="chart-text" font-size="16" font-weight="bold" font-family="-apple-system, BlinkMacSystemFont, 'Segoe UI', Helvetica, Arial, sans-serif">action-pack/gitlab-sync Star History</text>
  
  <g class="grid">
    <line x1="60" y1="350" x2="770" y2="350" class="chart-grid" stroke-opacity="0.3" />
    <text x="778" y="354" text-anchor="start" class="chart-muted" font-size="11" font-family="-apple-system, BlinkMacSystemFont, 'Segoe UI', Helvetica, Arial, sans-serif">0</text>
    <line x1="60" y1="278.57142857142856" x2="770" y2="278.57142857142856" class="chart-grid" stroke-opacity="0.3" />
    <text x="778" y="282.57142857142856" text-anchor="start" class="chart-muted" font-size="11" font-family="-apple-system, BlinkMacSystemFont, 'Segoe UI', Helvetica, Arial, sans-serif">5</text>
    <line x1="60" y1="207.14285714285714" x2="770" y2="207.14285714285714" class="chart-grid" stroke-opacity="0.3" />
    <text x="778" y="211.14285714285714" text-anchor="start" class="chart-muted" font-size="11" font-family="-apple-system, BlinkMacSystemFont, 'Segoe UI', Helvetica, Arial, sans-serif">10</text>
    <line x1="60" y1="135.71428571428572" x2="770" y2="135.71428571428572" class="chart-grid" stroke-opacity="0.3" />
    <text x="778" y="139.71428571428572" text-anchor="start" class="chart-muted" font-size="11" font-family="-apple-system, BlinkMacSystemFont, 'Segoe UI', Helvetica, Arial, sans-serif">15</text>
    <line x1="60" y1="64.28571428571428" x2="770" y2="64.28571428571428" class="chart-grid" stroke-opacity="0.3" />
    <text x="778" y="68.28571428571428" text-anchor="start" class="chart-muted" font-size="11" font-family="-apple-system, BlinkMacSystemFont, 'Segoe UI', Helvetica, Arial, sans-serif">20</text>
  </g>
  <g class="milestones">
    
  </g>
  <g class="x-axis">
    <text x="60" y="370" text-anchor="middle" class="chart-muted" font-size="11" font-family="-apple-system, BlinkMacSystemFont, 'Segoe UI', Helvetica, Arial, sans-serif">2023</text>
    <text x="206.89655172413794" y="370" text-anchor="middle" class="chart-muted" font-size="11" font-family="-apple-system, BlinkMacSystemFont, 'Segoe UI', Helvetica, Arial, sans-serif">2024</text>
    <text x="427.2413793103448" y="370" text-anchor="middle" class="chart-muted" font-size="11" font-family="-apple-system, BlinkMacSystemFont, 'Segoe UI', Helvetica, Arial, sans-serif">2025</text>
    <text x="672.0689655172414" y="370" text-anchor="middle" class="chart-muted" font-size="11" font-family="-apple-system, BlinkMacSystemFont, 'Segoe UI', Helvetica, Arial, sans-serif">2026</text>
  </g>
  <line x1="770" y1="50" x2="770" y2="350" class="chart-axis" stroke-width="1" />
  <line x1="60" y1="350" x2="770" y2="350" class="chart-axis" stroke-width="1" />
  <path d="M60,350 L60,335.7142857142857 C68.16091954022988,316.6666666666667 76.32183908045977,290.4761904761905 84.48275862068965,278.57142857142856 C92.64367816091954,266.66666666666663 100.80459770114942,269.04761904761904 108.9655172413793,264.2857142857143 C117.12643678160919,259.5238095238095 125.28735632183907,257.1428571428571 133.44827586206895,250 C141.60919540229884,242.85714285714286 149.77011494252872,221.42857142857144 157.9310344827586,221.42857142857144 C166.0919540229885,221.42857142857144 174.2528735632184,221.42857142857144 182.41379310344828,221.42857142857144 C190.57471264367817,221.42857142857144 198.73563218390805,207.14285714285714 206.89655172413794,207.14285714285714 C215.05747126436782,207.14285714285714 223.2183908045977,207.14285714285714 231.3793103448276,207.14285714285714 C239.54022988505747,207.14285714285714 247.70114942528735,207.14285714285714 255.86206896551724,207.14285714285714 C264.0229885057471,207.14285714285714 272.183908045977,207.14285714285714 280.34482758620686,207.14285714285714 C288.50574712643675,207.14285714285714 296.6666666666667,202.3809523809524 304.82758620689657,192.85714285714286 C312.98850574712645,183.33333333333334 321.14942528735634,150 329.3103448275862,150 C337.4712643678161,150 345.632183908046,150 353.7931034482759,150 C361.95402298850576,150 370.11494252873564,135.71428571428572 378.2758620689655,135.71428571428572 C386.4367816091954,135.71428571428572 394.5977011494253,135.71428571428572 402.7586206896552,135.71428571428572 C410.91954022988506,135.71428571428572 419.08045977011494,128.57142857142858 427.2413793103448,121.42857142857144 C435.4022988505747,114.2857142857143 443.5632183908046,92.85714285714289 451.7241379310345,92.85714285714289 C459.88505747126436,92.85714285714289 468.04597701149424,92.85714285714289 476.2068965517241,92.85714285714289 C484.367816091954,92.85714285714289 492.5287356321839,78.57142857142856 500.6896551724138,78.57142857142856 C508.85057471264366,78.57142857142856 517.0114942528736,78.57142857142856 525.1724137931035,78.57142857142856 C533.3333333333334,78.57142857142856 541.4942528735633,78.57142857142856 549.6551724137931,78.57142857142856 C557.816091954023,78.57142857142856 565.9770114942529,78.57142857142856 574.1379310344828,78.57142857142856 C582.2988505747127,78.57142857142856 590.4597701149426,78.57142857142856 598.6206896551724,78.57142857142856 C606.7816091954023,78.57142857142856 614.9425287356322,78.57142857142856 623.1034482758621,78.57142857142856 C631.264367816092,78.57142857142856 639.4252873563219,78.57142857142856 647.5862068965517,78.57142857142856 C655.7471264367816,78.57142857142856 663.9080459770115,78.57142857142856 672.0689655172414,78.57142857142856 C680.2298850574713,78.57142857142856 688.3908045977012,78.57142857142856 696.551724137931,78.57142857142856 C704.7126436781609,78.57142857142856 712.8735632183908,78.57142857142856 721.0344827586207,78.57142857142856 C729.1954022988506,78.57142857142856 737.3563218390805,78.57142857142856 745.5172413793103,78.57142857142856 C753.6781609195402,78.57142857142856 761.8390804597701,78.57142857142856 770,78.57142857142856 L770,350 L60,350 Z" fill="#6b63ff" fill-opacity="0.1" />
  <path d="M60,350 L60,335.7142857142857 C68.16091954022988,316.6666666666667 76.32183908045977,290.4761904761905 84.48275862068965,278.57142857142856 C92.64367816091954,266.66666666666663 100.80459770114942,269.04761904761904 108.9655172413793,264.2857142857143 C117.12643678160919,259.5238095238095 125.28735632183907,257.1428571428571 133.44827586206895,250 C141.60919540229884,242.85714285714286 149.77011494252872,221.42857142857144 157.9310344827586,221.42857142857144 C166.0919540229885,221.42857142857144 174.2528735632184,221.42857142857144 182.41379310344828,221.42857142857144 C190.57471264367817,221.42857142857144 198.73563218390805,207.14285714285714 206.89655172413794,207.14285714285714 C215.05747126436782,207.14285714285714 223.2183908045977,207.14285714285714 231.3793103448276,207.14285714285714 C239.54022988505747,207.14285714285714 247.70114942528735,207.14285714285714 255.86206896551724,207.14285714285714 C264.0229885057471,207.14285714285714 272.183908045977,207.14285714285714 280.34482758620686,207.14285714285714 C288.50574712643675,207.14285714285714 296.6666666666667,202.3809523809524 304.82758620689657,192.85714285714286 C312.98850574712645,183.33333333333334 321.14942528735634,150 329.3103448275862,150 C337.4712643678161,150 345.632183908046,150 353.7931034482759,150 C361.95402298850576,150 370.11494252873564,135.71428571428572 378.2758620689655,135.71428571428572 C386.4367816091954,135.71428571428572 394.5977011494253,135.71428571428572 402.7586206896552,135.71428571428572 C410.91954022988506,135.71428571428572 419.08045977011494,128.57142857142858 427.2413793103448,121.42857142857144 C435.4022988505747,114.2857142857143 443.5632183908046,92.85714285714289 451.7241379310345,92.85714285714289 C459.88505747126436,92.85714285714289 468.04597701149424,92.85714285714289 476.2068965517241,92.85714285714289 C484.367816091954,92.85714285714289 492.5287356321839,78.57142857142856 500.6896551724138,78.57142857142856 C508.85057471264366,78.57142857142856 517.0114942528736,78.57142857142856 525.1724137931035,78.57142857142856 C533.3333333333334,78.57142857142856 541.4942528735633,78.57142857142856 549.6551724137931,78.57142857142856 C557.816091954023,78.57142857142856 565.9770114942529,78.57142857142856 574.1379310344828,78.57142857142856 C582.2988505747127,78.57142857142856 590.4597701149426,78.57142857142856 598.6206896551724,78.57142857142856 C606.7816091954023,78.57142857142856 614.9425287356322,78.57142857142856 623.1034482758621,78.57142857142856 C631.264367816092,78.57142857142856 639.4252873563219,78.57142857142856 647.5862068965517,78.57142857142856 C655.7471264367816,78.57142857142856 663.9080459770115,78.57142857142856 672.0689655172414,78.57142857142856 C680.2298850574713,78.57142857142856 688.3908045977012,78.57142857142856 696.551724137931,78.57142857142856 C704.7126436781609,78.57142857142856 712.8735632183908,78.57142857142856 721.0344827586207,78.57142857142856 C729.1954022988506,78.57142857142856 737.3563218390805,78.57142857142856 745.5172413793103,78.57142857142856 C753.6781609195402,78.57142857142856 761.8390804597701,78.57142857142856 770,78.57142857142856" fill="none" stroke="#6b63ff" stroke-width="2.5" class="data-line-0" />
  <g class="points">
    
    <circle cx="60" cy="335.7142857142857" r="4" fill="#6b63ff" class="data-point" style="animation-delay: 1.50s" />
    <circle cx="84.48275862068965" cy="278.57142857142856" r="4" fill="#6b63ff" class="data-point" style="animation-delay: 1.55s" />
    <circle cx="108.9655172413793" cy="264.2857142857143" r="4" fill="#6b63ff" class="data-point" style="animation-delay: 1.60s" />
    <circle cx="133.44827586206895" cy="250" r="4" fill="#6b63ff" class="data-point" style="animation-delay: 1.65s" />
    <circle cx="157.9310344827586" cy="221.42857142857144" r="4" fill="#6b63ff" class="data-point" style="animation-delay: 1.70s" />
    <circle cx="182.41379310344828" cy="221.42857142857144" r="4" fill="#6b63ff" class="data-point" style="animation-delay: 1.75s" />
    <circle cx="206.89655172413794" cy="207.14285714285714" r="4" fill="#6b63ff" class="data-point" style="animation-delay: 1.80s" />
    <circle cx="231.3793103448276" cy="207.14285714285714" r="4" fill="#6b63ff" class="data-point" style="animation-delay: 1.85s" />
    <circle cx="255.86206896551724" cy="207.14285714285714" r="4" fill="#6b63ff" class="data-point" style="animation-delay: 1.90s" />
    <circle cx="280.34482758620686" cy="207.14285714285714" r="4" fill="#6b63ff" class="data-point" style="animation-delay: 1.95s" />
    <circle cx="304.82758620689657" cy="192.85714285714286" r="4" fill="#6b63ff" class="data-point" style="animation-delay: 2.00s" />
    <circle cx="329.3103448275862" cy="150" r="4" fill="#6b63ff" class="data-point" style="animation-delay: 2.05s" />
    <circle cx="353.7931034482759" cy="150" r="4" fill="#6b63ff" class="data-point" style="animation-delay: 2.10s" />
    <circle cx="378.2758620689655" cy="135.71428571428572" r="4" fill="#6b63ff" class="data-point" style="animation-delay: 2.15s" />
    <circle cx="402.7586206896552" cy="135.71428571428572" r="4" fill="#6b63ff" class="data-point" style="animation-delay: 2.20s" />
    <circle cx="427.2413793103448" cy="121.42857142857144" r="4" fill="#6b63ff" class="data-point" style="animation-delay: 2.25s" />
    <circle cx="451.7241379310345" cy="92.85714285714289" r="4" fill="#6b63ff" class="data-point" style="animation-delay: 2.30s" />
    <circle cx="476.2068965517241" cy="92.85714285714289" r="4" fill="#6b63ff" class="data-point" style="animation-delay: 2.35s" />
    <circle cx="500.6896551724138" cy="78.57142857142856" r="4" fill="#6b63ff" class="data-point" style="animation-delay: 2.40s" />
    <circle cx="525.1724137931035" cy="78.57142857142856" r="4" fill="#6b63ff" class="data-point" style="animation-delay: 2.45s" />
    <circle cx="549.6551724137931" cy="78.57142857142856" r="4" fill="#6b63ff" class="data-point" style="animation-delay: 2.50s" />
    <circle cx="574.1379310344828" cy="78.57142857142856" r="4" fill="#6b63ff" class="data-point" style="animation-delay: 2.55s" />
    <circle cx="598.6206896551724" cy="78.57142857142856" r="4" fill="#6b63ff" class="data-point" style="animation-delay: 2.60s" />
    <circle cx="623.1034482758621" cy="78.57142857142856" r="4" fill="#6b63ff" class="data-point" style="animation-delay: 2.65s" />
    <circle cx="647.5862068965517" cy="78.57142857142856" r="4" fill="#6b63ff" class="data-point" style="animation-delay: 2.70s" />
    <circle cx="672.0689655172414" cy="78.57142857142856" r="4" fill="#6b63ff" class="data-point" style="animation-delay: 2.75s" />
    <circle cx="696.551724137931" cy="78.57142857142856" r="4" fill="#6b63ff" class="data-point" style="animation-delay: 2.80s" />
    <circle cx="721.0344827586207" cy="78.57142857142856" r="4" fill="#6b63ff" class="data-point" style="animation-delay: 2.85s" />
    <circle cx="745.5172413793103" cy="78.57142857142856" r="4" fill="#6b63ff" class="data-point" style="animation-delay: 2.90s" />
    <circle cx="770" cy="78.57142857142856" r="4" fill="#6b63ff" class="data-point" style="animation-delay: 2.95s" />
  </g>
</svg>