<svg xmlns="http://www.w3.org/2000/svg" viewBox="0 0 800 400" width="800" height="400">
  <style>
    @keyframes drawLine {
      to { stroke-dashoffset: 0; }
    }
    @keyframes fadeInPoint {
      from { opacity: 0; }
      to { opacity: 1; }
    }
    .data-line-0 {
      stroke-dasharray: 1320;
      stroke-dashoffset: 1320;
      animation: drawLine 2s ease-out forwards;
    }
    .data-point {
      opacity: 0;
      animation: fadeInPoint 0.5s ease-out forwards;
    }
    .chart-bg { fill: #fff; }
    .chart-text { fill: #24292e; }
    .chart-muted { fill: #6a737d; }
    .chart-grid { stroke: #eee; }
    .chart-axis { stroke: #6a737d; }
    @media (prefers-color-scheme: dark) {
      .chart-bg { fill: #0d1117; }
      .chart-text { fill: #e6edf3; }
      .chart-muted { fill: #8b949e; }
      .chart-grid { stroke: #21262d; }
      .chart-axis { stroke: #8b949e; }
    }
  </style>
  <rect width="800" height="400" class="chart-bg" />
  <text x="400" y="14" text-anchor="middle" class="chart-text" font-size="16" font-weight="bold" font-family="-apple-system, BlinkMacSystemFont, 'Segoe UI', Helvetica, Arial, sans-serif">action-pack/increment Star History</text>
  
  <g class="grid">
    <line x1="60" y1="350" x2="770" y2="350" class="chart-grid" stroke-opacity="0.3" />
    <text x="778" y="354" text-anchor="start" class="chart-muted" font-size="11" font-family="-apple-system, BlinkMacSystemFont, 'Segoe UI', Helvetica, Arial, sans-serif">0</text>
    <line x1="60" y1="290" x2="770" y2="290" class="chart-grid" stroke-opacity="0.3" />
    <text x="778" y="294" text-anchor="start" class="chart-muted" font-size="11" font-family="-apple-system, BlinkMacSystemFont, 'Segoe UI', Helvetica, Arial, sans-serif">2</text>
    <line x1="60" y1="230" x2="770" y2="230" class="chart-grid" stroke-opacity="0.3" />
    <text x="778" y="234" text-anchor="start" class="chart-muted" font-size="11" font-family="-apple-system, BlinkMacSystemFont, 'Segoe UI', Helvetica, Arial, sans-serif">4</text>
    <line x1="60" y1="170" x2="770" y2="170" class="chart-grid" stroke-opacity="0.3" />
    <text x="778" y="174" text-anchor="start" class="chart-muted" font-size="11" font-family="-apple-system, BlinkMacSystemFont, 'Segoe UI', Helvetica, Arial, sans-serif">6</text>
    <line x1="60" y1="110" x2="770" y2="110" class="chart-grid" stroke-opacity="0.3" />
    <text x="778" y="114" text-anchor="start" class="chart-muted" font-size="11" font-family="-apple-system, BlinkMacSystemFont, 'Segoe UI', Helvetica, Arial, sans-serif">8</text>
    <line x1="60" y1="50" x2="770" y2="50" class="chart-grid" stroke-opacity="0.3" />
    <text x="778" y="54" text-anchor="start" class="chart-muted" font-size="11" font-family="-apple-system, BlinkMacSystemFont, 'Segoe UI', Helvetica, Arial, sans-serif">10</text>
  </g>
  <g class="milestones">
    
  </g>
  <g class="x-axis">
    <text x="60" y="370" text-anchor="middle" class="chart-muted" font-size="11" font-family="-apple-system, BlinkMacSystemFont, 'Segoe UI', Helvetica, Arial, sans-serif">2023</text>
    <text x="108.9655172413793" y="370" text-anchor="middle" class="chart-muted" font-size="11" font-family="-apple-system, BlinkMacSystemFont, 'Segoe UI', Helvetica, Arial, sans-serif">2024</text>
    <text x="378.2758620689655" y="370" text-anchor="middle" class="chart-muted" font-size="11" font-family="-apple-system, BlinkMacSystemFont, 'Segoe UI', Helvetica, Arial, sans-serif">2025</text>
    <text x="647.5862068965517" y="370" text-anchor="middle" class="chart-muted" font-size="11" font-family="-apple-system, BlinkMacSystemFont, 'Segoe UI', Helvetica, Arial, sans-serif">2026</text>
  </g>
  <line x1="770" y1="50" x2="770" y2="350" class="chart-axis" stroke-width="1" />
  <line x1="60" y1="350" x2="770" y2="350" class="chart-axis" stroke-width="1" />
  <path d="M60,350 L60,320 C63.264367816091955,320 77.95402298850574,320 84.48275862068965,320 C91.01149425287356,320 102.43678160919539,320 108.9655172413793,320 C115.49425287356321,320 126.91954022988504,320 133.44827586206895,320 C139.97701149425285,316 151.40229885057468,298 157.9310344827586,290 C164.45977011494253,282 175.88505747126436,268 182.41379310344828,260 C188.9425287356322,252 200.36781609195404,234 206.89655172413794,230 C213.42528735632183,230 224.8505747126437,230 231.3793103448276,230 C237.90804597701148,230 249.33333333333334,230 255.86206896551724,230 C262.39080459770116,218 273.81609195402297,152 280.34482758620686,140 C286.87356321839076,140 298.2988505747127,140 304.82758620689657,140 C311.35632183908046,140 322.7816091954023,140 329.3103448275862,140 C335.8390804597701,140 347.264367816092,140 353.7931034482759,140 C360.32183908045977,140 371.7471264367816,140 378.2758620689655,140 C384.8045977011494,140 396.2298850574713,140 402.7586206896552,140 C409.28735632183907,140 420.71264367816093,140 427.2413793103448,140 C433.7701149425287,140 445.1954022988506,140 451.7241379310345,140 C458.2528735632184,140 469.67816091954023,140 476.2068965517241,140 C482.735632183908,140 494.1609195402299,140 500.6896551724138,140 C507.2183908045977,140 518.6436781609195,140 525.1724137931035,140 C531.7011494252874,140 543.1264367816092,140 549.6551724137931,140 C556.1839080459771,140 567.6091954022988,140 574.1379310344828,140 C580.6666666666667,136 592.0919540229885,114 598.6206896551724,110 C605.1494252873564,110 616.5747126436781,110 623.1034482758621,110 C629.632183908046,110 641.0574712643678,110 647.5862068965517,110 C654.1149425287357,110 665.5402298850574,110 672.0689655172414,110 C678.5977011494253,110 690.0229885057471,110 696.551724137931,110 C703.080459770115,110 714.5057471264367,110 721.0344827586207,110 C727.5632183908046,106 738.9885057471264,84 745.5172413793103,80 C752.0459770114943,80 766.735632183908,80 770,80 L770,350 L60,350 Z" fill="#6b63ff" fill-opacity="0.1" />
  <path d="M60,350 L60,320 C63.264367816091955,320 77.95402298850574,320 84.48275862068965,320 C91.01149425287356,320 102.43678160919539,320 108.9655172413793,320 C115.49425287356321,320 126.91954022988504,320 133.44827586206895,320 C139.97701149425285,316 151.40229885057468,298 157.9310344827586,290 C164.45977011494253,282 175.88505747126436,268 182.41379310344828,260 C188.9425287356322,252 200.36781609195404,234 206.89655172413794,230 C213.42528735632183,230 224.8505747126437,230 231.3793103448276,230 C237.90804597701148,230 249.33333333333334,230 255.86206896551724,230 C262.39080459770116,218 273.81609195402297,152 280.34482758620686,140 C286.87356321839076,140 298.2988505747127,140 304.82758620689657,140 C311.35632183908046,140 322.7816091954023,140 329.3103448275862,140 C335.8390804597701,140 347.264367816092,140 353.7931034482759,140 C360.32183908045977,140 371.7471264367816,140 378.2758620689655,140 C384.8045977011494,140 396.2298850574713,140 402.7586206896552,140 C409.28735632183907,140 420.71264367816093,140 427.2413793103448,140 C433.7701149425287,140 445.1954022988506,140 451.7241379310345,140 C458.2528735632184,140 469.67816091954023,140 476.2068965517241,140 C482.735632183908,140 494.1609195402299,140 500.6896551724138,140 C507.2183908045977,140 518.6436781609195,140 525.1724137931035,140 C531.7011494252874,140 543.1264367816092,140 549.6551724137931,140 C556.1839080459771,140 567.6091954022988,140 574.1379310344828,140 C580.6666666666667,136 592.0919540229885,114 598.6206896551724,110 C605.1494252873564,110 616.5747126436781,110 623.1034482758621,110 C629.632183908046,110 641.0574712643678,110 647.5862068965517,110 C654.1149425287357,110 665.5402298850574,110 672.0689655172414,110 C678.5977011494253,110 690.0229885057471,110 696.551724137931,110 C703.080459770115,110 714.5057471264367,110 721.0344827586207,110 C727.5632183908046,106 738.9885057471264,84 745.5172413793103,80 C752.0459770114943,80 766.735632183908,80 770,80" fill="none" stroke="#6b63ff" stroke-width="2.5" class="data-line-0" />
  <g class="points">
    
    <circle cx="60" cy="320" r="4" fill="#6b63ff" class="data-point" style="animation-delay: 1.50s" />
    <circle cx="84.48275862068965" cy="320" r="4" fill="#6b63ff" class="data-point" style="animation-delay: 1.55s" />
    <circle cx="108.9655172413793" cy="320" r="4" fill="#6b63ff" class="data-point" style="animation-delay: 1.60s" />
    <circle cx="133.44827586206895" cy="320" r="4" fill="#6b63ff" class="data-point" style="animation-delay: 1.65s" />
    <circle cx="157.9310344827586" cy="290" r="4" fill="#6b63ff" class="data-point" style="animation-delay: 1.70s" />
    <circle cx="182.41379310344828" cy="260" r="4" fill="#6b63ff" class="data-point" style="animation-delay: 1.75s" />
    <circle cx="206.89655172413794" cy="230" r="4" fill="#6b63ff" class="data-point" style="animation-delay: 1.80s" />
    <circle cx="231.3793103448276" cy="230" r="4" fill="#6b63ff" class="data-point" style="animation-delay: 1.85s" />
    <circle cx="255.86206896551724" cy="230" r="4" fill="#6b63ff" class="data-point" style="animation-delay: 1.90s" />
    <circle cx="280.34482758620686" cy="140" r="4" fill="#6b63ff" class="data-point" style="animation-delay: 1.95s" />
    <circle cx="304.82758620689657" cy="140" r="4" fill="#6b63ff" class="data-point" style="animation-delay: 2.00s" />
    <circle cx="329.3103448275862" cy="140" r="4" fill="#6b63ff" class="data-point" style="animation-delay: 2.05s" />
    <circle cx="353.7931034482759" cy="140" r="4" fill="#6b63ff" class="data-point" style="animation-delay: 2.10s" />
    <circle cx="378.2758620689655" cy="140" r="4" fill="#6b63ff" class="data-point" style="animation-delay: 2.15s" />
    <circle cx="402.7586206896552" cy="140" r="4" fill="#6b63ff" class="data-point" style="animation-delay: 2.20s" />
    <circle cx="427.2413793103448" cy="140" r="4" fill="#6b63ff" class="data-point" style="animation-delay: 2.25s" />
    <circle cx="451.7241379310345" cy="140" r="4" fill="#6b63ff" class="data-point" style="animation-delay: 2.30s" />
    <circle cx="476.2068965517241" cy="140" r="4" fill="#6b63ff" class="data-point" style="animation-delay: 2.35s" />
    <circle cx="500.6896551724138" cy="140" r="4" fill="#6b63ff" class="data-point" style="animation-delay: 2.40s" />
    <circle cx="525.1724137931035" cy="140" r="4" fill="#6b63ff" class="data-point" style="animation-delay: 2.45s" />
    <circle cx="549.6551724137931" cy="140" r="4" fill="#6b63ff" class="data-point" style="animation-delay: 2.50s" />
    <circle cx="574.1379310344828" cy="140" r="4" fill="#6b63ff" class="data-point" style="animation-delay: 2.55s" />
    <circle cx="598.6206896551724" cy="110" r="4" fill="#6b63ff" class="data-point" style="animation-delay: 2.60s" />
    <circle cx="623.1034482758621" cy="110" r="4" fill="#6b63ff" class="data-point" style="animation-delay: 2.65s" />
    <circle cx="647.5862068965517" cy="110" r="4" fill="#6b63ff" class="data-point" style="animation-delay: 2.70s" />
    <circle cx="672.0689655172414" cy="110" r="4" fill="#6b63ff" class="data-point" style="animation-delay: 2.75s" />
    <circle cx="696.551724137931" cy="110" r="4" fill="#6b63ff" class="data-point" style="animation-delay: 2.80s" />
    <circle cx="721.0344827586207" cy="110" r="4" fill="#6b63ff" class="data-point" style="animation-delay: 2.85s" />
    <circle cx="745.5172413793103" cy="80" r="4" fill="#6b63ff" class="data-point" style="animation-delay: 2.90s" />
    <circle cx="770" cy="80" r="4" fill="#6b63ff" class="data-point" style="animation-delay: 2.95s" />
  </g>
</svg>