<svg xmlns="http://www.w3.org/2000/svg" viewBox="0 0 800 400" width="800" height="400">
  <style>
    @keyframes drawLine {
      to { stroke-dashoffset: 0; }
    }
    @keyframes fadeInPoint {
      from { opacity: 0; }
      to { opacity: 1; }
    }
    .data-line-0 {
      stroke-dasharray: 1290;
      stroke-dashoffset: 1290;
      animation: drawLine 2s ease-out forwards;
    }
    .data-point {
      opacity: 0;
      animation: fadeInPoint 0.5s ease-out forwards;
    }
    .chart-bg { fill: #fff; }
    .chart-text { fill: #24292e; }
    .chart-muted { fill: #6a737d; }
    .chart-grid { stroke: #eee; }
    .chart-axis { stroke: #6a737d; }
    @media (prefers-color-scheme: dark) {
      .chart-bg { fill: #0d1117; }
      .chart-text { fill: #e6edf3; }
      .chart-muted { fill: #8b949e; }
      .chart-grid { stroke: #21262d; }
      .chart-axis { stroke: #8b949e; }
    }
  </style>
  <rect width="800" height="400" class="chart-bg" />
  <text x="400" y="34" text-anchor="middle" class="chart-text" font-size="16" font-weight="bold" font-family="-apple-system, BlinkMacSystemFont, 'Segoe UI', Helvetica, Arial, sans-serif">action-pack/bump Star History</text>
  
  <g class="grid">
    <line x1="60" y1="350" x2="770" y2="350" class="chart-grid" stroke-opacity="0.3" />
    <text x="778" y="354" text-anchor="start" class="chart-muted" font-size="11" font-family="-apple-system, BlinkMacSystemFont, 'Segoe UI', Helvetica, Arial, sans-serif">0</text>
    <line x1="60" y1="200" x2="770" y2="200" class="chart-grid" stroke-opacity="0.3" />
    <text x="778" y="204" text-anchor="start" class="chart-muted" font-size="11" font-family="-apple-system, BlinkMacSystemFont, 'Segoe UI', Helvetica, Arial, sans-serif">1</text>
    <line x1="60" y1="200" x2="770" y2="200" class="chart-grid" stroke-opacity="0.3" />
    <text x="778" y="204" text-anchor="start" class="chart-muted" font-size="11" font-family="-apple-system, BlinkMacSystemFont, 'Segoe UI', Helvetica, Arial, sans-serif">1</text>
    <line x1="60" y1="50" x2="770" y2="50" class="chart-grid" stroke-opacity="0.3" />
    <text x="778" y="54" text-anchor="start" class="chart-muted" font-size="11" font-family="-apple-system, BlinkMacSystemFont, 'Segoe UI', Helvetica, Arial, sans-serif">2</text>
    <line x1="60" y1="50" x2="770" y2="50" class="chart-grid" stroke-opacity="0.3" />
    <text x="778" y="54" text-anchor="start" class="chart-muted" font-size="11" font-family="-apple-system, BlinkMacSystemFont, 'Segoe UI', Helvetica, Arial, sans-serif">2</text>
  </g>
  <g class="milestones">
    
  </g>
  <g class="x-axis">
    <text x="60" y="370" text-anchor="middle" class="chart-muted" font-size="11" font-family="-apple-system, BlinkMacSystemFont, 'Segoe UI', Helvetica, Arial, sans-serif">2023</text>
    <text x="206.89655172413794" y="370" text-anchor="middle" class="chart-muted" font-size="11" font-family="-apple-system, BlinkMacSystemFont, 'Segoe UI', Helvetica, Arial, sans-serif">2024</text>
    <text x="451.7241379310345" y="370" text-anchor="middle" class="chart-muted" font-size="11" font-family="-apple-system, BlinkMacSystemFont, 'Segoe UI', Helvetica, Arial, sans-serif">2025</text>
    <text x="672.0689655172414" y="370" text-anchor="middle" class="chart-muted" font-size="11" font-family="-apple-system, BlinkMacSystemFont, 'Segoe UI', Helvetica, Arial, sans-serif">2026</text>
  </g>
  <line x1="770" y1="50" x2="770" y2="350" class="chart-axis" stroke-width="1" />
  <line x1="60" y1="350" x2="770" y2="350" class="chart-axis" stroke-width="1" />
  <path d="M60,350 L60,200 C63.264367816091955,200 77.95402298850574,200 84.48275862068965,200 C91.01149425287356,200 102.43678160919539,200 108.9655172413793,200 C115.49425287356321,200 126.91954022988504,200 133.44827586206895,200 C139.97701149425285,200 151.40229885057468,200 157.9310344827586,200 C164.45977011494253,200 175.88505747126436,200 182.41379310344828,200 C188.9425287356322,200 200.36781609195404,200 206.89655172413794,200 C213.42528735632183,200 224.8505747126437,200 231.3793103448276,200 C237.90804597701148,200 249.33333333333334,200 255.86206896551724,200 C262.39080459770116,200 273.81609195402297,200 280.34482758620686,200 C286.87356321839076,200 298.2988505747127,200 304.82758620689657,200 C311.35632183908046,200 322.7816091954023,200 329.3103448275862,200 C335.8390804597701,200 347.264367816092,200 353.7931034482759,200 C360.32183908045977,200 371.7471264367816,200 378.2758620689655,200 C384.8045977011494,200 396.2298850574713,200 402.7586206896552,200 C409.28735632183907,200 420.71264367816093,200 427.2413793103448,200 C433.7701149425287,200 445.1954022988506,200 451.7241379310345,200 C458.2528735632184,200 469.67816091954023,200 476.2068965517241,200 C482.735632183908,200 494.1609195402299,200 500.6896551724138,200 C507.2183908045977,200 518.6436781609195,200 525.1724137931035,200 C531.7011494252874,200 543.1264367816092,200 549.6551724137931,200 C556.1839080459771,200 567.6091954022988,200 574.1379310344828,200 C580.6666666666667,200 592.0919540229885,200 598.6206896551724,200 C605.1494252873564,200 616.5747126436781,200 623.1034482758621,200 C629.632183908046,200 641.0574712643678,200 647.5862068965517,200 C654.1149425287357,200 665.5402298850574,200 672.0689655172414,200 C678.5977011494253,200 690.0229885057471,200 696.551724137931,200 C703.080459770115,200 714.5057471264367,200 721.0344827586207,200 C727.5632183908046,200 738.9885057471264,200 745.5172413793103,200 C752.0459770114943,200 766.735632183908,200 770,200 L770,350 L60,350 Z" fill="#6b63ff" fill-opacity="0.1" />
  <path d="M60,350 L60,200 C63.264367816091955,200 77.95402298850574,200 84.48275862068965,200 C91.01149425287356,200 102.43678160919539,200 108.9655172413793,200 C115.49425287356321,200 126.91954022988504,200 133.44827586206895,200 C139.97701149425285,200 151.40229885057468,200 157.9310344827586,200 C164.45977011494253,200 175.88505747126436,200 182.41379310344828,200 C188.9425287356322,200 200.36781609195404,200 206.89655172413794,200 C213.42528735632183,200 224.8505747126437,200 231.3793103448276,200 C237.90804597701148,200 249.33333333333334,200 255.86206896551724,200 C262.39080459770116,200 273.81609195402297,200 280.34482758620686,200 C286.87356321839076,200 298.2988505747127,200 304.82758620689657,200 C311.35632183908046,200 322.7816091954023,200 329.3103448275862,200 C335.8390804597701,200 347.264367816092,200 353.7931034482759,200 C360.32183908045977,200 371.7471264367816,200 378.2758620689655,200 C384.8045977011494,200 396.2298850574713,200 402.7586206896552,200 C409.28735632183907,200 420.71264367816093,200 427.2413793103448,200 C433.7701149425287,200 445.1954022988506,200 451.7241379310345,200 C458.2528735632184,200 469.67816091954023,200 476.2068965517241,200 C482.735632183908,200 494.1609195402299,200 500.6896551724138,200 C507.2183908045977,200 518.6436781609195,200 525.1724137931035,200 C531.7011494252874,200 543.1264367816092,200 549.6551724137931,200 C556.1839080459771,200 567.6091954022988,200 574.1379310344828,200 C580.6666666666667,200 592.0919540229885,200 598.6206896551724,200 C605.1494252873564,200 616.5747126436781,200 623.1034482758621,200 C629.632183908046,200 641.0574712643678,200 647.5862068965517,200 C654.1149425287357,200 665.5402298850574,200 672.0689655172414,200 C678.5977011494253,200 690.0229885057471,200 696.551724137931,200 C703.080459770115,200 714.5057471264367,200 721.0344827586207,200 C727.5632183908046,200 738.9885057471264,200 745.5172413793103,200 C752.0459770114943,200 766.735632183908,200 770,200" fill="none" stroke="#6b63ff" stroke-width="2.5" class="data-line-0" />
  <g class="points">
    
    <circle cx="60" cy="200" r="4" fill="#6b63ff" class="data-point" style="animation-delay: 1.50s" />
    <circle cx="84.48275862068965" cy="200" r="4" fill="#6b63ff" class="data-point" style="animation-delay: 1.55s" />
    <circle cx="108.9655172413793" cy="200" r="4" fill="#6b63ff" class="data-point" style="animation-delay: 1.60s" />
    <circle cx="133.44827586206895" cy="200" r="4" fill="#6b63ff" class="data-point" style="animation-delay: 1.65s" />
    <circle cx="157.9310344827586" cy="200" r="4" fill="#6b63ff" class="data-point" style="animation-delay: 1.70s" />
    <circle cx="182.41379310344828" cy="200" r="4" fill="#6b63ff" class="data-point" style="animation-delay: 1.75s" />
    <circle cx="206.89655172413794" cy="200" r="4" fill="#6b63ff" class="data-point" style="animation-delay: 1.80s" />
    <circle cx="231.3793103448276" cy="200" r="4" fill="#6b63ff" class="data-point" style="animation-delay: 1.85s" />
    <circle cx="255.86206896551724" cy="200" r="4" fill="#6b63ff" class="data-point" style="animation-delay: 1.90s" />
    <circle cx="280.34482758620686" cy="200" r="4" fill="#6b63ff" class="data-point" style="animation-delay: 1.95s" />
    <circle cx="304.82758620689657" cy="200" r="4" fill="#6b63ff" class="data-point" style="animation-delay: 2.00s" />
    <circle cx="329.3103448275862" cy="200" r="4" fill="#6b63ff" class="data-point" style="animation-delay: 2.05s" />
    <circle cx="353.7931034482759" cy="200" r="4" fill="#6b63ff" class="data-point" style="animation-delay: 2.10s" />
    <circle cx="378.2758620689655" cy="200" r="4" fill="#6b63ff" class="data-point" style="animation-delay: 2.15s" />
    <circle cx="402.7586206896552" cy="200" r="4" fill="#6b63ff" class="data-point" style="animation-delay: 2.20s" />
    <circle cx="427.2413793103448" cy="200" r="4" fill="#6b63ff" class="data-point" style="animation-delay: 2.25s" />
    <circle cx="451.7241379310345" cy="200" r="4" fill="#6b63ff" class="data-point" style="animation-delay: 2.30s" />
    <circle cx="476.2068965517241" cy="200" r="4" fill="#6b63ff" class="data-point" style="animation-delay: 2.35s" />
    <circle cx="500.6896551724138" cy="200" r="4" fill="#6b63ff" class="data-point" style="animation-delay: 2.40s" />
    <circle cx="525.1724137931035" cy="200" r="4" fill="#6b63ff" class="data-point" style="animation-delay: 2.45s" />
    <circle cx="549.6551724137931" cy="200" r="4" fill="#6b63ff" class="data-point" style="animation-delay: 2.50s" />
    <circle cx="574.1379310344828" cy="200" r="4" fill="#6b63ff" class="data-point" style="animation-delay: 2.55s" />
    <circle cx="598.6206896551724" cy="200" r="4" fill="#6b63ff" class="data-point" style="animation-delay: 2.60s" />
    <circle cx="623.1034482758621" cy="200" r="4" fill="#6b63ff" class="data-point" style="animation-delay: 2.65s" />
    <circle cx="647.5862068965517" cy="200" r="4" fill="#6b63ff" class="data-point" style="animation-delay: 2.70s" />
    <circle cx="672.0689655172414" cy="200" r="4" fill="#6b63ff" class="data-point" style="animation-delay: 2.75s" />
    <circle cx="696.551724137931" cy="200" r="4" fill="#6b63ff" class="data-point" style="animation-delay: 2.80s" />
    <circle cx="721.0344827586207" cy="200" r="4" fill="#6b63ff" class="data-point" style="animation-delay: 2.85s" />
    <circle cx="745.5172413793103" cy="200" r="4" fill="#6b63ff" class="data-point" style="animation-delay: 2.90s" />
    <circle cx="770" cy="200" r="4" fill="#6b63ff" class="data-point" style="animation-delay: 2.95s" />
  </g>
</svg>