<svg xmlns="http://www.w3.org/2000/svg" viewBox="0 0 800 400" width="800" height="400">
  <style>
    @keyframes drawLine {
      to { stroke-dashoffset: 0; }
    }
    @keyframes fadeInPoint {
      from { opacity: 0; }
      to { opacity: 1; }
    }
    .data-line-0 {
      stroke-dasharray: 1261;
      stroke-dashoffset: 1261;
      animation: drawLine 2s ease-out forwards;
    }
    .data-point {
      opacity: 0;
      animation: fadeInPoint 0.5s ease-out forwards;
    }
    .chart-bg { fill: #fff; }
    .chart-text { fill: #24292e; }
    .chart-muted { fill: #6a737d; }
    .chart-grid { stroke: #eee; }
    .chart-axis { stroke: #6a737d; }
    @media (prefers-color-scheme: dark) {
      .chart-bg { fill: #0d1117; }
      .chart-text { fill: #e6edf3; }
      .chart-muted { fill: #8b949e; }
      .chart-grid { stroke: #21262d; }
      .chart-axis { stroke: #8b949e; }
    }
  </style>
  <rect width="800" height="400" class="chart-bg" />
  <text x="400" y="34" text-anchor="middle" class="chart-text" font-size="16" font-weight="bold" font-family="-apple-system, BlinkMacSystemFont, 'Segoe UI', Helvetica, Arial, sans-serif">action-pack/gitlab-sync Star History</text>
  
  <g class="grid">
    <line x1="60" y1="350" x2="770" y2="350" class="chart-grid" stroke-opacity="0.3" />
    <text x="778" y="354" text-anchor="start" class="chart-muted" font-size="11" font-family="-apple-system, BlinkMacSystemFont, 'Segoe UI', Helvetica, Arial, sans-serif">0</text>
    <line x1="60" y1="278.57142857142856" x2="770" y2="278.57142857142856" class="chart-grid" stroke-opacity="0.3" />
    <text x="778" y="282.57142857142856" text-anchor="start" class="chart-muted" font-size="11" font-family="-apple-system, BlinkMacSystemFont, 'Segoe UI', Helvetica, Arial, sans-serif">5</text>
    <line x1="60" y1="207.14285714285714" x2="770" y2="207.14285714285714" class="chart-grid" stroke-opacity="0.3" />
    <text x="778" y="211.14285714285714" text-anchor="start" class="chart-muted" font-size="11" font-family="-apple-system, BlinkMacSystemFont, 'Segoe UI', Helvetica, Arial, sans-serif">10</text>
    <line x1="60" y1="135.71428571428572" x2="770" y2="135.71428571428572" class="chart-grid" stroke-opacity="0.3" />
    <text x="778" y="139.71428571428572" text-anchor="start" class="chart-muted" font-size="11" font-family="-apple-system, BlinkMacSystemFont, 'Segoe UI', Helvetica, Arial, sans-serif">15</text>
    <line x1="60" y1="64.28571428571428" x2="770" y2="64.28571428571428" class="chart-grid" stroke-opacity="0.3" />
    <text x="778" y="68.28571428571428" text-anchor="start" class="chart-muted" font-size="11" font-family="-apple-system, BlinkMacSystemFont, 'Segoe UI', Helvetica, Arial, sans-serif">20</text>
  </g>
  <g class="milestones">
    
  </g>
  <g class="x-axis">
    <text x="60" y="370" text-anchor="middle" class="chart-muted" font-size="11" font-family="-apple-system, BlinkMacSystemFont, 'Segoe UI', Helvetica, Arial, sans-serif">2023</text>
    <text x="206.89655172413794" y="370" text-anchor="middle" class="chart-muted" font-size="11" font-family="-apple-system, BlinkMacSystemFont, 'Segoe UI', Helvetica, Arial, sans-serif">2024</text>
    <text x="427.2413793103448" y="370" text-anchor="middle" class="chart-muted" font-size="11" font-family="-apple-system, BlinkMacSystemFont, 'Segoe UI', Helvetica, Arial, sans-serif">2025</text>
    <text x="672.0689655172414" y="370" text-anchor="middle" class="chart-muted" font-size="11" font-family="-apple-system, BlinkMacSystemFont, 'Segoe UI', Helvetica, Arial, sans-serif">2026</text>
  </g>
  <line x1="770" y1="50" x2="770" y2="350" class="chart-axis" stroke-width="1" />
  <line x1="60" y1="350" x2="770" y2="350" class="chart-axis" stroke-width="1" />
  <path d="M60,350 L60,335.7142857142857 C63.264367816091955,328.0952380952381 77.95402298850574,288.0952380952381 84.48275862068965,278.57142857142856 C91.01149425287356,269.04761904761904 102.43678160919539,268.0952380952381 108.9655172413793,264.2857142857143 C115.49425287356321,260.4761904761905 126.91954022988504,255.71428571428572 133.44827586206895,250 C139.97701149425285,244.28571428571428 151.40229885057468,225.23809523809524 157.9310344827586,221.42857142857144 C164.45977011494253,221.42857142857144 175.88505747126436,221.42857142857144 182.41379310344828,221.42857142857144 C188.9425287356322,219.52380952380955 200.36781609195404,209.04761904761904 206.89655172413794,207.14285714285714 C213.42528735632183,207.14285714285714 224.8505747126437,207.14285714285714 231.3793103448276,207.14285714285714 C237.90804597701148,207.14285714285714 249.33333333333334,207.14285714285714 255.86206896551724,207.14285714285714 C262.39080459770116,207.14285714285714 273.81609195402297,207.14285714285714 280.34482758620686,207.14285714285714 C286.87356321839076,205.23809523809524 298.2988505747127,200.47619047619048 304.82758620689657,192.85714285714286 C311.35632183908046,185.23809523809524 322.7816091954023,155.71428571428572 329.3103448275862,150 C335.8390804597701,150 347.264367816092,150 353.7931034482759,150 C360.32183908045977,148.0952380952381 371.7471264367816,137.61904761904762 378.2758620689655,135.71428571428572 C384.8045977011494,135.71428571428572 396.2298850574713,135.71428571428572 402.7586206896552,135.71428571428572 C409.28735632183907,133.80952380952382 420.71264367816093,127.14285714285715 427.2413793103448,121.42857142857144 C433.7701149425287,115.71428571428574 445.1954022988506,96.6666666666667 451.7241379310345,92.85714285714289 C458.2528735632184,92.85714285714289 469.67816091954023,92.85714285714289 476.2068965517241,92.85714285714289 C482.735632183908,90.95238095238098 494.1609195402299,80.47619047619047 500.6896551724138,78.57142857142856 C507.2183908045977,78.57142857142856 518.6436781609195,78.57142857142856 525.1724137931035,78.57142857142856 C531.7011494252874,78.57142857142856 543.1264367816092,78.57142857142856 549.6551724137931,78.57142857142856 C556.1839080459771,78.57142857142856 567.6091954022988,78.57142857142856 574.1379310344828,78.57142857142856 C580.6666666666667,78.57142857142856 592.0919540229885,78.57142857142856 598.6206896551724,78.57142857142856 C605.1494252873564,78.57142857142856 616.5747126436781,78.57142857142856 623.1034482758621,78.57142857142856 C629.632183908046,78.57142857142856 641.0574712643678,78.57142857142856 647.5862068965517,78.57142857142856 C654.1149425287357,78.57142857142856 665.5402298850574,78.57142857142856 672.0689655172414,78.57142857142856 C678.5977011494253,78.57142857142856 690.0229885057471,78.57142857142856 696.551724137931,78.57142857142856 C703.080459770115,78.57142857142856 714.5057471264367,78.57142857142856 721.0344827586207,78.57142857142856 C727.5632183908046,78.57142857142856 738.9885057471264,78.57142857142856 745.5172413793103,78.57142857142856 C752.0459770114943,78.57142857142856 766.735632183908,78.57142857142856 770,78.57142857142856 L770,350 L60,350 Z" fill="#6b63ff" fill-opacity="0.1" />
  <path d="M60,350 L60,335.7142857142857 C63.264367816091955,328.0952380952381 77.95402298850574,288.0952380952381 84.48275862068965,278.57142857142856 C91.01149425287356,269.04761904761904 102.43678160919539,268.0952380952381 108.9655172413793,264.2857142857143 C115.49425287356321,260.4761904761905 126.91954022988504,255.71428571428572 133.44827586206895,250 C139.97701149425285,244.28571428571428 151.40229885057468,225.23809523809524 157.9310344827586,221.42857142857144 C164.45977011494253,221.42857142857144 175.88505747126436,221.42857142857144 182.41379310344828,221.42857142857144 C188.9425287356322,219.52380952380955 200.36781609195404,209.04761904761904 206.89655172413794,207.14285714285714 C213.42528735632183,207.14285714285714 224.8505747126437,207.14285714285714 231.3793103448276,207.14285714285714 C237.90804597701148,207.14285714285714 249.33333333333334,207.14285714285714 255.86206896551724,207.14285714285714 C262.39080459770116,207.14285714285714 273.81609195402297,207.14285714285714 280.34482758620686,207.14285714285714 C286.87356321839076,205.23809523809524 298.2988505747127,200.47619047619048 304.82758620689657,192.85714285714286 C311.35632183908046,185.23809523809524 322.7816091954023,155.71428571428572 329.3103448275862,150 C335.8390804597701,150 347.264367816092,150 353.7931034482759,150 C360.32183908045977,148.0952380952381 371.7471264367816,137.61904761904762 378.2758620689655,135.71428571428572 C384.8045977011494,135.71428571428572 396.2298850574713,135.71428571428572 402.7586206896552,135.71428571428572 C409.28735632183907,133.80952380952382 420.71264367816093,127.14285714285715 427.2413793103448,121.42857142857144 C433.7701149425287,115.71428571428574 445.1954022988506,96.6666666666667 451.7241379310345,92.85714285714289 C458.2528735632184,92.85714285714289 469.67816091954023,92.85714285714289 476.2068965517241,92.85714285714289 C482.735632183908,90.95238095238098 494.1609195402299,80.47619047619047 500.6896551724138,78.57142857142856 C507.2183908045977,78.57142857142856 518.6436781609195,78.57142857142856 525.1724137931035,78.57142857142856 C531.7011494252874,78.57142857142856 543.1264367816092,78.57142857142856 549.6551724137931,78.57142857142856 C556.1839080459771,78.57142857142856 567.6091954022988,78.57142857142856 574.1379310344828,78.57142857142856 C580.6666666666667,78.57142857142856 592.0919540229885,78.57142857142856 598.6206896551724,78.57142857142856 C605.1494252873564,78.57142857142856 616.5747126436781,78.57142857142856 623.1034482758621,78.57142857142856 C629.632183908046,78.57142857142856 641.0574712643678,78.57142857142856 647.5862068965517,78.57142857142856 C654.1149425287357,78.57142857142856 665.5402298850574,78.57142857142856 672.0689655172414,78.57142857142856 C678.5977011494253,78.57142857142856 690.0229885057471,78.57142857142856 696.551724137931,78.57142857142856 C703.080459770115,78.57142857142856 714.5057471264367,78.57142857142856 721.0344827586207,78.57142857142856 C727.5632183908046,78.57142857142856 738.9885057471264,78.57142857142856 745.5172413793103,78.57142857142856 C752.0459770114943,78.57142857142856 766.735632183908,78.57142857142856 770,78.57142857142856" fill="none" stroke="#6b63ff" stroke-width="2.5" class="data-line-0" />
  <g class="points">
    
    <circle cx="60" cy="335.7142857142857" r="4" fill="#6b63ff" class="data-point" style="animation-delay: 1.50s" />
    <circle cx="84.48275862068965" cy="278.57142857142856" r="4" fill="#6b63ff" class="data-point" style="animation-delay: 1.55s" />
    <circle cx="108.9655172413793" cy="264.2857142857143" r="4" fill="#6b63ff" class="data-point" style="animation-delay: 1.60s" />
    <circle cx="133.44827586206895" cy="250" r="4" fill="#6b63ff" class="data-point" style="animation-delay: 1.65s" />
    <circle cx="157.9310344827586" cy="221.42857142857144" r="4" fill="#6b63ff" class="data-point" style="animation-delay: 1.70s" />
    <circle cx="182.41379310344828" cy="221.42857142857144" r="4" fill="#6b63ff" class="data-point" style="animation-delay: 1.75s" />
    <circle cx="206.89655172413794" cy="207.14285714285714" r="4" fill="#6b63ff" class="data-point" style="animation-delay: 1.80s" />
    <circle cx="231.3793103448276" cy="207.14285714285714" r="4" fill="#6b63ff" class="data-point" style="animation-delay: 1.85s" />
    <circle cx="255.86206896551724" cy="207.14285714285714" r="4" fill="#6b63ff" class="data-point" style="animation-delay: 1.90s" />
    <circle cx="280.34482758620686" cy="207.14285714285714" r="4" fill="#6b63ff" class="data-point" style="animation-delay: 1.95s" />
    <circle cx="304.82758620689657" cy="192.85714285714286" r="4" fill="#6b63ff" class="data-point" style="animation-delay: 2.00s" />
    <circle cx="329.3103448275862" cy="150" r="4" fill="#6b63ff" class="data-point" style="animation-delay: 2.05s" />
    <circle cx="353.7931034482759" cy="150" r="4" fill="#6b63ff" class="data-point" style="animation-delay: 2.10s" />
    <circle cx="378.2758620689655" cy="135.71428571428572" r="4" fill="#6b63ff" class="data-point" style="animation-delay: 2.15s" />
    <circle cx="402.7586206896552" cy="135.71428571428572" r="4" fill="#6b63ff" class="data-point" style="animation-delay: 2.20s" />
    <circle cx="427.2413793103448" cy="121.42857142857144" r="4" fill="#6b63ff" class="data-point" style="animation-delay: 2.25s" />
    <circle cx="451.7241379310345" cy="92.85714285714289" r="4" fill="#6b63ff" class="data-point" style="animation-delay: 2.30s" />
    <circle cx="476.2068965517241" cy="92.85714285714289" r="4" fill="#6b63ff" class="data-point" style="animation-delay: 2.35s" />
    <circle cx="500.6896551724138" cy="78.57142857142856" r="4" fill="#6b63ff" class="data-point" style="animation-delay: 2.40s" />
    <circle cx="525.1724137931035" cy="78.57142857142856" r="4" fill="#6b63ff" class="data-point" style="animation-delay: 2.45s" />
    <circle cx="549.6551724137931" cy="78.57142857142856" r="4" fill="#6b63ff" class="data-point" style="animation-delay: 2.50s" />
    <circle cx="574.1379310344828" cy="78.57142857142856" r="4" fill="#6b63ff" class="data-point" style="animation-delay: 2.55s" />
    <circle cx="598.6206896551724" cy="78.57142857142856" r="4" fill="#6b63ff" class="data-point" style="animation-delay: 2.60s" />
    <circle cx="623.1034482758621" cy="78.57142857142856" r="4" fill="#6b63ff" class="data-point" style="animation-delay: 2.65s" />
    <circle cx="647.5862068965517" cy="78.57142857142856" r="4" fill="#6b63ff" class="data-point" style="animation-delay: 2.70s" />
    <circle cx="672.0689655172414" cy="78.57142857142856" r="4" fill="#6b63ff" class="data-point" style="animation-delay: 2.75s" />
    <circle cx="696.551724137931" cy="78.57142857142856" r="4" fill="#6b63ff" class="data-point" style="animation-delay: 2.80s" />
    <circle cx="721.0344827586207" cy="78.57142857142856" r="4" fill="#6b63ff" class="data-point" style="animation-delay: 2.85s" />
    <circle cx="745.5172413793103" cy="78.57142857142856" r="4" fill="#6b63ff" class="data-point" style="animation-delay: 2.90s" />
    <circle cx="770" cy="78.57142857142856" r="4" fill="#6b63ff" class="data-point" style="animation-delay: 2.95s" />
  </g>
</svg>