<svg xmlns="http://www.w3.org/2000/svg" viewBox="0 0 800 400" width="800" height="400">
  <style>
    @keyframes drawLine {
      to { stroke-dashoffset: 0; }
    }
    @keyframes fadeInPoint {
      from { opacity: 0; }
      to { opacity: 1; }
    }
    .data-line-0 {
      stroke-dasharray: 1223;
      stroke-dashoffset: 1223;
      animation: drawLine 2s ease-out forwards;
    }
    .data-line-1 {
      stroke-dasharray: 1122;
      stroke-dashoffset: 1122;
      animation: drawLine 2s ease-out forwards;
    }
    .data-line-2 {
      stroke-dasharray: 1066;
      stroke-dashoffset: 1066;
      animation: drawLine 2s ease-out forwards;
    }
    .data-line-3 {
      stroke-dasharray: 1066;
      stroke-dashoffset: 1066;
      animation: drawLine 2s ease-out forwards;
    }
    .data-line-4 {
      stroke-dasharray: 1066;
      stroke-dashoffset: 1066;
      animation: drawLine 2s ease-out forwards;
    }
    .data-line-5 {
      stroke-dasharray: 1066;
      stroke-dashoffset: 1066;
      animation: drawLine 2s ease-out forwards;
    }
    .data-line-6 {
      stroke-dasharray: 1066;
      stroke-dashoffset: 1066;
      animation: drawLine 2s ease-out forwards;
    }
    .data-line-7 {
      stroke-dasharray: 1066;
      stroke-dashoffset: 1066;
      animation: drawLine 2s ease-out forwards;
    }
    .data-line-8 {
      stroke-dasharray: 1066;
      stroke-dashoffset: 1066;
      animation: drawLine 2s ease-out forwards;
    }
    .data-line-9 {
      stroke-dasharray: 1066;
      stroke-dashoffset: 1066;
      animation: drawLine 2s ease-out forwards;
    }
    .data-point {
      opacity: 0;
      animation: fadeInPoint 0.5s ease-out forwards;
    }
    .chart-bg { fill: #fff; }
    .chart-text { fill: #24292e; }
    .chart-muted { fill: #6a737d; }
    .chart-grid { stroke: #eee; }
    .chart-axis { stroke: #6a737d; }
    @media (prefers-color-scheme: dark) {
      .chart-bg { fill: #0d1117; }
      .chart-text { fill: #e6edf3; }
      .chart-muted { fill: #8b949e; }
      .chart-grid { stroke: #21262d; }
      .chart-axis { stroke: #8b949e; }
    }
  </style>
  <rect width="800" height="400" class="chart-bg" />
  <text x="400" y="14" text-anchor="middle" class="chart-text" font-size="16" font-weight="bold" font-family="-apple-system, BlinkMacSystemFont, 'Segoe UI', Helvetica, Arial, sans-serif">Top Repositories</text>
  <g class="legend">
    <rect x="-200" y="31" width="12" height="3" fill="#dfb317" />
    <line x1="-200" y1="32.5" x2="-188" y2="32.5" stroke="#dfb317" stroke-width="2" />
    <text x="-184" y="36" class="chart-text" font-size="10" font-family="-apple-system, BlinkMacSystemFont, 'Segoe UI', Helvetica, Arial, sans-serif">dockur/windows</text>
    <rect x="-80" y="31" width="12" height="3" fill="#28a745" />
    <line x1="-80" y1="32.5" x2="-68" y2="32.5" stroke="#28a745" stroke-width="2" />
    <text x="-64" y="36" class="chart-text" font-size="10" font-family="-apple-system, BlinkMacSystemFont, 'Segoe UI', Helvetica, Arial, sans-serif">dockur/macos</text>
    <rect x="40" y="31" width="12" height="3" fill="#e74c3c" />
    <line x1="40" y1="32.5" x2="52" y2="32.5" stroke="#e74c3c" stroke-width="2" />
    <text x="56" y="36" class="chart-text" font-size="10" font-family="-apple-system, BlinkMacSystemFont, 'Segoe UI', Helvetica, Arial, sans-serif">vdsm/virtual-dsm</text>
    <rect x="160" y="31" width="12" height="3" fill="#3498db" />
    <line x1="160" y1="32.5" x2="172" y2="32.5" stroke="#3498db" stroke-width="2" />
    <text x="176" y="36" class="chart-text" font-size="10" font-family="-apple-system, BlinkMacSystemFont, 'Segoe UI', Helvetica, Arial, sans-serif">dockur/windows-arm</text>
    <rect x="280" y="31" width="12" height="3" fill="#9b59b6" />
    <line x1="280" y1="32.5" x2="292" y2="32.5" stroke="#9b59b6" stroke-width="2" />
    <text x="296" y="36" class="chart-text" font-size="10" font-family="-apple-system, BlinkMacSystemFont, 'Segoe UI', Helvetica, Arial, sans-serif">qemus/qemu</text>
    <rect x="400" y="31" width="12" height="3" fill="#e67e22" />
    <line x1="400" y1="32.5" x2="412" y2="32.5" stroke="#e67e22" stroke-width="2" />
    <text x="416" y="36" class="chart-text" font-size="10" font-family="-apple-system, BlinkMacSystemFont, 'Segoe UI', Helvetica, Arial, sans-serif">dockur/samba</text>
    <rect x="520" y="31" width="12" height="3" fill="#1abc9c" />
    <line x1="520" y1="32.5" x2="532" y2="32.5" stroke="#1abc9c" stroke-width="2" />
    <text x="536" y="36" class="chart-text" font-size="10" font-family="-apple-system, BlinkMacSystemFont, 'Segoe UI', Helvetica, Arial, sans-serif">dockur/umbrel</text>
    <rect x="640" y="31" width="12" height="3" fill="#e84393" />
    <line x1="640" y1="32.5" x2="652" y2="32.5" stroke="#e84393" stroke-width="2" />
    <text x="656" y="36" class="chart-text" font-size="10" font-family="-apple-system, BlinkMacSystemFont, 'Segoe UI', Helvetica, Arial, sans-serif">dockur/proxmox</text>
    <rect x="760" y="31" width="12" height="3" fill="#795548" />
    <line x1="760" y1="32.5" x2="772" y2="32.5" stroke="#795548" stroke-width="2" />
    <text x="776" y="36" class="chart-text" font-size="10" font-family="-apple-system, BlinkMacSystemFont, 'Segoe UI', Helvetica, Arial, sans-serif">dockur/casa</text>
    <rect x="880" y="31" width="12" height="3" fill="#00bcd4" />
    <line x1="880" y1="32.5" x2="892" y2="32.5" stroke="#00bcd4" stroke-width="2" />
    <text x="896" y="36" class="chart-text" font-size="10" font-family="-apple-system, BlinkMacSystemFont, 'Segoe UI', Helvetica, Arial, sans-serif">dockur/tor</text>
  </g>
  <g class="grid">
    <line x1="60" y1="350" x2="770" y2="350" class="chart-grid" stroke-opacity="0.3" />
    <text x="778" y="354" text-anchor="start" class="chart-muted" font-size="11" font-family="-apple-system, BlinkMacSystemFont, 'Segoe UI', Helvetica, Arial, sans-serif">0</text>
    <line x1="60" y1="297.3397812845583" x2="770" y2="297.3397812845583" class="chart-grid" stroke-opacity="0.3" />
    <text x="778" y="301.3397812845583" text-anchor="start" class="chart-muted" font-size="11" font-family="-apple-system, BlinkMacSystemFont, 'Segoe UI', Helvetica, Arial, sans-serif">10K</text>
    <line x1="60" y1="244.67956256911654" x2="770" y2="244.67956256911654" class="chart-grid" stroke-opacity="0.3" />
    <text x="778" y="248.67956256911654" text-anchor="start" class="chart-muted" font-size="11" font-family="-apple-system, BlinkMacSystemFont, 'Segoe UI', Helvetica, Arial, sans-serif">20K</text>
    <line x1="60" y1="192.0193438536748" x2="770" y2="192.0193438536748" class="chart-grid" stroke-opacity="0.3" />
    <text x="778" y="196.0193438536748" text-anchor="start" class="chart-muted" font-size="11" font-family="-apple-system, BlinkMacSystemFont, 'Segoe UI', Helvetica, Arial, sans-serif">30K</text>
    <line x1="60" y1="139.35912513823308" x2="770" y2="139.35912513823308" class="chart-grid" stroke-opacity="0.3" />
    <text x="778" y="143.35912513823308" text-anchor="start" class="chart-muted" font-size="11" font-family="-apple-system, BlinkMacSystemFont, 'Segoe UI', Helvetica, Arial, sans-serif">40K</text>
    <line x1="60" y1="86.69890642279131" x2="770" y2="86.69890642279131" class="chart-grid" stroke-opacity="0.3" />
    <text x="778" y="90.69890642279131" text-anchor="start" class="chart-muted" font-size="11" font-family="-apple-system, BlinkMacSystemFont, 'Segoe UI', Helvetica, Arial, sans-serif">50K</text>
    <line x1="60" y1="34.038687707349595" x2="770" y2="34.038687707349595" class="chart-grid" stroke-opacity="0.3" />
    <text x="778" y="38.038687707349595" text-anchor="start" class="chart-muted" font-size="11" font-family="-apple-system, BlinkMacSystemFont, 'Segoe UI', Helvetica, Arial, sans-serif">60K</text>
  </g>
  <g class="milestones">
    
  </g>
  <g class="x-axis">
    <text x="60" y="370" text-anchor="middle" class="chart-muted" font-size="11" font-family="-apple-system, BlinkMacSystemFont, 'Segoe UI', Helvetica, Arial, sans-serif">2023</text>
    <text x="231.3793103448276" y="370" text-anchor="middle" class="chart-muted" font-size="11" font-family="-apple-system, BlinkMacSystemFont, 'Segoe UI', Helvetica, Arial, sans-serif">2024</text>
    <text x="451.7241379310345" y="370" text-anchor="middle" class="chart-muted" font-size="11" font-family="-apple-system, BlinkMacSystemFont, 'Segoe UI', Helvetica, Arial, sans-serif">2025</text>
    <text x="672.0689655172414" y="370" text-anchor="middle" class="chart-muted" font-size="11" font-family="-apple-system, BlinkMacSystemFont, 'Segoe UI', Helvetica, Arial, sans-serif">2026</text>
  </g>
  <line x1="770" y1="50" x2="770" y2="350" class="chart-axis" stroke-width="1" />
  <line x1="60" y1="350" x2="770" y2="350" class="chart-axis" stroke-width="1" />
  
  
  
  
  
  
  
  
  
  
  <path d="M60,350 C63.264367816091955,350 77.95402298850574,350 84.48275862068965,350 C91.01149425287356,350 102.43678160919539,350 108.9655172413793,350 C115.49425287356321,350 126.91954022988504,350 133.44827586206895,350 C139.97701149425285,350 151.40229885057468,350 157.9310344827586,350 C164.45977011494253,350 175.88505747126436,350 182.41379310344828,350 C188.9425287356322,350 200.36781609195404,350 206.89655172413794,350 C213.42528735632183,350 224.8505747126437,350 231.3793103448276,350 C237.90804597701148,349.0640523793642 249.33333333333334,350 255.86206896551724,342.9803928452316 C262.39080459770116,335.4907054713967 273.81609195402297,302.25297969070897 280.34482758620686,293.8273446962383 C286.87356321839076,285.40170970176763 298.2988505747127,282.59667538485843 304.82758620689657,279.78813038670154 C311.35632183908046,276.97958538854465 322.7816091954023,274.63585458758274 329.3103448275862,272.7632572100616 C335.8390804597701,270.8906598325405 347.264367816092,266.679597675929 353.7931034482759,265.74365005529324 C360.32183908045977,265.74365005529324 371.7471264367816,265.74365005529324 378.2758620689655,265.74365005529324 C384.8045977011494,264.8077024346575 396.2298850574713,265.74365005529324 402.7586206896552,258.72404290052486 C409.28735632183907,249.3624602854184 420.71264367816093,204.89406519335077 427.2413793103448,195.53178044199475 C433.7701149425287,188.50690726535484 445.1954022988506,190.37950464287596 451.7241379310345,188.50690726535484 C458.2528735632184,186.63430988783372 469.67816091954023,183.35919535185803 476.2068965517241,181.48730011058646 C482.735632183908,179.6154048693149 494.1609195402299,175.40364057645385 500.6896551724138,174.46769295581808 C507.2183908045977,174.46769295581808 518.6436781609195,174.46769295581808 525.1724137931035,174.46769295581808 C531.7011494252874,173.53104319893276 543.1264367816092,169.31541715669925 549.6551724137931,167.44281977917814 C556.1839080459771,165.57022240165702 567.6091954022988,164.16770524320242 574.1379310344828,160.42321262440976 C580.6666666666667,156.6787200056171 592.0919540229885,143.35006758061402 598.6206896551724,139.35912513823308 C605.1494252873564,135.36818269585214 616.5747126436781,132.85664133125033 623.1034482758621,130.49114430655268 C629.632183908046,128.12564728185504 641.0574712643678,123.98339447769843 647.5862068965517,121.61789745300078 C654.1149425287357,119.25240042830313 665.5402298850574,115.11471150976845 672.0689655172414,112.74991662132035 C678.5977011494253,110.38512173287225 690.0229885057471,106.24673067808808 696.551724137931,103.88193578963998 C703.080459770115,101.51714090119188 714.5057471264367,97.37945198265726 721.0344827586207,95.01395495795961 C727.5632183908046,92.64845793326197 738.9885057471264,88.50620512910533 745.5172413793103,86.14070810440768 C752.0459770114943,83.77521107971003 766.735632183908,78.45512471695136 770,77.27272727272731" fill="none" stroke="#dfb317" stroke-width="2.5" class="data-line-0" />
  <path d="M60,350 C63.264367816091955,350 77.95402298850574,350 84.48275862068965,350 C91.01149425287356,350 102.43678160919539,350 108.9655172413793,350 C115.49425287356321,350 126.91954022988504,350 133.44827586206895,350 C139.97701149425285,350 151.40229885057468,350 157.9310344827586,350 C164.45977011494253,350 175.88505747126436,350 182.41379310344828,350 C188.9425287356322,350 200.36781609195404,350 206.89655172413794,350 C213.42528735632183,350 224.8505747126437,350 231.3793103448276,350 C237.90804597701148,350 249.33333333333334,350 255.86206896551724,350 C262.39080459770116,350 273.81609195402297,350 280.34482758620686,350 C286.87356321839076,350 298.2988505747127,350 304.82758620689657,350 C311.35632183908046,349.54431357404906 322.7816091954023,347.06682581754984 329.3103448275862,346.5823518053678 C335.8390804597701,346.36644490863455 347.264367816092,346.39523249486564 353.7931034482759,346.36644490863455 C360.32183908045977,346.36644490863455 371.7471264367816,346.36644490863455 378.2758620689655,346.36644490863455 C384.8045977011494,346.36644490863455 396.2298850574713,346.36644490863455 402.7586206896552,346.36644490863455 C409.28735632183907,340.55065035370114 420.71264367816093,309.04825431374957 427.2413793103448,302.74798574663413 C433.7701149425287,299.1144306552687 445.1954022988506,300.5685548280644 451.7241379310345,299.1144306552687 C458.2528735632184,297.66030648247295 469.67816091954023,292.8117046112798 476.2068965517241,291.8420544506661 C482.735632183908,291.8420544506661 494.1609195402299,291.8420544506661 500.6896551724138,291.8420544506661 C507.2183908045977,291.3575804384841 518.6436781609195,288.6929733714827 525.1724137931035,288.2084993593007 C531.7011494252874,288.2084993593007 543.1264367816092,288.2084993593007 549.6551724137931,288.2084993593007 C556.1839080459771,285.30095314995873 567.6091954022988,269.7946251470098 574.1379310344828,266.40190278923626 C580.6666666666667,263.0091804314627 592.0919540229885,263.7327318366129 598.6206896551724,262.7630816759992 C605.1494252873564,261.7934315153855 616.5747126436781,260.09847460899783 623.1034482758621,259.1295265846337 C629.632183908046,258.1605785602696 641.0574712643678,255.98044550545032 647.5862068965517,255.49597149326826 C654.1149425287357,255.49597149326826 665.5402298850574,255.49597149326826 672.0689655172414,255.49597149326826 C678.5977011494253,255.0114974810862 690.0229885057471,252.83136442626693 696.551724137931,251.8624164019028 C703.080459770115,250.89346837753868 714.5057471264367,249.19851147115097 721.0344827586207,248.2288613105373 C727.5632183908046,247.25921114992363 738.9885057471264,245.30762344432938 745.5172413793103,244.5900401973003 C752.0459770114943,243.87245695027124 766.735632183908,243.07939405641667 770,242.84698695781918" fill="none" stroke="#28a745" stroke-width="2.5" class="data-line-1" />
  <path d="M60,349.99473397812847 C63.264367816091955,349.7117730695642 77.95402298850574,348.22429742491533 84.48275862068965,347.87252716389617 C91.01149425287356,347.520756902877 102.43678160919539,347.6766311502747 108.9655172413793,347.3564570204848 C115.49425287356321,347.0362828906949 126.91954022988504,345.8496726289737 133.44827586206895,345.471221190472 C139.97701149425285,345.09276975197037 151.40229885057468,344.73854201407784 157.9310344827586,344.5180712317225 C164.45977011494253,344.29760044936717 175.88505747126436,343.98199020519934 182.41379310344828,343.81769032280715 C188.9425287356322,343.65339044041497 200.36781609195404,343.45924976741736 206.89655172413794,343.2858221137812 C213.42528735632183,343.112394460145 224.8505747126437,342.72130456915164 231.3793103448276,342.5169829205357 C237.90804597701148,342.3126612719198 249.33333333333334,342.01109375274274 255.86206896551724,341.75340974916185 C262.39080459770116,341.49572574558096 273.81609195402297,340.85888816724884 280.34482758620686,340.584352893679 C286.87356321839076,340.3098176201092 298.2988505747127,339.907844617248 304.82758620689657,339.6943951973881 C311.35632183908046,339.4809457775282 322.7816091954023,339.20254875458585 329.3103448275862,338.9834822447296 C335.8390804597701,338.76441573487335 347.264367816092,338.2318453895979 353.7931034482759,338.0513963734663 C360.32183908045977,337.87094735733467 371.7471264367816,337.7803717811441 378.2758620689655,337.6301146237427 C384.8045977011494,337.47985746634134 396.2298850574713,337.1456406115607 402.7586206896552,336.92446769295583 C409.28735632183907,336.703294774351 420.71264367816093,336.1517667503379 427.2413793103448,335.9713177342063 C433.7701149425287,335.7908687180747 445.1954022988506,335.6939739156383 451.7241379310345,335.57110007196894 C458.2528735632184,335.4482262282996 469.67816091954023,335.2147659253278 476.2068965517241,335.0497639066861 C482.735632183908,334.8847618880444 494.1609195402299,334.53158735452615 500.6896551724138,334.3335849321561 C507.2183908045977,334.13558250978605 518.6436781609195,333.74027980129546 525.1724137931035,333.56474573891063 C531.7011494252874,333.3892116765258 543.1264367816092,333.1160806754551 549.6551724137931,333.01707946427007 C556.1839080459771,332.918078253085 567.6091954022988,332.860152012498 574.1379310344828,332.8222366550229 C580.6666666666667,332.78432129754776 592.0919540229885,332.8057364531587 598.6206896551724,332.73271428320663 C605.1494252873564,332.65969211325455 616.5747126436781,332.38972072530674 623.1034482758621,332.27457038038233 C629.632183908046,332.1594200354579 641.0574712643678,332.07059979989117 647.5862068965517,331.8690866962734 C654.1149425287357,331.6675735926557 665.5402298850574,330.9520967543752 672.0689655172414,330.7632221032491 C678.5977011494253,330.57434745212305 690.0229885057471,330.53888957152134 696.551724137931,330.452526812828 C703.080459770115,330.3661640541347 714.5057471264367,330.1836086292545 721.0344827586207,330.1155014130492 C727.5632183908046,330.04739419684387 738.9885057471264,329.99578718250274 745.5172413793103,329.94172269128825 C752.0459770114943,329.88765820007376 766.735632183908,329.7409117239201 770,329.71001772894033" fill="none" stroke="#e74c3c" stroke-width="2.5" class="data-line-2" />
  <path d="M60,350 C63.264367816091955,350 77.95402298850574,350 84.48275862068965,350 C91.01149425287356,350 102.43678160919539,350 108.9655172413793,350 C115.49425287356321,350 126.91954022988504,350 133.44827586206895,350 C139.97701149425285,350 151.40229885057468,350 157.9310344827586,350 C164.45977011494253,350 175.88505747126436,350 182.41379310344828,350 C188.9425287356322,350 200.36781609195404,350 206.89655172413794,350 C213.42528735632183,350 224.8505747126437,350 231.3793103448276,350 C237.90804597701148,349.9950850462532 249.33333333333334,350 255.86206896551724,349.9631378468992 C262.39080459770116,349.72581579455493 273.81609195402297,348.5571100071969 280.34482758620686,348.2200846074181 C286.87356321839076,347.88305920763923 298.2988505747127,347.6053643209465 304.82758620689657,347.435447348558 C311.35632183908046,347.2655303761695 322.7816091954023,347.0538362969334 329.3103448275862,346.9457073145044 C335.8390804597701,346.83757833207534 347.264367816092,346.7157576927803 353.7931034482759,346.6244799803402 C360.32183908045977,346.5332022679001 371.7471264367816,346.3594235461391 378.2758620689655,346.26112447120363 C384.8045977011494,346.16282539626815 396.2298850574713,346.2397093155927 402.7586206896552,345.887236918324 C409.28735632183907,345.5347645210553 420.71264367816093,343.9777773877021 427.2413793103448,343.61758149168844 C433.7701149425287,343.2573855956748 445.1954022988506,343.28757745440504 451.7241379310345,343.18576769822187 C458.2528735632184,343.0839579420387 469.67816091954023,342.9551159402482 476.2068965517241,342.85400832031456 C482.735632183908,342.7529007003809 494.1609195402299,342.5334831223999 500.6896551724138,342.42746054871947 C507.2183908045977,342.32143797503903 518.6436781609195,342.1409889589074 525.1724137931035,342.05883901771136 C531.7011494252874,341.9766890765153 543.1264367816092,341.8759325247064 549.6551724137931,341.8113359897488 C556.1839080459771,341.74673945479117 567.6091954022988,341.7365584791729 574.1379310344828,341.57436500552933 C580.6666666666667,341.41217153188575 592.0919540229885,340.81324931102876 598.6206896551724,340.5948849374221 C605.1494252873564,340.3765205638154 616.5747126436781,340.0665274096438 623.1034482758621,339.93663220347906 C629.632183908046,339.8067369973143 641.0574712643678,339.6986080148853 647.5862068965517,339.6206708911864 C654.1149425287357,339.54273376748756 665.5402298850574,339.41389176569714 672.0689655172414,339.3521037757377 C678.5977011494253,339.29031578577826 690.0229885057471,339.209921185206 696.551724137931,339.1572609664905 C703.080459770115,339.10460074777507 714.5057471264367,339.01262089908545 721.0344827586207,338.95715213537187 C727.5632183908046,338.9016833716583 738.9885057471264,338.7960118661026 745.5172413793103,338.74124523863856 C752.0459770114943,338.6864786111745 766.735632183908,338.5723814706244 770,338.54640242939143" fill="none" stroke="#3498db" stroke-width="2.5" class="data-line-3" />
  <path d="M60,350 C63.264367816091955,349.9992978637505 77.95402298850574,349.9989467956257 84.48275862068965,349.99473397812847 C91.01149425287356,349.9905211606312 102.43678160919539,349.9775316400147 108.9655172413793,349.96840386877074 C115.49425287356321,349.95927609752675 126.91954022988504,349.93891414629013 133.44827586206895,349.9262756937984 C139.97701149425285,349.9136372413067 151.40229885057468,349.8848496550756 157.9310344827586,349.87361547508294 C164.45977011494253,349.8623812950903 175.88505747126436,349.8588706138426 182.41379310344828,349.8420193438537 C188.9425287356322,349.82516807386475 200.36781609195404,349.7711035826502 206.89655172413794,349.7472309501659 C213.42528735632183,349.7233583176816 224.8505747126437,349.6938685952009 231.3793103448276,349.66297460022116 C237.90804597701148,349.6320806052414 249.33333333333334,349.5878460215204 255.86206896551724,349.5155259878179 C262.39080459770116,349.4432059541154 273.81609195402297,349.21606487738944 280.34482758620686,349.12057434745213 C286.87356321839076,349.0250838175148 298.2988505747127,348.8836033632327 304.82758620689657,348.79934701328796 C311.35632183908046,348.71509066334323 322.7816091954023,348.56167389281893 329.3103448275862,348.48865172286685 C335.8390804597701,348.41562955291477 347.264367816092,348.31768154610404 353.7931034482759,348.25168073864734 C360.32183908045977,348.18567993119063 371.7471264367816,348.0561357931507 378.2758620689655,347.9936456669417 C384.8045977011494,347.9311555407327 396.2298850574713,347.8532184170338 402.7586206896552,347.7830047920799 C409.28735632183907,347.712791167126 420.71264367816093,347.5520019659815 427.2413793103448,347.46704347978726 C433.7701149425287,347.382084993593 445.1954022988506,347.2223489968228 451.7241379310345,347.14581614562303 C458.2528735632184,347.06928329442326 469.67816091954023,346.9667714019905 476.2068965517241,346.8930470957889 C482.735632183908,346.8193227895873 494.1609195402299,346.7031192402886 500.6896551724138,346.59288384911093 C507.2183908045977,346.4826484579333 518.6436781609195,346.19196405062405 525.1724137931035,346.0662816619565 C531.7011494252874,345.94059927328897 543.1264367816092,345.7752461865225 549.6551724137931,345.65026593410454 C556.1839080459771,345.52528568168657 567.6091954022988,345.31218732995137 574.1379310344828,345.12892976882165 C580.6666666666667,344.9456722076919 592.0919540229885,344.4984114167354 598.6206896551724,344.27583422563146 C605.1494252873564,344.0532570345275 616.5747126436781,343.75730660534674 623.1034482758621,343.4596008355421 C629.632183908046,343.1618950657375 641.0574712643678,342.2922993206832 647.5862068965517,342.04304095209676 C654.1149425287357,341.79378258351034 665.5402298850574,341.7144411873124 672.0689655172414,341.59016307114393 C678.5977011494253,341.4658849549755 690.0229885057471,341.22189260826065 696.551724137931,341.11095508083343 C703.080459770115,341.0000175534062 714.5057471264367,340.85783496287456 721.0344827586207,340.75813161544 C727.5632183908046,340.6584282680054 738.9885057471264,340.4460320525198 745.5172413793103,340.36317997507416 C752.0459770114943,340.2803278976285 766.735632183908,340.16693289332795 770,340.1367410345978" fill="none" stroke="#9b59b6" stroke-width="2.5" class="data-line-4" />
  <path d="M60,350 C63.264367816091955,350 77.95402298850574,350 84.48275862068965,350 C91.01149425287356,350 102.43678160919539,350 108.9655172413793,350 C115.49425287356321,350 126.91954022988504,350 133.44827586206895,350 C139.97701149425285,350 151.40229885057468,350 157.9310344827586,350 C164.45977011494253,350 175.88505747126436,350 182.41379310344828,350 C188.9425287356322,350 200.36781609195404,350 206.89655172413794,350 C213.42528735632183,350 224.8505747126437,350 231.3793103448276,350 C237.90804597701148,349.9992978637505 249.33333333333334,350 255.86206896551724,349.99473397812847 C262.39080459770116,349.97718057188996 273.81609195402297,349.8999455844407 280.34482758620686,349.8683494532114 C286.87356321839076,349.83675332198214 298.2988505747127,349.785146307641 304.82758620689657,349.75776299390895 C311.35632183908046,349.7303796801769 322.7816091954023,349.68052800645967 329.3103448275862,349.66297460022116 C335.8390804597701,349.64542119398266 347.264367816092,349.6387508996121 353.7931034482759,349.62611244712036 C360.32183908045977,349.61347399462863 371.7471264367816,349.59276097526725 378.2758620689655,349.56818620653337 C384.8045977011494,349.5436114377995 396.2298850574713,349.50007899032806 402.7586206896552,349.4418016816163 C409.28735632183907,349.38352437290456 420.71264367816093,349.1978093349014 427.2413793103448,349.1311063911952 C433.7701149425287,349.064403447489 445.1954022988506,349.00331759377906 451.7241379310345,348.9415296038196 C458.2528735632184,348.8797416138602 469.67816091954023,348.7266759114606 476.2068965517241,348.6676964664993 C482.735632183908,348.60871702153804 494.1609195402299,348.55675893907215 500.6896551724138,348.4991837666099 C507.2183908045977,348.4416085941477 518.6436781609195,348.2934578454949 525.1724137931035,348.2358826730327 C531.7011494252874,348.17830750057044 543.1264367816092,348.11862591935966 549.6551724137931,348.0673699731433 C556.1839080459771,348.0161140269269 567.6091954022988,347.9146553388685 574.1379310344828,347.85146307640997 C580.6666666666667,347.78827081395144 592.0919540229885,347.66013094841054 598.6206896551724,347.5934280047043 C605.1494252873564,347.5267250609981 616.5747126436781,347.41719180607 623.1034482758621,347.3511909986133 C629.632183908046,347.2851901911566 641.0574712643678,347.1588056662395 647.5862068965517,347.09842194877916 C654.1149425287357,347.0380382313188 665.5402298850574,346.9685267426144 672.0689655172414,346.8983131176605 C678.5977011494253,346.8280994927066 690.0229885057471,346.63782056908144 696.551724137931,346.57181976162474 C703.080459770115,346.50581895416803 714.5057471264367,346.45105232670403 721.0344827586207,346.40330706173535 C727.5632183908046,346.35556179676666 738.9885057471264,346.25866699433027 745.5172413793103,346.21373027435976 C752.0459770114943,346.16879355438925 766.735632183908,346.0859414769436 770,346.0662816619565" fill="none" stroke="#e67e22" stroke-width="2.5" class="data-line-5" />
  <path d="M60,350 C63.264367816091955,350 77.95402298850574,350 84.48275862068965,350 C91.01149425287356,350 102.43678160919539,350 108.9655172413793,350 C115.49425287356321,350 126.91954022988504,350 133.44827586206895,350 C139.97701149425285,350 151.40229885057468,350 157.9310344827586,350 C164.45977011494253,350 175.88505747126436,350 182.41379310344828,350 C188.9425287356322,350 200.36781609195404,350 206.89655172413794,350 C213.42528735632183,350 224.8505747126437,350 231.3793103448276,350 C237.90804597701148,350 249.33333333333334,350 255.86206896551724,350 C262.39080459770116,350 273.81609195402297,350 280.34482758620686,350 C286.87356321839076,350 298.2988505747127,350 304.82758620689657,350 C311.35632183908046,350 322.7816091954023,350 329.3103448275862,350 C335.8390804597701,350 347.264367816092,350 353.7931034482759,350 C360.32183908045977,350 371.7471264367816,350 378.2758620689655,350 C384.8045977011494,349.9698081412698 396.2298850574713,349.8465832294757 402.7586206896552,349.7735610595236 C409.28735632183907,349.70053888957153 420.71264367816093,349.5141217153188 427.2413793103448,349.4523337253594 C433.7701149425287,349.39054573539994 445.1954022988506,349.3529814460496 451.7241379310345,349.3101511348277 C458.2528735632184,349.2673208236058 469.67816091954023,349.172532429918 476.2068965517241,349.1311063911952 C482.735632183908,349.0896803524724 494.1609195402299,349.0317541118854 500.6896551724138,348.9994558444066 C507.2183908045977,348.96715757692783 518.6436781609195,348.91906124383434 525.1724137931035,348.88886938510416 C531.7011494252874,348.858677526374 543.1264367816092,348.8018044901613 549.6551724137931,348.7730169039302 C556.1839080459771,348.74422931769914 567.6091954022988,348.7038564833506 574.1379310344828,348.67296248837084 C580.6666666666667,348.6420684933911 592.0919540229885,348.5785251628078 598.6206896551724,348.54131194158225 C605.1494252873564,348.5040987203567 616.5747126436781,348.42616159665783 623.1034482758621,348.39386332917906 C629.632183908046,348.3615650617003 641.0574712643678,348.3243518404746 647.5862068965517,348.2990749354912 C654.1149425287357,348.2737980305078 665.5402298850574,348.2253506292896 672.0689655172414,348.2042865418034 C678.5977011494253,348.1832224543172 690.0229885057471,348.1579455493338 696.551724137931,348.1410942793449 C703.080459770115,348.12424300935595 714.5057471264367,348.0961575593744 721.0344827586207,348.07790201688636 C727.5632183908046,348.05964647439833 738.9885057471264,348.0245396619214 745.5172413793103,348.00417771068476 C752.0459770114943,347.98381575944813 766.735632183908,347.93571942635464 770,347.92518738261157" fill="none" stroke="#1abc9c" stroke-width="2.5" class="data-line-6" />
  <path d="M60,350 C63.264367816091955,350 77.95402298850574,350 84.48275862068965,350 C91.01149425287356,350 102.43678160919539,350 108.9655172413793,350 C115.49425287356321,350 126.91954022988504,350 133.44827586206895,350 C139.97701149425285,350 151.40229885057468,350 157.9310344827586,350 C164.45977011494253,350 175.88505747126436,350 182.41379310344828,350 C188.9425287356322,350 200.36781609195404,350 206.89655172413794,350 C213.42528735632183,350 224.8505747126437,350 231.3793103448276,350 C237.90804597701148,350 249.33333333333334,350 255.86206896551724,350 C262.39080459770116,350 273.81609195402297,350 280.34482758620686,350 C286.87356321839076,350 298.2988505747127,350 304.82758620689657,350 C311.35632183908046,350 322.7816091954023,350 329.3103448275862,350 C335.8390804597701,350 347.264367816092,350 353.7931034482759,350 C360.32183908045977,350 371.7471264367816,350 378.2758620689655,350 C384.8045977011494,350 396.2298850574713,350 402.7586206896552,350 C409.28735632183907,350 420.71264367816093,350 427.2413793103448,350 C433.7701149425287,350 445.1954022988506,350 451.7241379310345,350 C458.2528735632184,350 469.67816091954023,350 476.2068965517241,350 C482.735632183908,350 494.1609195402299,350 500.6896551724138,350 C507.2183908045977,350 518.6436781609195,350 525.1724137931035,350 C531.7011494252874,350 543.1264367816092,350 549.6551724137931,350 C556.1839080459771,350 567.6091954022988,350 574.1379310344828,350 C580.6666666666667,350 592.0919540229885,350 598.6206896551724,350 C605.1494252873564,350 616.5747126436781,350 623.1034482758621,350 C629.632183908046,350 641.0574712643678,350 647.5862068965517,350 C654.1149425287357,350 665.5402298850574,350 672.0689655172414,350 C678.5977011494253,350 690.0229885057471,350 696.551724137931,350 C703.080459770115,350 714.5057471264367,350 721.0344827586207,350 C727.5632183908046,350 738.9885057471264,350 745.5172413793103,350 C752.0459770114943,349.8399129351051 766.735632183908,348.9594340781829 770,348.79934701328796" fill="none" stroke="#e84393" stroke-width="2.5" class="data-line-7" />
  <path d="M60,350 C63.264367816091955,350 77.95402298850574,350 84.48275862068965,350 C91.01149425287356,350 102.43678160919539,350 108.9655172413793,350 C115.49425287356321,350 126.91954022988504,350 133.44827586206895,350 C139.97701149425285,350 151.40229885057468,350 157.9310344827586,350 C164.45977011494253,350 175.88505747126436,350 182.41379310344828,350 C188.9425287356322,350 200.36781609195404,350 206.89655172413794,350 C213.42528735632183,350 224.8505747126437,350 231.3793103448276,350 C237.90804597701148,350 249.33333333333334,350 255.86206896551724,350 C262.39080459770116,350 273.81609195402297,350 280.34482758620686,350 C286.87356321839076,350 298.2988505747127,350 304.82758620689657,350 C311.35632183908046,350 322.7816091954023,350 329.3103448275862,350 C335.8390804597701,350 347.264367816092,350 353.7931034482759,350 C360.32183908045977,350 371.7471264367816,350 378.2758620689655,350 C384.8045977011494,350 396.2298850574713,350 402.7586206896552,350 C409.28735632183907,349.98736154750827 420.71264367816093,349.9262756937984 427.2413793103448,349.9052116063122 C433.7701149425287,349.884147518826 445.1954022988506,349.8595727500922 451.7241379310345,349.8420193438537 C458.2528735632184,349.8244659376152 469.67816091954023,349.79181660201164 476.2068965517241,349.7735610595236 C482.735632183908,349.7553055170356 494.1609195402299,349.7233583176816 500.6896551724138,349.70510277519355 C507.2183908045977,349.68684723270553 518.6436781609195,349.6520914883533 525.1724137931035,349.63664449086343 C531.7011494252874,349.6211974933736 543.1264367816092,349.6061015640085 549.6551724137931,349.58925029401956 C556.1839080459771,349.57239902403063 567.6091954022988,349.53132405343257 574.1379310344828,349.5102599659464 C580.6666666666667,349.4891958784602 592.0919540229885,349.45444013410804 598.6206896551724,349.43126963787324 C605.1494252873564,349.40809914163844 616.5747126436781,349.3568431954221 623.1034482758621,349.33648124418545 C629.632183908046,349.3161192929488 641.0574712643678,349.3136618160754 647.5862068965517,349.27855500359846 C654.1149425287357,349.2434481911215 665.5402298850574,349.11179764433285 672.0689655172414,349.0731801506082 C678.5977011494253,349.03456265688357 690.0229885057471,349.0036686619039 696.551724137931,348.98892380066354 C703.080459770115,348.9741789394232 714.5057471264367,348.97031719005076 721.0344827586207,348.9625936913058 C727.5632183908046,348.95487019256086 738.9885057471264,348.9408274675701 745.5172413793103,348.93099756007655 C752.0459770114943,348.921167652583 766.735632183908,348.89448647510045 770,348.88886938510416" fill="none" stroke="#795548" stroke-width="2.5" class="data-line-8" />
  <path d="M60,350 C63.264367816091955,350 77.95402298850574,350 84.48275862068965,350 C91.01149425287356,350 102.43678160919539,350 108.9655172413793,350 C115.49425287356321,350 126.91954022988504,350 133.44827586206895,350 C139.97701149425285,350 151.40229885057468,350 157.9310344827586,350 C164.45977011494253,350 175.88505747126436,350 182.41379310344828,350 C188.9425287356322,350 200.36781609195404,350 206.89655172413794,350 C213.42528735632183,349.9978935912514 224.8505747126437,349.98630834313394 231.3793103448276,349.98420193438534 C237.90804597701148,349.98420193438534 249.33333333333334,349.98420193438534 255.86206896551724,349.98420193438534 C262.39080459770116,349.9799891168881 273.81609195402297,349.96313784689914 280.34482758620686,349.9526058031561 C286.87356321839076,349.942073759413 298.2988505747127,349.91504151380576 304.82758620689657,349.9052116063122 C311.35632183908046,349.89538169881865 322.7816091954023,349.88379645070125 329.3103448275862,349.8788814969545 C335.8390804597701,349.8739665432077 347.264367816092,349.8732644069582 353.7931034482759,349.8683494532114 C360.32183908045977,349.86343449946463 371.7471264367816,349.84693429760046 378.2758620689655,349.8420193438537 C384.8045977011494,349.8371043901069 396.2298850574713,349.8420193438537 402.7586206896552,349.8314873001106 C409.28735632183907,349.82095525636754 420.71264367816093,349.7777738770208 427.2413793103448,349.7630290157805 C433.7701149425287,349.74828415454016 445.1954022988506,349.7342414295494 451.7241379310345,349.72090084080816 C458.2528735632184,349.7075602520669 469.67816091954023,349.6749109164633 476.2068965517241,349.66297460022116 C482.735632183908,349.651038283979 494.1609195402299,349.64471905773314 500.6896551724138,349.6313784689919 C507.2183908045977,349.61803788025065 518.6436781609195,349.57555863715356 525.1724137931035,349.56292018466183 C531.7011494252874,349.5502817321701 543.1264367816092,349.55203707279395 549.6551724137931,349.5365900753041 C556.1839080459771,349.52114307781426 567.6091954022988,349.47094033597216 574.1379310344828,349.44706770348785 C580.6666666666667,349.42319507100353 592.0919540229885,349.3849286454036 598.6206896551724,349.3575453316716 C605.1494252873564,349.3301620179396 616.5747126436781,349.26275693798385 623.1034482758621,349.24169285049766 C629.632183908046,349.22062876301146 641.0574712643678,349.21009671926834 647.5862068965517,349.19956467552527 C654.1149425287357,349.1890326317822 665.5402298850574,349.1767452474152 672.0689655172414,349.16270252242447 C678.5977011494253,349.1486597974337 690.0229885057471,349.11320191683194 696.551724137931,349.0942442380944 C703.080459770115,349.07528655935687 714.5057471264367,349.0366690656322 721.0344827586207,349.0205199318928 C727.5632183908046,349.0043707981534 738.9885057471264,348.9857641875406 745.5172413793103,348.9731257350489 C752.0459770114943,348.96048728255715 766.735632183908,348.9320507644509 770,348.925731538205" fill="none" stroke="#00bcd4" stroke-width="2.5" class="data-line-9" />
  <g class="points">
    
    <circle cx="60" cy="350" r="4" fill="#dfb317" class="data-point" style="animation-delay: 1.50s" />
    <circle cx="84.48275862068965" cy="350" r="4" fill="#dfb317" class="data-point" style="animation-delay: 1.55s" />
    <circle cx="108.9655172413793" cy="350" r="4" fill="#dfb317" class="data-point" style="animation-delay: 1.60s" />
    <circle cx="133.44827586206895" cy="350" r="4" fill="#dfb317" class="data-point" style="animation-delay: 1.65s" />
    <circle cx="157.9310344827586" cy="350" r="4" fill="#dfb317" class="data-point" style="animation-delay: 1.70s" />
    <circle cx="182.41379310344828" cy="350" r="4" fill="#dfb317" class="data-point" style="animation-delay: 1.75s" />
    <circle cx="206.89655172413794" cy="350" r="4" fill="#dfb317" class="data-point" style="animation-delay: 1.80s" />
    <circle cx="231.3793103448276" cy="350" r="4" fill="#dfb317" class="data-point" style="animation-delay: 1.85s" />
    <circle cx="255.86206896551724" cy="342.9803928452316" r="4" fill="#dfb317" class="data-point" style="animation-delay: 1.90s" />
    <circle cx="280.34482758620686" cy="293.8273446962383" r="4" fill="#dfb317" class="data-point" style="animation-delay: 1.95s" />
    <circle cx="304.82758620689657" cy="279.78813038670154" r="4" fill="#dfb317" class="data-point" style="animation-delay: 2.00s" />
    <circle cx="329.3103448275862" cy="272.7632572100616" r="4" fill="#dfb317" class="data-point" style="animation-delay: 2.05s" />
    <circle cx="353.7931034482759" cy="265.74365005529324" r="4" fill="#dfb317" class="data-point" style="animation-delay: 2.10s" />
    <circle cx="378.2758620689655" cy="265.74365005529324" r="4" fill="#dfb317" class="data-point" style="animation-delay: 2.15s" />
    <circle cx="402.7586206896552" cy="258.72404290052486" r="4" fill="#dfb317" class="data-point" style="animation-delay: 2.20s" />
    <circle cx="427.2413793103448" cy="195.53178044199475" r="4" fill="#dfb317" class="data-point" style="animation-delay: 2.25s" />
    <circle cx="451.7241379310345" cy="188.50690726535484" r="4" fill="#dfb317" class="data-point" style="animation-delay: 2.30s" />
    <circle cx="476.2068965517241" cy="181.48730011058646" r="4" fill="#dfb317" class="data-point" style="animation-delay: 2.35s" />
    <circle cx="500.6896551724138" cy="174.46769295581808" r="4" fill="#dfb317" class="data-point" style="animation-delay: 2.40s" />
    <circle cx="525.1724137931035" cy="174.46769295581808" r="4" fill="#dfb317" class="data-point" style="animation-delay: 2.45s" />
    <circle cx="549.6551724137931" cy="167.44281977917814" r="4" fill="#dfb317" class="data-point" style="animation-delay: 2.50s" />
    <circle cx="574.1379310344828" cy="160.42321262440976" r="4" fill="#dfb317" class="data-point" style="animation-delay: 2.55s" />
    <circle cx="598.6206896551724" cy="139.35912513823308" r="4" fill="#dfb317" class="data-point" style="animation-delay: 2.60s" />
    <circle cx="623.1034482758621" cy="130.49114430655268" r="4" fill="#dfb317" class="data-point" style="animation-delay: 2.65s" />
    <circle cx="647.5862068965517" cy="121.61789745300078" r="4" fill="#dfb317" class="data-point" style="animation-delay: 2.70s" />
    <circle cx="672.0689655172414" cy="112.74991662132035" r="4" fill="#dfb317" class="data-point" style="animation-delay: 2.75s" />
    <circle cx="696.551724137931" cy="103.88193578963998" r="4" fill="#dfb317" class="data-point" style="animation-delay: 2.80s" />
    <circle cx="721.0344827586207" cy="95.01395495795961" r="4" fill="#dfb317" class="data-point" style="animation-delay: 2.85s" />
    <circle cx="745.5172413793103" cy="86.14070810440768" r="4" fill="#dfb317" class="data-point" style="animation-delay: 2.90s" />
    <circle cx="770" cy="77.27272727272731" r="4" fill="#dfb317" class="data-point" style="animation-delay: 2.95s" />
    
    <circle cx="60" cy="350" r="4" fill="#28a745" class="data-point" style="animation-delay: 1.50s" />
    <circle cx="84.48275862068965" cy="350" r="4" fill="#28a745" class="data-point" style="animation-delay: 1.55s" />
    <circle cx="108.9655172413793" cy="350" r="4" fill="#28a745" class="data-point" style="animation-delay: 1.60s" />
    <circle cx="133.44827586206895" cy="350" r="4" fill="#28a745" class="data-point" style="animation-delay: 1.65s" />
    <circle cx="157.9310344827586" cy="350" r="4" fill="#28a745" class="data-point" style="animation-delay: 1.70s" />
    <circle cx="182.41379310344828" cy="350" r="4" fill="#28a745" class="data-point" style="animation-delay: 1.75s" />
    <circle cx="206.89655172413794" cy="350" r="4" fill="#28a745" class="data-point" style="animation-delay: 1.80s" />
    <circle cx="231.3793103448276" cy="350" r="4" fill="#28a745" class="data-point" style="animation-delay: 1.85s" />
    <circle cx="255.86206896551724" cy="350" r="4" fill="#28a745" class="data-point" style="animation-delay: 1.90s" />
    <circle cx="280.34482758620686" cy="350" r="4" fill="#28a745" class="data-point" style="animation-delay: 1.95s" />
    <circle cx="304.82758620689657" cy="350" r="4" fill="#28a745" class="data-point" style="animation-delay: 2.00s" />
    <circle cx="329.3103448275862" cy="346.5823518053678" r="4" fill="#28a745" class="data-point" style="animation-delay: 2.05s" />
    <circle cx="353.7931034482759" cy="346.36644490863455" r="4" fill="#28a745" class="data-point" style="animation-delay: 2.10s" />
    <circle cx="378.2758620689655" cy="346.36644490863455" r="4" fill="#28a745" class="data-point" style="animation-delay: 2.15s" />
    <circle cx="402.7586206896552" cy="346.36644490863455" r="4" fill="#28a745" class="data-point" style="animation-delay: 2.20s" />
    <circle cx="427.2413793103448" cy="302.74798574663413" r="4" fill="#28a745" class="data-point" style="animation-delay: 2.25s" />
    <circle cx="451.7241379310345" cy="299.1144306552687" r="4" fill="#28a745" class="data-point" style="animation-delay: 2.30s" />
    <circle cx="476.2068965517241" cy="291.8420544506661" r="4" fill="#28a745" class="data-point" style="animation-delay: 2.35s" />
    <circle cx="500.6896551724138" cy="291.8420544506661" r="4" fill="#28a745" class="data-point" style="animation-delay: 2.40s" />
    <circle cx="525.1724137931035" cy="288.2084993593007" r="4" fill="#28a745" class="data-point" style="animation-delay: 2.45s" />
    <circle cx="549.6551724137931" cy="288.2084993593007" r="4" fill="#28a745" class="data-point" style="animation-delay: 2.50s" />
    <circle cx="574.1379310344828" cy="266.40190278923626" r="4" fill="#28a745" class="data-point" style="animation-delay: 2.55s" />
    <circle cx="598.6206896551724" cy="262.7630816759992" r="4" fill="#28a745" class="data-point" style="animation-delay: 2.60s" />
    <circle cx="623.1034482758621" cy="259.1295265846337" r="4" fill="#28a745" class="data-point" style="animation-delay: 2.65s" />
    <circle cx="647.5862068965517" cy="255.49597149326826" r="4" fill="#28a745" class="data-point" style="animation-delay: 2.70s" />
    <circle cx="672.0689655172414" cy="255.49597149326826" r="4" fill="#28a745" class="data-point" style="animation-delay: 2.75s" />
    <circle cx="696.551724137931" cy="251.8624164019028" r="4" fill="#28a745" class="data-point" style="animation-delay: 2.80s" />
    <circle cx="721.0344827586207" cy="248.2288613105373" r="4" fill="#28a745" class="data-point" style="animation-delay: 2.85s" />
    <circle cx="745.5172413793103" cy="244.5900401973003" r="4" fill="#28a745" class="data-point" style="animation-delay: 2.90s" />
    <circle cx="770" cy="242.84698695781918" r="4" fill="#28a745" class="data-point" style="animation-delay: 2.95s" />
    
    <circle cx="60" cy="349.99473397812847" r="4" fill="#e74c3c" class="data-point" style="animation-delay: 1.50s" />
    <circle cx="84.48275862068965" cy="347.87252716389617" r="4" fill="#e74c3c" class="data-point" style="animation-delay: 1.55s" />
    <circle cx="108.9655172413793" cy="347.3564570204848" r="4" fill="#e74c3c" class="data-point" style="animation-delay: 1.60s" />
    <circle cx="133.44827586206895" cy="345.471221190472" r="4" fill="#e74c3c" class="data-point" style="animation-delay: 1.65s" />
    <circle cx="157.9310344827586" cy="344.5180712317225" r="4" fill="#e74c3c" class="data-point" style="animation-delay: 1.70s" />
    <circle cx="182.41379310344828" cy="343.81769032280715" r="4" fill="#e74c3c" class="data-point" style="animation-delay: 1.75s" />
    <circle cx="206.89655172413794" cy="343.2858221137812" r="4" fill="#e74c3c" class="data-point" style="animation-delay: 1.80s" />
    <circle cx="231.3793103448276" cy="342.5169829205357" r="4" fill="#e74c3c" class="data-point" style="animation-delay: 1.85s" />
    <circle cx="255.86206896551724" cy="341.75340974916185" r="4" fill="#e74c3c" class="data-point" style="animation-delay: 1.90s" />
    <circle cx="280.34482758620686" cy="340.584352893679" r="4" fill="#e74c3c" class="data-point" style="animation-delay: 1.95s" />
    <circle cx="304.82758620689657" cy="339.6943951973881" r="4" fill="#e74c3c" class="data-point" style="animation-delay: 2.00s" />
    <circle cx="329.3103448275862" cy="338.9834822447296" r="4" fill="#e74c3c" class="data-point" style="animation-delay: 2.05s" />
    <circle cx="353.7931034482759" cy="338.0513963734663" r="4" fill="#e74c3c" class="data-point" style="animation-delay: 2.10s" />
    <circle cx="378.2758620689655" cy="337.6301146237427" r="4" fill="#e74c3c" class="data-point" style="animation-delay: 2.15s" />
    <circle cx="402.7586206896552" cy="336.92446769295583" r="4" fill="#e74c3c" class="data-point" style="animation-delay: 2.20s" />
    <circle cx="427.2413793103448" cy="335.9713177342063" r="4" fill="#e74c3c" class="data-point" style="animation-delay: 2.25s" />
    <circle cx="451.7241379310345" cy="335.57110007196894" r="4" fill="#e74c3c" class="data-point" style="animation-delay: 2.30s" />
    <circle cx="476.2068965517241" cy="335.0497639066861" r="4" fill="#e74c3c" class="data-point" style="animation-delay: 2.35s" />
    <circle cx="500.6896551724138" cy="334.3335849321561" r="4" fill="#e74c3c" class="data-point" style="animation-delay: 2.40s" />
    <circle cx="525.1724137931035" cy="333.56474573891063" r="4" fill="#e74c3c" class="data-point" style="animation-delay: 2.45s" />
    <circle cx="549.6551724137931" cy="333.01707946427007" r="4" fill="#e74c3c" class="data-point" style="animation-delay: 2.50s" />
    <circle cx="574.1379310344828" cy="332.8222366550229" r="4" fill="#e74c3c" class="data-point" style="animation-delay: 2.55s" />
    <circle cx="598.6206896551724" cy="332.73271428320663" r="4" fill="#e74c3c" class="data-point" style="animation-delay: 2.60s" />
    <circle cx="623.1034482758621" cy="332.27457038038233" r="4" fill="#e74c3c" class="data-point" style="animation-delay: 2.65s" />
    <circle cx="647.5862068965517" cy="331.8690866962734" r="4" fill="#e74c3c" class="data-point" style="animation-delay: 2.70s" />
    <circle cx="672.0689655172414" cy="330.7632221032491" r="4" fill="#e74c3c" class="data-point" style="animation-delay: 2.75s" />
    <circle cx="696.551724137931" cy="330.452526812828" r="4" fill="#e74c3c" class="data-point" style="animation-delay: 2.80s" />
    <circle cx="721.0344827586207" cy="330.1155014130492" r="4" fill="#e74c3c" class="data-point" style="animation-delay: 2.85s" />
    <circle cx="745.5172413793103" cy="329.94172269128825" r="4" fill="#e74c3c" class="data-point" style="animation-delay: 2.90s" />
    <circle cx="770" cy="329.71001772894033" r="4" fill="#e74c3c" class="data-point" style="animation-delay: 2.95s" />
    
    <circle cx="60" cy="350" r="4" fill="#3498db" class="data-point" style="animation-delay: 1.50s" />
    <circle cx="84.48275862068965" cy="350" r="4" fill="#3498db" class="data-point" style="animation-delay: 1.55s" />
    <circle cx="108.9655172413793" cy="350" r="4" fill="#3498db" class="data-point" style="animation-delay: 1.60s" />
    <circle cx="133.44827586206895" cy="350" r="4" fill="#3498db" class="data-point" style="animation-delay: 1.65s" />
    <circle cx="157.9310344827586" cy="350" r="4" fill="#3498db" class="data-point" style="animation-delay: 1.70s" />
    <circle cx="182.41379310344828" cy="350" r="4" fill="#3498db" class="data-point" style="animation-delay: 1.75s" />
    <circle cx="206.89655172413794" cy="350" r="4" fill="#3498db" class="data-point" style="animation-delay: 1.80s" />
    <circle cx="231.3793103448276" cy="350" r="4" fill="#3498db" class="data-point" style="animation-delay: 1.85s" />
    <circle cx="255.86206896551724" cy="349.9631378468992" r="4" fill="#3498db" class="data-point" style="animation-delay: 1.90s" />
    <circle cx="280.34482758620686" cy="348.2200846074181" r="4" fill="#3498db" class="data-point" style="animation-delay: 1.95s" />
    <circle cx="304.82758620689657" cy="347.435447348558" r="4" fill="#3498db" class="data-point" style="animation-delay: 2.00s" />
    <circle cx="329.3103448275862" cy="346.9457073145044" r="4" fill="#3498db" class="data-point" style="animation-delay: 2.05s" />
    <circle cx="353.7931034482759" cy="346.6244799803402" r="4" fill="#3498db" class="data-point" style="animation-delay: 2.10s" />
    <circle cx="378.2758620689655" cy="346.26112447120363" r="4" fill="#3498db" class="data-point" style="animation-delay: 2.15s" />
    <circle cx="402.7586206896552" cy="345.887236918324" r="4" fill="#3498db" class="data-point" style="animation-delay: 2.20s" />
    <circle cx="427.2413793103448" cy="343.61758149168844" r="4" fill="#3498db" class="data-point" style="animation-delay: 2.25s" />
    <circle cx="451.7241379310345" cy="343.18576769822187" r="4" fill="#3498db" class="data-point" style="animation-delay: 2.30s" />
    <circle cx="476.2068965517241" cy="342.85400832031456" r="4" fill="#3498db" class="data-point" style="animation-delay: 2.35s" />
    <circle cx="500.6896551724138" cy="342.42746054871947" r="4" fill="#3498db" class="data-point" style="animation-delay: 2.40s" />
    <circle cx="525.1724137931035" cy="342.05883901771136" r="4" fill="#3498db" class="data-point" style="animation-delay: 2.45s" />
    <circle cx="549.6551724137931" cy="341.8113359897488" r="4" fill="#3498db" class="data-point" style="animation-delay: 2.50s" />
    <circle cx="574.1379310344828" cy="341.57436500552933" r="4" fill="#3498db" class="data-point" style="animation-delay: 2.55s" />
    <circle cx="598.6206896551724" cy="340.5948849374221" r="4" fill="#3498db" class="data-point" style="animation-delay: 2.60s" />
    <circle cx="623.1034482758621" cy="339.93663220347906" r="4" fill="#3498db" class="data-point" style="animation-delay: 2.65s" />
    <circle cx="647.5862068965517" cy="339.6206708911864" r="4" fill="#3498db" class="data-point" style="animation-delay: 2.70s" />
    <circle cx="672.0689655172414" cy="339.3521037757377" r="4" fill="#3498db" class="data-point" style="animation-delay: 2.75s" />
    <circle cx="696.551724137931" cy="339.1572609664905" r="4" fill="#3498db" class="data-point" style="animation-delay: 2.80s" />
    <circle cx="721.0344827586207" cy="338.95715213537187" r="4" fill="#3498db" class="data-point" style="animation-delay: 2.85s" />
    <circle cx="745.5172413793103" cy="338.74124523863856" r="4" fill="#3498db" class="data-point" style="animation-delay: 2.90s" />
    <circle cx="770" cy="338.54640242939143" r="4" fill="#3498db" class="data-point" style="animation-delay: 2.95s" />
    
    <circle cx="60" cy="350" r="4" fill="#9b59b6" class="data-point" style="animation-delay: 1.50s" />
    <circle cx="84.48275862068965" cy="349.99473397812847" r="4" fill="#9b59b6" class="data-point" style="animation-delay: 1.55s" />
    <circle cx="108.9655172413793" cy="349.96840386877074" r="4" fill="#9b59b6" class="data-point" style="animation-delay: 1.60s" />
    <circle cx="133.44827586206895" cy="349.9262756937984" r="4" fill="#9b59b6" class="data-point" style="animation-delay: 1.65s" />
    <circle cx="157.9310344827586" cy="349.87361547508294" r="4" fill="#9b59b6" class="data-point" style="animation-delay: 1.70s" />
    <circle cx="182.41379310344828" cy="349.8420193438537" r="4" fill="#9b59b6" class="data-point" style="animation-delay: 1.75s" />
    <circle cx="206.89655172413794" cy="349.7472309501659" r="4" fill="#9b59b6" class="data-point" style="animation-delay: 1.80s" />
    <circle cx="231.3793103448276" cy="349.66297460022116" r="4" fill="#9b59b6" class="data-point" style="animation-delay: 1.85s" />
    <circle cx="255.86206896551724" cy="349.5155259878179" r="4" fill="#9b59b6" class="data-point" style="animation-delay: 1.90s" />
    <circle cx="280.34482758620686" cy="349.12057434745213" r="4" fill="#9b59b6" class="data-point" style="animation-delay: 1.95s" />
    <circle cx="304.82758620689657" cy="348.79934701328796" r="4" fill="#9b59b6" class="data-point" style="animation-delay: 2.00s" />
    <circle cx="329.3103448275862" cy="348.48865172286685" r="4" fill="#9b59b6" class="data-point" style="animation-delay: 2.05s" />
    <circle cx="353.7931034482759" cy="348.25168073864734" r="4" fill="#9b59b6" class="data-point" style="animation-delay: 2.10s" />
    <circle cx="378.2758620689655" cy="347.9936456669417" r="4" fill="#9b59b6" class="data-point" style="animation-delay: 2.15s" />
    <circle cx="402.7586206896552" cy="347.7830047920799" r="4" fill="#9b59b6" class="data-point" style="animation-delay: 2.20s" />
    <circle cx="427.2413793103448" cy="347.46704347978726" r="4" fill="#9b59b6" class="data-point" style="animation-delay: 2.25s" />
    <circle cx="451.7241379310345" cy="347.14581614562303" r="4" fill="#9b59b6" class="data-point" style="animation-delay: 2.30s" />
    <circle cx="476.2068965517241" cy="346.8930470957889" r="4" fill="#9b59b6" class="data-point" style="animation-delay: 2.35s" />
    <circle cx="500.6896551724138" cy="346.59288384911093" r="4" fill="#9b59b6" class="data-point" style="animation-delay: 2.40s" />
    <circle cx="525.1724137931035" cy="346.0662816619565" r="4" fill="#9b59b6" class="data-point" style="animation-delay: 2.45s" />
    <circle cx="549.6551724137931" cy="345.65026593410454" r="4" fill="#9b59b6" class="data-point" style="animation-delay: 2.50s" />
    <circle cx="574.1379310344828" cy="345.12892976882165" r="4" fill="#9b59b6" class="data-point" style="animation-delay: 2.55s" />
    <circle cx="598.6206896551724" cy="344.27583422563146" r="4" fill="#9b59b6" class="data-point" style="animation-delay: 2.60s" />
    <circle cx="623.1034482758621" cy="343.4596008355421" r="4" fill="#9b59b6" class="data-point" style="animation-delay: 2.65s" />
    <circle cx="647.5862068965517" cy="342.04304095209676" r="4" fill="#9b59b6" class="data-point" style="animation-delay: 2.70s" />
    <circle cx="672.0689655172414" cy="341.59016307114393" r="4" fill="#9b59b6" class="data-point" style="animation-delay: 2.75s" />
    <circle cx="696.551724137931" cy="341.11095508083343" r="4" fill="#9b59b6" class="data-point" style="animation-delay: 2.80s" />
    <circle cx="721.0344827586207" cy="340.75813161544" r="4" fill="#9b59b6" class="data-point" style="animation-delay: 2.85s" />
    <circle cx="745.5172413793103" cy="340.36317997507416" r="4" fill="#9b59b6" class="data-point" style="animation-delay: 2.90s" />
    <circle cx="770" cy="340.1367410345978" r="4" fill="#9b59b6" class="data-point" style="animation-delay: 2.95s" />
    
    <circle cx="60" cy="350" r="4" fill="#e67e22" class="data-point" style="animation-delay: 1.50s" />
    <circle cx="84.48275862068965" cy="350" r="4" fill="#e67e22" class="data-point" style="animation-delay: 1.55s" />
    <circle cx="108.9655172413793" cy="350" r="4" fill="#e67e22" class="data-point" style="animation-delay: 1.60s" />
    <circle cx="133.44827586206895" cy="350" r="4" fill="#e67e22" class="data-point" style="animation-delay: 1.65s" />
    <circle cx="157.9310344827586" cy="350" r="4" fill="#e67e22" class="data-point" style="animation-delay: 1.70s" />
    <circle cx="182.41379310344828" cy="350" r="4" fill="#e67e22" class="data-point" style="animation-delay: 1.75s" />
    <circle cx="206.89655172413794" cy="350" r="4" fill="#e67e22" class="data-point" style="animation-delay: 1.80s" />
    <circle cx="231.3793103448276" cy="350" r="4" fill="#e67e22" class="data-point" style="animation-delay: 1.85s" />
    <circle cx="255.86206896551724" cy="349.99473397812847" r="4" fill="#e67e22" class="data-point" style="animation-delay: 1.90s" />
    <circle cx="280.34482758620686" cy="349.8683494532114" r="4" fill="#e67e22" class="data-point" style="animation-delay: 1.95s" />
    <circle cx="304.82758620689657" cy="349.75776299390895" r="4" fill="#e67e22" class="data-point" style="animation-delay: 2.00s" />
    <circle cx="329.3103448275862" cy="349.66297460022116" r="4" fill="#e67e22" class="data-point" style="animation-delay: 2.05s" />
    <circle cx="353.7931034482759" cy="349.62611244712036" r="4" fill="#e67e22" class="data-point" style="animation-delay: 2.10s" />
    <circle cx="378.2758620689655" cy="349.56818620653337" r="4" fill="#e67e22" class="data-point" style="animation-delay: 2.15s" />
    <circle cx="402.7586206896552" cy="349.4418016816163" r="4" fill="#e67e22" class="data-point" style="animation-delay: 2.20s" />
    <circle cx="427.2413793103448" cy="349.1311063911952" r="4" fill="#e67e22" class="data-point" style="animation-delay: 2.25s" />
    <circle cx="451.7241379310345" cy="348.9415296038196" r="4" fill="#e67e22" class="data-point" style="animation-delay: 2.30s" />
    <circle cx="476.2068965517241" cy="348.6676964664993" r="4" fill="#e67e22" class="data-point" style="animation-delay: 2.35s" />
    <circle cx="500.6896551724138" cy="348.4991837666099" r="4" fill="#e67e22" class="data-point" style="animation-delay: 2.40s" />
    <circle cx="525.1724137931035" cy="348.2358826730327" r="4" fill="#e67e22" class="data-point" style="animation-delay: 2.45s" />
    <circle cx="549.6551724137931" cy="348.0673699731433" r="4" fill="#e67e22" class="data-point" style="animation-delay: 2.50s" />
    <circle cx="574.1379310344828" cy="347.85146307640997" r="4" fill="#e67e22" class="data-point" style="animation-delay: 2.55s" />
    <circle cx="598.6206896551724" cy="347.5934280047043" r="4" fill="#e67e22" class="data-point" style="animation-delay: 2.60s" />
    <circle cx="623.1034482758621" cy="347.3511909986133" r="4" fill="#e67e22" class="data-point" style="animation-delay: 2.65s" />
    <circle cx="647.5862068965517" cy="347.09842194877916" r="4" fill="#e67e22" class="data-point" style="animation-delay: 2.70s" />
    <circle cx="672.0689655172414" cy="346.8983131176605" r="4" fill="#e67e22" class="data-point" style="animation-delay: 2.75s" />
    <circle cx="696.551724137931" cy="346.57181976162474" r="4" fill="#e67e22" class="data-point" style="animation-delay: 2.80s" />
    <circle cx="721.0344827586207" cy="346.40330706173535" r="4" fill="#e67e22" class="data-point" style="animation-delay: 2.85s" />
    <circle cx="745.5172413793103" cy="346.21373027435976" r="4" fill="#e67e22" class="data-point" style="animation-delay: 2.90s" />
    <circle cx="770" cy="346.0662816619565" r="4" fill="#e67e22" class="data-point" style="animation-delay: 2.95s" />
    
    <circle cx="60" cy="350" r="4" fill="#1abc9c" class="data-point" style="animation-delay: 1.50s" />
    <circle cx="84.48275862068965" cy="350" r="4" fill="#1abc9c" class="data-point" style="animation-delay: 1.55s" />
    <circle cx="108.9655172413793" cy="350" r="4" fill="#1abc9c" class="data-point" style="animation-delay: 1.60s" />
    <circle cx="133.44827586206895" cy="350" r="4" fill="#1abc9c" class="data-point" style="animation-delay: 1.65s" />
    <circle cx="157.9310344827586" cy="350" r="4" fill="#1abc9c" class="data-point" style="animation-delay: 1.70s" />
    <circle cx="182.41379310344828" cy="350" r="4" fill="#1abc9c" class="data-point" style="animation-delay: 1.75s" />
    <circle cx="206.89655172413794" cy="350" r="4" fill="#1abc9c" class="data-point" style="animation-delay: 1.80s" />
    <circle cx="231.3793103448276" cy="350" r="4" fill="#1abc9c" class="data-point" style="animation-delay: 1.85s" />
    <circle cx="255.86206896551724" cy="350" r="4" fill="#1abc9c" class="data-point" style="animation-delay: 1.90s" />
    <circle cx="280.34482758620686" cy="350" r="4" fill="#1abc9c" class="data-point" style="animation-delay: 1.95s" />
    <circle cx="304.82758620689657" cy="350" r="4" fill="#1abc9c" class="data-point" style="animation-delay: 2.00s" />
    <circle cx="329.3103448275862" cy="350" r="4" fill="#1abc9c" class="data-point" style="animation-delay: 2.05s" />
    <circle cx="353.7931034482759" cy="350" r="4" fill="#1abc9c" class="data-point" style="animation-delay: 2.10s" />
    <circle cx="378.2758620689655" cy="350" r="4" fill="#1abc9c" class="data-point" style="animation-delay: 2.15s" />
    <circle cx="402.7586206896552" cy="349.7735610595236" r="4" fill="#1abc9c" class="data-point" style="animation-delay: 2.20s" />
    <circle cx="427.2413793103448" cy="349.4523337253594" r="4" fill="#1abc9c" class="data-point" style="animation-delay: 2.25s" />
    <circle cx="451.7241379310345" cy="349.3101511348277" r="4" fill="#1abc9c" class="data-point" style="animation-delay: 2.30s" />
    <circle cx="476.2068965517241" cy="349.1311063911952" r="4" fill="#1abc9c" class="data-point" style="animation-delay: 2.35s" />
    <circle cx="500.6896551724138" cy="348.9994558444066" r="4" fill="#1abc9c" class="data-point" style="animation-delay: 2.40s" />
    <circle cx="525.1724137931035" cy="348.88886938510416" r="4" fill="#1abc9c" class="data-point" style="animation-delay: 2.45s" />
    <circle cx="549.6551724137931" cy="348.7730169039302" r="4" fill="#1abc9c" class="data-point" style="animation-delay: 2.50s" />
    <circle cx="574.1379310344828" cy="348.67296248837084" r="4" fill="#1abc9c" class="data-point" style="animation-delay: 2.55s" />
    <circle cx="598.6206896551724" cy="348.54131194158225" r="4" fill="#1abc9c" class="data-point" style="animation-delay: 2.60s" />
    <circle cx="623.1034482758621" cy="348.39386332917906" r="4" fill="#1abc9c" class="data-point" style="animation-delay: 2.65s" />
    <circle cx="647.5862068965517" cy="348.2990749354912" r="4" fill="#1abc9c" class="data-point" style="animation-delay: 2.70s" />
    <circle cx="672.0689655172414" cy="348.2042865418034" r="4" fill="#1abc9c" class="data-point" style="animation-delay: 2.75s" />
    <circle cx="696.551724137931" cy="348.1410942793449" r="4" fill="#1abc9c" class="data-point" style="animation-delay: 2.80s" />
    <circle cx="721.0344827586207" cy="348.07790201688636" r="4" fill="#1abc9c" class="data-point" style="animation-delay: 2.85s" />
    <circle cx="745.5172413793103" cy="348.00417771068476" r="4" fill="#1abc9c" class="data-point" style="animation-delay: 2.90s" />
    <circle cx="770" cy="347.92518738261157" r="4" fill="#1abc9c" class="data-point" style="animation-delay: 2.95s" />
    
    <circle cx="60" cy="350" r="4" fill="#e84393" class="data-point" style="animation-delay: 1.50s" />
    <circle cx="84.48275862068965" cy="350" r="4" fill="#e84393" class="data-point" style="animation-delay: 1.55s" />
    <circle cx="108.9655172413793" cy="350" r="4" fill="#e84393" class="data-point" style="animation-delay: 1.60s" />
    <circle cx="133.44827586206895" cy="350" r="4" fill="#e84393" class="data-point" style="animation-delay: 1.65s" />
    <circle cx="157.9310344827586" cy="350" r="4" fill="#e84393" class="data-point" style="animation-delay: 1.70s" />
    <circle cx="182.41379310344828" cy="350" r="4" fill="#e84393" class="data-point" style="animation-delay: 1.75s" />
    <circle cx="206.89655172413794" cy="350" r="4" fill="#e84393" class="data-point" style="animation-delay: 1.80s" />
    <circle cx="231.3793103448276" cy="350" r="4" fill="#e84393" class="data-point" style="animation-delay: 1.85s" />
    <circle cx="255.86206896551724" cy="350" r="4" fill="#e84393" class="data-point" style="animation-delay: 1.90s" />
    <circle cx="280.34482758620686" cy="350" r="4" fill="#e84393" class="data-point" style="animation-delay: 1.95s" />
    <circle cx="304.82758620689657" cy="350" r="4" fill="#e84393" class="data-point" style="animation-delay: 2.00s" />
    <circle cx="329.3103448275862" cy="350" r="4" fill="#e84393" class="data-point" style="animation-delay: 2.05s" />
    <circle cx="353.7931034482759" cy="350" r="4" fill="#e84393" class="data-point" style="animation-delay: 2.10s" />
    <circle cx="378.2758620689655" cy="350" r="4" fill="#e84393" class="data-point" style="animation-delay: 2.15s" />
    <circle cx="402.7586206896552" cy="350" r="4" fill="#e84393" class="data-point" style="animation-delay: 2.20s" />
    <circle cx="427.2413793103448" cy="350" r="4" fill="#e84393" class="data-point" style="animation-delay: 2.25s" />
    <circle cx="451.7241379310345" cy="350" r="4" fill="#e84393" class="data-point" style="animation-delay: 2.30s" />
    <circle cx="476.2068965517241" cy="350" r="4" fill="#e84393" class="data-point" style="animation-delay: 2.35s" />
    <circle cx="500.6896551724138" cy="350" r="4" fill="#e84393" class="data-point" style="animation-delay: 2.40s" />
    <circle cx="525.1724137931035" cy="350" r="4" fill="#e84393" class="data-point" style="animation-delay: 2.45s" />
    <circle cx="549.6551724137931" cy="350" r="4" fill="#e84393" class="data-point" style="animation-delay: 2.50s" />
    <circle cx="574.1379310344828" cy="350" r="4" fill="#e84393" class="data-point" style="animation-delay: 2.55s" />
    <circle cx="598.6206896551724" cy="350" r="4" fill="#e84393" class="data-point" style="animation-delay: 2.60s" />
    <circle cx="623.1034482758621" cy="350" r="4" fill="#e84393" class="data-point" style="animation-delay: 2.65s" />
    <circle cx="647.5862068965517" cy="350" r="4" fill="#e84393" class="data-point" style="animation-delay: 2.70s" />
    <circle cx="672.0689655172414" cy="350" r="4" fill="#e84393" class="data-point" style="animation-delay: 2.75s" />
    <circle cx="696.551724137931" cy="350" r="4" fill="#e84393" class="data-point" style="animation-delay: 2.80s" />
    <circle cx="721.0344827586207" cy="350" r="4" fill="#e84393" class="data-point" style="animation-delay: 2.85s" />
    <circle cx="745.5172413793103" cy="350" r="4" fill="#e84393" class="data-point" style="animation-delay: 2.90s" />
    <circle cx="770" cy="348.79934701328796" r="4" fill="#e84393" class="data-point" style="animation-delay: 2.95s" />
    
    <circle cx="60" cy="350" r="4" fill="#795548" class="data-point" style="animation-delay: 1.50s" />
    <circle cx="84.48275862068965" cy="350" r="4" fill="#795548" class="data-point" style="animation-delay: 1.55s" />
    <circle cx="108.9655172413793" cy="350" r="4" fill="#795548" class="data-point" style="animation-delay: 1.60s" />
    <circle cx="133.44827586206895" cy="350" r="4" fill="#795548" class="data-point" style="animation-delay: 1.65s" />
    <circle cx="157.9310344827586" cy="350" r="4" fill="#795548" class="data-point" style="animation-delay: 1.70s" />
    <circle cx="182.41379310344828" cy="350" r="4" fill="#795548" class="data-point" style="animation-delay: 1.75s" />
    <circle cx="206.89655172413794" cy="350" r="4" fill="#795548" class="data-point" style="animation-delay: 1.80s" />
    <circle cx="231.3793103448276" cy="350" r="4" fill="#795548" class="data-point" style="animation-delay: 1.85s" />
    <circle cx="255.86206896551724" cy="350" r="4" fill="#795548" class="data-point" style="animation-delay: 1.90s" />
    <circle cx="280.34482758620686" cy="350" r="4" fill="#795548" class="data-point" style="animation-delay: 1.95s" />
    <circle cx="304.82758620689657" cy="350" r="4" fill="#795548" class="data-point" style="animation-delay: 2.00s" />
    <circle cx="329.3103448275862" cy="350" r="4" fill="#795548" class="data-point" style="animation-delay: 2.05s" />
    <circle cx="353.7931034482759" cy="350" r="4" fill="#795548" class="data-point" style="animation-delay: 2.10s" />
    <circle cx="378.2758620689655" cy="350" r="4" fill="#795548" class="data-point" style="animation-delay: 2.15s" />
    <circle cx="402.7586206896552" cy="350" r="4" fill="#795548" class="data-point" style="animation-delay: 2.20s" />
    <circle cx="427.2413793103448" cy="349.9052116063122" r="4" fill="#795548" class="data-point" style="animation-delay: 2.25s" />
    <circle cx="451.7241379310345" cy="349.8420193438537" r="4" fill="#795548" class="data-point" style="animation-delay: 2.30s" />
    <circle cx="476.2068965517241" cy="349.7735610595236" r="4" fill="#795548" class="data-point" style="animation-delay: 2.35s" />
    <circle cx="500.6896551724138" cy="349.70510277519355" r="4" fill="#795548" class="data-point" style="animation-delay: 2.40s" />
    <circle cx="525.1724137931035" cy="349.63664449086343" r="4" fill="#795548" class="data-point" style="animation-delay: 2.45s" />
    <circle cx="549.6551724137931" cy="349.58925029401956" r="4" fill="#795548" class="data-point" style="animation-delay: 2.50s" />
    <circle cx="574.1379310344828" cy="349.5102599659464" r="4" fill="#795548" class="data-point" style="animation-delay: 2.55s" />
    <circle cx="598.6206896551724" cy="349.43126963787324" r="4" fill="#795548" class="data-point" style="animation-delay: 2.60s" />
    <circle cx="623.1034482758621" cy="349.33648124418545" r="4" fill="#795548" class="data-point" style="animation-delay: 2.65s" />
    <circle cx="647.5862068965517" cy="349.27855500359846" r="4" fill="#795548" class="data-point" style="animation-delay: 2.70s" />
    <circle cx="672.0689655172414" cy="349.0731801506082" r="4" fill="#795548" class="data-point" style="animation-delay: 2.75s" />
    <circle cx="696.551724137931" cy="348.98892380066354" r="4" fill="#795548" class="data-point" style="animation-delay: 2.80s" />
    <circle cx="721.0344827586207" cy="348.9625936913058" r="4" fill="#795548" class="data-point" style="animation-delay: 2.85s" />
    <circle cx="745.5172413793103" cy="348.93099756007655" r="4" fill="#795548" class="data-point" style="animation-delay: 2.90s" />
    <circle cx="770" cy="348.88886938510416" r="4" fill="#795548" class="data-point" style="animation-delay: 2.95s" />
    
    <circle cx="60" cy="350" r="4" fill="#00bcd4" class="data-point" style="animation-delay: 1.50s" />
    <circle cx="84.48275862068965" cy="350" r="4" fill="#00bcd4" class="data-point" style="animation-delay: 1.55s" />
    <circle cx="108.9655172413793" cy="350" r="4" fill="#00bcd4" class="data-point" style="animation-delay: 1.60s" />
    <circle cx="133.44827586206895" cy="350" r="4" fill="#00bcd4" class="data-point" style="animation-delay: 1.65s" />
    <circle cx="157.9310344827586" cy="350" r="4" fill="#00bcd4" class="data-point" style="animation-delay: 1.70s" />
    <circle cx="182.41379310344828" cy="350" r="4" fill="#00bcd4" class="data-point" style="animation-delay: 1.75s" />
    <circle cx="206.89655172413794" cy="350" r="4" fill="#00bcd4" class="data-point" style="animation-delay: 1.80s" />
    <circle cx="231.3793103448276" cy="349.98420193438534" r="4" fill="#00bcd4" class="data-point" style="animation-delay: 1.85s" />
    <circle cx="255.86206896551724" cy="349.98420193438534" r="4" fill="#00bcd4" class="data-point" style="animation-delay: 1.90s" />
    <circle cx="280.34482758620686" cy="349.9526058031561" r="4" fill="#00bcd4" class="data-point" style="animation-delay: 1.95s" />
    <circle cx="304.82758620689657" cy="349.9052116063122" r="4" fill="#00bcd4" class="data-point" style="animation-delay: 2.00s" />
    <circle cx="329.3103448275862" cy="349.8788814969545" r="4" fill="#00bcd4" class="data-point" style="animation-delay: 2.05s" />
    <circle cx="353.7931034482759" cy="349.8683494532114" r="4" fill="#00bcd4" class="data-point" style="animation-delay: 2.10s" />
    <circle cx="378.2758620689655" cy="349.8420193438537" r="4" fill="#00bcd4" class="data-point" style="animation-delay: 2.15s" />
    <circle cx="402.7586206896552" cy="349.8314873001106" r="4" fill="#00bcd4" class="data-point" style="animation-delay: 2.20s" />
    <circle cx="427.2413793103448" cy="349.7630290157805" r="4" fill="#00bcd4" class="data-point" style="animation-delay: 2.25s" />
    <circle cx="451.7241379310345" cy="349.72090084080816" r="4" fill="#00bcd4" class="data-point" style="animation-delay: 2.30s" />
    <circle cx="476.2068965517241" cy="349.66297460022116" r="4" fill="#00bcd4" class="data-point" style="animation-delay: 2.35s" />
    <circle cx="500.6896551724138" cy="349.6313784689919" r="4" fill="#00bcd4" class="data-point" style="animation-delay: 2.40s" />
    <circle cx="525.1724137931035" cy="349.56292018466183" r="4" fill="#00bcd4" class="data-point" style="animation-delay: 2.45s" />
    <circle cx="549.6551724137931" cy="349.5365900753041" r="4" fill="#00bcd4" class="data-point" style="animation-delay: 2.50s" />
    <circle cx="574.1379310344828" cy="349.44706770348785" r="4" fill="#00bcd4" class="data-point" style="animation-delay: 2.55s" />
    <circle cx="598.6206896551724" cy="349.3575453316716" r="4" fill="#00bcd4" class="data-point" style="animation-delay: 2.60s" />
    <circle cx="623.1034482758621" cy="349.24169285049766" r="4" fill="#00bcd4" class="data-point" style="animation-delay: 2.65s" />
    <circle cx="647.5862068965517" cy="349.19956467552527" r="4" fill="#00bcd4" class="data-point" style="animation-delay: 2.70s" />
    <circle cx="672.0689655172414" cy="349.16270252242447" r="4" fill="#00bcd4" class="data-point" style="animation-delay: 2.75s" />
    <circle cx="696.551724137931" cy="349.0942442380944" r="4" fill="#00bcd4" class="data-point" style="animation-delay: 2.80s" />
    <circle cx="721.0344827586207" cy="349.0205199318928" r="4" fill="#00bcd4" class="data-point" style="animation-delay: 2.85s" />
    <circle cx="745.5172413793103" cy="348.9731257350489" r="4" fill="#00bcd4" class="data-point" style="animation-delay: 2.90s" />
    <circle cx="770" cy="348.925731538205" r="4" fill="#00bcd4" class="data-point" style="animation-delay: 2.95s" />
  </g>
</svg>