<svg xmlns="http://www.w3.org/2000/svg" viewBox="0 0 800 400" width="800" height="400">
  <style>
    @keyframes drawLine {
      to { stroke-dashoffset: 0; }
    }
    @keyframes fadeInPoint {
      from { opacity: 0; }
      to { opacity: 1; }
    }
    .data-line-0 {
      stroke-dasharray: 1223;
      stroke-dashoffset: 1223;
      animation: drawLine 2s ease-out forwards;
    }
    .data-line-1 {
      stroke-dasharray: 1122;
      stroke-dashoffset: 1122;
      animation: drawLine 2s ease-out forwards;
    }
    .data-line-2 {
      stroke-dasharray: 1066;
      stroke-dashoffset: 1066;
      animation: drawLine 2s ease-out forwards;
    }
    .data-line-3 {
      stroke-dasharray: 1066;
      stroke-dashoffset: 1066;
      animation: drawLine 2s ease-out forwards;
    }
    .data-line-4 {
      stroke-dasharray: 1066;
      stroke-dashoffset: 1066;
      animation: drawLine 2s ease-out forwards;
    }
    .data-line-5 {
      stroke-dasharray: 1066;
      stroke-dashoffset: 1066;
      animation: drawLine 2s ease-out forwards;
    }
    .data-line-6 {
      stroke-dasharray: 1066;
      stroke-dashoffset: 1066;
      animation: drawLine 2s ease-out forwards;
    }
    .data-line-7 {
      stroke-dasharray: 1066;
      stroke-dashoffset: 1066;
      animation: drawLine 2s ease-out forwards;
    }
    .data-line-8 {
      stroke-dasharray: 1066;
      stroke-dashoffset: 1066;
      animation: drawLine 2s ease-out forwards;
    }
    .data-line-9 {
      stroke-dasharray: 1066;
      stroke-dashoffset: 1066;
      animation: drawLine 2s ease-out forwards;
    }
    .data-point {
      opacity: 0;
      animation: fadeInPoint 0.5s ease-out forwards;
    }
    .chart-bg { fill: #fff; }
    .chart-text { fill: #24292e; }
    .chart-muted { fill: #6a737d; }
    .chart-grid { stroke: #eee; }
    .chart-axis { stroke: #6a737d; }
    @media (prefers-color-scheme: dark) {
      .chart-bg { fill: #0d1117; }
      .chart-text { fill: #e6edf3; }
      .chart-muted { fill: #8b949e; }
      .chart-grid { stroke: #21262d; }
      .chart-axis { stroke: #8b949e; }
    }
  </style>
  <rect width="800" height="400" class="chart-bg" />
  <text x="400" y="14" text-anchor="middle" class="chart-text" font-size="16" font-weight="bold" font-family="-apple-system, BlinkMacSystemFont, 'Segoe UI', Helvetica, Arial, sans-serif">Top Repositories</text>
  <g class="legend">
    <rect x="-200" y="31" width="12" height="3" fill="#dfb317" />
    <line x1="-200" y1="32.5" x2="-188" y2="32.5" stroke="#dfb317" stroke-width="2" />
    <text x="-184" y="36" class="chart-text" font-size="10" font-family="-apple-system, BlinkMacSystemFont, 'Segoe UI', Helvetica, Arial, sans-serif">dockur/windows</text>
    <rect x="-80" y="31" width="12" height="3" fill="#28a745" />
    <line x1="-80" y1="32.5" x2="-68" y2="32.5" stroke="#28a745" stroke-width="2" />
    <text x="-64" y="36" class="chart-text" font-size="10" font-family="-apple-system, BlinkMacSystemFont, 'Segoe UI', Helvetica, Arial, sans-serif">dockur/macos</text>
    <rect x="40" y="31" width="12" height="3" fill="#e74c3c" />
    <line x1="40" y1="32.5" x2="52" y2="32.5" stroke="#e74c3c" stroke-width="2" />
    <text x="56" y="36" class="chart-text" font-size="10" font-family="-apple-system, BlinkMacSystemFont, 'Segoe UI', Helvetica, Arial, sans-serif">vdsm/virtual-dsm</text>
    <rect x="160" y="31" width="12" height="3" fill="#3498db" />
    <line x1="160" y1="32.5" x2="172" y2="32.5" stroke="#3498db" stroke-width="2" />
    <text x="176" y="36" class="chart-text" font-size="10" font-family="-apple-system, BlinkMacSystemFont, 'Segoe UI', Helvetica, Arial, sans-serif">dockur/windows-arm</text>
    <rect x="280" y="31" width="12" height="3" fill="#9b59b6" />
    <line x1="280" y1="32.5" x2="292" y2="32.5" stroke="#9b59b6" stroke-width="2" />
    <text x="296" y="36" class="chart-text" font-size="10" font-family="-apple-system, BlinkMacSystemFont, 'Segoe UI', Helvetica, Arial, sans-serif">qemus/qemu</text>
    <rect x="400" y="31" width="12" height="3" fill="#e67e22" />
    <line x1="400" y1="32.5" x2="412" y2="32.5" stroke="#e67e22" stroke-width="2" />
    <text x="416" y="36" class="chart-text" font-size="10" font-family="-apple-system, BlinkMacSystemFont, 'Segoe UI', Helvetica, Arial, sans-serif">dockur/samba</text>
    <rect x="520" y="31" width="12" height="3" fill="#1abc9c" />
    <line x1="520" y1="32.5" x2="532" y2="32.5" stroke="#1abc9c" stroke-width="2" />
    <text x="536" y="36" class="chart-text" font-size="10" font-family="-apple-system, BlinkMacSystemFont, 'Segoe UI', Helvetica, Arial, sans-serif">dockur/umbrel</text>
    <rect x="640" y="31" width="12" height="3" fill="#e84393" />
    <line x1="640" y1="32.5" x2="652" y2="32.5" stroke="#e84393" stroke-width="2" />
    <text x="656" y="36" class="chart-text" font-size="10" font-family="-apple-system, BlinkMacSystemFont, 'Segoe UI', Helvetica, Arial, sans-serif">dockur/proxmox</text>
    <rect x="760" y="31" width="12" height="3" fill="#795548" />
    <line x1="760" y1="32.5" x2="772" y2="32.5" stroke="#795548" stroke-width="2" />
    <text x="776" y="36" class="chart-text" font-size="10" font-family="-apple-system, BlinkMacSystemFont, 'Segoe UI', Helvetica, Arial, sans-serif">dockur/casa</text>
    <rect x="880" y="31" width="12" height="3" fill="#00bcd4" />
    <line x1="880" y1="32.5" x2="892" y2="32.5" stroke="#00bcd4" stroke-width="2" />
    <text x="896" y="36" class="chart-text" font-size="10" font-family="-apple-system, BlinkMacSystemFont, 'Segoe UI', Helvetica, Arial, sans-serif">dockur/tor</text>
  </g>
  <g class="grid">
    <line x1="60" y1="350" x2="770" y2="350" class="chart-grid" stroke-opacity="0.3" />
    <text x="778" y="354" text-anchor="start" class="chart-muted" font-size="11" font-family="-apple-system, BlinkMacSystemFont, 'Segoe UI', Helvetica, Arial, sans-serif">0</text>
    <line x1="60" y1="297.3388569021205" x2="770" y2="297.3388569021205" class="chart-grid" stroke-opacity="0.3" />
    <text x="778" y="301.3388569021205" text-anchor="start" class="chart-muted" font-size="11" font-family="-apple-system, BlinkMacSystemFont, 'Segoe UI', Helvetica, Arial, sans-serif">10K</text>
    <line x1="60" y1="244.67771380424097" x2="770" y2="244.67771380424097" class="chart-grid" stroke-opacity="0.3" />
    <text x="778" y="248.67771380424097" text-anchor="start" class="chart-muted" font-size="11" font-family="-apple-system, BlinkMacSystemFont, 'Segoe UI', Helvetica, Arial, sans-serif">20K</text>
    <line x1="60" y1="192.01657070636145" x2="770" y2="192.01657070636145" class="chart-grid" stroke-opacity="0.3" />
    <text x="778" y="196.01657070636145" text-anchor="start" class="chart-muted" font-size="11" font-family="-apple-system, BlinkMacSystemFont, 'Segoe UI', Helvetica, Arial, sans-serif">30K</text>
    <line x1="60" y1="139.35542760848193" x2="770" y2="139.35542760848193" class="chart-grid" stroke-opacity="0.3" />
    <text x="778" y="143.35542760848193" text-anchor="start" class="chart-muted" font-size="11" font-family="-apple-system, BlinkMacSystemFont, 'Segoe UI', Helvetica, Arial, sans-serif">40K</text>
    <line x1="60" y1="86.69428451060247" x2="770" y2="86.69428451060247" class="chart-grid" stroke-opacity="0.3" />
    <text x="778" y="90.69428451060247" text-anchor="start" class="chart-muted" font-size="11" font-family="-apple-system, BlinkMacSystemFont, 'Segoe UI', Helvetica, Arial, sans-serif">50K</text>
    <line x1="60" y1="34.0331414127229" x2="770" y2="34.0331414127229" class="chart-grid" stroke-opacity="0.3" />
    <text x="778" y="38.0331414127229" text-anchor="start" class="chart-muted" font-size="11" font-family="-apple-system, BlinkMacSystemFont, 'Segoe UI', Helvetica, Arial, sans-serif">60K</text>
  </g>
  <g class="milestones">
    
  </g>
  <g class="x-axis">
    <text x="60" y="370" text-anchor="middle" class="chart-muted" font-size="11" font-family="-apple-system, BlinkMacSystemFont, 'Segoe UI', Helvetica, Arial, sans-serif">2023</text>
    <text x="231.3793103448276" y="370" text-anchor="middle" class="chart-muted" font-size="11" font-family="-apple-system, BlinkMacSystemFont, 'Segoe UI', Helvetica, Arial, sans-serif">2024</text>
    <text x="451.7241379310345" y="370" text-anchor="middle" class="chart-muted" font-size="11" font-family="-apple-system, BlinkMacSystemFont, 'Segoe UI', Helvetica, Arial, sans-serif">2025</text>
    <text x="672.0689655172414" y="370" text-anchor="middle" class="chart-muted" font-size="11" font-family="-apple-system, BlinkMacSystemFont, 'Segoe UI', Helvetica, Arial, sans-serif">2026</text>
  </g>
  <line x1="770" y1="50" x2="770" y2="350" class="chart-axis" stroke-width="1" />
  <line x1="60" y1="350" x2="770" y2="350" class="chart-axis" stroke-width="1" />
  
  
  
  
  
  
  
  
  
  
  <path d="M60,350 C63.264367816091955,350 77.95402298850574,350 84.48275862068965,350 C91.01149425287356,350 102.43678160919539,350 108.9655172413793,350 C115.49425287356321,350 126.91954022988504,350 133.44827586206895,350 C139.97701149425285,350 151.40229885057468,350 157.9310344827586,350 C164.45977011494253,350 175.88505747126436,350 182.41379310344828,350 C188.9425287356322,350 200.36781609195404,350 206.89655172413794,350 C213.42528735632183,350 224.8505747126437,350 231.3793103448276,350 C237.90804597701148,349.064035950007 249.33333333333334,350 255.86206896551724,342.98026962505264 C262.39080459770116,335.4904507793849 273.81609195402297,302.2521415531527 280.34482758620686,293.82635865749194 C286.87356321839076,285.4005757618312 298.2988505747127,282.5954922061508 304.82758620689657,279.7868979075972 C311.35632183908046,276.9783036090436 322.7816091954023,274.6345316669007 329.3103448275862,272.76190141834013 C335.8390804597701,270.88927116977953 347.264367816092,266.6781350933858 353.7931034482759,265.7421710433928 C360.32183908045977,265.7421710433928 371.7471264367816,265.7421710433928 378.2758620689655,265.7421710433928 C384.8045977011494,264.80620699339977 396.2298850574713,265.7421710433928 402.7586206896552,258.7224406684454 C409.28735632183907,249.36069372279172 420.71264367816093,204.89151804521836 427.2413793103448,195.52906895099002 C433.7701149425287,188.5040724617329 445.1954022988506,190.3767027102935 451.7241379310345,188.5040724617329 C458.2528735632184,186.6314422131723 469.67816091954023,183.35627018677152 476.2068965517241,181.48434208678557 C482.735632183908,179.61241398679962 494.1609195402299,175.4005757618312 500.6896551724138,174.46461171183822 C507.2183908045977,174.46461171183822 518.6436781609195,174.46461171183822 525.1724137931035,174.46461171183822 C531.7011494252874,173.5279455132706 543.1264367816092,169.3122454711417 549.6551724137931,167.4396152225811 C556.1839080459771,165.5669849740205 567.6091954022988,164.16444319618031 574.1379310344828,160.41988484763377 C580.6666666666667,156.67532649908722 592.0919540229885,143.34644010672656 598.6206896551724,139.35542760848193 C605.1494252873564,135.3644151102373 616.5747126436781,132.85212751018116 623.1034482758621,130.48729111079905 C629.632183908046,128.12245471141694 641.0574712643678,123.98399101249825 647.5862068965517,121.61915461311614 C654.1149425287357,119.25431821373402 665.5402298850574,115.11655666338994 672.0689655172414,112.7510181154332 C678.5977011494253,110.38547956747645 690.0229885057471,106.24315405139727 696.551724137931,103.87761550344052 C703.080459770115,101.51207695548378 714.5057471264367,97.37431540513971 721.0344827586207,95.00947900575761 C727.5632183908046,92.64464260637551 738.9885057471264,88.50617890745684 745.5172413793103,86.14134250807473 C752.0459770114943,83.77650610869262 766.735632183908,78.45562421008285 770,77.27320601039179" fill="none" stroke="#dfb317" stroke-width="2.5" class="data-line-0" />
  <path d="M60,350 C63.264367816091955,350 77.95402298850574,350 84.48275862068965,350 C91.01149425287356,350 102.43678160919539,350 108.9655172413793,350 C115.49425287356321,350 126.91954022988504,350 133.44827586206895,350 C139.97701149425285,350 151.40229885057468,350 157.9310344827586,350 C164.45977011494253,350 175.88505747126436,350 182.41379310344828,350 C188.9425287356322,350 200.36781609195404,350 206.89655172413794,350 C213.42528735632183,350 224.8505747126437,350 231.3793103448276,350 C237.90804597701148,350 249.33333333333334,350 255.86206896551724,350 C262.39080459770116,350 273.81609195402297,350 280.34482758620686,350 C286.87356321839076,350 298.2988505747127,350 304.82758620689657,350 C311.35632183908046,349.5443055750597 322.7816091954023,347.0667743294481 329.3103448275862,346.58229181294763 C335.8390804597701,346.3663811262463 347.264367816092,346.3951692178065 353.7931034482759,346.3663811262463 C360.32183908045977,346.3663811262463 371.7471264367816,346.3663811262463 378.2758620689655,346.3663811262463 C384.8045977011494,346.3663811262463 396.2298850574713,346.3663811262463 402.7586206896552,346.3663811262463 C409.28735632183907,340.55048448251654 420.71264367816093,309.04753545850303 427.2413793103448,302.7471562982727 C433.7701149425287,299.113537424519 445.1954022988506,300.5676871225951 451.7241379310345,299.113537424519 C458.2528735632184,297.6593877264429 469.67816091954023,292.8107007442775 476.2068965517241,291.84103356270185 C482.735632183908,291.84103356270185 494.1609195402299,291.84103356270185 500.6896551724138,291.84103356270185 C507.2183908045977,291.3565510462014 518.6436781609195,288.69189720544864 525.1724137931035,288.2074146889482 C531.7011494252874,288.2074146889482 543.1264367816092,288.2074146889482 549.6551724137931,288.2074146889482 C556.1839080459771,285.2998174413706 567.6091954022988,269.793217244769 574.1379310344828,266.4004353321163 C580.6666666666667,263.00765341946357 592.0919540229885,263.73121752562844 598.6206896551724,262.7615503440528 C605.1494252873564,261.7918831624772 616.5747126436781,260.0968965033001 623.1034482758621,259.12793147029913 C629.632183908046,258.15896643729815 641.0574712643678,255.97879511304592 647.5862068965517,255.49431259654543 C654.1149425287357,255.49431259654543 665.5402298850574,255.49431259654543 672.0689655172414,255.49431259654543 C678.5977011494253,255.00983008004494 690.0229885057471,252.82965875579274 696.551724137931,251.86069372279175 C703.080459770115,250.89172868979077 714.5057471264367,249.19674203061368 721.0344827586207,248.22707484903805 C727.5632183908046,247.25740766746242 738.9885057471264,245.30578570425502 745.5172413793103,244.58818986097458 C752.0459770114943,243.87059401769415 766.735632183908,243.07751720264005 770,242.84510602443476" fill="none" stroke="#28a745" stroke-width="2.5" class="data-line-1" />
  <path d="M60,349.9947338856902 C63.264367816091955,349.7117680101109 77.95402298850574,348.2242662547395 84.48275862068965,347.8724898188457 C91.01149425287356,347.52071338295184 102.43678160919539,347.67659036652157 108.9655172413793,347.35641061648647 C115.49425287356321,347.0362308664514 126.91954022988504,345.84959977531247 133.44827586206895,345.47114169358235 C139.97701149425285,345.09268361185224 151.40229885057468,344.7384496559472 157.9310344827586,344.51797500351074 C164.45977011494253,344.2975003510743 175.88505747126436,343.98188456677434 182.41379310344828,343.817581800309 C188.9425287356322,343.6532790338436 200.36781609195404,343.45913495295605 206.89655172413794,343.2857042550204 C213.42528735632183,343.11227355708473 224.8505747126437,342.7211768010111 231.3793103448276,342.51685156579134 C237.90804597701148,342.3125263305716 249.33333333333334,342.0109535177644 255.86206896551724,341.7532649908721 C262.39080459770116,341.4955764639798 273.81609195402297,340.85872770678276 280.34482758620686,340.58418761409916 C286.87356321839076,340.30964752141557 298.2988505747127,339.90766746243503 304.82758620689657,339.694214295745 C311.35632183908046,339.48076112905494 322.7816091954023,339.2023592192108 329.3103448275862,338.98328886392363 C335.8390804597701,338.7642185086365 347.264367816092,338.2316388147732 353.7931034482759,338.0511866310911 C360.32183908045977,337.87073444740906 371.7471264367816,337.77945513270606 378.2758620689655,337.6298974863081 C384.8045977011494,337.48033983991013 396.2298850574713,337.1506810841174 402.7586206896552,336.9295042831063 C409.28735632183907,336.7083274820952 420.71264367816093,336.15222581098163 427.2413793103448,335.9710714787249 C433.7701149425287,335.7899171464682 445.1954022988506,335.69372279174274 451.7241379310345,335.570846791181 C458.2528735632184,335.44797079061925 469.67816091954023,335.214506389552 476.2068965517241,335.049501474512 C482.735632183908,334.884496559472 494.1609195402299,334.5313158264289 500.6896551724138,334.33330992838086 C507.2183908045977,334.1353040303328 518.6436781609195,333.7399943828114 525.1724137931035,333.5644572391518 C531.7011494252874,333.3889200954922 543.1264367816092,333.11578429995785 549.6551724137931,333.01678135093385 C556.1839080459771,332.91777840190986 567.6091954022988,332.85985114450216 574.1379310344828,332.8219351214717 C580.6666666666667,332.78401909844126 592.0919540229885,332.8047324813931 598.6206896551724,332.7324111782053 C605.1494252873564,332.66008987501755 616.5747126436781,332.39467771380424 623.1034482758621,332.27952534756355 C629.632183908046,332.16437298132286 641.0574712643678,332.070987220896 647.5862068965517,331.8687684314001 C654.1149425287357,331.6665496419042 665.5402298850574,330.9517623929223 672.0689655172414,330.7628844263446 C678.5977011494253,330.5740064597669 690.0229885057471,330.53854795674766 696.551724137931,330.45218368206713 C703.080459770115,330.3658194073866 714.5057471264367,330.18185648083136 721.0344827586207,330.1151523662407 C727.5632183908046,330.04844825165003 738.9885057471264,330.00596826288444 745.5172413793103,329.9519028226373 C752.0459770114943,329.89783738239015 766.735632183908,329.7419603988204 770,329.70966156438703" fill="none" stroke="#e74c3c" stroke-width="2.5" class="data-line-2" />
  <path d="M60,350 C63.264367816091955,350 77.95402298850574,350 84.48275862068965,350 C91.01149425287356,350 102.43678160919539,350 108.9655172413793,350 C115.49425287356321,350 126.91954022988504,350 133.44827586206895,350 C139.97701149425285,350 151.40229885057468,350 157.9310344827586,350 C164.45977011494253,350 175.88505747126436,350 182.41379310344828,350 C188.9425287356322,350 200.36781609195404,350 206.89655172413794,350 C213.42528735632183,350 224.8505747126437,350 231.3793103448276,350 C237.90804597701148,349.99508495997753 249.33333333333334,350 255.86206896551724,349.96313719983146 C262.39080459770116,349.7258109816037 273.81609195402297,348.55708467911813 280.34482758620686,348.2200533632917 C286.87356321839076,347.88302204746526 298.2988505747127,347.60532228619576 304.82758620689657,347.4354023311333 C311.35632183908046,347.2654823760708 322.7816091954023,347.0537845808173 329.3103448275862,346.94565370032296 C335.8390804597701,346.8375228198286 347.264367816092,346.7157000421289 353.7931034482759,346.6244207274259 C360.32183908045977,346.5331414127229 371.7471264367816,346.3593596404999 378.2758620689655,346.26105884005057 C384.8045977011494,346.1627580396012 396.2298850574713,346.2396433085241 402.7586206896552,345.8871647240556 C409.28735632183907,345.5346861395871 420.71264367816093,343.97767167532646 427.2413793103448,343.617469456537 C433.7701149425287,343.2572672377475 445.1954022988506,343.2867574778823 451.7241379310345,343.18564808313437 C458.2528735632184,343.08453868838643 469.67816091954023,342.96025839067545 476.2068965517241,342.8591489959275 C482.735632183908,342.7580396011796 494.1609195402299,342.53405420586995 500.6896551724138,342.4273276225249 C507.2183908045977,342.32060103917985 518.6436781609195,342.1408510040725 525.1724137931035,342.0586996208398 C531.7011494252874,341.97654823760706 543.1264367816092,341.87578991714645 549.6551724137931,341.8111922482797 C556.1839080459771,341.746594579413 567.6091954022988,341.73641342508074 574.1379310344828,341.57421710433925 C580.6666666666667,341.41202078359777 592.0919540229885,340.81308804943126 598.6206896551724,340.59471984271875 C605.1494252873564,340.37635163600623 616.5747126436781,340.06635304030334 623.1034482758621,339.93645555399524 C629.632183908046,339.80655806768715 641.0574712643678,339.69842718719286 647.5862068965517,339.62048869540797 C654.1149425287357,339.5425502036231 665.5402298850574,339.41370594017695 672.0689655172414,339.35191686560876 C678.5977011494253,339.29012779104056 690.0229885057471,339.20973177924446 696.551724137931,339.1570706361466 C703.080459770115,339.10440949304876 714.5057471264367,339.0124280297711 721.0344827586207,338.9569582923747 C727.5632183908046,338.90148855497824 738.9885057471264,338.79581519449516 745.5172413793103,338.7410476056734 C752.0459770114943,338.6862800168516 766.735632183908,338.57218087347286 770,338.54620137621123" fill="none" stroke="#3498db" stroke-width="2.5" class="data-line-3" />
  <path d="M60,350 C63.264367816091955,349.99929785142535 77.95402298850574,349.99894677713803 84.48275862068965,349.9947338856902 C91.01149425287356,349.9905209942424 102.43678160919539,349.97753124561154 108.9655172413793,349.96840331414126 C115.49425287356321,349.95927538267097 126.91954022988504,349.93891307400645 133.44827586206895,349.926274399663 C139.97701149425285,349.9136357253195 151.40229885057468,349.8848476337593 157.9310344827586,349.8736132565651 C164.45977011494253,349.86237887937085 175.88505747126436,349.8588681364977 182.41379310344828,349.84201657070633 C188.9425287356322,349.825165004915 200.36781609195404,349.77109956466785 206.89655172413794,349.74722651313016 C213.42528735632183,349.72335346159247 224.8505747126437,349.69386322145766 231.3793103448276,349.66296868417356 C237.90804597701148,349.63207414688947 249.33333333333334,349.5878387866873 255.86206896551724,349.51551748349954 C262.39080459770116,349.44319618031176 273.81609195402297,349.2160511164162 280.34482758620686,349.1205589102654 C286.87356321839076,349.0250667041146 298.2988505747127,348.88358376632493 304.82758620689657,348.79932593736834 C311.35632183908046,348.71506810841174 322.7816091954023,348.5616486448532 329.3103448275862,348.48862519309085 C335.8390804597701,348.4156017413285 347.264367816092,348.3176520151664 353.7931034482759,348.2516500491504 C360.32183908045977,348.18564808313437 371.7471264367816,348.0561016711136 378.2758620689655,347.9936104479708 C384.8045977011494,347.931119224828 396.2298850574713,347.85318073304313 402.7586206896552,347.7829658755793 C409.28735632183907,347.71275101811545 420.71264367816093,347.55195899452326 427.2413793103448,347.466999016992 C433.7701149425287,347.3820390394608 445.1954022988506,347.22230023873055 451.7241379310345,347.14576604409496 C458.2528735632184,347.06923184945936 469.67816091954023,346.9667181575621 476.2068965517241,346.8929925572251 C482.735632183908,346.8192669568881 494.1609195402299,346.70306136778544 500.6896551724138,346.5928240415672 C507.2183908045977,346.482586715349 518.6436781609195,346.1918972054487 525.1724137931035,346.0662126105884 C531.7011494252874,345.94052801572815 543.1264367816092,345.77517202640075 549.6551724137931,345.6501895801151 C556.1839080459771,345.5252071338295 567.6091954022988,345.3121050414267 574.1379310344828,345.1288442634461 C580.6666666666667,344.94558348546553 592.0919540229885,344.49831484342087 598.6206896551724,344.2757337452605 C605.1494252873564,344.0531526471001 616.5747126436781,343.75719702289007 623.1034482758621,343.4594860272434 C629.632183908046,343.1617750315967 641.0574712643678,342.2914618733324 647.5862068965517,342.0429012779104 C654.1149425287357,341.7943406824884 665.5402298850574,341.7195618592894 672.0689655172414,341.5952815615784 C678.5977011494253,341.47100126386744 690.0229885057471,341.2224406684455 696.551724137931,341.11079904507795 C703.080459770115,340.99915742171044 714.5057471264367,340.8576744839208 721.0344827586207,340.75796938632215 C727.5632183908046,340.6582642887235 738.9885057471264,340.44586434489537 745.5172413793103,340.36301081308807 C752.0459770114943,340.28015728128076 766.735632183908,340.16676028647663 770,340.1365678977672" fill="none" stroke="#9b59b6" stroke-width="2.5" class="data-line-4" />
  <path d="M60,350 C63.264367816091955,350 77.95402298850574,350 84.48275862068965,350 C91.01149425287356,350 102.43678160919539,350 108.9655172413793,350 C115.49425287356321,350 126.91954022988504,350 133.44827586206895,350 C139.97701149425285,350 151.40229885057468,350 157.9310344827586,350 C164.45977011494253,350 175.88505747126436,350 182.41379310344828,350 C188.9425287356322,350 200.36781609195404,350 206.89655172413794,350 C213.42528735632183,350 224.8505747126437,350 231.3793103448276,350 C237.90804597701148,349.99929785142535 249.33333333333334,350 255.86206896551724,349.9947338856902 C262.39080459770116,349.9771801713242 273.81609195402297,349.89994382811403 280.34482758620686,349.8683471422553 C286.87356321839076,349.83675045639654 298.2988505747127,349.78514253616066 304.82758620689657,349.75775874174974 C311.35632183908046,349.7303749473388 322.7816091954023,349.68052239853955 329.3103448275862,349.66296868417356 C335.8390804597701,349.6454149698076 347.264367816092,349.6387445583485 353.7931034482759,349.626105884005 C360.32183908045977,349.61346720966156 371.7471264367816,349.5927538267097 378.2758620689655,349.5681786265974 C384.8045977011494,349.54360342648505 396.2298850574713,349.50007021485743 402.7586206896552,349.44179188316247 C409.28735632183907,349.3835135514675 420.71264367816093,349.19779525347565 427.2413793103448,349.131091138885 C433.7701149425287,349.0643870242943 445.1954022988506,349.0033000983008 451.7241379310345,348.94151102373263 C458.2528735632184,348.87972194916443 469.67816091954023,348.72665355989324 476.2068965517241,348.6676730796236 C482.735632183908,348.608692599354 494.1609195402299,348.5567336048308 500.6896551724138,348.49915742171044 C507.2183908045977,348.44158123859006 518.6436781609195,348.2934278893414 525.1724137931035,348.235851706221 C531.7011494252874,348.17827552310064 543.1264367816092,348.11859289425644 549.6551724137931,348.0673360483078 C556.1839080459771,348.0160792023592 567.6091954022988,347.91391658474936 574.1379310344828,347.8514253616065 C580.6666666666667,347.7889341384637 592.0919540229885,347.66535598932734 598.6206896551724,347.5986518747367 C605.1494252873564,347.531947760146 616.5747126436781,347.41784861676734 623.1034482758621,347.3511445021767 C629.632183908046,347.284440387586 641.0574712643678,347.15875579272574 647.5862068965517,347.09837101530684 C654.1149425287357,347.03798623788794 665.5402298850574,346.96847352899874 672.0689655172414,346.8982586715349 C678.5977011494253,346.82804381407107 690.0229885057471,346.63776155034407 696.551724137931,346.57175958432805 C703.080459770115,346.50575761831203 714.5057471264367,346.45099002949024 721.0344827586207,346.4032439264148 C727.5632183908046,346.35549782333936 738.9885057471264,346.2586013200393 745.5172413793103,346.21366381126245 C752.0459770114943,346.1687263024856 766.735632183908,346.0858727706783 770,346.0662126105884" fill="none" stroke="#e67e22" stroke-width="2.5" class="data-line-5" />
  <path d="M60,350 C63.264367816091955,350 77.95402298850574,350 84.48275862068965,350 C91.01149425287356,350 102.43678160919539,350 108.9655172413793,350 C115.49425287356321,350 126.91954022988504,350 133.44827586206895,350 C139.97701149425285,350 151.40229885057468,350 157.9310344827586,350 C164.45977011494253,350 175.88505747126436,350 182.41379310344828,350 C188.9425287356322,350 200.36781609195404,350 206.89655172413794,350 C213.42528735632183,350 224.8505747126437,350 231.3793103448276,350 C237.90804597701148,350 249.33333333333334,350 255.86206896551724,350 C262.39080459770116,350 273.81609195402297,350 280.34482758620686,350 C286.87356321839076,350 298.2988505747127,350 304.82758620689657,350 C311.35632183908046,350 322.7816091954023,350 329.3103448275862,350 C335.8390804597701,350 347.264367816092,350 353.7931034482759,350 C360.32183908045977,350 371.7471264367816,350 378.2758620689655,350 C384.8045977011494,349.96980761129055 396.2298850574713,349.8465805364415 402.7586206896552,349.7735570846791 C409.28735632183907,349.70053363291674 420.71264367816093,349.51411318635024 427.2413793103448,349.45232411178205 C433.7701149425287,349.39053503721385 445.1954022988506,349.35297008847067 451.7241379310345,349.31013902541775 C458.2528735632184,349.26730796236484 469.67816091954023,349.17251790478866 476.2068965517241,349.131091138885 C482.735632183908,349.0896643729813 494.1609195402299,349.03173711557366 500.6896551724138,348.99943828114027 C507.2183908045977,348.9671394467069 518.6436781609195,348.9190422693442 525.1724137931035,348.8888498806347 C531.7011494252874,348.85865749192527 543.1264367816092,348.80178345737954 549.6551724137931,348.7729953658194 C556.1839080459771,348.7442072742592 567.6091954022988,348.7038337312175 574.1379310344828,348.6729391939334 C580.6666666666667,348.6420446566493 592.0919540229885,348.5785002106446 598.6206896551724,348.54128633618876 C605.1494252873564,348.5040724617329 616.5747126436781,348.42613396994807 623.1034482758621,348.3938351355147 C629.632183908046,348.3615363010813 641.0574712643678,348.3243224266255 647.5862068965517,348.2990450779385 C654.1149425287357,348.2737677292515 665.5402298850574,348.2253194776015 672.0689655172414,348.2042550203623 C678.5977011494253,348.18319056312316 690.0229885057471,348.1579132144362 696.551724137931,348.14106164864484 C703.080459770115,348.1242100828535 714.5057471264367,348.096124139868 721.0344827586207,348.0778682769274 C727.5632183908046,348.0596124139868 738.9885057471264,348.0245049852549 745.5172413793103,348.0041426765904 C752.0459770114943,347.9837803679259 766.735632183908,347.9356831905631 770,347.92515096194353" fill="none" stroke="#1abc9c" stroke-width="2.5" class="data-line-6" />
  <path d="M60,350 C63.264367816091955,350 77.95402298850574,350 84.48275862068965,350 C91.01149425287356,350 102.43678160919539,350 108.9655172413793,350 C115.49425287356321,350 126.91954022988504,350 133.44827586206895,350 C139.97701149425285,350 151.40229885057468,350 157.9310344827586,350 C164.45977011494253,350 175.88505747126436,350 182.41379310344828,350 C188.9425287356322,350 200.36781609195404,350 206.89655172413794,350 C213.42528735632183,350 224.8505747126437,350 231.3793103448276,350 C237.90804597701148,350 249.33333333333334,350 255.86206896551724,350 C262.39080459770116,350 273.81609195402297,350 280.34482758620686,350 C286.87356321839076,350 298.2988505747127,350 304.82758620689657,350 C311.35632183908046,350 322.7816091954023,350 329.3103448275862,350 C335.8390804597701,350 347.264367816092,350 353.7931034482759,350 C360.32183908045977,350 371.7471264367816,350 378.2758620689655,350 C384.8045977011494,350 396.2298850574713,350 402.7586206896552,350 C409.28735632183907,350 420.71264367816093,350 427.2413793103448,350 C433.7701149425287,350 445.1954022988506,350 451.7241379310345,350 C458.2528735632184,350 469.67816091954023,350 476.2068965517241,350 C482.735632183908,350 494.1609195402299,350 500.6896551724138,350 C507.2183908045977,350 518.6436781609195,350 525.1724137931035,350 C531.7011494252874,350 543.1264367816092,350 549.6551724137931,350 C556.1839080459771,350 567.6091954022988,350 574.1379310344828,350 C580.6666666666667,350 592.0919540229885,350 598.6206896551724,350 C605.1494252873564,350 616.5747126436781,350 623.1034482758621,350 C629.632183908046,350 641.0574712643678,350 647.5862068965517,350 C654.1149425287357,350 665.5402298850574,350 672.0689655172414,350 C678.5977011494253,350 690.0229885057471,350 696.551724137931,350 C703.080459770115,350 714.5057471264367,350 721.0344827586207,350 C727.5632183908046,350 738.9885057471264,350 745.5172413793103,350 C752.0459770114943,349.83991012498245 766.735632183908,348.9594158123859 770,348.79932593736834" fill="none" stroke="#e84393" stroke-width="2.5" class="data-line-7" />
  <path d="M60,350 C63.264367816091955,350 77.95402298850574,350 84.48275862068965,350 C91.01149425287356,350 102.43678160919539,350 108.9655172413793,350 C115.49425287356321,350 126.91954022988504,350 133.44827586206895,350 C139.97701149425285,350 151.40229885057468,350 157.9310344827586,350 C164.45977011494253,350 175.88505747126436,350 182.41379310344828,350 C188.9425287356322,350 200.36781609195404,350 206.89655172413794,350 C213.42528735632183,350 224.8505747126437,350 231.3793103448276,350 C237.90804597701148,350 249.33333333333334,350 255.86206896551724,350 C262.39080459770116,350 273.81609195402297,350 280.34482758620686,350 C286.87356321839076,350 298.2988505747127,350 304.82758620689657,350 C311.35632183908046,350 322.7816091954023,350 329.3103448275862,350 C335.8390804597701,350 347.264367816092,350 353.7931034482759,350 C360.32183908045977,350 371.7471264367816,350 378.2758620689655,350 C384.8045977011494,350 396.2298850574713,350 402.7586206896552,350 C409.28735632183907,349.98736132565654 420.71264367816093,349.926274399663 427.2413793103448,349.9052099424238 C433.7701149425287,349.88414548518466 445.1954022988506,349.8595702850723 451.7241379310345,349.84201657070633 C458.2528735632184,349.82446285634035 469.67816091954023,349.7918129476197 476.2068965517241,349.7735570846791 C482.735632183908,349.75530122173853 494.1609195402299,349.72335346159247 500.6896551724138,349.7050975986519 C507.2183908045977,349.6868417357113 518.6436781609195,349.65208538126666 525.1724137931035,349.6366381126246 C531.7011494252874,349.62119084398256 543.1264367816092,349.6060946496279 549.6551724137931,349.58924308383655 C556.1839080459771,349.5723915180452 567.6091954022988,349.5313158264289 574.1379310344828,349.51025136918975 C580.6666666666667,349.4891869119506 592.0919540229885,349.45443055750593 598.6206896551724,349.4312596545429 C605.1494252873564,349.40808875157984 616.5747126436781,349.3568319056312 623.1034482758621,349.3364695969667 C629.632183908046,349.3161072883022 641.0574712643678,349.313649768291 647.5862068965517,349.27854233955907 C654.1149425287357,349.24343491082715 665.5402298850574,349.11178205308244 672.0689655172414,349.07316388147734 C678.5977011494253,349.03454570987225 690.0229885057471,349.0036511725881 696.551724137931,348.9889060525207 C703.080459770115,348.9741609324533 714.5057471264367,348.9702991152928 721.0344827586207,348.9625754809718 C727.5632183908046,348.9548518466508 738.9885057471264,348.940808875158 745.5172413793103,348.93097879511305 C752.0459770114943,348.9211487150681 766.735632183908,348.89446706923184 770,348.8888498806347" fill="none" stroke="#795548" stroke-width="2.5" class="data-line-8" />
  <path d="M60,350 C63.264367816091955,350 77.95402298850574,350 84.48275862068965,350 C91.01149425287356,350 102.43678160919539,350 108.9655172413793,350 C115.49425287356321,350 126.91954022988504,350 133.44827586206895,350 C139.97701149425285,350 151.40229885057468,350 157.9310344827586,350 C164.45977011494253,350 175.88505747126436,350 182.41379310344828,350 C188.9425287356322,350 200.36781609195404,350 206.89655172413794,350 C213.42528735632183,349.99789355427606 224.8505747126437,349.98630810279457 231.3793103448276,349.9842016570706 C237.90804597701148,349.9842016570706 249.33333333333334,349.9842016570706 255.86206896551724,349.9842016570706 C262.39080459770116,349.9799887656228 273.81609195402297,349.96313719983146 280.34482758620686,349.9526049712119 C286.87356321839076,349.9420727425923 298.2988505747127,349.91504002246876 304.82758620689657,349.9052099424238 C311.35632183908046,349.8953798623789 322.7816091954023,349.88379441089734 329.3103448275862,349.87887937087487 C335.8390804597701,349.8739643308524 347.264367816092,349.87326218227776 353.7931034482759,349.8683471422553 C360.32183908045977,349.8634321022328 371.7471264367816,349.8469316107288 378.2758620689655,349.84201657070633 C384.8045977011494,349.83710153068387 396.2298850574713,349.84201657070633 402.7586206896552,349.8314843420868 C409.28735632183907,349.82095211346723 420.71264367816093,349.77776997612693 427.2413793103448,349.76302485605953 C433.7701149425287,349.7482797359921 445.1954022988506,349.7335346159247 451.7241379310345,349.72089594158126 C458.2528735632184,349.7082572672378 469.67816091954023,349.6801713242522 476.2068965517241,349.66823479848335 C482.735632183908,349.6562982727145 494.1609195402299,349.6454149698076 500.6896551724138,349.6313719983148 C507.2183908045977,349.61732902682206 518.6436781609195,349.57555118663106 525.1724137931035,349.5629125122876 C531.7011494252874,349.55027383794413 543.1264367816092,349.5520292093807 549.6551724137931,349.53658194073864 C556.1839080459771,349.5211346720966 567.6091954022988,349.47093104900995 574.1379310344828,349.44705799747226 C580.6666666666667,349.42318494593457 592.0919540229885,349.3849178486168 598.6206896551724,349.35753405420587 C605.1494252873564,349.33015025979495 616.5747126436781,349.2627439966297 623.1034482758621,349.24167953939053 C629.632183908046,349.22061508215137 641.0574712643678,349.2100828535318 647.5862068965517,349.1995506249122 C654.1149425287357,349.1890183962926 665.5402298850574,349.1767307962365 672.0689655172414,349.1626878247437 C678.5977011494253,349.14864485325097 690.0229885057471,349.1131863502317 696.551724137931,349.09422833871645 C703.080459770115,349.0752703272012 714.5057471264367,349.03665215559613 721.0344827586207,349.02050273837943 C727.5632183908046,349.00435332116274 738.9885057471264,348.98574638393484 745.5172413793103,348.9731077095914 C752.0459770114943,348.9604690352479 766.735632183908,348.932032017975 770,348.92571268080326" fill="none" stroke="#00bcd4" stroke-width="2.5" class="data-line-9" />
  <g class="points">
    
    <circle cx="60" cy="350" r="4" fill="#dfb317" class="data-point" style="animation-delay: 1.50s" />
    <circle cx="84.48275862068965" cy="350" r="4" fill="#dfb317" class="data-point" style="animation-delay: 1.55s" />
    <circle cx="108.9655172413793" cy="350" r="4" fill="#dfb317" class="data-point" style="animation-delay: 1.60s" />
    <circle cx="133.44827586206895" cy="350" r="4" fill="#dfb317" class="data-point" style="animation-delay: 1.65s" />
    <circle cx="157.9310344827586" cy="350" r="4" fill="#dfb317" class="data-point" style="animation-delay: 1.70s" />
    <circle cx="182.41379310344828" cy="350" r="4" fill="#dfb317" class="data-point" style="animation-delay: 1.75s" />
    <circle cx="206.89655172413794" cy="350" r="4" fill="#dfb317" class="data-point" style="animation-delay: 1.80s" />
    <circle cx="231.3793103448276" cy="350" r="4" fill="#dfb317" class="data-point" style="animation-delay: 1.85s" />
    <circle cx="255.86206896551724" cy="342.98026962505264" r="4" fill="#dfb317" class="data-point" style="animation-delay: 1.90s" />
    <circle cx="280.34482758620686" cy="293.82635865749194" r="4" fill="#dfb317" class="data-point" style="animation-delay: 1.95s" />
    <circle cx="304.82758620689657" cy="279.7868979075972" r="4" fill="#dfb317" class="data-point" style="animation-delay: 2.00s" />
    <circle cx="329.3103448275862" cy="272.76190141834013" r="4" fill="#dfb317" class="data-point" style="animation-delay: 2.05s" />
    <circle cx="353.7931034482759" cy="265.7421710433928" r="4" fill="#dfb317" class="data-point" style="animation-delay: 2.10s" />
    <circle cx="378.2758620689655" cy="265.7421710433928" r="4" fill="#dfb317" class="data-point" style="animation-delay: 2.15s" />
    <circle cx="402.7586206896552" cy="258.7224406684454" r="4" fill="#dfb317" class="data-point" style="animation-delay: 2.20s" />
    <circle cx="427.2413793103448" cy="195.52906895099002" r="4" fill="#dfb317" class="data-point" style="animation-delay: 2.25s" />
    <circle cx="451.7241379310345" cy="188.5040724617329" r="4" fill="#dfb317" class="data-point" style="animation-delay: 2.30s" />
    <circle cx="476.2068965517241" cy="181.48434208678557" r="4" fill="#dfb317" class="data-point" style="animation-delay: 2.35s" />
    <circle cx="500.6896551724138" cy="174.46461171183822" r="4" fill="#dfb317" class="data-point" style="animation-delay: 2.40s" />
    <circle cx="525.1724137931035" cy="174.46461171183822" r="4" fill="#dfb317" class="data-point" style="animation-delay: 2.45s" />
    <circle cx="549.6551724137931" cy="167.4396152225811" r="4" fill="#dfb317" class="data-point" style="animation-delay: 2.50s" />
    <circle cx="574.1379310344828" cy="160.41988484763377" r="4" fill="#dfb317" class="data-point" style="animation-delay: 2.55s" />
    <circle cx="598.6206896551724" cy="139.35542760848193" r="4" fill="#dfb317" class="data-point" style="animation-delay: 2.60s" />
    <circle cx="623.1034482758621" cy="130.48729111079905" r="4" fill="#dfb317" class="data-point" style="animation-delay: 2.65s" />
    <circle cx="647.5862068965517" cy="121.61915461311614" r="4" fill="#dfb317" class="data-point" style="animation-delay: 2.70s" />
    <circle cx="672.0689655172414" cy="112.7510181154332" r="4" fill="#dfb317" class="data-point" style="animation-delay: 2.75s" />
    <circle cx="696.551724137931" cy="103.87761550344052" r="4" fill="#dfb317" class="data-point" style="animation-delay: 2.80s" />
    <circle cx="721.0344827586207" cy="95.00947900575761" r="4" fill="#dfb317" class="data-point" style="animation-delay: 2.85s" />
    <circle cx="745.5172413793103" cy="86.14134250807473" r="4" fill="#dfb317" class="data-point" style="animation-delay: 2.90s" />
    <circle cx="770" cy="77.27320601039179" r="4" fill="#dfb317" class="data-point" style="animation-delay: 2.95s" />
    
    <circle cx="60" cy="350" r="4" fill="#28a745" class="data-point" style="animation-delay: 1.50s" />
    <circle cx="84.48275862068965" cy="350" r="4" fill="#28a745" class="data-point" style="animation-delay: 1.55s" />
    <circle cx="108.9655172413793" cy="350" r="4" fill="#28a745" class="data-point" style="animation-delay: 1.60s" />
    <circle cx="133.44827586206895" cy="350" r="4" fill="#28a745" class="data-point" style="animation-delay: 1.65s" />
    <circle cx="157.9310344827586" cy="350" r="4" fill="#28a745" class="data-point" style="animation-delay: 1.70s" />
    <circle cx="182.41379310344828" cy="350" r="4" fill="#28a745" class="data-point" style="animation-delay: 1.75s" />
    <circle cx="206.89655172413794" cy="350" r="4" fill="#28a745" class="data-point" style="animation-delay: 1.80s" />
    <circle cx="231.3793103448276" cy="350" r="4" fill="#28a745" class="data-point" style="animation-delay: 1.85s" />
    <circle cx="255.86206896551724" cy="350" r="4" fill="#28a745" class="data-point" style="animation-delay: 1.90s" />
    <circle cx="280.34482758620686" cy="350" r="4" fill="#28a745" class="data-point" style="animation-delay: 1.95s" />
    <circle cx="304.82758620689657" cy="350" r="4" fill="#28a745" class="data-point" style="animation-delay: 2.00s" />
    <circle cx="329.3103448275862" cy="346.58229181294763" r="4" fill="#28a745" class="data-point" style="animation-delay: 2.05s" />
    <circle cx="353.7931034482759" cy="346.3663811262463" r="4" fill="#28a745" class="data-point" style="animation-delay: 2.10s" />
    <circle cx="378.2758620689655" cy="346.3663811262463" r="4" fill="#28a745" class="data-point" style="animation-delay: 2.15s" />
    <circle cx="402.7586206896552" cy="346.3663811262463" r="4" fill="#28a745" class="data-point" style="animation-delay: 2.20s" />
    <circle cx="427.2413793103448" cy="302.7471562982727" r="4" fill="#28a745" class="data-point" style="animation-delay: 2.25s" />
    <circle cx="451.7241379310345" cy="299.113537424519" r="4" fill="#28a745" class="data-point" style="animation-delay: 2.30s" />
    <circle cx="476.2068965517241" cy="291.84103356270185" r="4" fill="#28a745" class="data-point" style="animation-delay: 2.35s" />
    <circle cx="500.6896551724138" cy="291.84103356270185" r="4" fill="#28a745" class="data-point" style="animation-delay: 2.40s" />
    <circle cx="525.1724137931035" cy="288.2074146889482" r="4" fill="#28a745" class="data-point" style="animation-delay: 2.45s" />
    <circle cx="549.6551724137931" cy="288.2074146889482" r="4" fill="#28a745" class="data-point" style="animation-delay: 2.50s" />
    <circle cx="574.1379310344828" cy="266.4004353321163" r="4" fill="#28a745" class="data-point" style="animation-delay: 2.55s" />
    <circle cx="598.6206896551724" cy="262.7615503440528" r="4" fill="#28a745" class="data-point" style="animation-delay: 2.60s" />
    <circle cx="623.1034482758621" cy="259.12793147029913" r="4" fill="#28a745" class="data-point" style="animation-delay: 2.65s" />
    <circle cx="647.5862068965517" cy="255.49431259654543" r="4" fill="#28a745" class="data-point" style="animation-delay: 2.70s" />
    <circle cx="672.0689655172414" cy="255.49431259654543" r="4" fill="#28a745" class="data-point" style="animation-delay: 2.75s" />
    <circle cx="696.551724137931" cy="251.86069372279175" r="4" fill="#28a745" class="data-point" style="animation-delay: 2.80s" />
    <circle cx="721.0344827586207" cy="248.22707484903805" r="4" fill="#28a745" class="data-point" style="animation-delay: 2.85s" />
    <circle cx="745.5172413793103" cy="244.58818986097458" r="4" fill="#28a745" class="data-point" style="animation-delay: 2.90s" />
    <circle cx="770" cy="242.84510602443476" r="4" fill="#28a745" class="data-point" style="animation-delay: 2.95s" />
    
    <circle cx="60" cy="349.9947338856902" r="4" fill="#e74c3c" class="data-point" style="animation-delay: 1.50s" />
    <circle cx="84.48275862068965" cy="347.8724898188457" r="4" fill="#e74c3c" class="data-point" style="animation-delay: 1.55s" />
    <circle cx="108.9655172413793" cy="347.35641061648647" r="4" fill="#e74c3c" class="data-point" style="animation-delay: 1.60s" />
    <circle cx="133.44827586206895" cy="345.47114169358235" r="4" fill="#e74c3c" class="data-point" style="animation-delay: 1.65s" />
    <circle cx="157.9310344827586" cy="344.51797500351074" r="4" fill="#e74c3c" class="data-point" style="animation-delay: 1.70s" />
    <circle cx="182.41379310344828" cy="343.817581800309" r="4" fill="#e74c3c" class="data-point" style="animation-delay: 1.75s" />
    <circle cx="206.89655172413794" cy="343.2857042550204" r="4" fill="#e74c3c" class="data-point" style="animation-delay: 1.80s" />
    <circle cx="231.3793103448276" cy="342.51685156579134" r="4" fill="#e74c3c" class="data-point" style="animation-delay: 1.85s" />
    <circle cx="255.86206896551724" cy="341.7532649908721" r="4" fill="#e74c3c" class="data-point" style="animation-delay: 1.90s" />
    <circle cx="280.34482758620686" cy="340.58418761409916" r="4" fill="#e74c3c" class="data-point" style="animation-delay: 1.95s" />
    <circle cx="304.82758620689657" cy="339.694214295745" r="4" fill="#e74c3c" class="data-point" style="animation-delay: 2.00s" />
    <circle cx="329.3103448275862" cy="338.98328886392363" r="4" fill="#e74c3c" class="data-point" style="animation-delay: 2.05s" />
    <circle cx="353.7931034482759" cy="338.0511866310911" r="4" fill="#e74c3c" class="data-point" style="animation-delay: 2.10s" />
    <circle cx="378.2758620689655" cy="337.6298974863081" r="4" fill="#e74c3c" class="data-point" style="animation-delay: 2.15s" />
    <circle cx="402.7586206896552" cy="336.9295042831063" r="4" fill="#e74c3c" class="data-point" style="animation-delay: 2.20s" />
    <circle cx="427.2413793103448" cy="335.9710714787249" r="4" fill="#e74c3c" class="data-point" style="animation-delay: 2.25s" />
    <circle cx="451.7241379310345" cy="335.570846791181" r="4" fill="#e74c3c" class="data-point" style="animation-delay: 2.30s" />
    <circle cx="476.2068965517241" cy="335.049501474512" r="4" fill="#e74c3c" class="data-point" style="animation-delay: 2.35s" />
    <circle cx="500.6896551724138" cy="334.33330992838086" r="4" fill="#e74c3c" class="data-point" style="animation-delay: 2.40s" />
    <circle cx="525.1724137931035" cy="333.5644572391518" r="4" fill="#e74c3c" class="data-point" style="animation-delay: 2.45s" />
    <circle cx="549.6551724137931" cy="333.01678135093385" r="4" fill="#e74c3c" class="data-point" style="animation-delay: 2.50s" />
    <circle cx="574.1379310344828" cy="332.8219351214717" r="4" fill="#e74c3c" class="data-point" style="animation-delay: 2.55s" />
    <circle cx="598.6206896551724" cy="332.7324111782053" r="4" fill="#e74c3c" class="data-point" style="animation-delay: 2.60s" />
    <circle cx="623.1034482758621" cy="332.27952534756355" r="4" fill="#e74c3c" class="data-point" style="animation-delay: 2.65s" />
    <circle cx="647.5862068965517" cy="331.8687684314001" r="4" fill="#e74c3c" class="data-point" style="animation-delay: 2.70s" />
    <circle cx="672.0689655172414" cy="330.7628844263446" r="4" fill="#e74c3c" class="data-point" style="animation-delay: 2.75s" />
    <circle cx="696.551724137931" cy="330.45218368206713" r="4" fill="#e74c3c" class="data-point" style="animation-delay: 2.80s" />
    <circle cx="721.0344827586207" cy="330.1151523662407" r="4" fill="#e74c3c" class="data-point" style="animation-delay: 2.85s" />
    <circle cx="745.5172413793103" cy="329.9519028226373" r="4" fill="#e74c3c" class="data-point" style="animation-delay: 2.90s" />
    <circle cx="770" cy="329.70966156438703" r="4" fill="#e74c3c" class="data-point" style="animation-delay: 2.95s" />
    
    <circle cx="60" cy="350" r="4" fill="#3498db" class="data-point" style="animation-delay: 1.50s" />
    <circle cx="84.48275862068965" cy="350" r="4" fill="#3498db" class="data-point" style="animation-delay: 1.55s" />
    <circle cx="108.9655172413793" cy="350" r="4" fill="#3498db" class="data-point" style="animation-delay: 1.60s" />
    <circle cx="133.44827586206895" cy="350" r="4" fill="#3498db" class="data-point" style="animation-delay: 1.65s" />
    <circle cx="157.9310344827586" cy="350" r="4" fill="#3498db" class="data-point" style="animation-delay: 1.70s" />
    <circle cx="182.41379310344828" cy="350" r="4" fill="#3498db" class="data-point" style="animation-delay: 1.75s" />
    <circle cx="206.89655172413794" cy="350" r="4" fill="#3498db" class="data-point" style="animation-delay: 1.80s" />
    <circle cx="231.3793103448276" cy="350" r="4" fill="#3498db" class="data-point" style="animation-delay: 1.85s" />
    <circle cx="255.86206896551724" cy="349.96313719983146" r="4" fill="#3498db" class="data-point" style="animation-delay: 1.90s" />
    <circle cx="280.34482758620686" cy="348.2200533632917" r="4" fill="#3498db" class="data-point" style="animation-delay: 1.95s" />
    <circle cx="304.82758620689657" cy="347.4354023311333" r="4" fill="#3498db" class="data-point" style="animation-delay: 2.00s" />
    <circle cx="329.3103448275862" cy="346.94565370032296" r="4" fill="#3498db" class="data-point" style="animation-delay: 2.05s" />
    <circle cx="353.7931034482759" cy="346.6244207274259" r="4" fill="#3498db" class="data-point" style="animation-delay: 2.10s" />
    <circle cx="378.2758620689655" cy="346.26105884005057" r="4" fill="#3498db" class="data-point" style="animation-delay: 2.15s" />
    <circle cx="402.7586206896552" cy="345.8871647240556" r="4" fill="#3498db" class="data-point" style="animation-delay: 2.20s" />
    <circle cx="427.2413793103448" cy="343.617469456537" r="4" fill="#3498db" class="data-point" style="animation-delay: 2.25s" />
    <circle cx="451.7241379310345" cy="343.18564808313437" r="4" fill="#3498db" class="data-point" style="animation-delay: 2.30s" />
    <circle cx="476.2068965517241" cy="342.8591489959275" r="4" fill="#3498db" class="data-point" style="animation-delay: 2.35s" />
    <circle cx="500.6896551724138" cy="342.4273276225249" r="4" fill="#3498db" class="data-point" style="animation-delay: 2.40s" />
    <circle cx="525.1724137931035" cy="342.0586996208398" r="4" fill="#3498db" class="data-point" style="animation-delay: 2.45s" />
    <circle cx="549.6551724137931" cy="341.8111922482797" r="4" fill="#3498db" class="data-point" style="animation-delay: 2.50s" />
    <circle cx="574.1379310344828" cy="341.57421710433925" r="4" fill="#3498db" class="data-point" style="animation-delay: 2.55s" />
    <circle cx="598.6206896551724" cy="340.59471984271875" r="4" fill="#3498db" class="data-point" style="animation-delay: 2.60s" />
    <circle cx="623.1034482758621" cy="339.93645555399524" r="4" fill="#3498db" class="data-point" style="animation-delay: 2.65s" />
    <circle cx="647.5862068965517" cy="339.62048869540797" r="4" fill="#3498db" class="data-point" style="animation-delay: 2.70s" />
    <circle cx="672.0689655172414" cy="339.35191686560876" r="4" fill="#3498db" class="data-point" style="animation-delay: 2.75s" />
    <circle cx="696.551724137931" cy="339.1570706361466" r="4" fill="#3498db" class="data-point" style="animation-delay: 2.80s" />
    <circle cx="721.0344827586207" cy="338.9569582923747" r="4" fill="#3498db" class="data-point" style="animation-delay: 2.85s" />
    <circle cx="745.5172413793103" cy="338.7410476056734" r="4" fill="#3498db" class="data-point" style="animation-delay: 2.90s" />
    <circle cx="770" cy="338.54620137621123" r="4" fill="#3498db" class="data-point" style="animation-delay: 2.95s" />
    
    <circle cx="60" cy="350" r="4" fill="#9b59b6" class="data-point" style="animation-delay: 1.50s" />
    <circle cx="84.48275862068965" cy="349.9947338856902" r="4" fill="#9b59b6" class="data-point" style="animation-delay: 1.55s" />
    <circle cx="108.9655172413793" cy="349.96840331414126" r="4" fill="#9b59b6" class="data-point" style="animation-delay: 1.60s" />
    <circle cx="133.44827586206895" cy="349.926274399663" r="4" fill="#9b59b6" class="data-point" style="animation-delay: 1.65s" />
    <circle cx="157.9310344827586" cy="349.8736132565651" r="4" fill="#9b59b6" class="data-point" style="animation-delay: 1.70s" />
    <circle cx="182.41379310344828" cy="349.84201657070633" r="4" fill="#9b59b6" class="data-point" style="animation-delay: 1.75s" />
    <circle cx="206.89655172413794" cy="349.74722651313016" r="4" fill="#9b59b6" class="data-point" style="animation-delay: 1.80s" />
    <circle cx="231.3793103448276" cy="349.66296868417356" r="4" fill="#9b59b6" class="data-point" style="animation-delay: 1.85s" />
    <circle cx="255.86206896551724" cy="349.51551748349954" r="4" fill="#9b59b6" class="data-point" style="animation-delay: 1.90s" />
    <circle cx="280.34482758620686" cy="349.1205589102654" r="4" fill="#9b59b6" class="data-point" style="animation-delay: 1.95s" />
    <circle cx="304.82758620689657" cy="348.79932593736834" r="4" fill="#9b59b6" class="data-point" style="animation-delay: 2.00s" />
    <circle cx="329.3103448275862" cy="348.48862519309085" r="4" fill="#9b59b6" class="data-point" style="animation-delay: 2.05s" />
    <circle cx="353.7931034482759" cy="348.2516500491504" r="4" fill="#9b59b6" class="data-point" style="animation-delay: 2.10s" />
    <circle cx="378.2758620689655" cy="347.9936104479708" r="4" fill="#9b59b6" class="data-point" style="animation-delay: 2.15s" />
    <circle cx="402.7586206896552" cy="347.7829658755793" r="4" fill="#9b59b6" class="data-point" style="animation-delay: 2.20s" />
    <circle cx="427.2413793103448" cy="347.466999016992" r="4" fill="#9b59b6" class="data-point" style="animation-delay: 2.25s" />
    <circle cx="451.7241379310345" cy="347.14576604409496" r="4" fill="#9b59b6" class="data-point" style="animation-delay: 2.30s" />
    <circle cx="476.2068965517241" cy="346.8929925572251" r="4" fill="#9b59b6" class="data-point" style="animation-delay: 2.35s" />
    <circle cx="500.6896551724138" cy="346.5928240415672" r="4" fill="#9b59b6" class="data-point" style="animation-delay: 2.40s" />
    <circle cx="525.1724137931035" cy="346.0662126105884" r="4" fill="#9b59b6" class="data-point" style="animation-delay: 2.45s" />
    <circle cx="549.6551724137931" cy="345.6501895801151" r="4" fill="#9b59b6" class="data-point" style="animation-delay: 2.50s" />
    <circle cx="574.1379310344828" cy="345.1288442634461" r="4" fill="#9b59b6" class="data-point" style="animation-delay: 2.55s" />
    <circle cx="598.6206896551724" cy="344.2757337452605" r="4" fill="#9b59b6" class="data-point" style="animation-delay: 2.60s" />
    <circle cx="623.1034482758621" cy="343.4594860272434" r="4" fill="#9b59b6" class="data-point" style="animation-delay: 2.65s" />
    <circle cx="647.5862068965517" cy="342.0429012779104" r="4" fill="#9b59b6" class="data-point" style="animation-delay: 2.70s" />
    <circle cx="672.0689655172414" cy="341.5952815615784" r="4" fill="#9b59b6" class="data-point" style="animation-delay: 2.75s" />
    <circle cx="696.551724137931" cy="341.11079904507795" r="4" fill="#9b59b6" class="data-point" style="animation-delay: 2.80s" />
    <circle cx="721.0344827586207" cy="340.75796938632215" r="4" fill="#9b59b6" class="data-point" style="animation-delay: 2.85s" />
    <circle cx="745.5172413793103" cy="340.36301081308807" r="4" fill="#9b59b6" class="data-point" style="animation-delay: 2.90s" />
    <circle cx="770" cy="340.1365678977672" r="4" fill="#9b59b6" class="data-point" style="animation-delay: 2.95s" />
    
    <circle cx="60" cy="350" r="4" fill="#e67e22" class="data-point" style="animation-delay: 1.50s" />
    <circle cx="84.48275862068965" cy="350" r="4" fill="#e67e22" class="data-point" style="animation-delay: 1.55s" />
    <circle cx="108.9655172413793" cy="350" r="4" fill="#e67e22" class="data-point" style="animation-delay: 1.60s" />
    <circle cx="133.44827586206895" cy="350" r="4" fill="#e67e22" class="data-point" style="animation-delay: 1.65s" />
    <circle cx="157.9310344827586" cy="350" r="4" fill="#e67e22" class="data-point" style="animation-delay: 1.70s" />
    <circle cx="182.41379310344828" cy="350" r="4" fill="#e67e22" class="data-point" style="animation-delay: 1.75s" />
    <circle cx="206.89655172413794" cy="350" r="4" fill="#e67e22" class="data-point" style="animation-delay: 1.80s" />
    <circle cx="231.3793103448276" cy="350" r="4" fill="#e67e22" class="data-point" style="animation-delay: 1.85s" />
    <circle cx="255.86206896551724" cy="349.9947338856902" r="4" fill="#e67e22" class="data-point" style="animation-delay: 1.90s" />
    <circle cx="280.34482758620686" cy="349.8683471422553" r="4" fill="#e67e22" class="data-point" style="animation-delay: 1.95s" />
    <circle cx="304.82758620689657" cy="349.75775874174974" r="4" fill="#e67e22" class="data-point" style="animation-delay: 2.00s" />
    <circle cx="329.3103448275862" cy="349.66296868417356" r="4" fill="#e67e22" class="data-point" style="animation-delay: 2.05s" />
    <circle cx="353.7931034482759" cy="349.626105884005" r="4" fill="#e67e22" class="data-point" style="animation-delay: 2.10s" />
    <circle cx="378.2758620689655" cy="349.5681786265974" r="4" fill="#e67e22" class="data-point" style="animation-delay: 2.15s" />
    <circle cx="402.7586206896552" cy="349.44179188316247" r="4" fill="#e67e22" class="data-point" style="animation-delay: 2.20s" />
    <circle cx="427.2413793103448" cy="349.131091138885" r="4" fill="#e67e22" class="data-point" style="animation-delay: 2.25s" />
    <circle cx="451.7241379310345" cy="348.94151102373263" r="4" fill="#e67e22" class="data-point" style="animation-delay: 2.30s" />
    <circle cx="476.2068965517241" cy="348.6676730796236" r="4" fill="#e67e22" class="data-point" style="animation-delay: 2.35s" />
    <circle cx="500.6896551724138" cy="348.49915742171044" r="4" fill="#e67e22" class="data-point" style="animation-delay: 2.40s" />
    <circle cx="525.1724137931035" cy="348.235851706221" r="4" fill="#e67e22" class="data-point" style="animation-delay: 2.45s" />
    <circle cx="549.6551724137931" cy="348.0673360483078" r="4" fill="#e67e22" class="data-point" style="animation-delay: 2.50s" />
    <circle cx="574.1379310344828" cy="347.8514253616065" r="4" fill="#e67e22" class="data-point" style="animation-delay: 2.55s" />
    <circle cx="598.6206896551724" cy="347.5986518747367" r="4" fill="#e67e22" class="data-point" style="animation-delay: 2.60s" />
    <circle cx="623.1034482758621" cy="347.3511445021767" r="4" fill="#e67e22" class="data-point" style="animation-delay: 2.65s" />
    <circle cx="647.5862068965517" cy="347.09837101530684" r="4" fill="#e67e22" class="data-point" style="animation-delay: 2.70s" />
    <circle cx="672.0689655172414" cy="346.8982586715349" r="4" fill="#e67e22" class="data-point" style="animation-delay: 2.75s" />
    <circle cx="696.551724137931" cy="346.57175958432805" r="4" fill="#e67e22" class="data-point" style="animation-delay: 2.80s" />
    <circle cx="721.0344827586207" cy="346.4032439264148" r="4" fill="#e67e22" class="data-point" style="animation-delay: 2.85s" />
    <circle cx="745.5172413793103" cy="346.21366381126245" r="4" fill="#e67e22" class="data-point" style="animation-delay: 2.90s" />
    <circle cx="770" cy="346.0662126105884" r="4" fill="#e67e22" class="data-point" style="animation-delay: 2.95s" />
    
    <circle cx="60" cy="350" r="4" fill="#1abc9c" class="data-point" style="animation-delay: 1.50s" />
    <circle cx="84.48275862068965" cy="350" r="4" fill="#1abc9c" class="data-point" style="animation-delay: 1.55s" />
    <circle cx="108.9655172413793" cy="350" r="4" fill="#1abc9c" class="data-point" style="animation-delay: 1.60s" />
    <circle cx="133.44827586206895" cy="350" r="4" fill="#1abc9c" class="data-point" style="animation-delay: 1.65s" />
    <circle cx="157.9310344827586" cy="350" r="4" fill="#1abc9c" class="data-point" style="animation-delay: 1.70s" />
    <circle cx="182.41379310344828" cy="350" r="4" fill="#1abc9c" class="data-point" style="animation-delay: 1.75s" />
    <circle cx="206.89655172413794" cy="350" r="4" fill="#1abc9c" class="data-point" style="animation-delay: 1.80s" />
    <circle cx="231.3793103448276" cy="350" r="4" fill="#1abc9c" class="data-point" style="animation-delay: 1.85s" />
    <circle cx="255.86206896551724" cy="350" r="4" fill="#1abc9c" class="data-point" style="animation-delay: 1.90s" />
    <circle cx="280.34482758620686" cy="350" r="4" fill="#1abc9c" class="data-point" style="animation-delay: 1.95s" />
    <circle cx="304.82758620689657" cy="350" r="4" fill="#1abc9c" class="data-point" style="animation-delay: 2.00s" />
    <circle cx="329.3103448275862" cy="350" r="4" fill="#1abc9c" class="data-point" style="animation-delay: 2.05s" />
    <circle cx="353.7931034482759" cy="350" r="4" fill="#1abc9c" class="data-point" style="animation-delay: 2.10s" />
    <circle cx="378.2758620689655" cy="350" r="4" fill="#1abc9c" class="data-point" style="animation-delay: 2.15s" />
    <circle cx="402.7586206896552" cy="349.7735570846791" r="4" fill="#1abc9c" class="data-point" style="animation-delay: 2.20s" />
    <circle cx="427.2413793103448" cy="349.45232411178205" r="4" fill="#1abc9c" class="data-point" style="animation-delay: 2.25s" />
    <circle cx="451.7241379310345" cy="349.31013902541775" r="4" fill="#1abc9c" class="data-point" style="animation-delay: 2.30s" />
    <circle cx="476.2068965517241" cy="349.131091138885" r="4" fill="#1abc9c" class="data-point" style="animation-delay: 2.35s" />
    <circle cx="500.6896551724138" cy="348.99943828114027" r="4" fill="#1abc9c" class="data-point" style="animation-delay: 2.40s" />
    <circle cx="525.1724137931035" cy="348.8888498806347" r="4" fill="#1abc9c" class="data-point" style="animation-delay: 2.45s" />
    <circle cx="549.6551724137931" cy="348.7729953658194" r="4" fill="#1abc9c" class="data-point" style="animation-delay: 2.50s" />
    <circle cx="574.1379310344828" cy="348.6729391939334" r="4" fill="#1abc9c" class="data-point" style="animation-delay: 2.55s" />
    <circle cx="598.6206896551724" cy="348.54128633618876" r="4" fill="#1abc9c" class="data-point" style="animation-delay: 2.60s" />
    <circle cx="623.1034482758621" cy="348.3938351355147" r="4" fill="#1abc9c" class="data-point" style="animation-delay: 2.65s" />
    <circle cx="647.5862068965517" cy="348.2990450779385" r="4" fill="#1abc9c" class="data-point" style="animation-delay: 2.70s" />
    <circle cx="672.0689655172414" cy="348.2042550203623" r="4" fill="#1abc9c" class="data-point" style="animation-delay: 2.75s" />
    <circle cx="696.551724137931" cy="348.14106164864484" r="4" fill="#1abc9c" class="data-point" style="animation-delay: 2.80s" />
    <circle cx="721.0344827586207" cy="348.0778682769274" r="4" fill="#1abc9c" class="data-point" style="animation-delay: 2.85s" />
    <circle cx="745.5172413793103" cy="348.0041426765904" r="4" fill="#1abc9c" class="data-point" style="animation-delay: 2.90s" />
    <circle cx="770" cy="347.92515096194353" r="4" fill="#1abc9c" class="data-point" style="animation-delay: 2.95s" />
    
    <circle cx="60" cy="350" r="4" fill="#e84393" class="data-point" style="animation-delay: 1.50s" />
    <circle cx="84.48275862068965" cy="350" r="4" fill="#e84393" class="data-point" style="animation-delay: 1.55s" />
    <circle cx="108.9655172413793" cy="350" r="4" fill="#e84393" class="data-point" style="animation-delay: 1.60s" />
    <circle cx="133.44827586206895" cy="350" r="4" fill="#e84393" class="data-point" style="animation-delay: 1.65s" />
    <circle cx="157.9310344827586" cy="350" r="4" fill="#e84393" class="data-point" style="animation-delay: 1.70s" />
    <circle cx="182.41379310344828" cy="350" r="4" fill="#e84393" class="data-point" style="animation-delay: 1.75s" />
    <circle cx="206.89655172413794" cy="350" r="4" fill="#e84393" class="data-point" style="animation-delay: 1.80s" />
    <circle cx="231.3793103448276" cy="350" r="4" fill="#e84393" class="data-point" style="animation-delay: 1.85s" />
    <circle cx="255.86206896551724" cy="350" r="4" fill="#e84393" class="data-point" style="animation-delay: 1.90s" />
    <circle cx="280.34482758620686" cy="350" r="4" fill="#e84393" class="data-point" style="animation-delay: 1.95s" />
    <circle cx="304.82758620689657" cy="350" r="4" fill="#e84393" class="data-point" style="animation-delay: 2.00s" />
    <circle cx="329.3103448275862" cy="350" r="4" fill="#e84393" class="data-point" style="animation-delay: 2.05s" />
    <circle cx="353.7931034482759" cy="350" r="4" fill="#e84393" class="data-point" style="animation-delay: 2.10s" />
    <circle cx="378.2758620689655" cy="350" r="4" fill="#e84393" class="data-point" style="animation-delay: 2.15s" />
    <circle cx="402.7586206896552" cy="350" r="4" fill="#e84393" class="data-point" style="animation-delay: 2.20s" />
    <circle cx="427.2413793103448" cy="350" r="4" fill="#e84393" class="data-point" style="animation-delay: 2.25s" />
    <circle cx="451.7241379310345" cy="350" r="4" fill="#e84393" class="data-point" style="animation-delay: 2.30s" />
    <circle cx="476.2068965517241" cy="350" r="4" fill="#e84393" class="data-point" style="animation-delay: 2.35s" />
    <circle cx="500.6896551724138" cy="350" r="4" fill="#e84393" class="data-point" style="animation-delay: 2.40s" />
    <circle cx="525.1724137931035" cy="350" r="4" fill="#e84393" class="data-point" style="animation-delay: 2.45s" />
    <circle cx="549.6551724137931" cy="350" r="4" fill="#e84393" class="data-point" style="animation-delay: 2.50s" />
    <circle cx="574.1379310344828" cy="350" r="4" fill="#e84393" class="data-point" style="animation-delay: 2.55s" />
    <circle cx="598.6206896551724" cy="350" r="4" fill="#e84393" class="data-point" style="animation-delay: 2.60s" />
    <circle cx="623.1034482758621" cy="350" r="4" fill="#e84393" class="data-point" style="animation-delay: 2.65s" />
    <circle cx="647.5862068965517" cy="350" r="4" fill="#e84393" class="data-point" style="animation-delay: 2.70s" />
    <circle cx="672.0689655172414" cy="350" r="4" fill="#e84393" class="data-point" style="animation-delay: 2.75s" />
    <circle cx="696.551724137931" cy="350" r="4" fill="#e84393" class="data-point" style="animation-delay: 2.80s" />
    <circle cx="721.0344827586207" cy="350" r="4" fill="#e84393" class="data-point" style="animation-delay: 2.85s" />
    <circle cx="745.5172413793103" cy="350" r="4" fill="#e84393" class="data-point" style="animation-delay: 2.90s" />
    <circle cx="770" cy="348.79932593736834" r="4" fill="#e84393" class="data-point" style="animation-delay: 2.95s" />
    
    <circle cx="60" cy="350" r="4" fill="#795548" class="data-point" style="animation-delay: 1.50s" />
    <circle cx="84.48275862068965" cy="350" r="4" fill="#795548" class="data-point" style="animation-delay: 1.55s" />
    <circle cx="108.9655172413793" cy="350" r="4" fill="#795548" class="data-point" style="animation-delay: 1.60s" />
    <circle cx="133.44827586206895" cy="350" r="4" fill="#795548" class="data-point" style="animation-delay: 1.65s" />
    <circle cx="157.9310344827586" cy="350" r="4" fill="#795548" class="data-point" style="animation-delay: 1.70s" />
    <circle cx="182.41379310344828" cy="350" r="4" fill="#795548" class="data-point" style="animation-delay: 1.75s" />
    <circle cx="206.89655172413794" cy="350" r="4" fill="#795548" class="data-point" style="animation-delay: 1.80s" />
    <circle cx="231.3793103448276" cy="350" r="4" fill="#795548" class="data-point" style="animation-delay: 1.85s" />
    <circle cx="255.86206896551724" cy="350" r="4" fill="#795548" class="data-point" style="animation-delay: 1.90s" />
    <circle cx="280.34482758620686" cy="350" r="4" fill="#795548" class="data-point" style="animation-delay: 1.95s" />
    <circle cx="304.82758620689657" cy="350" r="4" fill="#795548" class="data-point" style="animation-delay: 2.00s" />
    <circle cx="329.3103448275862" cy="350" r="4" fill="#795548" class="data-point" style="animation-delay: 2.05s" />
    <circle cx="353.7931034482759" cy="350" r="4" fill="#795548" class="data-point" style="animation-delay: 2.10s" />
    <circle cx="378.2758620689655" cy="350" r="4" fill="#795548" class="data-point" style="animation-delay: 2.15s" />
    <circle cx="402.7586206896552" cy="350" r="4" fill="#795548" class="data-point" style="animation-delay: 2.20s" />
    <circle cx="427.2413793103448" cy="349.9052099424238" r="4" fill="#795548" class="data-point" style="animation-delay: 2.25s" />
    <circle cx="451.7241379310345" cy="349.84201657070633" r="4" fill="#795548" class="data-point" style="animation-delay: 2.30s" />
    <circle cx="476.2068965517241" cy="349.7735570846791" r="4" fill="#795548" class="data-point" style="animation-delay: 2.35s" />
    <circle cx="500.6896551724138" cy="349.7050975986519" r="4" fill="#795548" class="data-point" style="animation-delay: 2.40s" />
    <circle cx="525.1724137931035" cy="349.6366381126246" r="4" fill="#795548" class="data-point" style="animation-delay: 2.45s" />
    <circle cx="549.6551724137931" cy="349.58924308383655" r="4" fill="#795548" class="data-point" style="animation-delay: 2.50s" />
    <circle cx="574.1379310344828" cy="349.51025136918975" r="4" fill="#795548" class="data-point" style="animation-delay: 2.55s" />
    <circle cx="598.6206896551724" cy="349.4312596545429" r="4" fill="#795548" class="data-point" style="animation-delay: 2.60s" />
    <circle cx="623.1034482758621" cy="349.3364695969667" r="4" fill="#795548" class="data-point" style="animation-delay: 2.65s" />
    <circle cx="647.5862068965517" cy="349.27854233955907" r="4" fill="#795548" class="data-point" style="animation-delay: 2.70s" />
    <circle cx="672.0689655172414" cy="349.07316388147734" r="4" fill="#795548" class="data-point" style="animation-delay: 2.75s" />
    <circle cx="696.551724137931" cy="348.9889060525207" r="4" fill="#795548" class="data-point" style="animation-delay: 2.80s" />
    <circle cx="721.0344827586207" cy="348.9625754809718" r="4" fill="#795548" class="data-point" style="animation-delay: 2.85s" />
    <circle cx="745.5172413793103" cy="348.93097879511305" r="4" fill="#795548" class="data-point" style="animation-delay: 2.90s" />
    <circle cx="770" cy="348.8888498806347" r="4" fill="#795548" class="data-point" style="animation-delay: 2.95s" />
    
    <circle cx="60" cy="350" r="4" fill="#00bcd4" class="data-point" style="animation-delay: 1.50s" />
    <circle cx="84.48275862068965" cy="350" r="4" fill="#00bcd4" class="data-point" style="animation-delay: 1.55s" />
    <circle cx="108.9655172413793" cy="350" r="4" fill="#00bcd4" class="data-point" style="animation-delay: 1.60s" />
    <circle cx="133.44827586206895" cy="350" r="4" fill="#00bcd4" class="data-point" style="animation-delay: 1.65s" />
    <circle cx="157.9310344827586" cy="350" r="4" fill="#00bcd4" class="data-point" style="animation-delay: 1.70s" />
    <circle cx="182.41379310344828" cy="350" r="4" fill="#00bcd4" class="data-point" style="animation-delay: 1.75s" />
    <circle cx="206.89655172413794" cy="350" r="4" fill="#00bcd4" class="data-point" style="animation-delay: 1.80s" />
    <circle cx="231.3793103448276" cy="349.9842016570706" r="4" fill="#00bcd4" class="data-point" style="animation-delay: 1.85s" />
    <circle cx="255.86206896551724" cy="349.9842016570706" r="4" fill="#00bcd4" class="data-point" style="animation-delay: 1.90s" />
    <circle cx="280.34482758620686" cy="349.9526049712119" r="4" fill="#00bcd4" class="data-point" style="animation-delay: 1.95s" />
    <circle cx="304.82758620689657" cy="349.9052099424238" r="4" fill="#00bcd4" class="data-point" style="animation-delay: 2.00s" />
    <circle cx="329.3103448275862" cy="349.87887937087487" r="4" fill="#00bcd4" class="data-point" style="animation-delay: 2.05s" />
    <circle cx="353.7931034482759" cy="349.8683471422553" r="4" fill="#00bcd4" class="data-point" style="animation-delay: 2.10s" />
    <circle cx="378.2758620689655" cy="349.84201657070633" r="4" fill="#00bcd4" class="data-point" style="animation-delay: 2.15s" />
    <circle cx="402.7586206896552" cy="349.8314843420868" r="4" fill="#00bcd4" class="data-point" style="animation-delay: 2.20s" />
    <circle cx="427.2413793103448" cy="349.76302485605953" r="4" fill="#00bcd4" class="data-point" style="animation-delay: 2.25s" />
    <circle cx="451.7241379310345" cy="349.72089594158126" r="4" fill="#00bcd4" class="data-point" style="animation-delay: 2.30s" />
    <circle cx="476.2068965517241" cy="349.66823479848335" r="4" fill="#00bcd4" class="data-point" style="animation-delay: 2.35s" />
    <circle cx="500.6896551724138" cy="349.6313719983148" r="4" fill="#00bcd4" class="data-point" style="animation-delay: 2.40s" />
    <circle cx="525.1724137931035" cy="349.5629125122876" r="4" fill="#00bcd4" class="data-point" style="animation-delay: 2.45s" />
    <circle cx="549.6551724137931" cy="349.53658194073864" r="4" fill="#00bcd4" class="data-point" style="animation-delay: 2.50s" />
    <circle cx="574.1379310344828" cy="349.44705799747226" r="4" fill="#00bcd4" class="data-point" style="animation-delay: 2.55s" />
    <circle cx="598.6206896551724" cy="349.35753405420587" r="4" fill="#00bcd4" class="data-point" style="animation-delay: 2.60s" />
    <circle cx="623.1034482758621" cy="349.24167953939053" r="4" fill="#00bcd4" class="data-point" style="animation-delay: 2.65s" />
    <circle cx="647.5862068965517" cy="349.1995506249122" r="4" fill="#00bcd4" class="data-point" style="animation-delay: 2.70s" />
    <circle cx="672.0689655172414" cy="349.1626878247437" r="4" fill="#00bcd4" class="data-point" style="animation-delay: 2.75s" />
    <circle cx="696.551724137931" cy="349.09422833871645" r="4" fill="#00bcd4" class="data-point" style="animation-delay: 2.80s" />
    <circle cx="721.0344827586207" cy="349.02050273837943" r="4" fill="#00bcd4" class="data-point" style="animation-delay: 2.85s" />
    <circle cx="745.5172413793103" cy="348.9731077095914" r="4" fill="#00bcd4" class="data-point" style="animation-delay: 2.90s" />
    <circle cx="770" cy="348.92571268080326" r="4" fill="#00bcd4" class="data-point" style="animation-delay: 2.95s" />
  </g>
</svg>