<svg xmlns="http://www.w3.org/2000/svg" viewBox="0 0 800 400" width="800" height="400">
  <style>
    @keyframes drawLine {
      to { stroke-dashoffset: 0; }
    }
    @keyframes fadeInPoint {
      from { opacity: 0; }
      to { opacity: 1; }
    }
    .data-line-0 {
      stroke-dasharray: 1212;
      stroke-dashoffset: 1212;
      animation: drawLine 2s ease-out forwards;
    }
    .data-line-1 {
      stroke-dasharray: 1118;
      stroke-dashoffset: 1118;
      animation: drawLine 2s ease-out forwards;
    }
    .data-line-2 {
      stroke-dasharray: 1066;
      stroke-dashoffset: 1066;
      animation: drawLine 2s ease-out forwards;
    }
    .data-line-3 {
      stroke-dasharray: 1066;
      stroke-dashoffset: 1066;
      animation: drawLine 2s ease-out forwards;
    }
    .data-line-4 {
      stroke-dasharray: 1066;
      stroke-dashoffset: 1066;
      animation: drawLine 2s ease-out forwards;
    }
    .data-line-5 {
      stroke-dasharray: 1066;
      stroke-dashoffset: 1066;
      animation: drawLine 2s ease-out forwards;
    }
    .data-line-6 {
      stroke-dasharray: 1066;
      stroke-dashoffset: 1066;
      animation: drawLine 2s ease-out forwards;
    }
    .data-line-7 {
      stroke-dasharray: 1066;
      stroke-dashoffset: 1066;
      animation: drawLine 2s ease-out forwards;
    }
    .data-line-8 {
      stroke-dasharray: 1066;
      stroke-dashoffset: 1066;
      animation: drawLine 2s ease-out forwards;
    }
    .data-line-9 {
      stroke-dasharray: 1066;
      stroke-dashoffset: 1066;
      animation: drawLine 2s ease-out forwards;
    }
    .data-point {
      opacity: 0;
      animation: fadeInPoint 0.5s ease-out forwards;
    }
    .chart-bg { fill: #fff; }
    .chart-text { fill: #24292e; }
    .chart-muted { fill: #6a737d; }
    .chart-grid { stroke: #eee; }
    .chart-axis { stroke: #6a737d; }
    @media (prefers-color-scheme: dark) {
      .chart-bg { fill: #0d1117; }
      .chart-text { fill: #e6edf3; }
      .chart-muted { fill: #8b949e; }
      .chart-grid { stroke: #21262d; }
      .chart-axis { stroke: #8b949e; }
    }
  </style>
  <rect width="800" height="400" class="chart-bg" />
  <text x="400" y="14" text-anchor="middle" class="chart-text" font-size="16" font-weight="bold" font-family="-apple-system, BlinkMacSystemFont, 'Segoe UI', Helvetica, Arial, sans-serif">Top Repositories</text>
  <g class="legend">
    <rect x="-200" y="31" width="12" height="3" fill="#dfb317" />
    <line x1="-200" y1="32.5" x2="-188" y2="32.5" stroke="#dfb317" stroke-width="2" />
    <text x="-184" y="36" class="chart-text" font-size="10" font-family="-apple-system, BlinkMacSystemFont, 'Segoe UI', Helvetica, Arial, sans-serif">dockur/windows</text>
    <rect x="-80" y="31" width="12" height="3" fill="#28a745" />
    <line x1="-80" y1="32.5" x2="-68" y2="32.5" stroke="#28a745" stroke-width="2" />
    <text x="-64" y="36" class="chart-text" font-size="10" font-family="-apple-system, BlinkMacSystemFont, 'Segoe UI', Helvetica, Arial, sans-serif">dockur/macos</text>
    <rect x="40" y="31" width="12" height="3" fill="#e74c3c" />
    <line x1="40" y1="32.5" x2="52" y2="32.5" stroke="#e74c3c" stroke-width="2" />
    <text x="56" y="36" class="chart-text" font-size="10" font-family="-apple-system, BlinkMacSystemFont, 'Segoe UI', Helvetica, Arial, sans-serif">vdsm/virtual-dsm</text>
    <rect x="160" y="31" width="12" height="3" fill="#3498db" />
    <line x1="160" y1="32.5" x2="172" y2="32.5" stroke="#3498db" stroke-width="2" />
    <text x="176" y="36" class="chart-text" font-size="10" font-family="-apple-system, BlinkMacSystemFont, 'Segoe UI', Helvetica, Arial, sans-serif">dockur/windows-arm</text>
    <rect x="280" y="31" width="12" height="3" fill="#9b59b6" />
    <line x1="280" y1="32.5" x2="292" y2="32.5" stroke="#9b59b6" stroke-width="2" />
    <text x="296" y="36" class="chart-text" font-size="10" font-family="-apple-system, BlinkMacSystemFont, 'Segoe UI', Helvetica, Arial, sans-serif">qemus/qemu</text>
    <rect x="400" y="31" width="12" height="3" fill="#e67e22" />
    <line x1="400" y1="32.5" x2="412" y2="32.5" stroke="#e67e22" stroke-width="2" />
    <text x="416" y="36" class="chart-text" font-size="10" font-family="-apple-system, BlinkMacSystemFont, 'Segoe UI', Helvetica, Arial, sans-serif">dockur/samba</text>
    <rect x="520" y="31" width="12" height="3" fill="#1abc9c" />
    <line x1="520" y1="32.5" x2="532" y2="32.5" stroke="#1abc9c" stroke-width="2" />
    <text x="536" y="36" class="chart-text" font-size="10" font-family="-apple-system, BlinkMacSystemFont, 'Segoe UI', Helvetica, Arial, sans-serif">dockur/umbrel</text>
    <rect x="640" y="31" width="12" height="3" fill="#e84393" />
    <line x1="640" y1="32.5" x2="652" y2="32.5" stroke="#e84393" stroke-width="2" />
    <text x="656" y="36" class="chart-text" font-size="10" font-family="-apple-system, BlinkMacSystemFont, 'Segoe UI', Helvetica, Arial, sans-serif">dockur/proxmox</text>
    <rect x="760" y="31" width="12" height="3" fill="#795548" />
    <line x1="760" y1="32.5" x2="772" y2="32.5" stroke="#795548" stroke-width="2" />
    <text x="776" y="36" class="chart-text" font-size="10" font-family="-apple-system, BlinkMacSystemFont, 'Segoe UI', Helvetica, Arial, sans-serif">dockur/casa</text>
    <rect x="880" y="31" width="12" height="3" fill="#00bcd4" />
    <line x1="880" y1="32.5" x2="892" y2="32.5" stroke="#00bcd4" stroke-width="2" />
    <text x="896" y="36" class="chart-text" font-size="10" font-family="-apple-system, BlinkMacSystemFont, 'Segoe UI', Helvetica, Arial, sans-serif">dockur/tor</text>
  </g>
  <g class="grid">
    <line x1="60" y1="350" x2="770" y2="350" class="chart-grid" stroke-opacity="0.3" />
    <text x="778" y="354" text-anchor="start" class="chart-muted" font-size="11" font-family="-apple-system, BlinkMacSystemFont, 'Segoe UI', Helvetica, Arial, sans-serif">0</text>
    <line x1="60" y1="300" x2="770" y2="300" class="chart-grid" stroke-opacity="0.3" />
    <text x="778" y="304" text-anchor="start" class="chart-muted" font-size="11" font-family="-apple-system, BlinkMacSystemFont, 'Segoe UI', Helvetica, Arial, sans-serif">10K</text>
    <line x1="60" y1="250" x2="770" y2="250" class="chart-grid" stroke-opacity="0.3" />
    <text x="778" y="254" text-anchor="start" class="chart-muted" font-size="11" font-family="-apple-system, BlinkMacSystemFont, 'Segoe UI', Helvetica, Arial, sans-serif">20K</text>
    <line x1="60" y1="200" x2="770" y2="200" class="chart-grid" stroke-opacity="0.3" />
    <text x="778" y="204" text-anchor="start" class="chart-muted" font-size="11" font-family="-apple-system, BlinkMacSystemFont, 'Segoe UI', Helvetica, Arial, sans-serif">30K</text>
    <line x1="60" y1="150" x2="770" y2="150" class="chart-grid" stroke-opacity="0.3" />
    <text x="778" y="154" text-anchor="start" class="chart-muted" font-size="11" font-family="-apple-system, BlinkMacSystemFont, 'Segoe UI', Helvetica, Arial, sans-serif">40K</text>
    <line x1="60" y1="100" x2="770" y2="100" class="chart-grid" stroke-opacity="0.3" />
    <text x="778" y="104" text-anchor="start" class="chart-muted" font-size="11" font-family="-apple-system, BlinkMacSystemFont, 'Segoe UI', Helvetica, Arial, sans-serif">50K</text>
    <line x1="60" y1="50" x2="770" y2="50" class="chart-grid" stroke-opacity="0.3" />
    <text x="778" y="54" text-anchor="start" class="chart-muted" font-size="11" font-family="-apple-system, BlinkMacSystemFont, 'Segoe UI', Helvetica, Arial, sans-serif">60K</text>
  </g>
  <g class="milestones">
    
  </g>
  <g class="x-axis">
    <text x="60" y="370" text-anchor="middle" class="chart-muted" font-size="11" font-family="-apple-system, BlinkMacSystemFont, 'Segoe UI', Helvetica, Arial, sans-serif">2023</text>
    <text x="231.3793103448276" y="370" text-anchor="middle" class="chart-muted" font-size="11" font-family="-apple-system, BlinkMacSystemFont, 'Segoe UI', Helvetica, Arial, sans-serif">2024</text>
    <text x="451.7241379310345" y="370" text-anchor="middle" class="chart-muted" font-size="11" font-family="-apple-system, BlinkMacSystemFont, 'Segoe UI', Helvetica, Arial, sans-serif">2025</text>
    <text x="672.0689655172414" y="370" text-anchor="middle" class="chart-muted" font-size="11" font-family="-apple-system, BlinkMacSystemFont, 'Segoe UI', Helvetica, Arial, sans-serif">2026</text>
  </g>
  <line x1="770" y1="50" x2="770" y2="350" class="chart-axis" stroke-width="1" />
  <line x1="60" y1="350" x2="770" y2="350" class="chart-axis" stroke-width="1" />
  
  
  
  
  
  
  
  
  
  
  <path d="M60,350 C68.16091954022988,350 76.32183908045977,350 84.48275862068965,350 C92.64367816091954,350 100.80459770114942,350 108.9655172413793,350 C117.12643678160919,350 125.28735632183907,350 133.44827586206895,350 C141.60919540229884,350 149.77011494252872,350 157.9310344827586,350 C166.0919540229885,350 174.2528735632184,350 182.41379310344828,350 C190.57471264367817,350 198.73563218390805,350 206.89655172413794,350 C215.05747126436782,350 223.2183908045977,350 231.3793103448276,350 C239.54022988505747,350 247.70114942528735,350 255.86206896551724,343.335 C264.0229885057471,336.66999999999996 272.183908045977,306.665 280.34482758620686,296.665 C288.50574712643675,286.665 296.6666666666667,286.6683333333333 304.82758620689657,283.335 C312.98850574712645,280.00166666666667 321.14942528735634,278.88750000000005 329.3103448275862,276.665 C337.4712643678161,274.4425 345.632183908046,270 353.7931034482759,270 C361.95402298850576,270 370.11494252873564,270 378.2758620689655,270 C386.4367816091954,270 394.5977011494253,270 402.7586206896552,263.33500000000004 C410.91954022988506,256.6700000000001 419.08045977011494,209.8754542404266 427.2413793103448,203.335 C435.4022988505747,196.79454575957342 443.5632183908046,197.9731889499938 451.7241379310345,196.665 C459.88505747126436,195.35681105000617 468.04597701149424,192.22166666666666 476.2068965517241,190 C484.367816091954,187.77833333333334 492.5287356321839,183.335 500.6896551724138,183.335 C508.85057471264366,183.335 517.0114942528736,183.335 525.1724137931035,183.335 C533.3333333333334,183.335 541.4942528735633,178.8875 549.6551724137931,176.665 C557.816091954023,174.4425 565.9770114942529,174.44416666666666 574.1379310344828,170 C582.2988505747127,165.55583333333334 590.4597701149426,154.79 598.6206896551724,150 C606.7816091954023,145.21 614.9425287356322,144.17333333333335 623.1034482758621,141.26000000000002 C631.264367816092,138.3466666666667 639.4252873563219,135.43333333333334 647.5862068965517,132.52 C655.7471264367816,129.60666666666668 663.9080459770115,126.69333333333334 672.0689655172414,123.78 C680.2298850574713,120.86666666666666 688.3908045977012,117.95333333333333 696.551724137931,115.03999999999999 C704.7126436781609,112.12666666666665 712.8735632183908,109.21333333333331 721.0344827586207,106.29999999999998 C729.1954022988506,103.38666666666666 737.3563218390805,100.47333333333333 745.5172413793103,97.56 C753.6781609195402,94.64666666666668 761.8390804597701,91.73333333333333 770,88.82" fill="none" stroke="#dfb317" stroke-width="2.5" class="data-line-0" />
  <path d="M60,350 C68.16091954022988,350 76.32183908045977,350 84.48275862068965,350 C92.64367816091954,350 100.80459770114942,350 108.9655172413793,350 C117.12643678160919,350 125.28735632183907,350 133.44827586206895,350 C141.60919540229884,350 149.77011494252872,350 157.9310344827586,350 C166.0919540229885,350 174.2528735632184,350 182.41379310344828,350 C190.57471264367817,350 198.73563218390805,350 206.89655172413794,350 C215.05747126436782,350 223.2183908045977,350 231.3793103448276,350 C239.54022988505747,350 247.70114942528735,350 255.86206896551724,350 C264.0229885057471,350 272.183908045977,350 280.34482758620686,350 C288.50574712643675,350 296.6666666666667,350 304.82758620689657,350 C312.98850574712645,350 321.14942528735634,346.48 329.3103448275862,346.48 C337.4712643678161,346.48 345.632183908046,346.48 353.7931034482759,346.48 C361.95402298850576,346.48 370.11494252873564,346.48 378.2758620689655,346.48 C386.4367816091954,346.48 394.5977011494253,346.48 402.7586206896552,346.2 C410.91954022988506,345.91999999999996 419.08045977011494,307.68381176195874 427.2413793103448,304.255 C435.4022988505747,300.82618823804125 443.5632183908046,301.5310212943468 451.7241379310345,300.735 C459.88505747126436,299.93897870565326 468.04597701149424,293.7 476.2068965517241,293.7 C484.367816091954,293.7 492.5287356321839,293.7 500.6896551724138,293.7 C508.85057471264366,293.7 517.0114942528736,290.18 525.1724137931035,290.18 C533.3333333333334,290.18 541.4942528735633,290.18 549.6551724137931,290.18 C557.816091954023,290.18 565.9770114942529,273.33267433887596 574.1379310344828,269.525 C582.2988505747127,265.717325661124 590.4597701149426,266.70345419808706 598.6206896551724,265.54499999999996 C606.7816091954023,264.38654580191286 614.9425287356322,262.2926173058137 623.1034482758621,262.03 C631.264367816092,261.76738269418627 639.4252873563219,261.9138663866833 647.5862068965517,261.675 C655.7471264367816,261.4361336133167 663.9080459770115,259.62416666666667 672.0689655172414,258.51 C680.2298850574713,257.3958333333333 688.3908045977012,256.16333333333336 696.551724137931,254.99 C704.7126436781609,253.81666666666666 712.8735632183908,252.6425 721.0344827586207,251.47 C729.1954022988506,250.29749999999999 737.3563218390805,248.46768878269097 745.5172413793103,247.95499999999998 C753.6781609195402,247.442311217309 761.8390804597701,247.559351077788 770,247.425" fill="none" stroke="#28a745" stroke-width="2.5" class="data-line-1" />
  <path d="M60,349.995 C68.16091954022988,349.3233333333333 76.32183908045977,348.34201428704574 84.48275862068965,347.98 C92.64367816091954,347.6179857129543 100.80459770114942,347.8202206171256 108.9655172413793,347.49 C117.12643678160919,347.15977938287443 125.28735632183907,346.14416666666665 133.44827586206895,345.695 C141.60919540229884,345.24583333333334 149.77011494252872,345.05583333333334 157.9310344827586,344.795 C166.0919540229885,344.5341666666667 174.2528735632184,344.3258333333333 182.41379310344828,344.13 C190.57471264367817,343.93416666666667 198.73563218390805,343.825 206.89655172413794,343.62 C215.05747126436782,343.415 223.2183908045977,343.1408333333333 231.3793103448276,342.9 C239.54022988505747,342.65916666666664 247.70114942528735,342.49916666666667 255.86206896551724,342.175 C264.0229885057471,341.85083333333336 272.183908045977,341.28166666666664 280.34482758620686,340.955 C288.50574712643675,340.62833333333333 296.6666666666667,340.45666666666665 304.82758620689657,340.215 C312.98850574712645,339.9733333333333 321.14942528735634,339.7675 329.3103448275862,339.505 C337.4712643678161,339.2425 345.632183908046,338.84749999999997 353.7931034482759,338.64 C361.95402298850576,338.4325 370.11494252873564,338.45166666666665 378.2758620689655,338.26 C386.4367816091954,338.0683333333333 394.5977011494253,337.7575 402.7586206896552,337.49 C410.91954022988506,337.2225 419.08045977011494,336.85249999999996 427.2413793103448,336.655 C435.4022988505747,336.4575 443.5632183908046,336.45666666666665 451.7241379310345,336.305 C459.88505747126436,336.15333333333336 468.04597701149424,335.9458333333333 476.2068965517241,335.745 C484.367816091954,335.5441666666667 492.5287356321839,335.3308333333334 500.6896551724138,335.1 C508.85057471264366,334.8691666666667 517.0114942528736,334.56583333333333 525.1724137931035,334.36 C533.3333333333334,334.1541666666667 541.4942528735633,333.97583333333336 549.6551724137931,333.865 C557.816091954023,333.75416666666666 565.9770114942529,333.745 574.1379310344828,333.695 C582.2988505747127,333.645 590.4597701149426,333.6591666666667 598.6206896551724,333.565 C606.7816091954023,333.4708333333333 614.9425287356322,333.2625 623.1034482758621,333.13 C631.264367816092,332.9975 639.4252873563219,333.00166666666667 647.5862068965517,332.77 C655.7471264367816,332.5383333333333 663.9080459770115,331.97833333333335 672.0689655172414,331.74 C680.2298850574713,331.50166666666667 688.3908045977012,331.4458333333333 696.551724137931,331.34 C704.7126436781609,331.2341666666666 712.8735632183908,331.17083333333335 721.0344827586207,331.105 C729.1954022988506,331.0391666666667 737.3563218390805,331.01 745.5172413793103,330.945 C753.6781609195402,330.88 761.8390804597701,330.79166666666663 770,330.715" fill="none" stroke="#e74c3c" stroke-width="2.5" class="data-line-2" />
  <path d="M60,350 C68.16091954022988,350 76.32183908045977,350 84.48275862068965,350 C92.64367816091954,350 100.80459770114942,350 108.9655172413793,350 C117.12643678160919,350 125.28735632183907,350 133.44827586206895,350 C141.60919540229884,350 149.77011494252872,350 157.9310344827586,350 C166.0919540229885,350 174.2528735632184,350 182.41379310344828,350 C190.57471264367817,350 198.73563218390805,350 206.89655172413794,350 C215.05747126436782,350 223.2183908045977,350 231.3793103448276,350 C239.54022988505747,350 247.70114942528735,350 255.86206896551724,349.965 C264.0229885057471,349.92999999999995 272.183908045977,348.66749999999996 280.34482758620686,348.265 C288.50574712643675,347.8625 296.6666666666667,347.74833333333333 304.82758620689657,347.55 C312.98850574712645,347.3516666666667 321.14942528735634,347.2058333333333 329.3103448275862,347.075 C337.4712643678161,346.94416666666666 345.632183908046,346.87333333333333 353.7931034482759,346.765 C361.95402298850576,346.65666666666664 370.11494252873564,346.52515543773893 378.2758620689655,346.425 C386.4367816091954,346.3248445622611 394.5977011494253,346.41118659195894 402.7586206896552,346.055 C410.91954022988506,345.6988134080411 419.08045977011494,344.2752712910261 427.2413793103448,343.9 C435.4022988505747,343.52472870897384 443.5632183908046,343.61616712359086 451.7241379310345,343.51 C459.88505747126436,343.4038328764091 468.04597701149424,343.30333333333334 476.2068965517241,343.18 C484.367816091954,343.0566666666667 492.5287356321839,342.89416666666665 500.6896551724138,342.77 C508.85057471264366,342.6458333333333 517.0114942528736,342.52750000000003 525.1724137931035,342.435 C533.3333333333334,342.34250000000003 541.4942528735633,342.2908333333333 549.6551724137931,342.215 C557.816091954023,342.13916666666665 565.9770114942529,342.1825 574.1379310344828,341.98 C582.2988505747127,341.77750000000003 590.4597701149426,341.26166666666666 598.6206896551724,341 C606.7816091954023,340.73833333333334 614.9425287356322,340.55916666666667 623.1034482758621,340.41 C631.264367816092,340.2608333333334 639.4252873563219,340.1958333333333 647.5862068965517,340.105 C655.7471264367816,340.0141666666667 663.9080459770115,339.9375 672.0689655172414,339.865 C680.2298850574713,339.7925 688.3908045977012,339.73083333333335 696.551724137931,339.67 C704.7126436781609,339.6091666666667 712.8735632183908,339.56416666666667 721.0344827586207,339.5 C729.1954022988506,339.43583333333333 737.3563218390805,339.35583333333335 745.5172413793103,339.285 C753.6781609195402,339.2141666666667 761.8390804597701,339.145 770,339.075" fill="none" stroke="#3498db" stroke-width="2.5" class="data-line-3" />
  <path d="M60,350 C68.16091954022988,349.9984188611699 76.32183908045977,349.9997434164903 84.48275862068965,349.995 C92.64367816091954,349.99025658350973 100.80459770114942,349.98083333333335 108.9655172413793,349.97 C117.12643678160919,349.9591666666667 125.28735632183907,349.945 133.44827586206895,349.93 C141.60919540229884,349.915 149.77011494252872,349.8933333333333 157.9310344827586,349.88 C166.0919540229885,349.8666666666667 174.2528735632184,349.87 182.41379310344828,349.85 C190.57471264367817,349.83000000000004 198.73563218390805,349.7891666666667 206.89655172413794,349.76 C215.05747126436782,349.7308333333333 223.2183908045977,349.7166666666667 231.3793103448276,349.675 C239.54022988505747,349.6333333333333 247.70114942528735,349.5966666666667 255.86206896551724,349.51 C264.0229885057471,349.42333333333335 272.183908045977,349.265 280.34482758620686,349.155 C288.50574712643675,349.04499999999996 296.6666666666667,348.95000000000005 304.82758620689657,348.85 C312.98850574712645,348.75000000000006 321.14942528735634,348.64166666666665 329.3103448275862,348.555 C337.4712643678161,348.46833333333336 345.632183908046,348.40999999999997 353.7931034482759,348.33 C361.95402298850576,348.25 370.11494252873564,348.15 378.2758620689655,348.075 C386.4367816091954,348 394.5977011494253,347.9658333333333 402.7586206896552,347.88 C410.91954022988506,347.7941666666667 419.08045977011494,347.66083333333336 427.2413793103448,347.56 C435.4022988505747,347.45916666666665 443.5632183908046,347.36249999999995 451.7241379310345,347.275 C459.88505747126436,347.1875 468.04597701149424,347.1275 476.2068965517241,347.035 C484.367816091954,346.94250000000005 492.5287356321839,346.8566666666667 500.6896551724138,346.72 C508.85057471264366,346.58333333333337 517.0114942528736,346.35999999999996 525.1724137931035,346.215 C533.3333333333334,346.07 541.4942528735633,345.99583333333334 549.6551724137931,345.85 C557.816091954023,345.7041666666667 565.9770114942529,345.5675 574.1379310344828,345.34 C582.2988505747127,345.11249999999995 590.4597701149426,344.755 598.6206896551724,344.485 C606.7816091954023,344.21500000000003 614.9425287356322,344.0708333333334 623.1034482758621,343.72 C631.264367816092,343.3691666666667 639.4252873563219,342.6741666666667 647.5862068965517,342.38 C655.7471264367816,342.0858333333333 663.9080459770115,342.10166666666663 672.0689655172414,341.955 C680.2298850574713,341.80833333333334 688.3908045977012,341.63 696.551724137931,341.5 C704.7126436781609,341.37 712.8735632183908,341.2891666666667 721.0344827586207,341.175 C729.1954022988506,341.06083333333333 737.3563218390805,340.9125 745.5172413793103,340.815 C753.6781609195402,340.7175 761.8390804597701,340.66499999999996 770,340.59" fill="none" stroke="#9b59b6" stroke-width="2.5" class="data-line-4" />
  <path d="M60,350 C68.16091954022988,350 76.32183908045977,350 84.48275862068965,350 C92.64367816091954,350 100.80459770114942,350 108.9655172413793,350 C117.12643678160919,350 125.28735632183907,350 133.44827586206895,350 C141.60919540229884,350 149.77011494252872,350 157.9310344827586,350 C166.0919540229885,350 174.2528735632184,350 182.41379310344828,350 C190.57471264367817,350 198.73563218390805,350 206.89655172413794,350 C215.05747126436782,350 223.2183908045977,350 231.3793103448276,350 C239.54022988505747,350 247.70114942528735,350 255.86206896551724,349.995 C264.0229885057471,349.99 272.183908045977,349.91333333333336 280.34482758620686,349.875 C288.50574712643675,349.83666666666664 296.6666666666667,349.7975 304.82758620689657,349.765 C312.98850574712645,349.7325 321.14942528735634,349.7 329.3103448275862,349.68 C337.4712643678161,349.66 345.632183908046,349.66249999999997 353.7931034482759,349.645 C361.95402298850576,349.6275 370.11494252873564,349.6058333333333 378.2758620689655,349.575 C386.4367816091954,349.5441666666667 394.5977011494253,349.52916666666664 402.7586206896552,349.46 C410.91954022988506,349.3908333333333 419.08045977011494,349.23833333333334 427.2413793103448,349.16 C435.4022988505747,349.0816666666667 443.5632183908046,349.06333333333333 451.7241379310345,348.99 C459.88505747126436,348.9166666666667 468.04597701149424,348.7916666666667 476.2068965517241,348.72 C484.367816091954,348.64833333333337 492.5287356321839,348.63 500.6896551724138,348.56 C508.85057471264366,348.49 517.0114942528736,348.37083333333334 525.1724137931035,348.3 C533.3333333333334,348.2291666666667 541.4942528735633,348.19666666666666 549.6551724137931,348.135 C557.816091954023,348.0733333333333 565.9770114942529,348.0075 574.1379310344828,347.93 C582.2988505747127,347.8525 590.4597701149426,347.74666666666667 598.6206896551724,347.67 C606.7816091954023,347.59333333333336 614.9425287356322,347.545 623.1034482758621,347.47 C631.264367816092,347.39500000000004 639.4252873563219,347.29083333333335 647.5862068965517,347.22 C655.7471264367816,347.1491666666667 663.9080459770115,347.12916666666666 672.0689655172414,347.045 C680.2298850574713,346.96083333333337 688.3908045977012,346.7958333333333 696.551724137931,346.715 C704.7126436781609,346.63416666666666 712.8735632183908,346.6166666666667 721.0344827586207,346.56 C729.1954022988506,346.50333333333333 737.3563218390805,346.4266666666667 745.5172413793103,346.375 C753.6781609195402,346.3233333333333 761.8390804597701,346.2916666666667 770,346.25" fill="none" stroke="#e67e22" stroke-width="2.5" class="data-line-5" />
  <path d="M60,350 C68.16091954022988,350 76.32183908045977,350 84.48275862068965,350 C92.64367816091954,350 100.80459770114942,350 108.9655172413793,350 C117.12643678160919,350 125.28735632183907,350 133.44827586206895,350 C141.60919540229884,350 149.77011494252872,350 157.9310344827586,350 C166.0919540229885,350 174.2528735632184,350 182.41379310344828,350 C190.57471264367817,350 198.73563218390805,350 206.89655172413794,350 C215.05747126436782,350 223.2183908045977,350 231.3793103448276,350 C239.54022988505747,350 247.70114942528735,350 255.86206896551724,350 C264.0229885057471,350 272.183908045977,350 280.34482758620686,350 C288.50574712643675,350 296.6666666666667,350 304.82758620689657,350 C312.98850574712645,350 321.14942528735634,350 329.3103448275862,350 C337.4712643678161,350 345.632183908046,350 353.7931034482759,350 C361.95402298850576,350 370.11494252873564,350 378.2758620689655,350 C386.4367816091954,350 394.5977011494253,349.8666666666666 402.7586206896552,349.78 C410.91954022988506,349.6933333333333 419.08045977011494,349.555 427.2413793103448,349.48 C435.4022988505747,349.40500000000003 443.5632183908046,349.3833333333333 451.7241379310345,349.33 C459.88505747126436,349.27666666666664 468.04597701149424,349.20833333333337 476.2068965517241,349.16 C484.367816091954,349.1116666666667 492.5287356321839,349.07750000000004 500.6896551724138,349.04 C508.85057471264366,349.0025 517.0114942528736,348.97083333333336 525.1724137931035,348.935 C533.3333333333334,348.89916666666664 541.4942528735633,348.8591666666666 549.6551724137931,348.825 C557.816091954023,348.79083333333335 565.9770114942529,348.7683333333334 574.1379310344828,348.73 C582.2988505747127,348.69166666666666 590.4597701149426,348.6391666666667 598.6206896551724,348.595 C606.7816091954023,348.55083333333334 614.9425287356322,348.50416666666666 623.1034482758621,348.465 C631.264367816092,348.4258333333333 639.4252873563219,348.39 647.5862068965517,348.36 C655.7471264367816,348.33000000000004 663.9080459770115,348.30583333333334 672.0689655172414,348.285 C680.2298850574713,348.2641666666667 688.3908045977012,348.25416666666666 696.551724137931,348.235 C704.7126436781609,348.21583333333336 712.8735632183908,348.1925 721.0344827586207,348.17 C729.1954022988506,348.14750000000004 737.3563218390805,348.125 745.5172413793103,348.1 C753.6781609195402,348.07500000000005 761.8390804597701,348.0466666666667 770,348.02" fill="none" stroke="#1abc9c" stroke-width="2.5" class="data-line-6" />
  <path d="M60,350 C68.16091954022988,350 76.32183908045977,350 84.48275862068965,350 C92.64367816091954,350 100.80459770114942,350 108.9655172413793,350 C117.12643678160919,350 125.28735632183907,350 133.44827586206895,350 C141.60919540229884,350 149.77011494252872,350 157.9310344827586,350 C166.0919540229885,350 174.2528735632184,350 182.41379310344828,350 C190.57471264367817,350 198.73563218390805,350 206.89655172413794,350 C215.05747126436782,350 223.2183908045977,350 231.3793103448276,350 C239.54022988505747,350 247.70114942528735,350 255.86206896551724,350 C264.0229885057471,350 272.183908045977,350 280.34482758620686,350 C288.50574712643675,350 296.6666666666667,350 304.82758620689657,350 C312.98850574712645,350 321.14942528735634,350 329.3103448275862,350 C337.4712643678161,350 345.632183908046,350 353.7931034482759,350 C361.95402298850576,350 370.11494252873564,350 378.2758620689655,350 C386.4367816091954,350 394.5977011494253,350 402.7586206896552,350 C410.91954022988506,350 419.08045977011494,350 427.2413793103448,350 C435.4022988505747,350 443.5632183908046,350 451.7241379310345,350 C459.88505747126436,350 468.04597701149424,350 476.2068965517241,350 C484.367816091954,350 492.5287356321839,350 500.6896551724138,350 C508.85057471264366,350 517.0114942528736,350 525.1724137931035,350 C533.3333333333334,350 541.4942528735633,350 549.6551724137931,350 C557.816091954023,350 565.9770114942529,350 574.1379310344828,350 C582.2988505747127,350 590.4597701149426,350 598.6206896551724,350 C606.7816091954023,350 614.9425287356322,350 623.1034482758621,350 C631.264367816092,350 639.4252873563219,350 647.5862068965517,350 C655.7471264367816,350 663.9080459770115,350 672.0689655172414,350 C680.2298850574713,350 688.3908045977012,350 696.551724137931,350 C704.7126436781609,350 712.8735632183908,350 721.0344827586207,350 C729.1954022988506,350 737.3563218390805,350 745.5172413793103,350 C753.6781609195402,350 761.8390804597701,349.21 770,348.815" fill="none" stroke="#e84393" stroke-width="2.5" class="data-line-7" />
  <path d="M60,350 C68.16091954022988,350 76.32183908045977,350 84.48275862068965,350 C92.64367816091954,350 100.80459770114942,350 108.9655172413793,350 C117.12643678160919,350 125.28735632183907,350 133.44827586206895,350 C141.60919540229884,350 149.77011494252872,350 157.9310344827586,350 C166.0919540229885,350 174.2528735632184,350 182.41379310344828,350 C190.57471264367817,350 198.73563218390805,350 206.89655172413794,350 C215.05747126436782,350 223.2183908045977,350 231.3793103448276,350 C239.54022988505747,350 247.70114942528735,350 255.86206896551724,350 C264.0229885057471,350 272.183908045977,350 280.34482758620686,350 C288.50574712643675,350 296.6666666666667,350 304.82758620689657,350 C312.98850574712645,350 321.14942528735634,350 329.3103448275862,350 C337.4712643678161,350 345.632183908046,350 353.7931034482759,350 C361.95402298850576,350 370.11494252873564,350 378.2758620689655,350 C386.4367816091954,350 394.5977011494253,350 402.7586206896552,350 C410.91954022988506,350 419.08045977011494,349.9316666666666 427.2413793103448,349.905 C435.4022988505747,349.87833333333333 443.5632183908046,349.8616666666666 451.7241379310345,349.84 C459.88505747126436,349.8183333333333 468.04597701149424,349.7966666666666 476.2068965517241,349.775 C484.367816091954,349.75333333333333 492.5287356321839,349.72999999999996 500.6896551724138,349.71 C508.85057471264366,349.69 517.0114942528736,349.6716666666666 525.1724137931035,349.655 C533.3333333333334,349.6383333333333 541.4942528735633,349.6308333333333 549.6551724137931,349.61 C557.816091954023,349.5891666666667 565.9770114942529,349.55583333333334 574.1379310344828,349.53 C582.2988505747127,349.5041666666666 590.4597701149426,349.4816666666666 598.6206896551724,349.455 C606.7816091954023,349.42833333333334 614.9425287356322,349.395 623.1034482758621,349.37 C631.264367816092,349.345 639.4252873563219,349.3475 647.5862068965517,349.305 C655.7471264367816,349.2625 663.9080459770115,349.1591666666667 672.0689655172414,349.115 C680.2298850574713,349.0708333333333 688.3908045977012,349.0566666666667 696.551724137931,349.04 C704.7126436781609,349.02333333333337 712.8735632183908,349.02416666666664 721.0344827586207,349.015 C729.1954022988506,349.0058333333333 737.3563218390805,348.99666666666667 745.5172413793103,348.985 C753.6781609195402,348.97333333333336 761.8390804597701,348.9583333333333 770,348.945" fill="none" stroke="#795548" stroke-width="2.5" class="data-line-8" />
  <path d="M60,350 C68.16091954022988,350 76.32183908045977,350 84.48275862068965,350 C92.64367816091954,350 100.80459770114942,350 108.9655172413793,350 C117.12643678160919,350 125.28735632183907,350 133.44827586206895,350 C141.60919540229884,350 149.77011494252872,350 157.9310344827586,350 C166.0919540229885,350 174.2528735632184,350 182.41379310344828,350 C190.57471264367817,350 198.73563218390805,350 206.89655172413794,350 C215.05747126436782,350 223.2183908045977,349.9877735009811 231.3793103448276,349.985 C239.54022988505747,349.9822264990189 247.70114942528735,349.9841602514717 255.86206896551724,349.98 C264.0229885057471,349.97583974852836 272.183908045977,349.96666666666664 280.34482758620686,349.955 C288.50574712643675,349.9433333333333 296.6666666666667,349.9216666666667 304.82758620689657,349.91 C312.98850574712645,349.89833333333337 321.14942528735634,349.8908333333333 329.3103448275862,349.885 C337.4712643678161,349.87916666666666 345.632183908046,349.8808333333333 353.7931034482759,349.875 C361.95402298850576,349.8691666666667 370.11494252873564,349.85400818834023 378.2758620689655,349.85 C386.4367816091954,349.8459918116598 394.5977011494253,349.849161573349 402.7586206896552,349.84 C410.91954022988506,349.8308384266509 419.08045977011494,349.78749999999997 427.2413793103448,349.77 C435.4022988505747,349.7525 443.5632183908046,349.75166666666667 451.7241379310345,349.735 C459.88505747126436,349.71833333333336 468.04597701149424,349.685 476.2068965517241,349.67 C484.367816091954,349.65500000000003 492.5287356321839,349.65999999999997 500.6896551724138,349.645 C508.85057471264366,349.63 517.0114942528736,349.5922289500215 525.1724137931035,349.58 C533.3333333333334,349.5677710499785 541.4942528735633,349.57582570002785 549.6551724137931,349.56 C557.816091954023,349.54417429997216 565.9770114942529,349.4991666666667 574.1379310344828,349.47 C582.2988505747127,349.44083333333333 590.4597701149426,349.4175 598.6206896551724,349.385 C606.7816091954023,349.35249999999996 614.9425287356322,349.3008333333333 623.1034482758621,349.275 C631.264367816092,349.24916666666667 639.4252873563219,349.2425 647.5862068965517,349.23 C655.7471264367816,349.21750000000003 663.9080459770115,349.2158333333333 672.0689655172414,349.2 C680.2298850574713,349.18416666666667 688.3908045977012,349.15666666666664 696.551724137931,349.135 C704.7126436781609,349.11333333333334 712.8735632183908,349.0883333333333 721.0344827586207,349.07 C729.1954022988506,349.0516666666667 737.3563218390805,349.03999999999996 745.5172413793103,349.025 C753.6781609195402,349.01 761.8390804597701,348.995 770,348.98" fill="none" stroke="#00bcd4" stroke-width="2.5" class="data-line-9" />
  <g class="points">
    
    <circle cx="60" cy="350" r="4" fill="#dfb317" class="data-point" style="animation-delay: 1.50s" />
    <circle cx="84.48275862068965" cy="350" r="4" fill="#dfb317" class="data-point" style="animation-delay: 1.55s" />
    <circle cx="108.9655172413793" cy="350" r="4" fill="#dfb317" class="data-point" style="animation-delay: 1.60s" />
    <circle cx="133.44827586206895" cy="350" r="4" fill="#dfb317" class="data-point" style="animation-delay: 1.65s" />
    <circle cx="157.9310344827586" cy="350" r="4" fill="#dfb317" class="data-point" style="animation-delay: 1.70s" />
    <circle cx="182.41379310344828" cy="350" r="4" fill="#dfb317" class="data-point" style="animation-delay: 1.75s" />
    <circle cx="206.89655172413794" cy="350" r="4" fill="#dfb317" class="data-point" style="animation-delay: 1.80s" />
    <circle cx="231.3793103448276" cy="350" r="4" fill="#dfb317" class="data-point" style="animation-delay: 1.85s" />
    <circle cx="255.86206896551724" cy="343.335" r="4" fill="#dfb317" class="data-point" style="animation-delay: 1.90s" />
    <circle cx="280.34482758620686" cy="296.665" r="4" fill="#dfb317" class="data-point" style="animation-delay: 1.95s" />
    <circle cx="304.82758620689657" cy="283.335" r="4" fill="#dfb317" class="data-point" style="animation-delay: 2.00s" />
    <circle cx="329.3103448275862" cy="276.665" r="4" fill="#dfb317" class="data-point" style="animation-delay: 2.05s" />
    <circle cx="353.7931034482759" cy="270" r="4" fill="#dfb317" class="data-point" style="animation-delay: 2.10s" />
    <circle cx="378.2758620689655" cy="270" r="4" fill="#dfb317" class="data-point" style="animation-delay: 2.15s" />
    <circle cx="402.7586206896552" cy="263.33500000000004" r="4" fill="#dfb317" class="data-point" style="animation-delay: 2.20s" />
    <circle cx="427.2413793103448" cy="203.335" r="4" fill="#dfb317" class="data-point" style="animation-delay: 2.25s" />
    <circle cx="451.7241379310345" cy="196.665" r="4" fill="#dfb317" class="data-point" style="animation-delay: 2.30s" />
    <circle cx="476.2068965517241" cy="190" r="4" fill="#dfb317" class="data-point" style="animation-delay: 2.35s" />
    <circle cx="500.6896551724138" cy="183.335" r="4" fill="#dfb317" class="data-point" style="animation-delay: 2.40s" />
    <circle cx="525.1724137931035" cy="183.335" r="4" fill="#dfb317" class="data-point" style="animation-delay: 2.45s" />
    <circle cx="549.6551724137931" cy="176.665" r="4" fill="#dfb317" class="data-point" style="animation-delay: 2.50s" />
    <circle cx="574.1379310344828" cy="170" r="4" fill="#dfb317" class="data-point" style="animation-delay: 2.55s" />
    <circle cx="598.6206896551724" cy="150" r="4" fill="#dfb317" class="data-point" style="animation-delay: 2.60s" />
    <circle cx="623.1034482758621" cy="141.26000000000002" r="4" fill="#dfb317" class="data-point" style="animation-delay: 2.65s" />
    <circle cx="647.5862068965517" cy="132.52" r="4" fill="#dfb317" class="data-point" style="animation-delay: 2.70s" />
    <circle cx="672.0689655172414" cy="123.78" r="4" fill="#dfb317" class="data-point" style="animation-delay: 2.75s" />
    <circle cx="696.551724137931" cy="115.03999999999999" r="4" fill="#dfb317" class="data-point" style="animation-delay: 2.80s" />
    <circle cx="721.0344827586207" cy="106.29999999999998" r="4" fill="#dfb317" class="data-point" style="animation-delay: 2.85s" />
    <circle cx="745.5172413793103" cy="97.56" r="4" fill="#dfb317" class="data-point" style="animation-delay: 2.90s" />
    <circle cx="770" cy="88.82" r="4" fill="#dfb317" class="data-point" style="animation-delay: 2.95s" />
    
    <circle cx="60" cy="350" r="4" fill="#28a745" class="data-point" style="animation-delay: 1.50s" />
    <circle cx="84.48275862068965" cy="350" r="4" fill="#28a745" class="data-point" style="animation-delay: 1.55s" />
    <circle cx="108.9655172413793" cy="350" r="4" fill="#28a745" class="data-point" style="animation-delay: 1.60s" />
    <circle cx="133.44827586206895" cy="350" r="4" fill="#28a745" class="data-point" style="animation-delay: 1.65s" />
    <circle cx="157.9310344827586" cy="350" r="4" fill="#28a745" class="data-point" style="animation-delay: 1.70s" />
    <circle cx="182.41379310344828" cy="350" r="4" fill="#28a745" class="data-point" style="animation-delay: 1.75s" />
    <circle cx="206.89655172413794" cy="350" r="4" fill="#28a745" class="data-point" style="animation-delay: 1.80s" />
    <circle cx="231.3793103448276" cy="350" r="4" fill="#28a745" class="data-point" style="animation-delay: 1.85s" />
    <circle cx="255.86206896551724" cy="350" r="4" fill="#28a745" class="data-point" style="animation-delay: 1.90s" />
    <circle cx="280.34482758620686" cy="350" r="4" fill="#28a745" class="data-point" style="animation-delay: 1.95s" />
    <circle cx="304.82758620689657" cy="350" r="4" fill="#28a745" class="data-point" style="animation-delay: 2.00s" />
    <circle cx="329.3103448275862" cy="346.48" r="4" fill="#28a745" class="data-point" style="animation-delay: 2.05s" />
    <circle cx="353.7931034482759" cy="346.48" r="4" fill="#28a745" class="data-point" style="animation-delay: 2.10s" />
    <circle cx="378.2758620689655" cy="346.48" r="4" fill="#28a745" class="data-point" style="animation-delay: 2.15s" />
    <circle cx="402.7586206896552" cy="346.2" r="4" fill="#28a745" class="data-point" style="animation-delay: 2.20s" />
    <circle cx="427.2413793103448" cy="304.255" r="4" fill="#28a745" class="data-point" style="animation-delay: 2.25s" />
    <circle cx="451.7241379310345" cy="300.735" r="4" fill="#28a745" class="data-point" style="animation-delay: 2.30s" />
    <circle cx="476.2068965517241" cy="293.7" r="4" fill="#28a745" class="data-point" style="animation-delay: 2.35s" />
    <circle cx="500.6896551724138" cy="293.7" r="4" fill="#28a745" class="data-point" style="animation-delay: 2.40s" />
    <circle cx="525.1724137931035" cy="290.18" r="4" fill="#28a745" class="data-point" style="animation-delay: 2.45s" />
    <circle cx="549.6551724137931" cy="290.18" r="4" fill="#28a745" class="data-point" style="animation-delay: 2.50s" />
    <circle cx="574.1379310344828" cy="269.525" r="4" fill="#28a745" class="data-point" style="animation-delay: 2.55s" />
    <circle cx="598.6206896551724" cy="265.54499999999996" r="4" fill="#28a745" class="data-point" style="animation-delay: 2.60s" />
    <circle cx="623.1034482758621" cy="262.03" r="4" fill="#28a745" class="data-point" style="animation-delay: 2.65s" />
    <circle cx="647.5862068965517" cy="261.675" r="4" fill="#28a745" class="data-point" style="animation-delay: 2.70s" />
    <circle cx="672.0689655172414" cy="258.51" r="4" fill="#28a745" class="data-point" style="animation-delay: 2.75s" />
    <circle cx="696.551724137931" cy="254.99" r="4" fill="#28a745" class="data-point" style="animation-delay: 2.80s" />
    <circle cx="721.0344827586207" cy="251.47" r="4" fill="#28a745" class="data-point" style="animation-delay: 2.85s" />
    <circle cx="745.5172413793103" cy="247.95499999999998" r="4" fill="#28a745" class="data-point" style="animation-delay: 2.90s" />
    <circle cx="770" cy="247.425" r="4" fill="#28a745" class="data-point" style="animation-delay: 2.95s" />
    
    <circle cx="60" cy="349.995" r="4" fill="#e74c3c" class="data-point" style="animation-delay: 1.50s" />
    <circle cx="84.48275862068965" cy="347.98" r="4" fill="#e74c3c" class="data-point" style="animation-delay: 1.55s" />
    <circle cx="108.9655172413793" cy="347.49" r="4" fill="#e74c3c" class="data-point" style="animation-delay: 1.60s" />
    <circle cx="133.44827586206895" cy="345.695" r="4" fill="#e74c3c" class="data-point" style="animation-delay: 1.65s" />
    <circle cx="157.9310344827586" cy="344.795" r="4" fill="#e74c3c" class="data-point" style="animation-delay: 1.70s" />
    <circle cx="182.41379310344828" cy="344.13" r="4" fill="#e74c3c" class="data-point" style="animation-delay: 1.75s" />
    <circle cx="206.89655172413794" cy="343.62" r="4" fill="#e74c3c" class="data-point" style="animation-delay: 1.80s" />
    <circle cx="231.3793103448276" cy="342.9" r="4" fill="#e74c3c" class="data-point" style="animation-delay: 1.85s" />
    <circle cx="255.86206896551724" cy="342.175" r="4" fill="#e74c3c" class="data-point" style="animation-delay: 1.90s" />
    <circle cx="280.34482758620686" cy="340.955" r="4" fill="#e74c3c" class="data-point" style="animation-delay: 1.95s" />
    <circle cx="304.82758620689657" cy="340.215" r="4" fill="#e74c3c" class="data-point" style="animation-delay: 2.00s" />
    <circle cx="329.3103448275862" cy="339.505" r="4" fill="#e74c3c" class="data-point" style="animation-delay: 2.05s" />
    <circle cx="353.7931034482759" cy="338.64" r="4" fill="#e74c3c" class="data-point" style="animation-delay: 2.10s" />
    <circle cx="378.2758620689655" cy="338.26" r="4" fill="#e74c3c" class="data-point" style="animation-delay: 2.15s" />
    <circle cx="402.7586206896552" cy="337.49" r="4" fill="#e74c3c" class="data-point" style="animation-delay: 2.20s" />
    <circle cx="427.2413793103448" cy="336.655" r="4" fill="#e74c3c" class="data-point" style="animation-delay: 2.25s" />
    <circle cx="451.7241379310345" cy="336.305" r="4" fill="#e74c3c" class="data-point" style="animation-delay: 2.30s" />
    <circle cx="476.2068965517241" cy="335.745" r="4" fill="#e74c3c" class="data-point" style="animation-delay: 2.35s" />
    <circle cx="500.6896551724138" cy="335.1" r="4" fill="#e74c3c" class="data-point" style="animation-delay: 2.40s" />
    <circle cx="525.1724137931035" cy="334.36" r="4" fill="#e74c3c" class="data-point" style="animation-delay: 2.45s" />
    <circle cx="549.6551724137931" cy="333.865" r="4" fill="#e74c3c" class="data-point" style="animation-delay: 2.50s" />
    <circle cx="574.1379310344828" cy="333.695" r="4" fill="#e74c3c" class="data-point" style="animation-delay: 2.55s" />
    <circle cx="598.6206896551724" cy="333.565" r="4" fill="#e74c3c" class="data-point" style="animation-delay: 2.60s" />
    <circle cx="623.1034482758621" cy="333.13" r="4" fill="#e74c3c" class="data-point" style="animation-delay: 2.65s" />
    <circle cx="647.5862068965517" cy="332.77" r="4" fill="#e74c3c" class="data-point" style="animation-delay: 2.70s" />
    <circle cx="672.0689655172414" cy="331.74" r="4" fill="#e74c3c" class="data-point" style="animation-delay: 2.75s" />
    <circle cx="696.551724137931" cy="331.34" r="4" fill="#e74c3c" class="data-point" style="animation-delay: 2.80s" />
    <circle cx="721.0344827586207" cy="331.105" r="4" fill="#e74c3c" class="data-point" style="animation-delay: 2.85s" />
    <circle cx="745.5172413793103" cy="330.945" r="4" fill="#e74c3c" class="data-point" style="animation-delay: 2.90s" />
    <circle cx="770" cy="330.715" r="4" fill="#e74c3c" class="data-point" style="animation-delay: 2.95s" />
    
    <circle cx="60" cy="350" r="4" fill="#3498db" class="data-point" style="animation-delay: 1.50s" />
    <circle cx="84.48275862068965" cy="350" r="4" fill="#3498db" class="data-point" style="animation-delay: 1.55s" />
    <circle cx="108.9655172413793" cy="350" r="4" fill="#3498db" class="data-point" style="animation-delay: 1.60s" />
    <circle cx="133.44827586206895" cy="350" r="4" fill="#3498db" class="data-point" style="animation-delay: 1.65s" />
    <circle cx="157.9310344827586" cy="350" r="4" fill="#3498db" class="data-point" style="animation-delay: 1.70s" />
    <circle cx="182.41379310344828" cy="350" r="4" fill="#3498db" class="data-point" style="animation-delay: 1.75s" />
    <circle cx="206.89655172413794" cy="350" r="4" fill="#3498db" class="data-point" style="animation-delay: 1.80s" />
    <circle cx="231.3793103448276" cy="350" r="4" fill="#3498db" class="data-point" style="animation-delay: 1.85s" />
    <circle cx="255.86206896551724" cy="349.965" r="4" fill="#3498db" class="data-point" style="animation-delay: 1.90s" />
    <circle cx="280.34482758620686" cy="348.265" r="4" fill="#3498db" class="data-point" style="animation-delay: 1.95s" />
    <circle cx="304.82758620689657" cy="347.55" r="4" fill="#3498db" class="data-point" style="animation-delay: 2.00s" />
    <circle cx="329.3103448275862" cy="347.075" r="4" fill="#3498db" class="data-point" style="animation-delay: 2.05s" />
    <circle cx="353.7931034482759" cy="346.765" r="4" fill="#3498db" class="data-point" style="animation-delay: 2.10s" />
    <circle cx="378.2758620689655" cy="346.425" r="4" fill="#3498db" class="data-point" style="animation-delay: 2.15s" />
    <circle cx="402.7586206896552" cy="346.055" r="4" fill="#3498db" class="data-point" style="animation-delay: 2.20s" />
    <circle cx="427.2413793103448" cy="343.9" r="4" fill="#3498db" class="data-point" style="animation-delay: 2.25s" />
    <circle cx="451.7241379310345" cy="343.51" r="4" fill="#3498db" class="data-point" style="animation-delay: 2.30s" />
    <circle cx="476.2068965517241" cy="343.18" r="4" fill="#3498db" class="data-point" style="animation-delay: 2.35s" />
    <circle cx="500.6896551724138" cy="342.77" r="4" fill="#3498db" class="data-point" style="animation-delay: 2.40s" />
    <circle cx="525.1724137931035" cy="342.435" r="4" fill="#3498db" class="data-point" style="animation-delay: 2.45s" />
    <circle cx="549.6551724137931" cy="342.215" r="4" fill="#3498db" class="data-point" style="animation-delay: 2.50s" />
    <circle cx="574.1379310344828" cy="341.98" r="4" fill="#3498db" class="data-point" style="animation-delay: 2.55s" />
    <circle cx="598.6206896551724" cy="341" r="4" fill="#3498db" class="data-point" style="animation-delay: 2.60s" />
    <circle cx="623.1034482758621" cy="340.41" r="4" fill="#3498db" class="data-point" style="animation-delay: 2.65s" />
    <circle cx="647.5862068965517" cy="340.105" r="4" fill="#3498db" class="data-point" style="animation-delay: 2.70s" />
    <circle cx="672.0689655172414" cy="339.865" r="4" fill="#3498db" class="data-point" style="animation-delay: 2.75s" />
    <circle cx="696.551724137931" cy="339.67" r="4" fill="#3498db" class="data-point" style="animation-delay: 2.80s" />
    <circle cx="721.0344827586207" cy="339.5" r="4" fill="#3498db" class="data-point" style="animation-delay: 2.85s" />
    <circle cx="745.5172413793103" cy="339.285" r="4" fill="#3498db" class="data-point" style="animation-delay: 2.90s" />
    <circle cx="770" cy="339.075" r="4" fill="#3498db" class="data-point" style="animation-delay: 2.95s" />
    
    <circle cx="60" cy="350" r="4" fill="#9b59b6" class="data-point" style="animation-delay: 1.50s" />
    <circle cx="84.48275862068965" cy="349.995" r="4" fill="#9b59b6" class="data-point" style="animation-delay: 1.55s" />
    <circle cx="108.9655172413793" cy="349.97" r="4" fill="#9b59b6" class="data-point" style="animation-delay: 1.60s" />
    <circle cx="133.44827586206895" cy="349.93" r="4" fill="#9b59b6" class="data-point" style="animation-delay: 1.65s" />
    <circle cx="157.9310344827586" cy="349.88" r="4" fill="#9b59b6" class="data-point" style="animation-delay: 1.70s" />
    <circle cx="182.41379310344828" cy="349.85" r="4" fill="#9b59b6" class="data-point" style="animation-delay: 1.75s" />
    <circle cx="206.89655172413794" cy="349.76" r="4" fill="#9b59b6" class="data-point" style="animation-delay: 1.80s" />
    <circle cx="231.3793103448276" cy="349.675" r="4" fill="#9b59b6" class="data-point" style="animation-delay: 1.85s" />
    <circle cx="255.86206896551724" cy="349.51" r="4" fill="#9b59b6" class="data-point" style="animation-delay: 1.90s" />
    <circle cx="280.34482758620686" cy="349.155" r="4" fill="#9b59b6" class="data-point" style="animation-delay: 1.95s" />
    <circle cx="304.82758620689657" cy="348.85" r="4" fill="#9b59b6" class="data-point" style="animation-delay: 2.00s" />
    <circle cx="329.3103448275862" cy="348.555" r="4" fill="#9b59b6" class="data-point" style="animation-delay: 2.05s" />
    <circle cx="353.7931034482759" cy="348.33" r="4" fill="#9b59b6" class="data-point" style="animation-delay: 2.10s" />
    <circle cx="378.2758620689655" cy="348.075" r="4" fill="#9b59b6" class="data-point" style="animation-delay: 2.15s" />
    <circle cx="402.7586206896552" cy="347.88" r="4" fill="#9b59b6" class="data-point" style="animation-delay: 2.20s" />
    <circle cx="427.2413793103448" cy="347.56" r="4" fill="#9b59b6" class="data-point" style="animation-delay: 2.25s" />
    <circle cx="451.7241379310345" cy="347.275" r="4" fill="#9b59b6" class="data-point" style="animation-delay: 2.30s" />
    <circle cx="476.2068965517241" cy="347.035" r="4" fill="#9b59b6" class="data-point" style="animation-delay: 2.35s" />
    <circle cx="500.6896551724138" cy="346.72" r="4" fill="#9b59b6" class="data-point" style="animation-delay: 2.40s" />
    <circle cx="525.1724137931035" cy="346.215" r="4" fill="#9b59b6" class="data-point" style="animation-delay: 2.45s" />
    <circle cx="549.6551724137931" cy="345.85" r="4" fill="#9b59b6" class="data-point" style="animation-delay: 2.50s" />
    <circle cx="574.1379310344828" cy="345.34" r="4" fill="#9b59b6" class="data-point" style="animation-delay: 2.55s" />
    <circle cx="598.6206896551724" cy="344.485" r="4" fill="#9b59b6" class="data-point" style="animation-delay: 2.60s" />
    <circle cx="623.1034482758621" cy="343.72" r="4" fill="#9b59b6" class="data-point" style="animation-delay: 2.65s" />
    <circle cx="647.5862068965517" cy="342.38" r="4" fill="#9b59b6" class="data-point" style="animation-delay: 2.70s" />
    <circle cx="672.0689655172414" cy="341.955" r="4" fill="#9b59b6" class="data-point" style="animation-delay: 2.75s" />
    <circle cx="696.551724137931" cy="341.5" r="4" fill="#9b59b6" class="data-point" style="animation-delay: 2.80s" />
    <circle cx="721.0344827586207" cy="341.175" r="4" fill="#9b59b6" class="data-point" style="animation-delay: 2.85s" />
    <circle cx="745.5172413793103" cy="340.815" r="4" fill="#9b59b6" class="data-point" style="animation-delay: 2.90s" />
    <circle cx="770" cy="340.59" r="4" fill="#9b59b6" class="data-point" style="animation-delay: 2.95s" />
    
    <circle cx="60" cy="350" r="4" fill="#e67e22" class="data-point" style="animation-delay: 1.50s" />
    <circle cx="84.48275862068965" cy="350" r="4" fill="#e67e22" class="data-point" style="animation-delay: 1.55s" />
    <circle cx="108.9655172413793" cy="350" r="4" fill="#e67e22" class="data-point" style="animation-delay: 1.60s" />
    <circle cx="133.44827586206895" cy="350" r="4" fill="#e67e22" class="data-point" style="animation-delay: 1.65s" />
    <circle cx="157.9310344827586" cy="350" r="4" fill="#e67e22" class="data-point" style="animation-delay: 1.70s" />
    <circle cx="182.41379310344828" cy="350" r="4" fill="#e67e22" class="data-point" style="animation-delay: 1.75s" />
    <circle cx="206.89655172413794" cy="350" r="4" fill="#e67e22" class="data-point" style="animation-delay: 1.80s" />
    <circle cx="231.3793103448276" cy="350" r="4" fill="#e67e22" class="data-point" style="animation-delay: 1.85s" />
    <circle cx="255.86206896551724" cy="349.995" r="4" fill="#e67e22" class="data-point" style="animation-delay: 1.90s" />
    <circle cx="280.34482758620686" cy="349.875" r="4" fill="#e67e22" class="data-point" style="animation-delay: 1.95s" />
    <circle cx="304.82758620689657" cy="349.765" r="4" fill="#e67e22" class="data-point" style="animation-delay: 2.00s" />
    <circle cx="329.3103448275862" cy="349.68" r="4" fill="#e67e22" class="data-point" style="animation-delay: 2.05s" />
    <circle cx="353.7931034482759" cy="349.645" r="4" fill="#e67e22" class="data-point" style="animation-delay: 2.10s" />
    <circle cx="378.2758620689655" cy="349.575" r="4" fill="#e67e22" class="data-point" style="animation-delay: 2.15s" />
    <circle cx="402.7586206896552" cy="349.46" r="4" fill="#e67e22" class="data-point" style="animation-delay: 2.20s" />
    <circle cx="427.2413793103448" cy="349.16" r="4" fill="#e67e22" class="data-point" style="animation-delay: 2.25s" />
    <circle cx="451.7241379310345" cy="348.99" r="4" fill="#e67e22" class="data-point" style="animation-delay: 2.30s" />
    <circle cx="476.2068965517241" cy="348.72" r="4" fill="#e67e22" class="data-point" style="animation-delay: 2.35s" />
    <circle cx="500.6896551724138" cy="348.56" r="4" fill="#e67e22" class="data-point" style="animation-delay: 2.40s" />
    <circle cx="525.1724137931035" cy="348.3" r="4" fill="#e67e22" class="data-point" style="animation-delay: 2.45s" />
    <circle cx="549.6551724137931" cy="348.135" r="4" fill="#e67e22" class="data-point" style="animation-delay: 2.50s" />
    <circle cx="574.1379310344828" cy="347.93" r="4" fill="#e67e22" class="data-point" style="animation-delay: 2.55s" />
    <circle cx="598.6206896551724" cy="347.67" r="4" fill="#e67e22" class="data-point" style="animation-delay: 2.60s" />
    <circle cx="623.1034482758621" cy="347.47" r="4" fill="#e67e22" class="data-point" style="animation-delay: 2.65s" />
    <circle cx="647.5862068965517" cy="347.22" r="4" fill="#e67e22" class="data-point" style="animation-delay: 2.70s" />
    <circle cx="672.0689655172414" cy="347.045" r="4" fill="#e67e22" class="data-point" style="animation-delay: 2.75s" />
    <circle cx="696.551724137931" cy="346.715" r="4" fill="#e67e22" class="data-point" style="animation-delay: 2.80s" />
    <circle cx="721.0344827586207" cy="346.56" r="4" fill="#e67e22" class="data-point" style="animation-delay: 2.85s" />
    <circle cx="745.5172413793103" cy="346.375" r="4" fill="#e67e22" class="data-point" style="animation-delay: 2.90s" />
    <circle cx="770" cy="346.25" r="4" fill="#e67e22" class="data-point" style="animation-delay: 2.95s" />
    
    <circle cx="60" cy="350" r="4" fill="#1abc9c" class="data-point" style="animation-delay: 1.50s" />
    <circle cx="84.48275862068965" cy="350" r="4" fill="#1abc9c" class="data-point" style="animation-delay: 1.55s" />
    <circle cx="108.9655172413793" cy="350" r="4" fill="#1abc9c" class="data-point" style="animation-delay: 1.60s" />
    <circle cx="133.44827586206895" cy="350" r="4" fill="#1abc9c" class="data-point" style="animation-delay: 1.65s" />
    <circle cx="157.9310344827586" cy="350" r="4" fill="#1abc9c" class="data-point" style="animation-delay: 1.70s" />
    <circle cx="182.41379310344828" cy="350" r="4" fill="#1abc9c" class="data-point" style="animation-delay: 1.75s" />
    <circle cx="206.89655172413794" cy="350" r="4" fill="#1abc9c" class="data-point" style="animation-delay: 1.80s" />
    <circle cx="231.3793103448276" cy="350" r="4" fill="#1abc9c" class="data-point" style="animation-delay: 1.85s" />
    <circle cx="255.86206896551724" cy="350" r="4" fill="#1abc9c" class="data-point" style="animation-delay: 1.90s" />
    <circle cx="280.34482758620686" cy="350" r="4" fill="#1abc9c" class="data-point" style="animation-delay: 1.95s" />
    <circle cx="304.82758620689657" cy="350" r="4" fill="#1abc9c" class="data-point" style="animation-delay: 2.00s" />
    <circle cx="329.3103448275862" cy="350" r="4" fill="#1abc9c" class="data-point" style="animation-delay: 2.05s" />
    <circle cx="353.7931034482759" cy="350" r="4" fill="#1abc9c" class="data-point" style="animation-delay: 2.10s" />
    <circle cx="378.2758620689655" cy="350" r="4" fill="#1abc9c" class="data-point" style="animation-delay: 2.15s" />
    <circle cx="402.7586206896552" cy="349.78" r="4" fill="#1abc9c" class="data-point" style="animation-delay: 2.20s" />
    <circle cx="427.2413793103448" cy="349.48" r="4" fill="#1abc9c" class="data-point" style="animation-delay: 2.25s" />
    <circle cx="451.7241379310345" cy="349.33" r="4" fill="#1abc9c" class="data-point" style="animation-delay: 2.30s" />
    <circle cx="476.2068965517241" cy="349.16" r="4" fill="#1abc9c" class="data-point" style="animation-delay: 2.35s" />
    <circle cx="500.6896551724138" cy="349.04" r="4" fill="#1abc9c" class="data-point" style="animation-delay: 2.40s" />
    <circle cx="525.1724137931035" cy="348.935" r="4" fill="#1abc9c" class="data-point" style="animation-delay: 2.45s" />
    <circle cx="549.6551724137931" cy="348.825" r="4" fill="#1abc9c" class="data-point" style="animation-delay: 2.50s" />
    <circle cx="574.1379310344828" cy="348.73" r="4" fill="#1abc9c" class="data-point" style="animation-delay: 2.55s" />
    <circle cx="598.6206896551724" cy="348.595" r="4" fill="#1abc9c" class="data-point" style="animation-delay: 2.60s" />
    <circle cx="623.1034482758621" cy="348.465" r="4" fill="#1abc9c" class="data-point" style="animation-delay: 2.65s" />
    <circle cx="647.5862068965517" cy="348.36" r="4" fill="#1abc9c" class="data-point" style="animation-delay: 2.70s" />
    <circle cx="672.0689655172414" cy="348.285" r="4" fill="#1abc9c" class="data-point" style="animation-delay: 2.75s" />
    <circle cx="696.551724137931" cy="348.235" r="4" fill="#1abc9c" class="data-point" style="animation-delay: 2.80s" />
    <circle cx="721.0344827586207" cy="348.17" r="4" fill="#1abc9c" class="data-point" style="animation-delay: 2.85s" />
    <circle cx="745.5172413793103" cy="348.1" r="4" fill="#1abc9c" class="data-point" style="animation-delay: 2.90s" />
    <circle cx="770" cy="348.02" r="4" fill="#1abc9c" class="data-point" style="animation-delay: 2.95s" />
    
    <circle cx="60" cy="350" r="4" fill="#e84393" class="data-point" style="animation-delay: 1.50s" />
    <circle cx="84.48275862068965" cy="350" r="4" fill="#e84393" class="data-point" style="animation-delay: 1.55s" />
    <circle cx="108.9655172413793" cy="350" r="4" fill="#e84393" class="data-point" style="animation-delay: 1.60s" />
    <circle cx="133.44827586206895" cy="350" r="4" fill="#e84393" class="data-point" style="animation-delay: 1.65s" />
    <circle cx="157.9310344827586" cy="350" r="4" fill="#e84393" class="data-point" style="animation-delay: 1.70s" />
    <circle cx="182.41379310344828" cy="350" r="4" fill="#e84393" class="data-point" style="animation-delay: 1.75s" />
    <circle cx="206.89655172413794" cy="350" r="4" fill="#e84393" class="data-point" style="animation-delay: 1.80s" />
    <circle cx="231.3793103448276" cy="350" r="4" fill="#e84393" class="data-point" style="animation-delay: 1.85s" />
    <circle cx="255.86206896551724" cy="350" r="4" fill="#e84393" class="data-point" style="animation-delay: 1.90s" />
    <circle cx="280.34482758620686" cy="350" r="4" fill="#e84393" class="data-point" style="animation-delay: 1.95s" />
    <circle cx="304.82758620689657" cy="350" r="4" fill="#e84393" class="data-point" style="animation-delay: 2.00s" />
    <circle cx="329.3103448275862" cy="350" r="4" fill="#e84393" class="data-point" style="animation-delay: 2.05s" />
    <circle cx="353.7931034482759" cy="350" r="4" fill="#e84393" class="data-point" style="animation-delay: 2.10s" />
    <circle cx="378.2758620689655" cy="350" r="4" fill="#e84393" class="data-point" style="animation-delay: 2.15s" />
    <circle cx="402.7586206896552" cy="350" r="4" fill="#e84393" class="data-point" style="animation-delay: 2.20s" />
    <circle cx="427.2413793103448" cy="350" r="4" fill="#e84393" class="data-point" style="animation-delay: 2.25s" />
    <circle cx="451.7241379310345" cy="350" r="4" fill="#e84393" class="data-point" style="animation-delay: 2.30s" />
    <circle cx="476.2068965517241" cy="350" r="4" fill="#e84393" class="data-point" style="animation-delay: 2.35s" />
    <circle cx="500.6896551724138" cy="350" r="4" fill="#e84393" class="data-point" style="animation-delay: 2.40s" />
    <circle cx="525.1724137931035" cy="350" r="4" fill="#e84393" class="data-point" style="animation-delay: 2.45s" />
    <circle cx="549.6551724137931" cy="350" r="4" fill="#e84393" class="data-point" style="animation-delay: 2.50s" />
    <circle cx="574.1379310344828" cy="350" r="4" fill="#e84393" class="data-point" style="animation-delay: 2.55s" />
    <circle cx="598.6206896551724" cy="350" r="4" fill="#e84393" class="data-point" style="animation-delay: 2.60s" />
    <circle cx="623.1034482758621" cy="350" r="4" fill="#e84393" class="data-point" style="animation-delay: 2.65s" />
    <circle cx="647.5862068965517" cy="350" r="4" fill="#e84393" class="data-point" style="animation-delay: 2.70s" />
    <circle cx="672.0689655172414" cy="350" r="4" fill="#e84393" class="data-point" style="animation-delay: 2.75s" />
    <circle cx="696.551724137931" cy="350" r="4" fill="#e84393" class="data-point" style="animation-delay: 2.80s" />
    <circle cx="721.0344827586207" cy="350" r="4" fill="#e84393" class="data-point" style="animation-delay: 2.85s" />
    <circle cx="745.5172413793103" cy="350" r="4" fill="#e84393" class="data-point" style="animation-delay: 2.90s" />
    <circle cx="770" cy="348.815" r="4" fill="#e84393" class="data-point" style="animation-delay: 2.95s" />
    
    <circle cx="60" cy="350" r="4" fill="#795548" class="data-point" style="animation-delay: 1.50s" />
    <circle cx="84.48275862068965" cy="350" r="4" fill="#795548" class="data-point" style="animation-delay: 1.55s" />
    <circle cx="108.9655172413793" cy="350" r="4" fill="#795548" class="data-point" style="animation-delay: 1.60s" />
    <circle cx="133.44827586206895" cy="350" r="4" fill="#795548" class="data-point" style="animation-delay: 1.65s" />
    <circle cx="157.9310344827586" cy="350" r="4" fill="#795548" class="data-point" style="animation-delay: 1.70s" />
    <circle cx="182.41379310344828" cy="350" r="4" fill="#795548" class="data-point" style="animation-delay: 1.75s" />
    <circle cx="206.89655172413794" cy="350" r="4" fill="#795548" class="data-point" style="animation-delay: 1.80s" />
    <circle cx="231.3793103448276" cy="350" r="4" fill="#795548" class="data-point" style="animation-delay: 1.85s" />
    <circle cx="255.86206896551724" cy="350" r="4" fill="#795548" class="data-point" style="animation-delay: 1.90s" />
    <circle cx="280.34482758620686" cy="350" r="4" fill="#795548" class="data-point" style="animation-delay: 1.95s" />
    <circle cx="304.82758620689657" cy="350" r="4" fill="#795548" class="data-point" style="animation-delay: 2.00s" />
    <circle cx="329.3103448275862" cy="350" r="4" fill="#795548" class="data-point" style="animation-delay: 2.05s" />
    <circle cx="353.7931034482759" cy="350" r="4" fill="#795548" class="data-point" style="animation-delay: 2.10s" />
    <circle cx="378.2758620689655" cy="350" r="4" fill="#795548" class="data-point" style="animation-delay: 2.15s" />
    <circle cx="402.7586206896552" cy="350" r="4" fill="#795548" class="data-point" style="animation-delay: 2.20s" />
    <circle cx="427.2413793103448" cy="349.905" r="4" fill="#795548" class="data-point" style="animation-delay: 2.25s" />
    <circle cx="451.7241379310345" cy="349.84" r="4" fill="#795548" class="data-point" style="animation-delay: 2.30s" />
    <circle cx="476.2068965517241" cy="349.775" r="4" fill="#795548" class="data-point" style="animation-delay: 2.35s" />
    <circle cx="500.6896551724138" cy="349.71" r="4" fill="#795548" class="data-point" style="animation-delay: 2.40s" />
    <circle cx="525.1724137931035" cy="349.655" r="4" fill="#795548" class="data-point" style="animation-delay: 2.45s" />
    <circle cx="549.6551724137931" cy="349.61" r="4" fill="#795548" class="data-point" style="animation-delay: 2.50s" />
    <circle cx="574.1379310344828" cy="349.53" r="4" fill="#795548" class="data-point" style="animation-delay: 2.55s" />
    <circle cx="598.6206896551724" cy="349.455" r="4" fill="#795548" class="data-point" style="animation-delay: 2.60s" />
    <circle cx="623.1034482758621" cy="349.37" r="4" fill="#795548" class="data-point" style="animation-delay: 2.65s" />
    <circle cx="647.5862068965517" cy="349.305" r="4" fill="#795548" class="data-point" style="animation-delay: 2.70s" />
    <circle cx="672.0689655172414" cy="349.115" r="4" fill="#795548" class="data-point" style="animation-delay: 2.75s" />
    <circle cx="696.551724137931" cy="349.04" r="4" fill="#795548" class="data-point" style="animation-delay: 2.80s" />
    <circle cx="721.0344827586207" cy="349.015" r="4" fill="#795548" class="data-point" style="animation-delay: 2.85s" />
    <circle cx="745.5172413793103" cy="348.985" r="4" fill="#795548" class="data-point" style="animation-delay: 2.90s" />
    <circle cx="770" cy="348.945" r="4" fill="#795548" class="data-point" style="animation-delay: 2.95s" />
    
    <circle cx="60" cy="350" r="4" fill="#00bcd4" class="data-point" style="animation-delay: 1.50s" />
    <circle cx="84.48275862068965" cy="350" r="4" fill="#00bcd4" class="data-point" style="animation-delay: 1.55s" />
    <circle cx="108.9655172413793" cy="350" r="4" fill="#00bcd4" class="data-point" style="animation-delay: 1.60s" />
    <circle cx="133.44827586206895" cy="350" r="4" fill="#00bcd4" class="data-point" style="animation-delay: 1.65s" />
    <circle cx="157.9310344827586" cy="350" r="4" fill="#00bcd4" class="data-point" style="animation-delay: 1.70s" />
    <circle cx="182.41379310344828" cy="350" r="4" fill="#00bcd4" class="data-point" style="animation-delay: 1.75s" />
    <circle cx="206.89655172413794" cy="350" r="4" fill="#00bcd4" class="data-point" style="animation-delay: 1.80s" />
    <circle cx="231.3793103448276" cy="349.985" r="4" fill="#00bcd4" class="data-point" style="animation-delay: 1.85s" />
    <circle cx="255.86206896551724" cy="349.98" r="4" fill="#00bcd4" class="data-point" style="animation-delay: 1.90s" />
    <circle cx="280.34482758620686" cy="349.955" r="4" fill="#00bcd4" class="data-point" style="animation-delay: 1.95s" />
    <circle cx="304.82758620689657" cy="349.91" r="4" fill="#00bcd4" class="data-point" style="animation-delay: 2.00s" />
    <circle cx="329.3103448275862" cy="349.885" r="4" fill="#00bcd4" class="data-point" style="animation-delay: 2.05s" />
    <circle cx="353.7931034482759" cy="349.875" r="4" fill="#00bcd4" class="data-point" style="animation-delay: 2.10s" />
    <circle cx="378.2758620689655" cy="349.85" r="4" fill="#00bcd4" class="data-point" style="animation-delay: 2.15s" />
    <circle cx="402.7586206896552" cy="349.84" r="4" fill="#00bcd4" class="data-point" style="animation-delay: 2.20s" />
    <circle cx="427.2413793103448" cy="349.77" r="4" fill="#00bcd4" class="data-point" style="animation-delay: 2.25s" />
    <circle cx="451.7241379310345" cy="349.735" r="4" fill="#00bcd4" class="data-point" style="animation-delay: 2.30s" />
    <circle cx="476.2068965517241" cy="349.67" r="4" fill="#00bcd4" class="data-point" style="animation-delay: 2.35s" />
    <circle cx="500.6896551724138" cy="349.645" r="4" fill="#00bcd4" class="data-point" style="animation-delay: 2.40s" />
    <circle cx="525.1724137931035" cy="349.58" r="4" fill="#00bcd4" class="data-point" style="animation-delay: 2.45s" />
    <circle cx="549.6551724137931" cy="349.56" r="4" fill="#00bcd4" class="data-point" style="animation-delay: 2.50s" />
    <circle cx="574.1379310344828" cy="349.47" r="4" fill="#00bcd4" class="data-point" style="animation-delay: 2.55s" />
    <circle cx="598.6206896551724" cy="349.385" r="4" fill="#00bcd4" class="data-point" style="animation-delay: 2.60s" />
    <circle cx="623.1034482758621" cy="349.275" r="4" fill="#00bcd4" class="data-point" style="animation-delay: 2.65s" />
    <circle cx="647.5862068965517" cy="349.23" r="4" fill="#00bcd4" class="data-point" style="animation-delay: 2.70s" />
    <circle cx="672.0689655172414" cy="349.2" r="4" fill="#00bcd4" class="data-point" style="animation-delay: 2.75s" />
    <circle cx="696.551724137931" cy="349.135" r="4" fill="#00bcd4" class="data-point" style="animation-delay: 2.80s" />
    <circle cx="721.0344827586207" cy="349.07" r="4" fill="#00bcd4" class="data-point" style="animation-delay: 2.85s" />
    <circle cx="745.5172413793103" cy="349.025" r="4" fill="#00bcd4" class="data-point" style="animation-delay: 2.90s" />
    <circle cx="770" cy="348.98" r="4" fill="#00bcd4" class="data-point" style="animation-delay: 2.95s" />
  </g>
</svg>