<svg xmlns="http://www.w3.org/2000/svg" viewBox="0 0 800 400" width="800" height="400">
  <style>
    @keyframes drawLine {
      to { stroke-dashoffset: 0; }
    }
    @keyframes fadeInPoint {
      from { opacity: 0; }
      to { opacity: 1; }
    }
    .data-line-0 {
      stroke-dasharray: 1066;
      stroke-dashoffset: 1066;
      animation: drawLine 2s ease-out forwards;
    }
    .data-line-1 {
      stroke-dasharray: 1127;
      stroke-dashoffset: 1127;
      animation: drawLine 2s ease-out forwards;
    }
    .data-line-2 {
      stroke-dasharray: 1068;
      stroke-dashoffset: 1068;
      animation: drawLine 2s ease-out forwards;
    }
    .data-line-3 {
      stroke-dasharray: 1066;
      stroke-dashoffset: 1066;
      animation: drawLine 2s ease-out forwards;
    }
    .data-line-4 {
      stroke-dasharray: 1066;
      stroke-dashoffset: 1066;
      animation: drawLine 2s ease-out forwards;
    }
    .data-line-5 {
      stroke-dasharray: 1066;
      stroke-dashoffset: 1066;
      animation: drawLine 2s ease-out forwards;
    }
    .data-line-6 {
      stroke-dasharray: 1066;
      stroke-dashoffset: 1066;
      animation: drawLine 2s ease-out forwards;
    }
    .data-line-7 {
      stroke-dasharray: 1066;
      stroke-dashoffset: 1066;
      animation: drawLine 2s ease-out forwards;
    }
    .data-line-8 {
      stroke-dasharray: 1066;
      stroke-dashoffset: 1066;
      animation: drawLine 2s ease-out forwards;
    }
    .data-line-9 {
      stroke-dasharray: 1066;
      stroke-dashoffset: 1066;
      animation: drawLine 2s ease-out forwards;
    }
    .data-point {
      opacity: 0;
      animation: fadeInPoint 0.5s ease-out forwards;
    }
    .chart-bg { fill: #fff; }
    .chart-text { fill: #24292e; }
    .chart-muted { fill: #6a737d; }
    .chart-grid { stroke: #eee; }
    .chart-axis { stroke: #6a737d; }
    @media (prefers-color-scheme: dark) {
      .chart-bg { fill: #0d1117; }
      .chart-text { fill: #e6edf3; }
      .chart-muted { fill: #8b949e; }
      .chart-grid { stroke: #21262d; }
      .chart-axis { stroke: #8b949e; }
    }
  </style>
  <rect width="800" height="400" class="chart-bg" />
  <text x="400" y="14" text-anchor="middle" class="chart-text" font-size="16" font-weight="bold" font-family="-apple-system, BlinkMacSystemFont, 'Segoe UI', Helvetica, Arial, sans-serif">Top Repositories</text>
  <g class="legend">
    <rect x="-200" y="25" width="12" height="3" fill="#dfb317" />
    <line x1="-200" y1="26.5" x2="-188" y2="26.5" stroke="#dfb317" stroke-width="2" />
    <text x="-184" y="30" class="chart-text" font-size="10" font-family="-apple-system, BlinkMacSystemFont, 'Segoe UI', Helvetica, Arial, sans-serif">dockur/windows</text>
    <rect x="-80" y="25" width="12" height="3" fill="#28a745" />
    <line x1="-80" y1="26.5" x2="-68" y2="26.5" stroke="#28a745" stroke-width="2" />
    <text x="-64" y="30" class="chart-text" font-size="10" font-family="-apple-system, BlinkMacSystemFont, 'Segoe UI', Helvetica, Arial, sans-serif">dockur/macos</text>
    <rect x="40" y="25" width="12" height="3" fill="#e74c3c" />
    <line x1="40" y1="26.5" x2="52" y2="26.5" stroke="#e74c3c" stroke-width="2" />
    <text x="56" y="30" class="chart-text" font-size="10" font-family="-apple-system, BlinkMacSystemFont, 'Segoe UI', Helvetica, Arial, sans-serif">vdsm/virtual-dsm</text>
    <rect x="160" y="25" width="12" height="3" fill="#3498db" />
    <line x1="160" y1="26.5" x2="172" y2="26.5" stroke="#3498db" stroke-width="2" />
    <text x="176" y="30" class="chart-text" font-size="10" font-family="-apple-system, BlinkMacSystemFont, 'Segoe UI', Helvetica, Arial, sans-serif">dockur/windows-arm</text>
    <rect x="280" y="25" width="12" height="3" fill="#9b59b6" />
    <line x1="280" y1="26.5" x2="292" y2="26.5" stroke="#9b59b6" stroke-width="2" />
    <text x="296" y="30" class="chart-text" font-size="10" font-family="-apple-system, BlinkMacSystemFont, 'Segoe UI', Helvetica, Arial, sans-serif">qemus/qemu</text>
    <rect x="400" y="25" width="12" height="3" fill="#e67e22" />
    <line x1="400" y1="26.5" x2="412" y2="26.5" stroke="#e67e22" stroke-width="2" />
    <text x="416" y="30" class="chart-text" font-size="10" font-family="-apple-system, BlinkMacSystemFont, 'Segoe UI', Helvetica, Arial, sans-serif">dockur/samba</text>
    <rect x="520" y="25" width="12" height="3" fill="#1abc9c" />
    <line x1="520" y1="26.5" x2="532" y2="26.5" stroke="#1abc9c" stroke-width="2" />
    <text x="536" y="30" class="chart-text" font-size="10" font-family="-apple-system, BlinkMacSystemFont, 'Segoe UI', Helvetica, Arial, sans-serif">dockur/umbrel</text>
    <rect x="640" y="25" width="12" height="3" fill="#e84393" />
    <line x1="640" y1="26.5" x2="652" y2="26.5" stroke="#e84393" stroke-width="2" />
    <text x="656" y="30" class="chart-text" font-size="10" font-family="-apple-system, BlinkMacSystemFont, 'Segoe UI', Helvetica, Arial, sans-serif">dockur/proxmox</text>
    <rect x="760" y="25" width="12" height="3" fill="#795548" />
    <line x1="760" y1="26.5" x2="772" y2="26.5" stroke="#795548" stroke-width="2" />
    <text x="776" y="30" class="chart-text" font-size="10" font-family="-apple-system, BlinkMacSystemFont, 'Segoe UI', Helvetica, Arial, sans-serif">dockur/casa</text>
    <rect x="880" y="25" width="12" height="3" fill="#00bcd4" />
    <line x1="880" y1="26.5" x2="892" y2="26.5" stroke="#00bcd4" stroke-width="2" />
    <text x="896" y="30" class="chart-text" font-size="10" font-family="-apple-system, BlinkMacSystemFont, 'Segoe UI', Helvetica, Arial, sans-serif">dockur/tor</text>
  </g>
  <g class="grid">
    <line x1="60" y1="350" x2="770" y2="350" class="chart-grid" stroke-opacity="0.3" />
    <text x="778" y="354" text-anchor="start" class="chart-muted" font-size="11" font-family="-apple-system, BlinkMacSystemFont, 'Segoe UI', Helvetica, Arial, sans-serif">0</text>
    <line x1="60" y1="297.33238531626904" x2="770" y2="297.33238531626904" class="chart-grid" stroke-opacity="0.3" />
    <text x="778" y="301.33238531626904" text-anchor="start" class="chart-muted" font-size="11" font-family="-apple-system, BlinkMacSystemFont, 'Segoe UI', Helvetica, Arial, sans-serif">10,000</text>
    <line x1="60" y1="244.66477063253805" x2="770" y2="244.66477063253805" class="chart-grid" stroke-opacity="0.3" />
    <text x="778" y="248.66477063253805" text-anchor="start" class="chart-muted" font-size="11" font-family="-apple-system, BlinkMacSystemFont, 'Segoe UI', Helvetica, Arial, sans-serif">20,000</text>
    <line x1="60" y1="191.99715594880706" x2="770" y2="191.99715594880706" class="chart-grid" stroke-opacity="0.3" />
    <text x="778" y="195.99715594880706" text-anchor="start" class="chart-muted" font-size="11" font-family="-apple-system, BlinkMacSystemFont, 'Segoe UI', Helvetica, Arial, sans-serif">30,000</text>
    <line x1="60" y1="139.3295412650761" x2="770" y2="139.3295412650761" class="chart-grid" stroke-opacity="0.3" />
    <text x="778" y="143.3295412650761" text-anchor="start" class="chart-muted" font-size="11" font-family="-apple-system, BlinkMacSystemFont, 'Segoe UI', Helvetica, Arial, sans-serif">40,000</text>
    <line x1="60" y1="86.66192658134514" x2="770" y2="86.66192658134514" class="chart-grid" stroke-opacity="0.3" />
    <text x="778" y="90.66192658134514" text-anchor="start" class="chart-muted" font-size="11" font-family="-apple-system, BlinkMacSystemFont, 'Segoe UI', Helvetica, Arial, sans-serif">50,000</text>
    <line x1="60" y1="33.994311897614125" x2="770" y2="33.994311897614125" class="chart-grid" stroke-opacity="0.3" />
    <text x="778" y="37.994311897614125" text-anchor="start" class="chart-muted" font-size="11" font-family="-apple-system, BlinkMacSystemFont, 'Segoe UI', Helvetica, Arial, sans-serif">60,000</text>
  </g>
  <g class="milestones">
    
  </g>
  <g class="x-axis">
    <text x="60" y="370" text-anchor="middle" class="chart-muted" font-size="11" font-family="-apple-system, BlinkMacSystemFont, 'Segoe UI', Helvetica, Arial, sans-serif">Jun 23</text>
    <text x="178.33333333333331" y="370" text-anchor="middle" class="chart-muted" font-size="11" font-family="-apple-system, BlinkMacSystemFont, 'Segoe UI', Helvetica, Arial, sans-serif">Jun 24</text>
    <text x="296.66666666666663" y="370" text-anchor="middle" class="chart-muted" font-size="11" font-family="-apple-system, BlinkMacSystemFont, 'Segoe UI', Helvetica, Arial, sans-serif">Jun 24</text>
    <text x="415" y="370" text-anchor="middle" class="chart-muted" font-size="11" font-family="-apple-system, BlinkMacSystemFont, 'Segoe UI', Helvetica, Arial, sans-serif">Jun 24</text>
    <text x="533.3333333333333" y="370" text-anchor="middle" class="chart-muted" font-size="11" font-family="-apple-system, BlinkMacSystemFont, 'Segoe UI', Helvetica, Arial, sans-serif">Jun 24</text>
    <text x="651.6666666666667" y="370" text-anchor="middle" class="chart-muted" font-size="11" font-family="-apple-system, BlinkMacSystemFont, 'Segoe UI', Helvetica, Arial, sans-serif">Jun 24</text>
    <text x="770" y="370" text-anchor="middle" class="chart-muted" font-size="11" font-family="-apple-system, BlinkMacSystemFont, 'Segoe UI', Helvetica, Arial, sans-serif">Jun 24</text>
  </g>
  <line x1="770" y1="50" x2="770" y2="350" class="chart-axis" stroke-width="1" />
  <line x1="60" y1="350" x2="770" y2="350" class="chart-axis" stroke-width="1" />
  
  
  
  
  
  
  
  
  
  
  <path d="M60,77.31869173645129 C75.77777777777777,77.31728726672638 146.77777777777777,77.31307385755166 178.33333333333331,77.3081582135145 C209.88888888888886,77.30324256947735 265.1111111111111,77.28603781534733 296.66666666666663,77.28182440617263 C328.2222222222222,77.27761099699794 383.44444444444446,77.27725987956671 415,77.27655764470427 C446.55555555555554,77.27655764470427 501.7777777777777,77.27655764470427 533.3333333333333,77.27655764470427 C564.8888888888888,77.27655764470427 620.1111111111112,77.27655764470427 651.6666666666667,77.27655764470427 C683.2222222222223,77.27655764470427 754.2222222222223,77.27655764470427 770,77.27655764470427" fill="none" stroke="#dfb317" stroke-width="2" class="data-line-0" />
  <path d="M60,350 C75.77777777777777,350 146.77777777777777,350 178.33333333333331,350 C209.88888888888886,335.71232948859745 265.1111111111111,257.1301416758835 296.66666666666663,242.84247116448097 C328.2222222222222,242.84247116448097 383.44444444444446,242.84247116448097 415,242.84247116448097 C446.55555555555554,242.84247116448097 501.7777777777777,242.84247116448097 533.3333333333333,242.84247116448097 C564.8888888888888,242.84247116448097 620.1111111111112,242.84247116448097 651.6666666666667,242.84247116448097 C683.2222222222223,242.84247116448097 754.2222222222223,242.84247116448097 770,242.84247116448097" fill="none" stroke="#28a745" stroke-width="2" class="data-line-1" />
  <path d="M60,350 C75.77777777777777,350 146.77777777777777,350 178.33333333333331,350 C209.88888888888886,347.2942890749811 265.1111111111111,332.4128789873773 296.66666666666663,329.70716806235845 C328.2222222222222,329.70716806235845 383.44444444444446,329.70716806235845 415,329.70716806235845 C446.55555555555554,329.70716806235845 501.7777777777777,329.70716806235845 533.3333333333333,329.70716806235845 C564.8888888888888,329.70716806235845 620.1111111111112,329.70716806235845 651.6666666666667,329.70716806235845 C683.2222222222223,329.70716806235845 754.2222222222223,329.70716806235845 770,329.70716806235845" fill="none" stroke="#e74c3c" stroke-width="2" class="data-line-2" />
  <path d="M60,350 C75.77777777777777,350 146.77777777777777,350 178.33333333333331,350 C209.88888888888886,348.47193693930933 265.1111111111111,340.0675901055108 296.66666666666663,338.53952704482015 C328.2222222222222,338.53952704482015 383.44444444444446,338.53952704482015 415,338.53952704482015 C446.55555555555554,338.53952704482015 501.7777777777777,338.53952704482015 533.3333333333333,338.53952704482015 C564.8888888888888,338.53952704482015 620.1111111111112,338.53952704482015 651.6666666666667,338.53952704482015 C683.2222222222223,338.53952704482015 754.2222222222223,338.53952704482015 770,338.53952704482015" fill="none" stroke="#3498db" stroke-width="2" class="data-line-3" />
  <path d="M60,350 C75.77777777777777,350 146.77777777777777,350 178.33333333333331,350 C209.88888888888886,348.6840118677692 265.1111111111111,341.44607714049965 296.66666666666663,340.13008900826884 C328.2222222222222,340.13008900826884 383.44444444444446,340.13008900826884 415,340.13008900826884 C446.55555555555554,340.13008900826884 501.7777777777777,340.13008900826884 533.3333333333333,340.13008900826884 C564.8888888888888,340.13008900826884 620.1111111111112,340.13008900826884 651.6666666666667,340.13008900826884 C683.2222222222223,340.13008900826884 754.2222222222223,340.13008900826884 770,340.13008900826884" fill="none" stroke="#9b59b6" stroke-width="2" class="data-line-4" />
  <path d="M60,350 C75.77777777777777,350 146.77777777777777,350 178.33333333333331,350 C209.88888888888886,349.4761327926125 265.1111111111111,346.5948631519812 296.66666666666663,346.0709959445937 C328.2222222222222,346.0709959445937 383.44444444444446,346.0709959445937 415,346.0709959445937 C446.55555555555554,346.0709959445937 501.7777777777777,346.0709959445937 533.3333333333333,346.0709959445937 C564.8888888888888,346.0709959445937 620.1111111111112,346.0709959445937 651.6666666666667,346.0709959445937 C683.2222222222223,346.0709959445937 754.2222222222223,346.0709959445937 770,346.0709959445937" fill="none" stroke="#e67e22" stroke-width="2" class="data-line-5" />
  <path d="M60,350 C75.77777777777777,350 146.77777777777777,350 178.33333333333331,350 C209.88888888888886,349.72402169905723 265.1111111111111,348.20614104387215 296.66666666666663,347.9301627429294 C328.2222222222222,347.9301627429294 383.44444444444446,347.9301627429294 415,347.9301627429294 C446.55555555555554,347.9301627429294 501.7777777777777,347.9301627429294 533.3333333333333,347.9301627429294 C564.8888888888888,347.9301627429294 620.1111111111112,347.9301627429294 651.6666666666667,347.9301627429294 C683.2222222222223,347.9301627429294 754.2222222222223,347.9301627429294 770,347.9301627429294" fill="none" stroke="#1abc9c" stroke-width="2" class="data-line-6" />
  <path d="M60,350 C75.77777777777777,350 146.77777777777777,350 178.33333333333331,350 C209.88888888888886,349.83989045136144 265.1111111111111,348.9592879338495 296.66666666666663,348.79917838521095 C328.2222222222222,348.79917838521095 383.44444444444446,348.79917838521095 415,348.79917838521095 C446.55555555555554,348.79917838521095 501.7777777777777,348.79917838521095 533.3333333333333,348.79917838521095 C564.8888888888888,348.79917838521095 620.1111111111112,348.79917838521095 651.6666666666667,348.79917838521095 C683.2222222222223,348.79917838521095 754.2222222222223,348.79917838521095 770,348.79917838521095" fill="none" stroke="#e84393" stroke-width="2" class="data-line-7" />
  <path d="M60,350 C75.77777777777777,350 146.77777777777777,350 178.33333333333331,350 C209.88888888888886,349.8518284440231 265.1111111111111,349.0368848861502 296.66666666666663,348.8887133301733 C328.2222222222222,348.8887133301733 383.44444444444446,348.8887133301733 415,348.8887133301733 C446.55555555555554,348.8887133301733 501.7777777777777,348.8887133301733 533.3333333333333,348.8887133301733 C564.8888888888888,348.8887133301733 620.1111111111112,348.8887133301733 651.6666666666667,348.8887133301733 C683.2222222222223,348.8887133301733 754.2222222222223,348.8887133301733 770,348.8887133301733" fill="none" stroke="#795548" stroke-width="2" class="data-line-8" />
  <path d="M60,350 C75.77777777777777,350 146.77777777777777,350 178.33333333333331,350 C209.88888888888886,349.8567440880602 265.1111111111111,349.06883657239166 296.66666666666663,348.9255806604519 C328.2222222222222,348.9255806604519 383.44444444444446,348.9255806604519 415,348.9255806604519 C446.55555555555554,348.9255806604519 501.7777777777777,348.9255806604519 533.3333333333333,348.9255806604519 C564.8888888888888,348.9255806604519 620.1111111111112,348.9255806604519 651.6666666666667,348.9255806604519 C683.2222222222223,348.9255806604519 754.2222222222223,348.9255806604519 770,348.9255806604519" fill="none" stroke="#00bcd4" stroke-width="2" class="data-line-9" />
  <g class="points">
    
    <circle cx="60" cy="77.31869173645129" r="4" fill="#dfb317" class="data-point" style="animation-delay: 1.50s" />
    <circle cx="178.33333333333331" cy="77.3081582135145" r="4" fill="#dfb317" class="data-point" style="animation-delay: 1.55s" />
    <circle cx="296.66666666666663" cy="77.28182440617263" r="4" fill="#dfb317" class="data-point" style="animation-delay: 1.60s" />
    <circle cx="415" cy="77.27655764470427" r="4" fill="#dfb317" class="data-point" style="animation-delay: 1.65s" />
    <circle cx="533.3333333333333" cy="77.27655764470427" r="4" fill="#dfb317" class="data-point" style="animation-delay: 1.70s" />
    <circle cx="651.6666666666667" cy="77.27655764470427" r="4" fill="#dfb317" class="data-point" style="animation-delay: 1.75s" />
    <circle cx="770" cy="77.27655764470427" r="4" fill="#dfb317" class="data-point" style="animation-delay: 1.80s" />
    
    <circle cx="60" cy="350" r="4" fill="#28a745" class="data-point" style="animation-delay: 1.50s" />
    <circle cx="178.33333333333331" cy="350" r="4" fill="#28a745" class="data-point" style="animation-delay: 1.55s" />
    <circle cx="296.66666666666663" cy="242.84247116448097" r="4" fill="#28a745" class="data-point" style="animation-delay: 1.60s" />
    <circle cx="415" cy="242.84247116448097" r="4" fill="#28a745" class="data-point" style="animation-delay: 1.65s" />
    <circle cx="533.3333333333333" cy="242.84247116448097" r="4" fill="#28a745" class="data-point" style="animation-delay: 1.70s" />
    <circle cx="651.6666666666667" cy="242.84247116448097" r="4" fill="#28a745" class="data-point" style="animation-delay: 1.75s" />
    <circle cx="770" cy="242.84247116448097" r="4" fill="#28a745" class="data-point" style="animation-delay: 1.80s" />
    
    <circle cx="60" cy="350" r="4" fill="#e74c3c" class="data-point" style="animation-delay: 1.50s" />
    <circle cx="178.33333333333331" cy="350" r="4" fill="#e74c3c" class="data-point" style="animation-delay: 1.55s" />
    <circle cx="296.66666666666663" cy="329.70716806235845" r="4" fill="#e74c3c" class="data-point" style="animation-delay: 1.60s" />
    <circle cx="415" cy="329.70716806235845" r="4" fill="#e74c3c" class="data-point" style="animation-delay: 1.65s" />
    <circle cx="533.3333333333333" cy="329.70716806235845" r="4" fill="#e74c3c" class="data-point" style="animation-delay: 1.70s" />
    <circle cx="651.6666666666667" cy="329.70716806235845" r="4" fill="#e74c3c" class="data-point" style="animation-delay: 1.75s" />
    <circle cx="770" cy="329.70716806235845" r="4" fill="#e74c3c" class="data-point" style="animation-delay: 1.80s" />
    
    <circle cx="60" cy="350" r="4" fill="#3498db" class="data-point" style="animation-delay: 1.50s" />
    <circle cx="178.33333333333331" cy="350" r="4" fill="#3498db" class="data-point" style="animation-delay: 1.55s" />
    <circle cx="296.66666666666663" cy="338.53952704482015" r="4" fill="#3498db" class="data-point" style="animation-delay: 1.60s" />
    <circle cx="415" cy="338.53952704482015" r="4" fill="#3498db" class="data-point" style="animation-delay: 1.65s" />
    <circle cx="533.3333333333333" cy="338.53952704482015" r="4" fill="#3498db" class="data-point" style="animation-delay: 1.70s" />
    <circle cx="651.6666666666667" cy="338.53952704482015" r="4" fill="#3498db" class="data-point" style="animation-delay: 1.75s" />
    <circle cx="770" cy="338.53952704482015" r="4" fill="#3498db" class="data-point" style="animation-delay: 1.80s" />
    
    <circle cx="60" cy="350" r="4" fill="#9b59b6" class="data-point" style="animation-delay: 1.50s" />
    <circle cx="178.33333333333331" cy="350" r="4" fill="#9b59b6" class="data-point" style="animation-delay: 1.55s" />
    <circle cx="296.66666666666663" cy="340.13008900826884" r="4" fill="#9b59b6" class="data-point" style="animation-delay: 1.60s" />
    <circle cx="415" cy="340.13008900826884" r="4" fill="#9b59b6" class="data-point" style="animation-delay: 1.65s" />
    <circle cx="533.3333333333333" cy="340.13008900826884" r="4" fill="#9b59b6" class="data-point" style="animation-delay: 1.70s" />
    <circle cx="651.6666666666667" cy="340.13008900826884" r="4" fill="#9b59b6" class="data-point" style="animation-delay: 1.75s" />
    <circle cx="770" cy="340.13008900826884" r="4" fill="#9b59b6" class="data-point" style="animation-delay: 1.80s" />
    
    <circle cx="60" cy="350" r="4" fill="#e67e22" class="data-point" style="animation-delay: 1.50s" />
    <circle cx="178.33333333333331" cy="350" r="4" fill="#e67e22" class="data-point" style="animation-delay: 1.55s" />
    <circle cx="296.66666666666663" cy="346.0709959445937" r="4" fill="#e67e22" class="data-point" style="animation-delay: 1.60s" />
    <circle cx="415" cy="346.0709959445937" r="4" fill="#e67e22" class="data-point" style="animation-delay: 1.65s" />
    <circle cx="533.3333333333333" cy="346.0709959445937" r="4" fill="#e67e22" class="data-point" style="animation-delay: 1.70s" />
    <circle cx="651.6666666666667" cy="346.0709959445937" r="4" fill="#e67e22" class="data-point" style="animation-delay: 1.75s" />
    <circle cx="770" cy="346.0709959445937" r="4" fill="#e67e22" class="data-point" style="animation-delay: 1.80s" />
    
    <circle cx="60" cy="350" r="4" fill="#1abc9c" class="data-point" style="animation-delay: 1.50s" />
    <circle cx="178.33333333333331" cy="350" r="4" fill="#1abc9c" class="data-point" style="animation-delay: 1.55s" />
    <circle cx="296.66666666666663" cy="347.9301627429294" r="4" fill="#1abc9c" class="data-point" style="animation-delay: 1.60s" />
    <circle cx="415" cy="347.9301627429294" r="4" fill="#1abc9c" class="data-point" style="animation-delay: 1.65s" />
    <circle cx="533.3333333333333" cy="347.9301627429294" r="4" fill="#1abc9c" class="data-point" style="animation-delay: 1.70s" />
    <circle cx="651.6666666666667" cy="347.9301627429294" r="4" fill="#1abc9c" class="data-point" style="animation-delay: 1.75s" />
    <circle cx="770" cy="347.9301627429294" r="4" fill="#1abc9c" class="data-point" style="animation-delay: 1.80s" />
    
    <circle cx="60" cy="350" r="4" fill="#e84393" class="data-point" style="animation-delay: 1.50s" />
    <circle cx="178.33333333333331" cy="350" r="4" fill="#e84393" class="data-point" style="animation-delay: 1.55s" />
    <circle cx="296.66666666666663" cy="348.79917838521095" r="4" fill="#e84393" class="data-point" style="animation-delay: 1.60s" />
    <circle cx="415" cy="348.79917838521095" r="4" fill="#e84393" class="data-point" style="animation-delay: 1.65s" />
    <circle cx="533.3333333333333" cy="348.79917838521095" r="4" fill="#e84393" class="data-point" style="animation-delay: 1.70s" />
    <circle cx="651.6666666666667" cy="348.79917838521095" r="4" fill="#e84393" class="data-point" style="animation-delay: 1.75s" />
    <circle cx="770" cy="348.79917838521095" r="4" fill="#e84393" class="data-point" style="animation-delay: 1.80s" />
    
    <circle cx="60" cy="350" r="4" fill="#795548" class="data-point" style="animation-delay: 1.50s" />
    <circle cx="178.33333333333331" cy="350" r="4" fill="#795548" class="data-point" style="animation-delay: 1.55s" />
    <circle cx="296.66666666666663" cy="348.8887133301733" r="4" fill="#795548" class="data-point" style="animation-delay: 1.60s" />
    <circle cx="415" cy="348.8887133301733" r="4" fill="#795548" class="data-point" style="animation-delay: 1.65s" />
    <circle cx="533.3333333333333" cy="348.8887133301733" r="4" fill="#795548" class="data-point" style="animation-delay: 1.70s" />
    <circle cx="651.6666666666667" cy="348.8887133301733" r="4" fill="#795548" class="data-point" style="animation-delay: 1.75s" />
    <circle cx="770" cy="348.8887133301733" r="4" fill="#795548" class="data-point" style="animation-delay: 1.80s" />
    
    <circle cx="60" cy="350" r="4" fill="#00bcd4" class="data-point" style="animation-delay: 1.50s" />
    <circle cx="178.33333333333331" cy="350" r="4" fill="#00bcd4" class="data-point" style="animation-delay: 1.55s" />
    <circle cx="296.66666666666663" cy="348.9255806604519" r="4" fill="#00bcd4" class="data-point" style="animation-delay: 1.60s" />
    <circle cx="415" cy="348.9255806604519" r="4" fill="#00bcd4" class="data-point" style="animation-delay: 1.65s" />
    <circle cx="533.3333333333333" cy="348.9255806604519" r="4" fill="#00bcd4" class="data-point" style="animation-delay: 1.70s" />
    <circle cx="651.6666666666667" cy="348.9255806604519" r="4" fill="#00bcd4" class="data-point" style="animation-delay: 1.75s" />
    <circle cx="770" cy="348.9255806604519" r="4" fill="#00bcd4" class="data-point" style="animation-delay: 1.80s" />
  </g>
</svg>