<svg xmlns="http://www.w3.org/2000/svg" viewBox="0 0 800 400" width="800" height="400">
  <style>
    @keyframes drawLine {
      to { stroke-dashoffset: 0; }
    }
    @keyframes fadeInPoint {
      from { opacity: 0; }
      to { opacity: 1; }
    }
    .data-line-0 {
      stroke-dasharray: 1066;
      stroke-dashoffset: 1066;
      animation: drawLine 2s ease-out forwards;
    }
    .data-line-1 {
      stroke-dasharray: 1141;
      stroke-dashoffset: 1141;
      animation: drawLine 2s ease-out forwards;
    }
    .data-line-2 {
      stroke-dasharray: 1069;
      stroke-dashoffset: 1069;
      animation: drawLine 2s ease-out forwards;
    }
    .data-line-3 {
      stroke-dasharray: 1067;
      stroke-dashoffset: 1067;
      animation: drawLine 2s ease-out forwards;
    }
    .data-line-4 {
      stroke-dasharray: 1066;
      stroke-dashoffset: 1066;
      animation: drawLine 2s ease-out forwards;
    }
    .data-line-5 {
      stroke-dasharray: 1066;
      stroke-dashoffset: 1066;
      animation: drawLine 2s ease-out forwards;
    }
    .data-line-6 {
      stroke-dasharray: 1066;
      stroke-dashoffset: 1066;
      animation: drawLine 2s ease-out forwards;
    }
    .data-line-7 {
      stroke-dasharray: 1066;
      stroke-dashoffset: 1066;
      animation: drawLine 2s ease-out forwards;
    }
    .data-line-8 {
      stroke-dasharray: 1066;
      stroke-dashoffset: 1066;
      animation: drawLine 2s ease-out forwards;
    }
    .data-line-9 {
      stroke-dasharray: 1066;
      stroke-dashoffset: 1066;
      animation: drawLine 2s ease-out forwards;
    }
    .data-point {
      opacity: 0;
      animation: fadeInPoint 0.5s ease-out forwards;
    }
    .chart-bg { fill: #fff; }
    .chart-text { fill: #24292e; }
    .chart-muted { fill: #6a737d; }
    .chart-grid { stroke: #eee; }
    .chart-axis { stroke: #6a737d; }
    @media (prefers-color-scheme: dark) {
      .chart-bg { fill: #0d1117; }
      .chart-text { fill: #e6edf3; }
      .chart-muted { fill: #8b949e; }
      .chart-grid { stroke: #21262d; }
      .chart-axis { stroke: #8b949e; }
    }
  </style>
  <rect width="800" height="400" class="chart-bg" />
  <text x="400" y="14" text-anchor="middle" class="chart-text" font-size="16" font-weight="bold" font-family="-apple-system, BlinkMacSystemFont, 'Segoe UI', Helvetica, Arial, sans-serif">Top Repositories</text>
  <g class="legend">
    <rect x="-200" y="25" width="12" height="3" fill="#dfb317" />
    <line x1="-200" y1="26.5" x2="-188" y2="26.5" stroke="#dfb317" stroke-width="2" />
    <text x="-184" y="30" class="chart-text" font-size="10" font-family="-apple-system, BlinkMacSystemFont, 'Segoe UI', Helvetica, Arial, sans-serif">dockur/windows</text>
    <rect x="-80" y="25" width="12" height="3" fill="#28a745" />
    <line x1="-80" y1="26.5" x2="-68" y2="26.5" stroke="#28a745" stroke-width="2" />
    <text x="-64" y="30" class="chart-text" font-size="10" font-family="-apple-system, BlinkMacSystemFont, 'Segoe UI', Helvetica, Arial, sans-serif">dockur/macos</text>
    <rect x="40" y="25" width="12" height="3" fill="#e74c3c" />
    <line x1="40" y1="26.5" x2="52" y2="26.5" stroke="#e74c3c" stroke-width="2" />
    <text x="56" y="30" class="chart-text" font-size="10" font-family="-apple-system, BlinkMacSystemFont, 'Segoe UI', Helvetica, Arial, sans-serif">vdsm/virtual-dsm</text>
    <rect x="160" y="25" width="12" height="3" fill="#3498db" />
    <line x1="160" y1="26.5" x2="172" y2="26.5" stroke="#3498db" stroke-width="2" />
    <text x="176" y="30" class="chart-text" font-size="10" font-family="-apple-system, BlinkMacSystemFont, 'Segoe UI', Helvetica, Arial, sans-serif">dockur/windows-arm</text>
    <rect x="280" y="25" width="12" height="3" fill="#9b59b6" />
    <line x1="280" y1="26.5" x2="292" y2="26.5" stroke="#9b59b6" stroke-width="2" />
    <text x="296" y="30" class="chart-text" font-size="10" font-family="-apple-system, BlinkMacSystemFont, 'Segoe UI', Helvetica, Arial, sans-serif">qemus/qemu</text>
    <rect x="400" y="25" width="12" height="3" fill="#e67e22" />
    <line x1="400" y1="26.5" x2="412" y2="26.5" stroke="#e67e22" stroke-width="2" />
    <text x="416" y="30" class="chart-text" font-size="10" font-family="-apple-system, BlinkMacSystemFont, 'Segoe UI', Helvetica, Arial, sans-serif">dockur/samba</text>
    <rect x="520" y="25" width="12" height="3" fill="#1abc9c" />
    <line x1="520" y1="26.5" x2="532" y2="26.5" stroke="#1abc9c" stroke-width="2" />
    <text x="536" y="30" class="chart-text" font-size="10" font-family="-apple-system, BlinkMacSystemFont, 'Segoe UI', Helvetica, Arial, sans-serif">dockur/umbrel</text>
    <rect x="640" y="25" width="12" height="3" fill="#e84393" />
    <line x1="640" y1="26.5" x2="652" y2="26.5" stroke="#e84393" stroke-width="2" />
    <text x="656" y="30" class="chart-text" font-size="10" font-family="-apple-system, BlinkMacSystemFont, 'Segoe UI', Helvetica, Arial, sans-serif">dockur/proxmox</text>
    <rect x="760" y="25" width="12" height="3" fill="#795548" />
    <line x1="760" y1="26.5" x2="772" y2="26.5" stroke="#795548" stroke-width="2" />
    <text x="776" y="30" class="chart-text" font-size="10" font-family="-apple-system, BlinkMacSystemFont, 'Segoe UI', Helvetica, Arial, sans-serif">dockur/casa</text>
    <rect x="880" y="25" width="12" height="3" fill="#00bcd4" />
    <line x1="880" y1="26.5" x2="892" y2="26.5" stroke="#00bcd4" stroke-width="2" />
    <text x="896" y="30" class="chart-text" font-size="10" font-family="-apple-system, BlinkMacSystemFont, 'Segoe UI', Helvetica, Arial, sans-serif">dockur/tor</text>
  </g>
  <g class="grid">
    <line x1="60" y1="350" x2="770" y2="350" class="chart-grid" stroke-opacity="0.3" />
    <text x="778" y="354" text-anchor="start" class="chart-muted" font-size="11" font-family="-apple-system, BlinkMacSystemFont, 'Segoe UI', Helvetica, Arial, sans-serif">0</text>
    <line x1="60" y1="297.33608356008074" x2="770" y2="297.33608356008074" class="chart-grid" stroke-opacity="0.3" />
    <text x="778" y="301.33608356008074" text-anchor="start" class="chart-muted" font-size="11" font-family="-apple-system, BlinkMacSystemFont, 'Segoe UI', Helvetica, Arial, sans-serif">10,000</text>
    <line x1="60" y1="244.6721671201615" x2="770" y2="244.6721671201615" class="chart-grid" stroke-opacity="0.3" />
    <text x="778" y="248.6721671201615" text-anchor="start" class="chart-muted" font-size="11" font-family="-apple-system, BlinkMacSystemFont, 'Segoe UI', Helvetica, Arial, sans-serif">20,000</text>
    <line x1="60" y1="192.00825068024227" x2="770" y2="192.00825068024227" class="chart-grid" stroke-opacity="0.3" />
    <text x="778" y="196.00825068024227" text-anchor="start" class="chart-muted" font-size="11" font-family="-apple-system, BlinkMacSystemFont, 'Segoe UI', Helvetica, Arial, sans-serif">30,000</text>
    <line x1="60" y1="139.344334240323" x2="770" y2="139.344334240323" class="chart-grid" stroke-opacity="0.3" />
    <text x="778" y="143.344334240323" text-anchor="start" class="chart-muted" font-size="11" font-family="-apple-system, BlinkMacSystemFont, 'Segoe UI', Helvetica, Arial, sans-serif">40,000</text>
    <line x1="60" y1="86.68041780040375" x2="770" y2="86.68041780040375" class="chart-grid" stroke-opacity="0.3" />
    <text x="778" y="90.68041780040375" text-anchor="start" class="chart-muted" font-size="11" font-family="-apple-system, BlinkMacSystemFont, 'Segoe UI', Helvetica, Arial, sans-serif">50,000</text>
    <line x1="60" y1="34.01650136048454" x2="770" y2="34.01650136048454" class="chart-grid" stroke-opacity="0.3" />
    <text x="778" y="38.01650136048454" text-anchor="start" class="chart-muted" font-size="11" font-family="-apple-system, BlinkMacSystemFont, 'Segoe UI', Helvetica, Arial, sans-serif">60,000</text>
  </g>
  <g class="milestones">
    
  </g>
  <g class="x-axis">
    <text x="60" y="370" text-anchor="middle" class="chart-muted" font-size="11" font-family="-apple-system, BlinkMacSystemFont, 'Segoe UI', Helvetica, Arial, sans-serif">Jun 23</text>
    <text x="148.75" y="370" text-anchor="middle" class="chart-muted" font-size="11" font-family="-apple-system, BlinkMacSystemFont, 'Segoe UI', Helvetica, Arial, sans-serif">Jun 24</text>
    <text x="237.5" y="370" text-anchor="middle" class="chart-muted" font-size="11" font-family="-apple-system, BlinkMacSystemFont, 'Segoe UI', Helvetica, Arial, sans-serif">Jun 24</text>
    <text x="326.25" y="370" text-anchor="middle" class="chart-muted" font-size="11" font-family="-apple-system, BlinkMacSystemFont, 'Segoe UI', Helvetica, Arial, sans-serif">Jun 24</text>
    <text x="415" y="370" text-anchor="middle" class="chart-muted" font-size="11" font-family="-apple-system, BlinkMacSystemFont, 'Segoe UI', Helvetica, Arial, sans-serif">Jun 24</text>
    <text x="503.75" y="370" text-anchor="middle" class="chart-muted" font-size="11" font-family="-apple-system, BlinkMacSystemFont, 'Segoe UI', Helvetica, Arial, sans-serif">Jun 24</text>
    <text x="592.5" y="370" text-anchor="middle" class="chart-muted" font-size="11" font-family="-apple-system, BlinkMacSystemFont, 'Segoe UI', Helvetica, Arial, sans-serif">Jun 24</text>
    <text x="681.25" y="370" text-anchor="middle" class="chart-muted" font-size="11" font-family="-apple-system, BlinkMacSystemFont, 'Segoe UI', Helvetica, Arial, sans-serif">Jun 25</text>
    <text x="770" y="370" text-anchor="middle" class="chart-muted" font-size="11" font-family="-apple-system, BlinkMacSystemFont, 'Segoe UI', Helvetica, Arial, sans-serif">Jun 25</text>
  </g>
  <line x1="770" y1="50" x2="770" y2="350" class="chart-axis" stroke-width="1" />
  <line x1="60" y1="350" x2="770" y2="350" class="chart-axis" stroke-width="1" />
  
  
  
  
  
  
  
  
  
  
  <path d="M60,77.33783902396209 L148.75,77.32730624067409 L237.5,77.30097428245415 L326.25,77.29570789081015 L415,77.29570789081015 L503.75,77.29570789081015 L592.5,77.29570789081015 L681.25,77.28517510752215 L770,77.27464232423421" fill="none" stroke="#dfb317" stroke-width="2" class="data-line-0" />
  <path d="M60,350 L148.75,350 L237.5,242.8499956113403 L326.25,242.8499956113403 L415,242.8499956113403 L503.75,242.8499956113403 L592.5,242.8499956113403 L681.25,242.83419643640832 L770,242.83419643640832" fill="none" stroke="#28a745" stroke-width="2" class="data-line-1" />
  <path d="M60,350 L148.75,350 L237.5,329.7085929956991 L326.25,329.7085929956991 L415,329.7085929956991 L503.75,329.7085929956991 L592.5,329.7085929956991 L681.25,329.7085929956991 L770,329.7085929956991" fill="none" stroke="#e74c3c" stroke-width="2" class="data-line-2" />
  <path d="M60,350 L148.75,350 L237.5,338.54033178267355 L326.25,338.54033178267355 L415,338.54033178267355 L503.75,338.54033178267355 L592.5,338.54033178267355 L681.25,338.54033178267355 L770,338.54033178267355" fill="none" stroke="#3498db" stroke-width="2" class="data-line-3" />
  <path d="M60,350 L148.75,350 L237.5,340.1307820591591 L326.25,340.1307820591591 L415,340.1307820591591 L503.75,340.1307820591591 L592.5,340.1307820591591 L681.25,340.1307820591591 L770,340.1307820591591" fill="none" stroke="#9b59b6" stroke-width="2" class="data-line-4" />
  <path d="M60,350 L148.75,350 L237.5,346.07127183358205 L326.25,346.07127183358205 L415,346.07127183358205 L503.75,346.07127183358205 L592.5,346.07127183358205 L681.25,346.07127183358205 L770,346.07127183358205" fill="none" stroke="#e67e22" stroke-width="2" class="data-line-5" />
  <path d="M60,350 L148.75,350 L237.5,347.9303080839112 L326.25,347.9303080839112 L415,347.9303080839112 L503.75,347.9303080839112 L592.5,347.9303080839112 L681.25,347.9303080839112 L770,347.9250416922672" fill="none" stroke="#1abc9c" stroke-width="2" class="data-line-6" />
  <path d="M60,350 L148.75,350 L237.5,348.79926270516984 L326.25,348.79926270516984 L415,348.79926270516984 L503.75,348.79926270516984 L592.5,348.79926270516984 L681.25,348.79926270516984 L770,348.79926270516984" fill="none" stroke="#e84393" stroke-width="2" class="data-line-7" />
  <path d="M60,350 L148.75,350 L237.5,348.8887913631177 L326.25,348.8887913631177 L415,348.8887913631177 L503.75,348.8887913631177 L592.5,348.8887913631177 L681.25,348.8887913631177 L770,348.8887913631177" fill="none" stroke="#795548" stroke-width="2" class="data-line-8" />
  <path d="M60,350 L148.75,350 L237.5,348.92565610462566 L326.25,348.92565610462566 L415,348.92565610462566 L503.75,348.92565610462566 L592.5,348.92565610462566 L681.25,348.92565610462566 L770,348.92565610462566" fill="none" stroke="#00bcd4" stroke-width="2" class="data-line-9" />
  <g class="points">
    
    <circle cx="60" cy="77.33783902396209" r="4" fill="#dfb317" class="data-point" style="animation-delay: 1.50s" />
    <circle cx="148.75" cy="77.32730624067409" r="4" fill="#dfb317" class="data-point" style="animation-delay: 1.55s" />
    <circle cx="237.5" cy="77.30097428245415" r="4" fill="#dfb317" class="data-point" style="animation-delay: 1.60s" />
    <circle cx="326.25" cy="77.29570789081015" r="4" fill="#dfb317" class="data-point" style="animation-delay: 1.65s" />
    <circle cx="415" cy="77.29570789081015" r="4" fill="#dfb317" class="data-point" style="animation-delay: 1.70s" />
    <circle cx="503.75" cy="77.29570789081015" r="4" fill="#dfb317" class="data-point" style="animation-delay: 1.75s" />
    <circle cx="592.5" cy="77.29570789081015" r="4" fill="#dfb317" class="data-point" style="animation-delay: 1.80s" />
    <circle cx="681.25" cy="77.28517510752215" r="4" fill="#dfb317" class="data-point" style="animation-delay: 1.85s" />
    <circle cx="770" cy="77.27464232423421" r="4" fill="#dfb317" class="data-point" style="animation-delay: 1.90s" />
    
    <circle cx="60" cy="350" r="4" fill="#28a745" class="data-point" style="animation-delay: 1.50s" />
    <circle cx="148.75" cy="350" r="4" fill="#28a745" class="data-point" style="animation-delay: 1.55s" />
    <circle cx="237.5" cy="242.8499956113403" r="4" fill="#28a745" class="data-point" style="animation-delay: 1.60s" />
    <circle cx="326.25" cy="242.8499956113403" r="4" fill="#28a745" class="data-point" style="animation-delay: 1.65s" />
    <circle cx="415" cy="242.8499956113403" r="4" fill="#28a745" class="data-point" style="animation-delay: 1.70s" />
    <circle cx="503.75" cy="242.8499956113403" r="4" fill="#28a745" class="data-point" style="animation-delay: 1.75s" />
    <circle cx="592.5" cy="242.8499956113403" r="4" fill="#28a745" class="data-point" style="animation-delay: 1.80s" />
    <circle cx="681.25" cy="242.83419643640832" r="4" fill="#28a745" class="data-point" style="animation-delay: 1.85s" />
    <circle cx="770" cy="242.83419643640832" r="4" fill="#28a745" class="data-point" style="animation-delay: 1.90s" />
    
    <circle cx="60" cy="350" r="4" fill="#e74c3c" class="data-point" style="animation-delay: 1.50s" />
    <circle cx="148.75" cy="350" r="4" fill="#e74c3c" class="data-point" style="animation-delay: 1.55s" />
    <circle cx="237.5" cy="329.7085929956991" r="4" fill="#e74c3c" class="data-point" style="animation-delay: 1.60s" />
    <circle cx="326.25" cy="329.7085929956991" r="4" fill="#e74c3c" class="data-point" style="animation-delay: 1.65s" />
    <circle cx="415" cy="329.7085929956991" r="4" fill="#e74c3c" class="data-point" style="animation-delay: 1.70s" />
    <circle cx="503.75" cy="329.7085929956991" r="4" fill="#e74c3c" class="data-point" style="animation-delay: 1.75s" />
    <circle cx="592.5" cy="329.7085929956991" r="4" fill="#e74c3c" class="data-point" style="animation-delay: 1.80s" />
    <circle cx="681.25" cy="329.7085929956991" r="4" fill="#e74c3c" class="data-point" style="animation-delay: 1.85s" />
    <circle cx="770" cy="329.7085929956991" r="4" fill="#e74c3c" class="data-point" style="animation-delay: 1.90s" />
    
    <circle cx="60" cy="350" r="4" fill="#3498db" class="data-point" style="animation-delay: 1.50s" />
    <circle cx="148.75" cy="350" r="4" fill="#3498db" class="data-point" style="animation-delay: 1.55s" />
    <circle cx="237.5" cy="338.54033178267355" r="4" fill="#3498db" class="data-point" style="animation-delay: 1.60s" />
    <circle cx="326.25" cy="338.54033178267355" r="4" fill="#3498db" class="data-point" style="animation-delay: 1.65s" />
    <circle cx="415" cy="338.54033178267355" r="4" fill="#3498db" class="data-point" style="animation-delay: 1.70s" />
    <circle cx="503.75" cy="338.54033178267355" r="4" fill="#3498db" class="data-point" style="animation-delay: 1.75s" />
    <circle cx="592.5" cy="338.54033178267355" r="4" fill="#3498db" class="data-point" style="animation-delay: 1.80s" />
    <circle cx="681.25" cy="338.54033178267355" r="4" fill="#3498db" class="data-point" style="animation-delay: 1.85s" />
    <circle cx="770" cy="338.54033178267355" r="4" fill="#3498db" class="data-point" style="animation-delay: 1.90s" />
    
    <circle cx="60" cy="350" r="4" fill="#9b59b6" class="data-point" style="animation-delay: 1.50s" />
    <circle cx="148.75" cy="350" r="4" fill="#9b59b6" class="data-point" style="animation-delay: 1.55s" />
    <circle cx="237.5" cy="340.1307820591591" r="4" fill="#9b59b6" class="data-point" style="animation-delay: 1.60s" />
    <circle cx="326.25" cy="340.1307820591591" r="4" fill="#9b59b6" class="data-point" style="animation-delay: 1.65s" />
    <circle cx="415" cy="340.1307820591591" r="4" fill="#9b59b6" class="data-point" style="animation-delay: 1.70s" />
    <circle cx="503.75" cy="340.1307820591591" r="4" fill="#9b59b6" class="data-point" style="animation-delay: 1.75s" />
    <circle cx="592.5" cy="340.1307820591591" r="4" fill="#9b59b6" class="data-point" style="animation-delay: 1.80s" />
    <circle cx="681.25" cy="340.1307820591591" r="4" fill="#9b59b6" class="data-point" style="animation-delay: 1.85s" />
    <circle cx="770" cy="340.1307820591591" r="4" fill="#9b59b6" class="data-point" style="animation-delay: 1.90s" />
    
    <circle cx="60" cy="350" r="4" fill="#e67e22" class="data-point" style="animation-delay: 1.50s" />
    <circle cx="148.75" cy="350" r="4" fill="#e67e22" class="data-point" style="animation-delay: 1.55s" />
    <circle cx="237.5" cy="346.07127183358205" r="4" fill="#e67e22" class="data-point" style="animation-delay: 1.60s" />
    <circle cx="326.25" cy="346.07127183358205" r="4" fill="#e67e22" class="data-point" style="animation-delay: 1.65s" />
    <circle cx="415" cy="346.07127183358205" r="4" fill="#e67e22" class="data-point" style="animation-delay: 1.70s" />
    <circle cx="503.75" cy="346.07127183358205" r="4" fill="#e67e22" class="data-point" style="animation-delay: 1.75s" />
    <circle cx="592.5" cy="346.07127183358205" r="4" fill="#e67e22" class="data-point" style="animation-delay: 1.80s" />
    <circle cx="681.25" cy="346.07127183358205" r="4" fill="#e67e22" class="data-point" style="animation-delay: 1.85s" />
    <circle cx="770" cy="346.07127183358205" r="4" fill="#e67e22" class="data-point" style="animation-delay: 1.90s" />
    
    <circle cx="60" cy="350" r="4" fill="#1abc9c" class="data-point" style="animation-delay: 1.50s" />
    <circle cx="148.75" cy="350" r="4" fill="#1abc9c" class="data-point" style="animation-delay: 1.55s" />
    <circle cx="237.5" cy="347.9303080839112" r="4" fill="#1abc9c" class="data-point" style="animation-delay: 1.60s" />
    <circle cx="326.25" cy="347.9303080839112" r="4" fill="#1abc9c" class="data-point" style="animation-delay: 1.65s" />
    <circle cx="415" cy="347.9303080839112" r="4" fill="#1abc9c" class="data-point" style="animation-delay: 1.70s" />
    <circle cx="503.75" cy="347.9303080839112" r="4" fill="#1abc9c" class="data-point" style="animation-delay: 1.75s" />
    <circle cx="592.5" cy="347.9303080839112" r="4" fill="#1abc9c" class="data-point" style="animation-delay: 1.80s" />
    <circle cx="681.25" cy="347.9303080839112" r="4" fill="#1abc9c" class="data-point" style="animation-delay: 1.85s" />
    <circle cx="770" cy="347.9250416922672" r="4" fill="#1abc9c" class="data-point" style="animation-delay: 1.90s" />
    
    <circle cx="60" cy="350" r="4" fill="#e84393" class="data-point" style="animation-delay: 1.50s" />
    <circle cx="148.75" cy="350" r="4" fill="#e84393" class="data-point" style="animation-delay: 1.55s" />
    <circle cx="237.5" cy="348.79926270516984" r="4" fill="#e84393" class="data-point" style="animation-delay: 1.60s" />
    <circle cx="326.25" cy="348.79926270516984" r="4" fill="#e84393" class="data-point" style="animation-delay: 1.65s" />
    <circle cx="415" cy="348.79926270516984" r="4" fill="#e84393" class="data-point" style="animation-delay: 1.70s" />
    <circle cx="503.75" cy="348.79926270516984" r="4" fill="#e84393" class="data-point" style="animation-delay: 1.75s" />
    <circle cx="592.5" cy="348.79926270516984" r="4" fill="#e84393" class="data-point" style="animation-delay: 1.80s" />
    <circle cx="681.25" cy="348.79926270516984" r="4" fill="#e84393" class="data-point" style="animation-delay: 1.85s" />
    <circle cx="770" cy="348.79926270516984" r="4" fill="#e84393" class="data-point" style="animation-delay: 1.90s" />
    
    <circle cx="60" cy="350" r="4" fill="#795548" class="data-point" style="animation-delay: 1.50s" />
    <circle cx="148.75" cy="350" r="4" fill="#795548" class="data-point" style="animation-delay: 1.55s" />
    <circle cx="237.5" cy="348.8887913631177" r="4" fill="#795548" class="data-point" style="animation-delay: 1.60s" />
    <circle cx="326.25" cy="348.8887913631177" r="4" fill="#795548" class="data-point" style="animation-delay: 1.65s" />
    <circle cx="415" cy="348.8887913631177" r="4" fill="#795548" class="data-point" style="animation-delay: 1.70s" />
    <circle cx="503.75" cy="348.8887913631177" r="4" fill="#795548" class="data-point" style="animation-delay: 1.75s" />
    <circle cx="592.5" cy="348.8887913631177" r="4" fill="#795548" class="data-point" style="animation-delay: 1.80s" />
    <circle cx="681.25" cy="348.8887913631177" r="4" fill="#795548" class="data-point" style="animation-delay: 1.85s" />
    <circle cx="770" cy="348.8887913631177" r="4" fill="#795548" class="data-point" style="animation-delay: 1.90s" />
    
    <circle cx="60" cy="350" r="4" fill="#00bcd4" class="data-point" style="animation-delay: 1.50s" />
    <circle cx="148.75" cy="350" r="4" fill="#00bcd4" class="data-point" style="animation-delay: 1.55s" />
    <circle cx="237.5" cy="348.92565610462566" r="4" fill="#00bcd4" class="data-point" style="animation-delay: 1.60s" />
    <circle cx="326.25" cy="348.92565610462566" r="4" fill="#00bcd4" class="data-point" style="animation-delay: 1.65s" />
    <circle cx="415" cy="348.92565610462566" r="4" fill="#00bcd4" class="data-point" style="animation-delay: 1.70s" />
    <circle cx="503.75" cy="348.92565610462566" r="4" fill="#00bcd4" class="data-point" style="animation-delay: 1.75s" />
    <circle cx="592.5" cy="348.92565610462566" r="4" fill="#00bcd4" class="data-point" style="animation-delay: 1.80s" />
    <circle cx="681.25" cy="348.92565610462566" r="4" fill="#00bcd4" class="data-point" style="animation-delay: 1.85s" />
    <circle cx="770" cy="348.92565610462566" r="4" fill="#00bcd4" class="data-point" style="animation-delay: 1.90s" />
  </g>
</svg>