<svg xmlns="http://www.w3.org/2000/svg" viewBox="0 0 800 400" width="800" height="400">
  <style>
    @keyframes drawLine {
      to { stroke-dashoffset: 0; }
    }
    @keyframes fadeInPoint {
      from { opacity: 0; }
      to { opacity: 1; }
    }
    .data-line-0 {
      stroke-dasharray: 1212;
      stroke-dashoffset: 1212;
      animation: drawLine 2s ease-out forwards;
    }
    .data-line-1 {
      stroke-dasharray: 1117;
      stroke-dashoffset: 1117;
      animation: drawLine 2s ease-out forwards;
    }
    .data-line-2 {
      stroke-dasharray: 1066;
      stroke-dashoffset: 1066;
      animation: drawLine 2s ease-out forwards;
    }
    .data-line-3 {
      stroke-dasharray: 1066;
      stroke-dashoffset: 1066;
      animation: drawLine 2s ease-out forwards;
    }
    .data-line-4 {
      stroke-dasharray: 1066;
      stroke-dashoffset: 1066;
      animation: drawLine 2s ease-out forwards;
    }
    .data-line-5 {
      stroke-dasharray: 1066;
      stroke-dashoffset: 1066;
      animation: drawLine 2s ease-out forwards;
    }
    .data-line-6 {
      stroke-dasharray: 1066;
      stroke-dashoffset: 1066;
      animation: drawLine 2s ease-out forwards;
    }
    .data-line-7 {
      stroke-dasharray: 1066;
      stroke-dashoffset: 1066;
      animation: drawLine 2s ease-out forwards;
    }
    .data-line-8 {
      stroke-dasharray: 1066;
      stroke-dashoffset: 1066;
      animation: drawLine 2s ease-out forwards;
    }
    .data-line-9 {
      stroke-dasharray: 1066;
      stroke-dashoffset: 1066;
      animation: drawLine 2s ease-out forwards;
    }
    .data-point {
      opacity: 0;
      animation: fadeInPoint 0.5s ease-out forwards;
    }
    .chart-bg { fill: #fff; }
    .chart-text { fill: #24292e; }
    .chart-muted { fill: #6a737d; }
    .chart-grid { stroke: #eee; }
    .chart-axis { stroke: #6a737d; }
    @media (prefers-color-scheme: dark) {
      .chart-bg { fill: #0d1117; }
      .chart-text { fill: #e6edf3; }
      .chart-muted { fill: #8b949e; }
      .chart-grid { stroke: #21262d; }
      .chart-axis { stroke: #8b949e; }
    }
  </style>
  <rect width="800" height="400" class="chart-bg" />
  <text x="400" y="14" text-anchor="middle" class="chart-text" font-size="16" font-weight="bold" font-family="-apple-system, BlinkMacSystemFont, 'Segoe UI', Helvetica, Arial, sans-serif">Top Repositories</text>
  <g class="legend">
    <rect x="-200" y="31" width="12" height="3" fill="#dfb317" />
    <line x1="-200" y1="32.5" x2="-188" y2="32.5" stroke="#dfb317" stroke-width="2" />
    <text x="-184" y="36" class="chart-text" font-size="10" font-family="-apple-system, BlinkMacSystemFont, 'Segoe UI', Helvetica, Arial, sans-serif">dockur/windows</text>
    <rect x="-80" y="31" width="12" height="3" fill="#28a745" />
    <line x1="-80" y1="32.5" x2="-68" y2="32.5" stroke="#28a745" stroke-width="2" />
    <text x="-64" y="36" class="chart-text" font-size="10" font-family="-apple-system, BlinkMacSystemFont, 'Segoe UI', Helvetica, Arial, sans-serif">dockur/macos</text>
    <rect x="40" y="31" width="12" height="3" fill="#e74c3c" />
    <line x1="40" y1="32.5" x2="52" y2="32.5" stroke="#e74c3c" stroke-width="2" />
    <text x="56" y="36" class="chart-text" font-size="10" font-family="-apple-system, BlinkMacSystemFont, 'Segoe UI', Helvetica, Arial, sans-serif">vdsm/virtual-dsm</text>
    <rect x="160" y="31" width="12" height="3" fill="#3498db" />
    <line x1="160" y1="32.5" x2="172" y2="32.5" stroke="#3498db" stroke-width="2" />
    <text x="176" y="36" class="chart-text" font-size="10" font-family="-apple-system, BlinkMacSystemFont, 'Segoe UI', Helvetica, Arial, sans-serif">dockur/windows-arm</text>
    <rect x="280" y="31" width="12" height="3" fill="#9b59b6" />
    <line x1="280" y1="32.5" x2="292" y2="32.5" stroke="#9b59b6" stroke-width="2" />
    <text x="296" y="36" class="chart-text" font-size="10" font-family="-apple-system, BlinkMacSystemFont, 'Segoe UI', Helvetica, Arial, sans-serif">qemus/qemu</text>
    <rect x="400" y="31" width="12" height="3" fill="#e67e22" />
    <line x1="400" y1="32.5" x2="412" y2="32.5" stroke="#e67e22" stroke-width="2" />
    <text x="416" y="36" class="chart-text" font-size="10" font-family="-apple-system, BlinkMacSystemFont, 'Segoe UI', Helvetica, Arial, sans-serif">dockur/samba</text>
    <rect x="520" y="31" width="12" height="3" fill="#1abc9c" />
    <line x1="520" y1="32.5" x2="532" y2="32.5" stroke="#1abc9c" stroke-width="2" />
    <text x="536" y="36" class="chart-text" font-size="10" font-family="-apple-system, BlinkMacSystemFont, 'Segoe UI', Helvetica, Arial, sans-serif">dockur/umbrel</text>
    <rect x="640" y="31" width="12" height="3" fill="#e84393" />
    <line x1="640" y1="32.5" x2="652" y2="32.5" stroke="#e84393" stroke-width="2" />
    <text x="656" y="36" class="chart-text" font-size="10" font-family="-apple-system, BlinkMacSystemFont, 'Segoe UI', Helvetica, Arial, sans-serif">dockur/proxmox</text>
    <rect x="760" y="31" width="12" height="3" fill="#795548" />
    <line x1="760" y1="32.5" x2="772" y2="32.5" stroke="#795548" stroke-width="2" />
    <text x="776" y="36" class="chart-text" font-size="10" font-family="-apple-system, BlinkMacSystemFont, 'Segoe UI', Helvetica, Arial, sans-serif">dockur/casa</text>
    <rect x="880" y="31" width="12" height="3" fill="#00bcd4" />
    <line x1="880" y1="32.5" x2="892" y2="32.5" stroke="#00bcd4" stroke-width="2" />
    <text x="896" y="36" class="chart-text" font-size="10" font-family="-apple-system, BlinkMacSystemFont, 'Segoe UI', Helvetica, Arial, sans-serif">dockur/tor</text>
  </g>
  <g class="grid">
    <line x1="60" y1="350" x2="770" y2="350" class="chart-grid" stroke-opacity="0.3" />
    <text x="778" y="354" text-anchor="start" class="chart-muted" font-size="11" font-family="-apple-system, BlinkMacSystemFont, 'Segoe UI', Helvetica, Arial, sans-serif">0</text>
    <line x1="60" y1="300" x2="770" y2="300" class="chart-grid" stroke-opacity="0.3" />
    <text x="778" y="304" text-anchor="start" class="chart-muted" font-size="11" font-family="-apple-system, BlinkMacSystemFont, 'Segoe UI', Helvetica, Arial, sans-serif">10K</text>
    <line x1="60" y1="250" x2="770" y2="250" class="chart-grid" stroke-opacity="0.3" />
    <text x="778" y="254" text-anchor="start" class="chart-muted" font-size="11" font-family="-apple-system, BlinkMacSystemFont, 'Segoe UI', Helvetica, Arial, sans-serif">20K</text>
    <line x1="60" y1="200" x2="770" y2="200" class="chart-grid" stroke-opacity="0.3" />
    <text x="778" y="204" text-anchor="start" class="chart-muted" font-size="11" font-family="-apple-system, BlinkMacSystemFont, 'Segoe UI', Helvetica, Arial, sans-serif">30K</text>
    <line x1="60" y1="150" x2="770" y2="150" class="chart-grid" stroke-opacity="0.3" />
    <text x="778" y="154" text-anchor="start" class="chart-muted" font-size="11" font-family="-apple-system, BlinkMacSystemFont, 'Segoe UI', Helvetica, Arial, sans-serif">40K</text>
    <line x1="60" y1="100" x2="770" y2="100" class="chart-grid" stroke-opacity="0.3" />
    <text x="778" y="104" text-anchor="start" class="chart-muted" font-size="11" font-family="-apple-system, BlinkMacSystemFont, 'Segoe UI', Helvetica, Arial, sans-serif">50K</text>
    <line x1="60" y1="50" x2="770" y2="50" class="chart-grid" stroke-opacity="0.3" />
    <text x="778" y="54" text-anchor="start" class="chart-muted" font-size="11" font-family="-apple-system, BlinkMacSystemFont, 'Segoe UI', Helvetica, Arial, sans-serif">60K</text>
  </g>
  <g class="milestones">
    
  </g>
  <g class="x-axis">
    <text x="60" y="370" text-anchor="middle" class="chart-muted" font-size="11" font-family="-apple-system, BlinkMacSystemFont, 'Segoe UI', Helvetica, Arial, sans-serif">2023</text>
    <text x="231.3793103448276" y="370" text-anchor="middle" class="chart-muted" font-size="11" font-family="-apple-system, BlinkMacSystemFont, 'Segoe UI', Helvetica, Arial, sans-serif">2024</text>
    <text x="451.7241379310345" y="370" text-anchor="middle" class="chart-muted" font-size="11" font-family="-apple-system, BlinkMacSystemFont, 'Segoe UI', Helvetica, Arial, sans-serif">2025</text>
    <text x="672.0689655172414" y="370" text-anchor="middle" class="chart-muted" font-size="11" font-family="-apple-system, BlinkMacSystemFont, 'Segoe UI', Helvetica, Arial, sans-serif">2026</text>
  </g>
  <line x1="770" y1="50" x2="770" y2="350" class="chart-axis" stroke-width="1" />
  <line x1="60" y1="350" x2="770" y2="350" class="chart-axis" stroke-width="1" />
  
  
  
  
  
  
  
  
  
  
  <path d="M60,350 C63.264367816091955,350 77.95402298850574,350 84.48275862068965,350 C91.01149425287356,350 102.43678160919539,350 108.9655172413793,350 C115.49425287356321,350 126.91954022988504,350 133.44827586206895,350 C139.97701149425285,350 151.40229885057468,350 157.9310344827586,350 C164.45977011494253,350 175.88505747126436,350 182.41379310344828,350 C188.9425287356322,350 200.36781609195404,350 206.89655172413794,350 C213.42528735632183,350 224.8505747126437,350 231.3793103448276,350 C237.90804597701148,349.11133333333333 249.33333333333334,350 255.86206896551724,343.335 C262.39080459770116,336.22366666666665 273.81609195402297,304.665 280.34482758620686,296.665 C286.87356321839076,288.665 298.2988505747127,286.00166666666667 304.82758620689657,283.335 C311.35632183908046,280.6683333333333 322.7816091954023,278.44300000000004 329.3103448275862,276.665 C335.8390804597701,274.887 347.264367816092,270.88866666666667 353.7931034482759,270 C360.32183908045977,270 371.7471264367816,270 378.2758620689655,270 C384.8045977011494,269.11133333333333 396.2298850574713,270 402.7586206896552,263.33500000000004 C409.28735632183907,254.44633333333337 420.71264367816093,212.22433333333333 427.2413793103448,203.335 C433.7701149425287,196.665 445.1954022988506,198.44299999999998 451.7241379310345,196.665 C458.2528735632184,194.887 469.67816091954023,191.77733333333333 476.2068965517241,190 C482.735632183908,188.22266666666667 494.1609195402299,184.22366666666667 500.6896551724138,183.335 C507.2183908045977,183.335 518.6436781609195,183.335 525.1724137931035,183.335 C531.7011494252874,182.44566666666668 543.1264367816092,178.44299999999998 549.6551724137931,176.665 C556.1839080459771,174.887 567.6091954022988,173.55533333333332 574.1379310344828,170 C580.6666666666667,166.44466666666668 592.0919540229885,153.81466666666668 598.6206896551724,150 C605.1494252873564,146.18533333333332 616.5747126436781,143.68599999999998 623.1034482758621,141.39 C629.632183908046,139.094 641.0574712643678,135.076 647.5862068965517,132.78 C654.1149425287357,130.484 665.5402298850574,126.46666666666665 672.0689655172414,124.16999999999999 C678.5977011494253,121.87333333333332 690.0229885057471,117.85166666666667 696.551724137931,115.555 C703.080459770115,113.25833333333334 714.5057471264367,109.241 721.0344827586207,106.945 C727.5632183908046,104.64899999999999 738.9885057471264,100.63100000000001 745.5172413793103,98.33500000000001 C752.0459770114943,96.039 766.735632183908,90.87299999999998 770,89.72499999999997" fill="none" stroke="#dfb317" stroke-width="2.5" class="data-line-0" />
  <path d="M60,350 C63.264367816091955,350 77.95402298850574,350 84.48275862068965,350 C91.01149425287356,350 102.43678160919539,350 108.9655172413793,350 C115.49425287356321,350 126.91954022988504,350 133.44827586206895,350 C139.97701149425285,350 151.40229885057468,350 157.9310344827586,350 C164.45977011494253,350 175.88505747126436,350 182.41379310344828,350 C188.9425287356322,350 200.36781609195404,350 206.89655172413794,350 C213.42528735632183,350 224.8505747126437,350 231.3793103448276,350 C237.90804597701148,350 249.33333333333334,350 255.86206896551724,350 C262.39080459770116,350 273.81609195402297,350 280.34482758620686,350 C286.87356321839076,350 298.2988505747127,350 304.82758620689657,350 C311.35632183908046,349.556 322.7816091954023,347.12800000000004 329.3103448275862,346.67 C335.8390804597701,346.565 347.264367816092,346.579 353.7931034482759,346.565 C360.32183908045977,346.565 371.7471264367816,346.565 378.2758620689655,346.565 C384.8045977011494,346.565 396.2298850574713,346.565 402.7586206896552,346.565 C409.28735632183907,341.07233333333335 420.71264367816093,311.3206666666667 427.2413793103448,305.37 C433.7701149425287,301.935 445.1954022988506,303.30833333333334 451.7241379310345,301.935 C458.2528735632184,300.56166666666667 469.67816091954023,295.9853333333333 476.2068965517241,295.07 C482.735632183908,295.07 494.1609195402299,295.07 500.6896551724138,295.07 C507.2183908045977,294.61199999999997 518.6436781609195,292.093 525.1724137931035,291.635 C531.7011494252874,291.635 543.1264367816092,291.635 549.6551724137931,291.635 C556.1839080459771,288.8883333333333 567.6091954022988,274.2396666666666 574.1379310344828,271.03499999999997 C580.6666666666667,267.83033333333333 592.0919540229885,268.51533333333333 598.6206896551724,267.6 C605.1494252873564,266.6846666666667 616.5747126436781,265.08533333333327 623.1034482758621,264.16999999999996 C629.632183908046,263.25466666666665 641.0574712643678,261.193 647.5862068965517,260.735 C654.1149425287357,260.735 665.5402298850574,260.735 672.0689655172414,260.735 C678.5977011494253,260.277 690.0229885057471,258.2153333333333 696.551724137931,257.3 C703.080459770115,256.3846666666667 714.5057471264367,254.78533333333334 721.0344827586207,253.87 C727.5632183908046,252.95466666666667 738.9885057471264,251.195 745.5172413793103,250.435 C752.0459770114943,249.675 766.735632183908,248.472 770,248.17000000000002" fill="none" stroke="#28a745" stroke-width="2.5" class="data-line-1" />
  <path d="M60,349.995 C63.264367816091955,349.72566666666665 77.95402298850574,348.309 84.48275862068965,347.975 C91.01149425287356,347.641 102.43678160919539,347.79266666666666 108.9655172413793,347.49 C115.49425287356321,347.18733333333336 126.91954022988504,346.0636666666667 133.44827586206895,345.705 C139.97701149425285,345.3463333333333 151.40229885057468,345.01 157.9310344827586,344.8 C164.45977011494253,344.59000000000003 175.88505747126436,344.286 182.41379310344828,344.13 C188.9425287356322,343.974 200.36781609195404,343.794 206.89655172413794,343.63 C213.42528735632183,343.466 224.8505747126437,343.0946666666666 231.3793103448276,342.9 C237.90804597701148,342.70533333333333 249.33333333333334,342.42133333333334 255.86206896551724,342.17 C262.39080459770116,341.9186666666667 273.81609195402297,341.27566666666667 280.34482758620686,341.015 C286.87356321839076,340.7543333333333 298.2988505747127,340.41166666666663 304.82758620689657,340.215 C311.35632183908046,340.0183333333333 322.7816091954023,339.74800000000005 329.3103448275862,339.54 C335.8390804597701,339.332 347.264367816092,338.8263333333333 353.7931034482759,338.655 C360.32183908045977,338.48366666666664 371.7471264367816,338.40233333333333 378.2758620689655,338.255 C384.8045977011494,338.10766666666666 396.2298850574713,337.7606666666667 402.7586206896552,337.55 C409.28735632183907,337.33933333333334 420.71264367816093,336.8416666666667 427.2413793103448,336.675 C433.7701149425287,336.5083333333333 445.1954022988506,336.416 451.7241379310345,336.3 C458.2528735632184,336.184 469.67816091954023,335.961 476.2068965517241,335.805 C482.735632183908,335.649 494.1609195402299,335.3193333333333 500.6896551724138,335.13 C507.2183908045977,334.9406666666667 518.6436781609195,334.553 525.1724137931035,334.385 C531.7011494252874,334.217 543.1264367816092,333.9626666666667 549.6551724137931,333.87 C556.1839080459771,333.77733333333333 567.6091954022988,333.7253333333333 574.1379310344828,333.69 C580.6666666666667,333.6546666666667 592.0919540229885,333.6756666666667 598.6206896551724,333.605 C605.1494252873564,333.53433333333334 616.5747126436781,333.27066666666667 623.1034482758621,333.16 C629.632183908046,333.0493333333334 641.0574712643678,332.96566666666666 647.5862068965517,332.775 C654.1149425287357,332.5843333333333 665.5402298850574,331.91333333333336 672.0689655172414,331.73 C678.5977011494253,331.5466666666667 690.0229885057471,331.48066666666665 696.551724137931,331.4 C703.080459770115,331.3193333333333 714.5057471264367,331.1836666666667 721.0344827586207,331.125 C727.5632183908046,331.0663333333333 738.9885057471264,331.0113333333333 745.5172413793103,330.96 C752.0459770114943,330.90866666666665 766.735632183908,330.76933333333335 770,330.74" fill="none" stroke="#e74c3c" stroke-width="2.5" class="data-line-2" />
  <path d="M60,350 C63.264367816091955,350 77.95402298850574,350 84.48275862068965,350 C91.01149425287356,350 102.43678160919539,350 108.9655172413793,350 C115.49425287356321,350 126.91954022988504,350 133.44827586206895,350 C139.97701149425285,350 151.40229885057468,350 157.9310344827586,350 C164.45977011494253,350 175.88505747126436,350 182.41379310344828,350 C188.9425287356322,350 200.36781609195404,350 206.89655172413794,350 C213.42528735632183,350 224.8505747126437,350 231.3793103448276,350 C237.90804597701148,349.99533333333335 249.33333333333334,350 255.86206896551724,349.965 C262.39080459770116,349.73766666666666 273.81609195402297,348.61633333333333 280.34482758620686,348.295 C286.87356321839076,347.9736666666667 298.2988505747127,347.71566666666666 304.82758620689657,347.555 C311.35632183908046,347.39433333333335 322.7816091954023,347.19199999999995 329.3103448275862,347.09 C335.8390804597701,346.988 347.264367816092,346.87666666666667 353.7931034482759,346.79 C360.32183908045977,346.7033333333334 371.7471264367816,346.5346666666667 378.2758620689655,346.44 C384.8045977011494,346.3453333333333 396.2298850574713,346.414 402.7586206896552,346.08 C409.28735632183907,345.746 420.71264367816093,344.275 427.2413793103448,343.935 C433.7701149425287,343.595 445.1954022988506,343.626 451.7241379310345,343.53 C458.2528735632184,343.43399999999997 469.67816091954023,343.311 476.2068965517241,343.215 C482.735632183908,343.11899999999997 494.1609195402299,342.91133333333335 500.6896551724138,342.81 C507.2183908045977,342.70866666666666 518.6436781609195,342.53366666666665 525.1724137931035,342.455 C531.7011494252874,342.3763333333333 543.1264367816092,342.28200000000004 549.6551724137931,342.22 C556.1839080459771,342.158 567.6091954022988,342.146 574.1379310344828,341.99 C580.6666666666667,341.834 592.0919540229885,341.25866666666667 598.6206896551724,341.05 C605.1494252873564,340.84133333333335 616.5747126436781,340.547 623.1034482758621,340.425 C629.632183908046,340.303 641.0574712643678,340.2083333333333 647.5862068965517,340.135 C654.1149425287357,340.06166666666667 665.5402298850574,339.933 672.0689655172414,339.875 C678.5977011494253,339.817 690.0229885057471,339.748 696.551724137931,339.7 C703.080459770115,339.652 714.5057471264367,339.567 721.0344827586207,339.515 C727.5632183908046,339.46299999999997 738.9885057471264,339.364 745.5172413793103,339.31 C752.0459770114943,339.25600000000003 766.735632183908,339.13666666666666 770,339.11" fill="none" stroke="#3498db" stroke-width="2.5" class="data-line-3" />
  <path d="M60,350 C63.264367816091955,349.9993333333333 77.95402298850574,349.999 84.48275862068965,349.995 C91.01149425287356,349.991 102.43678160919539,349.9786666666667 108.9655172413793,349.97 C115.49425287356321,349.96133333333336 126.91954022988504,349.942 133.44827586206895,349.93 C139.97701149425285,349.918 151.40229885057468,349.8906666666667 157.9310344827586,349.88 C164.45977011494253,349.8693333333333 175.88505747126436,349.86600000000004 182.41379310344828,349.85 C188.9425287356322,349.834 200.36781609195404,349.78266666666667 206.89655172413794,349.76 C213.42528735632183,349.7373333333333 224.8505747126437,349.71 231.3793103448276,349.68 C237.90804597701148,349.65000000000003 249.33333333333334,349.60433333333333 255.86206896551724,349.535 C262.39080459770116,349.4656666666667 273.81609195402297,349.25 280.34482758620686,349.16 C286.87356321839076,349.07000000000005 298.2988505747127,348.94 304.82758620689657,348.86 C311.35632183908046,348.78000000000003 322.7816091954023,348.63 329.3103448275862,348.56 C335.8390804597701,348.49 347.264367816092,348.3976666666666 353.7931034482759,348.335 C360.32183908045977,348.27233333333334 371.7471264367816,348.14866666666666 378.2758620689655,348.09 C384.8045977011494,348.0313333333333 396.2298850574713,347.96299999999997 402.7586206896552,347.895 C409.28735632183907,347.827 420.71264367816093,347.6613333333333 427.2413793103448,347.58 C433.7701149425287,347.4986666666667 445.1954022988506,347.35633333333334 451.7241379310345,347.285 C458.2528735632184,347.2136666666667 469.67816091954023,347.117 476.2068965517241,347.045 C482.735632183908,346.973 494.1609195402299,346.8523333333333 500.6896551724138,346.745 C507.2183908045977,346.6376666666667 518.6436781609195,346.3573333333333 525.1724137931035,346.24 C531.7011494252874,346.1226666666667 543.1264367816092,345.9816666666667 549.6551724137931,345.865 C556.1839080459771,345.74833333333333 567.6091954022988,345.5416666666667 574.1379310344828,345.365 C580.6666666666667,345.18833333333333 592.0919540229885,344.752 598.6206896551724,344.54 C605.1494252873564,344.32800000000003 616.5747126436781,344.05966666666666 623.1034482758621,343.775 C629.632183908046,343.4903333333333 641.0574712643678,342.6423333333333 647.5862068965517,342.405 C654.1149425287357,342.16766666666666 665.5402298850574,342.10833333333335 672.0689655172414,341.995 C678.5977011494253,341.88166666666666 690.0229885057471,341.6596666666667 696.551724137931,341.555 C703.080459770115,341.45033333333333 714.5057471264367,341.3053333333333 721.0344827586207,341.21 C727.5632183908046,341.11466666666666 738.9885057471264,340.91999999999996 745.5172413793103,340.84 C752.0459770114943,340.76 766.735632183908,340.6406666666667 770,340.61" fill="none" stroke="#9b59b6" stroke-width="2.5" class="data-line-4" />
  <path d="M60,350 C63.264367816091955,350 77.95402298850574,350 84.48275862068965,350 C91.01149425287356,350 102.43678160919539,350 108.9655172413793,350 C115.49425287356321,350 126.91954022988504,350 133.44827586206895,350 C139.97701149425285,350 151.40229885057468,350 157.9310344827586,350 C164.45977011494253,350 175.88505747126436,350 182.41379310344828,350 C188.9425287356322,350 200.36781609195404,350 206.89655172413794,350 C213.42528735632183,350 224.8505747126437,350 231.3793103448276,350 C237.90804597701148,349.9993333333333 249.33333333333334,350 255.86206896551724,349.995 C262.39080459770116,349.97833333333335 273.81609195402297,349.90500000000003 280.34482758620686,349.875 C286.87356321839076,349.84499999999997 298.2988505747127,349.796 304.82758620689657,349.77 C311.35632183908046,349.74399999999997 322.7816091954023,349.69666666666666 329.3103448275862,349.68 C335.8390804597701,349.66333333333336 347.264367816092,349.65766666666667 353.7931034482759,349.645 C360.32183908045977,349.6323333333333 371.7471264367816,349.609 378.2758620689655,349.585 C384.8045977011494,349.561 396.2298850574713,349.5203333333333 402.7586206896552,349.465 C409.28735632183907,349.4096666666666 420.71264367816093,349.23333333333335 427.2413793103448,349.17 C433.7701149425287,349.1066666666667 445.1954022988506,349.048 451.7241379310345,348.99 C458.2528735632184,348.932 469.67816091954023,348.79033333333336 476.2068965517241,348.735 C482.735632183908,348.67966666666666 494.1609195402299,348.63033333333334 500.6896551724138,348.575 C507.2183908045977,348.51966666666664 518.6436781609195,348.376 525.1724137931035,348.32 C531.7011494252874,348.264 543.1264367816092,348.205 549.6551724137931,348.155 C556.1839080459771,348.10499999999996 567.6091954022988,348.0063333333333 574.1379310344828,347.945 C580.6666666666667,347.88366666666667 592.0919540229885,347.757 598.6206896551724,347.695 C605.1494252873564,347.633 616.5747126436781,347.5406666666667 623.1034482758621,347.48 C629.632183908046,347.4193333333333 641.0574712643678,347.29733333333337 647.5862068965517,347.24 C654.1149425287357,347.18266666666665 665.5402298850574,347.118 672.0689655172414,347.05 C678.5977011494253,346.982 690.0229885057471,346.79200000000003 696.551724137931,346.73 C703.080459770115,346.668 714.5057471264367,346.62899999999996 721.0344827586207,346.585 C727.5632183908046,346.541 738.9885057471264,346.4433333333333 745.5172413793103,346.4 C752.0459770114943,346.3566666666666 766.735632183908,346.27866666666665 770,346.26" fill="none" stroke="#e67e22" stroke-width="2.5" class="data-line-5" />
  <path d="M60,350 C63.264367816091955,350 77.95402298850574,350 84.48275862068965,350 C91.01149425287356,350 102.43678160919539,350 108.9655172413793,350 C115.49425287356321,350 126.91954022988504,350 133.44827586206895,350 C139.97701149425285,350 151.40229885057468,350 157.9310344827586,350 C164.45977011494253,350 175.88505747126436,350 182.41379310344828,350 C188.9425287356322,350 200.36781609195404,350 206.89655172413794,350 C213.42528735632183,350 224.8505747126437,350 231.3793103448276,350 C237.90804597701148,350 249.33333333333334,350 255.86206896551724,350 C262.39080459770116,350 273.81609195402297,350 280.34482758620686,350 C286.87356321839076,350 298.2988505747127,350 304.82758620689657,350 C311.35632183908046,350 322.7816091954023,350 329.3103448275862,350 C335.8390804597701,350 347.264367816092,350 353.7931034482759,350 C360.32183908045977,350 371.7471264367816,350 378.2758620689655,350 C384.8045977011494,349.97133333333335 396.2298850574713,349.85433333333333 402.7586206896552,349.785 C409.28735632183907,349.7156666666667 420.71264367816093,349.53933333333333 427.2413793103448,349.48 C433.7701149425287,349.4206666666667 445.1954022988506,349.3813333333333 451.7241379310345,349.34 C458.2528735632184,349.29866666666663 469.67816091954023,349.20866666666666 476.2068965517241,349.17 C482.735632183908,349.1313333333334 494.1609195402299,349.08000000000004 500.6896551724138,349.05 C507.2183908045977,349.02 518.6436781609195,348.97366666666665 525.1724137931035,348.945 C531.7011494252874,348.91633333333334 543.1264367816092,348.8623333333333 549.6551724137931,348.835 C556.1839080459771,348.80766666666665 567.6091954022988,348.77 574.1379310344828,348.74 C580.6666666666667,348.71000000000004 592.0919540229885,348.6466666666667 598.6206896551724,348.61 C605.1494252873564,348.5733333333333 616.5747126436781,348.49699999999996 623.1034482758621,348.465 C629.632183908046,348.433 641.0574712643678,348.3926666666667 647.5862068965517,348.37 C654.1149425287357,348.3473333333333 665.5402298850574,348.313 672.0689655172414,348.295 C678.5977011494253,348.27700000000004 690.0229885057471,348.25100000000003 696.551724137931,348.235 C703.080459770115,348.219 714.5057471264367,348.19233333333335 721.0344827586207,348.175 C727.5632183908046,348.15766666666667 738.9885057471264,348.12433333333337 745.5172413793103,348.105 C752.0459770114943,348.08566666666667 766.735632183908,348.03999999999996 770,348.03" fill="none" stroke="#1abc9c" stroke-width="2.5" class="data-line-6" />
  <path d="M60,350 C63.264367816091955,350 77.95402298850574,350 84.48275862068965,350 C91.01149425287356,350 102.43678160919539,350 108.9655172413793,350 C115.49425287356321,350 126.91954022988504,350 133.44827586206895,350 C139.97701149425285,350 151.40229885057468,350 157.9310344827586,350 C164.45977011494253,350 175.88505747126436,350 182.41379310344828,350 C188.9425287356322,350 200.36781609195404,350 206.89655172413794,350 C213.42528735632183,350 224.8505747126437,350 231.3793103448276,350 C237.90804597701148,350 249.33333333333334,350 255.86206896551724,350 C262.39080459770116,350 273.81609195402297,350 280.34482758620686,350 C286.87356321839076,350 298.2988505747127,350 304.82758620689657,350 C311.35632183908046,350 322.7816091954023,350 329.3103448275862,350 C335.8390804597701,350 347.264367816092,350 353.7931034482759,350 C360.32183908045977,350 371.7471264367816,350 378.2758620689655,350 C384.8045977011494,350 396.2298850574713,350 402.7586206896552,350 C409.28735632183907,350 420.71264367816093,350 427.2413793103448,350 C433.7701149425287,350 445.1954022988506,350 451.7241379310345,350 C458.2528735632184,350 469.67816091954023,350 476.2068965517241,350 C482.735632183908,350 494.1609195402299,350 500.6896551724138,350 C507.2183908045977,350 518.6436781609195,350 525.1724137931035,350 C531.7011494252874,350 543.1264367816092,350 549.6551724137931,350 C556.1839080459771,350 567.6091954022988,350 574.1379310344828,350 C580.6666666666667,350 592.0919540229885,350 598.6206896551724,350 C605.1494252873564,350 616.5747126436781,350 623.1034482758621,350 C629.632183908046,350 641.0574712643678,350 647.5862068965517,350 C654.1149425287357,350 665.5402298850574,350 672.0689655172414,350 C678.5977011494253,350 690.0229885057471,350 696.551724137931,350 C703.080459770115,350 714.5057471264367,350 721.0344827586207,350 C727.5632183908046,350 738.9885057471264,350 745.5172413793103,350 C752.0459770114943,349.8466666666667 766.735632183908,349.00333333333333 770,348.85" fill="none" stroke="#e84393" stroke-width="2.5" class="data-line-7" />
  <path d="M60,350 C63.264367816091955,350 77.95402298850574,350 84.48275862068965,350 C91.01149425287356,350 102.43678160919539,350 108.9655172413793,350 C115.49425287356321,350 126.91954022988504,350 133.44827586206895,350 C139.97701149425285,350 151.40229885057468,350 157.9310344827586,350 C164.45977011494253,350 175.88505747126436,350 182.41379310344828,350 C188.9425287356322,350 200.36781609195404,350 206.89655172413794,350 C213.42528735632183,350 224.8505747126437,350 231.3793103448276,350 C237.90804597701148,350 249.33333333333334,350 255.86206896551724,350 C262.39080459770116,350 273.81609195402297,350 280.34482758620686,350 C286.87356321839076,350 298.2988505747127,350 304.82758620689657,350 C311.35632183908046,350 322.7816091954023,350 329.3103448275862,350 C335.8390804597701,350 347.264367816092,350 353.7931034482759,350 C360.32183908045977,350 371.7471264367816,350 378.2758620689655,350 C384.8045977011494,350 396.2298850574713,350 402.7586206896552,350 C409.28735632183907,349.988 420.71264367816093,349.93 427.2413793103448,349.91 C433.7701149425287,349.89000000000004 445.1954022988506,349.8666666666667 451.7241379310345,349.85 C458.2528735632184,349.83333333333337 469.67816091954023,349.80233333333337 476.2068965517241,349.785 C482.735632183908,349.7676666666667 494.1609195402299,349.73733333333337 500.6896551724138,349.72 C507.2183908045977,349.7026666666667 518.6436781609195,349.6696666666666 525.1724137931035,349.655 C531.7011494252874,349.64033333333333 543.1264367816092,349.62600000000003 549.6551724137931,349.61 C556.1839080459771,349.594 567.6091954022988,349.555 574.1379310344828,349.535 C580.6666666666667,349.51500000000004 592.0919540229885,349.48199999999997 598.6206896551724,349.46 C605.1494252873564,349.438 616.5747126436781,349.3906666666667 623.1034482758621,349.37 C629.632183908046,349.34933333333333 641.0574712643678,349.339 647.5862068965517,349.305 C654.1149425287357,349.271 665.5402298850574,349.1503333333333 672.0689655172414,349.115 C678.5977011494253,349.0796666666667 690.0229885057471,349.05333333333334 696.551724137931,349.04 C703.080459770115,349.0266666666667 714.5057471264367,349.02233333333334 721.0344827586207,349.015 C727.5632183908046,349.00766666666664 738.9885057471264,348.9943333333334 745.5172413793103,348.985 C752.0459770114943,348.97566666666665 766.735632183908,348.95033333333333 770,348.945" fill="none" stroke="#795548" stroke-width="2.5" class="data-line-8" />
  <path d="M60,350 C63.264367816091955,350 77.95402298850574,350 84.48275862068965,350 C91.01149425287356,350 102.43678160919539,350 108.9655172413793,350 C115.49425287356321,350 126.91954022988504,350 133.44827586206895,350 C139.97701149425285,350 151.40229885057468,350 157.9310344827586,350 C164.45977011494253,350 175.88505747126436,350 182.41379310344828,350 C188.9425287356322,350 200.36781609195404,350 206.89655172413794,350 C213.42528735632183,349.998 224.8505747126437,349.987 231.3793103448276,349.985 C237.90804597701148,349.985 249.33333333333334,349.985 255.86206896551724,349.985 C262.39080459770116,349.981 273.81609195402297,349.965 280.34482758620686,349.955 C286.87356321839076,349.945 298.2988505747127,349.9193333333334 304.82758620689657,349.91 C311.35632183908046,349.90066666666667 322.7816091954023,349.88966666666664 329.3103448275862,349.885 C335.8390804597701,349.88033333333334 347.264367816092,349.87966666666665 353.7931034482759,349.875 C360.32183908045977,349.87033333333335 371.7471264367816,349.8546666666667 378.2758620689655,349.85 C384.8045977011494,349.8453333333334 396.2298850574713,349.84999999999997 402.7586206896552,349.84 C409.28735632183907,349.83 420.71264367816093,349.789 427.2413793103448,349.775 C433.7701149425287,349.76099999999997 445.1954022988506,349.7476666666667 451.7241379310345,349.735 C458.2528735632184,349.7223333333333 469.67816091954023,349.6913333333333 476.2068965517241,349.68 C482.735632183908,349.6686666666667 494.1609195402299,349.66266666666667 500.6896551724138,349.65 C507.2183908045977,349.6373333333333 518.6436781609195,349.597 525.1724137931035,349.585 C531.7011494252874,349.573 543.1264367816092,349.57466666666664 549.6551724137931,349.56 C556.1839080459771,349.54533333333336 567.6091954022988,349.4976666666667 574.1379310344828,349.475 C580.6666666666667,349.45233333333334 592.0919540229885,349.416 598.6206896551724,349.39 C605.1494252873564,349.364 616.5747126436781,349.3013333333333 623.1034482758621,349.28 C629.632183908046,349.25866666666667 641.0574712643678,349.24 647.5862068965517,349.23 C654.1149425287357,349.22 665.5402298850574,349.217 672.0689655172414,349.205 C678.5977011494253,349.193 690.0229885057471,349.15799999999996 696.551724137931,349.14 C703.080459770115,349.122 714.5057471264367,349.0853333333333 721.0344827586207,349.07 C727.5632183908046,349.05466666666666 738.9885057471264,349.037 745.5172413793103,349.025 C752.0459770114943,349.013 766.735632183908,348.986 770,348.98" fill="none" stroke="#00bcd4" stroke-width="2.5" class="data-line-9" />
  <g class="points">
    
    <circle cx="60" cy="350" r="4" fill="#dfb317" class="data-point" style="animation-delay: 1.50s" />
    <circle cx="84.48275862068965" cy="350" r="4" fill="#dfb317" class="data-point" style="animation-delay: 1.55s" />
    <circle cx="108.9655172413793" cy="350" r="4" fill="#dfb317" class="data-point" style="animation-delay: 1.60s" />
    <circle cx="133.44827586206895" cy="350" r="4" fill="#dfb317" class="data-point" style="animation-delay: 1.65s" />
    <circle cx="157.9310344827586" cy="350" r="4" fill="#dfb317" class="data-point" style="animation-delay: 1.70s" />
    <circle cx="182.41379310344828" cy="350" r="4" fill="#dfb317" class="data-point" style="animation-delay: 1.75s" />
    <circle cx="206.89655172413794" cy="350" r="4" fill="#dfb317" class="data-point" style="animation-delay: 1.80s" />
    <circle cx="231.3793103448276" cy="350" r="4" fill="#dfb317" class="data-point" style="animation-delay: 1.85s" />
    <circle cx="255.86206896551724" cy="343.335" r="4" fill="#dfb317" class="data-point" style="animation-delay: 1.90s" />
    <circle cx="280.34482758620686" cy="296.665" r="4" fill="#dfb317" class="data-point" style="animation-delay: 1.95s" />
    <circle cx="304.82758620689657" cy="283.335" r="4" fill="#dfb317" class="data-point" style="animation-delay: 2.00s" />
    <circle cx="329.3103448275862" cy="276.665" r="4" fill="#dfb317" class="data-point" style="animation-delay: 2.05s" />
    <circle cx="353.7931034482759" cy="270" r="4" fill="#dfb317" class="data-point" style="animation-delay: 2.10s" />
    <circle cx="378.2758620689655" cy="270" r="4" fill="#dfb317" class="data-point" style="animation-delay: 2.15s" />
    <circle cx="402.7586206896552" cy="263.33500000000004" r="4" fill="#dfb317" class="data-point" style="animation-delay: 2.20s" />
    <circle cx="427.2413793103448" cy="203.335" r="4" fill="#dfb317" class="data-point" style="animation-delay: 2.25s" />
    <circle cx="451.7241379310345" cy="196.665" r="4" fill="#dfb317" class="data-point" style="animation-delay: 2.30s" />
    <circle cx="476.2068965517241" cy="190" r="4" fill="#dfb317" class="data-point" style="animation-delay: 2.35s" />
    <circle cx="500.6896551724138" cy="183.335" r="4" fill="#dfb317" class="data-point" style="animation-delay: 2.40s" />
    <circle cx="525.1724137931035" cy="183.335" r="4" fill="#dfb317" class="data-point" style="animation-delay: 2.45s" />
    <circle cx="549.6551724137931" cy="176.665" r="4" fill="#dfb317" class="data-point" style="animation-delay: 2.50s" />
    <circle cx="574.1379310344828" cy="170" r="4" fill="#dfb317" class="data-point" style="animation-delay: 2.55s" />
    <circle cx="598.6206896551724" cy="150" r="4" fill="#dfb317" class="data-point" style="animation-delay: 2.60s" />
    <circle cx="623.1034482758621" cy="141.39" r="4" fill="#dfb317" class="data-point" style="animation-delay: 2.65s" />
    <circle cx="647.5862068965517" cy="132.78" r="4" fill="#dfb317" class="data-point" style="animation-delay: 2.70s" />
    <circle cx="672.0689655172414" cy="124.16999999999999" r="4" fill="#dfb317" class="data-point" style="animation-delay: 2.75s" />
    <circle cx="696.551724137931" cy="115.555" r="4" fill="#dfb317" class="data-point" style="animation-delay: 2.80s" />
    <circle cx="721.0344827586207" cy="106.945" r="4" fill="#dfb317" class="data-point" style="animation-delay: 2.85s" />
    <circle cx="745.5172413793103" cy="98.33500000000001" r="4" fill="#dfb317" class="data-point" style="animation-delay: 2.90s" />
    <circle cx="770" cy="89.72499999999997" r="4" fill="#dfb317" class="data-point" style="animation-delay: 2.95s" />
    
    <circle cx="60" cy="350" r="4" fill="#28a745" class="data-point" style="animation-delay: 1.50s" />
    <circle cx="84.48275862068965" cy="350" r="4" fill="#28a745" class="data-point" style="animation-delay: 1.55s" />
    <circle cx="108.9655172413793" cy="350" r="4" fill="#28a745" class="data-point" style="animation-delay: 1.60s" />
    <circle cx="133.44827586206895" cy="350" r="4" fill="#28a745" class="data-point" style="animation-delay: 1.65s" />
    <circle cx="157.9310344827586" cy="350" r="4" fill="#28a745" class="data-point" style="animation-delay: 1.70s" />
    <circle cx="182.41379310344828" cy="350" r="4" fill="#28a745" class="data-point" style="animation-delay: 1.75s" />
    <circle cx="206.89655172413794" cy="350" r="4" fill="#28a745" class="data-point" style="animation-delay: 1.80s" />
    <circle cx="231.3793103448276" cy="350" r="4" fill="#28a745" class="data-point" style="animation-delay: 1.85s" />
    <circle cx="255.86206896551724" cy="350" r="4" fill="#28a745" class="data-point" style="animation-delay: 1.90s" />
    <circle cx="280.34482758620686" cy="350" r="4" fill="#28a745" class="data-point" style="animation-delay: 1.95s" />
    <circle cx="304.82758620689657" cy="350" r="4" fill="#28a745" class="data-point" style="animation-delay: 2.00s" />
    <circle cx="329.3103448275862" cy="346.67" r="4" fill="#28a745" class="data-point" style="animation-delay: 2.05s" />
    <circle cx="353.7931034482759" cy="346.565" r="4" fill="#28a745" class="data-point" style="animation-delay: 2.10s" />
    <circle cx="378.2758620689655" cy="346.565" r="4" fill="#28a745" class="data-point" style="animation-delay: 2.15s" />
    <circle cx="402.7586206896552" cy="346.565" r="4" fill="#28a745" class="data-point" style="animation-delay: 2.20s" />
    <circle cx="427.2413793103448" cy="305.37" r="4" fill="#28a745" class="data-point" style="animation-delay: 2.25s" />
    <circle cx="451.7241379310345" cy="301.935" r="4" fill="#28a745" class="data-point" style="animation-delay: 2.30s" />
    <circle cx="476.2068965517241" cy="295.07" r="4" fill="#28a745" class="data-point" style="animation-delay: 2.35s" />
    <circle cx="500.6896551724138" cy="295.07" r="4" fill="#28a745" class="data-point" style="animation-delay: 2.40s" />
    <circle cx="525.1724137931035" cy="291.635" r="4" fill="#28a745" class="data-point" style="animation-delay: 2.45s" />
    <circle cx="549.6551724137931" cy="291.635" r="4" fill="#28a745" class="data-point" style="animation-delay: 2.50s" />
    <circle cx="574.1379310344828" cy="271.03499999999997" r="4" fill="#28a745" class="data-point" style="animation-delay: 2.55s" />
    <circle cx="598.6206896551724" cy="267.6" r="4" fill="#28a745" class="data-point" style="animation-delay: 2.60s" />
    <circle cx="623.1034482758621" cy="264.16999999999996" r="4" fill="#28a745" class="data-point" style="animation-delay: 2.65s" />
    <circle cx="647.5862068965517" cy="260.735" r="4" fill="#28a745" class="data-point" style="animation-delay: 2.70s" />
    <circle cx="672.0689655172414" cy="260.735" r="4" fill="#28a745" class="data-point" style="animation-delay: 2.75s" />
    <circle cx="696.551724137931" cy="257.3" r="4" fill="#28a745" class="data-point" style="animation-delay: 2.80s" />
    <circle cx="721.0344827586207" cy="253.87" r="4" fill="#28a745" class="data-point" style="animation-delay: 2.85s" />
    <circle cx="745.5172413793103" cy="250.435" r="4" fill="#28a745" class="data-point" style="animation-delay: 2.90s" />
    <circle cx="770" cy="248.17000000000002" r="4" fill="#28a745" class="data-point" style="animation-delay: 2.95s" />
    
    <circle cx="60" cy="349.995" r="4" fill="#e74c3c" class="data-point" style="animation-delay: 1.50s" />
    <circle cx="84.48275862068965" cy="347.975" r="4" fill="#e74c3c" class="data-point" style="animation-delay: 1.55s" />
    <circle cx="108.9655172413793" cy="347.49" r="4" fill="#e74c3c" class="data-point" style="animation-delay: 1.60s" />
    <circle cx="133.44827586206895" cy="345.705" r="4" fill="#e74c3c" class="data-point" style="animation-delay: 1.65s" />
    <circle cx="157.9310344827586" cy="344.8" r="4" fill="#e74c3c" class="data-point" style="animation-delay: 1.70s" />
    <circle cx="182.41379310344828" cy="344.13" r="4" fill="#e74c3c" class="data-point" style="animation-delay: 1.75s" />
    <circle cx="206.89655172413794" cy="343.63" r="4" fill="#e74c3c" class="data-point" style="animation-delay: 1.80s" />
    <circle cx="231.3793103448276" cy="342.9" r="4" fill="#e74c3c" class="data-point" style="animation-delay: 1.85s" />
    <circle cx="255.86206896551724" cy="342.17" r="4" fill="#e74c3c" class="data-point" style="animation-delay: 1.90s" />
    <circle cx="280.34482758620686" cy="341.015" r="4" fill="#e74c3c" class="data-point" style="animation-delay: 1.95s" />
    <circle cx="304.82758620689657" cy="340.215" r="4" fill="#e74c3c" class="data-point" style="animation-delay: 2.00s" />
    <circle cx="329.3103448275862" cy="339.54" r="4" fill="#e74c3c" class="data-point" style="animation-delay: 2.05s" />
    <circle cx="353.7931034482759" cy="338.655" r="4" fill="#e74c3c" class="data-point" style="animation-delay: 2.10s" />
    <circle cx="378.2758620689655" cy="338.255" r="4" fill="#e74c3c" class="data-point" style="animation-delay: 2.15s" />
    <circle cx="402.7586206896552" cy="337.55" r="4" fill="#e74c3c" class="data-point" style="animation-delay: 2.20s" />
    <circle cx="427.2413793103448" cy="336.675" r="4" fill="#e74c3c" class="data-point" style="animation-delay: 2.25s" />
    <circle cx="451.7241379310345" cy="336.3" r="4" fill="#e74c3c" class="data-point" style="animation-delay: 2.30s" />
    <circle cx="476.2068965517241" cy="335.805" r="4" fill="#e74c3c" class="data-point" style="animation-delay: 2.35s" />
    <circle cx="500.6896551724138" cy="335.13" r="4" fill="#e74c3c" class="data-point" style="animation-delay: 2.40s" />
    <circle cx="525.1724137931035" cy="334.385" r="4" fill="#e74c3c" class="data-point" style="animation-delay: 2.45s" />
    <circle cx="549.6551724137931" cy="333.87" r="4" fill="#e74c3c" class="data-point" style="animation-delay: 2.50s" />
    <circle cx="574.1379310344828" cy="333.69" r="4" fill="#e74c3c" class="data-point" style="animation-delay: 2.55s" />
    <circle cx="598.6206896551724" cy="333.605" r="4" fill="#e74c3c" class="data-point" style="animation-delay: 2.60s" />
    <circle cx="623.1034482758621" cy="333.16" r="4" fill="#e74c3c" class="data-point" style="animation-delay: 2.65s" />
    <circle cx="647.5862068965517" cy="332.775" r="4" fill="#e74c3c" class="data-point" style="animation-delay: 2.70s" />
    <circle cx="672.0689655172414" cy="331.73" r="4" fill="#e74c3c" class="data-point" style="animation-delay: 2.75s" />
    <circle cx="696.551724137931" cy="331.4" r="4" fill="#e74c3c" class="data-point" style="animation-delay: 2.80s" />
    <circle cx="721.0344827586207" cy="331.125" r="4" fill="#e74c3c" class="data-point" style="animation-delay: 2.85s" />
    <circle cx="745.5172413793103" cy="330.96" r="4" fill="#e74c3c" class="data-point" style="animation-delay: 2.90s" />
    <circle cx="770" cy="330.74" r="4" fill="#e74c3c" class="data-point" style="animation-delay: 2.95s" />
    
    <circle cx="60" cy="350" r="4" fill="#3498db" class="data-point" style="animation-delay: 1.50s" />
    <circle cx="84.48275862068965" cy="350" r="4" fill="#3498db" class="data-point" style="animation-delay: 1.55s" />
    <circle cx="108.9655172413793" cy="350" r="4" fill="#3498db" class="data-point" style="animation-delay: 1.60s" />
    <circle cx="133.44827586206895" cy="350" r="4" fill="#3498db" class="data-point" style="animation-delay: 1.65s" />
    <circle cx="157.9310344827586" cy="350" r="4" fill="#3498db" class="data-point" style="animation-delay: 1.70s" />
    <circle cx="182.41379310344828" cy="350" r="4" fill="#3498db" class="data-point" style="animation-delay: 1.75s" />
    <circle cx="206.89655172413794" cy="350" r="4" fill="#3498db" class="data-point" style="animation-delay: 1.80s" />
    <circle cx="231.3793103448276" cy="350" r="4" fill="#3498db" class="data-point" style="animation-delay: 1.85s" />
    <circle cx="255.86206896551724" cy="349.965" r="4" fill="#3498db" class="data-point" style="animation-delay: 1.90s" />
    <circle cx="280.34482758620686" cy="348.295" r="4" fill="#3498db" class="data-point" style="animation-delay: 1.95s" />
    <circle cx="304.82758620689657" cy="347.555" r="4" fill="#3498db" class="data-point" style="animation-delay: 2.00s" />
    <circle cx="329.3103448275862" cy="347.09" r="4" fill="#3498db" class="data-point" style="animation-delay: 2.05s" />
    <circle cx="353.7931034482759" cy="346.79" r="4" fill="#3498db" class="data-point" style="animation-delay: 2.10s" />
    <circle cx="378.2758620689655" cy="346.44" r="4" fill="#3498db" class="data-point" style="animation-delay: 2.15s" />
    <circle cx="402.7586206896552" cy="346.08" r="4" fill="#3498db" class="data-point" style="animation-delay: 2.20s" />
    <circle cx="427.2413793103448" cy="343.935" r="4" fill="#3498db" class="data-point" style="animation-delay: 2.25s" />
    <circle cx="451.7241379310345" cy="343.53" r="4" fill="#3498db" class="data-point" style="animation-delay: 2.30s" />
    <circle cx="476.2068965517241" cy="343.215" r="4" fill="#3498db" class="data-point" style="animation-delay: 2.35s" />
    <circle cx="500.6896551724138" cy="342.81" r="4" fill="#3498db" class="data-point" style="animation-delay: 2.40s" />
    <circle cx="525.1724137931035" cy="342.455" r="4" fill="#3498db" class="data-point" style="animation-delay: 2.45s" />
    <circle cx="549.6551724137931" cy="342.22" r="4" fill="#3498db" class="data-point" style="animation-delay: 2.50s" />
    <circle cx="574.1379310344828" cy="341.99" r="4" fill="#3498db" class="data-point" style="animation-delay: 2.55s" />
    <circle cx="598.6206896551724" cy="341.05" r="4" fill="#3498db" class="data-point" style="animation-delay: 2.60s" />
    <circle cx="623.1034482758621" cy="340.425" r="4" fill="#3498db" class="data-point" style="animation-delay: 2.65s" />
    <circle cx="647.5862068965517" cy="340.135" r="4" fill="#3498db" class="data-point" style="animation-delay: 2.70s" />
    <circle cx="672.0689655172414" cy="339.875" r="4" fill="#3498db" class="data-point" style="animation-delay: 2.75s" />
    <circle cx="696.551724137931" cy="339.7" r="4" fill="#3498db" class="data-point" style="animation-delay: 2.80s" />
    <circle cx="721.0344827586207" cy="339.515" r="4" fill="#3498db" class="data-point" style="animation-delay: 2.85s" />
    <circle cx="745.5172413793103" cy="339.31" r="4" fill="#3498db" class="data-point" style="animation-delay: 2.90s" />
    <circle cx="770" cy="339.11" r="4" fill="#3498db" class="data-point" style="animation-delay: 2.95s" />
    
    <circle cx="60" cy="350" r="4" fill="#9b59b6" class="data-point" style="animation-delay: 1.50s" />
    <circle cx="84.48275862068965" cy="349.995" r="4" fill="#9b59b6" class="data-point" style="animation-delay: 1.55s" />
    <circle cx="108.9655172413793" cy="349.97" r="4" fill="#9b59b6" class="data-point" style="animation-delay: 1.60s" />
    <circle cx="133.44827586206895" cy="349.93" r="4" fill="#9b59b6" class="data-point" style="animation-delay: 1.65s" />
    <circle cx="157.9310344827586" cy="349.88" r="4" fill="#9b59b6" class="data-point" style="animation-delay: 1.70s" />
    <circle cx="182.41379310344828" cy="349.85" r="4" fill="#9b59b6" class="data-point" style="animation-delay: 1.75s" />
    <circle cx="206.89655172413794" cy="349.76" r="4" fill="#9b59b6" class="data-point" style="animation-delay: 1.80s" />
    <circle cx="231.3793103448276" cy="349.68" r="4" fill="#9b59b6" class="data-point" style="animation-delay: 1.85s" />
    <circle cx="255.86206896551724" cy="349.535" r="4" fill="#9b59b6" class="data-point" style="animation-delay: 1.90s" />
    <circle cx="280.34482758620686" cy="349.16" r="4" fill="#9b59b6" class="data-point" style="animation-delay: 1.95s" />
    <circle cx="304.82758620689657" cy="348.86" r="4" fill="#9b59b6" class="data-point" style="animation-delay: 2.00s" />
    <circle cx="329.3103448275862" cy="348.56" r="4" fill="#9b59b6" class="data-point" style="animation-delay: 2.05s" />
    <circle cx="353.7931034482759" cy="348.335" r="4" fill="#9b59b6" class="data-point" style="animation-delay: 2.10s" />
    <circle cx="378.2758620689655" cy="348.09" r="4" fill="#9b59b6" class="data-point" style="animation-delay: 2.15s" />
    <circle cx="402.7586206896552" cy="347.895" r="4" fill="#9b59b6" class="data-point" style="animation-delay: 2.20s" />
    <circle cx="427.2413793103448" cy="347.58" r="4" fill="#9b59b6" class="data-point" style="animation-delay: 2.25s" />
    <circle cx="451.7241379310345" cy="347.285" r="4" fill="#9b59b6" class="data-point" style="animation-delay: 2.30s" />
    <circle cx="476.2068965517241" cy="347.045" r="4" fill="#9b59b6" class="data-point" style="animation-delay: 2.35s" />
    <circle cx="500.6896551724138" cy="346.745" r="4" fill="#9b59b6" class="data-point" style="animation-delay: 2.40s" />
    <circle cx="525.1724137931035" cy="346.24" r="4" fill="#9b59b6" class="data-point" style="animation-delay: 2.45s" />
    <circle cx="549.6551724137931" cy="345.865" r="4" fill="#9b59b6" class="data-point" style="animation-delay: 2.50s" />
    <circle cx="574.1379310344828" cy="345.365" r="4" fill="#9b59b6" class="data-point" style="animation-delay: 2.55s" />
    <circle cx="598.6206896551724" cy="344.54" r="4" fill="#9b59b6" class="data-point" style="animation-delay: 2.60s" />
    <circle cx="623.1034482758621" cy="343.775" r="4" fill="#9b59b6" class="data-point" style="animation-delay: 2.65s" />
    <circle cx="647.5862068965517" cy="342.405" r="4" fill="#9b59b6" class="data-point" style="animation-delay: 2.70s" />
    <circle cx="672.0689655172414" cy="341.995" r="4" fill="#9b59b6" class="data-point" style="animation-delay: 2.75s" />
    <circle cx="696.551724137931" cy="341.555" r="4" fill="#9b59b6" class="data-point" style="animation-delay: 2.80s" />
    <circle cx="721.0344827586207" cy="341.21" r="4" fill="#9b59b6" class="data-point" style="animation-delay: 2.85s" />
    <circle cx="745.5172413793103" cy="340.84" r="4" fill="#9b59b6" class="data-point" style="animation-delay: 2.90s" />
    <circle cx="770" cy="340.61" r="4" fill="#9b59b6" class="data-point" style="animation-delay: 2.95s" />
    
    <circle cx="60" cy="350" r="4" fill="#e67e22" class="data-point" style="animation-delay: 1.50s" />
    <circle cx="84.48275862068965" cy="350" r="4" fill="#e67e22" class="data-point" style="animation-delay: 1.55s" />
    <circle cx="108.9655172413793" cy="350" r="4" fill="#e67e22" class="data-point" style="animation-delay: 1.60s" />
    <circle cx="133.44827586206895" cy="350" r="4" fill="#e67e22" class="data-point" style="animation-delay: 1.65s" />
    <circle cx="157.9310344827586" cy="350" r="4" fill="#e67e22" class="data-point" style="animation-delay: 1.70s" />
    <circle cx="182.41379310344828" cy="350" r="4" fill="#e67e22" class="data-point" style="animation-delay: 1.75s" />
    <circle cx="206.89655172413794" cy="350" r="4" fill="#e67e22" class="data-point" style="animation-delay: 1.80s" />
    <circle cx="231.3793103448276" cy="350" r="4" fill="#e67e22" class="data-point" style="animation-delay: 1.85s" />
    <circle cx="255.86206896551724" cy="349.995" r="4" fill="#e67e22" class="data-point" style="animation-delay: 1.90s" />
    <circle cx="280.34482758620686" cy="349.875" r="4" fill="#e67e22" class="data-point" style="animation-delay: 1.95s" />
    <circle cx="304.82758620689657" cy="349.77" r="4" fill="#e67e22" class="data-point" style="animation-delay: 2.00s" />
    <circle cx="329.3103448275862" cy="349.68" r="4" fill="#e67e22" class="data-point" style="animation-delay: 2.05s" />
    <circle cx="353.7931034482759" cy="349.645" r="4" fill="#e67e22" class="data-point" style="animation-delay: 2.10s" />
    <circle cx="378.2758620689655" cy="349.585" r="4" fill="#e67e22" class="data-point" style="animation-delay: 2.15s" />
    <circle cx="402.7586206896552" cy="349.465" r="4" fill="#e67e22" class="data-point" style="animation-delay: 2.20s" />
    <circle cx="427.2413793103448" cy="349.17" r="4" fill="#e67e22" class="data-point" style="animation-delay: 2.25s" />
    <circle cx="451.7241379310345" cy="348.99" r="4" fill="#e67e22" class="data-point" style="animation-delay: 2.30s" />
    <circle cx="476.2068965517241" cy="348.735" r="4" fill="#e67e22" class="data-point" style="animation-delay: 2.35s" />
    <circle cx="500.6896551724138" cy="348.575" r="4" fill="#e67e22" class="data-point" style="animation-delay: 2.40s" />
    <circle cx="525.1724137931035" cy="348.32" r="4" fill="#e67e22" class="data-point" style="animation-delay: 2.45s" />
    <circle cx="549.6551724137931" cy="348.155" r="4" fill="#e67e22" class="data-point" style="animation-delay: 2.50s" />
    <circle cx="574.1379310344828" cy="347.945" r="4" fill="#e67e22" class="data-point" style="animation-delay: 2.55s" />
    <circle cx="598.6206896551724" cy="347.695" r="4" fill="#e67e22" class="data-point" style="animation-delay: 2.60s" />
    <circle cx="623.1034482758621" cy="347.48" r="4" fill="#e67e22" class="data-point" style="animation-delay: 2.65s" />
    <circle cx="647.5862068965517" cy="347.24" r="4" fill="#e67e22" class="data-point" style="animation-delay: 2.70s" />
    <circle cx="672.0689655172414" cy="347.05" r="4" fill="#e67e22" class="data-point" style="animation-delay: 2.75s" />
    <circle cx="696.551724137931" cy="346.73" r="4" fill="#e67e22" class="data-point" style="animation-delay: 2.80s" />
    <circle cx="721.0344827586207" cy="346.585" r="4" fill="#e67e22" class="data-point" style="animation-delay: 2.85s" />
    <circle cx="745.5172413793103" cy="346.4" r="4" fill="#e67e22" class="data-point" style="animation-delay: 2.90s" />
    <circle cx="770" cy="346.26" r="4" fill="#e67e22" class="data-point" style="animation-delay: 2.95s" />
    
    <circle cx="60" cy="350" r="4" fill="#1abc9c" class="data-point" style="animation-delay: 1.50s" />
    <circle cx="84.48275862068965" cy="350" r="4" fill="#1abc9c" class="data-point" style="animation-delay: 1.55s" />
    <circle cx="108.9655172413793" cy="350" r="4" fill="#1abc9c" class="data-point" style="animation-delay: 1.60s" />
    <circle cx="133.44827586206895" cy="350" r="4" fill="#1abc9c" class="data-point" style="animation-delay: 1.65s" />
    <circle cx="157.9310344827586" cy="350" r="4" fill="#1abc9c" class="data-point" style="animation-delay: 1.70s" />
    <circle cx="182.41379310344828" cy="350" r="4" fill="#1abc9c" class="data-point" style="animation-delay: 1.75s" />
    <circle cx="206.89655172413794" cy="350" r="4" fill="#1abc9c" class="data-point" style="animation-delay: 1.80s" />
    <circle cx="231.3793103448276" cy="350" r="4" fill="#1abc9c" class="data-point" style="animation-delay: 1.85s" />
    <circle cx="255.86206896551724" cy="350" r="4" fill="#1abc9c" class="data-point" style="animation-delay: 1.90s" />
    <circle cx="280.34482758620686" cy="350" r="4" fill="#1abc9c" class="data-point" style="animation-delay: 1.95s" />
    <circle cx="304.82758620689657" cy="350" r="4" fill="#1abc9c" class="data-point" style="animation-delay: 2.00s" />
    <circle cx="329.3103448275862" cy="350" r="4" fill="#1abc9c" class="data-point" style="animation-delay: 2.05s" />
    <circle cx="353.7931034482759" cy="350" r="4" fill="#1abc9c" class="data-point" style="animation-delay: 2.10s" />
    <circle cx="378.2758620689655" cy="350" r="4" fill="#1abc9c" class="data-point" style="animation-delay: 2.15s" />
    <circle cx="402.7586206896552" cy="349.785" r="4" fill="#1abc9c" class="data-point" style="animation-delay: 2.20s" />
    <circle cx="427.2413793103448" cy="349.48" r="4" fill="#1abc9c" class="data-point" style="animation-delay: 2.25s" />
    <circle cx="451.7241379310345" cy="349.34" r="4" fill="#1abc9c" class="data-point" style="animation-delay: 2.30s" />
    <circle cx="476.2068965517241" cy="349.17" r="4" fill="#1abc9c" class="data-point" style="animation-delay: 2.35s" />
    <circle cx="500.6896551724138" cy="349.05" r="4" fill="#1abc9c" class="data-point" style="animation-delay: 2.40s" />
    <circle cx="525.1724137931035" cy="348.945" r="4" fill="#1abc9c" class="data-point" style="animation-delay: 2.45s" />
    <circle cx="549.6551724137931" cy="348.835" r="4" fill="#1abc9c" class="data-point" style="animation-delay: 2.50s" />
    <circle cx="574.1379310344828" cy="348.74" r="4" fill="#1abc9c" class="data-point" style="animation-delay: 2.55s" />
    <circle cx="598.6206896551724" cy="348.61" r="4" fill="#1abc9c" class="data-point" style="animation-delay: 2.60s" />
    <circle cx="623.1034482758621" cy="348.465" r="4" fill="#1abc9c" class="data-point" style="animation-delay: 2.65s" />
    <circle cx="647.5862068965517" cy="348.37" r="4" fill="#1abc9c" class="data-point" style="animation-delay: 2.70s" />
    <circle cx="672.0689655172414" cy="348.295" r="4" fill="#1abc9c" class="data-point" style="animation-delay: 2.75s" />
    <circle cx="696.551724137931" cy="348.235" r="4" fill="#1abc9c" class="data-point" style="animation-delay: 2.80s" />
    <circle cx="721.0344827586207" cy="348.175" r="4" fill="#1abc9c" class="data-point" style="animation-delay: 2.85s" />
    <circle cx="745.5172413793103" cy="348.105" r="4" fill="#1abc9c" class="data-point" style="animation-delay: 2.90s" />
    <circle cx="770" cy="348.03" r="4" fill="#1abc9c" class="data-point" style="animation-delay: 2.95s" />
    
    <circle cx="60" cy="350" r="4" fill="#e84393" class="data-point" style="animation-delay: 1.50s" />
    <circle cx="84.48275862068965" cy="350" r="4" fill="#e84393" class="data-point" style="animation-delay: 1.55s" />
    <circle cx="108.9655172413793" cy="350" r="4" fill="#e84393" class="data-point" style="animation-delay: 1.60s" />
    <circle cx="133.44827586206895" cy="350" r="4" fill="#e84393" class="data-point" style="animation-delay: 1.65s" />
    <circle cx="157.9310344827586" cy="350" r="4" fill="#e84393" class="data-point" style="animation-delay: 1.70s" />
    <circle cx="182.41379310344828" cy="350" r="4" fill="#e84393" class="data-point" style="animation-delay: 1.75s" />
    <circle cx="206.89655172413794" cy="350" r="4" fill="#e84393" class="data-point" style="animation-delay: 1.80s" />
    <circle cx="231.3793103448276" cy="350" r="4" fill="#e84393" class="data-point" style="animation-delay: 1.85s" />
    <circle cx="255.86206896551724" cy="350" r="4" fill="#e84393" class="data-point" style="animation-delay: 1.90s" />
    <circle cx="280.34482758620686" cy="350" r="4" fill="#e84393" class="data-point" style="animation-delay: 1.95s" />
    <circle cx="304.82758620689657" cy="350" r="4" fill="#e84393" class="data-point" style="animation-delay: 2.00s" />
    <circle cx="329.3103448275862" cy="350" r="4" fill="#e84393" class="data-point" style="animation-delay: 2.05s" />
    <circle cx="353.7931034482759" cy="350" r="4" fill="#e84393" class="data-point" style="animation-delay: 2.10s" />
    <circle cx="378.2758620689655" cy="350" r="4" fill="#e84393" class="data-point" style="animation-delay: 2.15s" />
    <circle cx="402.7586206896552" cy="350" r="4" fill="#e84393" class="data-point" style="animation-delay: 2.20s" />
    <circle cx="427.2413793103448" cy="350" r="4" fill="#e84393" class="data-point" style="animation-delay: 2.25s" />
    <circle cx="451.7241379310345" cy="350" r="4" fill="#e84393" class="data-point" style="animation-delay: 2.30s" />
    <circle cx="476.2068965517241" cy="350" r="4" fill="#e84393" class="data-point" style="animation-delay: 2.35s" />
    <circle cx="500.6896551724138" cy="350" r="4" fill="#e84393" class="data-point" style="animation-delay: 2.40s" />
    <circle cx="525.1724137931035" cy="350" r="4" fill="#e84393" class="data-point" style="animation-delay: 2.45s" />
    <circle cx="549.6551724137931" cy="350" r="4" fill="#e84393" class="data-point" style="animation-delay: 2.50s" />
    <circle cx="574.1379310344828" cy="350" r="4" fill="#e84393" class="data-point" style="animation-delay: 2.55s" />
    <circle cx="598.6206896551724" cy="350" r="4" fill="#e84393" class="data-point" style="animation-delay: 2.60s" />
    <circle cx="623.1034482758621" cy="350" r="4" fill="#e84393" class="data-point" style="animation-delay: 2.65s" />
    <circle cx="647.5862068965517" cy="350" r="4" fill="#e84393" class="data-point" style="animation-delay: 2.70s" />
    <circle cx="672.0689655172414" cy="350" r="4" fill="#e84393" class="data-point" style="animation-delay: 2.75s" />
    <circle cx="696.551724137931" cy="350" r="4" fill="#e84393" class="data-point" style="animation-delay: 2.80s" />
    <circle cx="721.0344827586207" cy="350" r="4" fill="#e84393" class="data-point" style="animation-delay: 2.85s" />
    <circle cx="745.5172413793103" cy="350" r="4" fill="#e84393" class="data-point" style="animation-delay: 2.90s" />
    <circle cx="770" cy="348.85" r="4" fill="#e84393" class="data-point" style="animation-delay: 2.95s" />
    
    <circle cx="60" cy="350" r="4" fill="#795548" class="data-point" style="animation-delay: 1.50s" />
    <circle cx="84.48275862068965" cy="350" r="4" fill="#795548" class="data-point" style="animation-delay: 1.55s" />
    <circle cx="108.9655172413793" cy="350" r="4" fill="#795548" class="data-point" style="animation-delay: 1.60s" />
    <circle cx="133.44827586206895" cy="350" r="4" fill="#795548" class="data-point" style="animation-delay: 1.65s" />
    <circle cx="157.9310344827586" cy="350" r="4" fill="#795548" class="data-point" style="animation-delay: 1.70s" />
    <circle cx="182.41379310344828" cy="350" r="4" fill="#795548" class="data-point" style="animation-delay: 1.75s" />
    <circle cx="206.89655172413794" cy="350" r="4" fill="#795548" class="data-point" style="animation-delay: 1.80s" />
    <circle cx="231.3793103448276" cy="350" r="4" fill="#795548" class="data-point" style="animation-delay: 1.85s" />
    <circle cx="255.86206896551724" cy="350" r="4" fill="#795548" class="data-point" style="animation-delay: 1.90s" />
    <circle cx="280.34482758620686" cy="350" r="4" fill="#795548" class="data-point" style="animation-delay: 1.95s" />
    <circle cx="304.82758620689657" cy="350" r="4" fill="#795548" class="data-point" style="animation-delay: 2.00s" />
    <circle cx="329.3103448275862" cy="350" r="4" fill="#795548" class="data-point" style="animation-delay: 2.05s" />
    <circle cx="353.7931034482759" cy="350" r="4" fill="#795548" class="data-point" style="animation-delay: 2.10s" />
    <circle cx="378.2758620689655" cy="350" r="4" fill="#795548" class="data-point" style="animation-delay: 2.15s" />
    <circle cx="402.7586206896552" cy="350" r="4" fill="#795548" class="data-point" style="animation-delay: 2.20s" />
    <circle cx="427.2413793103448" cy="349.91" r="4" fill="#795548" class="data-point" style="animation-delay: 2.25s" />
    <circle cx="451.7241379310345" cy="349.85" r="4" fill="#795548" class="data-point" style="animation-delay: 2.30s" />
    <circle cx="476.2068965517241" cy="349.785" r="4" fill="#795548" class="data-point" style="animation-delay: 2.35s" />
    <circle cx="500.6896551724138" cy="349.72" r="4" fill="#795548" class="data-point" style="animation-delay: 2.40s" />
    <circle cx="525.1724137931035" cy="349.655" r="4" fill="#795548" class="data-point" style="animation-delay: 2.45s" />
    <circle cx="549.6551724137931" cy="349.61" r="4" fill="#795548" class="data-point" style="animation-delay: 2.50s" />
    <circle cx="574.1379310344828" cy="349.535" r="4" fill="#795548" class="data-point" style="animation-delay: 2.55s" />
    <circle cx="598.6206896551724" cy="349.46" r="4" fill="#795548" class="data-point" style="animation-delay: 2.60s" />
    <circle cx="623.1034482758621" cy="349.37" r="4" fill="#795548" class="data-point" style="animation-delay: 2.65s" />
    <circle cx="647.5862068965517" cy="349.305" r="4" fill="#795548" class="data-point" style="animation-delay: 2.70s" />
    <circle cx="672.0689655172414" cy="349.115" r="4" fill="#795548" class="data-point" style="animation-delay: 2.75s" />
    <circle cx="696.551724137931" cy="349.04" r="4" fill="#795548" class="data-point" style="animation-delay: 2.80s" />
    <circle cx="721.0344827586207" cy="349.015" r="4" fill="#795548" class="data-point" style="animation-delay: 2.85s" />
    <circle cx="745.5172413793103" cy="348.985" r="4" fill="#795548" class="data-point" style="animation-delay: 2.90s" />
    <circle cx="770" cy="348.945" r="4" fill="#795548" class="data-point" style="animation-delay: 2.95s" />
    
    <circle cx="60" cy="350" r="4" fill="#00bcd4" class="data-point" style="animation-delay: 1.50s" />
    <circle cx="84.48275862068965" cy="350" r="4" fill="#00bcd4" class="data-point" style="animation-delay: 1.55s" />
    <circle cx="108.9655172413793" cy="350" r="4" fill="#00bcd4" class="data-point" style="animation-delay: 1.60s" />
    <circle cx="133.44827586206895" cy="350" r="4" fill="#00bcd4" class="data-point" style="animation-delay: 1.65s" />
    <circle cx="157.9310344827586" cy="350" r="4" fill="#00bcd4" class="data-point" style="animation-delay: 1.70s" />
    <circle cx="182.41379310344828" cy="350" r="4" fill="#00bcd4" class="data-point" style="animation-delay: 1.75s" />
    <circle cx="206.89655172413794" cy="350" r="4" fill="#00bcd4" class="data-point" style="animation-delay: 1.80s" />
    <circle cx="231.3793103448276" cy="349.985" r="4" fill="#00bcd4" class="data-point" style="animation-delay: 1.85s" />
    <circle cx="255.86206896551724" cy="349.985" r="4" fill="#00bcd4" class="data-point" style="animation-delay: 1.90s" />
    <circle cx="280.34482758620686" cy="349.955" r="4" fill="#00bcd4" class="data-point" style="animation-delay: 1.95s" />
    <circle cx="304.82758620689657" cy="349.91" r="4" fill="#00bcd4" class="data-point" style="animation-delay: 2.00s" />
    <circle cx="329.3103448275862" cy="349.885" r="4" fill="#00bcd4" class="data-point" style="animation-delay: 2.05s" />
    <circle cx="353.7931034482759" cy="349.875" r="4" fill="#00bcd4" class="data-point" style="animation-delay: 2.10s" />
    <circle cx="378.2758620689655" cy="349.85" r="4" fill="#00bcd4" class="data-point" style="animation-delay: 2.15s" />
    <circle cx="402.7586206896552" cy="349.84" r="4" fill="#00bcd4" class="data-point" style="animation-delay: 2.20s" />
    <circle cx="427.2413793103448" cy="349.775" r="4" fill="#00bcd4" class="data-point" style="animation-delay: 2.25s" />
    <circle cx="451.7241379310345" cy="349.735" r="4" fill="#00bcd4" class="data-point" style="animation-delay: 2.30s" />
    <circle cx="476.2068965517241" cy="349.68" r="4" fill="#00bcd4" class="data-point" style="animation-delay: 2.35s" />
    <circle cx="500.6896551724138" cy="349.65" r="4" fill="#00bcd4" class="data-point" style="animation-delay: 2.40s" />
    <circle cx="525.1724137931035" cy="349.585" r="4" fill="#00bcd4" class="data-point" style="animation-delay: 2.45s" />
    <circle cx="549.6551724137931" cy="349.56" r="4" fill="#00bcd4" class="data-point" style="animation-delay: 2.50s" />
    <circle cx="574.1379310344828" cy="349.475" r="4" fill="#00bcd4" class="data-point" style="animation-delay: 2.55s" />
    <circle cx="598.6206896551724" cy="349.39" r="4" fill="#00bcd4" class="data-point" style="animation-delay: 2.60s" />
    <circle cx="623.1034482758621" cy="349.28" r="4" fill="#00bcd4" class="data-point" style="animation-delay: 2.65s" />
    <circle cx="647.5862068965517" cy="349.23" r="4" fill="#00bcd4" class="data-point" style="animation-delay: 2.70s" />
    <circle cx="672.0689655172414" cy="349.205" r="4" fill="#00bcd4" class="data-point" style="animation-delay: 2.75s" />
    <circle cx="696.551724137931" cy="349.14" r="4" fill="#00bcd4" class="data-point" style="animation-delay: 2.80s" />
    <circle cx="721.0344827586207" cy="349.07" r="4" fill="#00bcd4" class="data-point" style="animation-delay: 2.85s" />
    <circle cx="745.5172413793103" cy="349.025" r="4" fill="#00bcd4" class="data-point" style="animation-delay: 2.90s" />
    <circle cx="770" cy="348.98" r="4" fill="#00bcd4" class="data-point" style="animation-delay: 2.95s" />
  </g>
</svg>