<svg xmlns="http://www.w3.org/2000/svg" viewBox="0 0 800 400" width="800" height="400">
  <style>
    @keyframes drawLine {
      to { stroke-dashoffset: 0; }
    }
    @keyframes fadeInPoint {
      from { opacity: 0; }
      to { opacity: 1; }
    }
    .data-line-0 {
      stroke-dasharray: 1212;
      stroke-dashoffset: 1212;
      animation: drawLine 2s ease-out forwards;
    }
    .data-line-1 {
      stroke-dasharray: 1116;
      stroke-dashoffset: 1116;
      animation: drawLine 2s ease-out forwards;
    }
    .data-line-2 {
      stroke-dasharray: 1066;
      stroke-dashoffset: 1066;
      animation: drawLine 2s ease-out forwards;
    }
    .data-line-3 {
      stroke-dasharray: 1066;
      stroke-dashoffset: 1066;
      animation: drawLine 2s ease-out forwards;
    }
    .data-line-4 {
      stroke-dasharray: 1066;
      stroke-dashoffset: 1066;
      animation: drawLine 2s ease-out forwards;
    }
    .data-line-5 {
      stroke-dasharray: 1066;
      stroke-dashoffset: 1066;
      animation: drawLine 2s ease-out forwards;
    }
    .data-line-6 {
      stroke-dasharray: 1066;
      stroke-dashoffset: 1066;
      animation: drawLine 2s ease-out forwards;
    }
    .data-line-7 {
      stroke-dasharray: 1066;
      stroke-dashoffset: 1066;
      animation: drawLine 2s ease-out forwards;
    }
    .data-line-8 {
      stroke-dasharray: 1066;
      stroke-dashoffset: 1066;
      animation: drawLine 2s ease-out forwards;
    }
    .data-line-9 {
      stroke-dasharray: 1066;
      stroke-dashoffset: 1066;
      animation: drawLine 2s ease-out forwards;
    }
    .data-point {
      opacity: 0;
      animation: fadeInPoint 0.5s ease-out forwards;
    }
    .chart-bg { fill: #fff; }
    .chart-text { fill: #24292e; }
    .chart-muted { fill: #6a737d; }
    .chart-grid { stroke: #eee; }
    .chart-axis { stroke: #6a737d; }
    @media (prefers-color-scheme: dark) {
      .chart-bg { fill: #0d1117; }
      .chart-text { fill: #e6edf3; }
      .chart-muted { fill: #8b949e; }
      .chart-grid { stroke: #21262d; }
      .chart-axis { stroke: #8b949e; }
    }
  </style>
  <rect width="800" height="400" class="chart-bg" />
  <text x="400" y="14" text-anchor="middle" class="chart-text" font-size="16" font-weight="bold" font-family="-apple-system, BlinkMacSystemFont, 'Segoe UI', Helvetica, Arial, sans-serif">Top Repositories</text>
  <g class="legend">
    <rect x="-200" y="31" width="12" height="3" fill="#dfb317" />
    <line x1="-200" y1="32.5" x2="-188" y2="32.5" stroke="#dfb317" stroke-width="2" />
    <text x="-184" y="36" class="chart-text" font-size="10" font-family="-apple-system, BlinkMacSystemFont, 'Segoe UI', Helvetica, Arial, sans-serif">dockur/windows</text>
    <rect x="-80" y="31" width="12" height="3" fill="#28a745" />
    <line x1="-80" y1="32.5" x2="-68" y2="32.5" stroke="#28a745" stroke-width="2" />
    <text x="-64" y="36" class="chart-text" font-size="10" font-family="-apple-system, BlinkMacSystemFont, 'Segoe UI', Helvetica, Arial, sans-serif">dockur/macos</text>
    <rect x="40" y="31" width="12" height="3" fill="#e74c3c" />
    <line x1="40" y1="32.5" x2="52" y2="32.5" stroke="#e74c3c" stroke-width="2" />
    <text x="56" y="36" class="chart-text" font-size="10" font-family="-apple-system, BlinkMacSystemFont, 'Segoe UI', Helvetica, Arial, sans-serif">vdsm/virtual-dsm</text>
    <rect x="160" y="31" width="12" height="3" fill="#3498db" />
    <line x1="160" y1="32.5" x2="172" y2="32.5" stroke="#3498db" stroke-width="2" />
    <text x="176" y="36" class="chart-text" font-size="10" font-family="-apple-system, BlinkMacSystemFont, 'Segoe UI', Helvetica, Arial, sans-serif">dockur/windows-arm</text>
    <rect x="280" y="31" width="12" height="3" fill="#9b59b6" />
    <line x1="280" y1="32.5" x2="292" y2="32.5" stroke="#9b59b6" stroke-width="2" />
    <text x="296" y="36" class="chart-text" font-size="10" font-family="-apple-system, BlinkMacSystemFont, 'Segoe UI', Helvetica, Arial, sans-serif">qemus/qemu</text>
    <rect x="400" y="31" width="12" height="3" fill="#e67e22" />
    <line x1="400" y1="32.5" x2="412" y2="32.5" stroke="#e67e22" stroke-width="2" />
    <text x="416" y="36" class="chart-text" font-size="10" font-family="-apple-system, BlinkMacSystemFont, 'Segoe UI', Helvetica, Arial, sans-serif">dockur/samba</text>
    <rect x="520" y="31" width="12" height="3" fill="#1abc9c" />
    <line x1="520" y1="32.5" x2="532" y2="32.5" stroke="#1abc9c" stroke-width="2" />
    <text x="536" y="36" class="chart-text" font-size="10" font-family="-apple-system, BlinkMacSystemFont, 'Segoe UI', Helvetica, Arial, sans-serif">dockur/umbrel</text>
    <rect x="640" y="31" width="12" height="3" fill="#e84393" />
    <line x1="640" y1="32.5" x2="652" y2="32.5" stroke="#e84393" stroke-width="2" />
    <text x="656" y="36" class="chart-text" font-size="10" font-family="-apple-system, BlinkMacSystemFont, 'Segoe UI', Helvetica, Arial, sans-serif">dockur/proxmox</text>
    <rect x="760" y="31" width="12" height="3" fill="#795548" />
    <line x1="760" y1="32.5" x2="772" y2="32.5" stroke="#795548" stroke-width="2" />
    <text x="776" y="36" class="chart-text" font-size="10" font-family="-apple-system, BlinkMacSystemFont, 'Segoe UI', Helvetica, Arial, sans-serif">dockur/casa</text>
    <rect x="880" y="31" width="12" height="3" fill="#00bcd4" />
    <line x1="880" y1="32.5" x2="892" y2="32.5" stroke="#00bcd4" stroke-width="2" />
    <text x="896" y="36" class="chart-text" font-size="10" font-family="-apple-system, BlinkMacSystemFont, 'Segoe UI', Helvetica, Arial, sans-serif">dockur/tor</text>
  </g>
  <g class="grid">
    <line x1="60" y1="350" x2="770" y2="350" class="chart-grid" stroke-opacity="0.3" />
    <text x="778" y="354" text-anchor="start" class="chart-muted" font-size="11" font-family="-apple-system, BlinkMacSystemFont, 'Segoe UI', Helvetica, Arial, sans-serif">0</text>
    <line x1="60" y1="300" x2="770" y2="300" class="chart-grid" stroke-opacity="0.3" />
    <text x="778" y="304" text-anchor="start" class="chart-muted" font-size="11" font-family="-apple-system, BlinkMacSystemFont, 'Segoe UI', Helvetica, Arial, sans-serif">10K</text>
    <line x1="60" y1="250" x2="770" y2="250" class="chart-grid" stroke-opacity="0.3" />
    <text x="778" y="254" text-anchor="start" class="chart-muted" font-size="11" font-family="-apple-system, BlinkMacSystemFont, 'Segoe UI', Helvetica, Arial, sans-serif">20K</text>
    <line x1="60" y1="200" x2="770" y2="200" class="chart-grid" stroke-opacity="0.3" />
    <text x="778" y="204" text-anchor="start" class="chart-muted" font-size="11" font-family="-apple-system, BlinkMacSystemFont, 'Segoe UI', Helvetica, Arial, sans-serif">30K</text>
    <line x1="60" y1="150" x2="770" y2="150" class="chart-grid" stroke-opacity="0.3" />
    <text x="778" y="154" text-anchor="start" class="chart-muted" font-size="11" font-family="-apple-system, BlinkMacSystemFont, 'Segoe UI', Helvetica, Arial, sans-serif">40K</text>
    <line x1="60" y1="100" x2="770" y2="100" class="chart-grid" stroke-opacity="0.3" />
    <text x="778" y="104" text-anchor="start" class="chart-muted" font-size="11" font-family="-apple-system, BlinkMacSystemFont, 'Segoe UI', Helvetica, Arial, sans-serif">50K</text>
    <line x1="60" y1="50" x2="770" y2="50" class="chart-grid" stroke-opacity="0.3" />
    <text x="778" y="54" text-anchor="start" class="chart-muted" font-size="11" font-family="-apple-system, BlinkMacSystemFont, 'Segoe UI', Helvetica, Arial, sans-serif">60K</text>
  </g>
  <g class="milestones">
    
  </g>
  <g class="x-axis">
    <text x="60" y="370" text-anchor="middle" class="chart-muted" font-size="11" font-family="-apple-system, BlinkMacSystemFont, 'Segoe UI', Helvetica, Arial, sans-serif">2023</text>
    <text x="231.3793103448276" y="370" text-anchor="middle" class="chart-muted" font-size="11" font-family="-apple-system, BlinkMacSystemFont, 'Segoe UI', Helvetica, Arial, sans-serif">2024</text>
    <text x="451.7241379310345" y="370" text-anchor="middle" class="chart-muted" font-size="11" font-family="-apple-system, BlinkMacSystemFont, 'Segoe UI', Helvetica, Arial, sans-serif">2025</text>
    <text x="672.0689655172414" y="370" text-anchor="middle" class="chart-muted" font-size="11" font-family="-apple-system, BlinkMacSystemFont, 'Segoe UI', Helvetica, Arial, sans-serif">2026</text>
  </g>
  <line x1="770" y1="50" x2="770" y2="350" class="chart-axis" stroke-width="1" />
  <line x1="60" y1="350" x2="770" y2="350" class="chart-axis" stroke-width="1" />
  
  
  
  
  
  
  
  
  
  
  <path d="M60,350 C68.16091954022988,350 76.32183908045977,350 84.48275862068965,350 C92.64367816091954,350 100.80459770114942,350 108.9655172413793,350 C117.12643678160919,350 125.28735632183907,350 133.44827586206895,350 C141.60919540229884,350 149.77011494252872,350 157.9310344827586,350 C166.0919540229885,350 174.2528735632184,350 182.41379310344828,350 C190.57471264367817,350 198.73563218390805,350 206.89655172413794,350 C215.05747126436782,350 223.2183908045977,350 231.3793103448276,350 C239.54022988505747,350 247.70114942528735,350 255.86206896551724,343.335 C264.0229885057471,336.66999999999996 272.183908045977,306.665 280.34482758620686,296.665 C288.50574712643675,286.665 296.6666666666667,286.6683333333333 304.82758620689657,283.335 C312.98850574712645,280.00166666666667 321.14942528735634,278.88750000000005 329.3103448275862,276.665 C337.4712643678161,274.4425 345.632183908046,270 353.7931034482759,270 C361.95402298850576,270 370.11494252873564,270 378.2758620689655,270 C386.4367816091954,270 394.5977011494253,270 402.7586206896552,263.33500000000004 C410.91954022988506,256.6700000000001 419.08045977011494,209.8754542404266 427.2413793103448,203.335 C435.4022988505747,196.79454575957342 443.5632183908046,197.9731889499938 451.7241379310345,196.665 C459.88505747126436,195.35681105000617 468.04597701149424,192.22166666666666 476.2068965517241,190 C484.367816091954,187.77833333333334 492.5287356321839,183.335 500.6896551724138,183.335 C508.85057471264366,183.335 517.0114942528736,183.335 525.1724137931035,183.335 C533.3333333333334,183.335 541.4942528735633,178.8875 549.6551724137931,176.665 C557.816091954023,174.4425 565.9770114942529,174.44416666666666 574.1379310344828,170 C582.2988505747127,165.55583333333334 590.4597701149426,154.78416666666666 598.6206896551724,150 C606.7816091954023,145.21583333333334 614.9425287356322,144.19750000000002 623.1034482758621,141.29500000000002 C631.264367816092,138.3925 639.4252873563219,135.4875 647.5862068965517,132.585 C655.7471264367816,129.6825 663.9080459770115,126.78166666666667 672.0689655172414,123.88 C680.2298850574713,120.97833333333332 688.3908045977012,118.07666666666668 696.551724137931,115.17500000000001 C704.7126436781609,112.27333333333334 712.8735632183908,109.3725 721.0344827586207,106.47 C729.1954022988506,103.5675 737.3563218390805,100.6625 745.5172413793103,97.75999999999999 C753.6781609195402,94.85749999999999 761.8390804597701,91.95666666666666 770,89.055" fill="none" stroke="#dfb317" stroke-width="2.5" class="data-line-0" />
  <path d="M60,350 C68.16091954022988,350 76.32183908045977,350 84.48275862068965,350 C92.64367816091954,350 100.80459770114942,350 108.9655172413793,350 C117.12643678160919,350 125.28735632183907,350 133.44827586206895,350 C141.60919540229884,350 149.77011494252872,350 157.9310344827586,350 C166.0919540229885,350 174.2528735632184,350 182.41379310344828,350 C190.57471264367817,350 198.73563218390805,350 206.89655172413794,350 C215.05747126436782,350 223.2183908045977,350 231.3793103448276,350 C239.54022988505747,350 247.70114942528735,350 255.86206896551724,350 C264.0229885057471,350 272.183908045977,350 280.34482758620686,350 C288.50574712643675,350 296.6666666666667,350 304.82758620689657,350 C312.98850574712645,350 321.14942528735634,346.575 329.3103448275862,346.575 C337.4712643678161,346.575 345.632183908046,346.575 353.7931034482759,346.575 C361.95402298850576,346.575 370.11494252873564,346.575 378.2758620689655,346.575 C386.4367816091954,346.575 394.5977011494253,346.575 402.7586206896552,346.44 C410.91954022988506,346.305 419.08045977011494,308.82689182110516 427.2413793103448,305.495 C435.4022988505747,302.16310817889484 443.5632183908046,302.8462955934351 451.7241379310345,302.075 C459.88505747126436,301.30370440656486 468.04597701149424,295.225 476.2068965517241,295.225 C484.367816091954,295.225 492.5287356321839,295.225 500.6896551724138,295.225 C508.85057471264366,295.225 517.0114942528736,291.8 525.1724137931035,291.8 C533.3333333333334,291.8 541.4942528735633,291.8 549.6551724137931,291.8 C557.816091954023,291.8 565.9770114942529,274.54843779534036 574.1379310344828,271.26 C582.2988505747127,267.9715622046596 590.4597701149426,268.7794556222498 598.6206896551724,267.84000000000003 C606.7816091954023,266.90054437775024 614.9425287356322,265.5566666666667 623.1034482758621,264.415 C631.264367816092,263.27333333333337 639.4252873563219,260.99 647.5862068965517,260.99 C655.7471264367816,260.99 663.9080459770115,260.99 672.0689655172414,260.99 C680.2298850574713,260.99 688.3908045977012,258.7108333333333 696.551724137931,257.57 C704.7126436781609,256.4291666666667 712.8735632183908,255.28666666666663 721.0344827586207,254.14499999999998 C729.1954022988506,253.00333333333333 737.3563218390805,251.72416666666666 745.5172413793103,250.72 C753.6781609195402,249.71583333333334 761.8390804597701,248.98666666666668 770,248.12" fill="none" stroke="#28a745" stroke-width="2.5" class="data-line-1" />
  <path d="M60,349.995 C68.16091954022988,349.3233333333333 76.32183908045977,348.3423742000898 84.48275862068965,347.98 C92.64367816091954,347.61762579991023 100.80459770114942,347.81982561924343 108.9655172413793,347.49 C117.12643678160919,347.1601743807566 125.28735632183907,346.1483333333333 133.44827586206895,345.7 C141.60919540229884,345.25166666666667 149.77011494252872,345.06166666666667 157.9310344827586,344.8 C166.0919540229885,344.53833333333336 174.2528735632184,344.3258333333333 182.41379310344828,344.13 C190.57471264367817,343.93416666666667 198.73563218390805,343.82916666666665 206.89655172413794,343.625 C215.05747126436782,343.42083333333335 223.2183908045977,343.14666666666665 231.3793103448276,342.905 C239.54022988505747,342.6633333333333 247.70114942528735,342.4925 255.86206896551724,342.175 C264.0229885057471,341.8575 272.183908045977,341.32666666666665 280.34482758620686,341 C288.50574712643675,340.67333333333335 296.6666666666667,340.4608333333333 304.82758620689657,340.215 C312.98850574712645,339.96916666666664 321.14942528735634,339.78666666666663 329.3103448275862,339.525 C337.4712643678161,339.2633333333333 345.632183908046,338.8558333333333 353.7931034482759,338.645 C361.95402298850576,338.43416666666667 370.11494252873564,338.44916666666666 378.2758620689655,338.26 C386.4367816091954,338.0708333333333 394.5977011494253,337.77666666666664 402.7586206896552,337.51 C410.91954022988506,337.24333333333334 419.08045977011494,336.8616666666667 427.2413793103448,336.66 C435.4022988505747,336.45833333333337 443.5632183908046,336.4466666666667 451.7241379310345,336.3 C459.88505747126436,336.1533333333333 468.04597701149424,335.97499999999997 476.2068965517241,335.78 C484.367816091954,335.585 492.5287356321839,335.365 500.6896551724138,335.13 C508.85057471264366,334.895 517.0114942528736,334.57916666666665 525.1724137931035,334.37 C533.3333333333334,334.16083333333336 541.4942528735633,333.9875 549.6551724137931,333.875 C557.816091954023,333.7625 565.9770114942529,333.7400428045396 574.1379310344828,333.695 C582.2988505747127,333.6499571954604 590.4597701149426,333.68428127328394 598.6206896551724,333.595 C606.7816091954023,333.5057187267161 614.9425287356322,333.27666666666664 623.1034482758621,333.14 C631.264367816092,333.00333333333333 639.4252873563219,333.00916666666666 647.5862068965517,332.775 C655.7471264367816,332.5408333333333 663.9080459770115,331.97083333333336 672.0689655172414,331.735 C680.2298850574713,331.49916666666667 688.3908045977012,331.46500000000003 696.551724137931,331.36 C704.7126436781609,331.255 712.8735632183908,331.175 721.0344827586207,331.105 C729.1954022988506,331.035 737.3563218390805,331.00333333333333 745.5172413793103,330.94 C753.6781609195402,330.87666666666667 761.8390804597701,330.7966666666667 770,330.725" fill="none" stroke="#e74c3c" stroke-width="2.5" class="data-line-2" />
  <path d="M60,350 C68.16091954022988,350 76.32183908045977,350 84.48275862068965,350 C92.64367816091954,350 100.80459770114942,350 108.9655172413793,350 C117.12643678160919,350 125.28735632183907,350 133.44827586206895,350 C141.60919540229884,350 149.77011494252872,350 157.9310344827586,350 C166.0919540229885,350 174.2528735632184,350 182.41379310344828,350 C190.57471264367817,350 198.73563218390805,350 206.89655172413794,350 C215.05747126436782,350 223.2183908045977,350 231.3793103448276,350 C239.54022988505747,350 247.70114942528735,350 255.86206896551724,349.965 C264.0229885057471,349.92999999999995 272.183908045977,348.6875 280.34482758620686,348.285 C288.50574712643675,347.88250000000005 296.6666666666667,347.75166666666667 304.82758620689657,347.55 C312.98850574712645,347.34833333333336 321.14942528735634,347.2033333333333 329.3103448275862,347.075 C337.4712643678161,346.94666666666666 345.632183908046,346.8875 353.7931034482759,346.78 C361.95402298850576,346.67249999999996 370.11494252873564,346.5279878692863 378.2758620689655,346.43 C386.4367816091954,346.33201213071374 394.5977011494253,346.4164078195895 402.7586206896552,346.07 C410.91954022988506,345.7235921804105 419.08045977011494,344.29988633535226 427.2413793103448,343.92 C435.4022988505747,343.5401136646478 443.5632183908046,343.6332190935679 451.7241379310345,343.525 C459.88505747126436,343.41678090643205 468.04597701149424,343.3175 476.2068965517241,343.195 C484.367816091954,343.0725 492.5287356321839,342.9166666666667 500.6896551724138,342.79 C508.85057471264366,342.66333333333336 517.0114942528736,342.53000000000003 525.1724137931035,342.435 C533.3333333333334,342.34000000000003 541.4942528735633,342.295 549.6551724137931,342.22 C557.816091954023,342.14500000000004 565.9770114942529,342.18333333333334 574.1379310344828,341.985 C582.2988505747127,341.7866666666667 590.4597701149426,341.2908333333333 598.6206896551724,341.03 C606.7816091954023,340.76916666666665 614.9425287356322,340.57166666666666 623.1034482758621,340.42 C631.264367816092,340.2683333333334 639.4252873563219,340.2116666666667 647.5862068965517,340.12 C655.7471264367816,340.0283333333333 663.9080459770115,339.94083333333333 672.0689655172414,339.87 C680.2298850574713,339.7991666666667 688.3908045977012,339.75416666666666 696.551724137931,339.695 C704.7126436781609,339.6358333333333 712.8735632183908,339.5808333333333 721.0344827586207,339.515 C729.1954022988506,339.44916666666666 737.3563218390805,339.37 745.5172413793103,339.3 C753.6781609195402,339.23 761.8390804597701,339.16333333333336 770,339.095" fill="none" stroke="#3498db" stroke-width="2.5" class="data-line-3" />
  <path d="M60,350 C68.16091954022988,349.9984188611699 76.32183908045977,349.9997434164903 84.48275862068965,349.995 C92.64367816091954,349.99025658350973 100.80459770114942,349.98083333333335 108.9655172413793,349.97 C117.12643678160919,349.9591666666667 125.28735632183907,349.945 133.44827586206895,349.93 C141.60919540229884,349.915 149.77011494252872,349.8933333333333 157.9310344827586,349.88 C166.0919540229885,349.8666666666667 174.2528735632184,349.87 182.41379310344828,349.85 C190.57471264367817,349.83000000000004 198.73563218390805,349.7891666666667 206.89655172413794,349.76 C215.05747126436782,349.7308333333333 223.2183908045977,349.7141666666667 231.3793103448276,349.675 C239.54022988505747,349.6358333333333 247.70114942528735,349.6108333333333 255.86206896551724,349.525 C264.0229885057471,349.43916666666667 272.183908045977,349.27083333333337 280.34482758620686,349.16 C288.50574712643675,349.0491666666667 296.6666666666667,348.96083333333337 304.82758620689657,348.86 C312.98850574712645,348.75916666666666 321.14942528735634,348.6433333333333 329.3103448275862,348.555 C337.4712643678161,348.4666666666667 345.632183908046,348.4083333333333 353.7931034482759,348.33 C361.95402298850576,348.25166666666667 370.11494252873564,348.15999999999997 378.2758620689655,348.085 C386.4367816091954,348.01 394.5977011494253,347.9658333333333 402.7586206896552,347.88 C410.91954022988506,347.7941666666667 419.08045977011494,347.67 427.2413793103448,347.57 C435.4022988505747,347.46999999999997 443.5632183908046,347.36749999999995 451.7241379310345,347.28 C459.88505747126436,347.1925 468.04597701149424,347.13666666666666 476.2068965517241,347.045 C484.367816091954,346.9533333333334 492.5287356321839,346.86583333333334 500.6896551724138,346.73 C508.85057471264366,346.5941666666667 517.0114942528736,346.375 525.1724137931035,346.23 C533.3333333333334,346.08500000000004 541.4942528735633,346.00666666666666 549.6551724137931,345.86 C557.816091954023,345.71333333333337 565.9770114942529,345.57250000000005 574.1379310344828,345.35 C582.2988505747127,345.1275 590.4597701149426,344.7933333333333 598.6206896551724,344.525 C606.7816091954023,344.25666666666666 614.9425287356322,344.095 623.1034482758621,343.74 C631.264367816092,343.385 639.4252873563219,342.69166666666666 647.5862068965517,342.395 C655.7471264367816,342.0983333333333 663.9080459770115,342.10499999999996 672.0689655172414,341.96 C680.2298850574713,341.815 688.3908045977012,341.6508333333333 696.551724137931,341.525 C704.7126436781609,341.39916666666664 712.8735632183908,341.32166666666666 721.0344827586207,341.205 C729.1954022988506,341.0883333333333 737.3563218390805,340.92499999999995 745.5172413793103,340.825 C753.6781609195402,340.725 761.8390804597701,340.67833333333334 770,340.605" fill="none" stroke="#9b59b6" stroke-width="2.5" class="data-line-4" />
  <path d="M60,350 C68.16091954022988,350 76.32183908045977,350 84.48275862068965,350 C92.64367816091954,350 100.80459770114942,350 108.9655172413793,350 C117.12643678160919,350 125.28735632183907,350 133.44827586206895,350 C141.60919540229884,350 149.77011494252872,350 157.9310344827586,350 C166.0919540229885,350 174.2528735632184,350 182.41379310344828,350 C190.57471264367817,350 198.73563218390805,350 206.89655172413794,350 C215.05747126436782,350 223.2183908045977,350 231.3793103448276,350 C239.54022988505747,350 247.70114942528735,350 255.86206896551724,349.995 C264.0229885057471,349.99 272.183908045977,349.9125 280.34482758620686,349.875 C288.50574712643675,349.8375 296.6666666666667,349.8025 304.82758620689657,349.77 C312.98850574712645,349.7375 321.14942528735634,349.7008333333333 329.3103448275862,349.68 C337.4712643678161,349.6591666666667 345.632183908046,349.66249999999997 353.7931034482759,349.645 C361.95402298850576,349.6275 370.11494252873564,349.605 378.2758620689655,349.575 C386.4367816091954,349.54499999999996 394.5977011494253,349.5333333333333 402.7586206896552,349.465 C410.91954022988506,349.39666666666665 419.08045977011494,349.2441666666667 427.2413793103448,349.165 C435.4022988505747,349.08583333333337 443.5632183908046,349.06333333333333 451.7241379310345,348.99 C459.88505747126436,348.9166666666667 468.04597701149424,348.795 476.2068965517241,348.725 C484.367816091954,348.65500000000003 492.5287356321839,348.63916666666665 500.6896551724138,348.57 C508.85057471264366,348.50083333333333 517.0114942528736,348.3825 525.1724137931035,348.31 C533.3333333333334,348.2375 541.4942528735633,348.1975 549.6551724137931,348.135 C557.816091954023,348.0725 565.9770114942529,348.0108333333333 574.1379310344828,347.935 C582.2988505747127,347.8591666666667 590.4597701149426,347.75666666666666 598.6206896551724,347.68 C606.7816091954023,347.60333333333335 614.9425287356322,347.5516666666667 623.1034482758621,347.475 C631.264367816092,347.39833333333337 639.4252873563219,347.2916666666667 647.5862068965517,347.22 C655.7471264367816,347.14833333333337 663.9080459770115,347.1275 672.0689655172414,347.045 C680.2298850574713,346.96250000000003 688.3908045977012,346.8025 696.551724137931,346.725 C704.7126436781609,346.64750000000004 712.8735632183908,346.6375 721.0344827586207,346.58 C729.1954022988506,346.5225 737.3563218390805,346.43416666666667 745.5172413793103,346.38 C753.6781609195402,346.3258333333333 761.8390804597701,346.2966666666667 770,346.255" fill="none" stroke="#e67e22" stroke-width="2.5" class="data-line-5" />
  <path d="M60,350 C68.16091954022988,350 76.32183908045977,350 84.48275862068965,350 C92.64367816091954,350 100.80459770114942,350 108.9655172413793,350 C117.12643678160919,350 125.28735632183907,350 133.44827586206895,350 C141.60919540229884,350 149.77011494252872,350 157.9310344827586,350 C166.0919540229885,350 174.2528735632184,350 182.41379310344828,350 C190.57471264367817,350 198.73563218390805,350 206.89655172413794,350 C215.05747126436782,350 223.2183908045977,350 231.3793103448276,350 C239.54022988505747,350 247.70114942528735,350 255.86206896551724,350 C264.0229885057471,350 272.183908045977,350 280.34482758620686,350 C288.50574712643675,350 296.6666666666667,350 304.82758620689657,350 C312.98850574712645,350 321.14942528735634,350 329.3103448275862,350 C337.4712643678161,350 345.632183908046,350 353.7931034482759,350 C361.95402298850576,350 370.11494252873564,350 378.2758620689655,350 C386.4367816091954,350 394.5977011494253,349.87166666666667 402.7586206896552,349.785 C410.91954022988506,349.6983333333334 419.08045977011494,349.55583333333334 427.2413793103448,349.48 C435.4022988505747,349.4041666666667 443.5632183908046,349.3825 451.7241379310345,349.33 C459.88505747126436,349.2775 468.04597701149424,349.21250000000003 476.2068965517241,349.165 C484.367816091954,349.1175 492.5287356321839,349.08333333333337 500.6896551724138,349.045 C508.85057471264366,349.00666666666666 517.0114942528736,348.97 525.1724137931035,348.935 C533.3333333333334,348.9 541.4942528735633,348.8691666666666 549.6551724137931,348.835 C557.816091954023,348.80083333333334 565.9770114942529,348.7683333333334 574.1379310344828,348.73 C582.2988505747127,348.69166666666666 590.4597701149426,348.6491666666667 598.6206896551724,348.605 C606.7816091954023,348.56083333333333 614.9425287356322,348.5058333333333 623.1034482758621,348.465 C631.264367816092,348.4241666666666 639.4252873563219,348.39 647.5862068965517,348.36 C655.7471264367816,348.33000000000004 663.9080459770115,348.30583333333334 672.0689655172414,348.285 C680.2298850574713,348.2641666666667 688.3908045977012,348.25333333333333 696.551724137931,348.235 C704.7126436781609,348.2166666666667 712.8735632183908,348.19666666666666 721.0344827586207,348.175 C729.1954022988506,348.15333333333336 737.3563218390805,348.13 745.5172413793103,348.105 C753.6781609195402,348.08000000000004 761.8390804597701,348.0516666666667 770,348.025" fill="none" stroke="#1abc9c" stroke-width="2.5" class="data-line-6" />
  <path d="M60,350 C68.16091954022988,350 76.32183908045977,350 84.48275862068965,350 C92.64367816091954,350 100.80459770114942,350 108.9655172413793,350 C117.12643678160919,350 125.28735632183907,350 133.44827586206895,350 C141.60919540229884,350 149.77011494252872,350 157.9310344827586,350 C166.0919540229885,350 174.2528735632184,350 182.41379310344828,350 C190.57471264367817,350 198.73563218390805,350 206.89655172413794,350 C215.05747126436782,350 223.2183908045977,350 231.3793103448276,350 C239.54022988505747,350 247.70114942528735,350 255.86206896551724,350 C264.0229885057471,350 272.183908045977,350 280.34482758620686,350 C288.50574712643675,350 296.6666666666667,350 304.82758620689657,350 C312.98850574712645,350 321.14942528735634,350 329.3103448275862,350 C337.4712643678161,350 345.632183908046,350 353.7931034482759,350 C361.95402298850576,350 370.11494252873564,350 378.2758620689655,350 C386.4367816091954,350 394.5977011494253,350 402.7586206896552,350 C410.91954022988506,350 419.08045977011494,350 427.2413793103448,350 C435.4022988505747,350 443.5632183908046,350 451.7241379310345,350 C459.88505747126436,350 468.04597701149424,350 476.2068965517241,350 C484.367816091954,350 492.5287356321839,350 500.6896551724138,350 C508.85057471264366,350 517.0114942528736,350 525.1724137931035,350 C533.3333333333334,350 541.4942528735633,350 549.6551724137931,350 C557.816091954023,350 565.9770114942529,350 574.1379310344828,350 C582.2988505747127,350 590.4597701149426,350 598.6206896551724,350 C606.7816091954023,350 614.9425287356322,350 623.1034482758621,350 C631.264367816092,350 639.4252873563219,350 647.5862068965517,350 C655.7471264367816,350 663.9080459770115,350 672.0689655172414,350 C680.2298850574713,350 688.3908045977012,350 696.551724137931,350 C704.7126436781609,350 712.8735632183908,350 721.0344827586207,350 C729.1954022988506,350 737.3563218390805,350 745.5172413793103,350 C753.6781609195402,350 761.8390804597701,349.22666666666663 770,348.84" fill="none" stroke="#e84393" stroke-width="2.5" class="data-line-7" />
  <path d="M60,350 C68.16091954022988,350 76.32183908045977,350 84.48275862068965,350 C92.64367816091954,350 100.80459770114942,350 108.9655172413793,350 C117.12643678160919,350 125.28735632183907,350 133.44827586206895,350 C141.60919540229884,350 149.77011494252872,350 157.9310344827586,350 C166.0919540229885,350 174.2528735632184,350 182.41379310344828,350 C190.57471264367817,350 198.73563218390805,350 206.89655172413794,350 C215.05747126436782,350 223.2183908045977,350 231.3793103448276,350 C239.54022988505747,350 247.70114942528735,350 255.86206896551724,350 C264.0229885057471,350 272.183908045977,350 280.34482758620686,350 C288.50574712643675,350 296.6666666666667,350 304.82758620689657,350 C312.98850574712645,350 321.14942528735634,350 329.3103448275862,350 C337.4712643678161,350 345.632183908046,350 353.7931034482759,350 C361.95402298850576,350 370.11494252873564,350 378.2758620689655,350 C386.4367816091954,350 394.5977011494253,350 402.7586206896552,350 C410.91954022988506,350 419.08045977011494,349.935 427.2413793103448,349.91 C435.4022988505747,349.88500000000005 443.5632183908046,349.87166666666667 451.7241379310345,349.85 C459.88505747126436,349.8283333333334 468.04597701149424,349.8016666666666 476.2068965517241,349.78 C484.367816091954,349.7583333333333 492.5287356321839,349.74083333333334 500.6896551724138,349.72 C508.85057471264366,349.6991666666667 517.0114942528736,349.6733333333333 525.1724137931035,349.655 C533.3333333333334,349.63666666666666 541.4942528735633,349.63 549.6551724137931,349.61 C557.816091954023,349.59000000000003 565.9770114942529,349.56000000000006 574.1379310344828,349.535 C582.2988505747127,349.51 590.4597701149426,349.48749999999995 598.6206896551724,349.46 C606.7816091954023,349.4325 614.9425287356322,349.3958333333333 623.1034482758621,349.37 C631.264367816092,349.3441666666667 639.4252873563219,349.3475 647.5862068965517,349.305 C655.7471264367816,349.2625 663.9080459770115,349.1591666666667 672.0689655172414,349.115 C680.2298850574713,349.0708333333333 688.3908045977012,349.0566666666667 696.551724137931,349.04 C704.7126436781609,349.02333333333337 712.8735632183908,349.02416666666664 721.0344827586207,349.015 C729.1954022988506,349.0058333333333 737.3563218390805,348.99666666666667 745.5172413793103,348.985 C753.6781609195402,348.97333333333336 761.8390804597701,348.9583333333333 770,348.945" fill="none" stroke="#795548" stroke-width="2.5" class="data-line-8" />
  <path d="M60,350 C68.16091954022988,350 76.32183908045977,350 84.48275862068965,350 C92.64367816091954,350 100.80459770114942,350 108.9655172413793,350 C117.12643678160919,350 125.28735632183907,350 133.44827586206895,350 C141.60919540229884,350 149.77011494252872,350 157.9310344827586,350 C166.0919540229885,350 174.2528735632184,350 182.41379310344828,350 C190.57471264367817,350 198.73563218390805,350 206.89655172413794,350 C215.05747126436782,350 223.2183908045977,349.985 231.3793103448276,349.985 C239.54022988505747,349.985 247.70114942528735,349.985 255.86206896551724,349.985 C264.0229885057471,349.985 272.183908045977,349.9675 280.34482758620686,349.955 C288.50574712643675,349.9425 296.6666666666667,349.9216666666667 304.82758620689657,349.91 C312.98850574712645,349.89833333333337 321.14942528735634,349.8908333333333 329.3103448275862,349.885 C337.4712643678161,349.87916666666666 345.632183908046,349.8808333333333 353.7931034482759,349.875 C361.95402298850576,349.8691666666667 370.11494252873564,349.85400818834023 378.2758620689655,349.85 C386.4367816091954,349.8459918116598 394.5977011494253,349.849161573349 402.7586206896552,349.84 C410.91954022988506,349.8308384266509 419.08045977011494,349.78749999999997 427.2413793103448,349.77 C435.4022988505747,349.7525 443.5632183908046,349.75 451.7241379310345,349.735 C459.88505747126436,349.72 468.04597701149424,349.69416666666666 476.2068965517241,349.68 C484.367816091954,349.66583333333335 492.5287356321839,349.6658333333333 500.6896551724138,349.65 C508.85057471264366,349.63416666666666 517.0114942528736,349.59999999999997 525.1724137931035,349.585 C533.3333333333334,349.57 541.4942528735633,349.57916666666665 549.6551724137931,349.56 C557.816091954023,349.54083333333335 565.9770114942529,349.49833333333333 574.1379310344828,349.47 C582.2988505747127,349.4416666666667 590.4597701149426,349.4225 598.6206896551724,349.39 C606.7816091954023,349.35749999999996 614.9425287356322,349.3016666666666 623.1034482758621,349.275 C631.264367816092,349.24833333333333 639.4252873563219,349.2425 647.5862068965517,349.23 C655.7471264367816,349.21750000000003 663.9080459770115,349.215 672.0689655172414,349.2 C680.2298850574713,349.185 688.3908045977012,349.16166666666663 696.551724137931,349.14 C704.7126436781609,349.11833333333334 712.8735632183908,349.08916666666664 721.0344827586207,349.07 C729.1954022988506,349.05083333333334 737.3563218390805,349.03999999999996 745.5172413793103,349.025 C753.6781609195402,349.01 761.8390804597701,348.995 770,348.98" fill="none" stroke="#00bcd4" stroke-width="2.5" class="data-line-9" />
  <g class="points">
    
    <circle cx="60" cy="350" r="4" fill="#dfb317" class="data-point" style="animation-delay: 1.50s" />
    <circle cx="84.48275862068965" cy="350" r="4" fill="#dfb317" class="data-point" style="animation-delay: 1.55s" />
    <circle cx="108.9655172413793" cy="350" r="4" fill="#dfb317" class="data-point" style="animation-delay: 1.60s" />
    <circle cx="133.44827586206895" cy="350" r="4" fill="#dfb317" class="data-point" style="animation-delay: 1.65s" />
    <circle cx="157.9310344827586" cy="350" r="4" fill="#dfb317" class="data-point" style="animation-delay: 1.70s" />
    <circle cx="182.41379310344828" cy="350" r="4" fill="#dfb317" class="data-point" style="animation-delay: 1.75s" />
    <circle cx="206.89655172413794" cy="350" r="4" fill="#dfb317" class="data-point" style="animation-delay: 1.80s" />
    <circle cx="231.3793103448276" cy="350" r="4" fill="#dfb317" class="data-point" style="animation-delay: 1.85s" />
    <circle cx="255.86206896551724" cy="343.335" r="4" fill="#dfb317" class="data-point" style="animation-delay: 1.90s" />
    <circle cx="280.34482758620686" cy="296.665" r="4" fill="#dfb317" class="data-point" style="animation-delay: 1.95s" />
    <circle cx="304.82758620689657" cy="283.335" r="4" fill="#dfb317" class="data-point" style="animation-delay: 2.00s" />
    <circle cx="329.3103448275862" cy="276.665" r="4" fill="#dfb317" class="data-point" style="animation-delay: 2.05s" />
    <circle cx="353.7931034482759" cy="270" r="4" fill="#dfb317" class="data-point" style="animation-delay: 2.10s" />
    <circle cx="378.2758620689655" cy="270" r="4" fill="#dfb317" class="data-point" style="animation-delay: 2.15s" />
    <circle cx="402.7586206896552" cy="263.33500000000004" r="4" fill="#dfb317" class="data-point" style="animation-delay: 2.20s" />
    <circle cx="427.2413793103448" cy="203.335" r="4" fill="#dfb317" class="data-point" style="animation-delay: 2.25s" />
    <circle cx="451.7241379310345" cy="196.665" r="4" fill="#dfb317" class="data-point" style="animation-delay: 2.30s" />
    <circle cx="476.2068965517241" cy="190" r="4" fill="#dfb317" class="data-point" style="animation-delay: 2.35s" />
    <circle cx="500.6896551724138" cy="183.335" r="4" fill="#dfb317" class="data-point" style="animation-delay: 2.40s" />
    <circle cx="525.1724137931035" cy="183.335" r="4" fill="#dfb317" class="data-point" style="animation-delay: 2.45s" />
    <circle cx="549.6551724137931" cy="176.665" r="4" fill="#dfb317" class="data-point" style="animation-delay: 2.50s" />
    <circle cx="574.1379310344828" cy="170" r="4" fill="#dfb317" class="data-point" style="animation-delay: 2.55s" />
    <circle cx="598.6206896551724" cy="150" r="4" fill="#dfb317" class="data-point" style="animation-delay: 2.60s" />
    <circle cx="623.1034482758621" cy="141.29500000000002" r="4" fill="#dfb317" class="data-point" style="animation-delay: 2.65s" />
    <circle cx="647.5862068965517" cy="132.585" r="4" fill="#dfb317" class="data-point" style="animation-delay: 2.70s" />
    <circle cx="672.0689655172414" cy="123.88" r="4" fill="#dfb317" class="data-point" style="animation-delay: 2.75s" />
    <circle cx="696.551724137931" cy="115.17500000000001" r="4" fill="#dfb317" class="data-point" style="animation-delay: 2.80s" />
    <circle cx="721.0344827586207" cy="106.47" r="4" fill="#dfb317" class="data-point" style="animation-delay: 2.85s" />
    <circle cx="745.5172413793103" cy="97.75999999999999" r="4" fill="#dfb317" class="data-point" style="animation-delay: 2.90s" />
    <circle cx="770" cy="89.055" r="4" fill="#dfb317" class="data-point" style="animation-delay: 2.95s" />
    
    <circle cx="60" cy="350" r="4" fill="#28a745" class="data-point" style="animation-delay: 1.50s" />
    <circle cx="84.48275862068965" cy="350" r="4" fill="#28a745" class="data-point" style="animation-delay: 1.55s" />
    <circle cx="108.9655172413793" cy="350" r="4" fill="#28a745" class="data-point" style="animation-delay: 1.60s" />
    <circle cx="133.44827586206895" cy="350" r="4" fill="#28a745" class="data-point" style="animation-delay: 1.65s" />
    <circle cx="157.9310344827586" cy="350" r="4" fill="#28a745" class="data-point" style="animation-delay: 1.70s" />
    <circle cx="182.41379310344828" cy="350" r="4" fill="#28a745" class="data-point" style="animation-delay: 1.75s" />
    <circle cx="206.89655172413794" cy="350" r="4" fill="#28a745" class="data-point" style="animation-delay: 1.80s" />
    <circle cx="231.3793103448276" cy="350" r="4" fill="#28a745" class="data-point" style="animation-delay: 1.85s" />
    <circle cx="255.86206896551724" cy="350" r="4" fill="#28a745" class="data-point" style="animation-delay: 1.90s" />
    <circle cx="280.34482758620686" cy="350" r="4" fill="#28a745" class="data-point" style="animation-delay: 1.95s" />
    <circle cx="304.82758620689657" cy="350" r="4" fill="#28a745" class="data-point" style="animation-delay: 2.00s" />
    <circle cx="329.3103448275862" cy="346.575" r="4" fill="#28a745" class="data-point" style="animation-delay: 2.05s" />
    <circle cx="353.7931034482759" cy="346.575" r="4" fill="#28a745" class="data-point" style="animation-delay: 2.10s" />
    <circle cx="378.2758620689655" cy="346.575" r="4" fill="#28a745" class="data-point" style="animation-delay: 2.15s" />
    <circle cx="402.7586206896552" cy="346.44" r="4" fill="#28a745" class="data-point" style="animation-delay: 2.20s" />
    <circle cx="427.2413793103448" cy="305.495" r="4" fill="#28a745" class="data-point" style="animation-delay: 2.25s" />
    <circle cx="451.7241379310345" cy="302.075" r="4" fill="#28a745" class="data-point" style="animation-delay: 2.30s" />
    <circle cx="476.2068965517241" cy="295.225" r="4" fill="#28a745" class="data-point" style="animation-delay: 2.35s" />
    <circle cx="500.6896551724138" cy="295.225" r="4" fill="#28a745" class="data-point" style="animation-delay: 2.40s" />
    <circle cx="525.1724137931035" cy="291.8" r="4" fill="#28a745" class="data-point" style="animation-delay: 2.45s" />
    <circle cx="549.6551724137931" cy="291.8" r="4" fill="#28a745" class="data-point" style="animation-delay: 2.50s" />
    <circle cx="574.1379310344828" cy="271.26" r="4" fill="#28a745" class="data-point" style="animation-delay: 2.55s" />
    <circle cx="598.6206896551724" cy="267.84000000000003" r="4" fill="#28a745" class="data-point" style="animation-delay: 2.60s" />
    <circle cx="623.1034482758621" cy="264.415" r="4" fill="#28a745" class="data-point" style="animation-delay: 2.65s" />
    <circle cx="647.5862068965517" cy="260.99" r="4" fill="#28a745" class="data-point" style="animation-delay: 2.70s" />
    <circle cx="672.0689655172414" cy="260.99" r="4" fill="#28a745" class="data-point" style="animation-delay: 2.75s" />
    <circle cx="696.551724137931" cy="257.57" r="4" fill="#28a745" class="data-point" style="animation-delay: 2.80s" />
    <circle cx="721.0344827586207" cy="254.14499999999998" r="4" fill="#28a745" class="data-point" style="animation-delay: 2.85s" />
    <circle cx="745.5172413793103" cy="250.72" r="4" fill="#28a745" class="data-point" style="animation-delay: 2.90s" />
    <circle cx="770" cy="248.12" r="4" fill="#28a745" class="data-point" style="animation-delay: 2.95s" />
    
    <circle cx="60" cy="349.995" r="4" fill="#e74c3c" class="data-point" style="animation-delay: 1.50s" />
    <circle cx="84.48275862068965" cy="347.98" r="4" fill="#e74c3c" class="data-point" style="animation-delay: 1.55s" />
    <circle cx="108.9655172413793" cy="347.49" r="4" fill="#e74c3c" class="data-point" style="animation-delay: 1.60s" />
    <circle cx="133.44827586206895" cy="345.7" r="4" fill="#e74c3c" class="data-point" style="animation-delay: 1.65s" />
    <circle cx="157.9310344827586" cy="344.8" r="4" fill="#e74c3c" class="data-point" style="animation-delay: 1.70s" />
    <circle cx="182.41379310344828" cy="344.13" r="4" fill="#e74c3c" class="data-point" style="animation-delay: 1.75s" />
    <circle cx="206.89655172413794" cy="343.625" r="4" fill="#e74c3c" class="data-point" style="animation-delay: 1.80s" />
    <circle cx="231.3793103448276" cy="342.905" r="4" fill="#e74c3c" class="data-point" style="animation-delay: 1.85s" />
    <circle cx="255.86206896551724" cy="342.175" r="4" fill="#e74c3c" class="data-point" style="animation-delay: 1.90s" />
    <circle cx="280.34482758620686" cy="341" r="4" fill="#e74c3c" class="data-point" style="animation-delay: 1.95s" />
    <circle cx="304.82758620689657" cy="340.215" r="4" fill="#e74c3c" class="data-point" style="animation-delay: 2.00s" />
    <circle cx="329.3103448275862" cy="339.525" r="4" fill="#e74c3c" class="data-point" style="animation-delay: 2.05s" />
    <circle cx="353.7931034482759" cy="338.645" r="4" fill="#e74c3c" class="data-point" style="animation-delay: 2.10s" />
    <circle cx="378.2758620689655" cy="338.26" r="4" fill="#e74c3c" class="data-point" style="animation-delay: 2.15s" />
    <circle cx="402.7586206896552" cy="337.51" r="4" fill="#e74c3c" class="data-point" style="animation-delay: 2.20s" />
    <circle cx="427.2413793103448" cy="336.66" r="4" fill="#e74c3c" class="data-point" style="animation-delay: 2.25s" />
    <circle cx="451.7241379310345" cy="336.3" r="4" fill="#e74c3c" class="data-point" style="animation-delay: 2.30s" />
    <circle cx="476.2068965517241" cy="335.78" r="4" fill="#e74c3c" class="data-point" style="animation-delay: 2.35s" />
    <circle cx="500.6896551724138" cy="335.13" r="4" fill="#e74c3c" class="data-point" style="animation-delay: 2.40s" />
    <circle cx="525.1724137931035" cy="334.37" r="4" fill="#e74c3c" class="data-point" style="animation-delay: 2.45s" />
    <circle cx="549.6551724137931" cy="333.875" r="4" fill="#e74c3c" class="data-point" style="animation-delay: 2.50s" />
    <circle cx="574.1379310344828" cy="333.695" r="4" fill="#e74c3c" class="data-point" style="animation-delay: 2.55s" />
    <circle cx="598.6206896551724" cy="333.595" r="4" fill="#e74c3c" class="data-point" style="animation-delay: 2.60s" />
    <circle cx="623.1034482758621" cy="333.14" r="4" fill="#e74c3c" class="data-point" style="animation-delay: 2.65s" />
    <circle cx="647.5862068965517" cy="332.775" r="4" fill="#e74c3c" class="data-point" style="animation-delay: 2.70s" />
    <circle cx="672.0689655172414" cy="331.735" r="4" fill="#e74c3c" class="data-point" style="animation-delay: 2.75s" />
    <circle cx="696.551724137931" cy="331.36" r="4" fill="#e74c3c" class="data-point" style="animation-delay: 2.80s" />
    <circle cx="721.0344827586207" cy="331.105" r="4" fill="#e74c3c" class="data-point" style="animation-delay: 2.85s" />
    <circle cx="745.5172413793103" cy="330.94" r="4" fill="#e74c3c" class="data-point" style="animation-delay: 2.90s" />
    <circle cx="770" cy="330.725" r="4" fill="#e74c3c" class="data-point" style="animation-delay: 2.95s" />
    
    <circle cx="60" cy="350" r="4" fill="#3498db" class="data-point" style="animation-delay: 1.50s" />
    <circle cx="84.48275862068965" cy="350" r="4" fill="#3498db" class="data-point" style="animation-delay: 1.55s" />
    <circle cx="108.9655172413793" cy="350" r="4" fill="#3498db" class="data-point" style="animation-delay: 1.60s" />
    <circle cx="133.44827586206895" cy="350" r="4" fill="#3498db" class="data-point" style="animation-delay: 1.65s" />
    <circle cx="157.9310344827586" cy="350" r="4" fill="#3498db" class="data-point" style="animation-delay: 1.70s" />
    <circle cx="182.41379310344828" cy="350" r="4" fill="#3498db" class="data-point" style="animation-delay: 1.75s" />
    <circle cx="206.89655172413794" cy="350" r="4" fill="#3498db" class="data-point" style="animation-delay: 1.80s" />
    <circle cx="231.3793103448276" cy="350" r="4" fill="#3498db" class="data-point" style="animation-delay: 1.85s" />
    <circle cx="255.86206896551724" cy="349.965" r="4" fill="#3498db" class="data-point" style="animation-delay: 1.90s" />
    <circle cx="280.34482758620686" cy="348.285" r="4" fill="#3498db" class="data-point" style="animation-delay: 1.95s" />
    <circle cx="304.82758620689657" cy="347.55" r="4" fill="#3498db" class="data-point" style="animation-delay: 2.00s" />
    <circle cx="329.3103448275862" cy="347.075" r="4" fill="#3498db" class="data-point" style="animation-delay: 2.05s" />
    <circle cx="353.7931034482759" cy="346.78" r="4" fill="#3498db" class="data-point" style="animation-delay: 2.10s" />
    <circle cx="378.2758620689655" cy="346.43" r="4" fill="#3498db" class="data-point" style="animation-delay: 2.15s" />
    <circle cx="402.7586206896552" cy="346.07" r="4" fill="#3498db" class="data-point" style="animation-delay: 2.20s" />
    <circle cx="427.2413793103448" cy="343.92" r="4" fill="#3498db" class="data-point" style="animation-delay: 2.25s" />
    <circle cx="451.7241379310345" cy="343.525" r="4" fill="#3498db" class="data-point" style="animation-delay: 2.30s" />
    <circle cx="476.2068965517241" cy="343.195" r="4" fill="#3498db" class="data-point" style="animation-delay: 2.35s" />
    <circle cx="500.6896551724138" cy="342.79" r="4" fill="#3498db" class="data-point" style="animation-delay: 2.40s" />
    <circle cx="525.1724137931035" cy="342.435" r="4" fill="#3498db" class="data-point" style="animation-delay: 2.45s" />
    <circle cx="549.6551724137931" cy="342.22" r="4" fill="#3498db" class="data-point" style="animation-delay: 2.50s" />
    <circle cx="574.1379310344828" cy="341.985" r="4" fill="#3498db" class="data-point" style="animation-delay: 2.55s" />
    <circle cx="598.6206896551724" cy="341.03" r="4" fill="#3498db" class="data-point" style="animation-delay: 2.60s" />
    <circle cx="623.1034482758621" cy="340.42" r="4" fill="#3498db" class="data-point" style="animation-delay: 2.65s" />
    <circle cx="647.5862068965517" cy="340.12" r="4" fill="#3498db" class="data-point" style="animation-delay: 2.70s" />
    <circle cx="672.0689655172414" cy="339.87" r="4" fill="#3498db" class="data-point" style="animation-delay: 2.75s" />
    <circle cx="696.551724137931" cy="339.695" r="4" fill="#3498db" class="data-point" style="animation-delay: 2.80s" />
    <circle cx="721.0344827586207" cy="339.515" r="4" fill="#3498db" class="data-point" style="animation-delay: 2.85s" />
    <circle cx="745.5172413793103" cy="339.3" r="4" fill="#3498db" class="data-point" style="animation-delay: 2.90s" />
    <circle cx="770" cy="339.095" r="4" fill="#3498db" class="data-point" style="animation-delay: 2.95s" />
    
    <circle cx="60" cy="350" r="4" fill="#9b59b6" class="data-point" style="animation-delay: 1.50s" />
    <circle cx="84.48275862068965" cy="349.995" r="4" fill="#9b59b6" class="data-point" style="animation-delay: 1.55s" />
    <circle cx="108.9655172413793" cy="349.97" r="4" fill="#9b59b6" class="data-point" style="animation-delay: 1.60s" />
    <circle cx="133.44827586206895" cy="349.93" r="4" fill="#9b59b6" class="data-point" style="animation-delay: 1.65s" />
    <circle cx="157.9310344827586" cy="349.88" r="4" fill="#9b59b6" class="data-point" style="animation-delay: 1.70s" />
    <circle cx="182.41379310344828" cy="349.85" r="4" fill="#9b59b6" class="data-point" style="animation-delay: 1.75s" />
    <circle cx="206.89655172413794" cy="349.76" r="4" fill="#9b59b6" class="data-point" style="animation-delay: 1.80s" />
    <circle cx="231.3793103448276" cy="349.675" r="4" fill="#9b59b6" class="data-point" style="animation-delay: 1.85s" />
    <circle cx="255.86206896551724" cy="349.525" r="4" fill="#9b59b6" class="data-point" style="animation-delay: 1.90s" />
    <circle cx="280.34482758620686" cy="349.16" r="4" fill="#9b59b6" class="data-point" style="animation-delay: 1.95s" />
    <circle cx="304.82758620689657" cy="348.86" r="4" fill="#9b59b6" class="data-point" style="animation-delay: 2.00s" />
    <circle cx="329.3103448275862" cy="348.555" r="4" fill="#9b59b6" class="data-point" style="animation-delay: 2.05s" />
    <circle cx="353.7931034482759" cy="348.33" r="4" fill="#9b59b6" class="data-point" style="animation-delay: 2.10s" />
    <circle cx="378.2758620689655" cy="348.085" r="4" fill="#9b59b6" class="data-point" style="animation-delay: 2.15s" />
    <circle cx="402.7586206896552" cy="347.88" r="4" fill="#9b59b6" class="data-point" style="animation-delay: 2.20s" />
    <circle cx="427.2413793103448" cy="347.57" r="4" fill="#9b59b6" class="data-point" style="animation-delay: 2.25s" />
    <circle cx="451.7241379310345" cy="347.28" r="4" fill="#9b59b6" class="data-point" style="animation-delay: 2.30s" />
    <circle cx="476.2068965517241" cy="347.045" r="4" fill="#9b59b6" class="data-point" style="animation-delay: 2.35s" />
    <circle cx="500.6896551724138" cy="346.73" r="4" fill="#9b59b6" class="data-point" style="animation-delay: 2.40s" />
    <circle cx="525.1724137931035" cy="346.23" r="4" fill="#9b59b6" class="data-point" style="animation-delay: 2.45s" />
    <circle cx="549.6551724137931" cy="345.86" r="4" fill="#9b59b6" class="data-point" style="animation-delay: 2.50s" />
    <circle cx="574.1379310344828" cy="345.35" r="4" fill="#9b59b6" class="data-point" style="animation-delay: 2.55s" />
    <circle cx="598.6206896551724" cy="344.525" r="4" fill="#9b59b6" class="data-point" style="animation-delay: 2.60s" />
    <circle cx="623.1034482758621" cy="343.74" r="4" fill="#9b59b6" class="data-point" style="animation-delay: 2.65s" />
    <circle cx="647.5862068965517" cy="342.395" r="4" fill="#9b59b6" class="data-point" style="animation-delay: 2.70s" />
    <circle cx="672.0689655172414" cy="341.96" r="4" fill="#9b59b6" class="data-point" style="animation-delay: 2.75s" />
    <circle cx="696.551724137931" cy="341.525" r="4" fill="#9b59b6" class="data-point" style="animation-delay: 2.80s" />
    <circle cx="721.0344827586207" cy="341.205" r="4" fill="#9b59b6" class="data-point" style="animation-delay: 2.85s" />
    <circle cx="745.5172413793103" cy="340.825" r="4" fill="#9b59b6" class="data-point" style="animation-delay: 2.90s" />
    <circle cx="770" cy="340.605" r="4" fill="#9b59b6" class="data-point" style="animation-delay: 2.95s" />
    
    <circle cx="60" cy="350" r="4" fill="#e67e22" class="data-point" style="animation-delay: 1.50s" />
    <circle cx="84.48275862068965" cy="350" r="4" fill="#e67e22" class="data-point" style="animation-delay: 1.55s" />
    <circle cx="108.9655172413793" cy="350" r="4" fill="#e67e22" class="data-point" style="animation-delay: 1.60s" />
    <circle cx="133.44827586206895" cy="350" r="4" fill="#e67e22" class="data-point" style="animation-delay: 1.65s" />
    <circle cx="157.9310344827586" cy="350" r="4" fill="#e67e22" class="data-point" style="animation-delay: 1.70s" />
    <circle cx="182.41379310344828" cy="350" r="4" fill="#e67e22" class="data-point" style="animation-delay: 1.75s" />
    <circle cx="206.89655172413794" cy="350" r="4" fill="#e67e22" class="data-point" style="animation-delay: 1.80s" />
    <circle cx="231.3793103448276" cy="350" r="4" fill="#e67e22" class="data-point" style="animation-delay: 1.85s" />
    <circle cx="255.86206896551724" cy="349.995" r="4" fill="#e67e22" class="data-point" style="animation-delay: 1.90s" />
    <circle cx="280.34482758620686" cy="349.875" r="4" fill="#e67e22" class="data-point" style="animation-delay: 1.95s" />
    <circle cx="304.82758620689657" cy="349.77" r="4" fill="#e67e22" class="data-point" style="animation-delay: 2.00s" />
    <circle cx="329.3103448275862" cy="349.68" r="4" fill="#e67e22" class="data-point" style="animation-delay: 2.05s" />
    <circle cx="353.7931034482759" cy="349.645" r="4" fill="#e67e22" class="data-point" style="animation-delay: 2.10s" />
    <circle cx="378.2758620689655" cy="349.575" r="4" fill="#e67e22" class="data-point" style="animation-delay: 2.15s" />
    <circle cx="402.7586206896552" cy="349.465" r="4" fill="#e67e22" class="data-point" style="animation-delay: 2.20s" />
    <circle cx="427.2413793103448" cy="349.165" r="4" fill="#e67e22" class="data-point" style="animation-delay: 2.25s" />
    <circle cx="451.7241379310345" cy="348.99" r="4" fill="#e67e22" class="data-point" style="animation-delay: 2.30s" />
    <circle cx="476.2068965517241" cy="348.725" r="4" fill="#e67e22" class="data-point" style="animation-delay: 2.35s" />
    <circle cx="500.6896551724138" cy="348.57" r="4" fill="#e67e22" class="data-point" style="animation-delay: 2.40s" />
    <circle cx="525.1724137931035" cy="348.31" r="4" fill="#e67e22" class="data-point" style="animation-delay: 2.45s" />
    <circle cx="549.6551724137931" cy="348.135" r="4" fill="#e67e22" class="data-point" style="animation-delay: 2.50s" />
    <circle cx="574.1379310344828" cy="347.935" r="4" fill="#e67e22" class="data-point" style="animation-delay: 2.55s" />
    <circle cx="598.6206896551724" cy="347.68" r="4" fill="#e67e22" class="data-point" style="animation-delay: 2.60s" />
    <circle cx="623.1034482758621" cy="347.475" r="4" fill="#e67e22" class="data-point" style="animation-delay: 2.65s" />
    <circle cx="647.5862068965517" cy="347.22" r="4" fill="#e67e22" class="data-point" style="animation-delay: 2.70s" />
    <circle cx="672.0689655172414" cy="347.045" r="4" fill="#e67e22" class="data-point" style="animation-delay: 2.75s" />
    <circle cx="696.551724137931" cy="346.725" r="4" fill="#e67e22" class="data-point" style="animation-delay: 2.80s" />
    <circle cx="721.0344827586207" cy="346.58" r="4" fill="#e67e22" class="data-point" style="animation-delay: 2.85s" />
    <circle cx="745.5172413793103" cy="346.38" r="4" fill="#e67e22" class="data-point" style="animation-delay: 2.90s" />
    <circle cx="770" cy="346.255" r="4" fill="#e67e22" class="data-point" style="animation-delay: 2.95s" />
    
    <circle cx="60" cy="350" r="4" fill="#1abc9c" class="data-point" style="animation-delay: 1.50s" />
    <circle cx="84.48275862068965" cy="350" r="4" fill="#1abc9c" class="data-point" style="animation-delay: 1.55s" />
    <circle cx="108.9655172413793" cy="350" r="4" fill="#1abc9c" class="data-point" style="animation-delay: 1.60s" />
    <circle cx="133.44827586206895" cy="350" r="4" fill="#1abc9c" class="data-point" style="animation-delay: 1.65s" />
    <circle cx="157.9310344827586" cy="350" r="4" fill="#1abc9c" class="data-point" style="animation-delay: 1.70s" />
    <circle cx="182.41379310344828" cy="350" r="4" fill="#1abc9c" class="data-point" style="animation-delay: 1.75s" />
    <circle cx="206.89655172413794" cy="350" r="4" fill="#1abc9c" class="data-point" style="animation-delay: 1.80s" />
    <circle cx="231.3793103448276" cy="350" r="4" fill="#1abc9c" class="data-point" style="animation-delay: 1.85s" />
    <circle cx="255.86206896551724" cy="350" r="4" fill="#1abc9c" class="data-point" style="animation-delay: 1.90s" />
    <circle cx="280.34482758620686" cy="350" r="4" fill="#1abc9c" class="data-point" style="animation-delay: 1.95s" />
    <circle cx="304.82758620689657" cy="350" r="4" fill="#1abc9c" class="data-point" style="animation-delay: 2.00s" />
    <circle cx="329.3103448275862" cy="350" r="4" fill="#1abc9c" class="data-point" style="animation-delay: 2.05s" />
    <circle cx="353.7931034482759" cy="350" r="4" fill="#1abc9c" class="data-point" style="animation-delay: 2.10s" />
    <circle cx="378.2758620689655" cy="350" r="4" fill="#1abc9c" class="data-point" style="animation-delay: 2.15s" />
    <circle cx="402.7586206896552" cy="349.785" r="4" fill="#1abc9c" class="data-point" style="animation-delay: 2.20s" />
    <circle cx="427.2413793103448" cy="349.48" r="4" fill="#1abc9c" class="data-point" style="animation-delay: 2.25s" />
    <circle cx="451.7241379310345" cy="349.33" r="4" fill="#1abc9c" class="data-point" style="animation-delay: 2.30s" />
    <circle cx="476.2068965517241" cy="349.165" r="4" fill="#1abc9c" class="data-point" style="animation-delay: 2.35s" />
    <circle cx="500.6896551724138" cy="349.045" r="4" fill="#1abc9c" class="data-point" style="animation-delay: 2.40s" />
    <circle cx="525.1724137931035" cy="348.935" r="4" fill="#1abc9c" class="data-point" style="animation-delay: 2.45s" />
    <circle cx="549.6551724137931" cy="348.835" r="4" fill="#1abc9c" class="data-point" style="animation-delay: 2.50s" />
    <circle cx="574.1379310344828" cy="348.73" r="4" fill="#1abc9c" class="data-point" style="animation-delay: 2.55s" />
    <circle cx="598.6206896551724" cy="348.605" r="4" fill="#1abc9c" class="data-point" style="animation-delay: 2.60s" />
    <circle cx="623.1034482758621" cy="348.465" r="4" fill="#1abc9c" class="data-point" style="animation-delay: 2.65s" />
    <circle cx="647.5862068965517" cy="348.36" r="4" fill="#1abc9c" class="data-point" style="animation-delay: 2.70s" />
    <circle cx="672.0689655172414" cy="348.285" r="4" fill="#1abc9c" class="data-point" style="animation-delay: 2.75s" />
    <circle cx="696.551724137931" cy="348.235" r="4" fill="#1abc9c" class="data-point" style="animation-delay: 2.80s" />
    <circle cx="721.0344827586207" cy="348.175" r="4" fill="#1abc9c" class="data-point" style="animation-delay: 2.85s" />
    <circle cx="745.5172413793103" cy="348.105" r="4" fill="#1abc9c" class="data-point" style="animation-delay: 2.90s" />
    <circle cx="770" cy="348.025" r="4" fill="#1abc9c" class="data-point" style="animation-delay: 2.95s" />
    
    <circle cx="60" cy="350" r="4" fill="#e84393" class="data-point" style="animation-delay: 1.50s" />
    <circle cx="84.48275862068965" cy="350" r="4" fill="#e84393" class="data-point" style="animation-delay: 1.55s" />
    <circle cx="108.9655172413793" cy="350" r="4" fill="#e84393" class="data-point" style="animation-delay: 1.60s" />
    <circle cx="133.44827586206895" cy="350" r="4" fill="#e84393" class="data-point" style="animation-delay: 1.65s" />
    <circle cx="157.9310344827586" cy="350" r="4" fill="#e84393" class="data-point" style="animation-delay: 1.70s" />
    <circle cx="182.41379310344828" cy="350" r="4" fill="#e84393" class="data-point" style="animation-delay: 1.75s" />
    <circle cx="206.89655172413794" cy="350" r="4" fill="#e84393" class="data-point" style="animation-delay: 1.80s" />
    <circle cx="231.3793103448276" cy="350" r="4" fill="#e84393" class="data-point" style="animation-delay: 1.85s" />
    <circle cx="255.86206896551724" cy="350" r="4" fill="#e84393" class="data-point" style="animation-delay: 1.90s" />
    <circle cx="280.34482758620686" cy="350" r="4" fill="#e84393" class="data-point" style="animation-delay: 1.95s" />
    <circle cx="304.82758620689657" cy="350" r="4" fill="#e84393" class="data-point" style="animation-delay: 2.00s" />
    <circle cx="329.3103448275862" cy="350" r="4" fill="#e84393" class="data-point" style="animation-delay: 2.05s" />
    <circle cx="353.7931034482759" cy="350" r="4" fill="#e84393" class="data-point" style="animation-delay: 2.10s" />
    <circle cx="378.2758620689655" cy="350" r="4" fill="#e84393" class="data-point" style="animation-delay: 2.15s" />
    <circle cx="402.7586206896552" cy="350" r="4" fill="#e84393" class="data-point" style="animation-delay: 2.20s" />
    <circle cx="427.2413793103448" cy="350" r="4" fill="#e84393" class="data-point" style="animation-delay: 2.25s" />
    <circle cx="451.7241379310345" cy="350" r="4" fill="#e84393" class="data-point" style="animation-delay: 2.30s" />
    <circle cx="476.2068965517241" cy="350" r="4" fill="#e84393" class="data-point" style="animation-delay: 2.35s" />
    <circle cx="500.6896551724138" cy="350" r="4" fill="#e84393" class="data-point" style="animation-delay: 2.40s" />
    <circle cx="525.1724137931035" cy="350" r="4" fill="#e84393" class="data-point" style="animation-delay: 2.45s" />
    <circle cx="549.6551724137931" cy="350" r="4" fill="#e84393" class="data-point" style="animation-delay: 2.50s" />
    <circle cx="574.1379310344828" cy="350" r="4" fill="#e84393" class="data-point" style="animation-delay: 2.55s" />
    <circle cx="598.6206896551724" cy="350" r="4" fill="#e84393" class="data-point" style="animation-delay: 2.60s" />
    <circle cx="623.1034482758621" cy="350" r="4" fill="#e84393" class="data-point" style="animation-delay: 2.65s" />
    <circle cx="647.5862068965517" cy="350" r="4" fill="#e84393" class="data-point" style="animation-delay: 2.70s" />
    <circle cx="672.0689655172414" cy="350" r="4" fill="#e84393" class="data-point" style="animation-delay: 2.75s" />
    <circle cx="696.551724137931" cy="350" r="4" fill="#e84393" class="data-point" style="animation-delay: 2.80s" />
    <circle cx="721.0344827586207" cy="350" r="4" fill="#e84393" class="data-point" style="animation-delay: 2.85s" />
    <circle cx="745.5172413793103" cy="350" r="4" fill="#e84393" class="data-point" style="animation-delay: 2.90s" />
    <circle cx="770" cy="348.84" r="4" fill="#e84393" class="data-point" style="animation-delay: 2.95s" />
    
    <circle cx="60" cy="350" r="4" fill="#795548" class="data-point" style="animation-delay: 1.50s" />
    <circle cx="84.48275862068965" cy="350" r="4" fill="#795548" class="data-point" style="animation-delay: 1.55s" />
    <circle cx="108.9655172413793" cy="350" r="4" fill="#795548" class="data-point" style="animation-delay: 1.60s" />
    <circle cx="133.44827586206895" cy="350" r="4" fill="#795548" class="data-point" style="animation-delay: 1.65s" />
    <circle cx="157.9310344827586" cy="350" r="4" fill="#795548" class="data-point" style="animation-delay: 1.70s" />
    <circle cx="182.41379310344828" cy="350" r="4" fill="#795548" class="data-point" style="animation-delay: 1.75s" />
    <circle cx="206.89655172413794" cy="350" r="4" fill="#795548" class="data-point" style="animation-delay: 1.80s" />
    <circle cx="231.3793103448276" cy="350" r="4" fill="#795548" class="data-point" style="animation-delay: 1.85s" />
    <circle cx="255.86206896551724" cy="350" r="4" fill="#795548" class="data-point" style="animation-delay: 1.90s" />
    <circle cx="280.34482758620686" cy="350" r="4" fill="#795548" class="data-point" style="animation-delay: 1.95s" />
    <circle cx="304.82758620689657" cy="350" r="4" fill="#795548" class="data-point" style="animation-delay: 2.00s" />
    <circle cx="329.3103448275862" cy="350" r="4" fill="#795548" class="data-point" style="animation-delay: 2.05s" />
    <circle cx="353.7931034482759" cy="350" r="4" fill="#795548" class="data-point" style="animation-delay: 2.10s" />
    <circle cx="378.2758620689655" cy="350" r="4" fill="#795548" class="data-point" style="animation-delay: 2.15s" />
    <circle cx="402.7586206896552" cy="350" r="4" fill="#795548" class="data-point" style="animation-delay: 2.20s" />
    <circle cx="427.2413793103448" cy="349.91" r="4" fill="#795548" class="data-point" style="animation-delay: 2.25s" />
    <circle cx="451.7241379310345" cy="349.85" r="4" fill="#795548" class="data-point" style="animation-delay: 2.30s" />
    <circle cx="476.2068965517241" cy="349.78" r="4" fill="#795548" class="data-point" style="animation-delay: 2.35s" />
    <circle cx="500.6896551724138" cy="349.72" r="4" fill="#795548" class="data-point" style="animation-delay: 2.40s" />
    <circle cx="525.1724137931035" cy="349.655" r="4" fill="#795548" class="data-point" style="animation-delay: 2.45s" />
    <circle cx="549.6551724137931" cy="349.61" r="4" fill="#795548" class="data-point" style="animation-delay: 2.50s" />
    <circle cx="574.1379310344828" cy="349.535" r="4" fill="#795548" class="data-point" style="animation-delay: 2.55s" />
    <circle cx="598.6206896551724" cy="349.46" r="4" fill="#795548" class="data-point" style="animation-delay: 2.60s" />
    <circle cx="623.1034482758621" cy="349.37" r="4" fill="#795548" class="data-point" style="animation-delay: 2.65s" />
    <circle cx="647.5862068965517" cy="349.305" r="4" fill="#795548" class="data-point" style="animation-delay: 2.70s" />
    <circle cx="672.0689655172414" cy="349.115" r="4" fill="#795548" class="data-point" style="animation-delay: 2.75s" />
    <circle cx="696.551724137931" cy="349.04" r="4" fill="#795548" class="data-point" style="animation-delay: 2.80s" />
    <circle cx="721.0344827586207" cy="349.015" r="4" fill="#795548" class="data-point" style="animation-delay: 2.85s" />
    <circle cx="745.5172413793103" cy="348.985" r="4" fill="#795548" class="data-point" style="animation-delay: 2.90s" />
    <circle cx="770" cy="348.945" r="4" fill="#795548" class="data-point" style="animation-delay: 2.95s" />
    
    <circle cx="60" cy="350" r="4" fill="#00bcd4" class="data-point" style="animation-delay: 1.50s" />
    <circle cx="84.48275862068965" cy="350" r="4" fill="#00bcd4" class="data-point" style="animation-delay: 1.55s" />
    <circle cx="108.9655172413793" cy="350" r="4" fill="#00bcd4" class="data-point" style="animation-delay: 1.60s" />
    <circle cx="133.44827586206895" cy="350" r="4" fill="#00bcd4" class="data-point" style="animation-delay: 1.65s" />
    <circle cx="157.9310344827586" cy="350" r="4" fill="#00bcd4" class="data-point" style="animation-delay: 1.70s" />
    <circle cx="182.41379310344828" cy="350" r="4" fill="#00bcd4" class="data-point" style="animation-delay: 1.75s" />
    <circle cx="206.89655172413794" cy="350" r="4" fill="#00bcd4" class="data-point" style="animation-delay: 1.80s" />
    <circle cx="231.3793103448276" cy="349.985" r="4" fill="#00bcd4" class="data-point" style="animation-delay: 1.85s" />
    <circle cx="255.86206896551724" cy="349.985" r="4" fill="#00bcd4" class="data-point" style="animation-delay: 1.90s" />
    <circle cx="280.34482758620686" cy="349.955" r="4" fill="#00bcd4" class="data-point" style="animation-delay: 1.95s" />
    <circle cx="304.82758620689657" cy="349.91" r="4" fill="#00bcd4" class="data-point" style="animation-delay: 2.00s" />
    <circle cx="329.3103448275862" cy="349.885" r="4" fill="#00bcd4" class="data-point" style="animation-delay: 2.05s" />
    <circle cx="353.7931034482759" cy="349.875" r="4" fill="#00bcd4" class="data-point" style="animation-delay: 2.10s" />
    <circle cx="378.2758620689655" cy="349.85" r="4" fill="#00bcd4" class="data-point" style="animation-delay: 2.15s" />
    <circle cx="402.7586206896552" cy="349.84" r="4" fill="#00bcd4" class="data-point" style="animation-delay: 2.20s" />
    <circle cx="427.2413793103448" cy="349.77" r="4" fill="#00bcd4" class="data-point" style="animation-delay: 2.25s" />
    <circle cx="451.7241379310345" cy="349.735" r="4" fill="#00bcd4" class="data-point" style="animation-delay: 2.30s" />
    <circle cx="476.2068965517241" cy="349.68" r="4" fill="#00bcd4" class="data-point" style="animation-delay: 2.35s" />
    <circle cx="500.6896551724138" cy="349.65" r="4" fill="#00bcd4" class="data-point" style="animation-delay: 2.40s" />
    <circle cx="525.1724137931035" cy="349.585" r="4" fill="#00bcd4" class="data-point" style="animation-delay: 2.45s" />
    <circle cx="549.6551724137931" cy="349.56" r="4" fill="#00bcd4" class="data-point" style="animation-delay: 2.50s" />
    <circle cx="574.1379310344828" cy="349.47" r="4" fill="#00bcd4" class="data-point" style="animation-delay: 2.55s" />
    <circle cx="598.6206896551724" cy="349.39" r="4" fill="#00bcd4" class="data-point" style="animation-delay: 2.60s" />
    <circle cx="623.1034482758621" cy="349.275" r="4" fill="#00bcd4" class="data-point" style="animation-delay: 2.65s" />
    <circle cx="647.5862068965517" cy="349.23" r="4" fill="#00bcd4" class="data-point" style="animation-delay: 2.70s" />
    <circle cx="672.0689655172414" cy="349.2" r="4" fill="#00bcd4" class="data-point" style="animation-delay: 2.75s" />
    <circle cx="696.551724137931" cy="349.14" r="4" fill="#00bcd4" class="data-point" style="animation-delay: 2.80s" />
    <circle cx="721.0344827586207" cy="349.07" r="4" fill="#00bcd4" class="data-point" style="animation-delay: 2.85s" />
    <circle cx="745.5172413793103" cy="349.025" r="4" fill="#00bcd4" class="data-point" style="animation-delay: 2.90s" />
    <circle cx="770" cy="348.98" r="4" fill="#00bcd4" class="data-point" style="animation-delay: 2.95s" />
  </g>
</svg>