<svg xmlns="http://www.w3.org/2000/svg" viewBox="0 0 800 400" width="800" height="400">
  <style>
    @keyframes drawLine {
      to { stroke-dashoffset: 0; }
    }
    @keyframes fadeInPoint {
      from { opacity: 0; }
      to { opacity: 1; }
    }
    .data-line-0 {
      stroke-dasharray: 1223;
      stroke-dashoffset: 1223;
      animation: drawLine 2s ease-out forwards;
    }
    .data-line-1 {
      stroke-dasharray: 1121;
      stroke-dashoffset: 1121;
      animation: drawLine 2s ease-out forwards;
    }
    .data-line-2 {
      stroke-dasharray: 1066;
      stroke-dashoffset: 1066;
      animation: drawLine 2s ease-out forwards;
    }
    .data-line-3 {
      stroke-dasharray: 1066;
      stroke-dashoffset: 1066;
      animation: drawLine 2s ease-out forwards;
    }
    .data-line-4 {
      stroke-dasharray: 1066;
      stroke-dashoffset: 1066;
      animation: drawLine 2s ease-out forwards;
    }
    .data-line-5 {
      stroke-dasharray: 1066;
      stroke-dashoffset: 1066;
      animation: drawLine 2s ease-out forwards;
    }
    .data-line-6 {
      stroke-dasharray: 1066;
      stroke-dashoffset: 1066;
      animation: drawLine 2s ease-out forwards;
    }
    .data-line-7 {
      stroke-dasharray: 1066;
      stroke-dashoffset: 1066;
      animation: drawLine 2s ease-out forwards;
    }
    .data-line-8 {
      stroke-dasharray: 1066;
      stroke-dashoffset: 1066;
      animation: drawLine 2s ease-out forwards;
    }
    .data-line-9 {
      stroke-dasharray: 1066;
      stroke-dashoffset: 1066;
      animation: drawLine 2s ease-out forwards;
    }
    .data-point {
      opacity: 0;
      animation: fadeInPoint 0.5s ease-out forwards;
    }
    .chart-bg { fill: #fff; }
    .chart-text { fill: #24292e; }
    .chart-muted { fill: #6a737d; }
    .chart-grid { stroke: #eee; }
    .chart-axis { stroke: #6a737d; }
    @media (prefers-color-scheme: dark) {
      .chart-bg { fill: #0d1117; }
      .chart-text { fill: #e6edf3; }
      .chart-muted { fill: #8b949e; }
      .chart-grid { stroke: #21262d; }
      .chart-axis { stroke: #8b949e; }
    }
  </style>
  <rect width="800" height="400" class="chart-bg" />
  <text x="400" y="14" text-anchor="middle" class="chart-text" font-size="16" font-weight="bold" font-family="-apple-system, BlinkMacSystemFont, 'Segoe UI', Helvetica, Arial, sans-serif">Top Repositories</text>
  <g class="legend">
    <rect x="-200" y="31" width="12" height="3" fill="#dfb317" />
    <line x1="-200" y1="32.5" x2="-188" y2="32.5" stroke="#dfb317" stroke-width="2" />
    <text x="-184" y="36" class="chart-text" font-size="10" font-family="-apple-system, BlinkMacSystemFont, 'Segoe UI', Helvetica, Arial, sans-serif">dockur/windows</text>
    <rect x="-80" y="31" width="12" height="3" fill="#28a745" />
    <line x1="-80" y1="32.5" x2="-68" y2="32.5" stroke="#28a745" stroke-width="2" />
    <text x="-64" y="36" class="chart-text" font-size="10" font-family="-apple-system, BlinkMacSystemFont, 'Segoe UI', Helvetica, Arial, sans-serif">dockur/macos</text>
    <rect x="40" y="31" width="12" height="3" fill="#e74c3c" />
    <line x1="40" y1="32.5" x2="52" y2="32.5" stroke="#e74c3c" stroke-width="2" />
    <text x="56" y="36" class="chart-text" font-size="10" font-family="-apple-system, BlinkMacSystemFont, 'Segoe UI', Helvetica, Arial, sans-serif">vdsm/virtual-dsm</text>
    <rect x="160" y="31" width="12" height="3" fill="#3498db" />
    <line x1="160" y1="32.5" x2="172" y2="32.5" stroke="#3498db" stroke-width="2" />
    <text x="176" y="36" class="chart-text" font-size="10" font-family="-apple-system, BlinkMacSystemFont, 'Segoe UI', Helvetica, Arial, sans-serif">dockur/windows-arm</text>
    <rect x="280" y="31" width="12" height="3" fill="#9b59b6" />
    <line x1="280" y1="32.5" x2="292" y2="32.5" stroke="#9b59b6" stroke-width="2" />
    <text x="296" y="36" class="chart-text" font-size="10" font-family="-apple-system, BlinkMacSystemFont, 'Segoe UI', Helvetica, Arial, sans-serif">qemus/qemu</text>
    <rect x="400" y="31" width="12" height="3" fill="#e67e22" />
    <line x1="400" y1="32.5" x2="412" y2="32.5" stroke="#e67e22" stroke-width="2" />
    <text x="416" y="36" class="chart-text" font-size="10" font-family="-apple-system, BlinkMacSystemFont, 'Segoe UI', Helvetica, Arial, sans-serif">dockur/samba</text>
    <rect x="520" y="31" width="12" height="3" fill="#1abc9c" />
    <line x1="520" y1="32.5" x2="532" y2="32.5" stroke="#1abc9c" stroke-width="2" />
    <text x="536" y="36" class="chart-text" font-size="10" font-family="-apple-system, BlinkMacSystemFont, 'Segoe UI', Helvetica, Arial, sans-serif">dockur/umbrel</text>
    <rect x="640" y="31" width="12" height="3" fill="#e84393" />
    <line x1="640" y1="32.5" x2="652" y2="32.5" stroke="#e84393" stroke-width="2" />
    <text x="656" y="36" class="chart-text" font-size="10" font-family="-apple-system, BlinkMacSystemFont, 'Segoe UI', Helvetica, Arial, sans-serif">dockur/proxmox</text>
    <rect x="760" y="31" width="12" height="3" fill="#795548" />
    <line x1="760" y1="32.5" x2="772" y2="32.5" stroke="#795548" stroke-width="2" />
    <text x="776" y="36" class="chart-text" font-size="10" font-family="-apple-system, BlinkMacSystemFont, 'Segoe UI', Helvetica, Arial, sans-serif">dockur/casa</text>
    <rect x="880" y="31" width="12" height="3" fill="#00bcd4" />
    <line x1="880" y1="32.5" x2="892" y2="32.5" stroke="#00bcd4" stroke-width="2" />
    <text x="896" y="36" class="chart-text" font-size="10" font-family="-apple-system, BlinkMacSystemFont, 'Segoe UI', Helvetica, Arial, sans-serif">dockur/tor</text>
  </g>
  <g class="grid">
    <line x1="60" y1="350" x2="770" y2="350" class="chart-grid" stroke-opacity="0.3" />
    <text x="778" y="354" text-anchor="start" class="chart-muted" font-size="11" font-family="-apple-system, BlinkMacSystemFont, 'Segoe UI', Helvetica, Arial, sans-serif">0</text>
    <line x1="60" y1="297.3582621207602" x2="770" y2="297.3582621207602" class="chart-grid" stroke-opacity="0.3" />
    <text x="778" y="301.3582621207602" text-anchor="start" class="chart-muted" font-size="11" font-family="-apple-system, BlinkMacSystemFont, 'Segoe UI', Helvetica, Arial, sans-serif">10K</text>
    <line x1="60" y1="244.7165242415203" x2="770" y2="244.7165242415203" class="chart-grid" stroke-opacity="0.3" />
    <text x="778" y="248.7165242415203" text-anchor="start" class="chart-muted" font-size="11" font-family="-apple-system, BlinkMacSystemFont, 'Segoe UI', Helvetica, Arial, sans-serif">20K</text>
    <line x1="60" y1="192.07478636228043" x2="770" y2="192.07478636228043" class="chart-grid" stroke-opacity="0.3" />
    <text x="778" y="196.07478636228043" text-anchor="start" class="chart-muted" font-size="11" font-family="-apple-system, BlinkMacSystemFont, 'Segoe UI', Helvetica, Arial, sans-serif">30K</text>
    <line x1="60" y1="139.43304848304058" x2="770" y2="139.43304848304058" class="chart-grid" stroke-opacity="0.3" />
    <text x="778" y="143.43304848304058" text-anchor="start" class="chart-muted" font-size="11" font-family="-apple-system, BlinkMacSystemFont, 'Segoe UI', Helvetica, Arial, sans-serif">40K</text>
    <line x1="60" y1="86.79131060380075" x2="770" y2="86.79131060380075" class="chart-grid" stroke-opacity="0.3" />
    <text x="778" y="90.79131060380075" text-anchor="start" class="chart-muted" font-size="11" font-family="-apple-system, BlinkMacSystemFont, 'Segoe UI', Helvetica, Arial, sans-serif">50K</text>
    <line x1="60" y1="34.14957272456087" x2="770" y2="34.14957272456087" class="chart-grid" stroke-opacity="0.3" />
    <text x="778" y="38.14957272456087" text-anchor="start" class="chart-muted" font-size="11" font-family="-apple-system, BlinkMacSystemFont, 'Segoe UI', Helvetica, Arial, sans-serif">60K</text>
  </g>
  <g class="milestones">
    
  </g>
  <g class="x-axis">
    <text x="60" y="370" text-anchor="middle" class="chart-muted" font-size="11" font-family="-apple-system, BlinkMacSystemFont, 'Segoe UI', Helvetica, Arial, sans-serif">2023</text>
    <text x="231.3793103448276" y="370" text-anchor="middle" class="chart-muted" font-size="11" font-family="-apple-system, BlinkMacSystemFont, 'Segoe UI', Helvetica, Arial, sans-serif">2024</text>
    <text x="451.7241379310345" y="370" text-anchor="middle" class="chart-muted" font-size="11" font-family="-apple-system, BlinkMacSystemFont, 'Segoe UI', Helvetica, Arial, sans-serif">2025</text>
    <text x="672.0689655172414" y="370" text-anchor="middle" class="chart-muted" font-size="11" font-family="-apple-system, BlinkMacSystemFont, 'Segoe UI', Helvetica, Arial, sans-serif">2026</text>
  </g>
  <line x1="770" y1="50" x2="770" y2="350" class="chart-axis" stroke-width="1" />
  <line x1="60" y1="350" x2="770" y2="350" class="chart-axis" stroke-width="1" />
  
  
  
  
  
  
  
  
  
  
  <path d="M60,350 C63.264367816091955,350 77.95402298850574,350 84.48275862068965,350 C91.01149425287356,350 102.43678160919539,350 108.9655172413793,350 C115.49425287356321,350 126.91954022988504,350 133.44827586206895,350 C139.97701149425285,350 151.40229885057468,350 157.9310344827586,350 C164.45977011494253,350 175.88505747126436,350 182.41379310344828,350 C188.9425287356322,350 200.36781609195404,350 206.89655172413794,350 C213.42528735632183,350 224.8505747126437,350 231.3793103448276,350 C237.90804597701148,349.0643808454263 249.33333333333334,350 255.86206896551724,342.9828563406973 C262.39080459770116,335.49579743459265 273.81609195402297,302.26973626489325 280.34482758620686,293.8470582042149 C286.87356321839076,285.4243801435365 298.2988505747127,282.62033023916894 304.82758620689657,279.8127708856095 C311.35632183908046,277.00521153205005 322.7816091954023,274.6623032515047 329.3103448275862,272.7903630525189 C335.8390804597701,270.9184228535331 347.264367816092,266.7088385477899 353.7931034482759,265.7732193932162 C360.32183908045977,265.7732193932162 371.7471264367816,265.7732193932162 378.2758620689655,265.7732193932162 C384.8045977011494,264.83760023864255 396.2298850574713,265.7732193932162 402.7586206896552,258.7560757339136 C409.28735632183907,249.3977785186615 420.71264367816093,204.94498938391618 427.2413793103448,195.58599027882573 C433.7701149425287,188.56358244573516 445.1954022988506,190.43552264472092 451.7241379310345,188.56358244573516 C458.2528735632184,186.6916422467494 469.67816091954023,183.41767709557985 476.2068965517241,181.54643878643247 C482.735632183908,179.6752004772851 494.1609195402299,175.4649142817035 500.6896551724138,174.5292951271298 C507.2183908045977,174.5292951271298 518.6436781609195,174.5292951271298 525.1724137931035,174.5292951271298 C531.7011494252874,173.59297408271772 543.1264367816092,169.37882749302497 549.6551724137931,167.5068872940392 C556.1839080459771,165.6349470950534 567.6091954022988,164.23292214286968 574.1379310344828,160.48974363473653 C580.6666666666667,156.74656512660337 592.0919540229885,143.42469599396375 598.6206896551724,139.43304848304058 C605.1494252873564,135.4414009721174 616.5747126436781,132.92056361754024 623.1034482758621,130.55238730281283 C629.632183908046,128.18421098808543 641.0574712643678,124.03990243731246 647.5862068965517,121.67172612258506 C654.1149425287357,119.30354980785765 665.5402298850574,115.15853936724632 672.0689655172414,112.79106494235731 C678.5977011494253,110.4235905174683 690.0229885057471,106.28314236080648 696.551724137931,103.91566793591747 C703.080459770115,101.54819351102846 714.5057471264367,97.40318307041713 721.0344827586207,95.03500675568972 C727.5632183908046,92.66683044096231 738.9885057471264,88.52252189018935 745.5172413793103,86.15434557546195 C752.0459770114943,83.78616926073454 766.735632183908,78.45777255259787 770,77.27368439523417" fill="none" stroke="#dfb317" stroke-width="2.5" class="data-line-0" />
  <path d="M60,350 C63.264367816091955,350 77.95402298850574,350 84.48275862068965,350 C91.01149425287356,350 102.43678160919539,350 108.9655172413793,350 C115.49425287356321,350 126.91954022988504,350 133.44827586206895,350 C139.97701149425285,350 151.40229885057468,350 157.9310344827586,350 C164.45977011494253,350 175.88505747126436,350 182.41379310344828,350 C188.9425287356322,350 200.36781609195404,350 206.89655172413794,350 C213.42528735632183,350 224.8505747126437,350 231.3793103448276,350 C237.90804597701148,350 249.33333333333334,350 255.86206896551724,350 C262.39080459770116,350 273.81609195402297,350 280.34482758620686,350 C286.87356321839076,350 298.2988505747127,350 304.82758620689657,350 C311.35632183908046,349.53534892698593 322.7816091954023,346.99871905104493 329.3103448275862,346.5151169523943 C335.8390804597701,346.37298426012035 347.264367816092,346.39193528575686 353.7931034482759,346.37298426012035 C360.32183908045977,346.37298426012035 371.7471264367816,346.37298426012035 378.2758620689655,346.37298426012035 C384.8045977011494,346.37298426012035 396.2298850574713,346.37298426012035 402.7586206896552,346.37298426012035 C409.28735632183907,340.5676534067978 420.71264367816093,309.1219358121743 427.2413793103448,302.8330028602011 C433.7701149425287,299.2059871203215 445.1954022988506,300.65749530611174 451.7241379310345,299.2059871203215 C458.2528735632184,297.7544789345312 469.67816091954023,292.9145975539139 476.2068965517241,291.94669146677427 C482.735632183908,291.94669146677427 494.1609195402299,291.94669146677427 500.6896551724138,291.94669146677427 C507.2183908045977,291.46308936812363 518.6436781609195,288.8032778255453 525.1724137931035,288.3196757268947 C531.7011494252874,288.3196757268947 543.1264367816092,288.3196757268947 549.6551724137931,288.3196757268947 C556.1839080459771,285.41736124515256 567.6091954022988,269.93893558406006 574.1379310344828,266.55231711382896 C580.6666666666667,263.16569864359786 592.0919540229885,263.8879432873011 598.6206896551724,262.92003720016146 C605.1494252873564,261.95213111302184 616.5747126436781,260.260225657583 623.1034482758621,259.2930214602818 C629.632183908046,258.3258172629806 641.0574712643678,256.1496078190528 647.5862068965517,255.66600572040218 C654.1149425287357,255.66600572040218 665.5402298850574,255.66600572040218 672.0689655172414,255.66600572040218 C678.5977011494253,255.18240362175158 690.0229885057471,253.0061941778238 696.551724137931,252.03898998052256 C703.080459770115,251.07178578322132 714.5057471264367,249.37988032778256 721.0344827586207,248.41197424064293 C727.5632183908046,247.4440681535033 738.9885057471264,245.52018810647672 745.5172413793103,244.7796943269754 C752.0459770114943,244.03920054747408 766.735632183908,243.11446068539541 770,242.8582708943831" fill="none" stroke="#28a745" stroke-width="2.5" class="data-line-1" />
  <path d="M60,349.9947358262121 C63.264367816091955,349.71187422134096 77.95402298850574,348.224920598712 84.48275862068965,347.8732737896787 C91.01149425287356,347.5216269806454 102.43678160919539,347.67744652476796 108.9655172413793,347.35738475846216 C115.49425287356321,347.03732299215636 126.91954022988504,345.85112916527754 133.44827586206895,345.4728105423854 C139.97701149425285,345.09449191949324 151.40229885057468,344.74038849602556 157.9310344827586,344.51999508677113 C164.45977011494253,344.2996016775167 175.88505747126436,343.9841021951605 182.41379310344828,343.81985997297727 C188.9425287356322,343.655617750794 200.36781609195404,343.46154521047924 206.89655172413794,343.28817842039695 C213.42528735632183,343.11481163031465 224.8505747126437,342.72385899033145 231.3793103448276,342.51960904736 C237.90804597701148,342.31535910438856 249.33333333333334,342.0153011984769 255.86206896551724,341.75630384811103 C262.39080459770116,341.49730649774517 273.81609195402297,340.8515678464265 280.34482758620686,340.5771289196161 C286.87356321839076,340.30268999280565 298.2988505747127,339.9106845180649 304.82758620689657,339.69801189703276 C311.35632183908046,339.4853392760006 322.7816091954023,339.20177578129113 329.3103448275862,338.9820842618751 C335.8390804597701,338.7623927424591 347.264367816092,338.23000930004036 353.7931034482759,338.05032550141254 C360.32183908045977,337.8706417027847 371.7471264367816,337.7839583077436 378.2758620689655,337.6344557721666 C384.8045977011494,337.48495323658955 396.2298850574713,337.1501517836776 402.7586206896552,336.92905648458475 C409.28735632183907,336.7079611854919 420.71264367816093,336.15662671743667 427.2413793103448,335.9762410289705 C433.7701149425287,335.7958553405043 445.1954022988506,335.69899454280653 451.7241379310345,335.5761638210883 C458.2528735632184,335.45333309937007 469.67816091954023,335.2199547281054 476.2068965517241,335.0550106160838 C482.735632183908,334.8900665040622 494.1609195402299,334.5377178051905 500.6896551724138,334.33908298092615 C507.2183908045977,334.1404481566618 518.6436781609195,333.74212567337554 525.1724137931035,333.5652494341013 C531.7011494252874,333.38837319482707 543.1264367816092,333.11077576374385 549.6551724137931,333.0125111863693 C556.1839080459771,332.91424660899474 567.6091954022988,332.86476337538824 574.1379310344828,332.828265103792 C580.6666666666667,332.7917668321957 592.0919540229885,332.8131744722666 598.6206896551724,332.7387741493973 C605.1494252873564,332.66437382652794 616.5747126436781,332.3867763954447 623.1034482758621,332.270262682272 C629.632183908046,332.1537489690993 641.0574712643678,332.06495990454295 647.5862068965517,331.86492130060185 C654.1149425287357,331.66488269666075 665.5402298850574,330.95807962940216 672.0689655172414,330.7699731527137 C678.5977011494253,330.58186667602524 690.0229885057471,330.5404551755602 696.551724137931,330.45412272543825 C703.080459770115,330.3677902753163 714.5057471264367,330.18986120128443 721.0344827586207,330.122479776799 C727.5632183908046,330.0550983523136 738.9885057471264,330.0028075593535 745.5172413793103,329.9487620417975 C752.0459770114943,329.8947165242415 766.735632183908,329.748021548018 770,329.71713839512887" fill="none" stroke="#e74c3c" stroke-width="2.5" class="data-line-2" />
  <path d="M60,350 C63.264367816091955,350 77.95402298850574,350 84.48275862068965,350 C91.01149425287356,350 102.43678160919539,350 108.9655172413793,350 C115.49425287356321,350 126.91954022988504,350 133.44827586206895,350 C139.97701149425285,350 151.40229885057468,350 157.9310344827586,350 C164.45977011494253,350 175.88505747126436,350 182.41379310344828,350 C188.9425287356322,350 200.36781609195404,350 206.89655172413794,350 C213.42528735632183,350 224.8505747126437,350 231.3793103448276,350 C237.90804597701148,349.9950867711313 249.33333333333334,350 255.86206896551724,349.96315078348454 C262.39080459770116,349.7238063485936 273.81609195402297,348.54322764042183 280.34482758620686,348.20491673831793 C286.87356321839076,347.86660583621403 298.2988505747127,347.5942725789187 304.82758620689657,347.4258190177052 C311.35632183908046,347.25736545649164 322.7816091954023,347.04820228465144 329.3103448275862,346.9415150292162 C335.8390804597701,346.83482777378094 347.264367816092,346.7169102809314 353.7931034482759,346.62566460194074 C360.32183908045977,346.53441892295007 371.7471264367816,346.356138903999 378.2758620689655,346.25717243678605 C384.8045977011494,346.1582059695731 396.2298850574713,346.23506290687675 402.7586206896552,345.88341609784345 C409.28735632183907,345.53176928881015 420.71264367816093,343.9791889662917 427.2413793103448,343.6198213690361 C433.7701149425287,343.26045377178053 445.1954022988506,343.2899331449929 451.7241379310345,343.18815911842637 C458.2528735632184,343.0863850918598 469.67816091954023,342.9575883065153 476.2068965517241,342.85651616978714 C482.735632183908,342.755444033059 494.1609195402299,342.5361034585622 500.6896551724138,342.4301180929653 C507.2183908045977,342.3241327273684 518.6436781609195,342.1444489287406 525.1724137931035,342.0616259278106 C531.7011494252874,341.97880292688063 543.1264367816092,341.87351945112215 549.6551724137931,341.8089455859903 C556.1839080459771,341.7443717208584 567.6091954022988,341.7394584919897 574.1379310344828,341.5773219393216 C580.6666666666667,341.41518538665355 592.0919540229885,340.8119110705575 598.6206896551724,340.59292144097986 C605.1494252873564,340.3739318114022 616.5747126436781,340.06404744775307 623.1034482758621,339.9348997174893 C629.632183908046,339.80575198722556 641.0574712643678,339.70362701573987 647.5862068965517,339.62431346400183 C654.1149425287357,339.5449999122638 665.5402298850574,339.40251627507064 672.0689655172414,339.34004807945394 C678.5977011494253,339.27757988383723 690.0229885057471,339.20633806524063 696.551724137931,339.15580199687656 C703.080459770115,339.1052659285125 714.5057471264367,339.0157749741178 721.0344827586207,338.9610275667234 C727.5632183908046,338.90628015932896 738.9885057471264,338.7999438488129 745.5172413793103,338.7451964414185 C752.0459770114943,338.6904490340241 766.735632183908,338.57639193528576 770,338.5504220112653" fill="none" stroke="#3498db" stroke-width="2.5" class="data-line-3" />
  <path d="M60,350 C63.264367816091955,349.9992981101616 77.95402298850574,349.99894716524244 84.48275862068965,349.9947358262121 C91.01149425287356,349.99052448718174 102.43678160919539,349.9775395251715 108.9655172413793,349.96841495727244 C115.49425287356321,349.9592903893734 126.91954022988504,349.93893558406006 133.44827586206895,349.9263015669691 C139.97701149425285,349.9136675498781 151.40229885057468,349.88489006650406 157.9310344827586,349.87365982908983 C164.45977011494253,349.8624295916756 175.88505747126436,349.8589201424836 182.41379310344828,349.8420747863623 C188.9425287356322,349.82522943024094 200.36781609195404,349.77118391268493 206.89655172413794,349.74731965817966 C213.42528735632183,349.7234554036744 224.8505747126437,349.693976030462 231.3793103448276,349.66309287757286 C237.90804597701148,349.6322097246837 249.33333333333334,349.5879906648652 255.86206896551724,349.515696011511 C262.39080459770116,349.44340135815685 273.81609195402297,349.2163399954377 280.34482758620686,349.12088297741667 C286.87356321839076,349.02542595939565 298.2988505747127,348.88469704679846 304.82758620689657,348.7997683763533 C311.35632183908046,348.71483970590816 322.7816091954023,348.5569144922705 329.3103448275862,348.4839179490779 C335.8390804597701,348.41092140588535 347.264367816092,348.3175700573795 353.7931034482759,348.2522943024092 C360.32183908045977,348.1870185474389 371.7471264367816,348.05681798241767 378.2758620689655,347.99434978680097 C384.8045977011494,347.93188159118426 396.2298850574713,347.8546737089614 402.7586206896552,347.783782835284 C409.28735632183907,347.7128919616066 420.71264367816093,347.5475969046658 427.2413793103448,347.46266823422064 C433.7701149425287,347.3777395637755 445.1954022988506,347.2226219094913 451.7241379310345,347.1468178069452 C458.2528735632184,347.0710137043991 469.67816091954023,346.9678358981558 476.2068965517241,346.89413746512486 C482.735632183908,346.82043903209393 494.1609195402299,346.70638193335554 500.6896551724138,346.5940795592132 C507.2183908045977,346.4817771850708 518.6436781609195,346.17750794012875 525.1724137931035,346.051869659057 C531.7011494252874,345.92623137798523 543.1264367816092,345.77462317289303 549.6551724137931,345.6517924511748 C556.1839080459771,345.52896172945657 567.6091954022988,345.31453438382846 574.1379310344828,345.1306392461703 C580.6666666666667,344.9467441085121 592.0919540229885,344.4950779975083 598.6206896551724,344.2725789187387 C605.1494252873564,344.0500798399691 616.5747126436781,343.7594974468757 623.1034482758621,343.4618961553984 C629.632183908046,343.1642948639211 641.0574712643678,342.29044201512573 647.5862068965517,342.0405692326589 C654.1149425287357,341.7906964501921 665.5402298850574,341.71138289845413 672.0689655172414,341.5878502868975 C678.5977011494253,341.46431767534085 690.0229885057471,341.2242713506115 696.551724137931,341.1140746459843 C703.080459770115,341.00387794135713 714.5057471264367,340.8610433592448 721.0344827586207,340.7613750021934 C727.5632183908046,340.66170664514203 738.9885057471264,340.4493849690291 745.5172413793103,340.3665619680991 C752.0459770114943,340.28373896716914 766.735632183908,340.17038375826917 770,340.1402024952184" fill="none" stroke="#9b59b6" stroke-width="2.5" class="data-line-4" />
  <path d="M60,350 C63.264367816091955,350 77.95402298850574,350 84.48275862068965,350 C91.01149425287356,350 102.43678160919539,350 108.9655172413793,350 C115.49425287356321,350 126.91954022988504,350 133.44827586206895,350 C139.97701149425285,350 151.40229885057468,350 157.9310344827586,350 C164.45977011494253,350 175.88505747126436,350 182.41379310344828,350 C188.9425287356322,350 200.36781609195404,350 206.89655172413794,350 C213.42528735632183,350 224.8505747126437,350 231.3793103448276,350 C237.90804597701148,349.9992981101616 249.33333333333334,350 255.86206896551724,349.9947358262121 C262.39080459770116,349.97718858025235 273.81609195402297,349.8999806980295 280.34482758620686,349.8683956553019 C286.87356321839076,349.83681061257437 298.2988505747127,349.7852217094527 304.82758620689657,349.7578480057555 C311.35632183908046,349.73047430205827 322.7816091954023,349.6806401235326 329.3103448275862,349.66309287757286 C335.8390804597701,349.6455456316131 347.264367816092,349.6388776781484 353.7931034482759,349.6262436610574 C360.32183908045977,349.6136096439664 371.7471264367816,349.5929038937339 378.2758620689655,349.56833774939025 C384.8045977011494,349.54377160504663 396.2298850574713,349.50095632490485 402.7586206896552,349.4419975784801 C409.28735632183907,349.3830388320553 420.71264367816093,349.1928266858517 427.2413793103448,349.12614715120463 C433.7701149425287,349.0594676165576 445.1954022988506,349.0029654845672 451.7241379310345,348.94190106862726 C458.2528735632184,348.8808366526873 469.67816091954023,348.72712277808 476.2068965517241,348.66816403165524 C482.735632183908,348.6092052852305 494.1609195402299,348.557967327028 500.6896551724138,348.49971047044164 C507.2183908045977,348.4414536138553 518.6436781609195,348.2894944638439 525.1724137931035,348.2312376072575 C531.7011494252874,348.1729807506712 543.1264367816092,348.11332011440805 549.6551724137931,348.062784046044 C556.1839080459771,348.0122479776799 567.6091954022988,347.9146852901437 574.1379310344828,347.852217094527 C580.6666666666667,347.7897488989103 592.0919540229885,347.6616540034041 598.6206896551724,347.5942725789187 C605.1494252873564,347.5268911544333 616.5747126436781,347.41283405569493 623.1034482758621,347.3468564108863 C629.632183908046,347.28087876607765 641.0574712643678,347.159100879117 647.5862068965517,347.09944024285386 C654.1149425287357,347.03977960659074 665.5402298850574,346.97029251259016 672.0689655172414,346.89940163891276 C678.5977011494253,346.82851076523536 690.0229885057471,346.6337363350822 696.551724137931,346.56775869027354 C703.080459770115,346.5017810454649 714.5057471264367,346.4522978118584 721.0344827586207,346.4045693028479 C727.5632183908046,346.3568407938374 738.9885057471264,346.2554177121901 745.5172413793103,346.2097948726947 C752.0459770114943,346.16417203319935 766.735632183908,346.0820509221078 770,346.06239800663286" fill="none" stroke="#e67e22" stroke-width="2.5" class="data-line-5" />
  <path d="M60,350 C63.264367816091955,350 77.95402298850574,350 84.48275862068965,350 C91.01149425287356,350 102.43678160919539,350 108.9655172413793,350 C115.49425287356321,350 126.91954022988504,350 133.44827586206895,350 C139.97701149425285,350 151.40229885057468,350 157.9310344827586,350 C164.45977011494253,350 175.88505747126436,350 182.41379310344828,350 C188.9425287356322,350 200.36781609195404,350 206.89655172413794,350 C213.42528735632183,350 224.8505747126437,350 231.3793103448276,350 C237.90804597701148,350 249.33333333333334,350 255.86206896551724,350 C262.39080459770116,350 273.81609195402297,350 280.34482758620686,350 C286.87356321839076,350 298.2988505747127,350 304.82758620689657,350 C311.35632183908046,350 322.7816091954023,350 329.3103448275862,350 C335.8390804597701,350 347.264367816092,350 353.7931034482759,350 C360.32183908045977,350 371.7471264367816,350 378.2758620689655,350 C384.8045977011494,349.9698187369492 396.2298850574713,349.84663707031183 402.7586206896552,349.77364052711926 C409.28735632183907,349.7006439839267 420.71264367816093,349.5149941216726 427.2413793103448,349.4525259260559 C433.7701149425287,349.3900577304392 445.1954022988506,349.3479443401358 451.7241379310345,349.30512905999404 C458.2528735632184,349.26231377985226 469.67816091954023,349.17212093561915 476.2068965517241,349.13141132499254 C482.735632183908,349.09070171436593 494.1609195402299,349.0320939128604 500.6896551724138,348.99980698029447 C507.2183908045977,348.96752004772856 518.6436781609195,348.9194405937988 525.1724137931035,348.889259330748 C531.7011494252874,348.8590780676972 543.1264367816092,348.8022249907877 549.6551724137931,348.7734475074137 C556.1839080459771,348.74467002403975 567.6091954022988,348.7043113583323 574.1379310344828,348.67342820544314 C580.6666666666667,348.642545052554 592.0919540229885,348.57902402217974 598.6206896551724,348.54182386074507 C605.1494252873564,348.5046236993104 616.5747126436781,348.4281177069259 623.1034482758621,348.39442699468316 C629.632183908046,348.3607362824404 641.0574712643678,348.31441155310677 647.5862068965517,348.28914351892473 C654.1149425287357,348.2638754847427 665.5402298850574,348.22456965379286 672.0689655172414,348.20491673831793 C678.5977011494253,348.185263822843 690.0229885057471,348.15859200898416 696.551724137931,348.1417466528628 C703.080459770115,348.1249012967415 714.5057471264367,348.0968257032059 721.0344827586207,348.07857656740777 C727.5632183908046,348.0603274316096 738.9885057471264,348.0252329396901 745.5172413793103,348.0048781343768 C752.0459770114943,347.98452332906345 766.735632183908,347.9364438751338 770,347.92591552755795" fill="none" stroke="#1abc9c" stroke-width="2.5" class="data-line-6" />
  <path d="M60,350 C63.264367816091955,350 77.95402298850574,350 84.48275862068965,350 C91.01149425287356,350 102.43678160919539,350 108.9655172413793,350 C115.49425287356321,350 126.91954022988504,350 133.44827586206895,350 C139.97701149425285,350 151.40229885057468,350 157.9310344827586,350 C164.45977011494253,350 175.88505747126436,350 182.41379310344828,350 C188.9425287356322,350 200.36781609195404,350 206.89655172413794,350 C213.42528735632183,350 224.8505747126437,350 231.3793103448276,350 C237.90804597701148,350 249.33333333333334,350 255.86206896551724,350 C262.39080459770116,350 273.81609195402297,350 280.34482758620686,350 C286.87356321839076,350 298.2988505747127,350 304.82758620689657,350 C311.35632183908046,350 322.7816091954023,350 329.3103448275862,350 C335.8390804597701,350 347.264367816092,350 353.7931034482759,350 C360.32183908045977,350 371.7471264367816,350 378.2758620689655,350 C384.8045977011494,350 396.2298850574713,350 402.7586206896552,350 C409.28735632183907,350 420.71264367816093,350 427.2413793103448,350 C433.7701149425287,350 445.1954022988506,350 451.7241379310345,350 C458.2528735632184,350 469.67816091954023,350 476.2068965517241,350 C482.735632183908,350 494.1609195402299,350 500.6896551724138,350 C507.2183908045977,350 518.6436781609195,350 525.1724137931035,350 C531.7011494252874,350 543.1264367816092,350 549.6551724137931,350 C556.1839080459771,350 567.6091954022988,350 574.1379310344828,350 C580.6666666666667,350 592.0919540229885,350 598.6206896551724,350 C605.1494252873564,350 616.5747126436781,350 623.1034482758621,350 C629.632183908046,350 641.0574712643678,350 647.5862068965517,350 C654.1149425287357,350 665.5402298850574,350 672.0689655172414,350 C678.5977011494253,350 690.0229885057471,350 696.551724137931,350 C703.080459770115,350 714.5057471264367,350 721.0344827586207,350 C727.5632183908046,350 738.9885057471264,350 745.5172413793103,350 C752.0459770114943,349.83926722700875 766.735632183908,348.95523697555666 770,348.7945042025654" fill="none" stroke="#e84393" stroke-width="2.5" class="data-line-7" />
  <path d="M60,350 C63.264367816091955,350 77.95402298850574,350 84.48275862068965,350 C91.01149425287356,350 102.43678160919539,350 108.9655172413793,350 C115.49425287356321,350 126.91954022988504,350 133.44827586206895,350 C139.97701149425285,350 151.40229885057468,350 157.9310344827586,350 C164.45977011494253,350 175.88505747126436,350 182.41379310344828,350 C188.9425287356322,350 200.36781609195404,350 206.89655172413794,350 C213.42528735632183,350 224.8505747126437,350 231.3793103448276,350 C237.90804597701148,350 249.33333333333334,350 255.86206896551724,350 C262.39080459770116,350 273.81609195402297,350 280.34482758620686,350 C286.87356321839076,350 298.2988505747127,350 304.82758620689657,350 C311.35632183908046,350 322.7816091954023,350 329.3103448275862,350 C335.8390804597701,350 347.264367816092,350 353.7931034482759,350 C360.32183908045977,350 371.7471264367816,350 378.2758620689655,350 C384.8045977011494,350 396.2298850574713,350 402.7586206896552,350 C409.28735632183907,349.987365982909 420.71264367816093,349.9263015669691 427.2413793103448,349.9052448718174 C433.7701149425287,349.8841881766657 445.1954022988506,349.859622032322 451.7241379310345,349.8420747863623 C458.2528735632184,349.8245275404025 469.67816091954023,349.7918896629174 476.2068965517241,349.77364052711926 C482.735632183908,349.7553913913211 494.1609195402299,349.7234554036744 500.6896551724138,349.70520626787624 C507.2183908045977,349.6869571320781 518.6436781609195,349.65221358507785 525.1724137931035,349.6367720086333 C531.7011494252874,349.6213304321887 543.1264367816092,349.6062398006633 549.6551724137931,349.58939444454194 C556.1839080459771,349.5725490884206 567.6091954022988,349.53148853287473 574.1379310344828,349.51043183772305 C580.6666666666667,349.48937514257136 592.0919540229885,349.4546315955711 598.6206896551724,349.4314692309042 C605.1494252873564,349.40830686623735 616.5747126436781,349.35706890803493 623.1034482758621,349.3367141027216 C629.632183908046,349.31635929740827 641.0574712643678,349.3139026829739 647.5862068965517,349.2788081910544 C654.1149425287357,349.2437136991349 665.5402298850574,349.1121093544368 672.0689655172414,349.0735054133254 C678.5977011494253,349.03490147221396 690.0229885057471,349.00401831932476 696.551724137931,348.9892786327186 C703.080459770115,348.97453894611243 714.5057471264367,348.9706785520013 721.0344827586207,348.962957763779 C727.5632183908046,348.9552369755567 738.9885057471264,348.9411991787889 745.5172413793103,348.93137272105145 C752.0459770114943,348.921546263314 766.735632183908,348.89487444945513 770,348.889259330748" fill="none" stroke="#795548" stroke-width="2.5" class="data-line-8" />
  <path d="M60,350 C63.264367816091955,350 77.95402298850574,350 84.48275862068965,350 C91.01149425287356,350 102.43678160919539,350 108.9655172413793,350 C115.49425287356321,350 126.91954022988504,350 133.44827586206895,350 C139.97701149425285,350 151.40229885057468,350 157.9310344827586,350 C164.45977011494253,350 175.88505747126436,350 182.41379310344828,350 C188.9425287356322,350 200.36781609195404,350 206.89655172413794,350 C213.42528735632183,349.9978943304848 224.8505747126437,349.9863131481514 231.3793103448276,349.9842074786362 C237.90804597701148,349.9842074786362 249.33333333333334,349.9842074786362 255.86206896551724,349.9842074786362 C262.39080459770116,349.9799961396059 273.81609195402297,349.96315078348454 280.34482758620686,349.95262243590867 C286.87356321839076,349.9420940883328 298.2988505747127,349.91507132955485 304.82758620689657,349.9052448718174 C311.35632183908046,349.8954184140799 322.7816091954023,349.88383723174644 329.3103448275862,349.87892400287774 C335.8390804597701,349.87401077400904 347.264367816092,349.8733088841706 353.7931034482759,349.8683956553019 C360.32183908045977,349.8634824264332 371.7471264367816,349.846988015231 378.2758620689655,349.8420747863623 C384.8045977011494,349.8371615574936 396.2298850574713,349.8420747863623 402.7586206896552,349.83154643878646 C409.28735632183907,349.8210180912106 420.71264367816093,349.77785186614966 427.2413793103448,349.76311217954344 C433.7701149425287,349.7483724929372 445.1954022988506,349.7343346961694 451.7241379310345,349.72099878924 C458.2528735632184,349.7076628823106 469.67816091954023,349.6750250048255 476.2068965517241,349.66309287757286 C482.735632183908,349.65116075032023 494.1609195402299,349.6448437417747 500.6896551724138,349.6315078348453 C507.2183908045977,349.6181719279159 518.6436781609195,349.5757075926933 525.1724137931035,349.5630735756023 C531.7011494252874,349.5504395585113 543.1264367816092,349.55219428310727 549.6551724137931,349.5367527066627 C556.1839080459771,349.5213111302181 567.6091954022988,349.47112600677326 574.1379310344828,349.447261752268 C580.6666666666667,349.4233974977627 592.0919540229885,349.3851445015705 598.6206896551724,349.3577707978733 C605.1494252873564,349.3303970941761 616.5747126436781,349.2630156696906 623.1034482758621,349.24195897453893 C629.632183908046,349.22090227938725 641.0574712643678,349.21037393181143 647.5862068965517,349.19984558423556 C654.1149425287357,349.1893172366597 665.5402298850574,349.1770341644879 672.0689655172414,349.1629963677201 C678.5977011494253,349.1489585709523 690.0229885057471,349.1135131341136 696.551724137931,349.0945621084771 C703.080459770115,349.07561108284057 714.5057471264367,349.03700714172913 721.0344827586207,349.02086367544615 C727.5632183908046,349.00472020916317 738.9885057471264,348.98612012844586 745.5172413793103,348.9734861113548 C752.0459770114943,348.96085209426377 766.735632183908,348.932425555809 770,348.9261085472635" fill="none" stroke="#00bcd4" stroke-width="2.5" class="data-line-9" />
  <g class="points">
    
    <circle cx="60" cy="350" r="4" fill="#dfb317" class="data-point" style="animation-delay: 1.50s" />
    <circle cx="84.48275862068965" cy="350" r="4" fill="#dfb317" class="data-point" style="animation-delay: 1.55s" />
    <circle cx="108.9655172413793" cy="350" r="4" fill="#dfb317" class="data-point" style="animation-delay: 1.60s" />
    <circle cx="133.44827586206895" cy="350" r="4" fill="#dfb317" class="data-point" style="animation-delay: 1.65s" />
    <circle cx="157.9310344827586" cy="350" r="4" fill="#dfb317" class="data-point" style="animation-delay: 1.70s" />
    <circle cx="182.41379310344828" cy="350" r="4" fill="#dfb317" class="data-point" style="animation-delay: 1.75s" />
    <circle cx="206.89655172413794" cy="350" r="4" fill="#dfb317" class="data-point" style="animation-delay: 1.80s" />
    <circle cx="231.3793103448276" cy="350" r="4" fill="#dfb317" class="data-point" style="animation-delay: 1.85s" />
    <circle cx="255.86206896551724" cy="342.9828563406973" r="4" fill="#dfb317" class="data-point" style="animation-delay: 1.90s" />
    <circle cx="280.34482758620686" cy="293.8470582042149" r="4" fill="#dfb317" class="data-point" style="animation-delay: 1.95s" />
    <circle cx="304.82758620689657" cy="279.8127708856095" r="4" fill="#dfb317" class="data-point" style="animation-delay: 2.00s" />
    <circle cx="329.3103448275862" cy="272.7903630525189" r="4" fill="#dfb317" class="data-point" style="animation-delay: 2.05s" />
    <circle cx="353.7931034482759" cy="265.7732193932162" r="4" fill="#dfb317" class="data-point" style="animation-delay: 2.10s" />
    <circle cx="378.2758620689655" cy="265.7732193932162" r="4" fill="#dfb317" class="data-point" style="animation-delay: 2.15s" />
    <circle cx="402.7586206896552" cy="258.7560757339136" r="4" fill="#dfb317" class="data-point" style="animation-delay: 2.20s" />
    <circle cx="427.2413793103448" cy="195.58599027882573" r="4" fill="#dfb317" class="data-point" style="animation-delay: 2.25s" />
    <circle cx="451.7241379310345" cy="188.56358244573516" r="4" fill="#dfb317" class="data-point" style="animation-delay: 2.30s" />
    <circle cx="476.2068965517241" cy="181.54643878643247" r="4" fill="#dfb317" class="data-point" style="animation-delay: 2.35s" />
    <circle cx="500.6896551724138" cy="174.5292951271298" r="4" fill="#dfb317" class="data-point" style="animation-delay: 2.40s" />
    <circle cx="525.1724137931035" cy="174.5292951271298" r="4" fill="#dfb317" class="data-point" style="animation-delay: 2.45s" />
    <circle cx="549.6551724137931" cy="167.5068872940392" r="4" fill="#dfb317" class="data-point" style="animation-delay: 2.50s" />
    <circle cx="574.1379310344828" cy="160.48974363473653" r="4" fill="#dfb317" class="data-point" style="animation-delay: 2.55s" />
    <circle cx="598.6206896551724" cy="139.43304848304058" r="4" fill="#dfb317" class="data-point" style="animation-delay: 2.60s" />
    <circle cx="623.1034482758621" cy="130.55238730281283" r="4" fill="#dfb317" class="data-point" style="animation-delay: 2.65s" />
    <circle cx="647.5862068965517" cy="121.67172612258506" r="4" fill="#dfb317" class="data-point" style="animation-delay: 2.70s" />
    <circle cx="672.0689655172414" cy="112.79106494235731" r="4" fill="#dfb317" class="data-point" style="animation-delay: 2.75s" />
    <circle cx="696.551724137931" cy="103.91566793591747" r="4" fill="#dfb317" class="data-point" style="animation-delay: 2.80s" />
    <circle cx="721.0344827586207" cy="95.03500675568972" r="4" fill="#dfb317" class="data-point" style="animation-delay: 2.85s" />
    <circle cx="745.5172413793103" cy="86.15434557546195" r="4" fill="#dfb317" class="data-point" style="animation-delay: 2.90s" />
    <circle cx="770" cy="77.27368439523417" r="4" fill="#dfb317" class="data-point" style="animation-delay: 2.95s" />
    
    <circle cx="60" cy="350" r="4" fill="#28a745" class="data-point" style="animation-delay: 1.50s" />
    <circle cx="84.48275862068965" cy="350" r="4" fill="#28a745" class="data-point" style="animation-delay: 1.55s" />
    <circle cx="108.9655172413793" cy="350" r="4" fill="#28a745" class="data-point" style="animation-delay: 1.60s" />
    <circle cx="133.44827586206895" cy="350" r="4" fill="#28a745" class="data-point" style="animation-delay: 1.65s" />
    <circle cx="157.9310344827586" cy="350" r="4" fill="#28a745" class="data-point" style="animation-delay: 1.70s" />
    <circle cx="182.41379310344828" cy="350" r="4" fill="#28a745" class="data-point" style="animation-delay: 1.75s" />
    <circle cx="206.89655172413794" cy="350" r="4" fill="#28a745" class="data-point" style="animation-delay: 1.80s" />
    <circle cx="231.3793103448276" cy="350" r="4" fill="#28a745" class="data-point" style="animation-delay: 1.85s" />
    <circle cx="255.86206896551724" cy="350" r="4" fill="#28a745" class="data-point" style="animation-delay: 1.90s" />
    <circle cx="280.34482758620686" cy="350" r="4" fill="#28a745" class="data-point" style="animation-delay: 1.95s" />
    <circle cx="304.82758620689657" cy="350" r="4" fill="#28a745" class="data-point" style="animation-delay: 2.00s" />
    <circle cx="329.3103448275862" cy="346.5151169523943" r="4" fill="#28a745" class="data-point" style="animation-delay: 2.05s" />
    <circle cx="353.7931034482759" cy="346.37298426012035" r="4" fill="#28a745" class="data-point" style="animation-delay: 2.10s" />
    <circle cx="378.2758620689655" cy="346.37298426012035" r="4" fill="#28a745" class="data-point" style="animation-delay: 2.15s" />
    <circle cx="402.7586206896552" cy="346.37298426012035" r="4" fill="#28a745" class="data-point" style="animation-delay: 2.20s" />
    <circle cx="427.2413793103448" cy="302.8330028602011" r="4" fill="#28a745" class="data-point" style="animation-delay: 2.25s" />
    <circle cx="451.7241379310345" cy="299.2059871203215" r="4" fill="#28a745" class="data-point" style="animation-delay: 2.30s" />
    <circle cx="476.2068965517241" cy="291.94669146677427" r="4" fill="#28a745" class="data-point" style="animation-delay: 2.35s" />
    <circle cx="500.6896551724138" cy="291.94669146677427" r="4" fill="#28a745" class="data-point" style="animation-delay: 2.40s" />
    <circle cx="525.1724137931035" cy="288.3196757268947" r="4" fill="#28a745" class="data-point" style="animation-delay: 2.45s" />
    <circle cx="549.6551724137931" cy="288.3196757268947" r="4" fill="#28a745" class="data-point" style="animation-delay: 2.50s" />
    <circle cx="574.1379310344828" cy="266.55231711382896" r="4" fill="#28a745" class="data-point" style="animation-delay: 2.55s" />
    <circle cx="598.6206896551724" cy="262.92003720016146" r="4" fill="#28a745" class="data-point" style="animation-delay: 2.60s" />
    <circle cx="623.1034482758621" cy="259.2930214602818" r="4" fill="#28a745" class="data-point" style="animation-delay: 2.65s" />
    <circle cx="647.5862068965517" cy="255.66600572040218" r="4" fill="#28a745" class="data-point" style="animation-delay: 2.70s" />
    <circle cx="672.0689655172414" cy="255.66600572040218" r="4" fill="#28a745" class="data-point" style="animation-delay: 2.75s" />
    <circle cx="696.551724137931" cy="252.03898998052256" r="4" fill="#28a745" class="data-point" style="animation-delay: 2.80s" />
    <circle cx="721.0344827586207" cy="248.41197424064293" r="4" fill="#28a745" class="data-point" style="animation-delay: 2.85s" />
    <circle cx="745.5172413793103" cy="244.7796943269754" r="4" fill="#28a745" class="data-point" style="animation-delay: 2.90s" />
    <circle cx="770" cy="242.8582708943831" r="4" fill="#28a745" class="data-point" style="animation-delay: 2.95s" />
    
    <circle cx="60" cy="349.9947358262121" r="4" fill="#e74c3c" class="data-point" style="animation-delay: 1.50s" />
    <circle cx="84.48275862068965" cy="347.8732737896787" r="4" fill="#e74c3c" class="data-point" style="animation-delay: 1.55s" />
    <circle cx="108.9655172413793" cy="347.35738475846216" r="4" fill="#e74c3c" class="data-point" style="animation-delay: 1.60s" />
    <circle cx="133.44827586206895" cy="345.4728105423854" r="4" fill="#e74c3c" class="data-point" style="animation-delay: 1.65s" />
    <circle cx="157.9310344827586" cy="344.51999508677113" r="4" fill="#e74c3c" class="data-point" style="animation-delay: 1.70s" />
    <circle cx="182.41379310344828" cy="343.81985997297727" r="4" fill="#e74c3c" class="data-point" style="animation-delay: 1.75s" />
    <circle cx="206.89655172413794" cy="343.28817842039695" r="4" fill="#e74c3c" class="data-point" style="animation-delay: 1.80s" />
    <circle cx="231.3793103448276" cy="342.51960904736" r="4" fill="#e74c3c" class="data-point" style="animation-delay: 1.85s" />
    <circle cx="255.86206896551724" cy="341.75630384811103" r="4" fill="#e74c3c" class="data-point" style="animation-delay: 1.90s" />
    <circle cx="280.34482758620686" cy="340.5771289196161" r="4" fill="#e74c3c" class="data-point" style="animation-delay: 1.95s" />
    <circle cx="304.82758620689657" cy="339.69801189703276" r="4" fill="#e74c3c" class="data-point" style="animation-delay: 2.00s" />
    <circle cx="329.3103448275862" cy="338.9820842618751" r="4" fill="#e74c3c" class="data-point" style="animation-delay: 2.05s" />
    <circle cx="353.7931034482759" cy="338.05032550141254" r="4" fill="#e74c3c" class="data-point" style="animation-delay: 2.10s" />
    <circle cx="378.2758620689655" cy="337.6344557721666" r="4" fill="#e74c3c" class="data-point" style="animation-delay: 2.15s" />
    <circle cx="402.7586206896552" cy="336.92905648458475" r="4" fill="#e74c3c" class="data-point" style="animation-delay: 2.20s" />
    <circle cx="427.2413793103448" cy="335.9762410289705" r="4" fill="#e74c3c" class="data-point" style="animation-delay: 2.25s" />
    <circle cx="451.7241379310345" cy="335.5761638210883" r="4" fill="#e74c3c" class="data-point" style="animation-delay: 2.30s" />
    <circle cx="476.2068965517241" cy="335.0550106160838" r="4" fill="#e74c3c" class="data-point" style="animation-delay: 2.35s" />
    <circle cx="500.6896551724138" cy="334.33908298092615" r="4" fill="#e74c3c" class="data-point" style="animation-delay: 2.40s" />
    <circle cx="525.1724137931035" cy="333.5652494341013" r="4" fill="#e74c3c" class="data-point" style="animation-delay: 2.45s" />
    <circle cx="549.6551724137931" cy="333.0125111863693" r="4" fill="#e74c3c" class="data-point" style="animation-delay: 2.50s" />
    <circle cx="574.1379310344828" cy="332.828265103792" r="4" fill="#e74c3c" class="data-point" style="animation-delay: 2.55s" />
    <circle cx="598.6206896551724" cy="332.7387741493973" r="4" fill="#e74c3c" class="data-point" style="animation-delay: 2.60s" />
    <circle cx="623.1034482758621" cy="332.270262682272" r="4" fill="#e74c3c" class="data-point" style="animation-delay: 2.65s" />
    <circle cx="647.5862068965517" cy="331.86492130060185" r="4" fill="#e74c3c" class="data-point" style="animation-delay: 2.70s" />
    <circle cx="672.0689655172414" cy="330.7699731527137" r="4" fill="#e74c3c" class="data-point" style="animation-delay: 2.75s" />
    <circle cx="696.551724137931" cy="330.45412272543825" r="4" fill="#e74c3c" class="data-point" style="animation-delay: 2.80s" />
    <circle cx="721.0344827586207" cy="330.122479776799" r="4" fill="#e74c3c" class="data-point" style="animation-delay: 2.85s" />
    <circle cx="745.5172413793103" cy="329.9487620417975" r="4" fill="#e74c3c" class="data-point" style="animation-delay: 2.90s" />
    <circle cx="770" cy="329.71713839512887" r="4" fill="#e74c3c" class="data-point" style="animation-delay: 2.95s" />
    
    <circle cx="60" cy="350" r="4" fill="#3498db" class="data-point" style="animation-delay: 1.50s" />
    <circle cx="84.48275862068965" cy="350" r="4" fill="#3498db" class="data-point" style="animation-delay: 1.55s" />
    <circle cx="108.9655172413793" cy="350" r="4" fill="#3498db" class="data-point" style="animation-delay: 1.60s" />
    <circle cx="133.44827586206895" cy="350" r="4" fill="#3498db" class="data-point" style="animation-delay: 1.65s" />
    <circle cx="157.9310344827586" cy="350" r="4" fill="#3498db" class="data-point" style="animation-delay: 1.70s" />
    <circle cx="182.41379310344828" cy="350" r="4" fill="#3498db" class="data-point" style="animation-delay: 1.75s" />
    <circle cx="206.89655172413794" cy="350" r="4" fill="#3498db" class="data-point" style="animation-delay: 1.80s" />
    <circle cx="231.3793103448276" cy="350" r="4" fill="#3498db" class="data-point" style="animation-delay: 1.85s" />
    <circle cx="255.86206896551724" cy="349.96315078348454" r="4" fill="#3498db" class="data-point" style="animation-delay: 1.90s" />
    <circle cx="280.34482758620686" cy="348.20491673831793" r="4" fill="#3498db" class="data-point" style="animation-delay: 1.95s" />
    <circle cx="304.82758620689657" cy="347.4258190177052" r="4" fill="#3498db" class="data-point" style="animation-delay: 2.00s" />
    <circle cx="329.3103448275862" cy="346.9415150292162" r="4" fill="#3498db" class="data-point" style="animation-delay: 2.05s" />
    <circle cx="353.7931034482759" cy="346.62566460194074" r="4" fill="#3498db" class="data-point" style="animation-delay: 2.10s" />
    <circle cx="378.2758620689655" cy="346.25717243678605" r="4" fill="#3498db" class="data-point" style="animation-delay: 2.15s" />
    <circle cx="402.7586206896552" cy="345.88341609784345" r="4" fill="#3498db" class="data-point" style="animation-delay: 2.20s" />
    <circle cx="427.2413793103448" cy="343.6198213690361" r="4" fill="#3498db" class="data-point" style="animation-delay: 2.25s" />
    <circle cx="451.7241379310345" cy="343.18815911842637" r="4" fill="#3498db" class="data-point" style="animation-delay: 2.30s" />
    <circle cx="476.2068965517241" cy="342.85651616978714" r="4" fill="#3498db" class="data-point" style="animation-delay: 2.35s" />
    <circle cx="500.6896551724138" cy="342.4301180929653" r="4" fill="#3498db" class="data-point" style="animation-delay: 2.40s" />
    <circle cx="525.1724137931035" cy="342.0616259278106" r="4" fill="#3498db" class="data-point" style="animation-delay: 2.45s" />
    <circle cx="549.6551724137931" cy="341.8089455859903" r="4" fill="#3498db" class="data-point" style="animation-delay: 2.50s" />
    <circle cx="574.1379310344828" cy="341.5773219393216" r="4" fill="#3498db" class="data-point" style="animation-delay: 2.55s" />
    <circle cx="598.6206896551724" cy="340.59292144097986" r="4" fill="#3498db" class="data-point" style="animation-delay: 2.60s" />
    <circle cx="623.1034482758621" cy="339.9348997174893" r="4" fill="#3498db" class="data-point" style="animation-delay: 2.65s" />
    <circle cx="647.5862068965517" cy="339.62431346400183" r="4" fill="#3498db" class="data-point" style="animation-delay: 2.70s" />
    <circle cx="672.0689655172414" cy="339.34004807945394" r="4" fill="#3498db" class="data-point" style="animation-delay: 2.75s" />
    <circle cx="696.551724137931" cy="339.15580199687656" r="4" fill="#3498db" class="data-point" style="animation-delay: 2.80s" />
    <circle cx="721.0344827586207" cy="338.9610275667234" r="4" fill="#3498db" class="data-point" style="animation-delay: 2.85s" />
    <circle cx="745.5172413793103" cy="338.7451964414185" r="4" fill="#3498db" class="data-point" style="animation-delay: 2.90s" />
    <circle cx="770" cy="338.5504220112653" r="4" fill="#3498db" class="data-point" style="animation-delay: 2.95s" />
    
    <circle cx="60" cy="350" r="4" fill="#9b59b6" class="data-point" style="animation-delay: 1.50s" />
    <circle cx="84.48275862068965" cy="349.9947358262121" r="4" fill="#9b59b6" class="data-point" style="animation-delay: 1.55s" />
    <circle cx="108.9655172413793" cy="349.96841495727244" r="4" fill="#9b59b6" class="data-point" style="animation-delay: 1.60s" />
    <circle cx="133.44827586206895" cy="349.9263015669691" r="4" fill="#9b59b6" class="data-point" style="animation-delay: 1.65s" />
    <circle cx="157.9310344827586" cy="349.87365982908983" r="4" fill="#9b59b6" class="data-point" style="animation-delay: 1.70s" />
    <circle cx="182.41379310344828" cy="349.8420747863623" r="4" fill="#9b59b6" class="data-point" style="animation-delay: 1.75s" />
    <circle cx="206.89655172413794" cy="349.74731965817966" r="4" fill="#9b59b6" class="data-point" style="animation-delay: 1.80s" />
    <circle cx="231.3793103448276" cy="349.66309287757286" r="4" fill="#9b59b6" class="data-point" style="animation-delay: 1.85s" />
    <circle cx="255.86206896551724" cy="349.515696011511" r="4" fill="#9b59b6" class="data-point" style="animation-delay: 1.90s" />
    <circle cx="280.34482758620686" cy="349.12088297741667" r="4" fill="#9b59b6" class="data-point" style="animation-delay: 1.95s" />
    <circle cx="304.82758620689657" cy="348.7997683763533" r="4" fill="#9b59b6" class="data-point" style="animation-delay: 2.00s" />
    <circle cx="329.3103448275862" cy="348.4839179490779" r="4" fill="#9b59b6" class="data-point" style="animation-delay: 2.05s" />
    <circle cx="353.7931034482759" cy="348.2522943024092" r="4" fill="#9b59b6" class="data-point" style="animation-delay: 2.10s" />
    <circle cx="378.2758620689655" cy="347.99434978680097" r="4" fill="#9b59b6" class="data-point" style="animation-delay: 2.15s" />
    <circle cx="402.7586206896552" cy="347.783782835284" r="4" fill="#9b59b6" class="data-point" style="animation-delay: 2.20s" />
    <circle cx="427.2413793103448" cy="347.46266823422064" r="4" fill="#9b59b6" class="data-point" style="animation-delay: 2.25s" />
    <circle cx="451.7241379310345" cy="347.1468178069452" r="4" fill="#9b59b6" class="data-point" style="animation-delay: 2.30s" />
    <circle cx="476.2068965517241" cy="346.89413746512486" r="4" fill="#9b59b6" class="data-point" style="animation-delay: 2.35s" />
    <circle cx="500.6896551724138" cy="346.5940795592132" r="4" fill="#9b59b6" class="data-point" style="animation-delay: 2.40s" />
    <circle cx="525.1724137931035" cy="346.051869659057" r="4" fill="#9b59b6" class="data-point" style="animation-delay: 2.45s" />
    <circle cx="549.6551724137931" cy="345.6517924511748" r="4" fill="#9b59b6" class="data-point" style="animation-delay: 2.50s" />
    <circle cx="574.1379310344828" cy="345.1306392461703" r="4" fill="#9b59b6" class="data-point" style="animation-delay: 2.55s" />
    <circle cx="598.6206896551724" cy="344.2725789187387" r="4" fill="#9b59b6" class="data-point" style="animation-delay: 2.60s" />
    <circle cx="623.1034482758621" cy="343.4618961553984" r="4" fill="#9b59b6" class="data-point" style="animation-delay: 2.65s" />
    <circle cx="647.5862068965517" cy="342.0405692326589" r="4" fill="#9b59b6" class="data-point" style="animation-delay: 2.70s" />
    <circle cx="672.0689655172414" cy="341.5878502868975" r="4" fill="#9b59b6" class="data-point" style="animation-delay: 2.75s" />
    <circle cx="696.551724137931" cy="341.1140746459843" r="4" fill="#9b59b6" class="data-point" style="animation-delay: 2.80s" />
    <circle cx="721.0344827586207" cy="340.7613750021934" r="4" fill="#9b59b6" class="data-point" style="animation-delay: 2.85s" />
    <circle cx="745.5172413793103" cy="340.3665619680991" r="4" fill="#9b59b6" class="data-point" style="animation-delay: 2.90s" />
    <circle cx="770" cy="340.1402024952184" r="4" fill="#9b59b6" class="data-point" style="animation-delay: 2.95s" />
    
    <circle cx="60" cy="350" r="4" fill="#e67e22" class="data-point" style="animation-delay: 1.50s" />
    <circle cx="84.48275862068965" cy="350" r="4" fill="#e67e22" class="data-point" style="animation-delay: 1.55s" />
    <circle cx="108.9655172413793" cy="350" r="4" fill="#e67e22" class="data-point" style="animation-delay: 1.60s" />
    <circle cx="133.44827586206895" cy="350" r="4" fill="#e67e22" class="data-point" style="animation-delay: 1.65s" />
    <circle cx="157.9310344827586" cy="350" r="4" fill="#e67e22" class="data-point" style="animation-delay: 1.70s" />
    <circle cx="182.41379310344828" cy="350" r="4" fill="#e67e22" class="data-point" style="animation-delay: 1.75s" />
    <circle cx="206.89655172413794" cy="350" r="4" fill="#e67e22" class="data-point" style="animation-delay: 1.80s" />
    <circle cx="231.3793103448276" cy="350" r="4" fill="#e67e22" class="data-point" style="animation-delay: 1.85s" />
    <circle cx="255.86206896551724" cy="349.9947358262121" r="4" fill="#e67e22" class="data-point" style="animation-delay: 1.90s" />
    <circle cx="280.34482758620686" cy="349.8683956553019" r="4" fill="#e67e22" class="data-point" style="animation-delay: 1.95s" />
    <circle cx="304.82758620689657" cy="349.7578480057555" r="4" fill="#e67e22" class="data-point" style="animation-delay: 2.00s" />
    <circle cx="329.3103448275862" cy="349.66309287757286" r="4" fill="#e67e22" class="data-point" style="animation-delay: 2.05s" />
    <circle cx="353.7931034482759" cy="349.6262436610574" r="4" fill="#e67e22" class="data-point" style="animation-delay: 2.10s" />
    <circle cx="378.2758620689655" cy="349.56833774939025" r="4" fill="#e67e22" class="data-point" style="animation-delay: 2.15s" />
    <circle cx="402.7586206896552" cy="349.4419975784801" r="4" fill="#e67e22" class="data-point" style="animation-delay: 2.20s" />
    <circle cx="427.2413793103448" cy="349.12614715120463" r="4" fill="#e67e22" class="data-point" style="animation-delay: 2.25s" />
    <circle cx="451.7241379310345" cy="348.94190106862726" r="4" fill="#e67e22" class="data-point" style="animation-delay: 2.30s" />
    <circle cx="476.2068965517241" cy="348.66816403165524" r="4" fill="#e67e22" class="data-point" style="animation-delay: 2.35s" />
    <circle cx="500.6896551724138" cy="348.49971047044164" r="4" fill="#e67e22" class="data-point" style="animation-delay: 2.40s" />
    <circle cx="525.1724137931035" cy="348.2312376072575" r="4" fill="#e67e22" class="data-point" style="animation-delay: 2.45s" />
    <circle cx="549.6551724137931" cy="348.062784046044" r="4" fill="#e67e22" class="data-point" style="animation-delay: 2.50s" />
    <circle cx="574.1379310344828" cy="347.852217094527" r="4" fill="#e67e22" class="data-point" style="animation-delay: 2.55s" />
    <circle cx="598.6206896551724" cy="347.5942725789187" r="4" fill="#e67e22" class="data-point" style="animation-delay: 2.60s" />
    <circle cx="623.1034482758621" cy="347.3468564108863" r="4" fill="#e67e22" class="data-point" style="animation-delay: 2.65s" />
    <circle cx="647.5862068965517" cy="347.09944024285386" r="4" fill="#e67e22" class="data-point" style="animation-delay: 2.70s" />
    <circle cx="672.0689655172414" cy="346.89940163891276" r="4" fill="#e67e22" class="data-point" style="animation-delay: 2.75s" />
    <circle cx="696.551724137931" cy="346.56775869027354" r="4" fill="#e67e22" class="data-point" style="animation-delay: 2.80s" />
    <circle cx="721.0344827586207" cy="346.4045693028479" r="4" fill="#e67e22" class="data-point" style="animation-delay: 2.85s" />
    <circle cx="745.5172413793103" cy="346.2097948726947" r="4" fill="#e67e22" class="data-point" style="animation-delay: 2.90s" />
    <circle cx="770" cy="346.06239800663286" r="4" fill="#e67e22" class="data-point" style="animation-delay: 2.95s" />
    
    <circle cx="60" cy="350" r="4" fill="#1abc9c" class="data-point" style="animation-delay: 1.50s" />
    <circle cx="84.48275862068965" cy="350" r="4" fill="#1abc9c" class="data-point" style="animation-delay: 1.55s" />
    <circle cx="108.9655172413793" cy="350" r="4" fill="#1abc9c" class="data-point" style="animation-delay: 1.60s" />
    <circle cx="133.44827586206895" cy="350" r="4" fill="#1abc9c" class="data-point" style="animation-delay: 1.65s" />
    <circle cx="157.9310344827586" cy="350" r="4" fill="#1abc9c" class="data-point" style="animation-delay: 1.70s" />
    <circle cx="182.41379310344828" cy="350" r="4" fill="#1abc9c" class="data-point" style="animation-delay: 1.75s" />
    <circle cx="206.89655172413794" cy="350" r="4" fill="#1abc9c" class="data-point" style="animation-delay: 1.80s" />
    <circle cx="231.3793103448276" cy="350" r="4" fill="#1abc9c" class="data-point" style="animation-delay: 1.85s" />
    <circle cx="255.86206896551724" cy="350" r="4" fill="#1abc9c" class="data-point" style="animation-delay: 1.90s" />
    <circle cx="280.34482758620686" cy="350" r="4" fill="#1abc9c" class="data-point" style="animation-delay: 1.95s" />
    <circle cx="304.82758620689657" cy="350" r="4" fill="#1abc9c" class="data-point" style="animation-delay: 2.00s" />
    <circle cx="329.3103448275862" cy="350" r="4" fill="#1abc9c" class="data-point" style="animation-delay: 2.05s" />
    <circle cx="353.7931034482759" cy="350" r="4" fill="#1abc9c" class="data-point" style="animation-delay: 2.10s" />
    <circle cx="378.2758620689655" cy="350" r="4" fill="#1abc9c" class="data-point" style="animation-delay: 2.15s" />
    <circle cx="402.7586206896552" cy="349.77364052711926" r="4" fill="#1abc9c" class="data-point" style="animation-delay: 2.20s" />
    <circle cx="427.2413793103448" cy="349.4525259260559" r="4" fill="#1abc9c" class="data-point" style="animation-delay: 2.25s" />
    <circle cx="451.7241379310345" cy="349.30512905999404" r="4" fill="#1abc9c" class="data-point" style="animation-delay: 2.30s" />
    <circle cx="476.2068965517241" cy="349.13141132499254" r="4" fill="#1abc9c" class="data-point" style="animation-delay: 2.35s" />
    <circle cx="500.6896551724138" cy="348.99980698029447" r="4" fill="#1abc9c" class="data-point" style="animation-delay: 2.40s" />
    <circle cx="525.1724137931035" cy="348.889259330748" r="4" fill="#1abc9c" class="data-point" style="animation-delay: 2.45s" />
    <circle cx="549.6551724137931" cy="348.7734475074137" r="4" fill="#1abc9c" class="data-point" style="animation-delay: 2.50s" />
    <circle cx="574.1379310344828" cy="348.67342820544314" r="4" fill="#1abc9c" class="data-point" style="animation-delay: 2.55s" />
    <circle cx="598.6206896551724" cy="348.54182386074507" r="4" fill="#1abc9c" class="data-point" style="animation-delay: 2.60s" />
    <circle cx="623.1034482758621" cy="348.39442699468316" r="4" fill="#1abc9c" class="data-point" style="animation-delay: 2.65s" />
    <circle cx="647.5862068965517" cy="348.28914351892473" r="4" fill="#1abc9c" class="data-point" style="animation-delay: 2.70s" />
    <circle cx="672.0689655172414" cy="348.20491673831793" r="4" fill="#1abc9c" class="data-point" style="animation-delay: 2.75s" />
    <circle cx="696.551724137931" cy="348.1417466528628" r="4" fill="#1abc9c" class="data-point" style="animation-delay: 2.80s" />
    <circle cx="721.0344827586207" cy="348.07857656740777" r="4" fill="#1abc9c" class="data-point" style="animation-delay: 2.85s" />
    <circle cx="745.5172413793103" cy="348.0048781343768" r="4" fill="#1abc9c" class="data-point" style="animation-delay: 2.90s" />
    <circle cx="770" cy="347.92591552755795" r="4" fill="#1abc9c" class="data-point" style="animation-delay: 2.95s" />
    
    <circle cx="60" cy="350" r="4" fill="#e84393" class="data-point" style="animation-delay: 1.50s" />
    <circle cx="84.48275862068965" cy="350" r="4" fill="#e84393" class="data-point" style="animation-delay: 1.55s" />
    <circle cx="108.9655172413793" cy="350" r="4" fill="#e84393" class="data-point" style="animation-delay: 1.60s" />
    <circle cx="133.44827586206895" cy="350" r="4" fill="#e84393" class="data-point" style="animation-delay: 1.65s" />
    <circle cx="157.9310344827586" cy="350" r="4" fill="#e84393" class="data-point" style="animation-delay: 1.70s" />
    <circle cx="182.41379310344828" cy="350" r="4" fill="#e84393" class="data-point" style="animation-delay: 1.75s" />
    <circle cx="206.89655172413794" cy="350" r="4" fill="#e84393" class="data-point" style="animation-delay: 1.80s" />
    <circle cx="231.3793103448276" cy="350" r="4" fill="#e84393" class="data-point" style="animation-delay: 1.85s" />
    <circle cx="255.86206896551724" cy="350" r="4" fill="#e84393" class="data-point" style="animation-delay: 1.90s" />
    <circle cx="280.34482758620686" cy="350" r="4" fill="#e84393" class="data-point" style="animation-delay: 1.95s" />
    <circle cx="304.82758620689657" cy="350" r="4" fill="#e84393" class="data-point" style="animation-delay: 2.00s" />
    <circle cx="329.3103448275862" cy="350" r="4" fill="#e84393" class="data-point" style="animation-delay: 2.05s" />
    <circle cx="353.7931034482759" cy="350" r="4" fill="#e84393" class="data-point" style="animation-delay: 2.10s" />
    <circle cx="378.2758620689655" cy="350" r="4" fill="#e84393" class="data-point" style="animation-delay: 2.15s" />
    <circle cx="402.7586206896552" cy="350" r="4" fill="#e84393" class="data-point" style="animation-delay: 2.20s" />
    <circle cx="427.2413793103448" cy="350" r="4" fill="#e84393" class="data-point" style="animation-delay: 2.25s" />
    <circle cx="451.7241379310345" cy="350" r="4" fill="#e84393" class="data-point" style="animation-delay: 2.30s" />
    <circle cx="476.2068965517241" cy="350" r="4" fill="#e84393" class="data-point" style="animation-delay: 2.35s" />
    <circle cx="500.6896551724138" cy="350" r="4" fill="#e84393" class="data-point" style="animation-delay: 2.40s" />
    <circle cx="525.1724137931035" cy="350" r="4" fill="#e84393" class="data-point" style="animation-delay: 2.45s" />
    <circle cx="549.6551724137931" cy="350" r="4" fill="#e84393" class="data-point" style="animation-delay: 2.50s" />
    <circle cx="574.1379310344828" cy="350" r="4" fill="#e84393" class="data-point" style="animation-delay: 2.55s" />
    <circle cx="598.6206896551724" cy="350" r="4" fill="#e84393" class="data-point" style="animation-delay: 2.60s" />
    <circle cx="623.1034482758621" cy="350" r="4" fill="#e84393" class="data-point" style="animation-delay: 2.65s" />
    <circle cx="647.5862068965517" cy="350" r="4" fill="#e84393" class="data-point" style="animation-delay: 2.70s" />
    <circle cx="672.0689655172414" cy="350" r="4" fill="#e84393" class="data-point" style="animation-delay: 2.75s" />
    <circle cx="696.551724137931" cy="350" r="4" fill="#e84393" class="data-point" style="animation-delay: 2.80s" />
    <circle cx="721.0344827586207" cy="350" r="4" fill="#e84393" class="data-point" style="animation-delay: 2.85s" />
    <circle cx="745.5172413793103" cy="350" r="4" fill="#e84393" class="data-point" style="animation-delay: 2.90s" />
    <circle cx="770" cy="348.7945042025654" r="4" fill="#e84393" class="data-point" style="animation-delay: 2.95s" />
    
    <circle cx="60" cy="350" r="4" fill="#795548" class="data-point" style="animation-delay: 1.50s" />
    <circle cx="84.48275862068965" cy="350" r="4" fill="#795548" class="data-point" style="animation-delay: 1.55s" />
    <circle cx="108.9655172413793" cy="350" r="4" fill="#795548" class="data-point" style="animation-delay: 1.60s" />
    <circle cx="133.44827586206895" cy="350" r="4" fill="#795548" class="data-point" style="animation-delay: 1.65s" />
    <circle cx="157.9310344827586" cy="350" r="4" fill="#795548" class="data-point" style="animation-delay: 1.70s" />
    <circle cx="182.41379310344828" cy="350" r="4" fill="#795548" class="data-point" style="animation-delay: 1.75s" />
    <circle cx="206.89655172413794" cy="350" r="4" fill="#795548" class="data-point" style="animation-delay: 1.80s" />
    <circle cx="231.3793103448276" cy="350" r="4" fill="#795548" class="data-point" style="animation-delay: 1.85s" />
    <circle cx="255.86206896551724" cy="350" r="4" fill="#795548" class="data-point" style="animation-delay: 1.90s" />
    <circle cx="280.34482758620686" cy="350" r="4" fill="#795548" class="data-point" style="animation-delay: 1.95s" />
    <circle cx="304.82758620689657" cy="350" r="4" fill="#795548" class="data-point" style="animation-delay: 2.00s" />
    <circle cx="329.3103448275862" cy="350" r="4" fill="#795548" class="data-point" style="animation-delay: 2.05s" />
    <circle cx="353.7931034482759" cy="350" r="4" fill="#795548" class="data-point" style="animation-delay: 2.10s" />
    <circle cx="378.2758620689655" cy="350" r="4" fill="#795548" class="data-point" style="animation-delay: 2.15s" />
    <circle cx="402.7586206896552" cy="350" r="4" fill="#795548" class="data-point" style="animation-delay: 2.20s" />
    <circle cx="427.2413793103448" cy="349.9052448718174" r="4" fill="#795548" class="data-point" style="animation-delay: 2.25s" />
    <circle cx="451.7241379310345" cy="349.8420747863623" r="4" fill="#795548" class="data-point" style="animation-delay: 2.30s" />
    <circle cx="476.2068965517241" cy="349.77364052711926" r="4" fill="#795548" class="data-point" style="animation-delay: 2.35s" />
    <circle cx="500.6896551724138" cy="349.70520626787624" r="4" fill="#795548" class="data-point" style="animation-delay: 2.40s" />
    <circle cx="525.1724137931035" cy="349.6367720086333" r="4" fill="#795548" class="data-point" style="animation-delay: 2.45s" />
    <circle cx="549.6551724137931" cy="349.58939444454194" r="4" fill="#795548" class="data-point" style="animation-delay: 2.50s" />
    <circle cx="574.1379310344828" cy="349.51043183772305" r="4" fill="#795548" class="data-point" style="animation-delay: 2.55s" />
    <circle cx="598.6206896551724" cy="349.4314692309042" r="4" fill="#795548" class="data-point" style="animation-delay: 2.60s" />
    <circle cx="623.1034482758621" cy="349.3367141027216" r="4" fill="#795548" class="data-point" style="animation-delay: 2.65s" />
    <circle cx="647.5862068965517" cy="349.2788081910544" r="4" fill="#795548" class="data-point" style="animation-delay: 2.70s" />
    <circle cx="672.0689655172414" cy="349.0735054133254" r="4" fill="#795548" class="data-point" style="animation-delay: 2.75s" />
    <circle cx="696.551724137931" cy="348.9892786327186" r="4" fill="#795548" class="data-point" style="animation-delay: 2.80s" />
    <circle cx="721.0344827586207" cy="348.962957763779" r="4" fill="#795548" class="data-point" style="animation-delay: 2.85s" />
    <circle cx="745.5172413793103" cy="348.93137272105145" r="4" fill="#795548" class="data-point" style="animation-delay: 2.90s" />
    <circle cx="770" cy="348.889259330748" r="4" fill="#795548" class="data-point" style="animation-delay: 2.95s" />
    
    <circle cx="60" cy="350" r="4" fill="#00bcd4" class="data-point" style="animation-delay: 1.50s" />
    <circle cx="84.48275862068965" cy="350" r="4" fill="#00bcd4" class="data-point" style="animation-delay: 1.55s" />
    <circle cx="108.9655172413793" cy="350" r="4" fill="#00bcd4" class="data-point" style="animation-delay: 1.60s" />
    <circle cx="133.44827586206895" cy="350" r="4" fill="#00bcd4" class="data-point" style="animation-delay: 1.65s" />
    <circle cx="157.9310344827586" cy="350" r="4" fill="#00bcd4" class="data-point" style="animation-delay: 1.70s" />
    <circle cx="182.41379310344828" cy="350" r="4" fill="#00bcd4" class="data-point" style="animation-delay: 1.75s" />
    <circle cx="206.89655172413794" cy="350" r="4" fill="#00bcd4" class="data-point" style="animation-delay: 1.80s" />
    <circle cx="231.3793103448276" cy="349.9842074786362" r="4" fill="#00bcd4" class="data-point" style="animation-delay: 1.85s" />
    <circle cx="255.86206896551724" cy="349.9842074786362" r="4" fill="#00bcd4" class="data-point" style="animation-delay: 1.90s" />
    <circle cx="280.34482758620686" cy="349.95262243590867" r="4" fill="#00bcd4" class="data-point" style="animation-delay: 1.95s" />
    <circle cx="304.82758620689657" cy="349.9052448718174" r="4" fill="#00bcd4" class="data-point" style="animation-delay: 2.00s" />
    <circle cx="329.3103448275862" cy="349.87892400287774" r="4" fill="#00bcd4" class="data-point" style="animation-delay: 2.05s" />
    <circle cx="353.7931034482759" cy="349.8683956553019" r="4" fill="#00bcd4" class="data-point" style="animation-delay: 2.10s" />
    <circle cx="378.2758620689655" cy="349.8420747863623" r="4" fill="#00bcd4" class="data-point" style="animation-delay: 2.15s" />
    <circle cx="402.7586206896552" cy="349.83154643878646" r="4" fill="#00bcd4" class="data-point" style="animation-delay: 2.20s" />
    <circle cx="427.2413793103448" cy="349.76311217954344" r="4" fill="#00bcd4" class="data-point" style="animation-delay: 2.25s" />
    <circle cx="451.7241379310345" cy="349.72099878924" r="4" fill="#00bcd4" class="data-point" style="animation-delay: 2.30s" />
    <circle cx="476.2068965517241" cy="349.66309287757286" r="4" fill="#00bcd4" class="data-point" style="animation-delay: 2.35s" />
    <circle cx="500.6896551724138" cy="349.6315078348453" r="4" fill="#00bcd4" class="data-point" style="animation-delay: 2.40s" />
    <circle cx="525.1724137931035" cy="349.5630735756023" r="4" fill="#00bcd4" class="data-point" style="animation-delay: 2.45s" />
    <circle cx="549.6551724137931" cy="349.5367527066627" r="4" fill="#00bcd4" class="data-point" style="animation-delay: 2.50s" />
    <circle cx="574.1379310344828" cy="349.447261752268" r="4" fill="#00bcd4" class="data-point" style="animation-delay: 2.55s" />
    <circle cx="598.6206896551724" cy="349.3577707978733" r="4" fill="#00bcd4" class="data-point" style="animation-delay: 2.60s" />
    <circle cx="623.1034482758621" cy="349.24195897453893" r="4" fill="#00bcd4" class="data-point" style="animation-delay: 2.65s" />
    <circle cx="647.5862068965517" cy="349.19984558423556" r="4" fill="#00bcd4" class="data-point" style="animation-delay: 2.70s" />
    <circle cx="672.0689655172414" cy="349.1629963677201" r="4" fill="#00bcd4" class="data-point" style="animation-delay: 2.75s" />
    <circle cx="696.551724137931" cy="349.0945621084771" r="4" fill="#00bcd4" class="data-point" style="animation-delay: 2.80s" />
    <circle cx="721.0344827586207" cy="349.02086367544615" r="4" fill="#00bcd4" class="data-point" style="animation-delay: 2.85s" />
    <circle cx="745.5172413793103" cy="348.9734861113548" r="4" fill="#00bcd4" class="data-point" style="animation-delay: 2.90s" />
    <circle cx="770" cy="348.9261085472635" r="4" fill="#00bcd4" class="data-point" style="animation-delay: 2.95s" />
  </g>
</svg>