<svg xmlns="http://www.w3.org/2000/svg" viewBox="0 0 800 400" width="800" height="400">
  <style>
    @keyframes drawLine {
      to { stroke-dashoffset: 0; }
    }
    @keyframes fadeInPoint {
      from { opacity: 0; }
      to { opacity: 1; }
    }
    .data-line-0 {
      stroke-dasharray: 1261;
      stroke-dashoffset: 1261;
      animation: drawLine 2s ease-out forwards;
    }
    .data-point {
      opacity: 0;
      animation: fadeInPoint 0.5s ease-out forwards;
    }
    .chart-bg { fill: #fff; }
    .chart-text { fill: #24292e; }
    .chart-muted { fill: #6a737d; }
    .chart-grid { stroke: #eee; }
    .chart-axis { stroke: #6a737d; }
    @media (prefers-color-scheme: dark) {
      .chart-bg { fill: #0d1117; }
      .chart-text { fill: #e6edf3; }
      .chart-muted { fill: #8b949e; }
      .chart-grid { stroke: #21262d; }
      .chart-axis { stroke: #8b949e; }
    }
  </style>
  <rect width="800" height="400" class="chart-bg" />
  <text x="400" y="14" text-anchor="middle" class="chart-text" font-size="16" font-weight="bold" font-family="-apple-system, BlinkMacSystemFont, 'Segoe UI', Helvetica, Arial, sans-serif">dobtc/bitcoin Star History</text>
  
  <g class="grid">
    <line x1="60" y1="350" x2="770" y2="350" class="chart-grid" stroke-opacity="0.3" />
    <text x="778" y="354" text-anchor="start" class="chart-muted" font-size="11" font-family="-apple-system, BlinkMacSystemFont, 'Segoe UI', Helvetica, Arial, sans-serif">0</text>
    <line x1="60" y1="250" x2="770" y2="250" class="chart-grid" stroke-opacity="0.3" />
    <text x="778" y="254" text-anchor="start" class="chart-muted" font-size="11" font-family="-apple-system, BlinkMacSystemFont, 'Segoe UI', Helvetica, Arial, sans-serif">5</text>
    <line x1="60" y1="150" x2="770" y2="150" class="chart-grid" stroke-opacity="0.3" />
    <text x="778" y="154" text-anchor="start" class="chart-muted" font-size="11" font-family="-apple-system, BlinkMacSystemFont, 'Segoe UI', Helvetica, Arial, sans-serif">10</text>
    <line x1="60" y1="50" x2="770" y2="50" class="chart-grid" stroke-opacity="0.3" />
    <text x="778" y="54" text-anchor="start" class="chart-muted" font-size="11" font-family="-apple-system, BlinkMacSystemFont, 'Segoe UI', Helvetica, Arial, sans-serif">15</text>
  </g>
  <g class="milestones">
    
  </g>
  <g class="x-axis">
    <text x="60" y="370" text-anchor="middle" class="chart-muted" font-size="11" font-family="-apple-system, BlinkMacSystemFont, 'Segoe UI', Helvetica, Arial, sans-serif">2023</text>
    <text x="84.48275862068965" y="370" text-anchor="middle" class="chart-muted" font-size="11" font-family="-apple-system, BlinkMacSystemFont, 'Segoe UI', Helvetica, Arial, sans-serif">2024</text>
    <text x="378.2758620689655" y="370" text-anchor="middle" class="chart-muted" font-size="11" font-family="-apple-system, BlinkMacSystemFont, 'Segoe UI', Helvetica, Arial, sans-serif">2025</text>
    <text x="647.5862068965517" y="370" text-anchor="middle" class="chart-muted" font-size="11" font-family="-apple-system, BlinkMacSystemFont, 'Segoe UI', Helvetica, Arial, sans-serif">2026</text>
  </g>
  <line x1="770" y1="50" x2="770" y2="350" class="chart-axis" stroke-width="1" />
  <line x1="60" y1="350" x2="770" y2="350" class="chart-axis" stroke-width="1" />
  <path d="M60,350 L60,330 C68.16091954022988,323.3333333333333 76.32183908045977,310 84.48275862068965,310 C92.64367816091954,310 100.80459770114942,310 108.9655172413793,310 C117.12643678160919,310 125.28735632183907,280 133.44827586206895,270 C141.60919540229884,260 149.77011494252872,256.6666666666667 157.9310344827586,250 C166.0919540229885,243.33333333333334 174.2528735632184,230 182.41379310344828,230 C190.57471264367817,230 198.73563218390805,230 206.89655172413794,230 C215.05747126436782,230 223.2183908045977,230 231.3793103448276,230 C239.54022988505747,230 247.70114942528735,210 255.86206896551724,210 C264.0229885057471,210 272.183908045977,210 280.34482758620686,210 C288.50574712643675,210 296.6666666666667,210 304.82758620689657,210 C312.98850574712645,210 321.14942528735634,210 329.3103448275862,210 C337.4712643678161,210 345.632183908046,210 353.7931034482759,210 C361.95402298850576,210 370.11494252873564,210 378.2758620689655,210 C386.4367816091954,210 394.5977011494253,210 402.7586206896552,210 C410.91954022988506,210 419.08045977011494,190 427.2413793103448,190 C435.4022988505747,190 443.5632183908046,190 451.7241379310345,190 C459.88505747126436,190 468.04597701149424,190 476.2068965517241,190 C484.367816091954,190 492.5287356321839,160 500.6896551724138,150 C508.85057471264366,140 517.0114942528736,130.00000000000003 525.1724137931035,130.00000000000003 C533.3333333333334,130.00000000000003 541.4942528735633,130.00000000000003 549.6551724137931,130.00000000000003 C557.816091954023,130.00000000000003 565.9770114942529,130.00000000000003 574.1379310344828,130.00000000000003 C582.2988505747127,130.00000000000003 590.4597701149426,130.00000000000003 598.6206896551724,130.00000000000003 C606.7816091954023,130.00000000000003 614.9425287356322,130.00000000000003 623.1034482758621,130.00000000000003 C631.264367816092,130.00000000000003 639.4252873563219,130.00000000000003 647.5862068965517,130.00000000000003 C655.7471264367816,130.00000000000003 663.9080459770115,130.00000000000003 672.0689655172414,130.00000000000003 C680.2298850574713,130.00000000000003 688.3908045977012,130.00000000000003 696.551724137931,130.00000000000003 C704.7126436781609,130.00000000000003 712.8735632183908,130.00000000000003 721.0344827586207,130.00000000000003 C729.1954022988506,130.00000000000003 737.3563218390805,90 745.5172413793103,90 C753.6781609195402,90 761.8390804597701,90 770,90 L770,350 L60,350 Z" fill="#6b63ff" fill-opacity="0.1" />
  <path d="M60,350 L60,330 C68.16091954022988,323.3333333333333 76.32183908045977,310 84.48275862068965,310 C92.64367816091954,310 100.80459770114942,310 108.9655172413793,310 C117.12643678160919,310 125.28735632183907,280 133.44827586206895,270 C141.60919540229884,260 149.77011494252872,256.6666666666667 157.9310344827586,250 C166.0919540229885,243.33333333333334 174.2528735632184,230 182.41379310344828,230 C190.57471264367817,230 198.73563218390805,230 206.89655172413794,230 C215.05747126436782,230 223.2183908045977,230 231.3793103448276,230 C239.54022988505747,230 247.70114942528735,210 255.86206896551724,210 C264.0229885057471,210 272.183908045977,210 280.34482758620686,210 C288.50574712643675,210 296.6666666666667,210 304.82758620689657,210 C312.98850574712645,210 321.14942528735634,210 329.3103448275862,210 C337.4712643678161,210 345.632183908046,210 353.7931034482759,210 C361.95402298850576,210 370.11494252873564,210 378.2758620689655,210 C386.4367816091954,210 394.5977011494253,210 402.7586206896552,210 C410.91954022988506,210 419.08045977011494,190 427.2413793103448,190 C435.4022988505747,190 443.5632183908046,190 451.7241379310345,190 C459.88505747126436,190 468.04597701149424,190 476.2068965517241,190 C484.367816091954,190 492.5287356321839,160 500.6896551724138,150 C508.85057471264366,140 517.0114942528736,130.00000000000003 525.1724137931035,130.00000000000003 C533.3333333333334,130.00000000000003 541.4942528735633,130.00000000000003 549.6551724137931,130.00000000000003 C557.816091954023,130.00000000000003 565.9770114942529,130.00000000000003 574.1379310344828,130.00000000000003 C582.2988505747127,130.00000000000003 590.4597701149426,130.00000000000003 598.6206896551724,130.00000000000003 C606.7816091954023,130.00000000000003 614.9425287356322,130.00000000000003 623.1034482758621,130.00000000000003 C631.264367816092,130.00000000000003 639.4252873563219,130.00000000000003 647.5862068965517,130.00000000000003 C655.7471264367816,130.00000000000003 663.9080459770115,130.00000000000003 672.0689655172414,130.00000000000003 C680.2298850574713,130.00000000000003 688.3908045977012,130.00000000000003 696.551724137931,130.00000000000003 C704.7126436781609,130.00000000000003 712.8735632183908,130.00000000000003 721.0344827586207,130.00000000000003 C729.1954022988506,130.00000000000003 737.3563218390805,90 745.5172413793103,90 C753.6781609195402,90 761.8390804597701,90 770,90" fill="none" stroke="#6b63ff" stroke-width="2.5" class="data-line-0" />
  <g class="points">
    
    <circle cx="60" cy="330" r="4" fill="#6b63ff" class="data-point" style="animation-delay: 1.50s" />
    <circle cx="84.48275862068965" cy="310" r="4" fill="#6b63ff" class="data-point" style="animation-delay: 1.55s" />
    <circle cx="108.9655172413793" cy="310" r="4" fill="#6b63ff" class="data-point" style="animation-delay: 1.60s" />
    <circle cx="133.44827586206895" cy="270" r="4" fill="#6b63ff" class="data-point" style="animation-delay: 1.65s" />
    <circle cx="157.9310344827586" cy="250" r="4" fill="#6b63ff" class="data-point" style="animation-delay: 1.70s" />
    <circle cx="182.41379310344828" cy="230" r="4" fill="#6b63ff" class="data-point" style="animation-delay: 1.75s" />
    <circle cx="206.89655172413794" cy="230" r="4" fill="#6b63ff" class="data-point" style="animation-delay: 1.80s" />
    <circle cx="231.3793103448276" cy="230" r="4" fill="#6b63ff" class="data-point" style="animation-delay: 1.85s" />
    <circle cx="255.86206896551724" cy="210" r="4" fill="#6b63ff" class="data-point" style="animation-delay: 1.90s" />
    <circle cx="280.34482758620686" cy="210" r="4" fill="#6b63ff" class="data-point" style="animation-delay: 1.95s" />
    <circle cx="304.82758620689657" cy="210" r="4" fill="#6b63ff" class="data-point" style="animation-delay: 2.00s" />
    <circle cx="329.3103448275862" cy="210" r="4" fill="#6b63ff" class="data-point" style="animation-delay: 2.05s" />
    <circle cx="353.7931034482759" cy="210" r="4" fill="#6b63ff" class="data-point" style="animation-delay: 2.10s" />
    <circle cx="378.2758620689655" cy="210" r="4" fill="#6b63ff" class="data-point" style="animation-delay: 2.15s" />
    <circle cx="402.7586206896552" cy="210" r="4" fill="#6b63ff" class="data-point" style="animation-delay: 2.20s" />
    <circle cx="427.2413793103448" cy="190" r="4" fill="#6b63ff" class="data-point" style="animation-delay: 2.25s" />
    <circle cx="451.7241379310345" cy="190" r="4" fill="#6b63ff" class="data-point" style="animation-delay: 2.30s" />
    <circle cx="476.2068965517241" cy="190" r="4" fill="#6b63ff" class="data-point" style="animation-delay: 2.35s" />
    <circle cx="500.6896551724138" cy="150" r="4" fill="#6b63ff" class="data-point" style="animation-delay: 2.40s" />
    <circle cx="525.1724137931035" cy="130.00000000000003" r="4" fill="#6b63ff" class="data-point" style="animation-delay: 2.45s" />
    <circle cx="549.6551724137931" cy="130.00000000000003" r="4" fill="#6b63ff" class="data-point" style="animation-delay: 2.50s" />
    <circle cx="574.1379310344828" cy="130.00000000000003" r="4" fill="#6b63ff" class="data-point" style="animation-delay: 2.55s" />
    <circle cx="598.6206896551724" cy="130.00000000000003" r="4" fill="#6b63ff" class="data-point" style="animation-delay: 2.60s" />
    <circle cx="623.1034482758621" cy="130.00000000000003" r="4" fill="#6b63ff" class="data-point" style="animation-delay: 2.65s" />
    <circle cx="647.5862068965517" cy="130.00000000000003" r="4" fill="#6b63ff" class="data-point" style="animation-delay: 2.70s" />
    <circle cx="672.0689655172414" cy="130.00000000000003" r="4" fill="#6b63ff" class="data-point" style="animation-delay: 2.75s" />
    <circle cx="696.551724137931" cy="130.00000000000003" r="4" fill="#6b63ff" class="data-point" style="animation-delay: 2.80s" />
    <circle cx="721.0344827586207" cy="130.00000000000003" r="4" fill="#6b63ff" class="data-point" style="animation-delay: 2.85s" />
    <circle cx="745.5172413793103" cy="90" r="4" fill="#6b63ff" class="data-point" style="animation-delay: 2.90s" />
    <circle cx="770" cy="90" r="4" fill="#6b63ff" class="data-point" style="animation-delay: 2.95s" />
  </g>
</svg>