<svg xmlns="http://www.w3.org/2000/svg" viewBox="0 0 800 400" width="800" height="400">
  <style>
    @keyframes drawLine {
      to { stroke-dashoffset: 0; }
    }
    @keyframes fadeInPoint {
      from { opacity: 0; }
      to { opacity: 1; }
    }
    .data-line-0 {
      stroke-dasharray: 1271;
      stroke-dashoffset: 1271;
      animation: drawLine 2s ease-out forwards;
    }
    .data-point {
      opacity: 0;
      animation: fadeInPoint 0.5s ease-out forwards;
    }
    .chart-bg { fill: #fff; }
    .chart-text { fill: #24292e; }
    .chart-muted { fill: #6a737d; }
    .chart-grid { stroke: #eee; }
    .chart-axis { stroke: #6a737d; }
    @media (prefers-color-scheme: dark) {
      .chart-bg { fill: #0d1117; }
      .chart-text { fill: #e6edf3; }
      .chart-muted { fill: #8b949e; }
      .chart-grid { stroke: #21262d; }
      .chart-axis { stroke: #8b949e; }
    }
  </style>
  <rect width="800" height="400" class="chart-bg" />
  <text x="400" y="14" text-anchor="middle" class="chart-text" font-size="16" font-weight="bold" font-family="-apple-system, BlinkMacSystemFont, 'Segoe UI', Helvetica, Arial, sans-serif">dockur/proxmox Star History</text>
  
  <g class="grid">
    <line x1="60" y1="350" x2="770" y2="350" class="chart-grid" stroke-opacity="0.3" />
    <text x="778" y="354" text-anchor="start" class="chart-muted" font-size="11" font-family="-apple-system, BlinkMacSystemFont, 'Segoe UI', Helvetica, Arial, sans-serif">0</text>
    <line x1="60" y1="291.40625" x2="770" y2="291.40625" class="chart-grid" stroke-opacity="0.3" />
    <text x="778" y="295.40625" text-anchor="start" class="chart-muted" font-size="11" font-family="-apple-system, BlinkMacSystemFont, 'Segoe UI', Helvetica, Arial, sans-serif">50</text>
    <line x1="60" y1="232.8125" x2="770" y2="232.8125" class="chart-grid" stroke-opacity="0.3" />
    <text x="778" y="236.8125" text-anchor="start" class="chart-muted" font-size="11" font-family="-apple-system, BlinkMacSystemFont, 'Segoe UI', Helvetica, Arial, sans-serif">100</text>
    <line x1="60" y1="174.21875" x2="770" y2="174.21875" class="chart-grid" stroke-opacity="0.3" />
    <text x="778" y="178.21875" text-anchor="start" class="chart-muted" font-size="11" font-family="-apple-system, BlinkMacSystemFont, 'Segoe UI', Helvetica, Arial, sans-serif">150</text>
    <line x1="60" y1="115.625" x2="770" y2="115.625" class="chart-grid" stroke-opacity="0.3" />
    <text x="778" y="119.625" text-anchor="start" class="chart-muted" font-size="11" font-family="-apple-system, BlinkMacSystemFont, 'Segoe UI', Helvetica, Arial, sans-serif">200</text>
    <line x1="60" y1="57.03125" x2="770" y2="57.03125" class="chart-grid" stroke-opacity="0.3" />
    <text x="778" y="61.03125" text-anchor="start" class="chart-muted" font-size="11" font-family="-apple-system, BlinkMacSystemFont, 'Segoe UI', Helvetica, Arial, sans-serif">250</text>
  </g>
  <g class="milestones">
    
  </g>
  <g class="x-axis">
    <text x="60" y="370" text-anchor="middle" class="chart-muted" font-size="11" font-family="-apple-system, BlinkMacSystemFont, 'Segoe UI', Helvetica, Arial, sans-serif">May 27</text>
    <text x="133.44827586206895" y="370" text-anchor="middle" class="chart-muted" font-size="11" font-family="-apple-system, BlinkMacSystemFont, 'Segoe UI', Helvetica, Arial, sans-serif">May 31</text>
    <text x="206.89655172413794" y="370" text-anchor="middle" class="chart-muted" font-size="11" font-family="-apple-system, BlinkMacSystemFont, 'Segoe UI', Helvetica, Arial, sans-serif">Jun 3</text>
    <text x="280.34482758620686" y="370" text-anchor="middle" class="chart-muted" font-size="11" font-family="-apple-system, BlinkMacSystemFont, 'Segoe UI', Helvetica, Arial, sans-serif">Jun 6</text>
    <text x="353.7931034482759" y="370" text-anchor="middle" class="chart-muted" font-size="11" font-family="-apple-system, BlinkMacSystemFont, 'Segoe UI', Helvetica, Arial, sans-serif">Jun 10</text>
    <text x="427.2413793103448" y="370" text-anchor="middle" class="chart-muted" font-size="11" font-family="-apple-system, BlinkMacSystemFont, 'Segoe UI', Helvetica, Arial, sans-serif">Jun 13</text>
    <text x="500.6896551724138" y="370" text-anchor="middle" class="chart-muted" font-size="11" font-family="-apple-system, BlinkMacSystemFont, 'Segoe UI', Helvetica, Arial, sans-serif">Jun 16</text>
    <text x="574.1379310344828" y="370" text-anchor="middle" class="chart-muted" font-size="11" font-family="-apple-system, BlinkMacSystemFont, 'Segoe UI', Helvetica, Arial, sans-serif">Jun 20</text>
    <text x="647.5862068965517" y="370" text-anchor="middle" class="chart-muted" font-size="11" font-family="-apple-system, BlinkMacSystemFont, 'Segoe UI', Helvetica, Arial, sans-serif">Jun 23</text>
    <text x="721.0344827586207" y="370" text-anchor="middle" class="chart-muted" font-size="11" font-family="-apple-system, BlinkMacSystemFont, 'Segoe UI', Helvetica, Arial, sans-serif">Jun 26</text>
    <text x="770" y="370" text-anchor="middle" class="chart-muted" font-size="11" font-family="-apple-system, BlinkMacSystemFont, 'Segoe UI', Helvetica, Arial, sans-serif">Jun 29</text>
  </g>
  <line x1="770" y1="50" x2="770" y2="350" class="chart-axis" stroke-width="1" />
  <line x1="60" y1="350" x2="770" y2="350" class="chart-axis" stroke-width="1" />
  <path d="M60,350 L60,348.828125 C68.16091954022988,320.3125 76.32183908045977,284.5703125 84.48275862068965,263.28125 C92.64367816091954,241.9921875 100.80459770114942,235.546875 108.9655172413793,221.09375 C117.12643678160919,206.640625 125.28735632183907,188.28125 133.44827586206895,176.5625 C141.60919540229884,164.84375 149.77011494252872,157.03125 157.9310344827586,150.78125 C166.0919540229885,144.53125 174.2528735632184,141.6015625 182.41379310344828,139.0625 C190.57471264367817,136.5234375 198.73563218390805,136.71875 206.89655172413794,135.546875 C215.05747126436782,134.375 223.2183908045977,133.7890625 231.3793103448276,132.03125 C239.54022988505747,130.2734375 247.70114942528735,127.1484375 255.86206896551724,125 C264.0229885057471,122.8515625 272.183908045977,120.11568393867715 280.34482758620686,119.140625 C288.50574712643675,118.16556606132283 296.6666666666667,118.61878929245144 304.82758620689657,117.96875 C312.98850574712645,117.31871070754856 321.14942528735634,117.1875 329.3103448275862,114.453125 C337.4712643678161,111.71875 345.632183908046,104.4921875 353.7931034482759,101.5625 C361.95402298850576,98.6328125 370.11494252873564,97.8515625 378.2758620689655,96.875 C386.4367816091954,95.8984375 394.5977011494253,95.703125 402.7586206896552,95.703125 C410.91954022988506,95.703125 419.08045977011494,95.703125 427.2413793103448,95.703125 C435.4022988505747,95.703125 443.5632183908046,95.703125 451.7241379310345,95.703125 C459.88505747126436,95.703125 468.04597701149424,94.53125 476.2068965517241,94.53125 C484.367816091954,94.53125 492.5287356321839,94.53125 500.6896551724138,94.53125 C508.85057471264366,94.53125 517.0114942528736,91.796875 525.1724137931035,91.015625 C533.3333333333334,90.234375 541.4942528735633,90.234375 549.6551724137931,89.84375 C557.816091954023,89.453125 565.9770114942529,88.671875 574.1379310344828,88.671875 C582.2988505747127,88.671875 590.4597701149426,88.671875 598.6206896551724,88.671875 C606.7816091954023,88.671875 614.9425287356322,87.890625 623.1034482758621,87.5 C631.264367816092,87.109375 639.4252873563219,87.109375 647.5862068965517,86.328125 C655.7471264367816,85.546875 663.9080459770115,83.59375 672.0689655172414,82.8125 C680.2298850574713,82.03125 688.3908045977012,82.03125 696.551724137931,81.640625 C704.7126436781609,81.25 712.8735632183908,80.859375 721.0344827586207,80.46875 C729.1954022988506,80.078125 737.3563218390805,79.6875 745.5172413793103,79.296875 C753.6781609195402,78.90625 761.8390804597701,78.515625 770,78.125 L770,350 L60,350 Z" fill="#6b63ff" fill-opacity="0.1" />
  <path d="M60,350 L60,348.828125 C68.16091954022988,320.3125 76.32183908045977,284.5703125 84.48275862068965,263.28125 C92.64367816091954,241.9921875 100.80459770114942,235.546875 108.9655172413793,221.09375 C117.12643678160919,206.640625 125.28735632183907,188.28125 133.44827586206895,176.5625 C141.60919540229884,164.84375 149.77011494252872,157.03125 157.9310344827586,150.78125 C166.0919540229885,144.53125 174.2528735632184,141.6015625 182.41379310344828,139.0625 C190.57471264367817,136.5234375 198.73563218390805,136.71875 206.89655172413794,135.546875 C215.05747126436782,134.375 223.2183908045977,133.7890625 231.3793103448276,132.03125 C239.54022988505747,130.2734375 247.70114942528735,127.1484375 255.86206896551724,125 C264.0229885057471,122.8515625 272.183908045977,120.11568393867715 280.34482758620686,119.140625 C288.50574712643675,118.16556606132283 296.6666666666667,118.61878929245144 304.82758620689657,117.96875 C312.98850574712645,117.31871070754856 321.14942528735634,117.1875 329.3103448275862,114.453125 C337.4712643678161,111.71875 345.632183908046,104.4921875 353.7931034482759,101.5625 C361.95402298850576,98.6328125 370.11494252873564,97.8515625 378.2758620689655,96.875 C386.4367816091954,95.8984375 394.5977011494253,95.703125 402.7586206896552,95.703125 C410.91954022988506,95.703125 419.08045977011494,95.703125 427.2413793103448,95.703125 C435.4022988505747,95.703125 443.5632183908046,95.703125 451.7241379310345,95.703125 C459.88505747126436,95.703125 468.04597701149424,94.53125 476.2068965517241,94.53125 C484.367816091954,94.53125 492.5287356321839,94.53125 500.6896551724138,94.53125 C508.85057471264366,94.53125 517.0114942528736,91.796875 525.1724137931035,91.015625 C533.3333333333334,90.234375 541.4942528735633,90.234375 549.6551724137931,89.84375 C557.816091954023,89.453125 565.9770114942529,88.671875 574.1379310344828,88.671875 C582.2988505747127,88.671875 590.4597701149426,88.671875 598.6206896551724,88.671875 C606.7816091954023,88.671875 614.9425287356322,87.890625 623.1034482758621,87.5 C631.264367816092,87.109375 639.4252873563219,87.109375 647.5862068965517,86.328125 C655.7471264367816,85.546875 663.9080459770115,83.59375 672.0689655172414,82.8125 C680.2298850574713,82.03125 688.3908045977012,82.03125 696.551724137931,81.640625 C704.7126436781609,81.25 712.8735632183908,80.859375 721.0344827586207,80.46875 C729.1954022988506,80.078125 737.3563218390805,79.6875 745.5172413793103,79.296875 C753.6781609195402,78.90625 761.8390804597701,78.515625 770,78.125" fill="none" stroke="#6b63ff" stroke-width="2.5" class="data-line-0" />
  <g class="points">
    
    <circle cx="60" cy="348.828125" r="4" fill="#6b63ff" class="data-point" style="animation-delay: 1.50s" />
    <circle cx="84.48275862068965" cy="263.28125" r="4" fill="#6b63ff" class="data-point" style="animation-delay: 1.55s" />
    <circle cx="108.9655172413793" cy="221.09375" r="4" fill="#6b63ff" class="data-point" style="animation-delay: 1.60s" />
    <circle cx="133.44827586206895" cy="176.5625" r="4" fill="#6b63ff" class="data-point" style="animation-delay: 1.65s" />
    <circle cx="157.9310344827586" cy="150.78125" r="4" fill="#6b63ff" class="data-point" style="animation-delay: 1.70s" />
    <circle cx="182.41379310344828" cy="139.0625" r="4" fill="#6b63ff" class="data-point" style="animation-delay: 1.75s" />
    <circle cx="206.89655172413794" cy="135.546875" r="4" fill="#6b63ff" class="data-point" style="animation-delay: 1.80s" />
    <circle cx="231.3793103448276" cy="132.03125" r="4" fill="#6b63ff" class="data-point" style="animation-delay: 1.85s" />
    <circle cx="255.86206896551724" cy="125" r="4" fill="#6b63ff" class="data-point" style="animation-delay: 1.90s" />
    <circle cx="280.34482758620686" cy="119.140625" r="4" fill="#6b63ff" class="data-point" style="animation-delay: 1.95s" />
    <circle cx="304.82758620689657" cy="117.96875" r="4" fill="#6b63ff" class="data-point" style="animation-delay: 2.00s" />
    <circle cx="329.3103448275862" cy="114.453125" r="4" fill="#6b63ff" class="data-point" style="animation-delay: 2.05s" />
    <circle cx="353.7931034482759" cy="101.5625" r="4" fill="#6b63ff" class="data-point" style="animation-delay: 2.10s" />
    <circle cx="378.2758620689655" cy="96.875" r="4" fill="#6b63ff" class="data-point" style="animation-delay: 2.15s" />
    <circle cx="402.7586206896552" cy="95.703125" r="4" fill="#6b63ff" class="data-point" style="animation-delay: 2.20s" />
    <circle cx="427.2413793103448" cy="95.703125" r="4" fill="#6b63ff" class="data-point" style="animation-delay: 2.25s" />
    <circle cx="451.7241379310345" cy="95.703125" r="4" fill="#6b63ff" class="data-point" style="animation-delay: 2.30s" />
    <circle cx="476.2068965517241" cy="94.53125" r="4" fill="#6b63ff" class="data-point" style="animation-delay: 2.35s" />
    <circle cx="500.6896551724138" cy="94.53125" r="4" fill="#6b63ff" class="data-point" style="animation-delay: 2.40s" />
    <circle cx="525.1724137931035" cy="91.015625" r="4" fill="#6b63ff" class="data-point" style="animation-delay: 2.45s" />
    <circle cx="549.6551724137931" cy="89.84375" r="4" fill="#6b63ff" class="data-point" style="animation-delay: 2.50s" />
    <circle cx="574.1379310344828" cy="88.671875" r="4" fill="#6b63ff" class="data-point" style="animation-delay: 2.55s" />
    <circle cx="598.6206896551724" cy="88.671875" r="4" fill="#6b63ff" class="data-point" style="animation-delay: 2.60s" />
    <circle cx="623.1034482758621" cy="87.5" r="4" fill="#6b63ff" class="data-point" style="animation-delay: 2.65s" />
    <circle cx="647.5862068965517" cy="86.328125" r="4" fill="#6b63ff" class="data-point" style="animation-delay: 2.70s" />
    <circle cx="672.0689655172414" cy="82.8125" r="4" fill="#6b63ff" class="data-point" style="animation-delay: 2.75s" />
    <circle cx="696.551724137931" cy="81.640625" r="4" fill="#6b63ff" class="data-point" style="animation-delay: 2.80s" />
    <circle cx="721.0344827586207" cy="80.46875" r="4" fill="#6b63ff" class="data-point" style="animation-delay: 2.85s" />
    <circle cx="745.5172413793103" cy="79.296875" r="4" fill="#6b63ff" class="data-point" style="animation-delay: 2.90s" />
    <circle cx="770" cy="78.125" r="4" fill="#6b63ff" class="data-point" style="animation-delay: 2.95s" />
  </g>
</svg>