<svg xmlns="http://www.w3.org/2000/svg" viewBox="0 0 800 400" width="800" height="400">
  <style>
    @keyframes drawLine {
      to { stroke-dashoffset: 0; }
    }
    @keyframes fadeInPoint {
      from { opacity: 0; }
      to { opacity: 1; }
    }
    .data-line-0 {
      stroke-dasharray: 1202;
      stroke-dashoffset: 1202;
      animation: drawLine 2s ease-out forwards;
    }
    .data-point {
      opacity: 0;
      animation: fadeInPoint 0.5s ease-out forwards;
    }
    .chart-bg { fill: #fff; }
    .chart-text { fill: #24292e; }
    .chart-muted { fill: #6a737d; }
    .chart-grid { stroke: #eee; }
    .chart-axis { stroke: #6a737d; }
    @media (prefers-color-scheme: dark) {
      .chart-bg { fill: #0d1117; }
      .chart-text { fill: #e6edf3; }
      .chart-muted { fill: #8b949e; }
      .chart-grid { stroke: #21262d; }
      .chart-axis { stroke: #8b949e; }
    }
  </style>
  <rect width="800" height="400" class="chart-bg" />
  <text x="400" y="34" text-anchor="middle" class="chart-text" font-size="16" font-weight="bold" font-family="-apple-system, BlinkMacSystemFont, 'Segoe UI', Helvetica, Arial, sans-serif">dockur/windows Star History</text>
  
  <g class="grid">
    <line x1="60" y1="380" x2="770" y2="380" class="chart-grid" stroke-opacity="0.3" />
    <text x="778" y="384" text-anchor="start" class="chart-muted" font-size="11" font-family="-apple-system, BlinkMacSystemFont, 'Segoe UI', Helvetica, Arial, sans-serif">51,772</text>
    <line x1="60" y1="320" x2="770" y2="320" class="chart-grid" stroke-opacity="0.3" />
    <text x="778" y="324" text-anchor="start" class="chart-muted" font-size="11" font-family="-apple-system, BlinkMacSystemFont, 'Segoe UI', Helvetica, Arial, sans-serif">51,774</text>
    <line x1="60" y1="260" x2="770" y2="260" class="chart-grid" stroke-opacity="0.3" />
    <text x="778" y="264" text-anchor="start" class="chart-muted" font-size="11" font-family="-apple-system, BlinkMacSystemFont, 'Segoe UI', Helvetica, Arial, sans-serif">51,776</text>
    <line x1="60" y1="200" x2="770" y2="200" class="chart-grid" stroke-opacity="0.3" />
    <text x="778" y="204" text-anchor="start" class="chart-muted" font-size="11" font-family="-apple-system, BlinkMacSystemFont, 'Segoe UI', Helvetica, Arial, sans-serif">51,778</text>
    <line x1="60" y1="140" x2="770" y2="140" class="chart-grid" stroke-opacity="0.3" />
    <text x="778" y="144" text-anchor="start" class="chart-muted" font-size="11" font-family="-apple-system, BlinkMacSystemFont, 'Segoe UI', Helvetica, Arial, sans-serif">51,780</text>
    <line x1="60" y1="80" x2="770" y2="80" class="chart-grid" stroke-opacity="0.3" />
    <text x="778" y="84" text-anchor="start" class="chart-muted" font-size="11" font-family="-apple-system, BlinkMacSystemFont, 'Segoe UI', Helvetica, Arial, sans-serif">51,782</text>
    <line x1="60" y1="20" x2="770" y2="20" class="chart-grid" stroke-opacity="0.3" />
    <text x="778" y="24" text-anchor="start" class="chart-muted" font-size="11" font-family="-apple-system, BlinkMacSystemFont, 'Segoe UI', Helvetica, Arial, sans-serif">51,784</text>
  </g>
  <g class="milestones">
    
  </g>
  <g class="x-axis">
    <text x="60" y="370" text-anchor="middle" class="chart-muted" font-size="11" font-family="-apple-system, BlinkMacSystemFont, 'Segoe UI', Helvetica, Arial, sans-serif">Jun 23</text>
    <text x="178.33333333333331" y="370" text-anchor="middle" class="chart-muted" font-size="11" font-family="-apple-system, BlinkMacSystemFont, 'Segoe UI', Helvetica, Arial, sans-serif">Jun 24</text>
    <text x="296.66666666666663" y="370" text-anchor="middle" class="chart-muted" font-size="11" font-family="-apple-system, BlinkMacSystemFont, 'Segoe UI', Helvetica, Arial, sans-serif">Jun 24</text>
    <text x="415" y="370" text-anchor="middle" class="chart-muted" font-size="11" font-family="-apple-system, BlinkMacSystemFont, 'Segoe UI', Helvetica, Arial, sans-serif">Jun 24</text>
    <text x="533.3333333333333" y="370" text-anchor="middle" class="chart-muted" font-size="11" font-family="-apple-system, BlinkMacSystemFont, 'Segoe UI', Helvetica, Arial, sans-serif">Jun 24</text>
    <text x="651.6666666666667" y="370" text-anchor="middle" class="chart-muted" font-size="11" font-family="-apple-system, BlinkMacSystemFont, 'Segoe UI', Helvetica, Arial, sans-serif">Jun 24</text>
    <text x="770" y="370" text-anchor="middle" class="chart-muted" font-size="11" font-family="-apple-system, BlinkMacSystemFont, 'Segoe UI', Helvetica, Arial, sans-serif">Jun 24</text>
  </g>
  <line x1="770" y1="50" x2="770" y2="350" class="chart-axis" stroke-width="1" />
  <line x1="60" y1="350" x2="770" y2="350" class="chart-axis" stroke-width="1" />
  <path d="M60,320 C75.77777777777777,312 146.77777777777777,288 178.33333333333331,260 C209.88888888888886,232 265.1111111111111,134 296.66666666666663,110 C328.2222222222222,86 383.44444444444446,84 415,80 C446.55555555555554,80 501.7777777777777,80 533.3333333333333,80 C564.8888888888888,80 620.1111111111112,80 651.6666666666667,80 C683.2222222222223,80 754.2222222222223,80 770,80 L770,350 L60,350 Z" fill="#dfb317" fill-opacity="0.1" />
  <path d="M60,320 C75.77777777777777,312 146.77777777777777,288 178.33333333333331,260 C209.88888888888886,232 265.1111111111111,134 296.66666666666663,110 C328.2222222222222,86 383.44444444444446,84 415,80 C446.55555555555554,80 501.7777777777777,80 533.3333333333333,80 C564.8888888888888,80 620.1111111111112,80 651.6666666666667,80 C683.2222222222223,80 754.2222222222223,80 770,80" fill="none" stroke="#dfb317" stroke-width="2" class="data-line-0" />
  <g class="points">
    
    <circle cx="60" cy="320" r="4" fill="#dfb317" class="data-point" style="animation-delay: 1.50s" />
    <circle cx="178.33333333333331" cy="260" r="4" fill="#dfb317" class="data-point" style="animation-delay: 1.55s" />
    <circle cx="296.66666666666663" cy="110" r="4" fill="#dfb317" class="data-point" style="animation-delay: 1.60s" />
    <circle cx="415" cy="80" r="4" fill="#dfb317" class="data-point" style="animation-delay: 1.65s" />
    <circle cx="533.3333333333333" cy="80" r="4" fill="#dfb317" class="data-point" style="animation-delay: 1.70s" />
    <circle cx="651.6666666666667" cy="80" r="4" fill="#dfb317" class="data-point" style="animation-delay: 1.75s" />
    <circle cx="770" cy="80" r="4" fill="#dfb317" class="data-point" style="animation-delay: 1.80s" />
  </g>
</svg>