<svg xmlns="http://www.w3.org/2000/svg" viewBox="0 0 800 400" width="800" height="400">
  <style>
    @keyframes drawLine {
      to { stroke-dashoffset: 0; }
    }
    @keyframes fadeInPoint {
      from { opacity: 0; }
      to { opacity: 1; }
    }
    .data-line-0 {
      stroke-dasharray: 1271;
      stroke-dashoffset: 1271;
      animation: drawLine 2s ease-out forwards;
    }
    .data-point {
      opacity: 0;
      animation: fadeInPoint 0.5s ease-out forwards;
    }
    .chart-bg { fill: #fff; }
    .chart-text { fill: #24292e; }
    .chart-muted { fill: #6a737d; }
    .chart-grid { stroke: #eee; }
    .chart-axis { stroke: #6a737d; }
    @media (prefers-color-scheme: dark) {
      .chart-bg { fill: #0d1117; }
      .chart-text { fill: #e6edf3; }
      .chart-muted { fill: #8b949e; }
      .chart-grid { stroke: #21262d; }
      .chart-axis { stroke: #8b949e; }
    }
  </style>
  <rect width="800" height="400" class="chart-bg" />
  <text x="400" y="14" text-anchor="middle" class="chart-text" font-size="16" font-weight="bold" font-family="-apple-system, BlinkMacSystemFont, 'Segoe UI', Helvetica, Arial, sans-serif">dockur/proxmox Star History</text>
  
  <g class="grid">
    <line x1="60" y1="350" x2="770" y2="350" class="chart-grid" stroke-opacity="0.3" />
    <text x="778" y="354" text-anchor="start" class="chart-muted" font-size="11" font-family="-apple-system, BlinkMacSystemFont, 'Segoe UI', Helvetica, Arial, sans-serif">0</text>
    <line x1="60" y1="290.9448818897638" x2="770" y2="290.9448818897638" class="chart-grid" stroke-opacity="0.3" />
    <text x="778" y="294.9448818897638" text-anchor="start" class="chart-muted" font-size="11" font-family="-apple-system, BlinkMacSystemFont, 'Segoe UI', Helvetica, Arial, sans-serif">50</text>
    <line x1="60" y1="231.88976377952756" x2="770" y2="231.88976377952756" class="chart-grid" stroke-opacity="0.3" />
    <text x="778" y="235.88976377952756" text-anchor="start" class="chart-muted" font-size="11" font-family="-apple-system, BlinkMacSystemFont, 'Segoe UI', Helvetica, Arial, sans-serif">100</text>
    <line x1="60" y1="172.83464566929135" x2="770" y2="172.83464566929135" class="chart-grid" stroke-opacity="0.3" />
    <text x="778" y="176.83464566929135" text-anchor="start" class="chart-muted" font-size="11" font-family="-apple-system, BlinkMacSystemFont, 'Segoe UI', Helvetica, Arial, sans-serif">150</text>
    <line x1="60" y1="113.77952755905511" x2="770" y2="113.77952755905511" class="chart-grid" stroke-opacity="0.3" />
    <text x="778" y="117.77952755905511" text-anchor="start" class="chart-muted" font-size="11" font-family="-apple-system, BlinkMacSystemFont, 'Segoe UI', Helvetica, Arial, sans-serif">200</text>
    <line x1="60" y1="54.7244094488189" x2="770" y2="54.7244094488189" class="chart-grid" stroke-opacity="0.3" />
    <text x="778" y="58.7244094488189" text-anchor="start" class="chart-muted" font-size="11" font-family="-apple-system, BlinkMacSystemFont, 'Segoe UI', Helvetica, Arial, sans-serif">250</text>
  </g>
  <g class="milestones">
    
  </g>
  <g class="x-axis">
    <text x="60" y="370" text-anchor="middle" class="chart-muted" font-size="11" font-family="-apple-system, BlinkMacSystemFont, 'Segoe UI', Helvetica, Arial, sans-serif">May 27</text>
    <text x="133.44827586206895" y="370" text-anchor="middle" class="chart-muted" font-size="11" font-family="-apple-system, BlinkMacSystemFont, 'Segoe UI', Helvetica, Arial, sans-serif">May 31</text>
    <text x="206.89655172413794" y="370" text-anchor="middle" class="chart-muted" font-size="11" font-family="-apple-system, BlinkMacSystemFont, 'Segoe UI', Helvetica, Arial, sans-serif">Jun 3</text>
    <text x="280.34482758620686" y="370" text-anchor="middle" class="chart-muted" font-size="11" font-family="-apple-system, BlinkMacSystemFont, 'Segoe UI', Helvetica, Arial, sans-serif">Jun 6</text>
    <text x="353.7931034482759" y="370" text-anchor="middle" class="chart-muted" font-size="11" font-family="-apple-system, BlinkMacSystemFont, 'Segoe UI', Helvetica, Arial, sans-serif">Jun 9</text>
    <text x="427.2413793103448" y="370" text-anchor="middle" class="chart-muted" font-size="11" font-family="-apple-system, BlinkMacSystemFont, 'Segoe UI', Helvetica, Arial, sans-serif">Jun 12</text>
    <text x="500.6896551724138" y="370" text-anchor="middle" class="chart-muted" font-size="11" font-family="-apple-system, BlinkMacSystemFont, 'Segoe UI', Helvetica, Arial, sans-serif">Jun 15</text>
    <text x="574.1379310344828" y="370" text-anchor="middle" class="chart-muted" font-size="11" font-family="-apple-system, BlinkMacSystemFont, 'Segoe UI', Helvetica, Arial, sans-serif">Jun 19</text>
    <text x="647.5862068965517" y="370" text-anchor="middle" class="chart-muted" font-size="11" font-family="-apple-system, BlinkMacSystemFont, 'Segoe UI', Helvetica, Arial, sans-serif">Jun 22</text>
    <text x="721.0344827586207" y="370" text-anchor="middle" class="chart-muted" font-size="11" font-family="-apple-system, BlinkMacSystemFont, 'Segoe UI', Helvetica, Arial, sans-serif">Jun 25</text>
    <text x="770" y="370" text-anchor="middle" class="chart-muted" font-size="11" font-family="-apple-system, BlinkMacSystemFont, 'Segoe UI', Helvetica, Arial, sans-serif">Jun 27</text>
  </g>
  <line x1="770" y1="50" x2="770" y2="350" class="chart-axis" stroke-width="1" />
  <line x1="60" y1="350" x2="770" y2="350" class="chart-axis" stroke-width="1" />
  <path d="M60,350 L60,348.81889763779526 C68.16091954022988,320.4724409448819 76.32183908045977,285.23622047244095 84.48275862068965,263.7795275590551 C92.64367816091954,242.32283464566927 100.80459770114942,233.85826771653544 108.9655172413793,220.07874015748033 C117.12643678160919,206.2992125984252 125.28735632183907,192.71653543307087 133.44827586206895,181.10236220472441 C141.60919540229884,169.48818897637796 149.77011494252872,157.6771653543307 157.9310344827586,150.39370078740157 C166.0919540229885,143.11023622047244 174.2528735632184,138.49182313749247 182.41379310344828,137.40157480314963 C190.57471264367817,136.31132646880678 198.73563218390805,136.67474258025442 206.89655172413794,136.2204724409449 C215.05747126436782,135.76620230163536 223.2183908045977,132.67716535433073 231.3793103448276,131.49606299212599 C239.54022988505747,130.31496062992125 247.70114942528735,130.90551181102362 255.86206896551724,129.13385826771653 C264.0229885057471,127.36220472440945 272.183908045977,122.83464566929133 280.34482758620686,120.86614173228347 C288.50574712643675,118.89763779527559 296.6666666666667,118.70078740157481 304.82758620689657,117.3228346456693 C312.98850574712645,115.94488188976379 321.14942528735634,113.97637795275588 329.3103448275862,112.59842519685037 C337.4712643678161,111.22047244094486 345.632183908046,111.81102362204723 353.7931034482759,109.05511811023621 C361.95402298850576,106.29921259842519 370.11494252873564,97.22802431948676 378.2758620689655,96.06299212598424 C386.4367816091954,94.89795993248171 394.5977011494253,95.07606179602995 402.7586206896552,94.88188976377953 C410.91954022988506,94.6877177315291 419.08045977011494,93.70078740157481 427.2413793103448,93.70078740157481 C435.4022988505747,93.70078740157481 443.5632183908046,93.70078740157481 451.7241379310345,93.70078740157481 C459.88505747126436,93.70078740157481 468.04597701149424,93.70078740157481 476.2068965517241,93.70078740157481 C484.367816091954,93.70078740157481 492.5287356321839,92.51968503937007 500.6896551724138,92.51968503937007 C508.85057471264366,92.51968503937007 517.0114942528736,92.51968503937007 525.1724137931035,92.51968503937007 C533.3333333333334,92.51968503937007 541.4942528735633,89.76377952755907 549.6551724137931,88.97637795275591 C557.816091954023,88.18897637795276 565.9770114942529,87.79527559055117 574.1379310344828,87.79527559055117 C582.2988505747127,87.79527559055117 590.4597701149426,87.79527559055117 598.6206896551724,87.79527559055117 C606.7816091954023,87.79527559055117 614.9425287356322,87.007874015748 623.1034482758621,86.61417322834643 C631.264367816092,86.22047244094486 639.4252873563219,85.82677165354332 647.5862068965517,85.43307086614175 C655.7471264367816,85.03937007874018 663.9080459770115,84.84251968503936 672.0689655172414,84.25196850393701 C680.2298850574713,83.66141732283465 688.3908045977012,82.48031496062994 696.551724137931,81.88976377952758 C704.7126436781609,81.29921259842523 712.8735632183908,81.2992125984252 721.0344827586207,80.70866141732284 C729.1954022988506,80.11811023622049 737.3563218390805,78.93700787401579 745.5172413793103,78.34645669291342 C753.6781609195402,77.75590551181105 761.8390804597701,77.55905511811022 770,77.16535433070862 L770,350 L60,350 Z" fill="#6b63ff" fill-opacity="0.1" />
  <path d="M60,350 L60,348.81889763779526 C68.16091954022988,320.4724409448819 76.32183908045977,285.23622047244095 84.48275862068965,263.7795275590551 C92.64367816091954,242.32283464566927 100.80459770114942,233.85826771653544 108.9655172413793,220.07874015748033 C117.12643678160919,206.2992125984252 125.28735632183907,192.71653543307087 133.44827586206895,181.10236220472441 C141.60919540229884,169.48818897637796 149.77011494252872,157.6771653543307 157.9310344827586,150.39370078740157 C166.0919540229885,143.11023622047244 174.2528735632184,138.49182313749247 182.41379310344828,137.40157480314963 C190.57471264367817,136.31132646880678 198.73563218390805,136.67474258025442 206.89655172413794,136.2204724409449 C215.05747126436782,135.76620230163536 223.2183908045977,132.67716535433073 231.3793103448276,131.49606299212599 C239.54022988505747,130.31496062992125 247.70114942528735,130.90551181102362 255.86206896551724,129.13385826771653 C264.0229885057471,127.36220472440945 272.183908045977,122.83464566929133 280.34482758620686,120.86614173228347 C288.50574712643675,118.89763779527559 296.6666666666667,118.70078740157481 304.82758620689657,117.3228346456693 C312.98850574712645,115.94488188976379 321.14942528735634,113.97637795275588 329.3103448275862,112.59842519685037 C337.4712643678161,111.22047244094486 345.632183908046,111.81102362204723 353.7931034482759,109.05511811023621 C361.95402298850576,106.29921259842519 370.11494252873564,97.22802431948676 378.2758620689655,96.06299212598424 C386.4367816091954,94.89795993248171 394.5977011494253,95.07606179602995 402.7586206896552,94.88188976377953 C410.91954022988506,94.6877177315291 419.08045977011494,93.70078740157481 427.2413793103448,93.70078740157481 C435.4022988505747,93.70078740157481 443.5632183908046,93.70078740157481 451.7241379310345,93.70078740157481 C459.88505747126436,93.70078740157481 468.04597701149424,93.70078740157481 476.2068965517241,93.70078740157481 C484.367816091954,93.70078740157481 492.5287356321839,92.51968503937007 500.6896551724138,92.51968503937007 C508.85057471264366,92.51968503937007 517.0114942528736,92.51968503937007 525.1724137931035,92.51968503937007 C533.3333333333334,92.51968503937007 541.4942528735633,89.76377952755907 549.6551724137931,88.97637795275591 C557.816091954023,88.18897637795276 565.9770114942529,87.79527559055117 574.1379310344828,87.79527559055117 C582.2988505747127,87.79527559055117 590.4597701149426,87.79527559055117 598.6206896551724,87.79527559055117 C606.7816091954023,87.79527559055117 614.9425287356322,87.007874015748 623.1034482758621,86.61417322834643 C631.264367816092,86.22047244094486 639.4252873563219,85.82677165354332 647.5862068965517,85.43307086614175 C655.7471264367816,85.03937007874018 663.9080459770115,84.84251968503936 672.0689655172414,84.25196850393701 C680.2298850574713,83.66141732283465 688.3908045977012,82.48031496062994 696.551724137931,81.88976377952758 C704.7126436781609,81.29921259842523 712.8735632183908,81.2992125984252 721.0344827586207,80.70866141732284 C729.1954022988506,80.11811023622049 737.3563218390805,78.93700787401579 745.5172413793103,78.34645669291342 C753.6781609195402,77.75590551181105 761.8390804597701,77.55905511811022 770,77.16535433070862" fill="none" stroke="#6b63ff" stroke-width="2.5" class="data-line-0" />
  <g class="points">
    
    <circle cx="60" cy="348.81889763779526" r="4" fill="#6b63ff" class="data-point" style="animation-delay: 1.50s" />
    <circle cx="84.48275862068965" cy="263.7795275590551" r="4" fill="#6b63ff" class="data-point" style="animation-delay: 1.55s" />
    <circle cx="108.9655172413793" cy="220.07874015748033" r="4" fill="#6b63ff" class="data-point" style="animation-delay: 1.60s" />
    <circle cx="133.44827586206895" cy="181.10236220472441" r="4" fill="#6b63ff" class="data-point" style="animation-delay: 1.65s" />
    <circle cx="157.9310344827586" cy="150.39370078740157" r="4" fill="#6b63ff" class="data-point" style="animation-delay: 1.70s" />
    <circle cx="182.41379310344828" cy="137.40157480314963" r="4" fill="#6b63ff" class="data-point" style="animation-delay: 1.75s" />
    <circle cx="206.89655172413794" cy="136.2204724409449" r="4" fill="#6b63ff" class="data-point" style="animation-delay: 1.80s" />
    <circle cx="231.3793103448276" cy="131.49606299212599" r="4" fill="#6b63ff" class="data-point" style="animation-delay: 1.85s" />
    <circle cx="255.86206896551724" cy="129.13385826771653" r="4" fill="#6b63ff" class="data-point" style="animation-delay: 1.90s" />
    <circle cx="280.34482758620686" cy="120.86614173228347" r="4" fill="#6b63ff" class="data-point" style="animation-delay: 1.95s" />
    <circle cx="304.82758620689657" cy="117.3228346456693" r="4" fill="#6b63ff" class="data-point" style="animation-delay: 2.00s" />
    <circle cx="329.3103448275862" cy="112.59842519685037" r="4" fill="#6b63ff" class="data-point" style="animation-delay: 2.05s" />
    <circle cx="353.7931034482759" cy="109.05511811023621" r="4" fill="#6b63ff" class="data-point" style="animation-delay: 2.10s" />
    <circle cx="378.2758620689655" cy="96.06299212598424" r="4" fill="#6b63ff" class="data-point" style="animation-delay: 2.15s" />
    <circle cx="402.7586206896552" cy="94.88188976377953" r="4" fill="#6b63ff" class="data-point" style="animation-delay: 2.20s" />
    <circle cx="427.2413793103448" cy="93.70078740157481" r="4" fill="#6b63ff" class="data-point" style="animation-delay: 2.25s" />
    <circle cx="451.7241379310345" cy="93.70078740157481" r="4" fill="#6b63ff" class="data-point" style="animation-delay: 2.30s" />
    <circle cx="476.2068965517241" cy="93.70078740157481" r="4" fill="#6b63ff" class="data-point" style="animation-delay: 2.35s" />
    <circle cx="500.6896551724138" cy="92.51968503937007" r="4" fill="#6b63ff" class="data-point" style="animation-delay: 2.40s" />
    <circle cx="525.1724137931035" cy="92.51968503937007" r="4" fill="#6b63ff" class="data-point" style="animation-delay: 2.45s" />
    <circle cx="549.6551724137931" cy="88.97637795275591" r="4" fill="#6b63ff" class="data-point" style="animation-delay: 2.50s" />
    <circle cx="574.1379310344828" cy="87.79527559055117" r="4" fill="#6b63ff" class="data-point" style="animation-delay: 2.55s" />
    <circle cx="598.6206896551724" cy="87.79527559055117" r="4" fill="#6b63ff" class="data-point" style="animation-delay: 2.60s" />
    <circle cx="623.1034482758621" cy="86.61417322834643" r="4" fill="#6b63ff" class="data-point" style="animation-delay: 2.65s" />
    <circle cx="647.5862068965517" cy="85.43307086614175" r="4" fill="#6b63ff" class="data-point" style="animation-delay: 2.70s" />
    <circle cx="672.0689655172414" cy="84.25196850393701" r="4" fill="#6b63ff" class="data-point" style="animation-delay: 2.75s" />
    <circle cx="696.551724137931" cy="81.88976377952758" r="4" fill="#6b63ff" class="data-point" style="animation-delay: 2.80s" />
    <circle cx="721.0344827586207" cy="80.70866141732284" r="4" fill="#6b63ff" class="data-point" style="animation-delay: 2.85s" />
    <circle cx="745.5172413793103" cy="78.34645669291342" r="4" fill="#6b63ff" class="data-point" style="animation-delay: 2.90s" />
    <circle cx="770" cy="77.16535433070862" r="4" fill="#6b63ff" class="data-point" style="animation-delay: 2.95s" />
  </g>
</svg>