<svg xmlns="http://www.w3.org/2000/svg" viewBox="0 0 800 400" width="800" height="400">
  <style>
    @keyframes drawLine {
      to { stroke-dashoffset: 0; }
    }
    @keyframes fadeInPoint {
      from { opacity: 0; }
      to { opacity: 1; }
    }
    .data-line-0 {
      stroke-dasharray: 1246;
      stroke-dashoffset: 1246;
      animation: drawLine 2s ease-out forwards;
    }
    .data-point {
      opacity: 0;
      animation: fadeInPoint 0.5s ease-out forwards;
    }
    .chart-bg { fill: #fff; }
    .chart-text { fill: #24292e; }
    .chart-muted { fill: #6a737d; }
    .chart-grid { stroke: #eee; }
    .chart-axis { stroke: #6a737d; }
    @media (prefers-color-scheme: dark) {
      .chart-bg { fill: #0d1117; }
      .chart-text { fill: #e6edf3; }
      .chart-muted { fill: #8b949e; }
      .chart-grid { stroke: #21262d; }
      .chart-axis { stroke: #8b949e; }
    }
  </style>
  <rect width="800" height="400" class="chart-bg" />
  <text x="400" y="34" text-anchor="middle" class="chart-text" font-size="16" font-weight="bold" font-family="-apple-system, BlinkMacSystemFont, 'Segoe UI', Helvetica, Arial, sans-serif">dockur/windows Star History</text>
  
  <g class="grid">
    <line x1="60" y1="350" x2="770" y2="350" class="chart-grid" stroke-opacity="0.3" />
    <text x="778" y="354" text-anchor="start" class="chart-muted" font-size="11" font-family="-apple-system, BlinkMacSystemFont, 'Segoe UI', Helvetica, Arial, sans-serif">0</text>
    <line x1="60" y1="297.3351590478197" x2="770" y2="297.3351590478197" class="chart-grid" stroke-opacity="0.3" />
    <text x="778" y="301.3351590478197" text-anchor="start" class="chart-muted" font-size="11" font-family="-apple-system, BlinkMacSystemFont, 'Segoe UI', Helvetica, Arial, sans-serif">10,000</text>
    <line x1="60" y1="244.67031809563935" x2="770" y2="244.67031809563935" class="chart-grid" stroke-opacity="0.3" />
    <text x="778" y="248.67031809563935" text-anchor="start" class="chart-muted" font-size="11" font-family="-apple-system, BlinkMacSystemFont, 'Segoe UI', Helvetica, Arial, sans-serif">20,000</text>
    <line x1="60" y1="192.00547714345902" x2="770" y2="192.00547714345902" class="chart-grid" stroke-opacity="0.3" />
    <text x="778" y="196.00547714345902" text-anchor="start" class="chart-muted" font-size="11" font-family="-apple-system, BlinkMacSystemFont, 'Segoe UI', Helvetica, Arial, sans-serif">30,000</text>
    <line x1="60" y1="139.34063619127872" x2="770" y2="139.34063619127872" class="chart-grid" stroke-opacity="0.3" />
    <text x="778" y="143.34063619127872" text-anchor="start" class="chart-muted" font-size="11" font-family="-apple-system, BlinkMacSystemFont, 'Segoe UI', Helvetica, Arial, sans-serif">40,000</text>
    <line x1="60" y1="86.67579523909836" x2="770" y2="86.67579523909836" class="chart-grid" stroke-opacity="0.3" />
    <text x="778" y="90.67579523909836" text-anchor="start" class="chart-muted" font-size="11" font-family="-apple-system, BlinkMacSystemFont, 'Segoe UI', Helvetica, Arial, sans-serif">50,000</text>
    <line x1="60" y1="34.010954286918036" x2="770" y2="34.010954286918036" class="chart-grid" stroke-opacity="0.3" />
    <text x="778" y="38.010954286918036" text-anchor="start" class="chart-muted" font-size="11" font-family="-apple-system, BlinkMacSystemFont, 'Segoe UI', Helvetica, Arial, sans-serif">60,000</text>
  </g>
  <g class="milestones">
    
  </g>
  <g class="x-axis">
    <text x="60" y="370" text-anchor="middle" class="chart-muted" font-size="11" font-family="-apple-system, BlinkMacSystemFont, 'Segoe UI', Helvetica, Arial, sans-serif">2024</text>
    <text x="353.7931034482759" y="370" text-anchor="middle" class="chart-muted" font-size="11" font-family="-apple-system, BlinkMacSystemFont, 'Segoe UI', Helvetica, Arial, sans-serif">2025</text>
    <text x="647.5862068965517" y="370" text-anchor="middle" class="chart-muted" font-size="11" font-family="-apple-system, BlinkMacSystemFont, 'Segoe UI', Helvetica, Arial, sans-serif">2026</text>
  </g>
  <line x1="770" y1="50" x2="770" y2="350" class="chart-axis" stroke-width="1" />
  <line x1="60" y1="350" x2="770" y2="350" class="chart-axis" stroke-width="1" />
  <path d="M60,349.91046977038127 L84.48275862068965,340.91004845165367 L108.9655172413793,295.45502422582683 L133.44827586206895,268.17990309669267 L157.9310344827586,259.08995154834633 L182.41379310344828,249.99473351590478 L206.89655172413794,246.087002317253 L231.3793103448276,240.90478196755845 L255.86206896551724,240.90478196755845 L280.34482758620686,231.81483041921211 L304.82758620689657,159.0846850642511 L329.3103448275862,149.99473351590478 L353.7931034482759,140.90478196755845 L378.2758620689655,131.80956393511693 L402.7586206896552,131.80956393511693 L427.2413793103448,122.71961238677059 L451.7241379310345,118.44849378554875 L476.2068965517241,113.62966083842426 L500.6896551724138,113.62966083842426 L525.1724137931035,104.53970929007795 L549.6551724137931,77.26458816094379 L574.1379310344828,77.26458816094379 L598.6206896551724,77.26458816094379 L623.1034482758621,77.26458816094379 L647.5862068965517,77.26458816094379 L672.0689655172414,77.26458816094379 L696.551724137931,77.26458816094379 L721.0344827586207,77.26458816094379 L745.5172413793103,77.26458816094379 L770,77.26458816094379 L770,350 L60,350 Z" fill="#6b63ff" fill-opacity="0.1" />
  <path d="M60,349.91046977038127 L84.48275862068965,340.91004845165367 L108.9655172413793,295.45502422582683 L133.44827586206895,268.17990309669267 L157.9310344827586,259.08995154834633 L182.41379310344828,249.99473351590478 L206.89655172413794,246.087002317253 L231.3793103448276,240.90478196755845 L255.86206896551724,240.90478196755845 L280.34482758620686,231.81483041921211 L304.82758620689657,159.0846850642511 L329.3103448275862,149.99473351590478 L353.7931034482759,140.90478196755845 L378.2758620689655,131.80956393511693 L402.7586206896552,131.80956393511693 L427.2413793103448,122.71961238677059 L451.7241379310345,118.44849378554875 L476.2068965517241,113.62966083842426 L500.6896551724138,113.62966083842426 L525.1724137931035,104.53970929007795 L549.6551724137931,77.26458816094379 L574.1379310344828,77.26458816094379 L598.6206896551724,77.26458816094379 L623.1034482758621,77.26458816094379 L647.5862068965517,77.26458816094379 L672.0689655172414,77.26458816094379 L696.551724137931,77.26458816094379 L721.0344827586207,77.26458816094379 L745.5172413793103,77.26458816094379 L770,77.26458816094379" fill="none" stroke="#6b63ff" stroke-width="2" class="data-line-0" />
  <g class="points">
    
    <circle cx="60" cy="349.91046977038127" r="4" fill="#6b63ff" class="data-point" style="animation-delay: 1.50s" />
    <circle cx="84.48275862068965" cy="340.91004845165367" r="4" fill="#6b63ff" class="data-point" style="animation-delay: 1.55s" />
    <circle cx="108.9655172413793" cy="295.45502422582683" r="4" fill="#6b63ff" class="data-point" style="animation-delay: 1.60s" />
    <circle cx="133.44827586206895" cy="268.17990309669267" r="4" fill="#6b63ff" class="data-point" style="animation-delay: 1.65s" />
    <circle cx="157.9310344827586" cy="259.08995154834633" r="4" fill="#6b63ff" class="data-point" style="animation-delay: 1.70s" />
    <circle cx="182.41379310344828" cy="249.99473351590478" r="4" fill="#6b63ff" class="data-point" style="animation-delay: 1.75s" />
    <circle cx="206.89655172413794" cy="246.087002317253" r="4" fill="#6b63ff" class="data-point" style="animation-delay: 1.80s" />
    <circle cx="231.3793103448276" cy="240.90478196755845" r="4" fill="#6b63ff" class="data-point" style="animation-delay: 1.85s" />
    <circle cx="255.86206896551724" cy="240.90478196755845" r="4" fill="#6b63ff" class="data-point" style="animation-delay: 1.90s" />
    <circle cx="280.34482758620686" cy="231.81483041921211" r="4" fill="#6b63ff" class="data-point" style="animation-delay: 1.95s" />
    <circle cx="304.82758620689657" cy="159.0846850642511" r="4" fill="#6b63ff" class="data-point" style="animation-delay: 2.00s" />
    <circle cx="329.3103448275862" cy="149.99473351590478" r="4" fill="#6b63ff" class="data-point" style="animation-delay: 2.05s" />
    <circle cx="353.7931034482759" cy="140.90478196755845" r="4" fill="#6b63ff" class="data-point" style="animation-delay: 2.10s" />
    <circle cx="378.2758620689655" cy="131.80956393511693" r="4" fill="#6b63ff" class="data-point" style="animation-delay: 2.15s" />
    <circle cx="402.7586206896552" cy="131.80956393511693" r="4" fill="#6b63ff" class="data-point" style="animation-delay: 2.20s" />
    <circle cx="427.2413793103448" cy="122.71961238677059" r="4" fill="#6b63ff" class="data-point" style="animation-delay: 2.25s" />
    <circle cx="451.7241379310345" cy="118.44849378554875" r="4" fill="#6b63ff" class="data-point" style="animation-delay: 2.30s" />
    <circle cx="476.2068965517241" cy="113.62966083842426" r="4" fill="#6b63ff" class="data-point" style="animation-delay: 2.35s" />
    <circle cx="500.6896551724138" cy="113.62966083842426" r="4" fill="#6b63ff" class="data-point" style="animation-delay: 2.40s" />
    <circle cx="525.1724137931035" cy="104.53970929007795" r="4" fill="#6b63ff" class="data-point" style="animation-delay: 2.45s" />
    <circle cx="549.6551724137931" cy="77.26458816094379" r="4" fill="#6b63ff" class="data-point" style="animation-delay: 2.50s" />
    <circle cx="574.1379310344828" cy="77.26458816094379" r="4" fill="#6b63ff" class="data-point" style="animation-delay: 2.55s" />
    <circle cx="598.6206896551724" cy="77.26458816094379" r="4" fill="#6b63ff" class="data-point" style="animation-delay: 2.60s" />
    <circle cx="623.1034482758621" cy="77.26458816094379" r="4" fill="#6b63ff" class="data-point" style="animation-delay: 2.65s" />
    <circle cx="647.5862068965517" cy="77.26458816094379" r="4" fill="#6b63ff" class="data-point" style="animation-delay: 2.70s" />
    <circle cx="672.0689655172414" cy="77.26458816094379" r="4" fill="#6b63ff" class="data-point" style="animation-delay: 2.75s" />
    <circle cx="696.551724137931" cy="77.26458816094379" r="4" fill="#6b63ff" class="data-point" style="animation-delay: 2.80s" />
    <circle cx="721.0344827586207" cy="77.26458816094379" r="4" fill="#6b63ff" class="data-point" style="animation-delay: 2.85s" />
    <circle cx="745.5172413793103" cy="77.26458816094379" r="4" fill="#6b63ff" class="data-point" style="animation-delay: 2.90s" />
    <circle cx="770" cy="77.26458816094379" r="4" fill="#6b63ff" class="data-point" style="animation-delay: 2.95s" />
  </g>
</svg>