<svg xmlns="http://www.w3.org/2000/svg" viewBox="0 0 800 400" width="800" height="400">
  <style>
    @keyframes drawLine {
      to { stroke-dashoffset: 0; }
    }
    @keyframes fadeInPoint {
      from { opacity: 0; }
      to { opacity: 1; }
    }
    .data-line-0 {
      stroke-dasharray: 1199;
      stroke-dashoffset: 1199;
      animation: drawLine 2s ease-out forwards;
    }
    .data-point {
      opacity: 0;
      animation: fadeInPoint 0.5s ease-out forwards;
    }
    .chart-bg { fill: #fff; }
    .chart-text { fill: #24292e; }
    .chart-muted { fill: #6a737d; }
    .chart-grid { stroke: #eee; }
    .chart-axis { stroke: #6a737d; }
    @media (prefers-color-scheme: dark) {
      .chart-bg { fill: #0d1117; }
      .chart-text { fill: #e6edf3; }
      .chart-muted { fill: #8b949e; }
      .chart-grid { stroke: #21262d; }
      .chart-axis { stroke: #8b949e; }
    }
  </style>
  <rect width="800" height="400" class="chart-bg" />
  <text x="400" y="34" text-anchor="middle" class="chart-text" font-size="16" font-weight="bold" font-family="-apple-system, BlinkMacSystemFont, 'Segoe UI', Helvetica, Arial, sans-serif">dockur/windows Star History</text>
  
  <g class="grid">
    <line x1="60" y1="350" x2="770" y2="350" class="chart-grid" stroke-opacity="0.3" />
    <text x="778" y="354" text-anchor="start" class="chart-muted" font-size="11" font-family="-apple-system, BlinkMacSystemFont, 'Segoe UI', Helvetica, Arial, sans-serif">0</text>
    <line x1="60" y1="297.35733838702885" x2="770" y2="297.35733838702885" class="chart-grid" stroke-opacity="0.3" />
    <text x="778" y="301.35733838702885" text-anchor="start" class="chart-muted" font-size="11" font-family="-apple-system, BlinkMacSystemFont, 'Segoe UI', Helvetica, Arial, sans-serif">10K</text>
    <line x1="60" y1="244.7146767740577" x2="770" y2="244.7146767740577" class="chart-grid" stroke-opacity="0.3" />
    <text x="778" y="248.7146767740577" text-anchor="start" class="chart-muted" font-size="11" font-family="-apple-system, BlinkMacSystemFont, 'Segoe UI', Helvetica, Arial, sans-serif">20K</text>
    <line x1="60" y1="192.07201516108654" x2="770" y2="192.07201516108654" class="chart-grid" stroke-opacity="0.3" />
    <text x="778" y="196.07201516108654" text-anchor="start" class="chart-muted" font-size="11" font-family="-apple-system, BlinkMacSystemFont, 'Segoe UI', Helvetica, Arial, sans-serif">30K</text>
    <line x1="60" y1="139.4293535481154" x2="770" y2="139.4293535481154" class="chart-grid" stroke-opacity="0.3" />
    <text x="778" y="143.4293535481154" text-anchor="start" class="chart-muted" font-size="11" font-family="-apple-system, BlinkMacSystemFont, 'Segoe UI', Helvetica, Arial, sans-serif">40K</text>
    <line x1="60" y1="86.78669193514423" x2="770" y2="86.78669193514423" class="chart-grid" stroke-opacity="0.3" />
    <text x="778" y="90.78669193514423" text-anchor="start" class="chart-muted" font-size="11" font-family="-apple-system, BlinkMacSystemFont, 'Segoe UI', Helvetica, Arial, sans-serif">50K</text>
    <line x1="60" y1="34.14403032217308" x2="770" y2="34.14403032217308" class="chart-grid" stroke-opacity="0.3" />
    <text x="778" y="38.14403032217308" text-anchor="start" class="chart-muted" font-size="11" font-family="-apple-system, BlinkMacSystemFont, 'Segoe UI', Helvetica, Arial, sans-serif">60K</text>
  </g>
  <g class="milestones">
    
  </g>
  <g class="x-axis">
    <text x="60" y="370" text-anchor="middle" class="chart-muted" font-size="11" font-family="-apple-system, BlinkMacSystemFont, 'Segoe UI', Helvetica, Arial, sans-serif">2024</text>
    <text x="353.7931034482759" y="370" text-anchor="middle" class="chart-muted" font-size="11" font-family="-apple-system, BlinkMacSystemFont, 'Segoe UI', Helvetica, Arial, sans-serif">2025</text>
    <text x="647.5862068965517" y="370" text-anchor="middle" class="chart-muted" font-size="11" font-family="-apple-system, BlinkMacSystemFont, 'Segoe UI', Helvetica, Arial, sans-serif">2026</text>
  </g>
  <line x1="770" y1="50" x2="770" y2="350" class="chart-axis" stroke-width="1" />
  <line x1="60" y1="350" x2="770" y2="350" class="chart-axis" stroke-width="1" />
  <path d="M60,350 L60,349.93156453990315 C63.264367816091955,349.00505369551485 77.95402298850574,348.58882571769493 84.48275862068965,342.98273320699093 C91.01149425287356,337.3766406962869 102.43678160919539,315.37306099529724 108.9655172413793,307.8858707096231 C115.49425287356321,300.3986804239489 126.91954022988504,290.5720502561943 133.44827586206895,286.8288060644346 C139.97701149425285,283.08556187267493 151.40229885057468,281.6835123183828 157.9310344827586,279.81153927142554 C164.45977011494253,277.9395662244683 175.88505747126436,274.14648697971506 182.41379310344828,272.7890082122552 C188.9425287356322,271.4315294447954 200.36781609195404,270.56608408787815 206.89655172413794,269.6304485154769 C213.42528735632183,268.6948129430757 224.8505747126437,266.2862356987436 231.3793103448276,265.77174141924615 C237.90804597701148,265.77174141924615 249.33333333333334,265.77174141924615 255.86206896551724,265.77174141924615 C262.39080459770116,264.83610584684493 273.81609195402297,265.77174141924615 280.34482758620686,258.7544746262371 C286.87356321839076,250.3316487681617 298.2988505747127,211.02337334175616 304.82758620689657,202.60054748368077 C311.35632183908046,195.5832806906717 322.7816091954023,197.45525373762896 329.3103448275862,195.5832806906717 C335.8390804597701,193.71130764371443 347.264367816092,190.43272267845865 353.7931034482759,188.56074963150138 C360.32183908045977,186.68877658454412 371.7471264367816,182.4791184108935 378.2758620689655,181.5434828384923 C384.8045977011494,181.5434828384923 396.2298850574713,181.5434828384923 402.7586206896552,181.5434828384923 C409.28735632183907,180.6078472660911 420.71264367816093,175.96722116936897 427.2413793103448,174.52621604548324 C433.7701149425287,173.0852109215975 445.1954022988506,171.67228188390538 451.7241379310345,170.73594440934934 C458.2528735632184,169.7996069347933 469.67816091954023,167.95290236541027 476.2068965517241,167.50368498631292 C482.735632183908,167.3668140661192 494.1609195402299,167.50368498631292 500.6896551724138,167.3668140661192 C507.2183908045977,166.431178493718 518.6436781609195,164.2114129290377 525.1724137931035,160.48641819330385 C531.7011494252874,156.76142345757 543.1264367816092,143.15785779462342 549.6551724137931,139.4293535481154 C556.1839080459771,135.70084930160735 567.6091954022988,134.36442759879273 574.1379310344828,132.52263634449358 C580.6666666666667,130.68084509019442 592.0919540229885,127.45771039517092 598.6206896551724,125.61591914087177 C605.1494252873564,123.77412788657261 616.5747126436781,120.55099319154908 623.1034482758621,118.70920193724993 C629.632183908046,116.86741068295078 641.0574712643678,113.6442759879273 647.5862068965517,111.80248473362815 C654.1149425287357,109.960693479329 665.5402298850574,106.73755878430546 672.0689655172414,104.89576753000631 C678.5977011494253,103.05397627570716 690.0229885057471,99.83084158068365 696.551724137931,97.9890503263845 C703.080459770115,96.14725907208535 714.5057471264367,92.92412437706184 721.0344827586207,91.08233312276269 C727.5632183908046,89.24054186846354 738.9885057471264,86.01740717344 745.5172413793103,84.17561591914085 C752.0459770114943,82.3338246648417 766.735632183908,78.18979434266865 770,77.26889871551907 L770,350 L60,350 Z" fill="#6b63ff" fill-opacity="0.1" />
  <path d="M60,350 L60,349.93156453990315 C63.264367816091955,349.00505369551485 77.95402298850574,348.58882571769493 84.48275862068965,342.98273320699093 C91.01149425287356,337.3766406962869 102.43678160919539,315.37306099529724 108.9655172413793,307.8858707096231 C115.49425287356321,300.3986804239489 126.91954022988504,290.5720502561943 133.44827586206895,286.8288060644346 C139.97701149425285,283.08556187267493 151.40229885057468,281.6835123183828 157.9310344827586,279.81153927142554 C164.45977011494253,277.9395662244683 175.88505747126436,274.14648697971506 182.41379310344828,272.7890082122552 C188.9425287356322,271.4315294447954 200.36781609195404,270.56608408787815 206.89655172413794,269.6304485154769 C213.42528735632183,268.6948129430757 224.8505747126437,266.2862356987436 231.3793103448276,265.77174141924615 C237.90804597701148,265.77174141924615 249.33333333333334,265.77174141924615 255.86206896551724,265.77174141924615 C262.39080459770116,264.83610584684493 273.81609195402297,265.77174141924615 280.34482758620686,258.7544746262371 C286.87356321839076,250.3316487681617 298.2988505747127,211.02337334175616 304.82758620689657,202.60054748368077 C311.35632183908046,195.5832806906717 322.7816091954023,197.45525373762896 329.3103448275862,195.5832806906717 C335.8390804597701,193.71130764371443 347.264367816092,190.43272267845865 353.7931034482759,188.56074963150138 C360.32183908045977,186.68877658454412 371.7471264367816,182.4791184108935 378.2758620689655,181.5434828384923 C384.8045977011494,181.5434828384923 396.2298850574713,181.5434828384923 402.7586206896552,181.5434828384923 C409.28735632183907,180.6078472660911 420.71264367816093,175.96722116936897 427.2413793103448,174.52621604548324 C433.7701149425287,173.0852109215975 445.1954022988506,171.67228188390538 451.7241379310345,170.73594440934934 C458.2528735632184,169.7996069347933 469.67816091954023,167.95290236541027 476.2068965517241,167.50368498631292 C482.735632183908,167.3668140661192 494.1609195402299,167.50368498631292 500.6896551724138,167.3668140661192 C507.2183908045977,166.431178493718 518.6436781609195,164.2114129290377 525.1724137931035,160.48641819330385 C531.7011494252874,156.76142345757 543.1264367816092,143.15785779462342 549.6551724137931,139.4293535481154 C556.1839080459771,135.70084930160735 567.6091954022988,134.36442759879273 574.1379310344828,132.52263634449358 C580.6666666666667,130.68084509019442 592.0919540229885,127.45771039517092 598.6206896551724,125.61591914087177 C605.1494252873564,123.77412788657261 616.5747126436781,120.55099319154908 623.1034482758621,118.70920193724993 C629.632183908046,116.86741068295078 641.0574712643678,113.6442759879273 647.5862068965517,111.80248473362815 C654.1149425287357,109.960693479329 665.5402298850574,106.73755878430546 672.0689655172414,104.89576753000631 C678.5977011494253,103.05397627570716 690.0229885057471,99.83084158068365 696.551724137931,97.9890503263845 C703.080459770115,96.14725907208535 714.5057471264367,92.92412437706184 721.0344827586207,91.08233312276269 C727.5632183908046,89.24054186846354 738.9885057471264,86.01740717344 745.5172413793103,84.17561591914085 C752.0459770114943,82.3338246648417 766.735632183908,78.18979434266865 770,77.26889871551907" fill="none" stroke="#6b63ff" stroke-width="2.5" class="data-line-0" />
  <g class="points">
    
    <circle cx="60" cy="349.93156453990315" r="4" fill="#6b63ff" class="data-point" style="animation-delay: 1.50s" />
    <circle cx="84.48275862068965" cy="342.98273320699093" r="4" fill="#6b63ff" class="data-point" style="animation-delay: 1.55s" />
    <circle cx="108.9655172413793" cy="307.8858707096231" r="4" fill="#6b63ff" class="data-point" style="animation-delay: 1.60s" />
    <circle cx="133.44827586206895" cy="286.8288060644346" r="4" fill="#6b63ff" class="data-point" style="animation-delay: 1.65s" />
    <circle cx="157.9310344827586" cy="279.81153927142554" r="4" fill="#6b63ff" class="data-point" style="animation-delay: 1.70s" />
    <circle cx="182.41379310344828" cy="272.7890082122552" r="4" fill="#6b63ff" class="data-point" style="animation-delay: 1.75s" />
    <circle cx="206.89655172413794" cy="269.6304485154769" r="4" fill="#6b63ff" class="data-point" style="animation-delay: 1.80s" />
    <circle cx="231.3793103448276" cy="265.77174141924615" r="4" fill="#6b63ff" class="data-point" style="animation-delay: 1.85s" />
    <circle cx="255.86206896551724" cy="265.77174141924615" r="4" fill="#6b63ff" class="data-point" style="animation-delay: 1.90s" />
    <circle cx="280.34482758620686" cy="258.7544746262371" r="4" fill="#6b63ff" class="data-point" style="animation-delay: 1.95s" />
    <circle cx="304.82758620689657" cy="202.60054748368077" r="4" fill="#6b63ff" class="data-point" style="animation-delay: 2.00s" />
    <circle cx="329.3103448275862" cy="195.5832806906717" r="4" fill="#6b63ff" class="data-point" style="animation-delay: 2.05s" />
    <circle cx="353.7931034482759" cy="188.56074963150138" r="4" fill="#6b63ff" class="data-point" style="animation-delay: 2.10s" />
    <circle cx="378.2758620689655" cy="181.5434828384923" r="4" fill="#6b63ff" class="data-point" style="animation-delay: 2.15s" />
    <circle cx="402.7586206896552" cy="181.5434828384923" r="4" fill="#6b63ff" class="data-point" style="animation-delay: 2.20s" />
    <circle cx="427.2413793103448" cy="174.52621604548324" r="4" fill="#6b63ff" class="data-point" style="animation-delay: 2.25s" />
    <circle cx="451.7241379310345" cy="170.73594440934934" r="4" fill="#6b63ff" class="data-point" style="animation-delay: 2.30s" />
    <circle cx="476.2068965517241" cy="167.50368498631292" r="4" fill="#6b63ff" class="data-point" style="animation-delay: 2.35s" />
    <circle cx="500.6896551724138" cy="167.3668140661192" r="4" fill="#6b63ff" class="data-point" style="animation-delay: 2.40s" />
    <circle cx="525.1724137931035" cy="160.48641819330385" r="4" fill="#6b63ff" class="data-point" style="animation-delay: 2.45s" />
    <circle cx="549.6551724137931" cy="139.4293535481154" r="4" fill="#6b63ff" class="data-point" style="animation-delay: 2.50s" />
    <circle cx="574.1379310344828" cy="132.52263634449358" r="4" fill="#6b63ff" class="data-point" style="animation-delay: 2.55s" />
    <circle cx="598.6206896551724" cy="125.61591914087177" r="4" fill="#6b63ff" class="data-point" style="animation-delay: 2.60s" />
    <circle cx="623.1034482758621" cy="118.70920193724993" r="4" fill="#6b63ff" class="data-point" style="animation-delay: 2.65s" />
    <circle cx="647.5862068965517" cy="111.80248473362815" r="4" fill="#6b63ff" class="data-point" style="animation-delay: 2.70s" />
    <circle cx="672.0689655172414" cy="104.89576753000631" r="4" fill="#6b63ff" class="data-point" style="animation-delay: 2.75s" />
    <circle cx="696.551724137931" cy="97.9890503263845" r="4" fill="#6b63ff" class="data-point" style="animation-delay: 2.80s" />
    <circle cx="721.0344827586207" cy="91.08233312276269" r="4" fill="#6b63ff" class="data-point" style="animation-delay: 2.85s" />
    <circle cx="745.5172413793103" cy="84.17561591914085" r="4" fill="#6b63ff" class="data-point" style="animation-delay: 2.90s" />
    <circle cx="770" cy="77.26889871551907" r="4" fill="#6b63ff" class="data-point" style="animation-delay: 2.95s" />
  </g>
</svg>