<svg xmlns="http://www.w3.org/2000/svg" viewBox="0 0 800 400" width="800" height="400">
  <style>
    @keyframes drawLine {
      to { stroke-dashoffset: 0; }
    }
    @keyframes fadeInPoint {
      from { opacity: 0; }
      to { opacity: 1; }
    }
    .data-line-0 {
      stroke-dasharray: 1159;
      stroke-dashoffset: 1159;
      animation: drawLine 2s ease-out forwards;
    }
    .data-point {
      opacity: 0;
      animation: fadeInPoint 0.5s ease-out forwards;
    }
    .chart-bg { fill: #fff; }
    .chart-text { fill: #24292e; }
    .chart-muted { fill: #6a737d; }
    .chart-grid { stroke: #eee; }
    .chart-axis { stroke: #6a737d; }
    @media (prefers-color-scheme: dark) {
      .chart-bg { fill: #0d1117; }
      .chart-text { fill: #e6edf3; }
      .chart-muted { fill: #8b949e; }
      .chart-grid { stroke: #21262d; }
      .chart-axis { stroke: #8b949e; }
    }
  </style>
  <rect width="800" height="400" class="chart-bg" />
  <text x="400" y="14" text-anchor="middle" class="chart-text" font-size="16" font-weight="bold" font-family="-apple-system, BlinkMacSystemFont, 'Segoe UI', Helvetica, Arial, sans-serif">dockur/casa Star History</text>
  
  <g class="grid">
    <line x1="60" y1="350" x2="770" y2="350" class="chart-grid" stroke-opacity="0.3" />
    <text x="778" y="354" text-anchor="start" class="chart-muted" font-size="11" font-family="-apple-system, BlinkMacSystemFont, 'Segoe UI', Helvetica, Arial, sans-serif">0</text>
    <line x1="60" y1="290" x2="770" y2="290" class="chart-grid" stroke-opacity="0.3" />
    <text x="778" y="294" text-anchor="start" class="chart-muted" font-size="11" font-family="-apple-system, BlinkMacSystemFont, 'Segoe UI', Helvetica, Arial, sans-serif">50</text>
    <line x1="60" y1="230" x2="770" y2="230" class="chart-grid" stroke-opacity="0.3" />
    <text x="778" y="234" text-anchor="start" class="chart-muted" font-size="11" font-family="-apple-system, BlinkMacSystemFont, 'Segoe UI', Helvetica, Arial, sans-serif">100</text>
    <line x1="60" y1="170" x2="770" y2="170" class="chart-grid" stroke-opacity="0.3" />
    <text x="778" y="174" text-anchor="start" class="chart-muted" font-size="11" font-family="-apple-system, BlinkMacSystemFont, 'Segoe UI', Helvetica, Arial, sans-serif">150</text>
    <line x1="60" y1="110" x2="770" y2="110" class="chart-grid" stroke-opacity="0.3" />
    <text x="778" y="114" text-anchor="start" class="chart-muted" font-size="11" font-family="-apple-system, BlinkMacSystemFont, 'Segoe UI', Helvetica, Arial, sans-serif">200</text>
    <line x1="60" y1="50" x2="770" y2="50" class="chart-grid" stroke-opacity="0.3" />
    <text x="778" y="54" text-anchor="start" class="chart-muted" font-size="11" font-family="-apple-system, BlinkMacSystemFont, 'Segoe UI', Helvetica, Arial, sans-serif">250</text>
  </g>
  <g class="milestones">
    
  </g>
  <g class="x-axis">
    <text x="60" y="370" text-anchor="middle" class="chart-muted" font-size="11" font-family="-apple-system, BlinkMacSystemFont, 'Segoe UI', Helvetica, Arial, sans-serif">2024</text>
    <text x="133.44827586206895" y="370" text-anchor="middle" class="chart-muted" font-size="11" font-family="-apple-system, BlinkMacSystemFont, 'Segoe UI', Helvetica, Arial, sans-serif">2025</text>
    <text x="574.1379310344828" y="370" text-anchor="middle" class="chart-muted" font-size="11" font-family="-apple-system, BlinkMacSystemFont, 'Segoe UI', Helvetica, Arial, sans-serif">2026</text>
  </g>
  <line x1="770" y1="50" x2="770" y2="350" class="chart-axis" stroke-width="1" />
  <line x1="60" y1="350" x2="770" y2="350" class="chart-axis" stroke-width="1" />
  <path d="M60,350 L60,348.8 C63.264367816091955,346.24 77.95402298850574,332.8 84.48275862068965,329.6 C91.01149425287356,326.40000000000003 102.43678160919539,326.88 108.9655172413793,324.8 C115.49425287356321,322.72 126.91954022988504,316.4 133.44827586206895,314 C139.97701149425285,311.6 151.40229885057468,308.88 157.9310344827586,306.8 C164.45977011494253,304.72 175.88505747126436,300.47999999999996 182.41379310344828,298.4 C188.9425287356322,296.32 200.36781609195404,293.28 206.89655172413794,291.2 C213.42528735632183,289.12 224.8505747126437,285.04 231.3793103448276,282.8 C237.90804597701148,280.56 249.33333333333334,276.47999999999996 255.86206896551724,274.4 C262.39080459770116,272.32 273.81609195402297,269.12 280.34482758620686,267.2 C286.87356321839076,265.28 298.2988505747127,261.44 304.82758620689657,260 C311.35632183908046,258.56 322.7816091954023,258.15999999999997 329.3103448275862,256.4 C335.8390804597701,254.64 347.264367816092,249.20000000000002 353.7931034482759,246.8 C360.32183908045977,244.4 371.7471264367816,241.28 378.2758620689655,238.4 C384.8045977011494,235.52 396.2298850574713,227.6 402.7586206896552,225.2 C409.28735632183907,222.79999999999998 420.71264367816093,222.64000000000001 427.2413793103448,220.4 C433.7701149425287,218.16 445.1954022988506,211.28 451.7241379310345,208.4 C458.2528735632184,205.52 469.67816091954023,201.04000000000002 476.2068965517241,198.8 C482.735632183908,196.56 494.1609195402299,193.35999999999999 500.6896551724138,191.6 C507.2183908045977,189.84 518.6436781609195,191.6 525.1724137931035,185.6 C531.7011494252874,179.35999999999999 543.1264367816092,151.04 549.6551724137931,144.79999999999998 C556.1839080459771,138.8 567.6091954022988,141.52 574.1379310344828,138.8 C580.6666666666667,136.08 592.0919540229885,126.96000000000001 598.6206896551724,124.4 C605.1494252873564,121.84 616.5747126436781,120.56 623.1034482758621,119.6 C629.632183908046,118.63999999999999 641.0574712643678,117.99999999999999 647.5862068965517,117.19999999999999 C654.1149425287357,116.39999999999999 665.5402298850574,114.39999999999999 672.0689655172414,113.6 C678.5977011494253,112.8 690.0229885057471,112.16 696.551724137931,111.19999999999999 C703.080459770115,110.23999999999998 714.5057471264367,107.67999999999998 721.0344827586207,106.39999999999998 C727.5632183908046,105.11999999999998 738.9885057471264,102.88000000000002 745.5172413793103,101.60000000000002 C752.0459770114943,100.32000000000002 766.735632183908,97.44000000000001 770,96.80000000000001 L770,350 L60,350 Z" fill="#6b63ff" fill-opacity="0.1" />
  <path d="M60,350 L60,348.8 C63.264367816091955,346.24 77.95402298850574,332.8 84.48275862068965,329.6 C91.01149425287356,326.40000000000003 102.43678160919539,326.88 108.9655172413793,324.8 C115.49425287356321,322.72 126.91954022988504,316.4 133.44827586206895,314 C139.97701149425285,311.6 151.40229885057468,308.88 157.9310344827586,306.8 C164.45977011494253,304.72 175.88505747126436,300.47999999999996 182.41379310344828,298.4 C188.9425287356322,296.32 200.36781609195404,293.28 206.89655172413794,291.2 C213.42528735632183,289.12 224.8505747126437,285.04 231.3793103448276,282.8 C237.90804597701148,280.56 249.33333333333334,276.47999999999996 255.86206896551724,274.4 C262.39080459770116,272.32 273.81609195402297,269.12 280.34482758620686,267.2 C286.87356321839076,265.28 298.2988505747127,261.44 304.82758620689657,260 C311.35632183908046,258.56 322.7816091954023,258.15999999999997 329.3103448275862,256.4 C335.8390804597701,254.64 347.264367816092,249.20000000000002 353.7931034482759,246.8 C360.32183908045977,244.4 371.7471264367816,241.28 378.2758620689655,238.4 C384.8045977011494,235.52 396.2298850574713,227.6 402.7586206896552,225.2 C409.28735632183907,222.79999999999998 420.71264367816093,222.64000000000001 427.2413793103448,220.4 C433.7701149425287,218.16 445.1954022988506,211.28 451.7241379310345,208.4 C458.2528735632184,205.52 469.67816091954023,201.04000000000002 476.2068965517241,198.8 C482.735632183908,196.56 494.1609195402299,193.35999999999999 500.6896551724138,191.6 C507.2183908045977,189.84 518.6436781609195,191.6 525.1724137931035,185.6 C531.7011494252874,179.35999999999999 543.1264367816092,151.04 549.6551724137931,144.79999999999998 C556.1839080459771,138.8 567.6091954022988,141.52 574.1379310344828,138.8 C580.6666666666667,136.08 592.0919540229885,126.96000000000001 598.6206896551724,124.4 C605.1494252873564,121.84 616.5747126436781,120.56 623.1034482758621,119.6 C629.632183908046,118.63999999999999 641.0574712643678,117.99999999999999 647.5862068965517,117.19999999999999 C654.1149425287357,116.39999999999999 665.5402298850574,114.39999999999999 672.0689655172414,113.6 C678.5977011494253,112.8 690.0229885057471,112.16 696.551724137931,111.19999999999999 C703.080459770115,110.23999999999998 714.5057471264367,107.67999999999998 721.0344827586207,106.39999999999998 C727.5632183908046,105.11999999999998 738.9885057471264,102.88000000000002 745.5172413793103,101.60000000000002 C752.0459770114943,100.32000000000002 766.735632183908,97.44000000000001 770,96.80000000000001" fill="none" stroke="#6b63ff" stroke-width="2.5" class="data-line-0" />
  <g class="points">
    
    <circle cx="60" cy="348.8" r="4" fill="#6b63ff" class="data-point" style="animation-delay: 1.50s" />
    <circle cx="84.48275862068965" cy="329.6" r="4" fill="#6b63ff" class="data-point" style="animation-delay: 1.55s" />
    <circle cx="108.9655172413793" cy="324.8" r="4" fill="#6b63ff" class="data-point" style="animation-delay: 1.60s" />
    <circle cx="133.44827586206895" cy="314" r="4" fill="#6b63ff" class="data-point" style="animation-delay: 1.65s" />
    <circle cx="157.9310344827586" cy="306.8" r="4" fill="#6b63ff" class="data-point" style="animation-delay: 1.70s" />
    <circle cx="182.41379310344828" cy="298.4" r="4" fill="#6b63ff" class="data-point" style="animation-delay: 1.75s" />
    <circle cx="206.89655172413794" cy="291.2" r="4" fill="#6b63ff" class="data-point" style="animation-delay: 1.80s" />
    <circle cx="231.3793103448276" cy="282.8" r="4" fill="#6b63ff" class="data-point" style="animation-delay: 1.85s" />
    <circle cx="255.86206896551724" cy="274.4" r="4" fill="#6b63ff" class="data-point" style="animation-delay: 1.90s" />
    <circle cx="280.34482758620686" cy="267.2" r="4" fill="#6b63ff" class="data-point" style="animation-delay: 1.95s" />
    <circle cx="304.82758620689657" cy="260" r="4" fill="#6b63ff" class="data-point" style="animation-delay: 2.00s" />
    <circle cx="329.3103448275862" cy="256.4" r="4" fill="#6b63ff" class="data-point" style="animation-delay: 2.05s" />
    <circle cx="353.7931034482759" cy="246.8" r="4" fill="#6b63ff" class="data-point" style="animation-delay: 2.10s" />
    <circle cx="378.2758620689655" cy="238.4" r="4" fill="#6b63ff" class="data-point" style="animation-delay: 2.15s" />
    <circle cx="402.7586206896552" cy="225.2" r="4" fill="#6b63ff" class="data-point" style="animation-delay: 2.20s" />
    <circle cx="427.2413793103448" cy="220.4" r="4" fill="#6b63ff" class="data-point" style="animation-delay: 2.25s" />
    <circle cx="451.7241379310345" cy="208.4" r="4" fill="#6b63ff" class="data-point" style="animation-delay: 2.30s" />
    <circle cx="476.2068965517241" cy="198.8" r="4" fill="#6b63ff" class="data-point" style="animation-delay: 2.35s" />
    <circle cx="500.6896551724138" cy="191.6" r="4" fill="#6b63ff" class="data-point" style="animation-delay: 2.40s" />
    <circle cx="525.1724137931035" cy="185.6" r="4" fill="#6b63ff" class="data-point" style="animation-delay: 2.45s" />
    <circle cx="549.6551724137931" cy="144.79999999999998" r="4" fill="#6b63ff" class="data-point" style="animation-delay: 2.50s" />
    <circle cx="574.1379310344828" cy="138.8" r="4" fill="#6b63ff" class="data-point" style="animation-delay: 2.55s" />
    <circle cx="598.6206896551724" cy="124.4" r="4" fill="#6b63ff" class="data-point" style="animation-delay: 2.60s" />
    <circle cx="623.1034482758621" cy="119.6" r="4" fill="#6b63ff" class="data-point" style="animation-delay: 2.65s" />
    <circle cx="647.5862068965517" cy="117.19999999999999" r="4" fill="#6b63ff" class="data-point" style="animation-delay: 2.70s" />
    <circle cx="672.0689655172414" cy="113.6" r="4" fill="#6b63ff" class="data-point" style="animation-delay: 2.75s" />
    <circle cx="696.551724137931" cy="111.19999999999999" r="4" fill="#6b63ff" class="data-point" style="animation-delay: 2.80s" />
    <circle cx="721.0344827586207" cy="106.39999999999998" r="4" fill="#6b63ff" class="data-point" style="animation-delay: 2.85s" />
    <circle cx="745.5172413793103" cy="101.60000000000002" r="4" fill="#6b63ff" class="data-point" style="animation-delay: 2.90s" />
    <circle cx="770" cy="96.80000000000001" r="4" fill="#6b63ff" class="data-point" style="animation-delay: 2.95s" />
  </g>
</svg>