<svg xmlns="http://www.w3.org/2000/svg" viewBox="0 0 800 400" width="800" height="400">
  <style>
    @keyframes drawLine {
      to { stroke-dashoffset: 0; }
    }
    @keyframes fadeInPoint {
      from { opacity: 0; }
      to { opacity: 1; }
    }
    .data-line-0 {
      stroke-dasharray: 1165;
      stroke-dashoffset: 1165;
      animation: drawLine 2s ease-out forwards;
    }
    .data-point {
      opacity: 0;
      animation: fadeInPoint 0.5s ease-out forwards;
    }
    .chart-bg { fill: #fff; }
    .chart-text { fill: #24292e; }
    .chart-muted { fill: #6a737d; }
    .chart-grid { stroke: #eee; }
    .chart-axis { stroke: #6a737d; }
    @media (prefers-color-scheme: dark) {
      .chart-bg { fill: #0d1117; }
      .chart-text { fill: #e6edf3; }
      .chart-muted { fill: #8b949e; }
      .chart-grid { stroke: #21262d; }
      .chart-axis { stroke: #8b949e; }
    }
  </style>
  <rect width="800" height="400" class="chart-bg" />
  <text x="400" y="14" text-anchor="middle" class="chart-text" font-size="16" font-weight="bold" font-family="-apple-system, BlinkMacSystemFont, 'Segoe UI', Helvetica, Arial, sans-serif">dockur/umbrel Star History</text>
  
  <g class="grid">
    <line x1="60" y1="350" x2="770" y2="350" class="chart-grid" stroke-opacity="0.3" />
    <text x="778" y="354" text-anchor="start" class="chart-muted" font-size="11" font-family="-apple-system, BlinkMacSystemFont, 'Segoe UI', Helvetica, Arial, sans-serif">0</text>
    <line x1="60" y1="280.8755760368664" x2="770" y2="280.8755760368664" class="chart-grid" stroke-opacity="0.3" />
    <text x="778" y="284.8755760368664" text-anchor="start" class="chart-muted" font-size="11" font-family="-apple-system, BlinkMacSystemFont, 'Segoe UI', Helvetica, Arial, sans-serif">100</text>
    <line x1="60" y1="211.75115207373273" x2="770" y2="211.75115207373273" class="chart-grid" stroke-opacity="0.3" />
    <text x="778" y="215.75115207373273" text-anchor="start" class="chart-muted" font-size="11" font-family="-apple-system, BlinkMacSystemFont, 'Segoe UI', Helvetica, Arial, sans-serif">200</text>
    <line x1="60" y1="142.6267281105991" x2="770" y2="142.6267281105991" class="chart-grid" stroke-opacity="0.3" />
    <text x="778" y="146.6267281105991" text-anchor="start" class="chart-muted" font-size="11" font-family="-apple-system, BlinkMacSystemFont, 'Segoe UI', Helvetica, Arial, sans-serif">300</text>
    <line x1="60" y1="73.50230414746545" x2="770" y2="73.50230414746545" class="chart-grid" stroke-opacity="0.3" />
    <text x="778" y="77.50230414746545" text-anchor="start" class="chart-muted" font-size="11" font-family="-apple-system, BlinkMacSystemFont, 'Segoe UI', Helvetica, Arial, sans-serif">400</text>
  </g>
  <g class="milestones">
    
  </g>
  <g class="x-axis">
    <text x="60" y="370" text-anchor="middle" class="chart-muted" font-size="11" font-family="-apple-system, BlinkMacSystemFont, 'Segoe UI', Helvetica, Arial, sans-serif">2024</text>
    <text x="182.41379310344828" y="370" text-anchor="middle" class="chart-muted" font-size="11" font-family="-apple-system, BlinkMacSystemFont, 'Segoe UI', Helvetica, Arial, sans-serif">2025</text>
    <text x="574.1379310344828" y="370" text-anchor="middle" class="chart-muted" font-size="11" font-family="-apple-system, BlinkMacSystemFont, 'Segoe UI', Helvetica, Arial, sans-serif">2026</text>
  </g>
  <line x1="770" y1="50" x2="770" y2="350" class="chart-axis" stroke-width="1" />
  <line x1="60" y1="350" x2="770" y2="350" class="chart-axis" stroke-width="1" />
  <path d="M60,350 L60,349.3087557603687 C63.264367816091955,345.7142857142857 77.95402298850574,327.6036866359447 84.48275862068965,322.35023041474653 C91.01149425287356,317.09677419354836 102.43678160919539,315.80645161290323 108.9655172413793,309.9078341013825 C115.49425287356321,304.00921658986175 126.91954022988504,283.5483870967742 133.44827586206895,278.110599078341 C139.97701149425285,272.6728110599078 151.40229885057468,271.88940092165893 157.9310344827586,269.1244239631336 C164.45977011494253,266.3594470046083 175.88505747126436,261.0599078341014 182.41379310344828,257.37327188940094 C188.9425287356322,253.6866359447005 200.36781609195404,244.7926267281106 206.89655172413794,241.4746543778802 C213.42528735632183,238.1566820276498 224.8505747126437,234.88479262672809 231.3793103448276,232.4884792626728 C237.90804597701148,230.0921658986175 249.33333333333334,225.89861751152074 255.86206896551724,223.50230414746545 C262.39080459770116,221.10599078341016 273.81609195402297,216.9124423963134 280.34482758620686,214.51612903225808 C286.87356321839076,212.11981566820276 298.2988505747127,207.1889400921659 304.82758620689657,205.52995391705068 C311.35632183908046,203.87096774193546 322.7816091954023,204.10138248847926 329.3103448275862,202.073732718894 C335.8390804597701,200.04608294930875 347.264367816092,192.90322580645164 353.7931034482759,190.3225806451613 C360.32183908045977,187.74193548387098 371.7471264367816,184.5622119815668 378.2758620689655,182.71889400921657 C384.8045977011494,180.87557603686633 396.2298850574713,178.52534562211983 402.7586206896552,176.49769585253458 C409.28735632183907,174.47004608294932 420.71264367816093,169.90783410138246 427.2413793103448,167.51152073732717 C433.7701149425287,165.1152073732719 445.1954022988506,161.19815668202767 451.7241379310345,158.52534562211983 C458.2528735632184,155.85253456221199 469.67816091954023,150.23041474654377 476.2068965517241,147.46543778801842 C482.735632183908,144.70046082949307 494.1609195402299,139.9078341013825 500.6896551724138,137.78801843317973 C507.2183908045977,135.66820276497697 518.6436781609195,133.50230414746545 525.1724137931035,131.5668202764977 C531.7011494252874,129.63133640552996 543.1264367816092,125.20737327188942 549.6551724137931,123.27188940092168 C556.1839080459771,121.33640552995394 567.6091954022988,118.4331797235023 574.1379310344828,117.05069124423963 C580.6666666666667,115.66820276497695 592.0919540229885,113.82488479262673 598.6206896551724,112.90322580645162 C605.1494252873564,111.9815668202765 616.5747126436781,111.15207373271889 623.1034482758621,110.13824884792626 C629.632183908046,109.12442396313364 641.0574712643678,106.9585253456221 647.5862068965517,105.2995391705069 C654.1149425287357,103.6405529953917 665.5402298850574,98.98617511520737 672.0689655172414,97.69585253456222 C678.5977011494253,96.40552995391707 690.0229885057471,96.91244239631338 696.551724137931,95.62211981566821 C703.080459770115,94.33179723502305 714.5057471264367,89.49308755760369 721.0344827586207,88.0184331797235 C727.5632183908046,86.54377880184332 738.9885057471264,85.94470046082948 745.5172413793103,84.5622119815668 C752.0459770114943,83.17972350230413 766.735632183908,78.57142857142858 770,77.64976958525347 L770,350 L60,350 Z" fill="#6b63ff" fill-opacity="0.1" />
  <path d="M60,350 L60,349.3087557603687 C63.264367816091955,345.7142857142857 77.95402298850574,327.6036866359447 84.48275862068965,322.35023041474653 C91.01149425287356,317.09677419354836 102.43678160919539,315.80645161290323 108.9655172413793,309.9078341013825 C115.49425287356321,304.00921658986175 126.91954022988504,283.5483870967742 133.44827586206895,278.110599078341 C139.97701149425285,272.6728110599078 151.40229885057468,271.88940092165893 157.9310344827586,269.1244239631336 C164.45977011494253,266.3594470046083 175.88505747126436,261.0599078341014 182.41379310344828,257.37327188940094 C188.9425287356322,253.6866359447005 200.36781609195404,244.7926267281106 206.89655172413794,241.4746543778802 C213.42528735632183,238.1566820276498 224.8505747126437,234.88479262672809 231.3793103448276,232.4884792626728 C237.90804597701148,230.0921658986175 249.33333333333334,225.89861751152074 255.86206896551724,223.50230414746545 C262.39080459770116,221.10599078341016 273.81609195402297,216.9124423963134 280.34482758620686,214.51612903225808 C286.87356321839076,212.11981566820276 298.2988505747127,207.1889400921659 304.82758620689657,205.52995391705068 C311.35632183908046,203.87096774193546 322.7816091954023,204.10138248847926 329.3103448275862,202.073732718894 C335.8390804597701,200.04608294930875 347.264367816092,192.90322580645164 353.7931034482759,190.3225806451613 C360.32183908045977,187.74193548387098 371.7471264367816,184.5622119815668 378.2758620689655,182.71889400921657 C384.8045977011494,180.87557603686633 396.2298850574713,178.52534562211983 402.7586206896552,176.49769585253458 C409.28735632183907,174.47004608294932 420.71264367816093,169.90783410138246 427.2413793103448,167.51152073732717 C433.7701149425287,165.1152073732719 445.1954022988506,161.19815668202767 451.7241379310345,158.52534562211983 C458.2528735632184,155.85253456221199 469.67816091954023,150.23041474654377 476.2068965517241,147.46543778801842 C482.735632183908,144.70046082949307 494.1609195402299,139.9078341013825 500.6896551724138,137.78801843317973 C507.2183908045977,135.66820276497697 518.6436781609195,133.50230414746545 525.1724137931035,131.5668202764977 C531.7011494252874,129.63133640552996 543.1264367816092,125.20737327188942 549.6551724137931,123.27188940092168 C556.1839080459771,121.33640552995394 567.6091954022988,118.4331797235023 574.1379310344828,117.05069124423963 C580.6666666666667,115.66820276497695 592.0919540229885,113.82488479262673 598.6206896551724,112.90322580645162 C605.1494252873564,111.9815668202765 616.5747126436781,111.15207373271889 623.1034482758621,110.13824884792626 C629.632183908046,109.12442396313364 641.0574712643678,106.9585253456221 647.5862068965517,105.2995391705069 C654.1149425287357,103.6405529953917 665.5402298850574,98.98617511520737 672.0689655172414,97.69585253456222 C678.5977011494253,96.40552995391707 690.0229885057471,96.91244239631338 696.551724137931,95.62211981566821 C703.080459770115,94.33179723502305 714.5057471264367,89.49308755760369 721.0344827586207,88.0184331797235 C727.5632183908046,86.54377880184332 738.9885057471264,85.94470046082948 745.5172413793103,84.5622119815668 C752.0459770114943,83.17972350230413 766.735632183908,78.57142857142858 770,77.64976958525347" fill="none" stroke="#6b63ff" stroke-width="2.5" class="data-line-0" />
  <g class="points">
    
    <circle cx="60" cy="349.3087557603687" r="4" fill="#6b63ff" class="data-point" style="animation-delay: 1.50s" />
    <circle cx="84.48275862068965" cy="322.35023041474653" r="4" fill="#6b63ff" class="data-point" style="animation-delay: 1.55s" />
    <circle cx="108.9655172413793" cy="309.9078341013825" r="4" fill="#6b63ff" class="data-point" style="animation-delay: 1.60s" />
    <circle cx="133.44827586206895" cy="278.110599078341" r="4" fill="#6b63ff" class="data-point" style="animation-delay: 1.65s" />
    <circle cx="157.9310344827586" cy="269.1244239631336" r="4" fill="#6b63ff" class="data-point" style="animation-delay: 1.70s" />
    <circle cx="182.41379310344828" cy="257.37327188940094" r="4" fill="#6b63ff" class="data-point" style="animation-delay: 1.75s" />
    <circle cx="206.89655172413794" cy="241.4746543778802" r="4" fill="#6b63ff" class="data-point" style="animation-delay: 1.80s" />
    <circle cx="231.3793103448276" cy="232.4884792626728" r="4" fill="#6b63ff" class="data-point" style="animation-delay: 1.85s" />
    <circle cx="255.86206896551724" cy="223.50230414746545" r="4" fill="#6b63ff" class="data-point" style="animation-delay: 1.90s" />
    <circle cx="280.34482758620686" cy="214.51612903225808" r="4" fill="#6b63ff" class="data-point" style="animation-delay: 1.95s" />
    <circle cx="304.82758620689657" cy="205.52995391705068" r="4" fill="#6b63ff" class="data-point" style="animation-delay: 2.00s" />
    <circle cx="329.3103448275862" cy="202.073732718894" r="4" fill="#6b63ff" class="data-point" style="animation-delay: 2.05s" />
    <circle cx="353.7931034482759" cy="190.3225806451613" r="4" fill="#6b63ff" class="data-point" style="animation-delay: 2.10s" />
    <circle cx="378.2758620689655" cy="182.71889400921657" r="4" fill="#6b63ff" class="data-point" style="animation-delay: 2.15s" />
    <circle cx="402.7586206896552" cy="176.49769585253458" r="4" fill="#6b63ff" class="data-point" style="animation-delay: 2.20s" />
    <circle cx="427.2413793103448" cy="167.51152073732717" r="4" fill="#6b63ff" class="data-point" style="animation-delay: 2.25s" />
    <circle cx="451.7241379310345" cy="158.52534562211983" r="4" fill="#6b63ff" class="data-point" style="animation-delay: 2.30s" />
    <circle cx="476.2068965517241" cy="147.46543778801842" r="4" fill="#6b63ff" class="data-point" style="animation-delay: 2.35s" />
    <circle cx="500.6896551724138" cy="137.78801843317973" r="4" fill="#6b63ff" class="data-point" style="animation-delay: 2.40s" />
    <circle cx="525.1724137931035" cy="131.5668202764977" r="4" fill="#6b63ff" class="data-point" style="animation-delay: 2.45s" />
    <circle cx="549.6551724137931" cy="123.27188940092168" r="4" fill="#6b63ff" class="data-point" style="animation-delay: 2.50s" />
    <circle cx="574.1379310344828" cy="117.05069124423963" r="4" fill="#6b63ff" class="data-point" style="animation-delay: 2.55s" />
    <circle cx="598.6206896551724" cy="112.90322580645162" r="4" fill="#6b63ff" class="data-point" style="animation-delay: 2.60s" />
    <circle cx="623.1034482758621" cy="110.13824884792626" r="4" fill="#6b63ff" class="data-point" style="animation-delay: 2.65s" />
    <circle cx="647.5862068965517" cy="105.2995391705069" r="4" fill="#6b63ff" class="data-point" style="animation-delay: 2.70s" />
    <circle cx="672.0689655172414" cy="97.69585253456222" r="4" fill="#6b63ff" class="data-point" style="animation-delay: 2.75s" />
    <circle cx="696.551724137931" cy="95.62211981566821" r="4" fill="#6b63ff" class="data-point" style="animation-delay: 2.80s" />
    <circle cx="721.0344827586207" cy="88.0184331797235" r="4" fill="#6b63ff" class="data-point" style="animation-delay: 2.85s" />
    <circle cx="745.5172413793103" cy="84.5622119815668" r="4" fill="#6b63ff" class="data-point" style="animation-delay: 2.90s" />
    <circle cx="770" cy="77.64976958525347" r="4" fill="#6b63ff" class="data-point" style="animation-delay: 2.95s" />
  </g>
</svg>