<svg xmlns="http://www.w3.org/2000/svg" viewBox="0 0 800 400" width="800" height="400">
  <style>
    @keyframes drawLine {
      to { stroke-dashoffset: 0; }
    }
    @keyframes fadeInPoint {
      from { opacity: 0; }
      to { opacity: 1; }
    }
    .data-line-0 {
      stroke-dasharray: 1241;
      stroke-dashoffset: 1241;
      animation: drawLine 2s ease-out forwards;
    }
    .data-point {
      opacity: 0;
      animation: fadeInPoint 0.5s ease-out forwards;
    }
    .chart-bg { fill: #fff; }
    .chart-text { fill: #24292e; }
    .chart-muted { fill: #6a737d; }
    .chart-grid { stroke: #eee; }
    .chart-axis { stroke: #6a737d; }
    @media (prefers-color-scheme: dark) {
      .chart-bg { fill: #0d1117; }
      .chart-text { fill: #e6edf3; }
      .chart-muted { fill: #8b949e; }
      .chart-grid { stroke: #21262d; }
      .chart-axis { stroke: #8b949e; }
    }
  </style>
  <rect width="800" height="400" class="chart-bg" />
  <text x="400" y="14" text-anchor="middle" class="chart-text" font-size="16" font-weight="bold" font-family="-apple-system, BlinkMacSystemFont, 'Segoe UI', Helvetica, Arial, sans-serif">dockur/macos Star History</text>
  
  <g class="grid">
    <line x1="60" y1="350" x2="770" y2="350" class="chart-grid" stroke-opacity="0.3" />
    <text x="778" y="354" text-anchor="start" class="chart-muted" font-size="11" font-family="-apple-system, BlinkMacSystemFont, 'Segoe UI', Helvetica, Arial, sans-serif">0</text>
    <line x1="60" y1="290" x2="770" y2="290" class="chart-grid" stroke-opacity="0.3" />
    <text x="778" y="294" text-anchor="start" class="chart-muted" font-size="11" font-family="-apple-system, BlinkMacSystemFont, 'Segoe UI', Helvetica, Arial, sans-serif">5K</text>
    <line x1="60" y1="230" x2="770" y2="230" class="chart-grid" stroke-opacity="0.3" />
    <text x="778" y="234" text-anchor="start" class="chart-muted" font-size="11" font-family="-apple-system, BlinkMacSystemFont, 'Segoe UI', Helvetica, Arial, sans-serif">10K</text>
    <line x1="60" y1="170" x2="770" y2="170" class="chart-grid" stroke-opacity="0.3" />
    <text x="778" y="174" text-anchor="start" class="chart-muted" font-size="11" font-family="-apple-system, BlinkMacSystemFont, 'Segoe UI', Helvetica, Arial, sans-serif">15K</text>
    <line x1="60" y1="110" x2="770" y2="110" class="chart-grid" stroke-opacity="0.3" />
    <text x="778" y="114" text-anchor="start" class="chart-muted" font-size="11" font-family="-apple-system, BlinkMacSystemFont, 'Segoe UI', Helvetica, Arial, sans-serif">20K</text>
    <line x1="60" y1="50" x2="770" y2="50" class="chart-grid" stroke-opacity="0.3" />
    <text x="778" y="54" text-anchor="start" class="chart-muted" font-size="11" font-family="-apple-system, BlinkMacSystemFont, 'Segoe UI', Helvetica, Arial, sans-serif">25K</text>
  </g>
  <g class="milestones">
    
  </g>
  <g class="x-axis">
    <text x="60" y="370" text-anchor="middle" class="chart-muted" font-size="11" font-family="-apple-system, BlinkMacSystemFont, 'Segoe UI', Helvetica, Arial, sans-serif">2024</text>
    <text x="280.34482758620686" y="370" text-anchor="middle" class="chart-muted" font-size="11" font-family="-apple-system, BlinkMacSystemFont, 'Segoe UI', Helvetica, Arial, sans-serif">2025</text>
    <text x="623.1034482758621" y="370" text-anchor="middle" class="chart-muted" font-size="11" font-family="-apple-system, BlinkMacSystemFont, 'Segoe UI', Helvetica, Arial, sans-serif">2026</text>
  </g>
  <line x1="770" y1="50" x2="770" y2="350" class="chart-axis" stroke-width="1" />
  <line x1="60" y1="350" x2="770" y2="350" class="chart-axis" stroke-width="1" />
  <path d="M60,350 L60,349.916 C68.16091954022988,347.128 76.32183908045977,341.552 84.48275862068965,341.552 C92.64367816091954,341.552 100.80459770114942,341.552 108.9655172413793,341.552 C117.12643678160919,341.552 125.28735632183907,341.552 133.44827586206895,341.552 C141.60919540229884,341.552 149.77011494252872,341.552 157.9310344827586,341.552 C166.0919540229885,341.552 174.2528735632184,341.552 182.41379310344828,341.552 C190.57471264367817,341.552 198.73563218390805,341.552 206.89655172413794,335.048 C215.05747126436782,328.544 223.2183908045977,248.65999999999997 231.3793103448276,240.212 C239.54022988505747,231.764 247.70114942528735,231.764 255.86206896551724,231.764 C264.0229885057471,231.764 272.183908045977,231.764 280.34482758620686,231.764 C288.50574712643675,231.764 296.6666666666667,216.224 304.82758620689657,215.552 C312.98850574712645,214.88 321.14942528735634,214.88 329.3103448275862,214.88 C337.4712643678161,214.88 345.632183908046,214.88 353.7931034482759,214.88 C361.95402298850576,214.88 370.11494252873564,209.36399999999998 378.2758620689655,207.956 C386.4367816091954,206.548 394.5977011494253,206.43200000000002 402.7586206896552,206.43200000000002 C410.91954022988506,206.43200000000002 419.08045977011494,206.43200000000002 427.2413793103448,206.43200000000002 C435.4022988505747,206.43200000000002 443.5632183908046,172.21828670461414 451.7241379310345,164.204 C459.88505747126436,156.18971329538587 468.04597701149424,158.42806149185333 476.2068965517241,155.75599999999997 C484.367816091954,153.08393850814662 492.5287356321839,150.12199999999999 500.6896551724138,147.308 C508.85057471264366,144.494 517.0114942528736,138.87199999999999 525.1724137931035,138.87199999999999 C533.3333333333334,138.87199999999999 541.4942528735633,138.87199999999999 549.6551724137931,138.87199999999999 C557.816091954023,138.87199999999999 565.9770114942529,138.87199999999999 574.1379310344828,138.87199999999999 C582.2988505747127,138.87199999999999 590.4597701149426,130.424 598.6206896551724,130.424 C606.7816091954023,130.424 614.9425287356322,130.424 623.1034482758621,130.424 C631.264367816092,130.424 639.4252873563219,124.21716225666829 647.5862068965517,123.332 C655.7471264367816,122.4468377433317 663.9080459770115,123.00324085752557 672.0689655172414,121.976 C680.2298850574713,120.94875914247443 688.3908045977012,114.14980405794434 696.551724137931,113.52799999999999 C704.7126436781609,112.90619594205565 712.8735632183908,113.252765184412 721.0344827586207,112.68800000000002 C729.1954022988506,112.12323481558803 737.3563218390805,106.31468315251824 745.5172413793103,105.09200000000001 C753.6781609195402,103.86931684748178 761.8390804597701,104.17075619530969 770,103.82 L770,350 L60,350 Z" fill="#6b63ff" fill-opacity="0.1" />
  <path d="M60,350 L60,349.916 C68.16091954022988,347.128 76.32183908045977,341.552 84.48275862068965,341.552 C92.64367816091954,341.552 100.80459770114942,341.552 108.9655172413793,341.552 C117.12643678160919,341.552 125.28735632183907,341.552 133.44827586206895,341.552 C141.60919540229884,341.552 149.77011494252872,341.552 157.9310344827586,341.552 C166.0919540229885,341.552 174.2528735632184,341.552 182.41379310344828,341.552 C190.57471264367817,341.552 198.73563218390805,341.552 206.89655172413794,335.048 C215.05747126436782,328.544 223.2183908045977,248.65999999999997 231.3793103448276,240.212 C239.54022988505747,231.764 247.70114942528735,231.764 255.86206896551724,231.764 C264.0229885057471,231.764 272.183908045977,231.764 280.34482758620686,231.764 C288.50574712643675,231.764 296.6666666666667,216.224 304.82758620689657,215.552 C312.98850574712645,214.88 321.14942528735634,214.88 329.3103448275862,214.88 C337.4712643678161,214.88 345.632183908046,214.88 353.7931034482759,214.88 C361.95402298850576,214.88 370.11494252873564,209.36399999999998 378.2758620689655,207.956 C386.4367816091954,206.548 394.5977011494253,206.43200000000002 402.7586206896552,206.43200000000002 C410.91954022988506,206.43200000000002 419.08045977011494,206.43200000000002 427.2413793103448,206.43200000000002 C435.4022988505747,206.43200000000002 443.5632183908046,172.21828670461414 451.7241379310345,164.204 C459.88505747126436,156.18971329538587 468.04597701149424,158.42806149185333 476.2068965517241,155.75599999999997 C484.367816091954,153.08393850814662 492.5287356321839,150.12199999999999 500.6896551724138,147.308 C508.85057471264366,144.494 517.0114942528736,138.87199999999999 525.1724137931035,138.87199999999999 C533.3333333333334,138.87199999999999 541.4942528735633,138.87199999999999 549.6551724137931,138.87199999999999 C557.816091954023,138.87199999999999 565.9770114942529,138.87199999999999 574.1379310344828,138.87199999999999 C582.2988505747127,138.87199999999999 590.4597701149426,130.424 598.6206896551724,130.424 C606.7816091954023,130.424 614.9425287356322,130.424 623.1034482758621,130.424 C631.264367816092,130.424 639.4252873563219,124.21716225666829 647.5862068965517,123.332 C655.7471264367816,122.4468377433317 663.9080459770115,123.00324085752557 672.0689655172414,121.976 C680.2298850574713,120.94875914247443 688.3908045977012,114.14980405794434 696.551724137931,113.52799999999999 C704.7126436781609,112.90619594205565 712.8735632183908,113.252765184412 721.0344827586207,112.68800000000002 C729.1954022988506,112.12323481558803 737.3563218390805,106.31468315251824 745.5172413793103,105.09200000000001 C753.6781609195402,103.86931684748178 761.8390804597701,104.17075619530969 770,103.82" fill="none" stroke="#6b63ff" stroke-width="2.5" class="data-line-0" />
  <g class="points">
    
    <circle cx="60" cy="349.916" r="4" fill="#6b63ff" class="data-point" style="animation-delay: 1.50s" />
    <circle cx="84.48275862068965" cy="341.552" r="4" fill="#6b63ff" class="data-point" style="animation-delay: 1.55s" />
    <circle cx="108.9655172413793" cy="341.552" r="4" fill="#6b63ff" class="data-point" style="animation-delay: 1.60s" />
    <circle cx="133.44827586206895" cy="341.552" r="4" fill="#6b63ff" class="data-point" style="animation-delay: 1.65s" />
    <circle cx="157.9310344827586" cy="341.552" r="4" fill="#6b63ff" class="data-point" style="animation-delay: 1.70s" />
    <circle cx="182.41379310344828" cy="341.552" r="4" fill="#6b63ff" class="data-point" style="animation-delay: 1.75s" />
    <circle cx="206.89655172413794" cy="335.048" r="4" fill="#6b63ff" class="data-point" style="animation-delay: 1.80s" />
    <circle cx="231.3793103448276" cy="240.212" r="4" fill="#6b63ff" class="data-point" style="animation-delay: 1.85s" />
    <circle cx="255.86206896551724" cy="231.764" r="4" fill="#6b63ff" class="data-point" style="animation-delay: 1.90s" />
    <circle cx="280.34482758620686" cy="231.764" r="4" fill="#6b63ff" class="data-point" style="animation-delay: 1.95s" />
    <circle cx="304.82758620689657" cy="215.552" r="4" fill="#6b63ff" class="data-point" style="animation-delay: 2.00s" />
    <circle cx="329.3103448275862" cy="214.88" r="4" fill="#6b63ff" class="data-point" style="animation-delay: 2.05s" />
    <circle cx="353.7931034482759" cy="214.88" r="4" fill="#6b63ff" class="data-point" style="animation-delay: 2.10s" />
    <circle cx="378.2758620689655" cy="207.956" r="4" fill="#6b63ff" class="data-point" style="animation-delay: 2.15s" />
    <circle cx="402.7586206896552" cy="206.43200000000002" r="4" fill="#6b63ff" class="data-point" style="animation-delay: 2.20s" />
    <circle cx="427.2413793103448" cy="206.43200000000002" r="4" fill="#6b63ff" class="data-point" style="animation-delay: 2.25s" />
    <circle cx="451.7241379310345" cy="164.204" r="4" fill="#6b63ff" class="data-point" style="animation-delay: 2.30s" />
    <circle cx="476.2068965517241" cy="155.75599999999997" r="4" fill="#6b63ff" class="data-point" style="animation-delay: 2.35s" />
    <circle cx="500.6896551724138" cy="147.308" r="4" fill="#6b63ff" class="data-point" style="animation-delay: 2.40s" />
    <circle cx="525.1724137931035" cy="138.87199999999999" r="4" fill="#6b63ff" class="data-point" style="animation-delay: 2.45s" />
    <circle cx="549.6551724137931" cy="138.87199999999999" r="4" fill="#6b63ff" class="data-point" style="animation-delay: 2.50s" />
    <circle cx="574.1379310344828" cy="138.87199999999999" r="4" fill="#6b63ff" class="data-point" style="animation-delay: 2.55s" />
    <circle cx="598.6206896551724" cy="130.424" r="4" fill="#6b63ff" class="data-point" style="animation-delay: 2.60s" />
    <circle cx="623.1034482758621" cy="130.424" r="4" fill="#6b63ff" class="data-point" style="animation-delay: 2.65s" />
    <circle cx="647.5862068965517" cy="123.332" r="4" fill="#6b63ff" class="data-point" style="animation-delay: 2.70s" />
    <circle cx="672.0689655172414" cy="121.976" r="4" fill="#6b63ff" class="data-point" style="animation-delay: 2.75s" />
    <circle cx="696.551724137931" cy="113.52799999999999" r="4" fill="#6b63ff" class="data-point" style="animation-delay: 2.80s" />
    <circle cx="721.0344827586207" cy="112.68800000000002" r="4" fill="#6b63ff" class="data-point" style="animation-delay: 2.85s" />
    <circle cx="745.5172413793103" cy="105.09200000000001" r="4" fill="#6b63ff" class="data-point" style="animation-delay: 2.90s" />
    <circle cx="770" cy="103.82" r="4" fill="#6b63ff" class="data-point" style="animation-delay: 2.95s" />
  </g>
</svg>