<svg xmlns="http://www.w3.org/2000/svg" viewBox="0 0 800 400" width="800" height="400">
  <style>
    @keyframes drawLine {
      to { stroke-dashoffset: 0; }
    }
    @keyframes fadeInPoint {
      from { opacity: 0; }
      to { opacity: 1; }
    }
    .data-line-0 {
      stroke-dasharray: 1159;
      stroke-dashoffset: 1159;
      animation: drawLine 2s ease-out forwards;
    }
    .data-point {
      opacity: 0;
      animation: fadeInPoint 0.5s ease-out forwards;
    }
    .chart-bg { fill: #fff; }
    .chart-text { fill: #24292e; }
    .chart-muted { fill: #6a737d; }
    .chart-grid { stroke: #eee; }
    .chart-axis { stroke: #6a737d; }
    @media (prefers-color-scheme: dark) {
      .chart-bg { fill: #0d1117; }
      .chart-text { fill: #e6edf3; }
      .chart-muted { fill: #8b949e; }
      .chart-grid { stroke: #21262d; }
      .chart-axis { stroke: #8b949e; }
    }
  </style>
  <rect width="800" height="400" class="chart-bg" />
  <text x="400" y="14" text-anchor="middle" class="chart-text" font-size="16" font-weight="bold" font-family="-apple-system, BlinkMacSystemFont, 'Segoe UI', Helvetica, Arial, sans-serif">dockur/casa Star History</text>
  
  <g class="grid">
    <line x1="60" y1="350" x2="770" y2="350" class="chart-grid" stroke-opacity="0.3" />
    <text x="778" y="354" text-anchor="start" class="chart-muted" font-size="11" font-family="-apple-system, BlinkMacSystemFont, 'Segoe UI', Helvetica, Arial, sans-serif">0</text>
    <line x1="60" y1="290" x2="770" y2="290" class="chart-grid" stroke-opacity="0.3" />
    <text x="778" y="294" text-anchor="start" class="chart-muted" font-size="11" font-family="-apple-system, BlinkMacSystemFont, 'Segoe UI', Helvetica, Arial, sans-serif">50</text>
    <line x1="60" y1="230" x2="770" y2="230" class="chart-grid" stroke-opacity="0.3" />
    <text x="778" y="234" text-anchor="start" class="chart-muted" font-size="11" font-family="-apple-system, BlinkMacSystemFont, 'Segoe UI', Helvetica, Arial, sans-serif">100</text>
    <line x1="60" y1="170" x2="770" y2="170" class="chart-grid" stroke-opacity="0.3" />
    <text x="778" y="174" text-anchor="start" class="chart-muted" font-size="11" font-family="-apple-system, BlinkMacSystemFont, 'Segoe UI', Helvetica, Arial, sans-serif">150</text>
    <line x1="60" y1="110" x2="770" y2="110" class="chart-grid" stroke-opacity="0.3" />
    <text x="778" y="114" text-anchor="start" class="chart-muted" font-size="11" font-family="-apple-system, BlinkMacSystemFont, 'Segoe UI', Helvetica, Arial, sans-serif">200</text>
    <line x1="60" y1="50" x2="770" y2="50" class="chart-grid" stroke-opacity="0.3" />
    <text x="778" y="54" text-anchor="start" class="chart-muted" font-size="11" font-family="-apple-system, BlinkMacSystemFont, 'Segoe UI', Helvetica, Arial, sans-serif">250</text>
  </g>
  <g class="milestones">
    
  </g>
  <g class="x-axis">
    <text x="60" y="370" text-anchor="middle" class="chart-muted" font-size="11" font-family="-apple-system, BlinkMacSystemFont, 'Segoe UI', Helvetica, Arial, sans-serif">2024</text>
    <text x="133.44827586206895" y="370" text-anchor="middle" class="chart-muted" font-size="11" font-family="-apple-system, BlinkMacSystemFont, 'Segoe UI', Helvetica, Arial, sans-serif">2025</text>
    <text x="574.1379310344828" y="370" text-anchor="middle" class="chart-muted" font-size="11" font-family="-apple-system, BlinkMacSystemFont, 'Segoe UI', Helvetica, Arial, sans-serif">2026</text>
  </g>
  <line x1="770" y1="50" x2="770" y2="350" class="chart-axis" stroke-width="1" />
  <line x1="60" y1="350" x2="770" y2="350" class="chart-axis" stroke-width="1" />
  <path d="M60,350 L60,348.8 C68.16091954022988,342.40000000000003 76.32183908045977,333.6 84.48275862068965,329.6 C92.64367816091954,325.6 100.80459770114942,327.40000000000003 108.9655172413793,324.8 C117.12643678160919,322.2 125.28735632183907,317 133.44827586206895,314 C141.60919540229884,311 149.77011494252872,309.40000000000003 157.9310344827586,306.8 C166.0919540229885,304.2 174.2528735632184,301 182.41379310344828,298.4 C190.57471264367817,295.79999999999995 198.73563218390805,293.79999999999995 206.89655172413794,291.2 C215.05747126436782,288.6 223.2183908045977,285.6 231.3793103448276,282.8 C239.54022988505747,280 247.70114942528735,277 255.86206896551724,274.4 C264.0229885057471,271.79999999999995 272.183908045977,269.59999999999997 280.34482758620686,267.2 C288.50574712643675,264.8 296.6666666666667,261.8 304.82758620689657,260 C312.98850574712645,258.2 321.14942528735634,258.59999999999997 329.3103448275862,256.4 C337.4712643678161,254.2 345.632183908046,249.8 353.7931034482759,246.8 C361.95402298850576,243.8 370.11494252873564,242 378.2758620689655,238.4 C386.4367816091954,234.8 394.5977011494253,228.2 402.7586206896552,225.2 C410.91954022988506,222.2 419.08045977011494,223.2 427.2413793103448,220.4 C435.4022988505747,217.60000000000002 443.5632183908046,212 451.7241379310345,208.4 C459.88505747126436,204.8 468.04597701149424,201.60000000000002 476.2068965517241,198.8 C484.367816091954,196 492.5287356321839,193.22876099013084 500.6896551724138,191.6 C508.85057471264366,189.97123900986915 517.0114942528736,191.37469805591843 525.1724137931035,185.6 C533.3333333333334,179.8253019440816 541.4942528735633,150.3001757882505 549.6551724137931,144.79999999999998 C557.816091954023,139.29982421174947 565.9770114942529,141.19751252308356 574.1379310344828,138.8 C582.2988505747127,136.40248747691646 590.4597701149426,127.60000000000001 598.6206896551724,124.4 C606.7816091954023,121.2 614.9425287356322,120.8 623.1034482758621,119.6 C631.264367816092,118.39999999999999 639.4252873563219,118.19999999999999 647.5862068965517,117.19999999999999 C655.7471264367816,116.19999999999999 663.9080459770115,114.6 672.0689655172414,113.6 C680.2298850574713,112.6 688.3908045977012,112.39999999999999 696.551724137931,111.19999999999999 C704.7126436781609,109.99999999999999 712.8735632183908,107.99999999999997 721.0344827586207,106.39999999999998 C729.1954022988506,104.79999999999998 737.3563218390805,103.20000000000002 745.5172413793103,101.60000000000002 C753.6781609195402,100.00000000000003 761.8390804597701,98.40000000000002 770,96.80000000000001 L770,350 L60,350 Z" fill="#6b63ff" fill-opacity="0.1" />
  <path d="M60,350 L60,348.8 C68.16091954022988,342.40000000000003 76.32183908045977,333.6 84.48275862068965,329.6 C92.64367816091954,325.6 100.80459770114942,327.40000000000003 108.9655172413793,324.8 C117.12643678160919,322.2 125.28735632183907,317 133.44827586206895,314 C141.60919540229884,311 149.77011494252872,309.40000000000003 157.9310344827586,306.8 C166.0919540229885,304.2 174.2528735632184,301 182.41379310344828,298.4 C190.57471264367817,295.79999999999995 198.73563218390805,293.79999999999995 206.89655172413794,291.2 C215.05747126436782,288.6 223.2183908045977,285.6 231.3793103448276,282.8 C239.54022988505747,280 247.70114942528735,277 255.86206896551724,274.4 C264.0229885057471,271.79999999999995 272.183908045977,269.59999999999997 280.34482758620686,267.2 C288.50574712643675,264.8 296.6666666666667,261.8 304.82758620689657,260 C312.98850574712645,258.2 321.14942528735634,258.59999999999997 329.3103448275862,256.4 C337.4712643678161,254.2 345.632183908046,249.8 353.7931034482759,246.8 C361.95402298850576,243.8 370.11494252873564,242 378.2758620689655,238.4 C386.4367816091954,234.8 394.5977011494253,228.2 402.7586206896552,225.2 C410.91954022988506,222.2 419.08045977011494,223.2 427.2413793103448,220.4 C435.4022988505747,217.60000000000002 443.5632183908046,212 451.7241379310345,208.4 C459.88505747126436,204.8 468.04597701149424,201.60000000000002 476.2068965517241,198.8 C484.367816091954,196 492.5287356321839,193.22876099013084 500.6896551724138,191.6 C508.85057471264366,189.97123900986915 517.0114942528736,191.37469805591843 525.1724137931035,185.6 C533.3333333333334,179.8253019440816 541.4942528735633,150.3001757882505 549.6551724137931,144.79999999999998 C557.816091954023,139.29982421174947 565.9770114942529,141.19751252308356 574.1379310344828,138.8 C582.2988505747127,136.40248747691646 590.4597701149426,127.60000000000001 598.6206896551724,124.4 C606.7816091954023,121.2 614.9425287356322,120.8 623.1034482758621,119.6 C631.264367816092,118.39999999999999 639.4252873563219,118.19999999999999 647.5862068965517,117.19999999999999 C655.7471264367816,116.19999999999999 663.9080459770115,114.6 672.0689655172414,113.6 C680.2298850574713,112.6 688.3908045977012,112.39999999999999 696.551724137931,111.19999999999999 C704.7126436781609,109.99999999999999 712.8735632183908,107.99999999999997 721.0344827586207,106.39999999999998 C729.1954022988506,104.79999999999998 737.3563218390805,103.20000000000002 745.5172413793103,101.60000000000002 C753.6781609195402,100.00000000000003 761.8390804597701,98.40000000000002 770,96.80000000000001" fill="none" stroke="#6b63ff" stroke-width="2.5" class="data-line-0" />
  <g class="points">
    
    <circle cx="60" cy="348.8" r="4" fill="#6b63ff" class="data-point" style="animation-delay: 1.50s" />
    <circle cx="84.48275862068965" cy="329.6" r="4" fill="#6b63ff" class="data-point" style="animation-delay: 1.55s" />
    <circle cx="108.9655172413793" cy="324.8" r="4" fill="#6b63ff" class="data-point" style="animation-delay: 1.60s" />
    <circle cx="133.44827586206895" cy="314" r="4" fill="#6b63ff" class="data-point" style="animation-delay: 1.65s" />
    <circle cx="157.9310344827586" cy="306.8" r="4" fill="#6b63ff" class="data-point" style="animation-delay: 1.70s" />
    <circle cx="182.41379310344828" cy="298.4" r="4" fill="#6b63ff" class="data-point" style="animation-delay: 1.75s" />
    <circle cx="206.89655172413794" cy="291.2" r="4" fill="#6b63ff" class="data-point" style="animation-delay: 1.80s" />
    <circle cx="231.3793103448276" cy="282.8" r="4" fill="#6b63ff" class="data-point" style="animation-delay: 1.85s" />
    <circle cx="255.86206896551724" cy="274.4" r="4" fill="#6b63ff" class="data-point" style="animation-delay: 1.90s" />
    <circle cx="280.34482758620686" cy="267.2" r="4" fill="#6b63ff" class="data-point" style="animation-delay: 1.95s" />
    <circle cx="304.82758620689657" cy="260" r="4" fill="#6b63ff" class="data-point" style="animation-delay: 2.00s" />
    <circle cx="329.3103448275862" cy="256.4" r="4" fill="#6b63ff" class="data-point" style="animation-delay: 2.05s" />
    <circle cx="353.7931034482759" cy="246.8" r="4" fill="#6b63ff" class="data-point" style="animation-delay: 2.10s" />
    <circle cx="378.2758620689655" cy="238.4" r="4" fill="#6b63ff" class="data-point" style="animation-delay: 2.15s" />
    <circle cx="402.7586206896552" cy="225.2" r="4" fill="#6b63ff" class="data-point" style="animation-delay: 2.20s" />
    <circle cx="427.2413793103448" cy="220.4" r="4" fill="#6b63ff" class="data-point" style="animation-delay: 2.25s" />
    <circle cx="451.7241379310345" cy="208.4" r="4" fill="#6b63ff" class="data-point" style="animation-delay: 2.30s" />
    <circle cx="476.2068965517241" cy="198.8" r="4" fill="#6b63ff" class="data-point" style="animation-delay: 2.35s" />
    <circle cx="500.6896551724138" cy="191.6" r="4" fill="#6b63ff" class="data-point" style="animation-delay: 2.40s" />
    <circle cx="525.1724137931035" cy="185.6" r="4" fill="#6b63ff" class="data-point" style="animation-delay: 2.45s" />
    <circle cx="549.6551724137931" cy="144.79999999999998" r="4" fill="#6b63ff" class="data-point" style="animation-delay: 2.50s" />
    <circle cx="574.1379310344828" cy="138.8" r="4" fill="#6b63ff" class="data-point" style="animation-delay: 2.55s" />
    <circle cx="598.6206896551724" cy="124.4" r="4" fill="#6b63ff" class="data-point" style="animation-delay: 2.60s" />
    <circle cx="623.1034482758621" cy="119.6" r="4" fill="#6b63ff" class="data-point" style="animation-delay: 2.65s" />
    <circle cx="647.5862068965517" cy="117.19999999999999" r="4" fill="#6b63ff" class="data-point" style="animation-delay: 2.70s" />
    <circle cx="672.0689655172414" cy="113.6" r="4" fill="#6b63ff" class="data-point" style="animation-delay: 2.75s" />
    <circle cx="696.551724137931" cy="111.19999999999999" r="4" fill="#6b63ff" class="data-point" style="animation-delay: 2.80s" />
    <circle cx="721.0344827586207" cy="106.39999999999998" r="4" fill="#6b63ff" class="data-point" style="animation-delay: 2.85s" />
    <circle cx="745.5172413793103" cy="101.60000000000002" r="4" fill="#6b63ff" class="data-point" style="animation-delay: 2.90s" />
    <circle cx="770" cy="96.80000000000001" r="4" fill="#6b63ff" class="data-point" style="animation-delay: 2.95s" />
  </g>
</svg>