<svg xmlns="http://www.w3.org/2000/svg" viewBox="0 0 800 400" width="800" height="400">
  <style>
    @keyframes drawLine {
      to { stroke-dashoffset: 0; }
    }
    @keyframes fadeInPoint {
      from { opacity: 0; }
      to { opacity: 1; }
    }
    .data-line-0 {
      stroke-dasharray: 1199;
      stroke-dashoffset: 1199;
      animation: drawLine 2s ease-out forwards;
    }
    .data-point {
      opacity: 0;
      animation: fadeInPoint 0.5s ease-out forwards;
    }
    .chart-bg { fill: #fff; }
    .chart-text { fill: #24292e; }
    .chart-muted { fill: #6a737d; }
    .chart-grid { stroke: #eee; }
    .chart-axis { stroke: #6a737d; }
    @media (prefers-color-scheme: dark) {
      .chart-bg { fill: #0d1117; }
      .chart-text { fill: #e6edf3; }
      .chart-muted { fill: #8b949e; }
      .chart-grid { stroke: #21262d; }
      .chart-axis { stroke: #8b949e; }
    }
  </style>
  <rect width="800" height="400" class="chart-bg" />
  <text x="400" y="34" text-anchor="middle" class="chart-text" font-size="16" font-weight="bold" font-family="-apple-system, BlinkMacSystemFont, 'Segoe UI', Helvetica, Arial, sans-serif">dockur/windows Star History</text>
  
  <g class="grid">
    <line x1="60" y1="350" x2="770" y2="350" class="chart-grid" stroke-opacity="0.3" />
    <text x="778" y="354" text-anchor="start" class="chart-muted" font-size="11" font-family="-apple-system, BlinkMacSystemFont, 'Segoe UI', Helvetica, Arial, sans-serif">0</text>
    <line x1="60" y1="297.33793248722947" x2="770" y2="297.33793248722947" class="chart-grid" stroke-opacity="0.3" />
    <text x="778" y="301.33793248722947" text-anchor="start" class="chart-muted" font-size="11" font-family="-apple-system, BlinkMacSystemFont, 'Segoe UI', Helvetica, Arial, sans-serif">10K</text>
    <line x1="60" y1="244.6758649744589" x2="770" y2="244.6758649744589" class="chart-grid" stroke-opacity="0.3" />
    <text x="778" y="248.6758649744589" text-anchor="start" class="chart-muted" font-size="11" font-family="-apple-system, BlinkMacSystemFont, 'Segoe UI', Helvetica, Arial, sans-serif">20K</text>
    <line x1="60" y1="192.01379746168834" x2="770" y2="192.01379746168834" class="chart-grid" stroke-opacity="0.3" />
    <text x="778" y="196.01379746168834" text-anchor="start" class="chart-muted" font-size="11" font-family="-apple-system, BlinkMacSystemFont, 'Segoe UI', Helvetica, Arial, sans-serif">30K</text>
    <line x1="60" y1="139.3517299489178" x2="770" y2="139.3517299489178" class="chart-grid" stroke-opacity="0.3" />
    <text x="778" y="143.3517299489178" text-anchor="start" class="chart-muted" font-size="11" font-family="-apple-system, BlinkMacSystemFont, 'Segoe UI', Helvetica, Arial, sans-serif">40K</text>
    <line x1="60" y1="86.68966243614727" x2="770" y2="86.68966243614727" class="chart-grid" stroke-opacity="0.3" />
    <text x="778" y="90.68966243614727" text-anchor="start" class="chart-muted" font-size="11" font-family="-apple-system, BlinkMacSystemFont, 'Segoe UI', Helvetica, Arial, sans-serif">50K</text>
    <line x1="60" y1="34.02759492337668" x2="770" y2="34.02759492337668" class="chart-grid" stroke-opacity="0.3" />
    <text x="778" y="38.02759492337668" text-anchor="start" class="chart-muted" font-size="11" font-family="-apple-system, BlinkMacSystemFont, 'Segoe UI', Helvetica, Arial, sans-serif">60K</text>
  </g>
  <g class="milestones">
    
  </g>
  <g class="x-axis">
    <text x="60" y="370" text-anchor="middle" class="chart-muted" font-size="11" font-family="-apple-system, BlinkMacSystemFont, 'Segoe UI', Helvetica, Arial, sans-serif">2024</text>
    <text x="353.7931034482759" y="370" text-anchor="middle" class="chart-muted" font-size="11" font-family="-apple-system, BlinkMacSystemFont, 'Segoe UI', Helvetica, Arial, sans-serif">2025</text>
    <text x="647.5862068965517" y="370" text-anchor="middle" class="chart-muted" font-size="11" font-family="-apple-system, BlinkMacSystemFont, 'Segoe UI', Helvetica, Arial, sans-serif">2026</text>
  </g>
  <line x1="770" y1="50" x2="770" y2="350" class="chart-axis" stroke-width="1" />
  <line x1="60" y1="350" x2="770" y2="350" class="chart-axis" stroke-width="1" />
  <path d="M60,350 L60,349.9315393122334 C63.264367816091955,349.00468692400864 77.95402298850574,348.5883055102077 84.48275862068965,342.9801464005477 C91.01149425287356,337.3719872908877 102.43678160919539,315.3602963118999 108.9655172413793,307.8703459897836 C115.49425287356321,300.38039566766724 126.91954022988504,290.5501430652834 133.44827586206895,286.80551898467536 C139.97701149425285,283.0608949040673 151.40229885057468,281.6583285059771 157.9310344827586,279.785665385223 C164.45977011494253,277.9130022644689 175.88505747126436,274.10869450734634 182.41379310344828,272.76054557901944 C188.9425287356322,271.41239665069253 200.36781609195404,270.61052890269804 206.89655172413794,269.67454842277107 C213.42528735632183,268.7385679428441 224.8505747126437,266.26520617199435 231.3793103448276,265.74069197956715 C237.90804597701148,265.74069197956715 249.33333333333334,265.74069197956715 255.86206896551724,265.74069197956715 C262.39080459770116,264.8047114996402 273.81609195402297,265.74069197956715 280.34482758620686,258.7208383801148 C286.87356321839076,250.2949075780715 298.2988505747127,210.97214176628574 304.82758620689657,202.54621096424245 C311.35632183908046,195.52635736479013 322.7816091954023,197.39902048554424 329.3103448275862,195.52635736479013 C335.8390804597701,193.65369424403602 347.264367816092,190.37390067934066 353.7931034482759,188.50123755858655 C360.32183908045977,186.62857443783244 371.7471264367816,182.4173644390612 378.2758620689655,181.48138395913423 C384.8045977011494,181.48138395913423 396.2298850574713,181.48138395913423 402.7586206896552,181.48138395913423 C409.28735632183907,180.54540347920727 420.71264367816093,175.85672406832026 427.2413793103448,174.46153035968192 C433.7701149425287,173.06633665104357 445.1954022988506,171.9541137851739 451.7241379310345,171.01743114434674 C458.2528735632184,170.0807485035196 469.67816091954023,167.91387996559413 476.2068965517241,167.43641055347834 C482.735632183908,167.43641055347834 494.1609195402299,167.43641055347834 500.6896551724138,167.43641055347834 C507.2183908045977,166.50043007355137 518.6436781609195,164.16118103463407 525.1724137931035,160.416556954026 C531.7011494252874,156.67193287341792 543.1264367816092,143.08020432882196 549.6551724137931,139.3517299489178 C556.1839080459771,135.62325556901365 567.6091954022988,134.292660663191 574.1379310344828,132.45299910474486 C580.6666666666667,130.61333754629874 592.0919540229885,127.39392981901804 598.6206896551724,125.55426826057192 C605.1494252873564,123.71460670212579 616.5747126436781,120.49519897484508 623.1034482758621,118.65553741639897 C629.632183908046,116.81587585795286 641.0574712643678,113.595765969772 647.5862068965517,111.75680657222605 C654.1149425287357,109.9178471746801 665.5402298850574,106.70230133235029 672.0689655172414,104.86334193480434 C678.5977011494253,103.02438253725839 690.0229885057471,99.80427264907752 696.551724137931,97.9646110906314 C703.080459770115,96.12494953218527 714.5057471264367,92.90554180490456 721.0344827586207,91.06588024645845 C727.5632183908046,89.22621868801234 738.9885057471264,86.00681096073166 745.5172413793103,84.16714940228553 C752.0459770114943,82.3274878438394 766.735632183908,78.18824933733562 770,77.26841855811256 L770,350 L60,350 Z" fill="#6b63ff" fill-opacity="0.1" />
  <path d="M60,350 L60,349.9315393122334 C63.264367816091955,349.00468692400864 77.95402298850574,348.5883055102077 84.48275862068965,342.9801464005477 C91.01149425287356,337.3719872908877 102.43678160919539,315.3602963118999 108.9655172413793,307.8703459897836 C115.49425287356321,300.38039566766724 126.91954022988504,290.5501430652834 133.44827586206895,286.80551898467536 C139.97701149425285,283.0608949040673 151.40229885057468,281.6583285059771 157.9310344827586,279.785665385223 C164.45977011494253,277.9130022644689 175.88505747126436,274.10869450734634 182.41379310344828,272.76054557901944 C188.9425287356322,271.41239665069253 200.36781609195404,270.61052890269804 206.89655172413794,269.67454842277107 C213.42528735632183,268.7385679428441 224.8505747126437,266.26520617199435 231.3793103448276,265.74069197956715 C237.90804597701148,265.74069197956715 249.33333333333334,265.74069197956715 255.86206896551724,265.74069197956715 C262.39080459770116,264.8047114996402 273.81609195402297,265.74069197956715 280.34482758620686,258.7208383801148 C286.87356321839076,250.2949075780715 298.2988505747127,210.97214176628574 304.82758620689657,202.54621096424245 C311.35632183908046,195.52635736479013 322.7816091954023,197.39902048554424 329.3103448275862,195.52635736479013 C335.8390804597701,193.65369424403602 347.264367816092,190.37390067934066 353.7931034482759,188.50123755858655 C360.32183908045977,186.62857443783244 371.7471264367816,182.4173644390612 378.2758620689655,181.48138395913423 C384.8045977011494,181.48138395913423 396.2298850574713,181.48138395913423 402.7586206896552,181.48138395913423 C409.28735632183907,180.54540347920727 420.71264367816093,175.85672406832026 427.2413793103448,174.46153035968192 C433.7701149425287,173.06633665104357 445.1954022988506,171.9541137851739 451.7241379310345,171.01743114434674 C458.2528735632184,170.0807485035196 469.67816091954023,167.91387996559413 476.2068965517241,167.43641055347834 C482.735632183908,167.43641055347834 494.1609195402299,167.43641055347834 500.6896551724138,167.43641055347834 C507.2183908045977,166.50043007355137 518.6436781609195,164.16118103463407 525.1724137931035,160.416556954026 C531.7011494252874,156.67193287341792 543.1264367816092,143.08020432882196 549.6551724137931,139.3517299489178 C556.1839080459771,135.62325556901365 567.6091954022988,134.292660663191 574.1379310344828,132.45299910474486 C580.6666666666667,130.61333754629874 592.0919540229885,127.39392981901804 598.6206896551724,125.55426826057192 C605.1494252873564,123.71460670212579 616.5747126436781,120.49519897484508 623.1034482758621,118.65553741639897 C629.632183908046,116.81587585795286 641.0574712643678,113.595765969772 647.5862068965517,111.75680657222605 C654.1149425287357,109.9178471746801 665.5402298850574,106.70230133235029 672.0689655172414,104.86334193480434 C678.5977011494253,103.02438253725839 690.0229885057471,99.80427264907752 696.551724137931,97.9646110906314 C703.080459770115,96.12494953218527 714.5057471264367,92.90554180490456 721.0344827586207,91.06588024645845 C727.5632183908046,89.22621868801234 738.9885057471264,86.00681096073166 745.5172413793103,84.16714940228553 C752.0459770114943,82.3274878438394 766.735632183908,78.18824933733562 770,77.26841855811256" fill="none" stroke="#6b63ff" stroke-width="2.5" class="data-line-0" />
  <g class="points">
    
    <circle cx="60" cy="349.9315393122334" r="4" fill="#6b63ff" class="data-point" style="animation-delay: 1.50s" />
    <circle cx="84.48275862068965" cy="342.9801464005477" r="4" fill="#6b63ff" class="data-point" style="animation-delay: 1.55s" />
    <circle cx="108.9655172413793" cy="307.8703459897836" r="4" fill="#6b63ff" class="data-point" style="animation-delay: 1.60s" />
    <circle cx="133.44827586206895" cy="286.80551898467536" r="4" fill="#6b63ff" class="data-point" style="animation-delay: 1.65s" />
    <circle cx="157.9310344827586" cy="279.785665385223" r="4" fill="#6b63ff" class="data-point" style="animation-delay: 1.70s" />
    <circle cx="182.41379310344828" cy="272.76054557901944" r="4" fill="#6b63ff" class="data-point" style="animation-delay: 1.75s" />
    <circle cx="206.89655172413794" cy="269.67454842277107" r="4" fill="#6b63ff" class="data-point" style="animation-delay: 1.80s" />
    <circle cx="231.3793103448276" cy="265.74069197956715" r="4" fill="#6b63ff" class="data-point" style="animation-delay: 1.85s" />
    <circle cx="255.86206896551724" cy="265.74069197956715" r="4" fill="#6b63ff" class="data-point" style="animation-delay: 1.90s" />
    <circle cx="280.34482758620686" cy="258.7208383801148" r="4" fill="#6b63ff" class="data-point" style="animation-delay: 1.95s" />
    <circle cx="304.82758620689657" cy="202.54621096424245" r="4" fill="#6b63ff" class="data-point" style="animation-delay: 2.00s" />
    <circle cx="329.3103448275862" cy="195.52635736479013" r="4" fill="#6b63ff" class="data-point" style="animation-delay: 2.05s" />
    <circle cx="353.7931034482759" cy="188.50123755858655" r="4" fill="#6b63ff" class="data-point" style="animation-delay: 2.10s" />
    <circle cx="378.2758620689655" cy="181.48138395913423" r="4" fill="#6b63ff" class="data-point" style="animation-delay: 2.15s" />
    <circle cx="402.7586206896552" cy="181.48138395913423" r="4" fill="#6b63ff" class="data-point" style="animation-delay: 2.20s" />
    <circle cx="427.2413793103448" cy="174.46153035968192" r="4" fill="#6b63ff" class="data-point" style="animation-delay: 2.25s" />
    <circle cx="451.7241379310345" cy="171.01743114434674" r="4" fill="#6b63ff" class="data-point" style="animation-delay: 2.30s" />
    <circle cx="476.2068965517241" cy="167.43641055347834" r="4" fill="#6b63ff" class="data-point" style="animation-delay: 2.35s" />
    <circle cx="500.6896551724138" cy="167.43641055347834" r="4" fill="#6b63ff" class="data-point" style="animation-delay: 2.40s" />
    <circle cx="525.1724137931035" cy="160.416556954026" r="4" fill="#6b63ff" class="data-point" style="animation-delay: 2.45s" />
    <circle cx="549.6551724137931" cy="139.3517299489178" r="4" fill="#6b63ff" class="data-point" style="animation-delay: 2.50s" />
    <circle cx="574.1379310344828" cy="132.45299910474486" r="4" fill="#6b63ff" class="data-point" style="animation-delay: 2.55s" />
    <circle cx="598.6206896551724" cy="125.55426826057192" r="4" fill="#6b63ff" class="data-point" style="animation-delay: 2.60s" />
    <circle cx="623.1034482758621" cy="118.65553741639897" r="4" fill="#6b63ff" class="data-point" style="animation-delay: 2.65s" />
    <circle cx="647.5862068965517" cy="111.75680657222605" r="4" fill="#6b63ff" class="data-point" style="animation-delay: 2.70s" />
    <circle cx="672.0689655172414" cy="104.86334193480434" r="4" fill="#6b63ff" class="data-point" style="animation-delay: 2.75s" />
    <circle cx="696.551724137931" cy="97.9646110906314" r="4" fill="#6b63ff" class="data-point" style="animation-delay: 2.80s" />
    <circle cx="721.0344827586207" cy="91.06588024645845" r="4" fill="#6b63ff" class="data-point" style="animation-delay: 2.85s" />
    <circle cx="745.5172413793103" cy="84.16714940228553" r="4" fill="#6b63ff" class="data-point" style="animation-delay: 2.90s" />
    <circle cx="770" cy="77.26841855811256" r="4" fill="#6b63ff" class="data-point" style="animation-delay: 2.95s" />
  </g>
</svg>