<svg xmlns="http://www.w3.org/2000/svg" viewBox="0 0 800 400" width="800" height="400">
  <style>
    @keyframes drawLine {
      to { stroke-dashoffset: 0; }
    }
    @keyframes fadeInPoint {
      from { opacity: 0; }
      to { opacity: 1; }
    }
    .data-line-0 {
      stroke-dasharray: 1189;
      stroke-dashoffset: 1189;
      animation: drawLine 2s ease-out forwards;
    }
    .data-point {
      opacity: 0;
      animation: fadeInPoint 0.5s ease-out forwards;
    }
    .chart-bg { fill: #fff; }
    .chart-text { fill: #24292e; }
    .chart-muted { fill: #6a737d; }
    .chart-grid { stroke: #eee; }
    .chart-axis { stroke: #6a737d; }
    @media (prefers-color-scheme: dark) {
      .chart-bg { fill: #0d1117; }
      .chart-text { fill: #e6edf3; }
      .chart-muted { fill: #8b949e; }
      .chart-grid { stroke: #21262d; }
      .chart-axis { stroke: #8b949e; }
    }
  </style>
  <rect width="800" height="400" class="chart-bg" />
  <text x="400" y="14" text-anchor="middle" class="chart-text" font-size="16" font-weight="bold" font-family="-apple-system, BlinkMacSystemFont, 'Segoe UI', Helvetica, Arial, sans-serif">dockur/windows Star History</text>
  
  <g class="grid">
    <line x1="60" y1="350" x2="770" y2="350" class="chart-grid" stroke-opacity="0.3" />
    <text x="778" y="354" text-anchor="start" class="chart-muted" font-size="11" font-family="-apple-system, BlinkMacSystemFont, 'Segoe UI', Helvetica, Arial, sans-serif">0</text>
    <line x1="60" y1="300" x2="770" y2="300" class="chart-grid" stroke-opacity="0.3" />
    <text x="778" y="304" text-anchor="start" class="chart-muted" font-size="11" font-family="-apple-system, BlinkMacSystemFont, 'Segoe UI', Helvetica, Arial, sans-serif">10K</text>
    <line x1="60" y1="250" x2="770" y2="250" class="chart-grid" stroke-opacity="0.3" />
    <text x="778" y="254" text-anchor="start" class="chart-muted" font-size="11" font-family="-apple-system, BlinkMacSystemFont, 'Segoe UI', Helvetica, Arial, sans-serif">20K</text>
    <line x1="60" y1="200" x2="770" y2="200" class="chart-grid" stroke-opacity="0.3" />
    <text x="778" y="204" text-anchor="start" class="chart-muted" font-size="11" font-family="-apple-system, BlinkMacSystemFont, 'Segoe UI', Helvetica, Arial, sans-serif">30K</text>
    <line x1="60" y1="150" x2="770" y2="150" class="chart-grid" stroke-opacity="0.3" />
    <text x="778" y="154" text-anchor="start" class="chart-muted" font-size="11" font-family="-apple-system, BlinkMacSystemFont, 'Segoe UI', Helvetica, Arial, sans-serif">40K</text>
    <line x1="60" y1="100" x2="770" y2="100" class="chart-grid" stroke-opacity="0.3" />
    <text x="778" y="104" text-anchor="start" class="chart-muted" font-size="11" font-family="-apple-system, BlinkMacSystemFont, 'Segoe UI', Helvetica, Arial, sans-serif">50K</text>
    <line x1="60" y1="50" x2="770" y2="50" class="chart-grid" stroke-opacity="0.3" />
    <text x="778" y="54" text-anchor="start" class="chart-muted" font-size="11" font-family="-apple-system, BlinkMacSystemFont, 'Segoe UI', Helvetica, Arial, sans-serif">60K</text>
  </g>
  <g class="milestones">
    
  </g>
  <g class="x-axis">
    <text x="60" y="370" text-anchor="middle" class="chart-muted" font-size="11" font-family="-apple-system, BlinkMacSystemFont, 'Segoe UI', Helvetica, Arial, sans-serif">2024</text>
    <text x="353.7931034482759" y="370" text-anchor="middle" class="chart-muted" font-size="11" font-family="-apple-system, BlinkMacSystemFont, 'Segoe UI', Helvetica, Arial, sans-serif">2025</text>
    <text x="647.5862068965517" y="370" text-anchor="middle" class="chart-muted" font-size="11" font-family="-apple-system, BlinkMacSystemFont, 'Segoe UI', Helvetica, Arial, sans-serif">2026</text>
  </g>
  <line x1="770" y1="50" x2="770" y2="350" class="chart-axis" stroke-width="1" />
  <line x1="60" y1="350" x2="770" y2="350" class="chart-axis" stroke-width="1" />
  <path d="M60,350 L60,349.935 C63.264367816091955,349.055 77.95402298850574,348.6596666666666 84.48275862068965,343.335 C91.01149425287356,338.01033333333334 102.43678160919539,317.11133333333333 108.9655172413793,310 C115.49425287356321,302.88866666666667 126.91954022988504,293.55533333333335 133.44827586206895,290 C139.97701149425285,286.44466666666665 151.40229885057468,285.113 157.9310344827586,283.335 C164.45977011494253,281.55699999999996 175.88505747126436,278.01633333333336 182.41379310344828,276.665 C188.9425287356322,275.3136666666667 200.36781609195404,274.08866666666665 206.89655172413794,273.2 C213.42528735632183,272.3113333333333 224.8505747126437,270.4266666666667 231.3793103448276,270 C237.90804597701148,270 249.33333333333334,270 255.86206896551724,270 C262.39080459770116,269.11133333333333 273.81609195402297,270 280.34482758620686,263.33500000000004 C286.87356321839076,255.33500000000004 298.2988505747127,218 304.82758620689657,210 C311.35632183908046,203.335 322.7816091954023,205.113 329.3103448275862,203.335 C335.8390804597701,201.55700000000002 347.264367816092,198.44299999999998 353.7931034482759,196.665 C360.32183908045977,194.887 371.7471264367816,190.88866666666667 378.2758620689655,190 C384.8045977011494,190 396.2298850574713,190 402.7586206896552,190 C409.28735632183907,189.11133333333333 420.71264367816093,184.793 427.2413793103448,183.335 C433.7701149425287,181.877 445.1954022988506,179.95433333333332 451.7241379310345,179.065 C458.2528735632184,178.17566666666667 469.67816091954023,177.09166666666667 476.2068965517241,176.665 C482.735632183908,176.23833333333332 494.1609195402299,176.665 500.6896551724138,175.86499999999998 C507.2183908045977,174.97633333333332 518.6436781609195,173.44866666666667 525.1724137931035,170 C531.7011494252874,166.55133333333333 543.1264367816092,153.55933333333334 549.6551724137931,150 C556.1839080459771,146.44066666666666 567.6091954022988,145.091 574.1379310344828,143.305 C580.6666666666667,141.519 592.0919540229885,138.391 598.6206896551724,136.605 C605.1494252873564,134.819 616.5747126436781,131.696 623.1034482758621,129.91 C629.632183908046,128.124 641.0574712643678,124.99600000000001 647.5862068965517,123.21000000000001 C654.1149425287357,121.424 665.5402298850574,118.30100000000002 672.0689655172414,116.51500000000001 C678.5977011494253,114.72900000000001 690.0229885057471,111.601 696.551724137931,109.815 C703.080459770115,108.029 714.5057471264367,104.906 721.0344827586207,103.12 C727.5632183908046,101.334 738.9885057471264,98.20599999999999 745.5172413793103,96.41999999999999 C752.0459770114943,94.63399999999999 766.735632183908,90.61766666666664 770,89.72499999999997 L770,350 L60,350 Z" fill="#6b63ff" fill-opacity="0.1" />
  <path d="M60,350 L60,349.935 C63.264367816091955,349.055 77.95402298850574,348.6596666666666 84.48275862068965,343.335 C91.01149425287356,338.01033333333334 102.43678160919539,317.11133333333333 108.9655172413793,310 C115.49425287356321,302.88866666666667 126.91954022988504,293.55533333333335 133.44827586206895,290 C139.97701149425285,286.44466666666665 151.40229885057468,285.113 157.9310344827586,283.335 C164.45977011494253,281.55699999999996 175.88505747126436,278.01633333333336 182.41379310344828,276.665 C188.9425287356322,275.3136666666667 200.36781609195404,274.08866666666665 206.89655172413794,273.2 C213.42528735632183,272.3113333333333 224.8505747126437,270.4266666666667 231.3793103448276,270 C237.90804597701148,270 249.33333333333334,270 255.86206896551724,270 C262.39080459770116,269.11133333333333 273.81609195402297,270 280.34482758620686,263.33500000000004 C286.87356321839076,255.33500000000004 298.2988505747127,218 304.82758620689657,210 C311.35632183908046,203.335 322.7816091954023,205.113 329.3103448275862,203.335 C335.8390804597701,201.55700000000002 347.264367816092,198.44299999999998 353.7931034482759,196.665 C360.32183908045977,194.887 371.7471264367816,190.88866666666667 378.2758620689655,190 C384.8045977011494,190 396.2298850574713,190 402.7586206896552,190 C409.28735632183907,189.11133333333333 420.71264367816093,184.793 427.2413793103448,183.335 C433.7701149425287,181.877 445.1954022988506,179.95433333333332 451.7241379310345,179.065 C458.2528735632184,178.17566666666667 469.67816091954023,177.09166666666667 476.2068965517241,176.665 C482.735632183908,176.23833333333332 494.1609195402299,176.665 500.6896551724138,175.86499999999998 C507.2183908045977,174.97633333333332 518.6436781609195,173.44866666666667 525.1724137931035,170 C531.7011494252874,166.55133333333333 543.1264367816092,153.55933333333334 549.6551724137931,150 C556.1839080459771,146.44066666666666 567.6091954022988,145.091 574.1379310344828,143.305 C580.6666666666667,141.519 592.0919540229885,138.391 598.6206896551724,136.605 C605.1494252873564,134.819 616.5747126436781,131.696 623.1034482758621,129.91 C629.632183908046,128.124 641.0574712643678,124.99600000000001 647.5862068965517,123.21000000000001 C654.1149425287357,121.424 665.5402298850574,118.30100000000002 672.0689655172414,116.51500000000001 C678.5977011494253,114.72900000000001 690.0229885057471,111.601 696.551724137931,109.815 C703.080459770115,108.029 714.5057471264367,104.906 721.0344827586207,103.12 C727.5632183908046,101.334 738.9885057471264,98.20599999999999 745.5172413793103,96.41999999999999 C752.0459770114943,94.63399999999999 766.735632183908,90.61766666666664 770,89.72499999999997" fill="none" stroke="#6b63ff" stroke-width="2.5" class="data-line-0" />
  <g class="points">
    
    <circle cx="60" cy="349.935" r="4" fill="#6b63ff" class="data-point" style="animation-delay: 1.50s" />
    <circle cx="84.48275862068965" cy="343.335" r="4" fill="#6b63ff" class="data-point" style="animation-delay: 1.55s" />
    <circle cx="108.9655172413793" cy="310" r="4" fill="#6b63ff" class="data-point" style="animation-delay: 1.60s" />
    <circle cx="133.44827586206895" cy="290" r="4" fill="#6b63ff" class="data-point" style="animation-delay: 1.65s" />
    <circle cx="157.9310344827586" cy="283.335" r="4" fill="#6b63ff" class="data-point" style="animation-delay: 1.70s" />
    <circle cx="182.41379310344828" cy="276.665" r="4" fill="#6b63ff" class="data-point" style="animation-delay: 1.75s" />
    <circle cx="206.89655172413794" cy="273.2" r="4" fill="#6b63ff" class="data-point" style="animation-delay: 1.80s" />
    <circle cx="231.3793103448276" cy="270" r="4" fill="#6b63ff" class="data-point" style="animation-delay: 1.85s" />
    <circle cx="255.86206896551724" cy="270" r="4" fill="#6b63ff" class="data-point" style="animation-delay: 1.90s" />
    <circle cx="280.34482758620686" cy="263.33500000000004" r="4" fill="#6b63ff" class="data-point" style="animation-delay: 1.95s" />
    <circle cx="304.82758620689657" cy="210" r="4" fill="#6b63ff" class="data-point" style="animation-delay: 2.00s" />
    <circle cx="329.3103448275862" cy="203.335" r="4" fill="#6b63ff" class="data-point" style="animation-delay: 2.05s" />
    <circle cx="353.7931034482759" cy="196.665" r="4" fill="#6b63ff" class="data-point" style="animation-delay: 2.10s" />
    <circle cx="378.2758620689655" cy="190" r="4" fill="#6b63ff" class="data-point" style="animation-delay: 2.15s" />
    <circle cx="402.7586206896552" cy="190" r="4" fill="#6b63ff" class="data-point" style="animation-delay: 2.20s" />
    <circle cx="427.2413793103448" cy="183.335" r="4" fill="#6b63ff" class="data-point" style="animation-delay: 2.25s" />
    <circle cx="451.7241379310345" cy="179.065" r="4" fill="#6b63ff" class="data-point" style="animation-delay: 2.30s" />
    <circle cx="476.2068965517241" cy="176.665" r="4" fill="#6b63ff" class="data-point" style="animation-delay: 2.35s" />
    <circle cx="500.6896551724138" cy="175.86499999999998" r="4" fill="#6b63ff" class="data-point" style="animation-delay: 2.40s" />
    <circle cx="525.1724137931035" cy="170" r="4" fill="#6b63ff" class="data-point" style="animation-delay: 2.45s" />
    <circle cx="549.6551724137931" cy="150" r="4" fill="#6b63ff" class="data-point" style="animation-delay: 2.50s" />
    <circle cx="574.1379310344828" cy="143.305" r="4" fill="#6b63ff" class="data-point" style="animation-delay: 2.55s" />
    <circle cx="598.6206896551724" cy="136.605" r="4" fill="#6b63ff" class="data-point" style="animation-delay: 2.60s" />
    <circle cx="623.1034482758621" cy="129.91" r="4" fill="#6b63ff" class="data-point" style="animation-delay: 2.65s" />
    <circle cx="647.5862068965517" cy="123.21000000000001" r="4" fill="#6b63ff" class="data-point" style="animation-delay: 2.70s" />
    <circle cx="672.0689655172414" cy="116.51500000000001" r="4" fill="#6b63ff" class="data-point" style="animation-delay: 2.75s" />
    <circle cx="696.551724137931" cy="109.815" r="4" fill="#6b63ff" class="data-point" style="animation-delay: 2.80s" />
    <circle cx="721.0344827586207" cy="103.12" r="4" fill="#6b63ff" class="data-point" style="animation-delay: 2.85s" />
    <circle cx="745.5172413793103" cy="96.41999999999999" r="4" fill="#6b63ff" class="data-point" style="animation-delay: 2.90s" />
    <circle cx="770" cy="89.72499999999997" r="4" fill="#6b63ff" class="data-point" style="animation-delay: 2.95s" />
  </g>
</svg>