<svg xmlns="http://www.w3.org/2000/svg" viewBox="0 0 800 400" width="800" height="400">
  <style>
    @keyframes drawLine {
      to { stroke-dashoffset: 0; }
    }
    @keyframes fadeInPoint {
      from { opacity: 0; }
      to { opacity: 1; }
    }
    .data-line-0 {
      stroke-dasharray: 1167;
      stroke-dashoffset: 1167;
      animation: drawLine 2s ease-out forwards;
    }
    .data-point {
      opacity: 0;
      animation: fadeInPoint 0.5s ease-out forwards;
    }
    .chart-bg { fill: #fff; }
    .chart-text { fill: #24292e; }
    .chart-muted { fill: #6a737d; }
    .chart-grid { stroke: #eee; }
    .chart-axis { stroke: #6a737d; }
    @media (prefers-color-scheme: dark) {
      .chart-bg { fill: #0d1117; }
      .chart-text { fill: #e6edf3; }
      .chart-muted { fill: #8b949e; }
      .chart-grid { stroke: #21262d; }
      .chart-axis { stroke: #8b949e; }
    }
  </style>
  <rect width="800" height="400" class="chart-bg" />
  <text x="400" y="14" text-anchor="middle" class="chart-text" font-size="16" font-weight="bold" font-family="-apple-system, BlinkMacSystemFont, 'Segoe UI', Helvetica, Arial, sans-serif">dockur/dnsmasq Star History</text>
  
  <g class="grid">
    <line x1="60" y1="350" x2="770" y2="350" class="chart-grid" stroke-opacity="0.3" />
    <text x="778" y="354" text-anchor="start" class="chart-muted" font-size="11" font-family="-apple-system, BlinkMacSystemFont, 'Segoe UI', Helvetica, Arial, sans-serif">0</text>
    <line x1="60" y1="257.4074074074074" x2="770" y2="257.4074074074074" class="chart-grid" stroke-opacity="0.3" />
    <text x="778" y="261.4074074074074" text-anchor="start" class="chart-muted" font-size="11" font-family="-apple-system, BlinkMacSystemFont, 'Segoe UI', Helvetica, Arial, sans-serif">50</text>
    <line x1="60" y1="164.81481481481484" x2="770" y2="164.81481481481484" class="chart-grid" stroke-opacity="0.3" />
    <text x="778" y="168.81481481481484" text-anchor="start" class="chart-muted" font-size="11" font-family="-apple-system, BlinkMacSystemFont, 'Segoe UI', Helvetica, Arial, sans-serif">100</text>
    <line x1="60" y1="72.22222222222223" x2="770" y2="72.22222222222223" class="chart-grid" stroke-opacity="0.3" />
    <text x="778" y="76.22222222222223" text-anchor="start" class="chart-muted" font-size="11" font-family="-apple-system, BlinkMacSystemFont, 'Segoe UI', Helvetica, Arial, sans-serif">150</text>
  </g>
  <g class="milestones">
    
  </g>
  <g class="x-axis">
    <text x="60" y="370" text-anchor="middle" class="chart-muted" font-size="11" font-family="-apple-system, BlinkMacSystemFont, 'Segoe UI', Helvetica, Arial, sans-serif">2024</text>
    <text x="329.3103448275862" y="370" text-anchor="middle" class="chart-muted" font-size="11" font-family="-apple-system, BlinkMacSystemFont, 'Segoe UI', Helvetica, Arial, sans-serif">2025</text>
    <text x="623.1034482758621" y="370" text-anchor="middle" class="chart-muted" font-size="11" font-family="-apple-system, BlinkMacSystemFont, 'Segoe UI', Helvetica, Arial, sans-serif">2026</text>
  </g>
  <line x1="770" y1="50" x2="770" y2="350" class="chart-axis" stroke-width="1" />
  <line x1="60" y1="350" x2="770" y2="350" class="chart-axis" stroke-width="1" />
  <path d="M60,350 L60,348.14814814814815 C68.16091954022988,343.2098765432099 76.32183908045977,333.3333333333333 84.48275862068965,333.3333333333333 C92.64367816091954,333.3333333333333 100.80459770114942,333.3333333333333 108.9655172413793,333.3333333333333 C117.12643678160919,333.3333333333333 125.28735632183907,329.9382716049383 133.44827586206895,327.77777777777777 C141.60919540229884,325.61728395061726 149.77011494252872,322.22222222222223 157.9310344827586,320.3703703703704 C166.0919540229885,318.51851851851853 174.2528735632184,316.6666666666667 182.41379310344828,316.6666666666667 C190.57471264367817,316.6666666666667 198.73563218390805,316.6666666666667 206.89655172413794,316.6666666666667 C215.05747126436782,316.6666666666667 223.2183908045977,310.0255610079651 231.3793103448276,309.25925925925924 C239.54022988505747,308.49295751055337 247.70114942528735,309.09327125456036 255.86206896551724,307.4074074074074 C264.0229885057471,305.7215435602544 272.183908045977,294.44444444444446 280.34482758620686,288.8888888888889 C288.50574712643675,283.33333333333337 296.6666666666667,278.08641975308643 304.82758620689657,274.0740740740741 C312.98850574712645,270.0617283950617 321.14942528735634,267.90123456790127 329.3103448275862,264.81481481481484 C337.4712643678161,261.7283950617284 345.632183908046,258.3333333333333 353.7931034482759,255.55555555555554 C361.95402298850576,252.77777777777777 370.11494252873564,250.92592592592592 378.2758620689655,248.14814814814815 C386.4367816091954,245.37037037037038 394.5977011494253,243.2098765432099 402.7586206896552,238.8888888888889 C410.91954022988506,234.56790123456793 419.08045977011494,225.92592592592592 427.2413793103448,222.22222222222223 C435.4022988505747,218.51851851851853 443.5632183908046,219.44444444444446 451.7241379310345,216.66666666666669 C459.88505747126436,213.8888888888889 468.04597701149424,209.56790123456793 476.2068965517241,205.55555555555557 C484.367816091954,201.54320987654322 492.5287356321839,197.2222222222222 500.6896551724138,192.59259259259258 C508.85057471264366,187.96296296296293 517.0114942528736,183.33333333333334 525.1724137931035,177.77777777777777 C533.3333333333334,172.22222222222223 541.4942528735633,165.43209876543207 549.6551724137931,159.25925925925924 C557.816091954023,153.0864197530864 565.9770114942529,144.2543825853723 574.1379310344828,140.74074074074073 C582.2988505747127,137.22709889610917 590.4597701149426,138.20825098524753 598.6206896551724,137.037037037037 C606.7816091954023,135.8658230888265 614.9425287356322,134.87654320987656 623.1034482758621,133.33333333333334 C631.264367816092,131.79012345679013 639.4252873563219,129.32098765432102 647.5862068965517,127.7777777777778 C655.7471264367816,126.23456790123458 663.9080459770115,126.85185185185186 672.0689655172414,124.07407407407408 C680.2298850574713,121.29629629629629 688.3908045977012,113.21929621789005 696.551724137931,111.11111111111111 C704.7126436781609,109.00292600433218 712.8735632183908,110.45256367275474 721.0344827586207,107.40740740740739 C729.1954022988506,104.36225114206005 737.3563218390805,91.97530864197527 745.5172413793103,87.03703703703701 C753.6781609195402,82.09876543209874 761.8390804597701,80.86419753086419 770,77.77777777777777 L770,350 L60,350 Z" fill="#6b63ff" fill-opacity="0.1" />
  <path d="M60,350 L60,348.14814814814815 C68.16091954022988,343.2098765432099 76.32183908045977,333.3333333333333 84.48275862068965,333.3333333333333 C92.64367816091954,333.3333333333333 100.80459770114942,333.3333333333333 108.9655172413793,333.3333333333333 C117.12643678160919,333.3333333333333 125.28735632183907,329.9382716049383 133.44827586206895,327.77777777777777 C141.60919540229884,325.61728395061726 149.77011494252872,322.22222222222223 157.9310344827586,320.3703703703704 C166.0919540229885,318.51851851851853 174.2528735632184,316.6666666666667 182.41379310344828,316.6666666666667 C190.57471264367817,316.6666666666667 198.73563218390805,316.6666666666667 206.89655172413794,316.6666666666667 C215.05747126436782,316.6666666666667 223.2183908045977,310.0255610079651 231.3793103448276,309.25925925925924 C239.54022988505747,308.49295751055337 247.70114942528735,309.09327125456036 255.86206896551724,307.4074074074074 C264.0229885057471,305.7215435602544 272.183908045977,294.44444444444446 280.34482758620686,288.8888888888889 C288.50574712643675,283.33333333333337 296.6666666666667,278.08641975308643 304.82758620689657,274.0740740740741 C312.98850574712645,270.0617283950617 321.14942528735634,267.90123456790127 329.3103448275862,264.81481481481484 C337.4712643678161,261.7283950617284 345.632183908046,258.3333333333333 353.7931034482759,255.55555555555554 C361.95402298850576,252.77777777777777 370.11494252873564,250.92592592592592 378.2758620689655,248.14814814814815 C386.4367816091954,245.37037037037038 394.5977011494253,243.2098765432099 402.7586206896552,238.8888888888889 C410.91954022988506,234.56790123456793 419.08045977011494,225.92592592592592 427.2413793103448,222.22222222222223 C435.4022988505747,218.51851851851853 443.5632183908046,219.44444444444446 451.7241379310345,216.66666666666669 C459.88505747126436,213.8888888888889 468.04597701149424,209.56790123456793 476.2068965517241,205.55555555555557 C484.367816091954,201.54320987654322 492.5287356321839,197.2222222222222 500.6896551724138,192.59259259259258 C508.85057471264366,187.96296296296293 517.0114942528736,183.33333333333334 525.1724137931035,177.77777777777777 C533.3333333333334,172.22222222222223 541.4942528735633,165.43209876543207 549.6551724137931,159.25925925925924 C557.816091954023,153.0864197530864 565.9770114942529,144.2543825853723 574.1379310344828,140.74074074074073 C582.2988505747127,137.22709889610917 590.4597701149426,138.20825098524753 598.6206896551724,137.037037037037 C606.7816091954023,135.8658230888265 614.9425287356322,134.87654320987656 623.1034482758621,133.33333333333334 C631.264367816092,131.79012345679013 639.4252873563219,129.32098765432102 647.5862068965517,127.7777777777778 C655.7471264367816,126.23456790123458 663.9080459770115,126.85185185185186 672.0689655172414,124.07407407407408 C680.2298850574713,121.29629629629629 688.3908045977012,113.21929621789005 696.551724137931,111.11111111111111 C704.7126436781609,109.00292600433218 712.8735632183908,110.45256367275474 721.0344827586207,107.40740740740739 C729.1954022988506,104.36225114206005 737.3563218390805,91.97530864197527 745.5172413793103,87.03703703703701 C753.6781609195402,82.09876543209874 761.8390804597701,80.86419753086419 770,77.77777777777777" fill="none" stroke="#6b63ff" stroke-width="2.5" class="data-line-0" />
  <g class="points">
    
    <circle cx="60" cy="348.14814814814815" r="4" fill="#6b63ff" class="data-point" style="animation-delay: 1.50s" />
    <circle cx="84.48275862068965" cy="333.3333333333333" r="4" fill="#6b63ff" class="data-point" style="animation-delay: 1.55s" />
    <circle cx="108.9655172413793" cy="333.3333333333333" r="4" fill="#6b63ff" class="data-point" style="animation-delay: 1.60s" />
    <circle cx="133.44827586206895" cy="327.77777777777777" r="4" fill="#6b63ff" class="data-point" style="animation-delay: 1.65s" />
    <circle cx="157.9310344827586" cy="320.3703703703704" r="4" fill="#6b63ff" class="data-point" style="animation-delay: 1.70s" />
    <circle cx="182.41379310344828" cy="316.6666666666667" r="4" fill="#6b63ff" class="data-point" style="animation-delay: 1.75s" />
    <circle cx="206.89655172413794" cy="316.6666666666667" r="4" fill="#6b63ff" class="data-point" style="animation-delay: 1.80s" />
    <circle cx="231.3793103448276" cy="309.25925925925924" r="4" fill="#6b63ff" class="data-point" style="animation-delay: 1.85s" />
    <circle cx="255.86206896551724" cy="307.4074074074074" r="4" fill="#6b63ff" class="data-point" style="animation-delay: 1.90s" />
    <circle cx="280.34482758620686" cy="288.8888888888889" r="4" fill="#6b63ff" class="data-point" style="animation-delay: 1.95s" />
    <circle cx="304.82758620689657" cy="274.0740740740741" r="4" fill="#6b63ff" class="data-point" style="animation-delay: 2.00s" />
    <circle cx="329.3103448275862" cy="264.81481481481484" r="4" fill="#6b63ff" class="data-point" style="animation-delay: 2.05s" />
    <circle cx="353.7931034482759" cy="255.55555555555554" r="4" fill="#6b63ff" class="data-point" style="animation-delay: 2.10s" />
    <circle cx="378.2758620689655" cy="248.14814814814815" r="4" fill="#6b63ff" class="data-point" style="animation-delay: 2.15s" />
    <circle cx="402.7586206896552" cy="238.8888888888889" r="4" fill="#6b63ff" class="data-point" style="animation-delay: 2.20s" />
    <circle cx="427.2413793103448" cy="222.22222222222223" r="4" fill="#6b63ff" class="data-point" style="animation-delay: 2.25s" />
    <circle cx="451.7241379310345" cy="216.66666666666669" r="4" fill="#6b63ff" class="data-point" style="animation-delay: 2.30s" />
    <circle cx="476.2068965517241" cy="205.55555555555557" r="4" fill="#6b63ff" class="data-point" style="animation-delay: 2.35s" />
    <circle cx="500.6896551724138" cy="192.59259259259258" r="4" fill="#6b63ff" class="data-point" style="animation-delay: 2.40s" />
    <circle cx="525.1724137931035" cy="177.77777777777777" r="4" fill="#6b63ff" class="data-point" style="animation-delay: 2.45s" />
    <circle cx="549.6551724137931" cy="159.25925925925924" r="4" fill="#6b63ff" class="data-point" style="animation-delay: 2.50s" />
    <circle cx="574.1379310344828" cy="140.74074074074073" r="4" fill="#6b63ff" class="data-point" style="animation-delay: 2.55s" />
    <circle cx="598.6206896551724" cy="137.037037037037" r="4" fill="#6b63ff" class="data-point" style="animation-delay: 2.60s" />
    <circle cx="623.1034482758621" cy="133.33333333333334" r="4" fill="#6b63ff" class="data-point" style="animation-delay: 2.65s" />
    <circle cx="647.5862068965517" cy="127.7777777777778" r="4" fill="#6b63ff" class="data-point" style="animation-delay: 2.70s" />
    <circle cx="672.0689655172414" cy="124.07407407407408" r="4" fill="#6b63ff" class="data-point" style="animation-delay: 2.75s" />
    <circle cx="696.551724137931" cy="111.11111111111111" r="4" fill="#6b63ff" class="data-point" style="animation-delay: 2.80s" />
    <circle cx="721.0344827586207" cy="107.40740740740739" r="4" fill="#6b63ff" class="data-point" style="animation-delay: 2.85s" />
    <circle cx="745.5172413793103" cy="87.03703703703701" r="4" fill="#6b63ff" class="data-point" style="animation-delay: 2.90s" />
    <circle cx="770" cy="77.77777777777777" r="4" fill="#6b63ff" class="data-point" style="animation-delay: 2.95s" />
  </g>
</svg>