<svg xmlns="http://www.w3.org/2000/svg" viewBox="0 0 800 400" width="800" height="400">
  <style>
    @keyframes drawLine {
      to { stroke-dashoffset: 0; }
    }
    @keyframes fadeInPoint {
      from { opacity: 0; }
      to { opacity: 1; }
    }
    .data-line-0 {
      stroke-dasharray: 1156;
      stroke-dashoffset: 1156;
      animation: drawLine 2s ease-out forwards;
    }
    .data-point {
      opacity: 0;
      animation: fadeInPoint 0.5s ease-out forwards;
    }
    .chart-bg { fill: #fff; }
    .chart-text { fill: #24292e; }
    .chart-muted { fill: #6a737d; }
    .chart-grid { stroke: #eee; }
    .chart-axis { stroke: #6a737d; }
    @media (prefers-color-scheme: dark) {
      .chart-bg { fill: #0d1117; }
      .chart-text { fill: #e6edf3; }
      .chart-muted { fill: #8b949e; }
      .chart-grid { stroke: #21262d; }
      .chart-axis { stroke: #8b949e; }
    }
  </style>
  <rect width="800" height="400" class="chart-bg" />
  <text x="400" y="14" text-anchor="middle" class="chart-text" font-size="16" font-weight="bold" font-family="-apple-system, BlinkMacSystemFont, 'Segoe UI', Helvetica, Arial, sans-serif">dockur/samba Star History</text>
  
  <g class="grid">
    <line x1="60" y1="350" x2="770" y2="350" class="chart-grid" stroke-opacity="0.3" />
    <text x="778" y="354" text-anchor="start" class="chart-muted" font-size="11" font-family="-apple-system, BlinkMacSystemFont, 'Segoe UI', Helvetica, Arial, sans-serif">0</text>
    <line x1="60" y1="277.09599027946535" x2="770" y2="277.09599027946535" class="chart-grid" stroke-opacity="0.3" />
    <text x="778" y="281.09599027946535" text-anchor="start" class="chart-muted" font-size="11" font-family="-apple-system, BlinkMacSystemFont, 'Segoe UI', Helvetica, Arial, sans-serif">200</text>
    <line x1="60" y1="204.19198055893074" x2="770" y2="204.19198055893074" class="chart-grid" stroke-opacity="0.3" />
    <text x="778" y="208.19198055893074" text-anchor="start" class="chart-muted" font-size="11" font-family="-apple-system, BlinkMacSystemFont, 'Segoe UI', Helvetica, Arial, sans-serif">400</text>
    <line x1="60" y1="131.2879708383961" x2="770" y2="131.2879708383961" class="chart-grid" stroke-opacity="0.3" />
    <text x="778" y="135.2879708383961" text-anchor="start" class="chart-muted" font-size="11" font-family="-apple-system, BlinkMacSystemFont, 'Segoe UI', Helvetica, Arial, sans-serif">600</text>
    <line x1="60" y1="58.383961117861475" x2="770" y2="58.383961117861475" class="chart-grid" stroke-opacity="0.3" />
    <text x="778" y="62.383961117861475" text-anchor="start" class="chart-muted" font-size="11" font-family="-apple-system, BlinkMacSystemFont, 'Segoe UI', Helvetica, Arial, sans-serif">800</text>
  </g>
  <g class="milestones">
    
  </g>
  <g class="x-axis">
    <text x="60" y="370" text-anchor="middle" class="chart-muted" font-size="11" font-family="-apple-system, BlinkMacSystemFont, 'Segoe UI', Helvetica, Arial, sans-serif">2024</text>
    <text x="329.3103448275862" y="370" text-anchor="middle" class="chart-muted" font-size="11" font-family="-apple-system, BlinkMacSystemFont, 'Segoe UI', Helvetica, Arial, sans-serif">2025</text>
    <text x="647.5862068965517" y="370" text-anchor="middle" class="chart-muted" font-size="11" font-family="-apple-system, BlinkMacSystemFont, 'Segoe UI', Helvetica, Arial, sans-serif">2026</text>
  </g>
  <line x1="770" y1="50" x2="770" y2="350" class="chart-axis" stroke-width="1" />
  <line x1="60" y1="350" x2="770" y2="350" class="chart-axis" stroke-width="1" />
  <path d="M60,350 L60,349.6354799513973 C63.264367816091955,348.90643985419194 77.95402298850574,345.5771567436209 84.48275862068965,344.1676792223572 C91.01149425287356,342.7582017010935 102.43678160919539,340.47387606318347 108.9655172413793,339.0643985419198 C115.49425287356321,337.6549210206561 126.91954022988504,334.95747266099636 133.44827586206895,333.59659781287974 C139.97701149425285,332.2357229647631 151.40229885057468,329.92709599027944 157.9310344827586,328.85783718104494 C164.45977011494253,327.78857837181044 175.88505747126436,326.2575941676792 182.41379310344828,325.5771567436209 C188.9425287356322,324.8967193195626 200.36781609195404,324.43499392466583 206.89655172413794,323.7545565006075 C213.42528735632183,323.0741190765492 224.8505747126437,321.7375455650061 231.3793103448276,320.47387606318347 C237.90804597701148,319.21020656136085 249.33333333333334,315.68651275820173 255.86206896551724,314.27703523693805 C262.39080459770116,312.86755771567437 273.81609195402297,313.30498177399755 280.34482758620686,309.90279465370594 C286.87356321839076,306.5006075334143 298.2988505747127,293.037667071689 304.82758620689657,288.76063183475094 C311.35632183908046,284.4835965978129 322.7816091954023,280.6925880923451 329.3103448275862,277.8250303766707 C335.8390804597701,274.95747266099636 347.264367816092,270.3159173754556 353.7931034482759,267.2539489671932 C360.32183908045977,264.19198055893077 371.7471264367816,257.67922235722966 378.2758620689655,254.8602673147023 C384.8045977011494,252.04131227217496 396.2298850574713,249.12515188335357 402.7586206896552,246.11178614823814 C409.28735632183907,243.0984204131227 420.71264367816093,235.56500607533414 427.2413793103448,232.26002430133656 C433.7701149425287,228.95504252733897 445.1954022988506,223.99756986634264 451.7241379310345,221.32442284325637 C458.2528735632184,218.6512758201701 469.67816091954023,214.88456865127583 476.2068965517241,212.21142162818956 C482.735632183908,209.53827460510328 494.1609195402299,204.09477521263668 500.6896551724138,201.27582017010934 C507.2183908045977,198.456865127582 518.6436781609195,194.6172539489672 525.1724137931035,191.06925880923453 C531.7011494252874,187.52126366950185 543.1264367816092,178.2624544349939 549.6551724137931,174.6658566221142 C556.1839080459771,171.0692588092345 567.6091954022988,167.30255164034023 574.1379310344828,164.0947752126367 C580.6666666666667,160.88699878493318 592.0919540229885,153.57229647630618 598.6206896551724,150.60753341433778 C605.1494252873564,147.64277035236938 616.5747126436781,144.62940461725393 623.1034482758621,141.85905224787362 C629.632183908046,139.08869987849332 641.0574712643678,134.00972053462942 647.5862068965517,129.82989064398544 C654.1149425287357,125.65006075334145 665.5402298850574,114.30133657351152 672.0689655172414,110.51032806804372 C678.5977011494253,106.71931956257592 690.0229885057471,103.77885783718104 696.551724137931,101.3973268529769 C703.080459770115,99.01579586877277 714.5057471264367,95.27339003645199 721.0344827586207,92.64884568651274 C727.5632183908046,90.0243013365735 738.9885057471264,83.75455650060755 745.5172413793103,81.71324422843259 C752.0459770114943,79.67193195625762 766.735632183908,77.92223572296476 770,77.33900364520048 L770,350 L60,350 Z" fill="#6b63ff" fill-opacity="0.1" />
  <path d="M60,350 L60,349.6354799513973 C63.264367816091955,348.90643985419194 77.95402298850574,345.5771567436209 84.48275862068965,344.1676792223572 C91.01149425287356,342.7582017010935 102.43678160919539,340.47387606318347 108.9655172413793,339.0643985419198 C115.49425287356321,337.6549210206561 126.91954022988504,334.95747266099636 133.44827586206895,333.59659781287974 C139.97701149425285,332.2357229647631 151.40229885057468,329.92709599027944 157.9310344827586,328.85783718104494 C164.45977011494253,327.78857837181044 175.88505747126436,326.2575941676792 182.41379310344828,325.5771567436209 C188.9425287356322,324.8967193195626 200.36781609195404,324.43499392466583 206.89655172413794,323.7545565006075 C213.42528735632183,323.0741190765492 224.8505747126437,321.7375455650061 231.3793103448276,320.47387606318347 C237.90804597701148,319.21020656136085 249.33333333333334,315.68651275820173 255.86206896551724,314.27703523693805 C262.39080459770116,312.86755771567437 273.81609195402297,313.30498177399755 280.34482758620686,309.90279465370594 C286.87356321839076,306.5006075334143 298.2988505747127,293.037667071689 304.82758620689657,288.76063183475094 C311.35632183908046,284.4835965978129 322.7816091954023,280.6925880923451 329.3103448275862,277.8250303766707 C335.8390804597701,274.95747266099636 347.264367816092,270.3159173754556 353.7931034482759,267.2539489671932 C360.32183908045977,264.19198055893077 371.7471264367816,257.67922235722966 378.2758620689655,254.8602673147023 C384.8045977011494,252.04131227217496 396.2298850574713,249.12515188335357 402.7586206896552,246.11178614823814 C409.28735632183907,243.0984204131227 420.71264367816093,235.56500607533414 427.2413793103448,232.26002430133656 C433.7701149425287,228.95504252733897 445.1954022988506,223.99756986634264 451.7241379310345,221.32442284325637 C458.2528735632184,218.6512758201701 469.67816091954023,214.88456865127583 476.2068965517241,212.21142162818956 C482.735632183908,209.53827460510328 494.1609195402299,204.09477521263668 500.6896551724138,201.27582017010934 C507.2183908045977,198.456865127582 518.6436781609195,194.6172539489672 525.1724137931035,191.06925880923453 C531.7011494252874,187.52126366950185 543.1264367816092,178.2624544349939 549.6551724137931,174.6658566221142 C556.1839080459771,171.0692588092345 567.6091954022988,167.30255164034023 574.1379310344828,164.0947752126367 C580.6666666666667,160.88699878493318 592.0919540229885,153.57229647630618 598.6206896551724,150.60753341433778 C605.1494252873564,147.64277035236938 616.5747126436781,144.62940461725393 623.1034482758621,141.85905224787362 C629.632183908046,139.08869987849332 641.0574712643678,134.00972053462942 647.5862068965517,129.82989064398544 C654.1149425287357,125.65006075334145 665.5402298850574,114.30133657351152 672.0689655172414,110.51032806804372 C678.5977011494253,106.71931956257592 690.0229885057471,103.77885783718104 696.551724137931,101.3973268529769 C703.080459770115,99.01579586877277 714.5057471264367,95.27339003645199 721.0344827586207,92.64884568651274 C727.5632183908046,90.0243013365735 738.9885057471264,83.75455650060755 745.5172413793103,81.71324422843259 C752.0459770114943,79.67193195625762 766.735632183908,77.92223572296476 770,77.33900364520048" fill="none" stroke="#6b63ff" stroke-width="2.5" class="data-line-0" />
  <g class="points">
    
    <circle cx="60" cy="349.6354799513973" r="4" fill="#6b63ff" class="data-point" style="animation-delay: 1.50s" />
    <circle cx="84.48275862068965" cy="344.1676792223572" r="4" fill="#6b63ff" class="data-point" style="animation-delay: 1.55s" />
    <circle cx="108.9655172413793" cy="339.0643985419198" r="4" fill="#6b63ff" class="data-point" style="animation-delay: 1.60s" />
    <circle cx="133.44827586206895" cy="333.59659781287974" r="4" fill="#6b63ff" class="data-point" style="animation-delay: 1.65s" />
    <circle cx="157.9310344827586" cy="328.85783718104494" r="4" fill="#6b63ff" class="data-point" style="animation-delay: 1.70s" />
    <circle cx="182.41379310344828" cy="325.5771567436209" r="4" fill="#6b63ff" class="data-point" style="animation-delay: 1.75s" />
    <circle cx="206.89655172413794" cy="323.7545565006075" r="4" fill="#6b63ff" class="data-point" style="animation-delay: 1.80s" />
    <circle cx="231.3793103448276" cy="320.47387606318347" r="4" fill="#6b63ff" class="data-point" style="animation-delay: 1.85s" />
    <circle cx="255.86206896551724" cy="314.27703523693805" r="4" fill="#6b63ff" class="data-point" style="animation-delay: 1.90s" />
    <circle cx="280.34482758620686" cy="309.90279465370594" r="4" fill="#6b63ff" class="data-point" style="animation-delay: 1.95s" />
    <circle cx="304.82758620689657" cy="288.76063183475094" r="4" fill="#6b63ff" class="data-point" style="animation-delay: 2.00s" />
    <circle cx="329.3103448275862" cy="277.8250303766707" r="4" fill="#6b63ff" class="data-point" style="animation-delay: 2.05s" />
    <circle cx="353.7931034482759" cy="267.2539489671932" r="4" fill="#6b63ff" class="data-point" style="animation-delay: 2.10s" />
    <circle cx="378.2758620689655" cy="254.8602673147023" r="4" fill="#6b63ff" class="data-point" style="animation-delay: 2.15s" />
    <circle cx="402.7586206896552" cy="246.11178614823814" r="4" fill="#6b63ff" class="data-point" style="animation-delay: 2.20s" />
    <circle cx="427.2413793103448" cy="232.26002430133656" r="4" fill="#6b63ff" class="data-point" style="animation-delay: 2.25s" />
    <circle cx="451.7241379310345" cy="221.32442284325637" r="4" fill="#6b63ff" class="data-point" style="animation-delay: 2.30s" />
    <circle cx="476.2068965517241" cy="212.21142162818956" r="4" fill="#6b63ff" class="data-point" style="animation-delay: 2.35s" />
    <circle cx="500.6896551724138" cy="201.27582017010934" r="4" fill="#6b63ff" class="data-point" style="animation-delay: 2.40s" />
    <circle cx="525.1724137931035" cy="191.06925880923453" r="4" fill="#6b63ff" class="data-point" style="animation-delay: 2.45s" />
    <circle cx="549.6551724137931" cy="174.6658566221142" r="4" fill="#6b63ff" class="data-point" style="animation-delay: 2.50s" />
    <circle cx="574.1379310344828" cy="164.0947752126367" r="4" fill="#6b63ff" class="data-point" style="animation-delay: 2.55s" />
    <circle cx="598.6206896551724" cy="150.60753341433778" r="4" fill="#6b63ff" class="data-point" style="animation-delay: 2.60s" />
    <circle cx="623.1034482758621" cy="141.85905224787362" r="4" fill="#6b63ff" class="data-point" style="animation-delay: 2.65s" />
    <circle cx="647.5862068965517" cy="129.82989064398544" r="4" fill="#6b63ff" class="data-point" style="animation-delay: 2.70s" />
    <circle cx="672.0689655172414" cy="110.51032806804372" r="4" fill="#6b63ff" class="data-point" style="animation-delay: 2.75s" />
    <circle cx="696.551724137931" cy="101.3973268529769" r="4" fill="#6b63ff" class="data-point" style="animation-delay: 2.80s" />
    <circle cx="721.0344827586207" cy="92.64884568651274" r="4" fill="#6b63ff" class="data-point" style="animation-delay: 2.85s" />
    <circle cx="745.5172413793103" cy="81.71324422843259" r="4" fill="#6b63ff" class="data-point" style="animation-delay: 2.90s" />
    <circle cx="770" cy="77.33900364520048" r="4" fill="#6b63ff" class="data-point" style="animation-delay: 2.95s" />
  </g>
</svg>