<svg xmlns="http://www.w3.org/2000/svg" viewBox="0 0 800 400" width="800" height="400">
  <style>
    @keyframes drawLine {
      to { stroke-dashoffset: 0; }
    }
    @keyframes fadeInPoint {
      from { opacity: 0; }
      to { opacity: 1; }
    }
    .data-line-0 {
      stroke-dasharray: 1181;
      stroke-dashoffset: 1181;
      animation: drawLine 2s ease-out forwards;
    }
    .data-point {
      opacity: 0;
      animation: fadeInPoint 0.5s ease-out forwards;
    }
    .chart-bg { fill: #fff; }
    .chart-text { fill: #24292e; }
    .chart-muted { fill: #6a737d; }
    .chart-grid { stroke: #eee; }
    .chart-axis { stroke: #6a737d; }
    @media (prefers-color-scheme: dark) {
      .chart-bg { fill: #0d1117; }
      .chart-text { fill: #e6edf3; }
      .chart-muted { fill: #8b949e; }
      .chart-grid { stroke: #21262d; }
      .chart-axis { stroke: #8b949e; }
    }
  </style>
  <rect width="800" height="400" class="chart-bg" />
  <text x="400" y="14" text-anchor="middle" class="chart-text" font-size="16" font-weight="bold" font-family="-apple-system, BlinkMacSystemFont, 'Segoe UI', Helvetica, Arial, sans-serif">dockur/windows-arm Star History</text>
  
  <g class="grid">
    <line x1="60" y1="350" x2="770" y2="350" class="chart-grid" stroke-opacity="0.3" />
    <text x="778" y="354" text-anchor="start" class="chart-muted" font-size="11" font-family="-apple-system, BlinkMacSystemFont, 'Segoe UI', Helvetica, Arial, sans-serif">0</text>
    <line x1="60" y1="290" x2="770" y2="290" class="chart-grid" stroke-opacity="0.3" />
    <text x="778" y="294" text-anchor="start" class="chart-muted" font-size="11" font-family="-apple-system, BlinkMacSystemFont, 'Segoe UI', Helvetica, Arial, sans-serif">500</text>
    <line x1="60" y1="230" x2="770" y2="230" class="chart-grid" stroke-opacity="0.3" />
    <text x="778" y="234" text-anchor="start" class="chart-muted" font-size="11" font-family="-apple-system, BlinkMacSystemFont, 'Segoe UI', Helvetica, Arial, sans-serif">1K</text>
    <line x1="60" y1="170" x2="770" y2="170" class="chart-grid" stroke-opacity="0.3" />
    <text x="778" y="174" text-anchor="start" class="chart-muted" font-size="11" font-family="-apple-system, BlinkMacSystemFont, 'Segoe UI', Helvetica, Arial, sans-serif">1.5K</text>
    <line x1="60" y1="110" x2="770" y2="110" class="chart-grid" stroke-opacity="0.3" />
    <text x="778" y="114" text-anchor="start" class="chart-muted" font-size="11" font-family="-apple-system, BlinkMacSystemFont, 'Segoe UI', Helvetica, Arial, sans-serif">2K</text>
    <line x1="60" y1="50" x2="770" y2="50" class="chart-grid" stroke-opacity="0.3" />
    <text x="778" y="54" text-anchor="start" class="chart-muted" font-size="11" font-family="-apple-system, BlinkMacSystemFont, 'Segoe UI', Helvetica, Arial, sans-serif">2.5K</text>
  </g>
  <g class="milestones">
    
  </g>
  <g class="x-axis">
    <text x="60" y="370" text-anchor="middle" class="chart-muted" font-size="11" font-family="-apple-system, BlinkMacSystemFont, 'Segoe UI', Helvetica, Arial, sans-serif">2024</text>
    <text x="329.3103448275862" y="370" text-anchor="middle" class="chart-muted" font-size="11" font-family="-apple-system, BlinkMacSystemFont, 'Segoe UI', Helvetica, Arial, sans-serif">2025</text>
    <text x="647.5862068965517" y="370" text-anchor="middle" class="chart-muted" font-size="11" font-family="-apple-system, BlinkMacSystemFont, 'Segoe UI', Helvetica, Arial, sans-serif">2026</text>
  </g>
  <line x1="770" y1="50" x2="770" y2="350" class="chart-axis" stroke-width="1" />
  <line x1="60" y1="350" x2="770" y2="350" class="chart-axis" stroke-width="1" />
  <path d="M60,350 L60,349.88 C63.264367816091955,347.88 77.95402298850574,340.528 84.48275862068965,334.88 C91.01149425287356,329.23199999999997 102.43678160919539,312.752 108.9655172413793,307.52 C115.49425287356321,302.28799999999995 126.91954022988504,298.664 133.44827586206895,295.64 C139.97701149425285,292.616 151.40229885057468,287.288 157.9310344827586,284.84000000000003 C164.45977011494253,282.39200000000005 175.88505747126436,278.912 182.41379310344828,277.28 C188.9425287356322,275.64799999999997 200.36781609195404,274.05600000000004 206.89655172413794,272.6 C213.42528735632183,271.144 224.8505747126437,268.12 231.3793103448276,266.36 C237.90804597701148,264.6 249.33333333333334,260.91999999999996 255.86206896551724,259.4 C262.39080459770116,257.88 273.81609195402297,259.4 280.34482758620686,254.95999999999998 C286.87356321839076,247.64799999999997 298.2988505747127,212.38400000000001 304.82758620689657,204.56 C311.35632183908046,196.736 322.7816091954023,198.008 329.3103448275862,196.28 C335.8390804597701,194.552 347.264367816092,193.12 353.7931034482759,191.6 C360.32183908045977,190.07999999999998 371.7471264367816,186.704 378.2758620689655,184.88 C384.8045977011494,183.05599999999998 396.2298850574713,179.696 402.7586206896552,177.92 C409.28735632183907,176.14399999999998 420.71264367816093,173.16 427.2413793103448,171.56 C433.7701149425287,169.96 445.1954022988506,167.136 451.7241379310345,165.92 C458.2528735632184,164.70399999999998 469.67816091954023,163.48 476.2068965517241,162.44 C482.735632183908,161.4 494.1609195402299,159.464 500.6896551724138,158.12 C507.2183908045977,156.776 518.6436781609195,156.37599999999998 525.1724137931035,152.35999999999999 C531.7011494252874,148.344 543.1264367816092,132.352 549.6551724137931,128 C556.1839080459771,123.64800000000001 567.6091954022988,121.51200000000003 574.1379310344828,119.72000000000003 C580.6666666666667,117.92800000000003 592.0919540229885,115.82399999999998 598.6206896551724,114.55999999999997 C605.1494252873564,113.29599999999996 616.5747126436781,111.39199999999998 623.1034482758621,110.23999999999998 C629.632183908046,109.08799999999998 641.0574712643678,106.96000000000001 647.5862068965517,105.92000000000002 C654.1149425287357,104.88000000000002 665.5402298850574,103.432 672.0689655172414,102.44 C678.5977011494253,101.448 690.0229885057471,99.264 696.551724137931,98.47999999999999 C703.080459770115,97.69599999999998 714.5057471264367,97.44 721.0344827586207,96.56 C727.5632183908046,95.68 738.9885057471264,92.93599999999999 745.5172413793103,91.88 C752.0459770114943,90.824 766.735632183908,89.07199999999999 770,88.63999999999999 L770,350 L60,350 Z" fill="#6b63ff" fill-opacity="0.1" />
  <path d="M60,350 L60,349.88 C63.264367816091955,347.88 77.95402298850574,340.528 84.48275862068965,334.88 C91.01149425287356,329.23199999999997 102.43678160919539,312.752 108.9655172413793,307.52 C115.49425287356321,302.28799999999995 126.91954022988504,298.664 133.44827586206895,295.64 C139.97701149425285,292.616 151.40229885057468,287.288 157.9310344827586,284.84000000000003 C164.45977011494253,282.39200000000005 175.88505747126436,278.912 182.41379310344828,277.28 C188.9425287356322,275.64799999999997 200.36781609195404,274.05600000000004 206.89655172413794,272.6 C213.42528735632183,271.144 224.8505747126437,268.12 231.3793103448276,266.36 C237.90804597701148,264.6 249.33333333333334,260.91999999999996 255.86206896551724,259.4 C262.39080459770116,257.88 273.81609195402297,259.4 280.34482758620686,254.95999999999998 C286.87356321839076,247.64799999999997 298.2988505747127,212.38400000000001 304.82758620689657,204.56 C311.35632183908046,196.736 322.7816091954023,198.008 329.3103448275862,196.28 C335.8390804597701,194.552 347.264367816092,193.12 353.7931034482759,191.6 C360.32183908045977,190.07999999999998 371.7471264367816,186.704 378.2758620689655,184.88 C384.8045977011494,183.05599999999998 396.2298850574713,179.696 402.7586206896552,177.92 C409.28735632183907,176.14399999999998 420.71264367816093,173.16 427.2413793103448,171.56 C433.7701149425287,169.96 445.1954022988506,167.136 451.7241379310345,165.92 C458.2528735632184,164.70399999999998 469.67816091954023,163.48 476.2068965517241,162.44 C482.735632183908,161.4 494.1609195402299,159.464 500.6896551724138,158.12 C507.2183908045977,156.776 518.6436781609195,156.37599999999998 525.1724137931035,152.35999999999999 C531.7011494252874,148.344 543.1264367816092,132.352 549.6551724137931,128 C556.1839080459771,123.64800000000001 567.6091954022988,121.51200000000003 574.1379310344828,119.72000000000003 C580.6666666666667,117.92800000000003 592.0919540229885,115.82399999999998 598.6206896551724,114.55999999999997 C605.1494252873564,113.29599999999996 616.5747126436781,111.39199999999998 623.1034482758621,110.23999999999998 C629.632183908046,109.08799999999998 641.0574712643678,106.96000000000001 647.5862068965517,105.92000000000002 C654.1149425287357,104.88000000000002 665.5402298850574,103.432 672.0689655172414,102.44 C678.5977011494253,101.448 690.0229885057471,99.264 696.551724137931,98.47999999999999 C703.080459770115,97.69599999999998 714.5057471264367,97.44 721.0344827586207,96.56 C727.5632183908046,95.68 738.9885057471264,92.93599999999999 745.5172413793103,91.88 C752.0459770114943,90.824 766.735632183908,89.07199999999999 770,88.63999999999999" fill="none" stroke="#6b63ff" stroke-width="2.5" class="data-line-0" />
  <g class="points">
    
    <circle cx="60" cy="349.88" r="4" fill="#6b63ff" class="data-point" style="animation-delay: 1.50s" />
    <circle cx="84.48275862068965" cy="334.88" r="4" fill="#6b63ff" class="data-point" style="animation-delay: 1.55s" />
    <circle cx="108.9655172413793" cy="307.52" r="4" fill="#6b63ff" class="data-point" style="animation-delay: 1.60s" />
    <circle cx="133.44827586206895" cy="295.64" r="4" fill="#6b63ff" class="data-point" style="animation-delay: 1.65s" />
    <circle cx="157.9310344827586" cy="284.84000000000003" r="4" fill="#6b63ff" class="data-point" style="animation-delay: 1.70s" />
    <circle cx="182.41379310344828" cy="277.28" r="4" fill="#6b63ff" class="data-point" style="animation-delay: 1.75s" />
    <circle cx="206.89655172413794" cy="272.6" r="4" fill="#6b63ff" class="data-point" style="animation-delay: 1.80s" />
    <circle cx="231.3793103448276" cy="266.36" r="4" fill="#6b63ff" class="data-point" style="animation-delay: 1.85s" />
    <circle cx="255.86206896551724" cy="259.4" r="4" fill="#6b63ff" class="data-point" style="animation-delay: 1.90s" />
    <circle cx="280.34482758620686" cy="254.95999999999998" r="4" fill="#6b63ff" class="data-point" style="animation-delay: 1.95s" />
    <circle cx="304.82758620689657" cy="204.56" r="4" fill="#6b63ff" class="data-point" style="animation-delay: 2.00s" />
    <circle cx="329.3103448275862" cy="196.28" r="4" fill="#6b63ff" class="data-point" style="animation-delay: 2.05s" />
    <circle cx="353.7931034482759" cy="191.6" r="4" fill="#6b63ff" class="data-point" style="animation-delay: 2.10s" />
    <circle cx="378.2758620689655" cy="184.88" r="4" fill="#6b63ff" class="data-point" style="animation-delay: 2.15s" />
    <circle cx="402.7586206896552" cy="177.92" r="4" fill="#6b63ff" class="data-point" style="animation-delay: 2.20s" />
    <circle cx="427.2413793103448" cy="171.56" r="4" fill="#6b63ff" class="data-point" style="animation-delay: 2.25s" />
    <circle cx="451.7241379310345" cy="165.92" r="4" fill="#6b63ff" class="data-point" style="animation-delay: 2.30s" />
    <circle cx="476.2068965517241" cy="162.44" r="4" fill="#6b63ff" class="data-point" style="animation-delay: 2.35s" />
    <circle cx="500.6896551724138" cy="158.12" r="4" fill="#6b63ff" class="data-point" style="animation-delay: 2.40s" />
    <circle cx="525.1724137931035" cy="152.35999999999999" r="4" fill="#6b63ff" class="data-point" style="animation-delay: 2.45s" />
    <circle cx="549.6551724137931" cy="128" r="4" fill="#6b63ff" class="data-point" style="animation-delay: 2.50s" />
    <circle cx="574.1379310344828" cy="119.72000000000003" r="4" fill="#6b63ff" class="data-point" style="animation-delay: 2.55s" />
    <circle cx="598.6206896551724" cy="114.55999999999997" r="4" fill="#6b63ff" class="data-point" style="animation-delay: 2.60s" />
    <circle cx="623.1034482758621" cy="110.23999999999998" r="4" fill="#6b63ff" class="data-point" style="animation-delay: 2.65s" />
    <circle cx="647.5862068965517" cy="105.92000000000002" r="4" fill="#6b63ff" class="data-point" style="animation-delay: 2.70s" />
    <circle cx="672.0689655172414" cy="102.44" r="4" fill="#6b63ff" class="data-point" style="animation-delay: 2.75s" />
    <circle cx="696.551724137931" cy="98.47999999999999" r="4" fill="#6b63ff" class="data-point" style="animation-delay: 2.80s" />
    <circle cx="721.0344827586207" cy="96.56" r="4" fill="#6b63ff" class="data-point" style="animation-delay: 2.85s" />
    <circle cx="745.5172413793103" cy="91.88" r="4" fill="#6b63ff" class="data-point" style="animation-delay: 2.90s" />
    <circle cx="770" cy="88.63999999999999" r="4" fill="#6b63ff" class="data-point" style="animation-delay: 2.95s" />
  </g>
</svg>