<svg xmlns="http://www.w3.org/2000/svg" viewBox="0 0 800 400" width="800" height="400">
  <style>
    @keyframes drawLine {
      to { stroke-dashoffset: 0; }
    }
    @keyframes fadeInPoint {
      from { opacity: 0; }
      to { opacity: 1; }
    }
    .data-line-0 {
      stroke-dasharray: 1243;
      stroke-dashoffset: 1243;
      animation: drawLine 2s ease-out forwards;
    }
    .data-point {
      opacity: 0;
      animation: fadeInPoint 0.5s ease-out forwards;
    }
    .chart-bg { fill: #fff; }
    .chart-text { fill: #24292e; }
    .chart-muted { fill: #6a737d; }
    .chart-grid { stroke: #eee; }
    .chart-axis { stroke: #6a737d; }
    @media (prefers-color-scheme: dark) {
      .chart-bg { fill: #0d1117; }
      .chart-text { fill: #e6edf3; }
      .chart-muted { fill: #8b949e; }
      .chart-grid { stroke: #21262d; }
      .chart-axis { stroke: #8b949e; }
    }
  </style>
  <rect width="800" height="400" class="chart-bg" />
  <text x="400" y="14" text-anchor="middle" class="chart-text" font-size="16" font-weight="bold" font-family="-apple-system, BlinkMacSystemFont, 'Segoe UI', Helvetica, Arial, sans-serif">dockur/stunnel Star History</text>
  
  <g class="grid">
    <line x1="60" y1="350" x2="770" y2="350" class="chart-grid" stroke-opacity="0.3" />
    <text x="778" y="354" text-anchor="start" class="chart-muted" font-size="11" font-family="-apple-system, BlinkMacSystemFont, 'Segoe UI', Helvetica, Arial, sans-serif">0</text>
    <line x1="60" y1="261.7647058823529" x2="770" y2="261.7647058823529" class="chart-grid" stroke-opacity="0.3" />
    <text x="778" y="265.7647058823529" text-anchor="start" class="chart-muted" font-size="11" font-family="-apple-system, BlinkMacSystemFont, 'Segoe UI', Helvetica, Arial, sans-serif">5</text>
    <line x1="60" y1="173.52941176470588" x2="770" y2="173.52941176470588" class="chart-grid" stroke-opacity="0.3" />
    <text x="778" y="177.52941176470588" text-anchor="start" class="chart-muted" font-size="11" font-family="-apple-system, BlinkMacSystemFont, 'Segoe UI', Helvetica, Arial, sans-serif">10</text>
    <line x1="60" y1="85.29411764705884" x2="770" y2="85.29411764705884" class="chart-grid" stroke-opacity="0.3" />
    <text x="778" y="89.29411764705884" text-anchor="start" class="chart-muted" font-size="11" font-family="-apple-system, BlinkMacSystemFont, 'Segoe UI', Helvetica, Arial, sans-serif">15</text>
  </g>
  <g class="milestones">
    
  </g>
  <g class="x-axis">
    <text x="60" y="370" text-anchor="middle" class="chart-muted" font-size="11" font-family="-apple-system, BlinkMacSystemFont, 'Segoe UI', Helvetica, Arial, sans-serif">Sep 28</text>
    <text x="133.44827586206895" y="370" text-anchor="middle" class="chart-muted" font-size="11" font-family="-apple-system, BlinkMacSystemFont, 'Segoe UI', Helvetica, Arial, sans-serif">Oct 27</text>
    <text x="206.89655172413794" y="370" text-anchor="middle" class="chart-muted" font-size="11" font-family="-apple-system, BlinkMacSystemFont, 'Segoe UI', Helvetica, Arial, sans-serif">Nov 24</text>
    <text x="280.34482758620686" y="370" text-anchor="middle" class="chart-muted" font-size="11" font-family="-apple-system, BlinkMacSystemFont, 'Segoe UI', Helvetica, Arial, sans-serif">Dec 23</text>
    <text x="353.7931034482759" y="370" text-anchor="middle" class="chart-muted" font-size="11" font-family="-apple-system, BlinkMacSystemFont, 'Segoe UI', Helvetica, Arial, sans-serif">Jan 20</text>
    <text x="427.2413793103448" y="370" text-anchor="middle" class="chart-muted" font-size="11" font-family="-apple-system, BlinkMacSystemFont, 'Segoe UI', Helvetica, Arial, sans-serif">Feb 18</text>
    <text x="500.6896551724138" y="370" text-anchor="middle" class="chart-muted" font-size="11" font-family="-apple-system, BlinkMacSystemFont, 'Segoe UI', Helvetica, Arial, sans-serif">Mar 18</text>
    <text x="574.1379310344828" y="370" text-anchor="middle" class="chart-muted" font-size="11" font-family="-apple-system, BlinkMacSystemFont, 'Segoe UI', Helvetica, Arial, sans-serif">Apr 16</text>
    <text x="647.5862068965517" y="370" text-anchor="middle" class="chart-muted" font-size="11" font-family="-apple-system, BlinkMacSystemFont, 'Segoe UI', Helvetica, Arial, sans-serif">May 14</text>
    <text x="721.0344827586207" y="370" text-anchor="middle" class="chart-muted" font-size="11" font-family="-apple-system, BlinkMacSystemFont, 'Segoe UI', Helvetica, Arial, sans-serif">Jun 12</text>
    <text x="770" y="370" text-anchor="middle" class="chart-muted" font-size="11" font-family="-apple-system, BlinkMacSystemFont, 'Segoe UI', Helvetica, Arial, sans-serif">Jul 1</text>
  </g>
  <line x1="770" y1="50" x2="770" y2="350" class="chart-axis" stroke-width="1" />
  <line x1="60" y1="350" x2="770" y2="350" class="chart-axis" stroke-width="1" />
  <path d="M60,350 L60,332.3529411764706 C68.16091954022988,320.5882352941177 76.32183908045977,297.05882352941177 84.48275862068965,297.05882352941177 C92.64367816091954,297.05882352941177 100.80459770114942,297.05882352941177 108.9655172413793,297.05882352941177 C117.12643678160919,297.05882352941177 125.28735632183907,297.05882352941177 133.44827586206895,297.05882352941177 C141.60919540229884,297.05882352941177 149.77011494252872,297.05882352941177 157.9310344827586,297.05882352941177 C166.0919540229885,297.05882352941177 174.2528735632184,288.235294117647 182.41379310344828,279.4117647058823 C190.57471264367817,270.5882352941176 198.73563218390805,252.94117647058823 206.89655172413794,244.11764705882354 C215.05747126436782,235.29411764705884 223.2183908045977,226.47058823529414 231.3793103448276,226.47058823529414 C239.54022988505747,226.47058823529414 247.70114942528735,226.47058823529414 255.86206896551724,226.47058823529414 C264.0229885057471,226.47058823529414 272.183908045977,226.47058823529414 280.34482758620686,226.47058823529414 C288.50574712643675,226.47058823529414 296.6666666666667,208.8235294117647 304.82758620689657,208.8235294117647 C312.98850574712645,208.8235294117647 321.14942528735634,208.8235294117647 329.3103448275862,208.8235294117647 C337.4712643678161,208.8235294117647 345.632183908046,208.8235294117647 353.7931034482759,208.8235294117647 C361.95402298850576,208.8235294117647 370.11494252873564,200 378.2758620689655,191.1764705882353 C386.4367816091954,182.3529411764706 394.5977011494253,155.88235294117646 402.7586206896552,155.88235294117646 C410.91954022988506,155.88235294117646 419.08045977011494,155.88235294117646 427.2413793103448,155.88235294117646 C435.4022988505747,155.88235294117646 443.5632183908046,155.88235294117646 451.7241379310345,155.88235294117646 C459.88505747126436,155.88235294117646 468.04597701149424,155.88235294117646 476.2068965517241,155.88235294117646 C484.367816091954,155.88235294117646 492.5287356321839,155.88235294117646 500.6896551724138,155.88235294117646 C508.85057471264366,155.88235294117646 517.0114942528736,155.88235294117646 525.1724137931035,155.88235294117646 C533.3333333333334,155.88235294117646 541.4942528735633,138.23529411764704 549.6551724137931,138.23529411764704 C557.816091954023,138.23529411764704 565.9770114942529,138.23529411764704 574.1379310344828,138.23529411764704 C582.2988505747127,138.23529411764704 590.4597701149426,138.23529411764704 598.6206896551724,138.23529411764704 C606.7816091954023,138.23529411764704 614.9425287356322,138.23529411764704 623.1034482758621,138.23529411764704 C631.264367816092,138.23529411764704 639.4252873563219,120.58823529411765 647.5862068965517,120.58823529411765 C655.7471264367816,120.58823529411765 663.9080459770115,120.58823529411765 672.0689655172414,120.58823529411765 C680.2298850574713,120.58823529411765 688.3908045977012,120.58823529411765 696.551724137931,120.58823529411765 C704.7126436781609,120.58823529411765 712.8735632183908,102.94117647058826 721.0344827586207,102.94117647058826 C729.1954022988506,102.94117647058826 737.3563218390805,102.94117647058826 745.5172413793103,102.94117647058826 C753.6781609195402,102.94117647058826 761.8390804597701,91.17647058823532 770,85.29411764705884 L770,350 L60,350 Z" fill="#6b63ff" fill-opacity="0.1" />
  <path d="M60,350 L60,332.3529411764706 C68.16091954022988,320.5882352941177 76.32183908045977,297.05882352941177 84.48275862068965,297.05882352941177 C92.64367816091954,297.05882352941177 100.80459770114942,297.05882352941177 108.9655172413793,297.05882352941177 C117.12643678160919,297.05882352941177 125.28735632183907,297.05882352941177 133.44827586206895,297.05882352941177 C141.60919540229884,297.05882352941177 149.77011494252872,297.05882352941177 157.9310344827586,297.05882352941177 C166.0919540229885,297.05882352941177 174.2528735632184,288.235294117647 182.41379310344828,279.4117647058823 C190.57471264367817,270.5882352941176 198.73563218390805,252.94117647058823 206.89655172413794,244.11764705882354 C215.05747126436782,235.29411764705884 223.2183908045977,226.47058823529414 231.3793103448276,226.47058823529414 C239.54022988505747,226.47058823529414 247.70114942528735,226.47058823529414 255.86206896551724,226.47058823529414 C264.0229885057471,226.47058823529414 272.183908045977,226.47058823529414 280.34482758620686,226.47058823529414 C288.50574712643675,226.47058823529414 296.6666666666667,208.8235294117647 304.82758620689657,208.8235294117647 C312.98850574712645,208.8235294117647 321.14942528735634,208.8235294117647 329.3103448275862,208.8235294117647 C337.4712643678161,208.8235294117647 345.632183908046,208.8235294117647 353.7931034482759,208.8235294117647 C361.95402298850576,208.8235294117647 370.11494252873564,200 378.2758620689655,191.1764705882353 C386.4367816091954,182.3529411764706 394.5977011494253,155.88235294117646 402.7586206896552,155.88235294117646 C410.91954022988506,155.88235294117646 419.08045977011494,155.88235294117646 427.2413793103448,155.88235294117646 C435.4022988505747,155.88235294117646 443.5632183908046,155.88235294117646 451.7241379310345,155.88235294117646 C459.88505747126436,155.88235294117646 468.04597701149424,155.88235294117646 476.2068965517241,155.88235294117646 C484.367816091954,155.88235294117646 492.5287356321839,155.88235294117646 500.6896551724138,155.88235294117646 C508.85057471264366,155.88235294117646 517.0114942528736,155.88235294117646 525.1724137931035,155.88235294117646 C533.3333333333334,155.88235294117646 541.4942528735633,138.23529411764704 549.6551724137931,138.23529411764704 C557.816091954023,138.23529411764704 565.9770114942529,138.23529411764704 574.1379310344828,138.23529411764704 C582.2988505747127,138.23529411764704 590.4597701149426,138.23529411764704 598.6206896551724,138.23529411764704 C606.7816091954023,138.23529411764704 614.9425287356322,138.23529411764704 623.1034482758621,138.23529411764704 C631.264367816092,138.23529411764704 639.4252873563219,120.58823529411765 647.5862068965517,120.58823529411765 C655.7471264367816,120.58823529411765 663.9080459770115,120.58823529411765 672.0689655172414,120.58823529411765 C680.2298850574713,120.58823529411765 688.3908045977012,120.58823529411765 696.551724137931,120.58823529411765 C704.7126436781609,120.58823529411765 712.8735632183908,102.94117647058826 721.0344827586207,102.94117647058826 C729.1954022988506,102.94117647058826 737.3563218390805,102.94117647058826 745.5172413793103,102.94117647058826 C753.6781609195402,102.94117647058826 761.8390804597701,91.17647058823532 770,85.29411764705884" fill="none" stroke="#6b63ff" stroke-width="2.5" class="data-line-0" />
  <g class="points">
    
    <circle cx="60" cy="332.3529411764706" r="4" fill="#6b63ff" class="data-point" style="animation-delay: 1.50s" />
    <circle cx="84.48275862068965" cy="297.05882352941177" r="4" fill="#6b63ff" class="data-point" style="animation-delay: 1.55s" />
    <circle cx="108.9655172413793" cy="297.05882352941177" r="4" fill="#6b63ff" class="data-point" style="animation-delay: 1.60s" />
    <circle cx="133.44827586206895" cy="297.05882352941177" r="4" fill="#6b63ff" class="data-point" style="animation-delay: 1.65s" />
    <circle cx="157.9310344827586" cy="297.05882352941177" r="4" fill="#6b63ff" class="data-point" style="animation-delay: 1.70s" />
    <circle cx="182.41379310344828" cy="279.4117647058823" r="4" fill="#6b63ff" class="data-point" style="animation-delay: 1.75s" />
    <circle cx="206.89655172413794" cy="244.11764705882354" r="4" fill="#6b63ff" class="data-point" style="animation-delay: 1.80s" />
    <circle cx="231.3793103448276" cy="226.47058823529414" r="4" fill="#6b63ff" class="data-point" style="animation-delay: 1.85s" />
    <circle cx="255.86206896551724" cy="226.47058823529414" r="4" fill="#6b63ff" class="data-point" style="animation-delay: 1.90s" />
    <circle cx="280.34482758620686" cy="226.47058823529414" r="4" fill="#6b63ff" class="data-point" style="animation-delay: 1.95s" />
    <circle cx="304.82758620689657" cy="208.8235294117647" r="4" fill="#6b63ff" class="data-point" style="animation-delay: 2.00s" />
    <circle cx="329.3103448275862" cy="208.8235294117647" r="4" fill="#6b63ff" class="data-point" style="animation-delay: 2.05s" />
    <circle cx="353.7931034482759" cy="208.8235294117647" r="4" fill="#6b63ff" class="data-point" style="animation-delay: 2.10s" />
    <circle cx="378.2758620689655" cy="191.1764705882353" r="4" fill="#6b63ff" class="data-point" style="animation-delay: 2.15s" />
    <circle cx="402.7586206896552" cy="155.88235294117646" r="4" fill="#6b63ff" class="data-point" style="animation-delay: 2.20s" />
    <circle cx="427.2413793103448" cy="155.88235294117646" r="4" fill="#6b63ff" class="data-point" style="animation-delay: 2.25s" />
    <circle cx="451.7241379310345" cy="155.88235294117646" r="4" fill="#6b63ff" class="data-point" style="animation-delay: 2.30s" />
    <circle cx="476.2068965517241" cy="155.88235294117646" r="4" fill="#6b63ff" class="data-point" style="animation-delay: 2.35s" />
    <circle cx="500.6896551724138" cy="155.88235294117646" r="4" fill="#6b63ff" class="data-point" style="animation-delay: 2.40s" />
    <circle cx="525.1724137931035" cy="155.88235294117646" r="4" fill="#6b63ff" class="data-point" style="animation-delay: 2.45s" />
    <circle cx="549.6551724137931" cy="138.23529411764704" r="4" fill="#6b63ff" class="data-point" style="animation-delay: 2.50s" />
    <circle cx="574.1379310344828" cy="138.23529411764704" r="4" fill="#6b63ff" class="data-point" style="animation-delay: 2.55s" />
    <circle cx="598.6206896551724" cy="138.23529411764704" r="4" fill="#6b63ff" class="data-point" style="animation-delay: 2.60s" />
    <circle cx="623.1034482758621" cy="138.23529411764704" r="4" fill="#6b63ff" class="data-point" style="animation-delay: 2.65s" />
    <circle cx="647.5862068965517" cy="120.58823529411765" r="4" fill="#6b63ff" class="data-point" style="animation-delay: 2.70s" />
    <circle cx="672.0689655172414" cy="120.58823529411765" r="4" fill="#6b63ff" class="data-point" style="animation-delay: 2.75s" />
    <circle cx="696.551724137931" cy="120.58823529411765" r="4" fill="#6b63ff" class="data-point" style="animation-delay: 2.80s" />
    <circle cx="721.0344827586207" cy="102.94117647058826" r="4" fill="#6b63ff" class="data-point" style="animation-delay: 2.85s" />
    <circle cx="745.5172413793103" cy="102.94117647058826" r="4" fill="#6b63ff" class="data-point" style="animation-delay: 2.90s" />
    <circle cx="770" cy="85.29411764705884" r="4" fill="#6b63ff" class="data-point" style="animation-delay: 2.95s" />
  </g>
</svg>