<svg xmlns="http://www.w3.org/2000/svg" viewBox="0 0 800 400" width="800" height="400">
  <style>
    @keyframes drawLine {
      to { stroke-dashoffset: 0; }
    }
    @keyframes fadeInPoint {
      from { opacity: 0; }
      to { opacity: 1; }
    }
    .data-line-0 {
      stroke-dasharray: 1266;
      stroke-dashoffset: 1266;
      animation: drawLine 2s ease-out forwards;
    }
    .data-point {
      opacity: 0;
      animation: fadeInPoint 0.5s ease-out forwards;
    }
    .chart-bg { fill: #fff; }
    .chart-text { fill: #24292e; }
    .chart-muted { fill: #6a737d; }
    .chart-grid { stroke: #eee; }
    .chart-axis { stroke: #6a737d; }
    @media (prefers-color-scheme: dark) {
      .chart-bg { fill: #0d1117; }
      .chart-text { fill: #e6edf3; }
      .chart-muted { fill: #8b949e; }
      .chart-grid { stroke: #21262d; }
      .chart-axis { stroke: #8b949e; }
    }
  </style>
  <rect width="800" height="400" class="chart-bg" />
  <text x="400" y="34" text-anchor="middle" class="chart-text" font-size="16" font-weight="bold" font-family="-apple-system, BlinkMacSystemFont, 'Segoe UI', Helvetica, Arial, sans-serif">dockur/proxmox Star History</text>
  
  <g class="grid">
    <line x1="60" y1="350" x2="770" y2="350" class="chart-grid" stroke-opacity="0.3" />
    <text x="778" y="354" text-anchor="start" class="chart-muted" font-size="11" font-family="-apple-system, BlinkMacSystemFont, 'Segoe UI', Helvetica, Arial, sans-serif">0</text>
    <line x1="60" y1="290.2390438247012" x2="770" y2="290.2390438247012" class="chart-grid" stroke-opacity="0.3" />
    <text x="778" y="294.2390438247012" text-anchor="start" class="chart-muted" font-size="11" font-family="-apple-system, BlinkMacSystemFont, 'Segoe UI', Helvetica, Arial, sans-serif">50</text>
    <line x1="60" y1="230.4780876494024" x2="770" y2="230.4780876494024" class="chart-grid" stroke-opacity="0.3" />
    <text x="778" y="234.4780876494024" text-anchor="start" class="chart-muted" font-size="11" font-family="-apple-system, BlinkMacSystemFont, 'Segoe UI', Helvetica, Arial, sans-serif">100</text>
    <line x1="60" y1="170.71713147410358" x2="770" y2="170.71713147410358" class="chart-grid" stroke-opacity="0.3" />
    <text x="778" y="174.71713147410358" text-anchor="start" class="chart-muted" font-size="11" font-family="-apple-system, BlinkMacSystemFont, 'Segoe UI', Helvetica, Arial, sans-serif">150</text>
    <line x1="60" y1="110.9561752988048" x2="770" y2="110.9561752988048" class="chart-grid" stroke-opacity="0.3" />
    <text x="778" y="114.9561752988048" text-anchor="start" class="chart-muted" font-size="11" font-family="-apple-system, BlinkMacSystemFont, 'Segoe UI', Helvetica, Arial, sans-serif">200</text>
    <line x1="60" y1="51.19521912350598" x2="770" y2="51.19521912350598" class="chart-grid" stroke-opacity="0.3" />
    <text x="778" y="55.19521912350598" text-anchor="start" class="chart-muted" font-size="11" font-family="-apple-system, BlinkMacSystemFont, 'Segoe UI', Helvetica, Arial, sans-serif">250</text>
  </g>
  <g class="milestones">
    
  </g>
  <g class="x-axis">
    <text x="60" y="370" text-anchor="middle" class="chart-muted" font-size="11" font-family="-apple-system, BlinkMacSystemFont, 'Segoe UI', Helvetica, Arial, sans-serif">May 27</text>
    <text x="133.44827586206895" y="370" text-anchor="middle" class="chart-muted" font-size="11" font-family="-apple-system, BlinkMacSystemFont, 'Segoe UI', Helvetica, Arial, sans-serif">May 30</text>
    <text x="206.89655172413794" y="370" text-anchor="middle" class="chart-muted" font-size="11" font-family="-apple-system, BlinkMacSystemFont, 'Segoe UI', Helvetica, Arial, sans-serif">Jun 2</text>
    <text x="280.34482758620686" y="370" text-anchor="middle" class="chart-muted" font-size="11" font-family="-apple-system, BlinkMacSystemFont, 'Segoe UI', Helvetica, Arial, sans-serif">Jun 5</text>
    <text x="353.7931034482759" y="370" text-anchor="middle" class="chart-muted" font-size="11" font-family="-apple-system, BlinkMacSystemFont, 'Segoe UI', Helvetica, Arial, sans-serif">Jun 8</text>
    <text x="427.2413793103448" y="370" text-anchor="middle" class="chart-muted" font-size="11" font-family="-apple-system, BlinkMacSystemFont, 'Segoe UI', Helvetica, Arial, sans-serif">Jun 11</text>
    <text x="500.6896551724138" y="370" text-anchor="middle" class="chart-muted" font-size="11" font-family="-apple-system, BlinkMacSystemFont, 'Segoe UI', Helvetica, Arial, sans-serif">Jun 14</text>
    <text x="574.1379310344828" y="370" text-anchor="middle" class="chart-muted" font-size="11" font-family="-apple-system, BlinkMacSystemFont, 'Segoe UI', Helvetica, Arial, sans-serif">Jun 17</text>
    <text x="647.5862068965517" y="370" text-anchor="middle" class="chart-muted" font-size="11" font-family="-apple-system, BlinkMacSystemFont, 'Segoe UI', Helvetica, Arial, sans-serif">Jun 20</text>
    <text x="721.0344827586207" y="370" text-anchor="middle" class="chart-muted" font-size="11" font-family="-apple-system, BlinkMacSystemFont, 'Segoe UI', Helvetica, Arial, sans-serif">Jun 23</text>
    <text x="770" y="370" text-anchor="middle" class="chart-muted" font-size="11" font-family="-apple-system, BlinkMacSystemFont, 'Segoe UI', Helvetica, Arial, sans-serif">Jun 25</text>
  </g>
  <line x1="770" y1="50" x2="770" y2="350" class="chart-axis" stroke-width="1" />
  <line x1="60" y1="350" x2="770" y2="350" class="chart-axis" stroke-width="1" />
  <path d="M60,350 L60,348.804780876494 C63.264367816091955,337.80876494023903 77.95402298850574,283.54581673306774 84.48275862068965,266.33466135458167 C91.01149425287356,249.1235059760956 102.43678160919539,229.44223107569724 108.9655172413793,219.72111553784862 C115.49425287356321,210 126.91954022988504,201.71314741035857 133.44827586206895,193.42629482071715 C139.97701149425285,185.13944223107572 151.40229885057468,164.74103585657372 157.9310344827586,157.56972111553785 C164.45977011494253,150.39840637450197 175.88505747126436,142.66932270916334 182.41379310344828,139.6414342629482 C188.9425287356322,136.61354581673305 200.36781609195404,136.13545816733065 206.89655172413794,134.86055776892428 C213.42528735632183,133.5856573705179 224.8505747126437,131.19521912350598 231.3793103448276,130.0796812749004 C237.90804597701148,128.9641434262948 249.33333333333334,127.76892430278883 255.86206896551724,126.49402390438246 C262.39080459770116,125.21912350597609 273.81609195402297,122.11155378486056 280.34482758620686,120.5179282868526 C286.87356321839076,118.92430278884463 298.2988505747127,115.49800796812751 304.82758620689657,114.54183266932273 C311.35632183908046,113.58565737051795 322.7816091954023,113.98406374501994 329.3103448275862,113.34661354581675 C335.8390804597701,112.70916334661356 347.264367816092,111.19521912350599 353.7931034482759,109.76095617529882 C360.32183908045977,108.32669322709164 371.7471264367816,104.9800796812749 378.2758620689655,102.58964143426294 C384.8045977011494,100.19920318725099 396.2298850574713,93.26693227091631 402.7586206896552,91.83266932270914 C409.28735632183907,91.83266932270914 420.71264367816093,91.83266932270914 427.2413793103448,91.83266932270914 C433.7701149425287,91.67330677290833 445.1954022988506,90.79681274900396 451.7241379310345,90.63745019920316 C458.2528735632184,90.63745019920316 469.67816091954023,90.63745019920316 476.2068965517241,90.63745019920316 C482.735632183908,90.63745019920316 494.1609195402299,90.63745019920316 500.6896551724138,90.63745019920316 C507.2183908045977,90.63745019920316 518.6436781609195,90.63745019920316 525.1724137931035,90.63745019920316 C531.7011494252874,90.47808764940237 543.1264367816092,90.07968127490042 549.6551724137931,89.44223107569724 C556.1839080459771,88.80478087649405 567.6091954022988,86.3346613545817 574.1379310344828,85.8565737051793 C580.6666666666667,85.8565737051793 592.0919540229885,85.8565737051793 598.6206896551724,85.8565737051793 C605.1494252873564,85.6972111553785 616.5747126436781,84.98007968127492 623.1034482758621,84.66135458167332 C629.632183908046,84.34262948207173 641.0574712643678,83.78486055776894 647.5862068965517,83.46613545816734 C654.1149425287357,83.14741035856575 665.5402298850574,82.43027888446217 672.0689655172414,82.27091633466136 C678.5977011494253,82.27091633466136 690.0229885057471,82.27091633466136 696.551724137931,82.27091633466136 C703.080459770115,81.95219123505977 714.5057471264367,80.5179282868526 721.0344827586207,79.88047808764941 C727.5632183908046,79.24302788844622 738.9885057471264,77.80876494023904 745.5172413793103,77.49003984063745 C752.0459770114943,77.49003984063745 766.735632183908,77.49003984063745 770,77.49003984063745 L770,350 L60,350 Z" fill="#6b63ff" fill-opacity="0.1" />
  <path d="M60,350 L60,348.804780876494 C63.264367816091955,337.80876494023903 77.95402298850574,283.54581673306774 84.48275862068965,266.33466135458167 C91.01149425287356,249.1235059760956 102.43678160919539,229.44223107569724 108.9655172413793,219.72111553784862 C115.49425287356321,210 126.91954022988504,201.71314741035857 133.44827586206895,193.42629482071715 C139.97701149425285,185.13944223107572 151.40229885057468,164.74103585657372 157.9310344827586,157.56972111553785 C164.45977011494253,150.39840637450197 175.88505747126436,142.66932270916334 182.41379310344828,139.6414342629482 C188.9425287356322,136.61354581673305 200.36781609195404,136.13545816733065 206.89655172413794,134.86055776892428 C213.42528735632183,133.5856573705179 224.8505747126437,131.19521912350598 231.3793103448276,130.0796812749004 C237.90804597701148,128.9641434262948 249.33333333333334,127.76892430278883 255.86206896551724,126.49402390438246 C262.39080459770116,125.21912350597609 273.81609195402297,122.11155378486056 280.34482758620686,120.5179282868526 C286.87356321839076,118.92430278884463 298.2988505747127,115.49800796812751 304.82758620689657,114.54183266932273 C311.35632183908046,113.58565737051795 322.7816091954023,113.98406374501994 329.3103448275862,113.34661354581675 C335.8390804597701,112.70916334661356 347.264367816092,111.19521912350599 353.7931034482759,109.76095617529882 C360.32183908045977,108.32669322709164 371.7471264367816,104.9800796812749 378.2758620689655,102.58964143426294 C384.8045977011494,100.19920318725099 396.2298850574713,93.26693227091631 402.7586206896552,91.83266932270914 C409.28735632183907,91.83266932270914 420.71264367816093,91.83266932270914 427.2413793103448,91.83266932270914 C433.7701149425287,91.67330677290833 445.1954022988506,90.79681274900396 451.7241379310345,90.63745019920316 C458.2528735632184,90.63745019920316 469.67816091954023,90.63745019920316 476.2068965517241,90.63745019920316 C482.735632183908,90.63745019920316 494.1609195402299,90.63745019920316 500.6896551724138,90.63745019920316 C507.2183908045977,90.63745019920316 518.6436781609195,90.63745019920316 525.1724137931035,90.63745019920316 C531.7011494252874,90.47808764940237 543.1264367816092,90.07968127490042 549.6551724137931,89.44223107569724 C556.1839080459771,88.80478087649405 567.6091954022988,86.3346613545817 574.1379310344828,85.8565737051793 C580.6666666666667,85.8565737051793 592.0919540229885,85.8565737051793 598.6206896551724,85.8565737051793 C605.1494252873564,85.6972111553785 616.5747126436781,84.98007968127492 623.1034482758621,84.66135458167332 C629.632183908046,84.34262948207173 641.0574712643678,83.78486055776894 647.5862068965517,83.46613545816734 C654.1149425287357,83.14741035856575 665.5402298850574,82.43027888446217 672.0689655172414,82.27091633466136 C678.5977011494253,82.27091633466136 690.0229885057471,82.27091633466136 696.551724137931,82.27091633466136 C703.080459770115,81.95219123505977 714.5057471264367,80.5179282868526 721.0344827586207,79.88047808764941 C727.5632183908046,79.24302788844622 738.9885057471264,77.80876494023904 745.5172413793103,77.49003984063745 C752.0459770114943,77.49003984063745 766.735632183908,77.49003984063745 770,77.49003984063745" fill="none" stroke="#6b63ff" stroke-width="2.5" class="data-line-0" />
  <g class="points">
    
    <circle cx="60" cy="348.804780876494" r="4" fill="#6b63ff" class="data-point" style="animation-delay: 1.50s" />
    <circle cx="84.48275862068965" cy="266.33466135458167" r="4" fill="#6b63ff" class="data-point" style="animation-delay: 1.55s" />
    <circle cx="108.9655172413793" cy="219.72111553784862" r="4" fill="#6b63ff" class="data-point" style="animation-delay: 1.60s" />
    <circle cx="133.44827586206895" cy="193.42629482071715" r="4" fill="#6b63ff" class="data-point" style="animation-delay: 1.65s" />
    <circle cx="157.9310344827586" cy="157.56972111553785" r="4" fill="#6b63ff" class="data-point" style="animation-delay: 1.70s" />
    <circle cx="182.41379310344828" cy="139.6414342629482" r="4" fill="#6b63ff" class="data-point" style="animation-delay: 1.75s" />
    <circle cx="206.89655172413794" cy="134.86055776892428" r="4" fill="#6b63ff" class="data-point" style="animation-delay: 1.80s" />
    <circle cx="231.3793103448276" cy="130.0796812749004" r="4" fill="#6b63ff" class="data-point" style="animation-delay: 1.85s" />
    <circle cx="255.86206896551724" cy="126.49402390438246" r="4" fill="#6b63ff" class="data-point" style="animation-delay: 1.90s" />
    <circle cx="280.34482758620686" cy="120.5179282868526" r="4" fill="#6b63ff" class="data-point" style="animation-delay: 1.95s" />
    <circle cx="304.82758620689657" cy="114.54183266932273" r="4" fill="#6b63ff" class="data-point" style="animation-delay: 2.00s" />
    <circle cx="329.3103448275862" cy="113.34661354581675" r="4" fill="#6b63ff" class="data-point" style="animation-delay: 2.05s" />
    <circle cx="353.7931034482759" cy="109.76095617529882" r="4" fill="#6b63ff" class="data-point" style="animation-delay: 2.10s" />
    <circle cx="378.2758620689655" cy="102.58964143426294" r="4" fill="#6b63ff" class="data-point" style="animation-delay: 2.15s" />
    <circle cx="402.7586206896552" cy="91.83266932270914" r="4" fill="#6b63ff" class="data-point" style="animation-delay: 2.20s" />
    <circle cx="427.2413793103448" cy="91.83266932270914" r="4" fill="#6b63ff" class="data-point" style="animation-delay: 2.25s" />
    <circle cx="451.7241379310345" cy="90.63745019920316" r="4" fill="#6b63ff" class="data-point" style="animation-delay: 2.30s" />
    <circle cx="476.2068965517241" cy="90.63745019920316" r="4" fill="#6b63ff" class="data-point" style="animation-delay: 2.35s" />
    <circle cx="500.6896551724138" cy="90.63745019920316" r="4" fill="#6b63ff" class="data-point" style="animation-delay: 2.40s" />
    <circle cx="525.1724137931035" cy="90.63745019920316" r="4" fill="#6b63ff" class="data-point" style="animation-delay: 2.45s" />
    <circle cx="549.6551724137931" cy="89.44223107569724" r="4" fill="#6b63ff" class="data-point" style="animation-delay: 2.50s" />
    <circle cx="574.1379310344828" cy="85.8565737051793" r="4" fill="#6b63ff" class="data-point" style="animation-delay: 2.55s" />
    <circle cx="598.6206896551724" cy="85.8565737051793" r="4" fill="#6b63ff" class="data-point" style="animation-delay: 2.60s" />
    <circle cx="623.1034482758621" cy="84.66135458167332" r="4" fill="#6b63ff" class="data-point" style="animation-delay: 2.65s" />
    <circle cx="647.5862068965517" cy="83.46613545816734" r="4" fill="#6b63ff" class="data-point" style="animation-delay: 2.70s" />
    <circle cx="672.0689655172414" cy="82.27091633466136" r="4" fill="#6b63ff" class="data-point" style="animation-delay: 2.75s" />
    <circle cx="696.551724137931" cy="82.27091633466136" r="4" fill="#6b63ff" class="data-point" style="animation-delay: 2.80s" />
    <circle cx="721.0344827586207" cy="79.88047808764941" r="4" fill="#6b63ff" class="data-point" style="animation-delay: 2.85s" />
    <circle cx="745.5172413793103" cy="77.49003984063745" r="4" fill="#6b63ff" class="data-point" style="animation-delay: 2.90s" />
    <circle cx="770" cy="77.49003984063745" r="4" fill="#6b63ff" class="data-point" style="animation-delay: 2.95s" />
  </g>
</svg>