<svg xmlns="http://www.w3.org/2000/svg" viewBox="0 0 800 400" width="800" height="400">
  <style>
    @keyframes drawLine {
      to { stroke-dashoffset: 0; }
    }
    @keyframes fadeInPoint {
      from { opacity: 0; }
      to { opacity: 1; }
    }
    .data-line-0 {
      stroke-dasharray: 1267;
      stroke-dashoffset: 1267;
      animation: drawLine 2s ease-out forwards;
    }
    .data-point {
      opacity: 0;
      animation: fadeInPoint 0.5s ease-out forwards;
    }
    .chart-bg { fill: #fff; }
    .chart-text { fill: #24292e; }
    .chart-muted { fill: #6a737d; }
    .chart-grid { stroke: #eee; }
    .chart-axis { stroke: #6a737d; }
    @media (prefers-color-scheme: dark) {
      .chart-bg { fill: #0d1117; }
      .chart-text { fill: #e6edf3; }
      .chart-muted { fill: #8b949e; }
      .chart-grid { stroke: #21262d; }
      .chart-axis { stroke: #8b949e; }
    }
  </style>
  <rect width="800" height="400" class="chart-bg" />
  <text x="400" y="14" text-anchor="middle" class="chart-text" font-size="16" font-weight="bold" font-family="-apple-system, BlinkMacSystemFont, 'Segoe UI', Helvetica, Arial, sans-serif">dockur/stunnel Star History</text>
  
  <g class="grid">
    <line x1="60" y1="350" x2="770" y2="350" class="chart-grid" stroke-opacity="0.3" />
    <text x="778" y="354" text-anchor="start" class="chart-muted" font-size="11" font-family="-apple-system, BlinkMacSystemFont, 'Segoe UI', Helvetica, Arial, sans-serif">0</text>
    <line x1="60" y1="256.25" x2="770" y2="256.25" class="chart-grid" stroke-opacity="0.3" />
    <text x="778" y="260.25" text-anchor="start" class="chart-muted" font-size="11" font-family="-apple-system, BlinkMacSystemFont, 'Segoe UI', Helvetica, Arial, sans-serif">5</text>
    <line x1="60" y1="162.5" x2="770" y2="162.5" class="chart-grid" stroke-opacity="0.3" />
    <text x="778" y="166.5" text-anchor="start" class="chart-muted" font-size="11" font-family="-apple-system, BlinkMacSystemFont, 'Segoe UI', Helvetica, Arial, sans-serif">10</text>
    <line x1="60" y1="68.75" x2="770" y2="68.75" class="chart-grid" stroke-opacity="0.3" />
    <text x="778" y="72.75" text-anchor="start" class="chart-muted" font-size="11" font-family="-apple-system, BlinkMacSystemFont, 'Segoe UI', Helvetica, Arial, sans-serif">15</text>
  </g>
  <g class="milestones">
    
  </g>
  <g class="x-axis">
    <text x="60" y="370" text-anchor="middle" class="chart-muted" font-size="11" font-family="-apple-system, BlinkMacSystemFont, 'Segoe UI', Helvetica, Arial, sans-serif">Sep 28</text>
    <text x="133.44827586206895" y="370" text-anchor="middle" class="chart-muted" font-size="11" font-family="-apple-system, BlinkMacSystemFont, 'Segoe UI', Helvetica, Arial, sans-serif">Oct 27</text>
    <text x="206.89655172413794" y="370" text-anchor="middle" class="chart-muted" font-size="11" font-family="-apple-system, BlinkMacSystemFont, 'Segoe UI', Helvetica, Arial, sans-serif">Nov 24</text>
    <text x="280.34482758620686" y="370" text-anchor="middle" class="chart-muted" font-size="11" font-family="-apple-system, BlinkMacSystemFont, 'Segoe UI', Helvetica, Arial, sans-serif">Dec 22</text>
    <text x="353.7931034482759" y="370" text-anchor="middle" class="chart-muted" font-size="11" font-family="-apple-system, BlinkMacSystemFont, 'Segoe UI', Helvetica, Arial, sans-serif">Jan 19</text>
    <text x="427.2413793103448" y="370" text-anchor="middle" class="chart-muted" font-size="11" font-family="-apple-system, BlinkMacSystemFont, 'Segoe UI', Helvetica, Arial, sans-serif">Feb 16</text>
    <text x="500.6896551724138" y="370" text-anchor="middle" class="chart-muted" font-size="11" font-family="-apple-system, BlinkMacSystemFont, 'Segoe UI', Helvetica, Arial, sans-serif">Mar 16</text>
    <text x="574.1379310344828" y="370" text-anchor="middle" class="chart-muted" font-size="11" font-family="-apple-system, BlinkMacSystemFont, 'Segoe UI', Helvetica, Arial, sans-serif">Apr 13</text>
    <text x="647.5862068965517" y="370" text-anchor="middle" class="chart-muted" font-size="11" font-family="-apple-system, BlinkMacSystemFont, 'Segoe UI', Helvetica, Arial, sans-serif">May 11</text>
    <text x="721.0344827586207" y="370" text-anchor="middle" class="chart-muted" font-size="11" font-family="-apple-system, BlinkMacSystemFont, 'Segoe UI', Helvetica, Arial, sans-serif">Jun 8</text>
    <text x="770" y="370" text-anchor="middle" class="chart-muted" font-size="11" font-family="-apple-system, BlinkMacSystemFont, 'Segoe UI', Helvetica, Arial, sans-serif">Jun 27</text>
  </g>
  <line x1="770" y1="50" x2="770" y2="350" class="chart-axis" stroke-width="1" />
  <line x1="60" y1="350" x2="770" y2="350" class="chart-axis" stroke-width="1" />
  <path d="M60,350 L60,331.25 C63.264367816091955,326.25 77.95402298850574,298.75 84.48275862068965,293.75 C91.01149425287356,293.75 102.43678160919539,293.75 108.9655172413793,293.75 C115.49425287356321,293.75 126.91954022988504,293.75 133.44827586206895,293.75 C139.97701149425285,293.75 151.40229885057468,293.75 157.9310344827586,293.75 C164.45977011494253,291.25 175.88505747126436,282.5 182.41379310344828,275 C188.9425287356322,267.5 200.36781609195404,245 206.89655172413794,237.5 C213.42528735632183,230 224.8505747126437,221.25 231.3793103448276,218.75 C237.90804597701148,218.75 249.33333333333334,218.75 255.86206896551724,218.75 C262.39080459770116,218.75 273.81609195402297,218.75 280.34482758620686,218.75 C286.87356321839076,216.25 298.2988505747127,202.5 304.82758620689657,200 C311.35632183908046,200 322.7816091954023,200 329.3103448275862,200 C335.8390804597701,200 347.264367816092,200 353.7931034482759,200 C360.32183908045977,200 371.7471264367816,200 378.2758620689655,200 C384.8045977011494,192.5 396.2298850574713,151.25 402.7586206896552,143.75 C409.28735632183907,143.75 420.71264367816093,143.75 427.2413793103448,143.75 C433.7701149425287,143.75 445.1954022988506,143.75 451.7241379310345,143.75 C458.2528735632184,143.75 469.67816091954023,143.75 476.2068965517241,143.75 C482.735632183908,143.75 494.1609195402299,143.75 500.6896551724138,143.75 C507.2183908045977,143.75 518.6436781609195,143.75 525.1724137931035,143.75 C531.7011494252874,141.25 543.1264367816092,127.5 549.6551724137931,125 C556.1839080459771,125 567.6091954022988,125 574.1379310344828,125 C580.6666666666667,125 592.0919540229885,125 598.6206896551724,125 C605.1494252873564,125 616.5747126436781,125 623.1034482758621,125 C629.632183908046,122.5 641.0574712643678,108.75 647.5862068965517,106.25 C654.1149425287357,106.25 665.5402298850574,106.25 672.0689655172414,106.25 C678.5977011494253,106.25 690.0229885057471,106.25 696.551724137931,106.25 C703.080459770115,106.25 714.5057471264367,106.25 721.0344827586207,106.25 C727.5632183908046,103.75 738.9885057471264,90 745.5172413793103,87.5 C752.0459770114943,87.5 766.735632183908,87.5 770,87.5 L770,350 L60,350 Z" fill="#6b63ff" fill-opacity="0.1" />
  <path d="M60,350 L60,331.25 C63.264367816091955,326.25 77.95402298850574,298.75 84.48275862068965,293.75 C91.01149425287356,293.75 102.43678160919539,293.75 108.9655172413793,293.75 C115.49425287356321,293.75 126.91954022988504,293.75 133.44827586206895,293.75 C139.97701149425285,293.75 151.40229885057468,293.75 157.9310344827586,293.75 C164.45977011494253,291.25 175.88505747126436,282.5 182.41379310344828,275 C188.9425287356322,267.5 200.36781609195404,245 206.89655172413794,237.5 C213.42528735632183,230 224.8505747126437,221.25 231.3793103448276,218.75 C237.90804597701148,218.75 249.33333333333334,218.75 255.86206896551724,218.75 C262.39080459770116,218.75 273.81609195402297,218.75 280.34482758620686,218.75 C286.87356321839076,216.25 298.2988505747127,202.5 304.82758620689657,200 C311.35632183908046,200 322.7816091954023,200 329.3103448275862,200 C335.8390804597701,200 347.264367816092,200 353.7931034482759,200 C360.32183908045977,200 371.7471264367816,200 378.2758620689655,200 C384.8045977011494,192.5 396.2298850574713,151.25 402.7586206896552,143.75 C409.28735632183907,143.75 420.71264367816093,143.75 427.2413793103448,143.75 C433.7701149425287,143.75 445.1954022988506,143.75 451.7241379310345,143.75 C458.2528735632184,143.75 469.67816091954023,143.75 476.2068965517241,143.75 C482.735632183908,143.75 494.1609195402299,143.75 500.6896551724138,143.75 C507.2183908045977,143.75 518.6436781609195,143.75 525.1724137931035,143.75 C531.7011494252874,141.25 543.1264367816092,127.5 549.6551724137931,125 C556.1839080459771,125 567.6091954022988,125 574.1379310344828,125 C580.6666666666667,125 592.0919540229885,125 598.6206896551724,125 C605.1494252873564,125 616.5747126436781,125 623.1034482758621,125 C629.632183908046,122.5 641.0574712643678,108.75 647.5862068965517,106.25 C654.1149425287357,106.25 665.5402298850574,106.25 672.0689655172414,106.25 C678.5977011494253,106.25 690.0229885057471,106.25 696.551724137931,106.25 C703.080459770115,106.25 714.5057471264367,106.25 721.0344827586207,106.25 C727.5632183908046,103.75 738.9885057471264,90 745.5172413793103,87.5 C752.0459770114943,87.5 766.735632183908,87.5 770,87.5" fill="none" stroke="#6b63ff" stroke-width="2.5" class="data-line-0" />
  <g class="points">
    
    <circle cx="60" cy="331.25" r="4" fill="#6b63ff" class="data-point" style="animation-delay: 1.50s" />
    <circle cx="84.48275862068965" cy="293.75" r="4" fill="#6b63ff" class="data-point" style="animation-delay: 1.55s" />
    <circle cx="108.9655172413793" cy="293.75" r="4" fill="#6b63ff" class="data-point" style="animation-delay: 1.60s" />
    <circle cx="133.44827586206895" cy="293.75" r="4" fill="#6b63ff" class="data-point" style="animation-delay: 1.65s" />
    <circle cx="157.9310344827586" cy="293.75" r="4" fill="#6b63ff" class="data-point" style="animation-delay: 1.70s" />
    <circle cx="182.41379310344828" cy="275" r="4" fill="#6b63ff" class="data-point" style="animation-delay: 1.75s" />
    <circle cx="206.89655172413794" cy="237.5" r="4" fill="#6b63ff" class="data-point" style="animation-delay: 1.80s" />
    <circle cx="231.3793103448276" cy="218.75" r="4" fill="#6b63ff" class="data-point" style="animation-delay: 1.85s" />
    <circle cx="255.86206896551724" cy="218.75" r="4" fill="#6b63ff" class="data-point" style="animation-delay: 1.90s" />
    <circle cx="280.34482758620686" cy="218.75" r="4" fill="#6b63ff" class="data-point" style="animation-delay: 1.95s" />
    <circle cx="304.82758620689657" cy="200" r="4" fill="#6b63ff" class="data-point" style="animation-delay: 2.00s" />
    <circle cx="329.3103448275862" cy="200" r="4" fill="#6b63ff" class="data-point" style="animation-delay: 2.05s" />
    <circle cx="353.7931034482759" cy="200" r="4" fill="#6b63ff" class="data-point" style="animation-delay: 2.10s" />
    <circle cx="378.2758620689655" cy="200" r="4" fill="#6b63ff" class="data-point" style="animation-delay: 2.15s" />
    <circle cx="402.7586206896552" cy="143.75" r="4" fill="#6b63ff" class="data-point" style="animation-delay: 2.20s" />
    <circle cx="427.2413793103448" cy="143.75" r="4" fill="#6b63ff" class="data-point" style="animation-delay: 2.25s" />
    <circle cx="451.7241379310345" cy="143.75" r="4" fill="#6b63ff" class="data-point" style="animation-delay: 2.30s" />
    <circle cx="476.2068965517241" cy="143.75" r="4" fill="#6b63ff" class="data-point" style="animation-delay: 2.35s" />
    <circle cx="500.6896551724138" cy="143.75" r="4" fill="#6b63ff" class="data-point" style="animation-delay: 2.40s" />
    <circle cx="525.1724137931035" cy="143.75" r="4" fill="#6b63ff" class="data-point" style="animation-delay: 2.45s" />
    <circle cx="549.6551724137931" cy="125" r="4" fill="#6b63ff" class="data-point" style="animation-delay: 2.50s" />
    <circle cx="574.1379310344828" cy="125" r="4" fill="#6b63ff" class="data-point" style="animation-delay: 2.55s" />
    <circle cx="598.6206896551724" cy="125" r="4" fill="#6b63ff" class="data-point" style="animation-delay: 2.60s" />
    <circle cx="623.1034482758621" cy="125" r="4" fill="#6b63ff" class="data-point" style="animation-delay: 2.65s" />
    <circle cx="647.5862068965517" cy="106.25" r="4" fill="#6b63ff" class="data-point" style="animation-delay: 2.70s" />
    <circle cx="672.0689655172414" cy="106.25" r="4" fill="#6b63ff" class="data-point" style="animation-delay: 2.75s" />
    <circle cx="696.551724137931" cy="106.25" r="4" fill="#6b63ff" class="data-point" style="animation-delay: 2.80s" />
    <circle cx="721.0344827586207" cy="106.25" r="4" fill="#6b63ff" class="data-point" style="animation-delay: 2.85s" />
    <circle cx="745.5172413793103" cy="87.5" r="4" fill="#6b63ff" class="data-point" style="animation-delay: 2.90s" />
    <circle cx="770" cy="87.5" r="4" fill="#6b63ff" class="data-point" style="animation-delay: 2.95s" />
  </g>
</svg>