<svg xmlns="http://www.w3.org/2000/svg" viewBox="0 0 800 400" width="800" height="400">
  <style>
    @keyframes drawLine {
      to { stroke-dashoffset: 0; }
    }
    @keyframes fadeInPoint {
      from { opacity: 0; }
      to { opacity: 1; }
    }
    .data-line-0 {
      stroke-dasharray: 1172;
      stroke-dashoffset: 1172;
      animation: drawLine 2s ease-out forwards;
    }
    .data-point {
      opacity: 0;
      animation: fadeInPoint 0.5s ease-out forwards;
    }
    .chart-bg { fill: #fff; }
    .chart-text { fill: #24292e; }
    .chart-muted { fill: #6a737d; }
    .chart-grid { stroke: #eee; }
    .chart-axis { stroke: #6a737d; }
    @media (prefers-color-scheme: dark) {
      .chart-bg { fill: #0d1117; }
      .chart-text { fill: #e6edf3; }
      .chart-muted { fill: #8b949e; }
      .chart-grid { stroke: #21262d; }
      .chart-axis { stroke: #8b949e; }
    }
  </style>
  <rect width="800" height="400" class="chart-bg" />
  <text x="400" y="14" text-anchor="middle" class="chart-text" font-size="16" font-weight="bold" font-family="-apple-system, BlinkMacSystemFont, 'Segoe UI', Helvetica, Arial, sans-serif">dockur/chrony Star History</text>
  
  <g class="grid">
    <line x1="60" y1="350" x2="770" y2="350" class="chart-grid" stroke-opacity="0.3" />
    <text x="778" y="354" text-anchor="start" class="chart-muted" font-size="11" font-family="-apple-system, BlinkMacSystemFont, 'Segoe UI', Helvetica, Arial, sans-serif">0</text>
    <line x1="60" y1="300" x2="770" y2="300" class="chart-grid" stroke-opacity="0.3" />
    <text x="778" y="304" text-anchor="start" class="chart-muted" font-size="11" font-family="-apple-system, BlinkMacSystemFont, 'Segoe UI', Helvetica, Arial, sans-serif">20</text>
    <line x1="60" y1="250" x2="770" y2="250" class="chart-grid" stroke-opacity="0.3" />
    <text x="778" y="254" text-anchor="start" class="chart-muted" font-size="11" font-family="-apple-system, BlinkMacSystemFont, 'Segoe UI', Helvetica, Arial, sans-serif">40</text>
    <line x1="60" y1="200" x2="770" y2="200" class="chart-grid" stroke-opacity="0.3" />
    <text x="778" y="204" text-anchor="start" class="chart-muted" font-size="11" font-family="-apple-system, BlinkMacSystemFont, 'Segoe UI', Helvetica, Arial, sans-serif">60</text>
    <line x1="60" y1="150" x2="770" y2="150" class="chart-grid" stroke-opacity="0.3" />
    <text x="778" y="154" text-anchor="start" class="chart-muted" font-size="11" font-family="-apple-system, BlinkMacSystemFont, 'Segoe UI', Helvetica, Arial, sans-serif">80</text>
    <line x1="60" y1="100" x2="770" y2="100" class="chart-grid" stroke-opacity="0.3" />
    <text x="778" y="104" text-anchor="start" class="chart-muted" font-size="11" font-family="-apple-system, BlinkMacSystemFont, 'Segoe UI', Helvetica, Arial, sans-serif">100</text>
    <line x1="60" y1="50" x2="770" y2="50" class="chart-grid" stroke-opacity="0.3" />
    <text x="778" y="54" text-anchor="start" class="chart-muted" font-size="11" font-family="-apple-system, BlinkMacSystemFont, 'Segoe UI', Helvetica, Arial, sans-serif">120</text>
  </g>
  <g class="milestones">
    
  </g>
  <g class="x-axis">
    <text x="60" y="370" text-anchor="middle" class="chart-muted" font-size="11" font-family="-apple-system, BlinkMacSystemFont, 'Segoe UI', Helvetica, Arial, sans-serif">2023</text>
    <text x="108.9655172413793" y="370" text-anchor="middle" class="chart-muted" font-size="11" font-family="-apple-system, BlinkMacSystemFont, 'Segoe UI', Helvetica, Arial, sans-serif">2024</text>
    <text x="378.2758620689655" y="370" text-anchor="middle" class="chart-muted" font-size="11" font-family="-apple-system, BlinkMacSystemFont, 'Segoe UI', Helvetica, Arial, sans-serif">2025</text>
    <text x="647.5862068965517" y="370" text-anchor="middle" class="chart-muted" font-size="11" font-family="-apple-system, BlinkMacSystemFont, 'Segoe UI', Helvetica, Arial, sans-serif">2026</text>
  </g>
  <line x1="770" y1="50" x2="770" y2="350" class="chart-axis" stroke-width="1" />
  <line x1="60" y1="350" x2="770" y2="350" class="chart-axis" stroke-width="1" />
  <path d="M60,350 L60,347.5 C68.16091954022988,347.5 76.32183908045977,347.5 84.48275862068965,347.5 C92.64367816091954,347.5 100.80459770114942,347.5 108.9655172413793,347.5 C117.12643678160919,347.5 125.28735632183907,345 133.44827586206895,342.5 C141.60919540229884,340 149.77011494252872,332.5 157.9310344827586,332.5 C166.0919540229885,332.5 174.2528735632184,332.5 182.41379310344828,332.5 C190.57471264367817,332.5 198.73563218390805,332.5 206.89655172413794,332.5 C215.05747126436782,332.5 223.2183908045977,332.5 231.3793103448276,332.5 C239.54022988505747,332.5 247.70114942528735,328.75 255.86206896551724,327.5 C264.0229885057471,326.25 272.183908045977,326.25 280.34482758620686,325 C288.50574712643675,323.75 296.6666666666667,322.9166666666667 304.82758620689657,320 C312.98850574712645,317.0833333333333 321.14942528735634,312.5 329.3103448275862,307.5 C337.4712643678161,302.5 345.632183908046,292.2360679774998 353.7931034482759,290 C361.95402298850576,287.7639320225002 370.11494252873564,288.6180339887499 378.2758620689655,287.5 C386.4367816091954,286.3819660112501 394.5977011494253,284.1666666666667 402.7586206896552,280 C410.91954022988506,275.8333333333333 419.08045977011494,267.5 427.2413793103448,262.5 C435.4022988505747,257.5 443.5632183908046,254.16666666666666 451.7241379310345,250 C459.88505747126436,245.83333333333334 468.04597701149424,240.41666666666666 476.2068965517241,237.5 C484.367816091954,234.58333333333334 492.5287356321839,234.58333333333334 500.6896551724138,232.5 C508.85057471264366,230.41666666666666 517.0114942528736,229.16666666666669 525.1724137931035,225 C533.3333333333334,220.83333333333334 541.4942528735633,213.75 549.6551724137931,207.5 C557.816091954023,201.25 565.9770114942529,192.91666666666666 574.1379310344828,187.5 C582.2988505747127,182.08333333333334 590.4597701149426,181.66666666666666 598.6206896551724,175 C606.7816091954023,168.33333333333334 614.9425287356322,155 623.1034482758621,147.5 C631.264367816092,140 639.4252873563219,134.58333333333337 647.5862068965517,130.00000000000003 C655.7471264367816,125.41666666666669 663.9080459770115,123.33333333333331 672.0689655172414,119.99999999999997 C680.2298850574713,116.66666666666663 688.3908045977012,113.33333333333333 696.551724137931,110 C704.7126436781609,106.66666666666667 712.8735632183908,101.76776695296637 721.0344827586207,100 C729.1954022988506,98.23223304703363 737.3563218390805,99.26776695296637 745.5172413793103,97.5 C753.6781609195402,95.73223304703363 761.8390804597701,90.83333333333333 770,87.5 L770,350 L60,350 Z" fill="#6b63ff" fill-opacity="0.1" />
  <path d="M60,350 L60,347.5 C68.16091954022988,347.5 76.32183908045977,347.5 84.48275862068965,347.5 C92.64367816091954,347.5 100.80459770114942,347.5 108.9655172413793,347.5 C117.12643678160919,347.5 125.28735632183907,345 133.44827586206895,342.5 C141.60919540229884,340 149.77011494252872,332.5 157.9310344827586,332.5 C166.0919540229885,332.5 174.2528735632184,332.5 182.41379310344828,332.5 C190.57471264367817,332.5 198.73563218390805,332.5 206.89655172413794,332.5 C215.05747126436782,332.5 223.2183908045977,332.5 231.3793103448276,332.5 C239.54022988505747,332.5 247.70114942528735,328.75 255.86206896551724,327.5 C264.0229885057471,326.25 272.183908045977,326.25 280.34482758620686,325 C288.50574712643675,323.75 296.6666666666667,322.9166666666667 304.82758620689657,320 C312.98850574712645,317.0833333333333 321.14942528735634,312.5 329.3103448275862,307.5 C337.4712643678161,302.5 345.632183908046,292.2360679774998 353.7931034482759,290 C361.95402298850576,287.7639320225002 370.11494252873564,288.6180339887499 378.2758620689655,287.5 C386.4367816091954,286.3819660112501 394.5977011494253,284.1666666666667 402.7586206896552,280 C410.91954022988506,275.8333333333333 419.08045977011494,267.5 427.2413793103448,262.5 C435.4022988505747,257.5 443.5632183908046,254.16666666666666 451.7241379310345,250 C459.88505747126436,245.83333333333334 468.04597701149424,240.41666666666666 476.2068965517241,237.5 C484.367816091954,234.58333333333334 492.5287356321839,234.58333333333334 500.6896551724138,232.5 C508.85057471264366,230.41666666666666 517.0114942528736,229.16666666666669 525.1724137931035,225 C533.3333333333334,220.83333333333334 541.4942528735633,213.75 549.6551724137931,207.5 C557.816091954023,201.25 565.9770114942529,192.91666666666666 574.1379310344828,187.5 C582.2988505747127,182.08333333333334 590.4597701149426,181.66666666666666 598.6206896551724,175 C606.7816091954023,168.33333333333334 614.9425287356322,155 623.1034482758621,147.5 C631.264367816092,140 639.4252873563219,134.58333333333337 647.5862068965517,130.00000000000003 C655.7471264367816,125.41666666666669 663.9080459770115,123.33333333333331 672.0689655172414,119.99999999999997 C680.2298850574713,116.66666666666663 688.3908045977012,113.33333333333333 696.551724137931,110 C704.7126436781609,106.66666666666667 712.8735632183908,101.76776695296637 721.0344827586207,100 C729.1954022988506,98.23223304703363 737.3563218390805,99.26776695296637 745.5172413793103,97.5 C753.6781609195402,95.73223304703363 761.8390804597701,90.83333333333333 770,87.5" fill="none" stroke="#6b63ff" stroke-width="2.5" class="data-line-0" />
  <g class="points">
    
    <circle cx="60" cy="347.5" r="4" fill="#6b63ff" class="data-point" style="animation-delay: 1.50s" />
    <circle cx="84.48275862068965" cy="347.5" r="4" fill="#6b63ff" class="data-point" style="animation-delay: 1.55s" />
    <circle cx="108.9655172413793" cy="347.5" r="4" fill="#6b63ff" class="data-point" style="animation-delay: 1.60s" />
    <circle cx="133.44827586206895" cy="342.5" r="4" fill="#6b63ff" class="data-point" style="animation-delay: 1.65s" />
    <circle cx="157.9310344827586" cy="332.5" r="4" fill="#6b63ff" class="data-point" style="animation-delay: 1.70s" />
    <circle cx="182.41379310344828" cy="332.5" r="4" fill="#6b63ff" class="data-point" style="animation-delay: 1.75s" />
    <circle cx="206.89655172413794" cy="332.5" r="4" fill="#6b63ff" class="data-point" style="animation-delay: 1.80s" />
    <circle cx="231.3793103448276" cy="332.5" r="4" fill="#6b63ff" class="data-point" style="animation-delay: 1.85s" />
    <circle cx="255.86206896551724" cy="327.5" r="4" fill="#6b63ff" class="data-point" style="animation-delay: 1.90s" />
    <circle cx="280.34482758620686" cy="325" r="4" fill="#6b63ff" class="data-point" style="animation-delay: 1.95s" />
    <circle cx="304.82758620689657" cy="320" r="4" fill="#6b63ff" class="data-point" style="animation-delay: 2.00s" />
    <circle cx="329.3103448275862" cy="307.5" r="4" fill="#6b63ff" class="data-point" style="animation-delay: 2.05s" />
    <circle cx="353.7931034482759" cy="290" r="4" fill="#6b63ff" class="data-point" style="animation-delay: 2.10s" />
    <circle cx="378.2758620689655" cy="287.5" r="4" fill="#6b63ff" class="data-point" style="animation-delay: 2.15s" />
    <circle cx="402.7586206896552" cy="280" r="4" fill="#6b63ff" class="data-point" style="animation-delay: 2.20s" />
    <circle cx="427.2413793103448" cy="262.5" r="4" fill="#6b63ff" class="data-point" style="animation-delay: 2.25s" />
    <circle cx="451.7241379310345" cy="250" r="4" fill="#6b63ff" class="data-point" style="animation-delay: 2.30s" />
    <circle cx="476.2068965517241" cy="237.5" r="4" fill="#6b63ff" class="data-point" style="animation-delay: 2.35s" />
    <circle cx="500.6896551724138" cy="232.5" r="4" fill="#6b63ff" class="data-point" style="animation-delay: 2.40s" />
    <circle cx="525.1724137931035" cy="225" r="4" fill="#6b63ff" class="data-point" style="animation-delay: 2.45s" />
    <circle cx="549.6551724137931" cy="207.5" r="4" fill="#6b63ff" class="data-point" style="animation-delay: 2.50s" />
    <circle cx="574.1379310344828" cy="187.5" r="4" fill="#6b63ff" class="data-point" style="animation-delay: 2.55s" />
    <circle cx="598.6206896551724" cy="175" r="4" fill="#6b63ff" class="data-point" style="animation-delay: 2.60s" />
    <circle cx="623.1034482758621" cy="147.5" r="4" fill="#6b63ff" class="data-point" style="animation-delay: 2.65s" />
    <circle cx="647.5862068965517" cy="130.00000000000003" r="4" fill="#6b63ff" class="data-point" style="animation-delay: 2.70s" />
    <circle cx="672.0689655172414" cy="119.99999999999997" r="4" fill="#6b63ff" class="data-point" style="animation-delay: 2.75s" />
    <circle cx="696.551724137931" cy="110" r="4" fill="#6b63ff" class="data-point" style="animation-delay: 2.80s" />
    <circle cx="721.0344827586207" cy="100" r="4" fill="#6b63ff" class="data-point" style="animation-delay: 2.85s" />
    <circle cx="745.5172413793103" cy="97.5" r="4" fill="#6b63ff" class="data-point" style="animation-delay: 2.90s" />
    <circle cx="770" cy="87.5" r="4" fill="#6b63ff" class="data-point" style="animation-delay: 2.95s" />
  </g>
</svg>