<svg xmlns="http://www.w3.org/2000/svg" viewBox="0 0 800 400" width="800" height="400">
  <style>
    @keyframes drawLine {
      to { stroke-dashoffset: 0; }
    }
    @keyframes fadeInPoint {
      from { opacity: 0; }
      to { opacity: 1; }
    }
    .data-line-0 {
      stroke-dasharray: 1179;
      stroke-dashoffset: 1179;
      animation: drawLine 2s ease-out forwards;
    }
    .data-point {
      opacity: 0;
      animation: fadeInPoint 0.5s ease-out forwards;
    }
    .chart-bg { fill: #fff; }
    .chart-text { fill: #24292e; }
    .chart-muted { fill: #6a737d; }
    .chart-grid { stroke: #eee; }
    .chart-axis { stroke: #6a737d; }
    @media (prefers-color-scheme: dark) {
      .chart-bg { fill: #0d1117; }
      .chart-text { fill: #e6edf3; }
      .chart-muted { fill: #8b949e; }
      .chart-grid { stroke: #21262d; }
      .chart-axis { stroke: #8b949e; }
    }
  </style>
  <rect width="800" height="400" class="chart-bg" />
  <text x="400" y="14" text-anchor="middle" class="chart-text" font-size="16" font-weight="bold" font-family="-apple-system, BlinkMacSystemFont, 'Segoe UI', Helvetica, Arial, sans-serif">dockur/portainer-backup Star History</text>
  
  <g class="grid">
    <line x1="60" y1="350" x2="770" y2="350" class="chart-grid" stroke-opacity="0.3" />
    <text x="778" y="354" text-anchor="start" class="chart-muted" font-size="11" font-family="-apple-system, BlinkMacSystemFont, 'Segoe UI', Helvetica, Arial, sans-serif">0</text>
    <line x1="60" y1="250" x2="770" y2="250" class="chart-grid" stroke-opacity="0.3" />
    <text x="778" y="254" text-anchor="start" class="chart-muted" font-size="11" font-family="-apple-system, BlinkMacSystemFont, 'Segoe UI', Helvetica, Arial, sans-serif">50</text>
    <line x1="60" y1="150" x2="770" y2="150" class="chart-grid" stroke-opacity="0.3" />
    <text x="778" y="154" text-anchor="start" class="chart-muted" font-size="11" font-family="-apple-system, BlinkMacSystemFont, 'Segoe UI', Helvetica, Arial, sans-serif">100</text>
    <line x1="60" y1="50" x2="770" y2="50" class="chart-grid" stroke-opacity="0.3" />
    <text x="778" y="54" text-anchor="start" class="chart-muted" font-size="11" font-family="-apple-system, BlinkMacSystemFont, 'Segoe UI', Helvetica, Arial, sans-serif">150</text>
  </g>
  <g class="milestones">
    
  </g>
  <g class="x-axis">
    <text x="60" y="370" text-anchor="middle" class="chart-muted" font-size="11" font-family="-apple-system, BlinkMacSystemFont, 'Segoe UI', Helvetica, Arial, sans-serif">2024</text>
    <text x="353.7931034482759" y="370" text-anchor="middle" class="chart-muted" font-size="11" font-family="-apple-system, BlinkMacSystemFont, 'Segoe UI', Helvetica, Arial, sans-serif">2025</text>
    <text x="647.5862068965517" y="370" text-anchor="middle" class="chart-muted" font-size="11" font-family="-apple-system, BlinkMacSystemFont, 'Segoe UI', Helvetica, Arial, sans-serif">2026</text>
  </g>
  <line x1="770" y1="50" x2="770" y2="350" class="chart-axis" stroke-width="1" />
  <line x1="60" y1="350" x2="770" y2="350" class="chart-axis" stroke-width="1" />
  <path d="M60,350 L60,348 C68.16091954022988,346 76.32183908045977,345 84.48275862068965,342 C92.64367816091954,339 100.80459770114942,334 108.9655172413793,330 C117.12643678160919,326 125.28735632183907,321.3333333333333 133.44827586206895,318 C141.60919540229884,314.6666666666667 149.77011494252872,310 157.9310344827586,310 C166.0919540229885,310 174.2528735632184,310 182.41379310344828,310 C190.57471264367817,310 198.73563218390805,301.89736659610105 206.89655172413794,300 C215.05747126436782,298.10263340389895 223.2183908045977,298.6324555320337 231.3793103448276,298 C239.54022988505747,297.3675444679663 247.70114942528735,296.2480694691784 255.86206896551724,296 C264.0229885057471,295.7519305308216 272.183908045977,295.98455575342734 280.34482758620686,294 C288.50574712643675,292.01544424657266 296.6666666666667,270.6666666666667 304.82758620689657,264 C312.98850574712645,257.33333333333337 321.14942528735634,256.6666666666667 329.3103448275862,254 C337.4712643678161,251.33333333333334 345.632183908046,250.66666666666666 353.7931034482759,248 C361.95402298850576,245.33333333333334 370.11494252873564,241 378.2758620689655,238 C386.4367816091954,235 394.5977011494253,232.66666666666666 402.7586206896552,230 C410.91954022988506,227.33333333333334 419.08045977011494,224.66666666666666 427.2413793103448,222 C435.4022988505747,219.33333333333334 443.5632183908046,216 451.7241379310345,214 C459.88505747126436,212 468.04597701149424,210 476.2068965517241,210 C484.367816091954,210 492.5287356321839,210 500.6896551724138,210 C508.85057471264366,210 517.0114942528736,205.66666666666669 525.1724137931035,202 C533.3333333333334,198.33333333333334 541.4942528735633,192.33333333333334 549.6551724137931,188 C557.816091954023,183.66666666666666 565.9770114942529,185.33333333333334 574.1379310344828,176 C582.2988505747127,166.66666666666666 590.4597701149426,141 598.6206896551724,132 C606.7816091954023,123 614.9425287356322,124.66666666666667 623.1034482758621,122 C631.264367816092,119.33333333333333 639.4252873563219,117.66666666666667 647.5862068965517,116 C655.7471264367816,114.33333333333333 663.9080459770115,114.33333333333333 672.0689655172414,112 C680.2298850574713,109.66666666666667 688.3908045977012,104.33333333333333 696.551724137931,102 C704.7126436781609,99.66666666666667 712.8735632183908,99.33333333333333 721.0344827586207,98 C729.1954022988506,96.66666666666667 737.3563218390805,96 745.5172413793103,94 C753.6781609195402,92 761.8390804597701,88.66666666666667 770,86 L770,350 L60,350 Z" fill="#6b63ff" fill-opacity="0.1" />
  <path d="M60,350 L60,348 C68.16091954022988,346 76.32183908045977,345 84.48275862068965,342 C92.64367816091954,339 100.80459770114942,334 108.9655172413793,330 C117.12643678160919,326 125.28735632183907,321.3333333333333 133.44827586206895,318 C141.60919540229884,314.6666666666667 149.77011494252872,310 157.9310344827586,310 C166.0919540229885,310 174.2528735632184,310 182.41379310344828,310 C190.57471264367817,310 198.73563218390805,301.89736659610105 206.89655172413794,300 C215.05747126436782,298.10263340389895 223.2183908045977,298.6324555320337 231.3793103448276,298 C239.54022988505747,297.3675444679663 247.70114942528735,296.2480694691784 255.86206896551724,296 C264.0229885057471,295.7519305308216 272.183908045977,295.98455575342734 280.34482758620686,294 C288.50574712643675,292.01544424657266 296.6666666666667,270.6666666666667 304.82758620689657,264 C312.98850574712645,257.33333333333337 321.14942528735634,256.6666666666667 329.3103448275862,254 C337.4712643678161,251.33333333333334 345.632183908046,250.66666666666666 353.7931034482759,248 C361.95402298850576,245.33333333333334 370.11494252873564,241 378.2758620689655,238 C386.4367816091954,235 394.5977011494253,232.66666666666666 402.7586206896552,230 C410.91954022988506,227.33333333333334 419.08045977011494,224.66666666666666 427.2413793103448,222 C435.4022988505747,219.33333333333334 443.5632183908046,216 451.7241379310345,214 C459.88505747126436,212 468.04597701149424,210 476.2068965517241,210 C484.367816091954,210 492.5287356321839,210 500.6896551724138,210 C508.85057471264366,210 517.0114942528736,205.66666666666669 525.1724137931035,202 C533.3333333333334,198.33333333333334 541.4942528735633,192.33333333333334 549.6551724137931,188 C557.816091954023,183.66666666666666 565.9770114942529,185.33333333333334 574.1379310344828,176 C582.2988505747127,166.66666666666666 590.4597701149426,141 598.6206896551724,132 C606.7816091954023,123 614.9425287356322,124.66666666666667 623.1034482758621,122 C631.264367816092,119.33333333333333 639.4252873563219,117.66666666666667 647.5862068965517,116 C655.7471264367816,114.33333333333333 663.9080459770115,114.33333333333333 672.0689655172414,112 C680.2298850574713,109.66666666666667 688.3908045977012,104.33333333333333 696.551724137931,102 C704.7126436781609,99.66666666666667 712.8735632183908,99.33333333333333 721.0344827586207,98 C729.1954022988506,96.66666666666667 737.3563218390805,96 745.5172413793103,94 C753.6781609195402,92 761.8390804597701,88.66666666666667 770,86" fill="none" stroke="#6b63ff" stroke-width="2.5" class="data-line-0" />
  <g class="points">
    
    <circle cx="60" cy="348" r="4" fill="#6b63ff" class="data-point" style="animation-delay: 1.50s" />
    <circle cx="84.48275862068965" cy="342" r="4" fill="#6b63ff" class="data-point" style="animation-delay: 1.55s" />
    <circle cx="108.9655172413793" cy="330" r="4" fill="#6b63ff" class="data-point" style="animation-delay: 1.60s" />
    <circle cx="133.44827586206895" cy="318" r="4" fill="#6b63ff" class="data-point" style="animation-delay: 1.65s" />
    <circle cx="157.9310344827586" cy="310" r="4" fill="#6b63ff" class="data-point" style="animation-delay: 1.70s" />
    <circle cx="182.41379310344828" cy="310" r="4" fill="#6b63ff" class="data-point" style="animation-delay: 1.75s" />
    <circle cx="206.89655172413794" cy="300" r="4" fill="#6b63ff" class="data-point" style="animation-delay: 1.80s" />
    <circle cx="231.3793103448276" cy="298" r="4" fill="#6b63ff" class="data-point" style="animation-delay: 1.85s" />
    <circle cx="255.86206896551724" cy="296" r="4" fill="#6b63ff" class="data-point" style="animation-delay: 1.90s" />
    <circle cx="280.34482758620686" cy="294" r="4" fill="#6b63ff" class="data-point" style="animation-delay: 1.95s" />
    <circle cx="304.82758620689657" cy="264" r="4" fill="#6b63ff" class="data-point" style="animation-delay: 2.00s" />
    <circle cx="329.3103448275862" cy="254" r="4" fill="#6b63ff" class="data-point" style="animation-delay: 2.05s" />
    <circle cx="353.7931034482759" cy="248" r="4" fill="#6b63ff" class="data-point" style="animation-delay: 2.10s" />
    <circle cx="378.2758620689655" cy="238" r="4" fill="#6b63ff" class="data-point" style="animation-delay: 2.15s" />
    <circle cx="402.7586206896552" cy="230" r="4" fill="#6b63ff" class="data-point" style="animation-delay: 2.20s" />
    <circle cx="427.2413793103448" cy="222" r="4" fill="#6b63ff" class="data-point" style="animation-delay: 2.25s" />
    <circle cx="451.7241379310345" cy="214" r="4" fill="#6b63ff" class="data-point" style="animation-delay: 2.30s" />
    <circle cx="476.2068965517241" cy="210" r="4" fill="#6b63ff" class="data-point" style="animation-delay: 2.35s" />
    <circle cx="500.6896551724138" cy="210" r="4" fill="#6b63ff" class="data-point" style="animation-delay: 2.40s" />
    <circle cx="525.1724137931035" cy="202" r="4" fill="#6b63ff" class="data-point" style="animation-delay: 2.45s" />
    <circle cx="549.6551724137931" cy="188" r="4" fill="#6b63ff" class="data-point" style="animation-delay: 2.50s" />
    <circle cx="574.1379310344828" cy="176" r="4" fill="#6b63ff" class="data-point" style="animation-delay: 2.55s" />
    <circle cx="598.6206896551724" cy="132" r="4" fill="#6b63ff" class="data-point" style="animation-delay: 2.60s" />
    <circle cx="623.1034482758621" cy="122" r="4" fill="#6b63ff" class="data-point" style="animation-delay: 2.65s" />
    <circle cx="647.5862068965517" cy="116" r="4" fill="#6b63ff" class="data-point" style="animation-delay: 2.70s" />
    <circle cx="672.0689655172414" cy="112" r="4" fill="#6b63ff" class="data-point" style="animation-delay: 2.75s" />
    <circle cx="696.551724137931" cy="102" r="4" fill="#6b63ff" class="data-point" style="animation-delay: 2.80s" />
    <circle cx="721.0344827586207" cy="98" r="4" fill="#6b63ff" class="data-point" style="animation-delay: 2.85s" />
    <circle cx="745.5172413793103" cy="94" r="4" fill="#6b63ff" class="data-point" style="animation-delay: 2.90s" />
    <circle cx="770" cy="86" r="4" fill="#6b63ff" class="data-point" style="animation-delay: 2.95s" />
  </g>
</svg>