<svg xmlns="http://www.w3.org/2000/svg" viewBox="0 0 800 400" width="800" height="400">
  <style>
    @keyframes drawLine {
      to { stroke-dashoffset: 0; }
    }
    @keyframes fadeInPoint {
      from { opacity: 0; }
      to { opacity: 1; }
    }
    .data-line-0 {
      stroke-dasharray: 1204;
      stroke-dashoffset: 1204;
      animation: drawLine 2s ease-out forwards;
    }
    .data-point {
      opacity: 0;
      animation: fadeInPoint 0.5s ease-out forwards;
    }
    .chart-bg { fill: #fff; }
    .chart-text { fill: #24292e; }
    .chart-muted { fill: #6a737d; }
    .chart-grid { stroke: #eee; }
    .chart-axis { stroke: #6a737d; }
    @media (prefers-color-scheme: dark) {
      .chart-bg { fill: #0d1117; }
      .chart-text { fill: #e6edf3; }
      .chart-muted { fill: #8b949e; }
      .chart-grid { stroke: #21262d; }
      .chart-axis { stroke: #8b949e; }
    }
  </style>
  <rect width="800" height="400" class="chart-bg" />
  <text x="400" y="14" text-anchor="middle" class="chart-text" font-size="16" font-weight="bold" font-family="-apple-system, BlinkMacSystemFont, 'Segoe UI', Helvetica, Arial, sans-serif">dockur/statping Star History</text>
  
  <g class="grid">
    <line x1="60" y1="350" x2="770" y2="350" class="chart-grid" stroke-opacity="0.3" />
    <text x="778" y="354" text-anchor="start" class="chart-muted" font-size="11" font-family="-apple-system, BlinkMacSystemFont, 'Segoe UI', Helvetica, Arial, sans-serif">0</text>
    <line x1="60" y1="276.8292682926829" x2="770" y2="276.8292682926829" class="chart-grid" stroke-opacity="0.3" />
    <text x="778" y="280.8292682926829" text-anchor="start" class="chart-muted" font-size="11" font-family="-apple-system, BlinkMacSystemFont, 'Segoe UI', Helvetica, Arial, sans-serif">20</text>
    <line x1="60" y1="203.65853658536585" x2="770" y2="203.65853658536585" class="chart-grid" stroke-opacity="0.3" />
    <text x="778" y="207.65853658536585" text-anchor="start" class="chart-muted" font-size="11" font-family="-apple-system, BlinkMacSystemFont, 'Segoe UI', Helvetica, Arial, sans-serif">40</text>
    <line x1="60" y1="130.4878048780488" x2="770" y2="130.4878048780488" class="chart-grid" stroke-opacity="0.3" />
    <text x="778" y="134.4878048780488" text-anchor="start" class="chart-muted" font-size="11" font-family="-apple-system, BlinkMacSystemFont, 'Segoe UI', Helvetica, Arial, sans-serif">60</text>
    <line x1="60" y1="57.3170731707317" x2="770" y2="57.3170731707317" class="chart-grid" stroke-opacity="0.3" />
    <text x="778" y="61.3170731707317" text-anchor="start" class="chart-muted" font-size="11" font-family="-apple-system, BlinkMacSystemFont, 'Segoe UI', Helvetica, Arial, sans-serif">80</text>
  </g>
  <g class="milestones">
    
  </g>
  <g class="x-axis">
    <text x="60" y="370" text-anchor="middle" class="chart-muted" font-size="11" font-family="-apple-system, BlinkMacSystemFont, 'Segoe UI', Helvetica, Arial, sans-serif">2024</text>
    <text x="329.3103448275862" y="370" text-anchor="middle" class="chart-muted" font-size="11" font-family="-apple-system, BlinkMacSystemFont, 'Segoe UI', Helvetica, Arial, sans-serif">2025</text>
    <text x="623.1034482758621" y="370" text-anchor="middle" class="chart-muted" font-size="11" font-family="-apple-system, BlinkMacSystemFont, 'Segoe UI', Helvetica, Arial, sans-serif">2026</text>
  </g>
  <line x1="770" y1="50" x2="770" y2="350" class="chart-axis" stroke-width="1" />
  <line x1="60" y1="350" x2="770" y2="350" class="chart-axis" stroke-width="1" />
  <path d="M60,350 L60,346.3414634146341 C68.16091954022988,337.8048780487805 76.32183908045977,328.6585365853659 84.48275862068965,320.7317073170732 C92.64367816091954,312.8048780487805 100.80459770114942,303.6585365853658 108.9655172413793,298.780487804878 C117.12643678160919,293.9024390243902 125.28735632183907,293.29268292682923 133.44827586206895,291.4634146341463 C141.60919540229884,289.6341463414634 149.77011494252872,289.6341463414634 157.9310344827586,287.8048780487805 C166.0919540229885,285.9756097560976 174.2528735632184,282.9268292682927 182.41379310344828,280.4878048780488 C190.57471264367817,278.0487804878049 198.73563218390805,276.219512195122 206.89655172413794,273.1707317073171 C215.05747126436782,270.1219512195122 223.2183908045977,265.2439024390244 231.3793103448276,262.1951219512195 C239.54022988505747,259.1463414634146 247.70114942528735,256.46534481330724 255.86206896551724,254.8780487804878 C264.0229885057471,253.29075274766836 272.183908045977,254.70380775744354 280.34482758620686,247.5609756097561 C288.50574712643675,240.41814346206863 296.6666666666667,195.96597535158912 304.82758620689657,189.02439024390242 C312.98850574712645,182.08280513621574 321.14942528735634,184.02117877573295 329.3103448275862,181.7073170731707 C337.4712643678161,179.39345537060848 345.632183908046,171.34146341463415 353.7931034482759,167.0731707317073 C361.95402298850576,162.80487804878047 370.11494252873564,159.14634146341461 378.2758620689655,156.09756097560975 C386.4367816091954,153.0487804878049 394.5977011494253,151.8292682926829 402.7586206896552,148.78048780487805 C410.91954022988506,145.7317073170732 419.08045977011494,137.8048780487805 427.2413793103448,137.8048780487805 C435.4022988505747,137.8048780487805 443.5632183908046,137.8048780487805 451.7241379310345,137.8048780487805 C459.88505747126436,137.8048780487805 468.04597701149424,137.8048780487805 476.2068965517241,137.8048780487805 C484.367816091954,137.8048780487805 492.5287356321839,128.04878048780486 500.6896551724138,123.17073170731706 C508.85057471264366,118.29268292682924 517.0114942528736,112.80487804878048 525.1724137931035,108.53658536585365 C533.3333333333334,104.26829268292683 541.4942528735633,100 549.6551724137931,97.5609756097561 C557.816091954023,95.1219512195122 565.9770114942529,95.12195121951223 574.1379310344828,93.90243902439028 C582.2988505747127,92.68292682926833 590.4597701149426,90.2439024390244 598.6206896551724,90.2439024390244 C606.7816091954023,90.2439024390244 614.9425287356322,90.2439024390244 623.1034482758621,90.2439024390244 C631.264367816092,90.2439024390244 639.4252873563219,90.2439024390244 647.5862068965517,90.2439024390244 C655.7471264367816,90.2439024390244 663.9080459770115,90.2439024390244 672.0689655172414,90.2439024390244 C680.2298850574713,90.2439024390244 688.3908045977012,87.80487804878047 696.551724137931,86.58536585365852 C704.7126436781609,85.36585365853657 712.8735632183908,82.92682926829269 721.0344827586207,82.92682926829269 C729.1954022988506,82.92682926829269 737.3563218390805,82.92682926829269 745.5172413793103,82.92682926829269 C753.6781609195402,82.92682926829269 761.8390804597701,80.48780487804878 770,79.26829268292681 L770,350 L60,350 Z" fill="#6b63ff" fill-opacity="0.1" />
  <path d="M60,350 L60,346.3414634146341 C68.16091954022988,337.8048780487805 76.32183908045977,328.6585365853659 84.48275862068965,320.7317073170732 C92.64367816091954,312.8048780487805 100.80459770114942,303.6585365853658 108.9655172413793,298.780487804878 C117.12643678160919,293.9024390243902 125.28735632183907,293.29268292682923 133.44827586206895,291.4634146341463 C141.60919540229884,289.6341463414634 149.77011494252872,289.6341463414634 157.9310344827586,287.8048780487805 C166.0919540229885,285.9756097560976 174.2528735632184,282.9268292682927 182.41379310344828,280.4878048780488 C190.57471264367817,278.0487804878049 198.73563218390805,276.219512195122 206.89655172413794,273.1707317073171 C215.05747126436782,270.1219512195122 223.2183908045977,265.2439024390244 231.3793103448276,262.1951219512195 C239.54022988505747,259.1463414634146 247.70114942528735,256.46534481330724 255.86206896551724,254.8780487804878 C264.0229885057471,253.29075274766836 272.183908045977,254.70380775744354 280.34482758620686,247.5609756097561 C288.50574712643675,240.41814346206863 296.6666666666667,195.96597535158912 304.82758620689657,189.02439024390242 C312.98850574712645,182.08280513621574 321.14942528735634,184.02117877573295 329.3103448275862,181.7073170731707 C337.4712643678161,179.39345537060848 345.632183908046,171.34146341463415 353.7931034482759,167.0731707317073 C361.95402298850576,162.80487804878047 370.11494252873564,159.14634146341461 378.2758620689655,156.09756097560975 C386.4367816091954,153.0487804878049 394.5977011494253,151.8292682926829 402.7586206896552,148.78048780487805 C410.91954022988506,145.7317073170732 419.08045977011494,137.8048780487805 427.2413793103448,137.8048780487805 C435.4022988505747,137.8048780487805 443.5632183908046,137.8048780487805 451.7241379310345,137.8048780487805 C459.88505747126436,137.8048780487805 468.04597701149424,137.8048780487805 476.2068965517241,137.8048780487805 C484.367816091954,137.8048780487805 492.5287356321839,128.04878048780486 500.6896551724138,123.17073170731706 C508.85057471264366,118.29268292682924 517.0114942528736,112.80487804878048 525.1724137931035,108.53658536585365 C533.3333333333334,104.26829268292683 541.4942528735633,100 549.6551724137931,97.5609756097561 C557.816091954023,95.1219512195122 565.9770114942529,95.12195121951223 574.1379310344828,93.90243902439028 C582.2988505747127,92.68292682926833 590.4597701149426,90.2439024390244 598.6206896551724,90.2439024390244 C606.7816091954023,90.2439024390244 614.9425287356322,90.2439024390244 623.1034482758621,90.2439024390244 C631.264367816092,90.2439024390244 639.4252873563219,90.2439024390244 647.5862068965517,90.2439024390244 C655.7471264367816,90.2439024390244 663.9080459770115,90.2439024390244 672.0689655172414,90.2439024390244 C680.2298850574713,90.2439024390244 688.3908045977012,87.80487804878047 696.551724137931,86.58536585365852 C704.7126436781609,85.36585365853657 712.8735632183908,82.92682926829269 721.0344827586207,82.92682926829269 C729.1954022988506,82.92682926829269 737.3563218390805,82.92682926829269 745.5172413793103,82.92682926829269 C753.6781609195402,82.92682926829269 761.8390804597701,80.48780487804878 770,79.26829268292681" fill="none" stroke="#6b63ff" stroke-width="2.5" class="data-line-0" />
  <g class="points">
    
    <circle cx="60" cy="346.3414634146341" r="4" fill="#6b63ff" class="data-point" style="animation-delay: 1.50s" />
    <circle cx="84.48275862068965" cy="320.7317073170732" r="4" fill="#6b63ff" class="data-point" style="animation-delay: 1.55s" />
    <circle cx="108.9655172413793" cy="298.780487804878" r="4" fill="#6b63ff" class="data-point" style="animation-delay: 1.60s" />
    <circle cx="133.44827586206895" cy="291.4634146341463" r="4" fill="#6b63ff" class="data-point" style="animation-delay: 1.65s" />
    <circle cx="157.9310344827586" cy="287.8048780487805" r="4" fill="#6b63ff" class="data-point" style="animation-delay: 1.70s" />
    <circle cx="182.41379310344828" cy="280.4878048780488" r="4" fill="#6b63ff" class="data-point" style="animation-delay: 1.75s" />
    <circle cx="206.89655172413794" cy="273.1707317073171" r="4" fill="#6b63ff" class="data-point" style="animation-delay: 1.80s" />
    <circle cx="231.3793103448276" cy="262.1951219512195" r="4" fill="#6b63ff" class="data-point" style="animation-delay: 1.85s" />
    <circle cx="255.86206896551724" cy="254.8780487804878" r="4" fill="#6b63ff" class="data-point" style="animation-delay: 1.90s" />
    <circle cx="280.34482758620686" cy="247.5609756097561" r="4" fill="#6b63ff" class="data-point" style="animation-delay: 1.95s" />
    <circle cx="304.82758620689657" cy="189.02439024390242" r="4" fill="#6b63ff" class="data-point" style="animation-delay: 2.00s" />
    <circle cx="329.3103448275862" cy="181.7073170731707" r="4" fill="#6b63ff" class="data-point" style="animation-delay: 2.05s" />
    <circle cx="353.7931034482759" cy="167.0731707317073" r="4" fill="#6b63ff" class="data-point" style="animation-delay: 2.10s" />
    <circle cx="378.2758620689655" cy="156.09756097560975" r="4" fill="#6b63ff" class="data-point" style="animation-delay: 2.15s" />
    <circle cx="402.7586206896552" cy="148.78048780487805" r="4" fill="#6b63ff" class="data-point" style="animation-delay: 2.20s" />
    <circle cx="427.2413793103448" cy="137.8048780487805" r="4" fill="#6b63ff" class="data-point" style="animation-delay: 2.25s" />
    <circle cx="451.7241379310345" cy="137.8048780487805" r="4" fill="#6b63ff" class="data-point" style="animation-delay: 2.30s" />
    <circle cx="476.2068965517241" cy="137.8048780487805" r="4" fill="#6b63ff" class="data-point" style="animation-delay: 2.35s" />
    <circle cx="500.6896551724138" cy="123.17073170731706" r="4" fill="#6b63ff" class="data-point" style="animation-delay: 2.40s" />
    <circle cx="525.1724137931035" cy="108.53658536585365" r="4" fill="#6b63ff" class="data-point" style="animation-delay: 2.45s" />
    <circle cx="549.6551724137931" cy="97.5609756097561" r="4" fill="#6b63ff" class="data-point" style="animation-delay: 2.50s" />
    <circle cx="574.1379310344828" cy="93.90243902439028" r="4" fill="#6b63ff" class="data-point" style="animation-delay: 2.55s" />
    <circle cx="598.6206896551724" cy="90.2439024390244" r="4" fill="#6b63ff" class="data-point" style="animation-delay: 2.60s" />
    <circle cx="623.1034482758621" cy="90.2439024390244" r="4" fill="#6b63ff" class="data-point" style="animation-delay: 2.65s" />
    <circle cx="647.5862068965517" cy="90.2439024390244" r="4" fill="#6b63ff" class="data-point" style="animation-delay: 2.70s" />
    <circle cx="672.0689655172414" cy="90.2439024390244" r="4" fill="#6b63ff" class="data-point" style="animation-delay: 2.75s" />
    <circle cx="696.551724137931" cy="86.58536585365852" r="4" fill="#6b63ff" class="data-point" style="animation-delay: 2.80s" />
    <circle cx="721.0344827586207" cy="82.92682926829269" r="4" fill="#6b63ff" class="data-point" style="animation-delay: 2.85s" />
    <circle cx="745.5172413793103" cy="82.92682926829269" r="4" fill="#6b63ff" class="data-point" style="animation-delay: 2.90s" />
    <circle cx="770" cy="79.26829268292681" r="4" fill="#6b63ff" class="data-point" style="animation-delay: 2.95s" />
  </g>
</svg>