<svg xmlns="http://www.w3.org/2000/svg" viewBox="0 0 800 400" width="800" height="400">
  <style>
    @keyframes drawLine {
      to { stroke-dashoffset: 0; }
    }
    @keyframes fadeInPoint {
      from { opacity: 0; }
      to { opacity: 1; }
    }
    .data-line-0 {
      stroke-dasharray: 1201;
      stroke-dashoffset: 1201;
      animation: drawLine 2s ease-out forwards;
    }
    .data-point {
      opacity: 0;
      animation: fadeInPoint 0.5s ease-out forwards;
    }
    .chart-bg { fill: #fff; }
    .chart-text { fill: #24292e; }
    .chart-muted { fill: #6a737d; }
    .chart-grid { stroke: #eee; }
    .chart-axis { stroke: #6a737d; }
    @media (prefers-color-scheme: dark) {
      .chart-bg { fill: #0d1117; }
      .chart-text { fill: #e6edf3; }
      .chart-muted { fill: #8b949e; }
      .chart-grid { stroke: #21262d; }
      .chart-axis { stroke: #8b949e; }
    }
  </style>
  <rect width="800" height="400" class="chart-bg" />
  <text x="400" y="14" text-anchor="middle" class="chart-text" font-size="16" font-weight="bold" font-family="-apple-system, BlinkMacSystemFont, 'Segoe UI', Helvetica, Arial, sans-serif">dockur/statping Star History</text>
  
  <g class="grid">
    <line x1="60" y1="350" x2="770" y2="350" class="chart-grid" stroke-opacity="0.3" />
    <text x="778" y="354" text-anchor="start" class="chart-muted" font-size="11" font-family="-apple-system, BlinkMacSystemFont, 'Segoe UI', Helvetica, Arial, sans-serif">0</text>
    <line x1="60" y1="276.8292682926829" x2="770" y2="276.8292682926829" class="chart-grid" stroke-opacity="0.3" />
    <text x="778" y="280.8292682926829" text-anchor="start" class="chart-muted" font-size="11" font-family="-apple-system, BlinkMacSystemFont, 'Segoe UI', Helvetica, Arial, sans-serif">20</text>
    <line x1="60" y1="203.65853658536585" x2="770" y2="203.65853658536585" class="chart-grid" stroke-opacity="0.3" />
    <text x="778" y="207.65853658536585" text-anchor="start" class="chart-muted" font-size="11" font-family="-apple-system, BlinkMacSystemFont, 'Segoe UI', Helvetica, Arial, sans-serif">40</text>
    <line x1="60" y1="130.4878048780488" x2="770" y2="130.4878048780488" class="chart-grid" stroke-opacity="0.3" />
    <text x="778" y="134.4878048780488" text-anchor="start" class="chart-muted" font-size="11" font-family="-apple-system, BlinkMacSystemFont, 'Segoe UI', Helvetica, Arial, sans-serif">60</text>
    <line x1="60" y1="57.3170731707317" x2="770" y2="57.3170731707317" class="chart-grid" stroke-opacity="0.3" />
    <text x="778" y="61.3170731707317" text-anchor="start" class="chart-muted" font-size="11" font-family="-apple-system, BlinkMacSystemFont, 'Segoe UI', Helvetica, Arial, sans-serif">80</text>
  </g>
  <g class="milestones">
    
  </g>
  <g class="x-axis">
    <text x="60" y="370" text-anchor="middle" class="chart-muted" font-size="11" font-family="-apple-system, BlinkMacSystemFont, 'Segoe UI', Helvetica, Arial, sans-serif">2024</text>
    <text x="329.3103448275862" y="370" text-anchor="middle" class="chart-muted" font-size="11" font-family="-apple-system, BlinkMacSystemFont, 'Segoe UI', Helvetica, Arial, sans-serif">2025</text>
    <text x="647.5862068965517" y="370" text-anchor="middle" class="chart-muted" font-size="11" font-family="-apple-system, BlinkMacSystemFont, 'Segoe UI', Helvetica, Arial, sans-serif">2026</text>
  </g>
  <line x1="770" y1="50" x2="770" y2="350" class="chart-axis" stroke-width="1" />
  <line x1="60" y1="350" x2="770" y2="350" class="chart-axis" stroke-width="1" />
  <path d="M60,350 L60,346.3414634146341 C63.264367816091955,342.92682926829264 77.95402298850574,327.0731707317073 84.48275862068965,320.7317073170732 C91.01149425287356,314.39024390243907 102.43678160919539,302.6829268292683 108.9655172413793,298.780487804878 C115.49425287356321,294.87804878048775 126.91954022988504,292.92682926829264 133.44827586206895,291.4634146341463 C139.97701149425285,290 151.40229885057468,289.2682926829268 157.9310344827586,287.8048780487805 C164.45977011494253,286.3414634146342 175.88505747126436,282.4390243902439 182.41379310344828,280.4878048780488 C188.9425287356322,278.5365853658537 200.36781609195404,275.609756097561 206.89655172413794,273.1707317073171 C213.42528735632183,270.7317073170732 224.8505747126437,264.6341463414634 231.3793103448276,262.1951219512195 C237.90804597701148,259.7560975609756 249.33333333333334,256.8292682926829 255.86206896551724,254.8780487804878 C262.39080459770116,252.9268292682927 273.81609195402297,254.8780487804878 280.34482758620686,247.5609756097561 C286.87356321839076,239.26829268292684 298.2988505747127,201.46341463414635 304.82758620689657,192.6829268292683 C311.35632183908046,183.90243902439025 322.7816091954023,185.12195121951217 329.3103448275862,181.7073170731707 C335.8390804597701,178.29268292682926 347.264367816092,170.48780487804876 353.7931034482759,167.0731707317073 C360.32183908045977,163.65853658536585 371.7471264367816,158.53658536585365 378.2758620689655,156.09756097560975 C384.8045977011494,153.65853658536585 396.2298850574713,151.21951219512195 402.7586206896552,148.78048780487805 C409.28735632183907,146.34146341463415 420.71264367816093,139.26829268292684 427.2413793103448,137.8048780487805 C433.7701149425287,137.8048780487805 445.1954022988506,137.8048780487805 451.7241379310345,137.8048780487805 C458.2528735632184,137.8048780487805 469.67816091954023,137.8048780487805 476.2068965517241,137.8048780487805 C482.735632183908,135.85365853658536 494.1609195402299,127.07317073170731 500.6896551724138,123.17073170731706 C507.2183908045977,119.26829268292681 518.6436781609195,111.46341463414633 525.1724137931035,108.53658536585365 C531.7011494252874,105.60975609756098 543.1264367816092,103.17073170731707 549.6551724137931,101.21951219512195 C556.1839080459771,99.26829268292683 567.6091954022988,95.36585365853662 574.1379310344828,93.90243902439028 C580.6666666666667,92.43902439024393 592.0919540229885,90.73170731707317 598.6206896551724,90.2439024390244 C605.1494252873564,90.2439024390244 616.5747126436781,90.2439024390244 623.1034482758621,90.2439024390244 C629.632183908046,90.2439024390244 641.0574712643678,90.2439024390244 647.5862068965517,90.2439024390244 C654.1149425287357,90.2439024390244 665.5402298850574,90.2439024390244 672.0689655172414,90.2439024390244 C678.5977011494253,90.2439024390244 690.0229885057471,90.2439024390244 696.551724137931,90.2439024390244 C703.080459770115,89.26829268292684 714.5057471264367,83.90243902439025 721.0344827586207,82.92682926829269 C727.5632183908046,82.92682926829269 738.9885057471264,82.92682926829269 745.5172413793103,82.92682926829269 C752.0459770114943,82.43902439024392 766.735632183908,79.75609756097559 770,79.26829268292681 L770,350 L60,350 Z" fill="#6b63ff" fill-opacity="0.1" />
  <path d="M60,350 L60,346.3414634146341 C63.264367816091955,342.92682926829264 77.95402298850574,327.0731707317073 84.48275862068965,320.7317073170732 C91.01149425287356,314.39024390243907 102.43678160919539,302.6829268292683 108.9655172413793,298.780487804878 C115.49425287356321,294.87804878048775 126.91954022988504,292.92682926829264 133.44827586206895,291.4634146341463 C139.97701149425285,290 151.40229885057468,289.2682926829268 157.9310344827586,287.8048780487805 C164.45977011494253,286.3414634146342 175.88505747126436,282.4390243902439 182.41379310344828,280.4878048780488 C188.9425287356322,278.5365853658537 200.36781609195404,275.609756097561 206.89655172413794,273.1707317073171 C213.42528735632183,270.7317073170732 224.8505747126437,264.6341463414634 231.3793103448276,262.1951219512195 C237.90804597701148,259.7560975609756 249.33333333333334,256.8292682926829 255.86206896551724,254.8780487804878 C262.39080459770116,252.9268292682927 273.81609195402297,254.8780487804878 280.34482758620686,247.5609756097561 C286.87356321839076,239.26829268292684 298.2988505747127,201.46341463414635 304.82758620689657,192.6829268292683 C311.35632183908046,183.90243902439025 322.7816091954023,185.12195121951217 329.3103448275862,181.7073170731707 C335.8390804597701,178.29268292682926 347.264367816092,170.48780487804876 353.7931034482759,167.0731707317073 C360.32183908045977,163.65853658536585 371.7471264367816,158.53658536585365 378.2758620689655,156.09756097560975 C384.8045977011494,153.65853658536585 396.2298850574713,151.21951219512195 402.7586206896552,148.78048780487805 C409.28735632183907,146.34146341463415 420.71264367816093,139.26829268292684 427.2413793103448,137.8048780487805 C433.7701149425287,137.8048780487805 445.1954022988506,137.8048780487805 451.7241379310345,137.8048780487805 C458.2528735632184,137.8048780487805 469.67816091954023,137.8048780487805 476.2068965517241,137.8048780487805 C482.735632183908,135.85365853658536 494.1609195402299,127.07317073170731 500.6896551724138,123.17073170731706 C507.2183908045977,119.26829268292681 518.6436781609195,111.46341463414633 525.1724137931035,108.53658536585365 C531.7011494252874,105.60975609756098 543.1264367816092,103.17073170731707 549.6551724137931,101.21951219512195 C556.1839080459771,99.26829268292683 567.6091954022988,95.36585365853662 574.1379310344828,93.90243902439028 C580.6666666666667,92.43902439024393 592.0919540229885,90.73170731707317 598.6206896551724,90.2439024390244 C605.1494252873564,90.2439024390244 616.5747126436781,90.2439024390244 623.1034482758621,90.2439024390244 C629.632183908046,90.2439024390244 641.0574712643678,90.2439024390244 647.5862068965517,90.2439024390244 C654.1149425287357,90.2439024390244 665.5402298850574,90.2439024390244 672.0689655172414,90.2439024390244 C678.5977011494253,90.2439024390244 690.0229885057471,90.2439024390244 696.551724137931,90.2439024390244 C703.080459770115,89.26829268292684 714.5057471264367,83.90243902439025 721.0344827586207,82.92682926829269 C727.5632183908046,82.92682926829269 738.9885057471264,82.92682926829269 745.5172413793103,82.92682926829269 C752.0459770114943,82.43902439024392 766.735632183908,79.75609756097559 770,79.26829268292681" fill="none" stroke="#6b63ff" stroke-width="2.5" class="data-line-0" />
  <g class="points">
    
    <circle cx="60" cy="346.3414634146341" r="4" fill="#6b63ff" class="data-point" style="animation-delay: 1.50s" />
    <circle cx="84.48275862068965" cy="320.7317073170732" r="4" fill="#6b63ff" class="data-point" style="animation-delay: 1.55s" />
    <circle cx="108.9655172413793" cy="298.780487804878" r="4" fill="#6b63ff" class="data-point" style="animation-delay: 1.60s" />
    <circle cx="133.44827586206895" cy="291.4634146341463" r="4" fill="#6b63ff" class="data-point" style="animation-delay: 1.65s" />
    <circle cx="157.9310344827586" cy="287.8048780487805" r="4" fill="#6b63ff" class="data-point" style="animation-delay: 1.70s" />
    <circle cx="182.41379310344828" cy="280.4878048780488" r="4" fill="#6b63ff" class="data-point" style="animation-delay: 1.75s" />
    <circle cx="206.89655172413794" cy="273.1707317073171" r="4" fill="#6b63ff" class="data-point" style="animation-delay: 1.80s" />
    <circle cx="231.3793103448276" cy="262.1951219512195" r="4" fill="#6b63ff" class="data-point" style="animation-delay: 1.85s" />
    <circle cx="255.86206896551724" cy="254.8780487804878" r="4" fill="#6b63ff" class="data-point" style="animation-delay: 1.90s" />
    <circle cx="280.34482758620686" cy="247.5609756097561" r="4" fill="#6b63ff" class="data-point" style="animation-delay: 1.95s" />
    <circle cx="304.82758620689657" cy="192.6829268292683" r="4" fill="#6b63ff" class="data-point" style="animation-delay: 2.00s" />
    <circle cx="329.3103448275862" cy="181.7073170731707" r="4" fill="#6b63ff" class="data-point" style="animation-delay: 2.05s" />
    <circle cx="353.7931034482759" cy="167.0731707317073" r="4" fill="#6b63ff" class="data-point" style="animation-delay: 2.10s" />
    <circle cx="378.2758620689655" cy="156.09756097560975" r="4" fill="#6b63ff" class="data-point" style="animation-delay: 2.15s" />
    <circle cx="402.7586206896552" cy="148.78048780487805" r="4" fill="#6b63ff" class="data-point" style="animation-delay: 2.20s" />
    <circle cx="427.2413793103448" cy="137.8048780487805" r="4" fill="#6b63ff" class="data-point" style="animation-delay: 2.25s" />
    <circle cx="451.7241379310345" cy="137.8048780487805" r="4" fill="#6b63ff" class="data-point" style="animation-delay: 2.30s" />
    <circle cx="476.2068965517241" cy="137.8048780487805" r="4" fill="#6b63ff" class="data-point" style="animation-delay: 2.35s" />
    <circle cx="500.6896551724138" cy="123.17073170731706" r="4" fill="#6b63ff" class="data-point" style="animation-delay: 2.40s" />
    <circle cx="525.1724137931035" cy="108.53658536585365" r="4" fill="#6b63ff" class="data-point" style="animation-delay: 2.45s" />
    <circle cx="549.6551724137931" cy="101.21951219512195" r="4" fill="#6b63ff" class="data-point" style="animation-delay: 2.50s" />
    <circle cx="574.1379310344828" cy="93.90243902439028" r="4" fill="#6b63ff" class="data-point" style="animation-delay: 2.55s" />
    <circle cx="598.6206896551724" cy="90.2439024390244" r="4" fill="#6b63ff" class="data-point" style="animation-delay: 2.60s" />
    <circle cx="623.1034482758621" cy="90.2439024390244" r="4" fill="#6b63ff" class="data-point" style="animation-delay: 2.65s" />
    <circle cx="647.5862068965517" cy="90.2439024390244" r="4" fill="#6b63ff" class="data-point" style="animation-delay: 2.70s" />
    <circle cx="672.0689655172414" cy="90.2439024390244" r="4" fill="#6b63ff" class="data-point" style="animation-delay: 2.75s" />
    <circle cx="696.551724137931" cy="90.2439024390244" r="4" fill="#6b63ff" class="data-point" style="animation-delay: 2.80s" />
    <circle cx="721.0344827586207" cy="82.92682926829269" r="4" fill="#6b63ff" class="data-point" style="animation-delay: 2.85s" />
    <circle cx="745.5172413793103" cy="82.92682926829269" r="4" fill="#6b63ff" class="data-point" style="animation-delay: 2.90s" />
    <circle cx="770" cy="79.26829268292681" r="4" fill="#6b63ff" class="data-point" style="animation-delay: 2.95s" />
  </g>
</svg>