<svg xmlns="http://www.w3.org/2000/svg" viewBox="0 0 800 400" width="800" height="400">
  <style>
    @keyframes drawLine {
      to { stroke-dashoffset: 0; }
    }
    @keyframes fadeInPoint {
      from { opacity: 0; }
      to { opacity: 1; }
    }
    .data-line-0 {
      stroke-dasharray: 1268;
      stroke-dashoffset: 1268;
      animation: drawLine 2s ease-out forwards;
    }
    .data-point {
      opacity: 0;
      animation: fadeInPoint 0.5s ease-out forwards;
    }
    .chart-bg { fill: #fff; }
    .chart-text { fill: #24292e; }
    .chart-muted { fill: #6a737d; }
    .chart-grid { stroke: #eee; }
    .chart-axis { stroke: #6a737d; }
    @media (prefers-color-scheme: dark) {
      .chart-bg { fill: #0d1117; }
      .chart-text { fill: #e6edf3; }
      .chart-muted { fill: #8b949e; }
      .chart-grid { stroke: #21262d; }
      .chart-axis { stroke: #8b949e; }
    }
  </style>
  <rect width="800" height="400" class="chart-bg" />
  <text x="400" y="34" text-anchor="middle" class="chart-text" font-size="16" font-weight="bold" font-family="-apple-system, BlinkMacSystemFont, 'Segoe UI', Helvetica, Arial, sans-serif">dockur/macos Star History</text>
  
  <g class="grid">
    <line x1="60" y1="350" x2="770" y2="350" class="chart-grid" stroke-opacity="0.3" />
    <text x="778" y="354" text-anchor="start" class="chart-muted" font-size="11" font-family="-apple-system, BlinkMacSystemFont, 'Segoe UI', Helvetica, Arial, sans-serif">0</text>
    <line x1="60" y1="282.98485457713446" x2="770" y2="282.98485457713446" class="chart-grid" stroke-opacity="0.3" />
    <text x="778" y="286.98485457713446" text-anchor="start" class="chart-muted" font-size="11" font-family="-apple-system, BlinkMacSystemFont, 'Segoe UI', Helvetica, Arial, sans-serif">5K</text>
    <line x1="60" y1="215.96970915426886" x2="770" y2="215.96970915426886" class="chart-grid" stroke-opacity="0.3" />
    <text x="778" y="219.96970915426886" text-anchor="start" class="chart-muted" font-size="11" font-family="-apple-system, BlinkMacSystemFont, 'Segoe UI', Helvetica, Arial, sans-serif">10K</text>
    <line x1="60" y1="148.9545637314033" x2="770" y2="148.9545637314033" class="chart-grid" stroke-opacity="0.3" />
    <text x="778" y="152.9545637314033" text-anchor="start" class="chart-muted" font-size="11" font-family="-apple-system, BlinkMacSystemFont, 'Segoe UI', Helvetica, Arial, sans-serif">15K</text>
    <line x1="60" y1="81.93941830853771" x2="770" y2="81.93941830853771" class="chart-grid" stroke-opacity="0.3" />
    <text x="778" y="85.93941830853771" text-anchor="start" class="chart-muted" font-size="11" font-family="-apple-system, BlinkMacSystemFont, 'Segoe UI', Helvetica, Arial, sans-serif">20K</text>
  </g>
  <g class="milestones">
    
  </g>
  <g class="x-axis">
    <text x="60" y="370" text-anchor="middle" class="chart-muted" font-size="11" font-family="-apple-system, BlinkMacSystemFont, 'Segoe UI', Helvetica, Arial, sans-serif">2024</text>
    <text x="280.34482758620686" y="370" text-anchor="middle" class="chart-muted" font-size="11" font-family="-apple-system, BlinkMacSystemFont, 'Segoe UI', Helvetica, Arial, sans-serif">2025</text>
    <text x="623.1034482758621" y="370" text-anchor="middle" class="chart-muted" font-size="11" font-family="-apple-system, BlinkMacSystemFont, 'Segoe UI', Helvetica, Arial, sans-serif">2026</text>
  </g>
  <line x1="770" y1="50" x2="770" y2="350" class="chart-axis" stroke-width="1" />
  <line x1="60" y1="350" x2="770" y2="350" class="chart-axis" stroke-width="1" />
  <path d="M60,350 L60,349.90617879640797 C63.264367816091955,348.6856096144395 77.95402298850574,341.972479113613 84.48275862068965,340.75190993164455 C91.01149425287356,340.75190993164455 102.43678160919539,340.75190993164455 108.9655172413793,340.75190993164455 C115.49425287356321,340.75190993164455 126.91954022988504,340.75190993164455 133.44827586206895,340.75190993164455 C139.97701149425285,340.75190993164455 151.40229885057468,340.75190993164455 157.9310344827586,340.75190993164455 C164.45977011494253,340.75190993164455 175.88505747126436,340.75190993164455 182.41379310344828,340.75190993164455 C188.9425287356322,339.9012643524103 200.36781609195404,340.75190993164455 206.89655172413794,334.37206808738773 C213.42528735632183,319.56976276638517 224.8505747126437,244.9193584416745 231.3793103448276,229.73462002412546 C237.90804597701148,220.48652995577 249.33333333333334,222.21284010186304 255.86206896551724,220.48652995577 C262.39080459770116,218.76021980967698 273.81609195402297,219.2552383505339 280.34482758620686,216.78729392842783 C286.87356321839076,214.31934950632177 298.2988505747127,203.9516597417683 304.82758620689657,201.97694678997453 C311.35632183908046,201.97694678997453 322.7816091954023,201.97694678997453 329.3103448275862,201.97694678997453 C335.8390804597701,201.97694678997453 347.264367816092,201.97694678997453 353.7931034482759,201.97694678997453 C360.32183908045977,200.74386811419382 371.7471264367816,193.96193539739983 378.2758620689655,192.7288567216191 C384.8045977011494,192.7288567216191 396.2298850574713,192.7288567216191 402.7586206896552,192.7288567216191 C409.28735632183907,192.7288567216191 420.71264367816093,192.7288567216191 427.2413793103448,192.7288567216191 C433.7701149425287,186.08095429567084 445.1954022988506,150.2698476522361 451.7241379310345,142.86958852700712 C458.2528735632184,137.22691328240182 469.67816091954023,139.21413572800788 476.2068965517241,137.22691328240182 C482.735632183908,135.23969083679577 494.1609195402299,130.43336460706786 500.6896551724138,127.9654201849618 C507.2183908045977,125.49747576285574 518.6436781609195,119.95040879238708 525.1724137931035,118.71733011660635 C531.7011494252874,118.71733011660635 543.1264367816092,118.71733011660635 549.6551724137931,118.71733011660635 C556.1839080459771,117.48425144082563 567.6091954022988,110.70231872403164 574.1379310344828,109.46924004825092 C580.6666666666667,109.46924004825092 592.0919540229885,109.46924004825092 598.6206896551724,109.46924004825092 C605.1494252873564,109.33342268686059 616.5747126436781,109.46924004825092 623.1034482758621,108.45060983782335 C629.632183908046,107.21753116204262 641.0574712643678,101.31841129428584 647.5862068965517,100.22114997989544 C654.1149425287357,100.22114997989544 665.5402298850574,100.22114997989544 672.0689655172414,100.22114997989544 C678.5977011494253,98.98807130411473 690.0229885057471,92.20613858732074 696.551724137931,90.97305991154002 C703.080459770115,90.97305991154002 714.5057471264367,90.97305991154002 721.0344827586207,90.97305991154002 C727.5632183908046,89.7381941652147 738.9885057471264,83.53795291069119 745.5172413793103,81.71156681410002 C752.0459770114943,79.88518071750886 766.735632183908,77.86668453737211 770,77.27516418710627 L770,350 L60,350 Z" fill="#6b63ff" fill-opacity="0.1" />
  <path d="M60,350 L60,349.90617879640797 C63.264367816091955,348.6856096144395 77.95402298850574,341.972479113613 84.48275862068965,340.75190993164455 C91.01149425287356,340.75190993164455 102.43678160919539,340.75190993164455 108.9655172413793,340.75190993164455 C115.49425287356321,340.75190993164455 126.91954022988504,340.75190993164455 133.44827586206895,340.75190993164455 C139.97701149425285,340.75190993164455 151.40229885057468,340.75190993164455 157.9310344827586,340.75190993164455 C164.45977011494253,340.75190993164455 175.88505747126436,340.75190993164455 182.41379310344828,340.75190993164455 C188.9425287356322,339.9012643524103 200.36781609195404,340.75190993164455 206.89655172413794,334.37206808738773 C213.42528735632183,319.56976276638517 224.8505747126437,244.9193584416745 231.3793103448276,229.73462002412546 C237.90804597701148,220.48652995577 249.33333333333334,222.21284010186304 255.86206896551724,220.48652995577 C262.39080459770116,218.76021980967698 273.81609195402297,219.2552383505339 280.34482758620686,216.78729392842783 C286.87356321839076,214.31934950632177 298.2988505747127,203.9516597417683 304.82758620689657,201.97694678997453 C311.35632183908046,201.97694678997453 322.7816091954023,201.97694678997453 329.3103448275862,201.97694678997453 C335.8390804597701,201.97694678997453 347.264367816092,201.97694678997453 353.7931034482759,201.97694678997453 C360.32183908045977,200.74386811419382 371.7471264367816,193.96193539739983 378.2758620689655,192.7288567216191 C384.8045977011494,192.7288567216191 396.2298850574713,192.7288567216191 402.7586206896552,192.7288567216191 C409.28735632183907,192.7288567216191 420.71264367816093,192.7288567216191 427.2413793103448,192.7288567216191 C433.7701149425287,186.08095429567084 445.1954022988506,150.2698476522361 451.7241379310345,142.86958852700712 C458.2528735632184,137.22691328240182 469.67816091954023,139.21413572800788 476.2068965517241,137.22691328240182 C482.735632183908,135.23969083679577 494.1609195402299,130.43336460706786 500.6896551724138,127.9654201849618 C507.2183908045977,125.49747576285574 518.6436781609195,119.95040879238708 525.1724137931035,118.71733011660635 C531.7011494252874,118.71733011660635 543.1264367816092,118.71733011660635 549.6551724137931,118.71733011660635 C556.1839080459771,117.48425144082563 567.6091954022988,110.70231872403164 574.1379310344828,109.46924004825092 C580.6666666666667,109.46924004825092 592.0919540229885,109.46924004825092 598.6206896551724,109.46924004825092 C605.1494252873564,109.33342268686059 616.5747126436781,109.46924004825092 623.1034482758621,108.45060983782335 C629.632183908046,107.21753116204262 641.0574712643678,101.31841129428584 647.5862068965517,100.22114997989544 C654.1149425287357,100.22114997989544 665.5402298850574,100.22114997989544 672.0689655172414,100.22114997989544 C678.5977011494253,98.98807130411473 690.0229885057471,92.20613858732074 696.551724137931,90.97305991154002 C703.080459770115,90.97305991154002 714.5057471264367,90.97305991154002 721.0344827586207,90.97305991154002 C727.5632183908046,89.7381941652147 738.9885057471264,83.53795291069119 745.5172413793103,81.71156681410002 C752.0459770114943,79.88518071750886 766.735632183908,77.86668453737211 770,77.27516418710627" fill="none" stroke="#6b63ff" stroke-width="2.5" class="data-line-0" />
  <g class="points">
    
    <circle cx="60" cy="349.90617879640797" r="4" fill="#6b63ff" class="data-point" style="animation-delay: 1.50s" />
    <circle cx="84.48275862068965" cy="340.75190993164455" r="4" fill="#6b63ff" class="data-point" style="animation-delay: 1.55s" />
    <circle cx="108.9655172413793" cy="340.75190993164455" r="4" fill="#6b63ff" class="data-point" style="animation-delay: 1.60s" />
    <circle cx="133.44827586206895" cy="340.75190993164455" r="4" fill="#6b63ff" class="data-point" style="animation-delay: 1.65s" />
    <circle cx="157.9310344827586" cy="340.75190993164455" r="4" fill="#6b63ff" class="data-point" style="animation-delay: 1.70s" />
    <circle cx="182.41379310344828" cy="340.75190993164455" r="4" fill="#6b63ff" class="data-point" style="animation-delay: 1.75s" />
    <circle cx="206.89655172413794" cy="334.37206808738773" r="4" fill="#6b63ff" class="data-point" style="animation-delay: 1.80s" />
    <circle cx="231.3793103448276" cy="229.73462002412546" r="4" fill="#6b63ff" class="data-point" style="animation-delay: 1.85s" />
    <circle cx="255.86206896551724" cy="220.48652995577" r="4" fill="#6b63ff" class="data-point" style="animation-delay: 1.90s" />
    <circle cx="280.34482758620686" cy="216.78729392842783" r="4" fill="#6b63ff" class="data-point" style="animation-delay: 1.95s" />
    <circle cx="304.82758620689657" cy="201.97694678997453" r="4" fill="#6b63ff" class="data-point" style="animation-delay: 2.00s" />
    <circle cx="329.3103448275862" cy="201.97694678997453" r="4" fill="#6b63ff" class="data-point" style="animation-delay: 2.05s" />
    <circle cx="353.7931034482759" cy="201.97694678997453" r="4" fill="#6b63ff" class="data-point" style="animation-delay: 2.10s" />
    <circle cx="378.2758620689655" cy="192.7288567216191" r="4" fill="#6b63ff" class="data-point" style="animation-delay: 2.15s" />
    <circle cx="402.7586206896552" cy="192.7288567216191" r="4" fill="#6b63ff" class="data-point" style="animation-delay: 2.20s" />
    <circle cx="427.2413793103448" cy="192.7288567216191" r="4" fill="#6b63ff" class="data-point" style="animation-delay: 2.25s" />
    <circle cx="451.7241379310345" cy="142.86958852700712" r="4" fill="#6b63ff" class="data-point" style="animation-delay: 2.30s" />
    <circle cx="476.2068965517241" cy="137.22691328240182" r="4" fill="#6b63ff" class="data-point" style="animation-delay: 2.35s" />
    <circle cx="500.6896551724138" cy="127.9654201849618" r="4" fill="#6b63ff" class="data-point" style="animation-delay: 2.40s" />
    <circle cx="525.1724137931035" cy="118.71733011660635" r="4" fill="#6b63ff" class="data-point" style="animation-delay: 2.45s" />
    <circle cx="549.6551724137931" cy="118.71733011660635" r="4" fill="#6b63ff" class="data-point" style="animation-delay: 2.50s" />
    <circle cx="574.1379310344828" cy="109.46924004825092" r="4" fill="#6b63ff" class="data-point" style="animation-delay: 2.55s" />
    <circle cx="598.6206896551724" cy="109.46924004825092" r="4" fill="#6b63ff" class="data-point" style="animation-delay: 2.60s" />
    <circle cx="623.1034482758621" cy="108.45060983782335" r="4" fill="#6b63ff" class="data-point" style="animation-delay: 2.65s" />
    <circle cx="647.5862068965517" cy="100.22114997989544" r="4" fill="#6b63ff" class="data-point" style="animation-delay: 2.70s" />
    <circle cx="672.0689655172414" cy="100.22114997989544" r="4" fill="#6b63ff" class="data-point" style="animation-delay: 2.75s" />
    <circle cx="696.551724137931" cy="90.97305991154002" r="4" fill="#6b63ff" class="data-point" style="animation-delay: 2.80s" />
    <circle cx="721.0344827586207" cy="90.97305991154002" r="4" fill="#6b63ff" class="data-point" style="animation-delay: 2.85s" />
    <circle cx="745.5172413793103" cy="81.71156681410002" r="4" fill="#6b63ff" class="data-point" style="animation-delay: 2.90s" />
    <circle cx="770" cy="77.27516418710627" r="4" fill="#6b63ff" class="data-point" style="animation-delay: 2.95s" />
  </g>
</svg>