<svg xmlns="http://www.w3.org/2000/svg" viewBox="0 0 800 400" width="800" height="400">
  <style>
    @keyframes drawLine {
      to { stroke-dashoffset: 0; }
    }
    @keyframes fadeInPoint {
      from { opacity: 0; }
      to { opacity: 1; }
    }
    .data-line-0 {
      stroke-dasharray: 1154;
      stroke-dashoffset: 1154;
      animation: drawLine 2s ease-out forwards;
    }
    .data-point {
      opacity: 0;
      animation: fadeInPoint 0.5s ease-out forwards;
    }
    .chart-bg { fill: #fff; }
    .chart-text { fill: #24292e; }
    .chart-muted { fill: #6a737d; }
    .chart-grid { stroke: #eee; }
    .chart-axis { stroke: #6a737d; }
    @media (prefers-color-scheme: dark) {
      .chart-bg { fill: #0d1117; }
      .chart-text { fill: #e6edf3; }
      .chart-muted { fill: #8b949e; }
      .chart-grid { stroke: #21262d; }
      .chart-axis { stroke: #8b949e; }
    }
  </style>
  <rect width="800" height="400" class="chart-bg" />
  <text x="400" y="14" text-anchor="middle" class="chart-text" font-size="16" font-weight="bold" font-family="-apple-system, BlinkMacSystemFont, 'Segoe UI', Helvetica, Arial, sans-serif">dockur/samba Star History</text>
  
  <g class="grid">
    <line x1="60" y1="350" x2="770" y2="350" class="chart-grid" stroke-opacity="0.3" />
    <text x="778" y="354" text-anchor="start" class="chart-muted" font-size="11" font-family="-apple-system, BlinkMacSystemFont, 'Segoe UI', Helvetica, Arial, sans-serif">0</text>
    <line x1="60" y1="279.9065420560748" x2="770" y2="279.9065420560748" class="chart-grid" stroke-opacity="0.3" />
    <text x="778" y="283.9065420560748" text-anchor="start" class="chart-muted" font-size="11" font-family="-apple-system, BlinkMacSystemFont, 'Segoe UI', Helvetica, Arial, sans-serif">200</text>
    <line x1="60" y1="209.81308411214954" x2="770" y2="209.81308411214954" class="chart-grid" stroke-opacity="0.3" />
    <text x="778" y="213.81308411214954" text-anchor="start" class="chart-muted" font-size="11" font-family="-apple-system, BlinkMacSystemFont, 'Segoe UI', Helvetica, Arial, sans-serif">400</text>
    <line x1="60" y1="139.7196261682243" x2="770" y2="139.7196261682243" class="chart-grid" stroke-opacity="0.3" />
    <text x="778" y="143.7196261682243" text-anchor="start" class="chart-muted" font-size="11" font-family="-apple-system, BlinkMacSystemFont, 'Segoe UI', Helvetica, Arial, sans-serif">600</text>
    <line x1="60" y1="69.62616822429908" x2="770" y2="69.62616822429908" class="chart-grid" stroke-opacity="0.3" />
    <text x="778" y="73.62616822429908" text-anchor="start" class="chart-muted" font-size="11" font-family="-apple-system, BlinkMacSystemFont, 'Segoe UI', Helvetica, Arial, sans-serif">800</text>
  </g>
  <g class="milestones">
    
  </g>
  <g class="x-axis">
    <text x="60" y="370" text-anchor="middle" class="chart-muted" font-size="11" font-family="-apple-system, BlinkMacSystemFont, 'Segoe UI', Helvetica, Arial, sans-serif">2024</text>
    <text x="329.3103448275862" y="370" text-anchor="middle" class="chart-muted" font-size="11" font-family="-apple-system, BlinkMacSystemFont, 'Segoe UI', Helvetica, Arial, sans-serif">2025</text>
    <text x="623.1034482758621" y="370" text-anchor="middle" class="chart-muted" font-size="11" font-family="-apple-system, BlinkMacSystemFont, 'Segoe UI', Helvetica, Arial, sans-serif">2026</text>
  </g>
  <line x1="770" y1="50" x2="770" y2="350" class="chart-axis" stroke-width="1" />
  <line x1="60" y1="350" x2="770" y2="350" class="chart-axis" stroke-width="1" />
  <path d="M60,350 L60,349.64953271028037 C68.16091954022988,347.7803738317757 76.32183908045977,345.91121495327104 84.48275862068965,344.0420560747664 C92.64367816091954,342.1728971962617 100.80459770114942,340.1285046728972 108.9655172413793,338.43457943925233 C117.12643678160919,336.7406542056075 125.28735632183907,335.3971962616822 133.44827586206895,333.8785046728972 C141.60919540229884,332.35981308411215 149.77011494252872,330.60747663551405 157.9310344827586,329.3224299065421 C166.0919540229885,328.0373831775701 174.2528735632184,327.0443925233645 182.41379310344828,326.1682242990654 C190.57471264367817,325.2920560747663 198.73563218390805,325.11682242990656 206.89655172413794,324.06542056074767 C215.05747126436782,323.0140186915888 223.2183908045977,321.553738317757 231.3793103448276,319.85981308411215 C239.54022988505747,318.1658878504673 247.70114942528735,317.4065420560748 255.86206896551724,313.9018691588785 C264.0229885057471,310.39719626168227 272.183908045977,303.2710280373832 280.34482758620686,298.8317757009346 C288.50574712643675,294.392523364486 296.6666666666667,290.47897196261687 304.82758620689657,287.26635514018693 C312.98850574712645,284.05373831775705 321.14942528735634,283.5280373831776 329.3103448275862,279.55607476635515 C337.4712643678161,275.5841121495327 345.632183908046,267.7570093457944 353.7931034482759,263.43457943925233 C361.95402298850576,259.11214953271025 370.11494252873564,257.1261682242991 378.2758620689655,253.6214953271028 C386.4367816091954,250.11682242990653 394.5977011494253,246.32009345794393 402.7586206896552,242.40654205607476 C410.91954022988506,238.49299065420558 419.08045977011494,233.52803738317758 427.2413793103448,230.14018691588785 C435.4022988505747,226.75233644859813 443.5632183908046,225.29205607476635 451.7241379310345,222.07943925233644 C459.88505747126436,218.86682242990653 468.04597701149424,214.4859813084112 476.2068965517241,210.8644859813084 C484.367816091954,207.2429906542056 492.5287356321839,204.6144859813084 500.6896551724138,200.35046728971963 C508.85057471264366,196.08644859813086 517.0114942528736,189.60280373831776 525.1724137931035,185.2803738317757 C533.3333333333334,180.95794392523365 541.4942528735633,178.446261682243 549.6551724137931,174.4158878504673 C557.816091954023,170.3855140186916 565.9770114942529,164.9532710280374 574.1379310344828,161.0981308411215 C582.2988505747127,157.2429906542056 590.4597701149426,154.78971962616822 598.6206896551724,151.28504672897196 C606.7816091954023,147.7803738317757 614.9425287356322,145.1518691588785 623.1034482758621,140.07009345794393 C631.264367816092,134.98831775700936 639.4252873563219,125.52570093457946 647.5862068965517,120.79439252336451 C655.7471264367816,116.06308411214955 663.9080459770115,114.66121495327103 672.0689655172414,111.6822429906542 C680.2298850574713,108.70327102803738 688.3908045977012,106.07476635514016 696.551724137931,102.92056074766353 C704.7126436781609,99.7663551401869 712.8735632183908,95.2102803738318 721.0344827586207,92.75700934579442 C729.1954022988506,90.30373831775704 737.3563218390805,90.77102803738319 745.5172413793103,88.20093457943926 C753.6781609195402,85.63084112149534 761.8390804597701,80.95794392523366 770,77.33644859813086 L770,350 L60,350 Z" fill="#6b63ff" fill-opacity="0.1" />
  <path d="M60,350 L60,349.64953271028037 C68.16091954022988,347.7803738317757 76.32183908045977,345.91121495327104 84.48275862068965,344.0420560747664 C92.64367816091954,342.1728971962617 100.80459770114942,340.1285046728972 108.9655172413793,338.43457943925233 C117.12643678160919,336.7406542056075 125.28735632183907,335.3971962616822 133.44827586206895,333.8785046728972 C141.60919540229884,332.35981308411215 149.77011494252872,330.60747663551405 157.9310344827586,329.3224299065421 C166.0919540229885,328.0373831775701 174.2528735632184,327.0443925233645 182.41379310344828,326.1682242990654 C190.57471264367817,325.2920560747663 198.73563218390805,325.11682242990656 206.89655172413794,324.06542056074767 C215.05747126436782,323.0140186915888 223.2183908045977,321.553738317757 231.3793103448276,319.85981308411215 C239.54022988505747,318.1658878504673 247.70114942528735,317.4065420560748 255.86206896551724,313.9018691588785 C264.0229885057471,310.39719626168227 272.183908045977,303.2710280373832 280.34482758620686,298.8317757009346 C288.50574712643675,294.392523364486 296.6666666666667,290.47897196261687 304.82758620689657,287.26635514018693 C312.98850574712645,284.05373831775705 321.14942528735634,283.5280373831776 329.3103448275862,279.55607476635515 C337.4712643678161,275.5841121495327 345.632183908046,267.7570093457944 353.7931034482759,263.43457943925233 C361.95402298850576,259.11214953271025 370.11494252873564,257.1261682242991 378.2758620689655,253.6214953271028 C386.4367816091954,250.11682242990653 394.5977011494253,246.32009345794393 402.7586206896552,242.40654205607476 C410.91954022988506,238.49299065420558 419.08045977011494,233.52803738317758 427.2413793103448,230.14018691588785 C435.4022988505747,226.75233644859813 443.5632183908046,225.29205607476635 451.7241379310345,222.07943925233644 C459.88505747126436,218.86682242990653 468.04597701149424,214.4859813084112 476.2068965517241,210.8644859813084 C484.367816091954,207.2429906542056 492.5287356321839,204.6144859813084 500.6896551724138,200.35046728971963 C508.85057471264366,196.08644859813086 517.0114942528736,189.60280373831776 525.1724137931035,185.2803738317757 C533.3333333333334,180.95794392523365 541.4942528735633,178.446261682243 549.6551724137931,174.4158878504673 C557.816091954023,170.3855140186916 565.9770114942529,164.9532710280374 574.1379310344828,161.0981308411215 C582.2988505747127,157.2429906542056 590.4597701149426,154.78971962616822 598.6206896551724,151.28504672897196 C606.7816091954023,147.7803738317757 614.9425287356322,145.1518691588785 623.1034482758621,140.07009345794393 C631.264367816092,134.98831775700936 639.4252873563219,125.52570093457946 647.5862068965517,120.79439252336451 C655.7471264367816,116.06308411214955 663.9080459770115,114.66121495327103 672.0689655172414,111.6822429906542 C680.2298850574713,108.70327102803738 688.3908045977012,106.07476635514016 696.551724137931,102.92056074766353 C704.7126436781609,99.7663551401869 712.8735632183908,95.2102803738318 721.0344827586207,92.75700934579442 C729.1954022988506,90.30373831775704 737.3563218390805,90.77102803738319 745.5172413793103,88.20093457943926 C753.6781609195402,85.63084112149534 761.8390804597701,80.95794392523366 770,77.33644859813086" fill="none" stroke="#6b63ff" stroke-width="2.5" class="data-line-0" />
  <g class="points">
    
    <circle cx="60" cy="349.64953271028037" r="4" fill="#6b63ff" class="data-point" style="animation-delay: 1.50s" />
    <circle cx="84.48275862068965" cy="344.0420560747664" r="4" fill="#6b63ff" class="data-point" style="animation-delay: 1.55s" />
    <circle cx="108.9655172413793" cy="338.43457943925233" r="4" fill="#6b63ff" class="data-point" style="animation-delay: 1.60s" />
    <circle cx="133.44827586206895" cy="333.8785046728972" r="4" fill="#6b63ff" class="data-point" style="animation-delay: 1.65s" />
    <circle cx="157.9310344827586" cy="329.3224299065421" r="4" fill="#6b63ff" class="data-point" style="animation-delay: 1.70s" />
    <circle cx="182.41379310344828" cy="326.1682242990654" r="4" fill="#6b63ff" class="data-point" style="animation-delay: 1.75s" />
    <circle cx="206.89655172413794" cy="324.06542056074767" r="4" fill="#6b63ff" class="data-point" style="animation-delay: 1.80s" />
    <circle cx="231.3793103448276" cy="319.85981308411215" r="4" fill="#6b63ff" class="data-point" style="animation-delay: 1.85s" />
    <circle cx="255.86206896551724" cy="313.9018691588785" r="4" fill="#6b63ff" class="data-point" style="animation-delay: 1.90s" />
    <circle cx="280.34482758620686" cy="298.8317757009346" r="4" fill="#6b63ff" class="data-point" style="animation-delay: 1.95s" />
    <circle cx="304.82758620689657" cy="287.26635514018693" r="4" fill="#6b63ff" class="data-point" style="animation-delay: 2.00s" />
    <circle cx="329.3103448275862" cy="279.55607476635515" r="4" fill="#6b63ff" class="data-point" style="animation-delay: 2.05s" />
    <circle cx="353.7931034482759" cy="263.43457943925233" r="4" fill="#6b63ff" class="data-point" style="animation-delay: 2.10s" />
    <circle cx="378.2758620689655" cy="253.6214953271028" r="4" fill="#6b63ff" class="data-point" style="animation-delay: 2.15s" />
    <circle cx="402.7586206896552" cy="242.40654205607476" r="4" fill="#6b63ff" class="data-point" style="animation-delay: 2.20s" />
    <circle cx="427.2413793103448" cy="230.14018691588785" r="4" fill="#6b63ff" class="data-point" style="animation-delay: 2.25s" />
    <circle cx="451.7241379310345" cy="222.07943925233644" r="4" fill="#6b63ff" class="data-point" style="animation-delay: 2.30s" />
    <circle cx="476.2068965517241" cy="210.8644859813084" r="4" fill="#6b63ff" class="data-point" style="animation-delay: 2.35s" />
    <circle cx="500.6896551724138" cy="200.35046728971963" r="4" fill="#6b63ff" class="data-point" style="animation-delay: 2.40s" />
    <circle cx="525.1724137931035" cy="185.2803738317757" r="4" fill="#6b63ff" class="data-point" style="animation-delay: 2.45s" />
    <circle cx="549.6551724137931" cy="174.4158878504673" r="4" fill="#6b63ff" class="data-point" style="animation-delay: 2.50s" />
    <circle cx="574.1379310344828" cy="161.0981308411215" r="4" fill="#6b63ff" class="data-point" style="animation-delay: 2.55s" />
    <circle cx="598.6206896551724" cy="151.28504672897196" r="4" fill="#6b63ff" class="data-point" style="animation-delay: 2.60s" />
    <circle cx="623.1034482758621" cy="140.07009345794393" r="4" fill="#6b63ff" class="data-point" style="animation-delay: 2.65s" />
    <circle cx="647.5862068965517" cy="120.79439252336451" r="4" fill="#6b63ff" class="data-point" style="animation-delay: 2.70s" />
    <circle cx="672.0689655172414" cy="111.6822429906542" r="4" fill="#6b63ff" class="data-point" style="animation-delay: 2.75s" />
    <circle cx="696.551724137931" cy="102.92056074766353" r="4" fill="#6b63ff" class="data-point" style="animation-delay: 2.80s" />
    <circle cx="721.0344827586207" cy="92.75700934579442" r="4" fill="#6b63ff" class="data-point" style="animation-delay: 2.85s" />
    <circle cx="745.5172413793103" cy="88.20093457943926" r="4" fill="#6b63ff" class="data-point" style="animation-delay: 2.90s" />
    <circle cx="770" cy="77.33644859813086" r="4" fill="#6b63ff" class="data-point" style="animation-delay: 2.95s" />
  </g>
</svg>