<svg xmlns="http://www.w3.org/2000/svg" viewBox="0 0 800 400" width="800" height="400">
  <style>
    @keyframes drawLine {
      to { stroke-dashoffset: 0; }
    }
    @keyframes fadeInPoint {
      from { opacity: 0; }
      to { opacity: 1; }
    }
    .data-line-0 {
      stroke-dasharray: 1147;
      stroke-dashoffset: 1147;
      animation: drawLine 2s ease-out forwards;
    }
    .data-point {
      opacity: 0;
      animation: fadeInPoint 0.5s ease-out forwards;
    }
    .chart-bg { fill: #fff; }
    .chart-text { fill: #24292e; }
    .chart-muted { fill: #6a737d; }
    .chart-grid { stroke: #eee; }
    .chart-axis { stroke: #6a737d; }
    @media (prefers-color-scheme: dark) {
      .chart-bg { fill: #0d1117; }
      .chart-text { fill: #e6edf3; }
      .chart-muted { fill: #8b949e; }
      .chart-grid { stroke: #21262d; }
      .chart-axis { stroke: #8b949e; }
    }
  </style>
  <rect width="800" height="400" class="chart-bg" />
  <text x="400" y="14" text-anchor="middle" class="chart-text" font-size="16" font-weight="bold" font-family="-apple-system, BlinkMacSystemFont, 'Segoe UI', Helvetica, Arial, sans-serif">dockur/tor Star History</text>
  
  <g class="grid">
    <line x1="60" y1="350" x2="770" y2="350" class="chart-grid" stroke-opacity="0.3" />
    <text x="778" y="354" text-anchor="start" class="chart-muted" font-size="11" font-family="-apple-system, BlinkMacSystemFont, 'Segoe UI', Helvetica, Arial, sans-serif">0</text>
    <line x1="60" y1="290" x2="770" y2="290" class="chart-grid" stroke-opacity="0.3" />
    <text x="778" y="294" text-anchor="start" class="chart-muted" font-size="11" font-family="-apple-system, BlinkMacSystemFont, 'Segoe UI', Helvetica, Arial, sans-serif">50</text>
    <line x1="60" y1="230" x2="770" y2="230" class="chart-grid" stroke-opacity="0.3" />
    <text x="778" y="234" text-anchor="start" class="chart-muted" font-size="11" font-family="-apple-system, BlinkMacSystemFont, 'Segoe UI', Helvetica, Arial, sans-serif">100</text>
    <line x1="60" y1="170" x2="770" y2="170" class="chart-grid" stroke-opacity="0.3" />
    <text x="778" y="174" text-anchor="start" class="chart-muted" font-size="11" font-family="-apple-system, BlinkMacSystemFont, 'Segoe UI', Helvetica, Arial, sans-serif">150</text>
    <line x1="60" y1="110" x2="770" y2="110" class="chart-grid" stroke-opacity="0.3" />
    <text x="778" y="114" text-anchor="start" class="chart-muted" font-size="11" font-family="-apple-system, BlinkMacSystemFont, 'Segoe UI', Helvetica, Arial, sans-serif">200</text>
    <line x1="60" y1="50" x2="770" y2="50" class="chart-grid" stroke-opacity="0.3" />
    <text x="778" y="54" text-anchor="start" class="chart-muted" font-size="11" font-family="-apple-system, BlinkMacSystemFont, 'Segoe UI', Helvetica, Arial, sans-serif">250</text>
  </g>
  <g class="milestones">
    
  </g>
  <g class="x-axis">
    <text x="60" y="370" text-anchor="middle" class="chart-muted" font-size="11" font-family="-apple-system, BlinkMacSystemFont, 'Segoe UI', Helvetica, Arial, sans-serif">2023</text>
    <text x="84.48275862068965" y="370" text-anchor="middle" class="chart-muted" font-size="11" font-family="-apple-system, BlinkMacSystemFont, 'Segoe UI', Helvetica, Arial, sans-serif">2024</text>
    <text x="378.2758620689655" y="370" text-anchor="middle" class="chart-muted" font-size="11" font-family="-apple-system, BlinkMacSystemFont, 'Segoe UI', Helvetica, Arial, sans-serif">2025</text>
    <text x="647.5862068965517" y="370" text-anchor="middle" class="chart-muted" font-size="11" font-family="-apple-system, BlinkMacSystemFont, 'Segoe UI', Helvetica, Arial, sans-serif">2026</text>
  </g>
  <line x1="770" y1="50" x2="770" y2="350" class="chart-axis" stroke-width="1" />
  <line x1="60" y1="350" x2="770" y2="350" class="chart-axis" stroke-width="1" />
  <path d="M60,350 L60,348.8 C68.16091954022988,348 76.32183908045977,346.4 84.48275862068965,346.4 C92.64367816091954,346.4 100.80459770114942,346.4 108.9655172413793,346.4 C117.12643678160919,346.4 125.28735632183907,344.6 133.44827586206895,342.8 C141.60919540229884,341 149.77011494252872,338 157.9310344827586,335.6 C166.0919540229885,333.2 174.2528735632184,330.4 182.41379310344828,328.4 C190.57471264367817,326.4 198.73563218390805,324.8 206.89655172413794,323.6 C215.05747126436782,322.40000000000003 223.2183908045977,322 231.3793103448276,321.2 C239.54022988505747,320.4 247.70114942528735,320 255.86206896551724,318.8 C264.0229885057471,317.6 272.183908045977,314.94540631659 280.34482758620686,314 C288.50574712643675,313.05459368341 296.6666666666667,313.80594807204335 304.82758620689657,311.6 C312.98850574712645,309.3940519279567 321.14942528735634,301 329.3103448275862,297.2 C337.4712643678161,293.4 345.632183908046,291.4 353.7931034482759,288.8 C361.95402298850576,286.20000000000005 370.11494252873564,284.8 378.2758620689655,281.6 C386.4367816091954,278.40000000000003 394.5977011494253,272.1455844122716 402.7586206896552,269.6 C410.91954022988506,267.05441558772844 419.08045977011494,268.5455844122716 427.2413793103448,266 C435.4022988505747,263.4544155877284 443.5632183908046,257.4 451.7241379310345,254 C459.88505747126436,250.6 468.04597701149424,248.8 476.2068965517241,245.60000000000002 C484.367816091954,242.40000000000003 492.5287356321839,238.60000000000002 500.6896551724138,234.8 C508.85057471264366,231 517.0114942528736,228.00000000000003 525.1724137931035,222.8 C533.3333333333334,217.60000000000002 541.4942528735633,210.6 549.6551724137931,203.6 C557.816091954023,196.6 565.9770114942529,186.20000000000002 574.1379310344828,180.8 C582.2988505747127,175.4 590.4597701149426,174.00000000000003 598.6206896551724,171.20000000000002 C606.7816091954023,168.4 614.9425287356322,166.2 623.1034482758621,164 C631.264367816092,161.8 639.4252873563219,161.2 647.5862068965517,158 C655.7471264367816,154.8 663.9080459770115,149.2 672.0689655172414,144.79999999999998 C680.2298850574713,140.39999999999998 688.3908045977012,135.6 696.551724137931,131.6 C704.7126436781609,127.6 712.8735632183908,123.99999999999999 721.0344827586207,120.79999999999998 C729.1954022988506,117.59999999999998 737.3563218390805,114.99999999999997 745.5172413793103,112.39999999999998 C753.6781609195402,109.79999999999998 761.8390804597701,107.60000000000001 770,105.20000000000002 L770,350 L60,350 Z" fill="#6b63ff" fill-opacity="0.1" />
  <path d="M60,350 L60,348.8 C68.16091954022988,348 76.32183908045977,346.4 84.48275862068965,346.4 C92.64367816091954,346.4 100.80459770114942,346.4 108.9655172413793,346.4 C117.12643678160919,346.4 125.28735632183907,344.6 133.44827586206895,342.8 C141.60919540229884,341 149.77011494252872,338 157.9310344827586,335.6 C166.0919540229885,333.2 174.2528735632184,330.4 182.41379310344828,328.4 C190.57471264367817,326.4 198.73563218390805,324.8 206.89655172413794,323.6 C215.05747126436782,322.40000000000003 223.2183908045977,322 231.3793103448276,321.2 C239.54022988505747,320.4 247.70114942528735,320 255.86206896551724,318.8 C264.0229885057471,317.6 272.183908045977,314.94540631659 280.34482758620686,314 C288.50574712643675,313.05459368341 296.6666666666667,313.80594807204335 304.82758620689657,311.6 C312.98850574712645,309.3940519279567 321.14942528735634,301 329.3103448275862,297.2 C337.4712643678161,293.4 345.632183908046,291.4 353.7931034482759,288.8 C361.95402298850576,286.20000000000005 370.11494252873564,284.8 378.2758620689655,281.6 C386.4367816091954,278.40000000000003 394.5977011494253,272.1455844122716 402.7586206896552,269.6 C410.91954022988506,267.05441558772844 419.08045977011494,268.5455844122716 427.2413793103448,266 C435.4022988505747,263.4544155877284 443.5632183908046,257.4 451.7241379310345,254 C459.88505747126436,250.6 468.04597701149424,248.8 476.2068965517241,245.60000000000002 C484.367816091954,242.40000000000003 492.5287356321839,238.60000000000002 500.6896551724138,234.8 C508.85057471264366,231 517.0114942528736,228.00000000000003 525.1724137931035,222.8 C533.3333333333334,217.60000000000002 541.4942528735633,210.6 549.6551724137931,203.6 C557.816091954023,196.6 565.9770114942529,186.20000000000002 574.1379310344828,180.8 C582.2988505747127,175.4 590.4597701149426,174.00000000000003 598.6206896551724,171.20000000000002 C606.7816091954023,168.4 614.9425287356322,166.2 623.1034482758621,164 C631.264367816092,161.8 639.4252873563219,161.2 647.5862068965517,158 C655.7471264367816,154.8 663.9080459770115,149.2 672.0689655172414,144.79999999999998 C680.2298850574713,140.39999999999998 688.3908045977012,135.6 696.551724137931,131.6 C704.7126436781609,127.6 712.8735632183908,123.99999999999999 721.0344827586207,120.79999999999998 C729.1954022988506,117.59999999999998 737.3563218390805,114.99999999999997 745.5172413793103,112.39999999999998 C753.6781609195402,109.79999999999998 761.8390804597701,107.60000000000001 770,105.20000000000002" fill="none" stroke="#6b63ff" stroke-width="2.5" class="data-line-0" />
  <g class="points">
    
    <circle cx="60" cy="348.8" r="4" fill="#6b63ff" class="data-point" style="animation-delay: 1.50s" />
    <circle cx="84.48275862068965" cy="346.4" r="4" fill="#6b63ff" class="data-point" style="animation-delay: 1.55s" />
    <circle cx="108.9655172413793" cy="346.4" r="4" fill="#6b63ff" class="data-point" style="animation-delay: 1.60s" />
    <circle cx="133.44827586206895" cy="342.8" r="4" fill="#6b63ff" class="data-point" style="animation-delay: 1.65s" />
    <circle cx="157.9310344827586" cy="335.6" r="4" fill="#6b63ff" class="data-point" style="animation-delay: 1.70s" />
    <circle cx="182.41379310344828" cy="328.4" r="4" fill="#6b63ff" class="data-point" style="animation-delay: 1.75s" />
    <circle cx="206.89655172413794" cy="323.6" r="4" fill="#6b63ff" class="data-point" style="animation-delay: 1.80s" />
    <circle cx="231.3793103448276" cy="321.2" r="4" fill="#6b63ff" class="data-point" style="animation-delay: 1.85s" />
    <circle cx="255.86206896551724" cy="318.8" r="4" fill="#6b63ff" class="data-point" style="animation-delay: 1.90s" />
    <circle cx="280.34482758620686" cy="314" r="4" fill="#6b63ff" class="data-point" style="animation-delay: 1.95s" />
    <circle cx="304.82758620689657" cy="311.6" r="4" fill="#6b63ff" class="data-point" style="animation-delay: 2.00s" />
    <circle cx="329.3103448275862" cy="297.2" r="4" fill="#6b63ff" class="data-point" style="animation-delay: 2.05s" />
    <circle cx="353.7931034482759" cy="288.8" r="4" fill="#6b63ff" class="data-point" style="animation-delay: 2.10s" />
    <circle cx="378.2758620689655" cy="281.6" r="4" fill="#6b63ff" class="data-point" style="animation-delay: 2.15s" />
    <circle cx="402.7586206896552" cy="269.6" r="4" fill="#6b63ff" class="data-point" style="animation-delay: 2.20s" />
    <circle cx="427.2413793103448" cy="266" r="4" fill="#6b63ff" class="data-point" style="animation-delay: 2.25s" />
    <circle cx="451.7241379310345" cy="254" r="4" fill="#6b63ff" class="data-point" style="animation-delay: 2.30s" />
    <circle cx="476.2068965517241" cy="245.60000000000002" r="4" fill="#6b63ff" class="data-point" style="animation-delay: 2.35s" />
    <circle cx="500.6896551724138" cy="234.8" r="4" fill="#6b63ff" class="data-point" style="animation-delay: 2.40s" />
    <circle cx="525.1724137931035" cy="222.8" r="4" fill="#6b63ff" class="data-point" style="animation-delay: 2.45s" />
    <circle cx="549.6551724137931" cy="203.6" r="4" fill="#6b63ff" class="data-point" style="animation-delay: 2.50s" />
    <circle cx="574.1379310344828" cy="180.8" r="4" fill="#6b63ff" class="data-point" style="animation-delay: 2.55s" />
    <circle cx="598.6206896551724" cy="171.20000000000002" r="4" fill="#6b63ff" class="data-point" style="animation-delay: 2.60s" />
    <circle cx="623.1034482758621" cy="164" r="4" fill="#6b63ff" class="data-point" style="animation-delay: 2.65s" />
    <circle cx="647.5862068965517" cy="158" r="4" fill="#6b63ff" class="data-point" style="animation-delay: 2.70s" />
    <circle cx="672.0689655172414" cy="144.79999999999998" r="4" fill="#6b63ff" class="data-point" style="animation-delay: 2.75s" />
    <circle cx="696.551724137931" cy="131.6" r="4" fill="#6b63ff" class="data-point" style="animation-delay: 2.80s" />
    <circle cx="721.0344827586207" cy="120.79999999999998" r="4" fill="#6b63ff" class="data-point" style="animation-delay: 2.85s" />
    <circle cx="745.5172413793103" cy="112.39999999999998" r="4" fill="#6b63ff" class="data-point" style="animation-delay: 2.90s" />
    <circle cx="770" cy="105.20000000000002" r="4" fill="#6b63ff" class="data-point" style="animation-delay: 2.95s" />
  </g>
</svg>