<svg xmlns="http://www.w3.org/2000/svg" viewBox="0 0 800 400" width="800" height="400">
  <style>
    @keyframes drawLine {
      to { stroke-dashoffset: 0; }
    }
    @keyframes fadeInPoint {
      from { opacity: 0; }
      to { opacity: 1; }
    }
    .data-line-0 {
      stroke-dasharray: 1190;
      stroke-dashoffset: 1190;
      animation: drawLine 2s ease-out forwards;
    }
    .data-point {
      opacity: 0;
      animation: fadeInPoint 0.5s ease-out forwards;
    }
    .chart-bg { fill: #fff; }
    .chart-text { fill: #24292e; }
    .chart-muted { fill: #6a737d; }
    .chart-grid { stroke: #eee; }
    .chart-axis { stroke: #6a737d; }
    @media (prefers-color-scheme: dark) {
      .chart-bg { fill: #0d1117; }
      .chart-text { fill: #e6edf3; }
      .chart-muted { fill: #8b949e; }
      .chart-grid { stroke: #21262d; }
      .chart-axis { stroke: #8b949e; }
    }
  </style>
  <rect width="800" height="400" class="chart-bg" />
  <text x="400" y="34" text-anchor="middle" class="chart-text" font-size="16" font-weight="bold" font-family="-apple-system, BlinkMacSystemFont, 'Segoe UI', Helvetica, Arial, sans-serif">dockur/windows-arm Star History</text>
  
  <g class="grid">
    <line x1="60" y1="350" x2="770" y2="350" class="chart-grid" stroke-opacity="0.3" />
    <text x="778" y="354" text-anchor="start" class="chart-muted" font-size="11" font-family="-apple-system, BlinkMacSystemFont, 'Segoe UI', Helvetica, Arial, sans-serif">0</text>
    <line x1="60" y1="287.31717509402426" x2="770" y2="287.31717509402426" class="chart-grid" stroke-opacity="0.3" />
    <text x="778" y="291.31717509402426" text-anchor="start" class="chart-muted" font-size="11" font-family="-apple-system, BlinkMacSystemFont, 'Segoe UI', Helvetica, Arial, sans-serif">500</text>
    <line x1="60" y1="224.63435018804847" x2="770" y2="224.63435018804847" class="chart-grid" stroke-opacity="0.3" />
    <text x="778" y="228.63435018804847" text-anchor="start" class="chart-muted" font-size="11" font-family="-apple-system, BlinkMacSystemFont, 'Segoe UI', Helvetica, Arial, sans-serif">1K</text>
    <line x1="60" y1="161.9515252820727" x2="770" y2="161.9515252820727" class="chart-grid" stroke-opacity="0.3" />
    <text x="778" y="165.9515252820727" text-anchor="start" class="chart-muted" font-size="11" font-family="-apple-system, BlinkMacSystemFont, 'Segoe UI', Helvetica, Arial, sans-serif">1.5K</text>
    <line x1="60" y1="99.26870037609694" x2="770" y2="99.26870037609694" class="chart-grid" stroke-opacity="0.3" />
    <text x="778" y="103.26870037609694" text-anchor="start" class="chart-muted" font-size="11" font-family="-apple-system, BlinkMacSystemFont, 'Segoe UI', Helvetica, Arial, sans-serif">2K</text>
    <line x1="60" y1="36.58587547012115" x2="770" y2="36.58587547012115" class="chart-grid" stroke-opacity="0.3" />
    <text x="778" y="40.58587547012115" text-anchor="start" class="chart-muted" font-size="11" font-family="-apple-system, BlinkMacSystemFont, 'Segoe UI', Helvetica, Arial, sans-serif">2.5K</text>
  </g>
  <g class="milestones">
    
  </g>
  <g class="x-axis">
    <text x="60" y="370" text-anchor="middle" class="chart-muted" font-size="11" font-family="-apple-system, BlinkMacSystemFont, 'Segoe UI', Helvetica, Arial, sans-serif">2024</text>
    <text x="353.7931034482759" y="370" text-anchor="middle" class="chart-muted" font-size="11" font-family="-apple-system, BlinkMacSystemFont, 'Segoe UI', Helvetica, Arial, sans-serif">2025</text>
    <text x="647.5862068965517" y="370" text-anchor="middle" class="chart-muted" font-size="11" font-family="-apple-system, BlinkMacSystemFont, 'Segoe UI', Helvetica, Arial, sans-serif">2026</text>
  </g>
  <line x1="770" y1="50" x2="770" y2="350" class="chart-axis" stroke-width="1" />
  <line x1="60" y1="350" x2="770" y2="350" class="chart-axis" stroke-width="1" />
  <path d="M60,350 L60,349.87463435018805 L84.48275862068965,334.454659423318 L108.9655172413793,305.7459256163811 L133.44827586206895,293.5854575846218 L157.9310344827586,281.9264521521103 L182.41379310344828,274.02841621395737 L206.89655172413794,269.26452152110323 L231.3793103448276,262.74550773088174 L255.86206896551724,255.47430004178852 L280.34482758620686,250.7104053489344 L304.82758620689657,198.30756372753865 L329.3103448275862,189.78269954032595 L353.7931034482759,184.64270789803592 L378.2758620689655,178.2490597576264 L402.7586206896552,170.60175511909736 L427.2413793103448,163.832010029252 L451.7241379310345,158.06519013790222 L476.2068965517241,154.4295862933556 L500.6896551724138,149.66569160050145 L525.1724137931035,144.9017969076473 L549.6551724137931,118.8257417467614 L574.1379310344828,109.67404931048895 L598.6206896551724,104.15796071876306 L623.1034482758621,99.51943167572082 L647.5862068965517,95.2569995821145 L672.0689655172414,91.62139573756792 L696.551724137931,87.4843292937735 L721.0344827586207,85.22774759715838 L745.5172413793103,80.58921855411614 L770,77.32971165900545 L770,350 L60,350 Z" fill="#6b63ff" fill-opacity="0.1" />
  <path d="M60,350 L60,349.87463435018805 L84.48275862068965,334.454659423318 L108.9655172413793,305.7459256163811 L133.44827586206895,293.5854575846218 L157.9310344827586,281.9264521521103 L182.41379310344828,274.02841621395737 L206.89655172413794,269.26452152110323 L231.3793103448276,262.74550773088174 L255.86206896551724,255.47430004178852 L280.34482758620686,250.7104053489344 L304.82758620689657,198.30756372753865 L329.3103448275862,189.78269954032595 L353.7931034482759,184.64270789803592 L378.2758620689655,178.2490597576264 L402.7586206896552,170.60175511909736 L427.2413793103448,163.832010029252 L451.7241379310345,158.06519013790222 L476.2068965517241,154.4295862933556 L500.6896551724138,149.66569160050145 L525.1724137931035,144.9017969076473 L549.6551724137931,118.8257417467614 L574.1379310344828,109.67404931048895 L598.6206896551724,104.15796071876306 L623.1034482758621,99.51943167572082 L647.5862068965517,95.2569995821145 L672.0689655172414,91.62139573756792 L696.551724137931,87.4843292937735 L721.0344827586207,85.22774759715838 L745.5172413793103,80.58921855411614 L770,77.32971165900545" fill="none" stroke="#6b63ff" stroke-width="2" class="data-line-0" />
  <g class="points">
    
    <circle cx="60" cy="349.87463435018805" r="4" fill="#6b63ff" class="data-point" style="animation-delay: 1.50s" />
    <circle cx="84.48275862068965" cy="334.454659423318" r="4" fill="#6b63ff" class="data-point" style="animation-delay: 1.55s" />
    <circle cx="108.9655172413793" cy="305.7459256163811" r="4" fill="#6b63ff" class="data-point" style="animation-delay: 1.60s" />
    <circle cx="133.44827586206895" cy="293.5854575846218" r="4" fill="#6b63ff" class="data-point" style="animation-delay: 1.65s" />
    <circle cx="157.9310344827586" cy="281.9264521521103" r="4" fill="#6b63ff" class="data-point" style="animation-delay: 1.70s" />
    <circle cx="182.41379310344828" cy="274.02841621395737" r="4" fill="#6b63ff" class="data-point" style="animation-delay: 1.75s" />
    <circle cx="206.89655172413794" cy="269.26452152110323" r="4" fill="#6b63ff" class="data-point" style="animation-delay: 1.80s" />
    <circle cx="231.3793103448276" cy="262.74550773088174" r="4" fill="#6b63ff" class="data-point" style="animation-delay: 1.85s" />
    <circle cx="255.86206896551724" cy="255.47430004178852" r="4" fill="#6b63ff" class="data-point" style="animation-delay: 1.90s" />
    <circle cx="280.34482758620686" cy="250.7104053489344" r="4" fill="#6b63ff" class="data-point" style="animation-delay: 1.95s" />
    <circle cx="304.82758620689657" cy="198.30756372753865" r="4" fill="#6b63ff" class="data-point" style="animation-delay: 2.00s" />
    <circle cx="329.3103448275862" cy="189.78269954032595" r="4" fill="#6b63ff" class="data-point" style="animation-delay: 2.05s" />
    <circle cx="353.7931034482759" cy="184.64270789803592" r="4" fill="#6b63ff" class="data-point" style="animation-delay: 2.10s" />
    <circle cx="378.2758620689655" cy="178.2490597576264" r="4" fill="#6b63ff" class="data-point" style="animation-delay: 2.15s" />
    <circle cx="402.7586206896552" cy="170.60175511909736" r="4" fill="#6b63ff" class="data-point" style="animation-delay: 2.20s" />
    <circle cx="427.2413793103448" cy="163.832010029252" r="4" fill="#6b63ff" class="data-point" style="animation-delay: 2.25s" />
    <circle cx="451.7241379310345" cy="158.06519013790222" r="4" fill="#6b63ff" class="data-point" style="animation-delay: 2.30s" />
    <circle cx="476.2068965517241" cy="154.4295862933556" r="4" fill="#6b63ff" class="data-point" style="animation-delay: 2.35s" />
    <circle cx="500.6896551724138" cy="149.66569160050145" r="4" fill="#6b63ff" class="data-point" style="animation-delay: 2.40s" />
    <circle cx="525.1724137931035" cy="144.9017969076473" r="4" fill="#6b63ff" class="data-point" style="animation-delay: 2.45s" />
    <circle cx="549.6551724137931" cy="118.8257417467614" r="4" fill="#6b63ff" class="data-point" style="animation-delay: 2.50s" />
    <circle cx="574.1379310344828" cy="109.67404931048895" r="4" fill="#6b63ff" class="data-point" style="animation-delay: 2.55s" />
    <circle cx="598.6206896551724" cy="104.15796071876306" r="4" fill="#6b63ff" class="data-point" style="animation-delay: 2.60s" />
    <circle cx="623.1034482758621" cy="99.51943167572082" r="4" fill="#6b63ff" class="data-point" style="animation-delay: 2.65s" />
    <circle cx="647.5862068965517" cy="95.2569995821145" r="4" fill="#6b63ff" class="data-point" style="animation-delay: 2.70s" />
    <circle cx="672.0689655172414" cy="91.62139573756792" r="4" fill="#6b63ff" class="data-point" style="animation-delay: 2.75s" />
    <circle cx="696.551724137931" cy="87.4843292937735" r="4" fill="#6b63ff" class="data-point" style="animation-delay: 2.80s" />
    <circle cx="721.0344827586207" cy="85.22774759715838" r="4" fill="#6b63ff" class="data-point" style="animation-delay: 2.85s" />
    <circle cx="745.5172413793103" cy="80.58921855411614" r="4" fill="#6b63ff" class="data-point" style="animation-delay: 2.90s" />
    <circle cx="770" cy="77.32971165900545" r="4" fill="#6b63ff" class="data-point" style="animation-delay: 2.95s" />
  </g>
</svg>