<svg xmlns="http://www.w3.org/2000/svg" viewBox="0 0 800 400" width="800" height="400">
  <style>
    @keyframes drawLine {
      to { stroke-dashoffset: 0; }
    }
    @keyframes fadeInPoint {
      from { opacity: 0; }
      to { opacity: 1; }
    }
    .data-line-0 {
      stroke-dasharray: 1233;
      stroke-dashoffset: 1233;
      animation: drawLine 2s ease-out forwards;
    }
    .data-point {
      opacity: 0;
      animation: fadeInPoint 0.5s ease-out forwards;
    }
    .chart-bg { fill: #fff; }
    .chart-text { fill: #24292e; }
    .chart-muted { fill: #6a737d; }
    .chart-grid { stroke: #eee; }
    .chart-axis { stroke: #6a737d; }
    @media (prefers-color-scheme: dark) {
      .chart-bg { fill: #0d1117; }
      .chart-text { fill: #e6edf3; }
      .chart-muted { fill: #8b949e; }
      .chart-grid { stroke: #21262d; }
      .chart-axis { stroke: #8b949e; }
    }
  </style>
  <rect width="800" height="400" class="chart-bg" />
  <text x="400" y="34" text-anchor="middle" class="chart-text" font-size="16" font-weight="bold" font-family="-apple-system, BlinkMacSystemFont, 'Segoe UI', Helvetica, Arial, sans-serif">dockur/lemmy-ui Star History</text>
  
  <g class="grid">
    <line x1="60" y1="350" x2="770" y2="350" class="chart-grid" stroke-opacity="0.3" />
    <text x="778" y="354" text-anchor="start" class="chart-muted" font-size="11" font-family="-apple-system, BlinkMacSystemFont, 'Segoe UI', Helvetica, Arial, sans-serif">0</text>
    <line x1="60" y1="284.7826086956522" x2="770" y2="284.7826086956522" class="chart-grid" stroke-opacity="0.3" />
    <text x="778" y="288.7826086956522" text-anchor="start" class="chart-muted" font-size="11" font-family="-apple-system, BlinkMacSystemFont, 'Segoe UI', Helvetica, Arial, sans-serif">5</text>
    <line x1="60" y1="219.56521739130434" x2="770" y2="219.56521739130434" class="chart-grid" stroke-opacity="0.3" />
    <text x="778" y="223.56521739130434" text-anchor="start" class="chart-muted" font-size="11" font-family="-apple-system, BlinkMacSystemFont, 'Segoe UI', Helvetica, Arial, sans-serif">10</text>
    <line x1="60" y1="154.34782608695653" x2="770" y2="154.34782608695653" class="chart-grid" stroke-opacity="0.3" />
    <text x="778" y="158.34782608695653" text-anchor="start" class="chart-muted" font-size="11" font-family="-apple-system, BlinkMacSystemFont, 'Segoe UI', Helvetica, Arial, sans-serif">15</text>
    <line x1="60" y1="89.13043478260869" x2="770" y2="89.13043478260869" class="chart-grid" stroke-opacity="0.3" />
    <text x="778" y="93.13043478260869" text-anchor="start" class="chart-muted" font-size="11" font-family="-apple-system, BlinkMacSystemFont, 'Segoe UI', Helvetica, Arial, sans-serif">20</text>
    <line x1="60" y1="23.913043478260875" x2="770" y2="23.913043478260875" class="chart-grid" stroke-opacity="0.3" />
    <text x="778" y="27.913043478260875" text-anchor="start" class="chart-muted" font-size="11" font-family="-apple-system, BlinkMacSystemFont, 'Segoe UI', Helvetica, Arial, sans-serif">25</text>
  </g>
  <g class="milestones">
    
  </g>
  <g class="x-axis">
    <text x="60" y="370" text-anchor="middle" class="chart-muted" font-size="11" font-family="-apple-system, BlinkMacSystemFont, 'Segoe UI', Helvetica, Arial, sans-serif">2024</text>
    <text x="329.3103448275862" y="370" text-anchor="middle" class="chart-muted" font-size="11" font-family="-apple-system, BlinkMacSystemFont, 'Segoe UI', Helvetica, Arial, sans-serif">2025</text>
    <text x="623.1034482758621" y="370" text-anchor="middle" class="chart-muted" font-size="11" font-family="-apple-system, BlinkMacSystemFont, 'Segoe UI', Helvetica, Arial, sans-serif">2026</text>
  </g>
  <line x1="770" y1="50" x2="770" y2="350" class="chart-axis" stroke-width="1" />
  <line x1="60" y1="350" x2="770" y2="350" class="chart-axis" stroke-width="1" />
  <path d="M60,350 L60,336.95652173913044 L84.48275862068965,336.95652173913044 L108.9655172413793,323.9130434782609 L133.44827586206895,310.8695652173913 L157.9310344827586,310.8695652173913 L182.41379310344828,310.8695652173913 L206.89655172413794,310.8695652173913 L231.3793103448276,310.8695652173913 L255.86206896551724,310.8695652173913 L280.34482758620686,297.82608695652175 L304.82758620689657,297.82608695652175 L329.3103448275862,284.7826086956522 L353.7931034482759,245.6521739130435 L378.2758620689655,232.6086956521739 L402.7586206896552,219.56521739130434 L427.2413793103448,219.56521739130434 L451.7241379310345,206.52173913043478 L476.2068965517241,206.52173913043478 L500.6896551724138,206.52173913043478 L525.1724137931035,167.39130434782606 L549.6551724137931,141.30434782608697 L574.1379310344828,141.30434782608697 L598.6206896551724,115.21739130434781 L623.1034482758621,115.21739130434781 L647.5862068965517,115.21739130434781 L672.0689655172414,115.21739130434781 L696.551724137931,102.17391304347825 L721.0344827586207,102.17391304347825 L745.5172413793103,89.13043478260869 L770,76.08695652173913 L770,350 L60,350 Z" fill="#6b63ff" fill-opacity="0.1" />
  <path d="M60,350 L60,336.95652173913044 L84.48275862068965,336.95652173913044 L108.9655172413793,323.9130434782609 L133.44827586206895,310.8695652173913 L157.9310344827586,310.8695652173913 L182.41379310344828,310.8695652173913 L206.89655172413794,310.8695652173913 L231.3793103448276,310.8695652173913 L255.86206896551724,310.8695652173913 L280.34482758620686,297.82608695652175 L304.82758620689657,297.82608695652175 L329.3103448275862,284.7826086956522 L353.7931034482759,245.6521739130435 L378.2758620689655,232.6086956521739 L402.7586206896552,219.56521739130434 L427.2413793103448,219.56521739130434 L451.7241379310345,206.52173913043478 L476.2068965517241,206.52173913043478 L500.6896551724138,206.52173913043478 L525.1724137931035,167.39130434782606 L549.6551724137931,141.30434782608697 L574.1379310344828,141.30434782608697 L598.6206896551724,115.21739130434781 L623.1034482758621,115.21739130434781 L647.5862068965517,115.21739130434781 L672.0689655172414,115.21739130434781 L696.551724137931,102.17391304347825 L721.0344827586207,102.17391304347825 L745.5172413793103,89.13043478260869 L770,76.08695652173913" fill="none" stroke="#6b63ff" stroke-width="2.5" class="data-line-0" />
  <g class="points">
    
    <circle cx="60" cy="336.95652173913044" r="4" fill="#6b63ff" class="data-point" style="animation-delay: 1.50s" />
    <circle cx="84.48275862068965" cy="336.95652173913044" r="4" fill="#6b63ff" class="data-point" style="animation-delay: 1.55s" />
    <circle cx="108.9655172413793" cy="323.9130434782609" r="4" fill="#6b63ff" class="data-point" style="animation-delay: 1.60s" />
    <circle cx="133.44827586206895" cy="310.8695652173913" r="4" fill="#6b63ff" class="data-point" style="animation-delay: 1.65s" />
    <circle cx="157.9310344827586" cy="310.8695652173913" r="4" fill="#6b63ff" class="data-point" style="animation-delay: 1.70s" />
    <circle cx="182.41379310344828" cy="310.8695652173913" r="4" fill="#6b63ff" class="data-point" style="animation-delay: 1.75s" />
    <circle cx="206.89655172413794" cy="310.8695652173913" r="4" fill="#6b63ff" class="data-point" style="animation-delay: 1.80s" />
    <circle cx="231.3793103448276" cy="310.8695652173913" r="4" fill="#6b63ff" class="data-point" style="animation-delay: 1.85s" />
    <circle cx="255.86206896551724" cy="310.8695652173913" r="4" fill="#6b63ff" class="data-point" style="animation-delay: 1.90s" />
    <circle cx="280.34482758620686" cy="297.82608695652175" r="4" fill="#6b63ff" class="data-point" style="animation-delay: 1.95s" />
    <circle cx="304.82758620689657" cy="297.82608695652175" r="4" fill="#6b63ff" class="data-point" style="animation-delay: 2.00s" />
    <circle cx="329.3103448275862" cy="284.7826086956522" r="4" fill="#6b63ff" class="data-point" style="animation-delay: 2.05s" />
    <circle cx="353.7931034482759" cy="245.6521739130435" r="4" fill="#6b63ff" class="data-point" style="animation-delay: 2.10s" />
    <circle cx="378.2758620689655" cy="232.6086956521739" r="4" fill="#6b63ff" class="data-point" style="animation-delay: 2.15s" />
    <circle cx="402.7586206896552" cy="219.56521739130434" r="4" fill="#6b63ff" class="data-point" style="animation-delay: 2.20s" />
    <circle cx="427.2413793103448" cy="219.56521739130434" r="4" fill="#6b63ff" class="data-point" style="animation-delay: 2.25s" />
    <circle cx="451.7241379310345" cy="206.52173913043478" r="4" fill="#6b63ff" class="data-point" style="animation-delay: 2.30s" />
    <circle cx="476.2068965517241" cy="206.52173913043478" r="4" fill="#6b63ff" class="data-point" style="animation-delay: 2.35s" />
    <circle cx="500.6896551724138" cy="206.52173913043478" r="4" fill="#6b63ff" class="data-point" style="animation-delay: 2.40s" />
    <circle cx="525.1724137931035" cy="167.39130434782606" r="4" fill="#6b63ff" class="data-point" style="animation-delay: 2.45s" />
    <circle cx="549.6551724137931" cy="141.30434782608697" r="4" fill="#6b63ff" class="data-point" style="animation-delay: 2.50s" />
    <circle cx="574.1379310344828" cy="141.30434782608697" r="4" fill="#6b63ff" class="data-point" style="animation-delay: 2.55s" />
    <circle cx="598.6206896551724" cy="115.21739130434781" r="4" fill="#6b63ff" class="data-point" style="animation-delay: 2.60s" />
    <circle cx="623.1034482758621" cy="115.21739130434781" r="4" fill="#6b63ff" class="data-point" style="animation-delay: 2.65s" />
    <circle cx="647.5862068965517" cy="115.21739130434781" r="4" fill="#6b63ff" class="data-point" style="animation-delay: 2.70s" />
    <circle cx="672.0689655172414" cy="115.21739130434781" r="4" fill="#6b63ff" class="data-point" style="animation-delay: 2.75s" />
    <circle cx="696.551724137931" cy="102.17391304347825" r="4" fill="#6b63ff" class="data-point" style="animation-delay: 2.80s" />
    <circle cx="721.0344827586207" cy="102.17391304347825" r="4" fill="#6b63ff" class="data-point" style="animation-delay: 2.85s" />
    <circle cx="745.5172413793103" cy="89.13043478260869" r="4" fill="#6b63ff" class="data-point" style="animation-delay: 2.90s" />
    <circle cx="770" cy="76.08695652173913" r="4" fill="#6b63ff" class="data-point" style="animation-delay: 2.95s" />
  </g>
</svg>