<svg xmlns="http://www.w3.org/2000/svg" viewBox="0 0 800 400" width="800" height="400">
  <style>
    @keyframes drawLine {
      to { stroke-dashoffset: 0; }
    }
    @keyframes fadeInPoint {
      from { opacity: 0; }
      to { opacity: 1; }
    }
    .data-line-0 {
      stroke-dasharray: 1266;
      stroke-dashoffset: 1266;
      animation: drawLine 2s ease-out forwards;
    }
    .data-point {
      opacity: 0;
      animation: fadeInPoint 0.5s ease-out forwards;
    }
    .chart-bg { fill: #fff; }
    .chart-text { fill: #24292e; }
    .chart-muted { fill: #6a737d; }
    .chart-grid { stroke: #eee; }
    .chart-axis { stroke: #6a737d; }
    @media (prefers-color-scheme: dark) {
      .chart-bg { fill: #0d1117; }
      .chart-text { fill: #e6edf3; }
      .chart-muted { fill: #8b949e; }
      .chart-grid { stroke: #21262d; }
      .chart-axis { stroke: #8b949e; }
    }
  </style>
  <rect width="800" height="400" class="chart-bg" />
  <text x="400" y="14" text-anchor="middle" class="chart-text" font-size="16" font-weight="bold" font-family="-apple-system, BlinkMacSystemFont, 'Segoe UI', Helvetica, Arial, sans-serif">dockur/proxmox Star History</text>
  
  <g class="grid">
    <line x1="60" y1="350" x2="770" y2="350" class="chart-grid" stroke-opacity="0.3" />
    <text x="778" y="354" text-anchor="start" class="chart-muted" font-size="11" font-family="-apple-system, BlinkMacSystemFont, 'Segoe UI', Helvetica, Arial, sans-serif">0</text>
    <line x1="60" y1="294.2379182156134" x2="770" y2="294.2379182156134" class="chart-grid" stroke-opacity="0.3" />
    <text x="778" y="298.2379182156134" text-anchor="start" class="chart-muted" font-size="11" font-family="-apple-system, BlinkMacSystemFont, 'Segoe UI', Helvetica, Arial, sans-serif">50</text>
    <line x1="60" y1="238.47583643122675" x2="770" y2="238.47583643122675" class="chart-grid" stroke-opacity="0.3" />
    <text x="778" y="242.47583643122675" text-anchor="start" class="chart-muted" font-size="11" font-family="-apple-system, BlinkMacSystemFont, 'Segoe UI', Helvetica, Arial, sans-serif">100</text>
    <line x1="60" y1="182.71375464684013" x2="770" y2="182.71375464684013" class="chart-grid" stroke-opacity="0.3" />
    <text x="778" y="186.71375464684013" text-anchor="start" class="chart-muted" font-size="11" font-family="-apple-system, BlinkMacSystemFont, 'Segoe UI', Helvetica, Arial, sans-serif">150</text>
    <line x1="60" y1="126.95167286245353" x2="770" y2="126.95167286245353" class="chart-grid" stroke-opacity="0.3" />
    <text x="778" y="130.95167286245353" text-anchor="start" class="chart-muted" font-size="11" font-family="-apple-system, BlinkMacSystemFont, 'Segoe UI', Helvetica, Arial, sans-serif">200</text>
    <line x1="60" y1="71.18959107806694" x2="770" y2="71.18959107806694" class="chart-grid" stroke-opacity="0.3" />
    <text x="778" y="75.18959107806694" text-anchor="start" class="chart-muted" font-size="11" font-family="-apple-system, BlinkMacSystemFont, 'Segoe UI', Helvetica, Arial, sans-serif">250</text>
  </g>
  <g class="milestones">
    
  </g>
  <g class="x-axis">
    <text x="60" y="370" text-anchor="middle" class="chart-muted" font-size="11" font-family="-apple-system, BlinkMacSystemFont, 'Segoe UI', Helvetica, Arial, sans-serif">May 27</text>
    <text x="133.44827586206895" y="370" text-anchor="middle" class="chart-muted" font-size="11" font-family="-apple-system, BlinkMacSystemFont, 'Segoe UI', Helvetica, Arial, sans-serif">May 31</text>
    <text x="206.89655172413794" y="370" text-anchor="middle" class="chart-muted" font-size="11" font-family="-apple-system, BlinkMacSystemFont, 'Segoe UI', Helvetica, Arial, sans-serif">Jun 4</text>
    <text x="280.34482758620686" y="370" text-anchor="middle" class="chart-muted" font-size="11" font-family="-apple-system, BlinkMacSystemFont, 'Segoe UI', Helvetica, Arial, sans-serif">Jun 7</text>
    <text x="353.7931034482759" y="370" text-anchor="middle" class="chart-muted" font-size="11" font-family="-apple-system, BlinkMacSystemFont, 'Segoe UI', Helvetica, Arial, sans-serif">Jun 11</text>
    <text x="427.2413793103448" y="370" text-anchor="middle" class="chart-muted" font-size="11" font-family="-apple-system, BlinkMacSystemFont, 'Segoe UI', Helvetica, Arial, sans-serif">Jun 15</text>
    <text x="500.6896551724138" y="370" text-anchor="middle" class="chart-muted" font-size="11" font-family="-apple-system, BlinkMacSystemFont, 'Segoe UI', Helvetica, Arial, sans-serif">Jun 18</text>
    <text x="574.1379310344828" y="370" text-anchor="middle" class="chart-muted" font-size="11" font-family="-apple-system, BlinkMacSystemFont, 'Segoe UI', Helvetica, Arial, sans-serif">Jun 22</text>
    <text x="647.5862068965517" y="370" text-anchor="middle" class="chart-muted" font-size="11" font-family="-apple-system, BlinkMacSystemFont, 'Segoe UI', Helvetica, Arial, sans-serif">Jun 26</text>
    <text x="721.0344827586207" y="370" text-anchor="middle" class="chart-muted" font-size="11" font-family="-apple-system, BlinkMacSystemFont, 'Segoe UI', Helvetica, Arial, sans-serif">Jun 29</text>
    <text x="770" y="370" text-anchor="middle" class="chart-muted" font-size="11" font-family="-apple-system, BlinkMacSystemFont, 'Segoe UI', Helvetica, Arial, sans-serif">Jul 2</text>
  </g>
  <line x1="770" y1="50" x2="770" y2="350" class="chart-axis" stroke-width="1" />
  <line x1="60" y1="350" x2="770" y2="350" class="chart-axis" stroke-width="1" />
  <path d="M60,350 L60,348.8847583643123 C68.16091954022988,320.26022304832713 76.32183908045977,283.64312267657994 84.48275862068965,263.0111524163569 C92.64367816091954,242.37918215613382 100.80459770114942,238.84758364312268 108.9655172413793,225.09293680297398 C117.12643678160919,211.33828996282529 125.28735632183907,192.37918215613382 133.44827586206895,180.48327137546468 C141.60919540229884,168.58736059479554 149.77011494252872,157.964439678596 157.9310344827586,153.7174721189591 C166.0919540229885,149.47050455932222 174.2528735632184,150.62160229180571 182.41379310344828,149.25650557620816 C190.57471264367817,147.8914088606106 198.73563218390805,145.16728624535315 206.89655172413794,143.68029739776952 C215.05747126436782,142.1933085501859 223.2183908045977,142.37918215613382 231.3793103448276,140.3345724907063 C239.54022988505747,138.2899628252788 247.70114942528735,133.271375464684 255.86206896551724,131.41263940520446 C264.0229885057471,129.5539033457249 272.183908045977,130.11152416356876 280.34482758620686,129.18215613382898 C288.50574712643675,128.2527881040892 296.6666666666667,128.43866171003717 304.82758620689657,125.8364312267658 C312.98850574712645,123.23420074349443 321.14942528735634,116.3568773234201 329.3103448275862,113.56877323420076 C337.4712643678161,110.78066914498143 345.632183908046,110.03717472118959 353.7931034482759,109.10780669144981 C361.95402298850576,108.17843866171003 370.11494252873564,107.99256505576207 378.2758620689655,107.99256505576207 C386.4367816091954,107.99256505576207 394.5977011494253,107.99256505576207 402.7586206896552,107.99256505576207 C410.91954022988506,107.99256505576207 419.08045977011494,107.99256505576207 427.2413793103448,107.99256505576207 C435.4022988505747,107.99256505576207 443.5632183908046,107.43494423791823 451.7241379310345,106.87732342007436 C459.88505747126436,106.31970260223049 468.04597701149424,105.20446096654275 476.2068965517241,104.64684014869889 C484.367816091954,104.08921933085502 492.5287356321839,103.90334572490706 500.6896551724138,103.53159851301115 C508.85057471264366,103.15985130111524 517.0114942528736,102.78810408921932 525.1724137931035,102.41635687732341 C533.3333333333334,102.0446096654275 541.4942528735633,101.67286245353161 549.6551724137931,101.3011152416357 C557.816091954023,100.92936802973979 565.9770114942529,100.74349442379183 574.1379310344828,100.18587360594796 C582.2988505747127,99.62825278810409 590.4597701149426,98.6988847583643 598.6206896551724,97.95539033457248 C606.7816091954023,97.21189591078067 614.9425287356322,96.2825278810409 623.1034482758621,95.72490706319704 C631.264367816092,95.16728624535317 639.4252873563219,94.9814126394052 647.5862068965517,94.6096654275093 C655.7471264367816,94.23791821561339 663.9080459770115,93.8661710037175 672.0689655172414,93.49442379182159 C680.2298850574713,93.12267657992568 688.3908045977012,93.30855018587361 696.551724137931,92.37918215613382 C704.7126436781609,91.44981412639403 712.8735632183908,89.0334572490706 721.0344827586207,87.91821561338287 C729.1954022988506,86.80297397769515 737.3563218390805,87.36059479553904 745.5172413793103,85.68773234200745 C753.6781609195402,84.01486988847586 761.8390804597701,80.4832713754647 770,77.88104089219331 L770,350 L60,350 Z" fill="#6b63ff" fill-opacity="0.1" />
  <path d="M60,350 L60,348.8847583643123 C68.16091954022988,320.26022304832713 76.32183908045977,283.64312267657994 84.48275862068965,263.0111524163569 C92.64367816091954,242.37918215613382 100.80459770114942,238.84758364312268 108.9655172413793,225.09293680297398 C117.12643678160919,211.33828996282529 125.28735632183907,192.37918215613382 133.44827586206895,180.48327137546468 C141.60919540229884,168.58736059479554 149.77011494252872,157.964439678596 157.9310344827586,153.7174721189591 C166.0919540229885,149.47050455932222 174.2528735632184,150.62160229180571 182.41379310344828,149.25650557620816 C190.57471264367817,147.8914088606106 198.73563218390805,145.16728624535315 206.89655172413794,143.68029739776952 C215.05747126436782,142.1933085501859 223.2183908045977,142.37918215613382 231.3793103448276,140.3345724907063 C239.54022988505747,138.2899628252788 247.70114942528735,133.271375464684 255.86206896551724,131.41263940520446 C264.0229885057471,129.5539033457249 272.183908045977,130.11152416356876 280.34482758620686,129.18215613382898 C288.50574712643675,128.2527881040892 296.6666666666667,128.43866171003717 304.82758620689657,125.8364312267658 C312.98850574712645,123.23420074349443 321.14942528735634,116.3568773234201 329.3103448275862,113.56877323420076 C337.4712643678161,110.78066914498143 345.632183908046,110.03717472118959 353.7931034482759,109.10780669144981 C361.95402298850576,108.17843866171003 370.11494252873564,107.99256505576207 378.2758620689655,107.99256505576207 C386.4367816091954,107.99256505576207 394.5977011494253,107.99256505576207 402.7586206896552,107.99256505576207 C410.91954022988506,107.99256505576207 419.08045977011494,107.99256505576207 427.2413793103448,107.99256505576207 C435.4022988505747,107.99256505576207 443.5632183908046,107.43494423791823 451.7241379310345,106.87732342007436 C459.88505747126436,106.31970260223049 468.04597701149424,105.20446096654275 476.2068965517241,104.64684014869889 C484.367816091954,104.08921933085502 492.5287356321839,103.90334572490706 500.6896551724138,103.53159851301115 C508.85057471264366,103.15985130111524 517.0114942528736,102.78810408921932 525.1724137931035,102.41635687732341 C533.3333333333334,102.0446096654275 541.4942528735633,101.67286245353161 549.6551724137931,101.3011152416357 C557.816091954023,100.92936802973979 565.9770114942529,100.74349442379183 574.1379310344828,100.18587360594796 C582.2988505747127,99.62825278810409 590.4597701149426,98.6988847583643 598.6206896551724,97.95539033457248 C606.7816091954023,97.21189591078067 614.9425287356322,96.2825278810409 623.1034482758621,95.72490706319704 C631.264367816092,95.16728624535317 639.4252873563219,94.9814126394052 647.5862068965517,94.6096654275093 C655.7471264367816,94.23791821561339 663.9080459770115,93.8661710037175 672.0689655172414,93.49442379182159 C680.2298850574713,93.12267657992568 688.3908045977012,93.30855018587361 696.551724137931,92.37918215613382 C704.7126436781609,91.44981412639403 712.8735632183908,89.0334572490706 721.0344827586207,87.91821561338287 C729.1954022988506,86.80297397769515 737.3563218390805,87.36059479553904 745.5172413793103,85.68773234200745 C753.6781609195402,84.01486988847586 761.8390804597701,80.4832713754647 770,77.88104089219331" fill="none" stroke="#6b63ff" stroke-width="2.5" class="data-line-0" />
  <g class="points">
    
    <circle cx="60" cy="348.8847583643123" r="4" fill="#6b63ff" class="data-point" style="animation-delay: 1.50s" />
    <circle cx="84.48275862068965" cy="263.0111524163569" r="4" fill="#6b63ff" class="data-point" style="animation-delay: 1.55s" />
    <circle cx="108.9655172413793" cy="225.09293680297398" r="4" fill="#6b63ff" class="data-point" style="animation-delay: 1.60s" />
    <circle cx="133.44827586206895" cy="180.48327137546468" r="4" fill="#6b63ff" class="data-point" style="animation-delay: 1.65s" />
    <circle cx="157.9310344827586" cy="153.7174721189591" r="4" fill="#6b63ff" class="data-point" style="animation-delay: 1.70s" />
    <circle cx="182.41379310344828" cy="149.25650557620816" r="4" fill="#6b63ff" class="data-point" style="animation-delay: 1.75s" />
    <circle cx="206.89655172413794" cy="143.68029739776952" r="4" fill="#6b63ff" class="data-point" style="animation-delay: 1.80s" />
    <circle cx="231.3793103448276" cy="140.3345724907063" r="4" fill="#6b63ff" class="data-point" style="animation-delay: 1.85s" />
    <circle cx="255.86206896551724" cy="131.41263940520446" r="4" fill="#6b63ff" class="data-point" style="animation-delay: 1.90s" />
    <circle cx="280.34482758620686" cy="129.18215613382898" r="4" fill="#6b63ff" class="data-point" style="animation-delay: 1.95s" />
    <circle cx="304.82758620689657" cy="125.8364312267658" r="4" fill="#6b63ff" class="data-point" style="animation-delay: 2.00s" />
    <circle cx="329.3103448275862" cy="113.56877323420076" r="4" fill="#6b63ff" class="data-point" style="animation-delay: 2.05s" />
    <circle cx="353.7931034482759" cy="109.10780669144981" r="4" fill="#6b63ff" class="data-point" style="animation-delay: 2.10s" />
    <circle cx="378.2758620689655" cy="107.99256505576207" r="4" fill="#6b63ff" class="data-point" style="animation-delay: 2.15s" />
    <circle cx="402.7586206896552" cy="107.99256505576207" r="4" fill="#6b63ff" class="data-point" style="animation-delay: 2.20s" />
    <circle cx="427.2413793103448" cy="107.99256505576207" r="4" fill="#6b63ff" class="data-point" style="animation-delay: 2.25s" />
    <circle cx="451.7241379310345" cy="106.87732342007436" r="4" fill="#6b63ff" class="data-point" style="animation-delay: 2.30s" />
    <circle cx="476.2068965517241" cy="104.64684014869889" r="4" fill="#6b63ff" class="data-point" style="animation-delay: 2.35s" />
    <circle cx="500.6896551724138" cy="103.53159851301115" r="4" fill="#6b63ff" class="data-point" style="animation-delay: 2.40s" />
    <circle cx="525.1724137931035" cy="102.41635687732341" r="4" fill="#6b63ff" class="data-point" style="animation-delay: 2.45s" />
    <circle cx="549.6551724137931" cy="101.3011152416357" r="4" fill="#6b63ff" class="data-point" style="animation-delay: 2.50s" />
    <circle cx="574.1379310344828" cy="100.18587360594796" r="4" fill="#6b63ff" class="data-point" style="animation-delay: 2.55s" />
    <circle cx="598.6206896551724" cy="97.95539033457248" r="4" fill="#6b63ff" class="data-point" style="animation-delay: 2.60s" />
    <circle cx="623.1034482758621" cy="95.72490706319704" r="4" fill="#6b63ff" class="data-point" style="animation-delay: 2.65s" />
    <circle cx="647.5862068965517" cy="94.6096654275093" r="4" fill="#6b63ff" class="data-point" style="animation-delay: 2.70s" />
    <circle cx="672.0689655172414" cy="93.49442379182159" r="4" fill="#6b63ff" class="data-point" style="animation-delay: 2.75s" />
    <circle cx="696.551724137931" cy="92.37918215613382" r="4" fill="#6b63ff" class="data-point" style="animation-delay: 2.80s" />
    <circle cx="721.0344827586207" cy="87.91821561338287" r="4" fill="#6b63ff" class="data-point" style="animation-delay: 2.85s" />
    <circle cx="745.5172413793103" cy="85.68773234200745" r="4" fill="#6b63ff" class="data-point" style="animation-delay: 2.90s" />
    <circle cx="770" cy="77.88104089219331" r="4" fill="#6b63ff" class="data-point" style="animation-delay: 2.95s" />
  </g>
</svg>