<svg xmlns="http://www.w3.org/2000/svg" viewBox="0 0 800 400" width="800" height="400">
  <style>
    @keyframes drawLine {
      to { stroke-dashoffset: 0; }
    }
    @keyframes fadeInPoint {
      from { opacity: 0; }
      to { opacity: 1; }
    }
    .data-line-0 {
      stroke-dasharray: 1165;
      stroke-dashoffset: 1165;
      animation: drawLine 2s ease-out forwards;
    }
    .data-point {
      opacity: 0;
      animation: fadeInPoint 0.5s ease-out forwards;
    }
    .chart-bg { fill: #fff; }
    .chart-text { fill: #24292e; }
    .chart-muted { fill: #6a737d; }
    .chart-grid { stroke: #eee; }
    .chart-axis { stroke: #6a737d; }
    @media (prefers-color-scheme: dark) {
      .chart-bg { fill: #0d1117; }
      .chart-text { fill: #e6edf3; }
      .chart-muted { fill: #8b949e; }
      .chart-grid { stroke: #21262d; }
      .chart-axis { stroke: #8b949e; }
    }
  </style>
  <rect width="800" height="400" class="chart-bg" />
  <text x="400" y="14" text-anchor="middle" class="chart-text" font-size="16" font-weight="bold" font-family="-apple-system, BlinkMacSystemFont, 'Segoe UI', Helvetica, Arial, sans-serif">dockur/umbrel Star History</text>
  
  <g class="grid">
    <line x1="60" y1="350" x2="770" y2="350" class="chart-grid" stroke-opacity="0.3" />
    <text x="778" y="354" text-anchor="start" class="chart-muted" font-size="11" font-family="-apple-system, BlinkMacSystemFont, 'Segoe UI', Helvetica, Arial, sans-serif">0</text>
    <line x1="60" y1="281.0344827586207" x2="770" y2="281.0344827586207" class="chart-grid" stroke-opacity="0.3" />
    <text x="778" y="285.0344827586207" text-anchor="start" class="chart-muted" font-size="11" font-family="-apple-system, BlinkMacSystemFont, 'Segoe UI', Helvetica, Arial, sans-serif">100</text>
    <line x1="60" y1="212.0689655172414" x2="770" y2="212.0689655172414" class="chart-grid" stroke-opacity="0.3" />
    <text x="778" y="216.0689655172414" text-anchor="start" class="chart-muted" font-size="11" font-family="-apple-system, BlinkMacSystemFont, 'Segoe UI', Helvetica, Arial, sans-serif">200</text>
    <line x1="60" y1="143.10344827586206" x2="770" y2="143.10344827586206" class="chart-grid" stroke-opacity="0.3" />
    <text x="778" y="147.10344827586206" text-anchor="start" class="chart-muted" font-size="11" font-family="-apple-system, BlinkMacSystemFont, 'Segoe UI', Helvetica, Arial, sans-serif">300</text>
    <line x1="60" y1="74.13793103448279" x2="770" y2="74.13793103448279" class="chart-grid" stroke-opacity="0.3" />
    <text x="778" y="78.13793103448279" text-anchor="start" class="chart-muted" font-size="11" font-family="-apple-system, BlinkMacSystemFont, 'Segoe UI', Helvetica, Arial, sans-serif">400</text>
  </g>
  <g class="milestones">
    
  </g>
  <g class="x-axis">
    <text x="60" y="370" text-anchor="middle" class="chart-muted" font-size="11" font-family="-apple-system, BlinkMacSystemFont, 'Segoe UI', Helvetica, Arial, sans-serif">2024</text>
    <text x="182.41379310344828" y="370" text-anchor="middle" class="chart-muted" font-size="11" font-family="-apple-system, BlinkMacSystemFont, 'Segoe UI', Helvetica, Arial, sans-serif">2025</text>
    <text x="574.1379310344828" y="370" text-anchor="middle" class="chart-muted" font-size="11" font-family="-apple-system, BlinkMacSystemFont, 'Segoe UI', Helvetica, Arial, sans-serif">2026</text>
  </g>
  <line x1="770" y1="50" x2="770" y2="350" class="chart-axis" stroke-width="1" />
  <line x1="60" y1="350" x2="770" y2="350" class="chart-axis" stroke-width="1" />
  <path d="M60,350 L60,349.3103448275862 C68.16091954022988,340.3448275862069 76.32183908045977,328.9655172413793 84.48275862068965,322.41379310344826 C92.64367816091954,315.8620689655172 100.80459770114942,317.35632183908046 108.9655172413793,310 C117.12643678160919,302.64367816091954 125.28735632183907,285.0574712643678 133.44827586206895,278.2758620689655 C141.60919540229884,271.49425287356325 149.77011494252872,272.7586206896552 157.9310344827586,269.3103448275862 C166.0919540229885,265.86206896551727 174.2528735632184,262.18390804597703 182.41379310344828,257.58620689655174 C190.57471264367817,252.98850574712645 198.73563218390805,245.86206896551724 206.89655172413794,241.72413793103448 C215.05747126436782,237.58620689655172 223.2183908045977,235.7471264367816 231.3793103448276,232.75862068965517 C239.54022988505747,229.77011494252875 247.70114942528735,226.78160919540232 255.86206896551724,223.79310344827587 C264.0229885057471,220.80459770114945 272.183908045977,217.81609195402297 280.34482758620686,214.82758620689654 C288.50574712643675,211.8390804597701 296.6666666666667,207.93103448275863 304.82758620689657,205.86206896551724 C312.98850574712645,203.79310344827587 321.14942528735634,204.94252873563215 329.3103448275862,202.41379310344826 C337.4712643678161,199.88505747126436 345.632183908046,193.9080459770115 353.7931034482759,190.6896551724138 C361.95402298850576,187.4712643678161 370.11494252873564,185.40229885057474 378.2758620689655,183.1034482758621 C386.4367816091954,180.80459770114945 394.5977011494253,179.42528735632186 402.7586206896552,176.89655172413794 C410.91954022988506,174.367816091954 419.08045977011494,170.91954022988506 427.2413793103448,167.93103448275863 C435.4022988505747,164.9425287356322 443.5632183908046,162.29885057471267 451.7241379310345,158.96551724137933 C459.88505747126436,155.632183908046 468.04597701149424,151.37931034482762 476.2068965517241,147.93103448275863 C484.367816091954,144.48275862068965 492.5287356321839,140.91954022988506 500.6896551724138,138.27586206896552 C508.85057471264366,135.632183908046 517.0114942528736,134.48275862068965 525.1724137931035,132.06896551724137 C533.3333333333334,129.65517241379308 541.4942528735633,126.20689655172414 549.6551724137931,123.79310344827587 C557.816091954023,121.3793103448276 565.9770114942529,119.31034482758619 574.1379310344828,117.58620689655172 C582.2988505747127,115.86206896551724 590.4597701149426,114.5977011494253 598.6206896551724,113.44827586206898 C606.7816091954023,112.29885057471266 614.9425287356322,111.95402298850573 623.1034482758621,110.68965517241378 C631.264367816092,109.42528735632183 639.4252873563219,107.93103448275865 647.5862068965517,105.86206896551727 C655.7471264367816,103.79310344827589 663.9080459770115,99.73884161624805 672.0689655172414,98.27586206896552 C680.2298850574713,96.812882521683 688.3908045977012,97.66987609900664 696.551724137931,96.20689655172413 C704.7126436781609,94.74391700444161 712.8735632183908,90.57471264367818 721.0344827586207,88.62068965517244 C729.1954022988506,86.6666666666667 737.3563218390805,86.32183908045977 745.5172413793103,84.48275862068965 C753.6781609195402,82.64367816091954 761.8390804597701,79.88505747126437 770,77.58620689655174 L770,350 L60,350 Z" fill="#6b63ff" fill-opacity="0.1" />
  <path d="M60,350 L60,349.3103448275862 C68.16091954022988,340.3448275862069 76.32183908045977,328.9655172413793 84.48275862068965,322.41379310344826 C92.64367816091954,315.8620689655172 100.80459770114942,317.35632183908046 108.9655172413793,310 C117.12643678160919,302.64367816091954 125.28735632183907,285.0574712643678 133.44827586206895,278.2758620689655 C141.60919540229884,271.49425287356325 149.77011494252872,272.7586206896552 157.9310344827586,269.3103448275862 C166.0919540229885,265.86206896551727 174.2528735632184,262.18390804597703 182.41379310344828,257.58620689655174 C190.57471264367817,252.98850574712645 198.73563218390805,245.86206896551724 206.89655172413794,241.72413793103448 C215.05747126436782,237.58620689655172 223.2183908045977,235.7471264367816 231.3793103448276,232.75862068965517 C239.54022988505747,229.77011494252875 247.70114942528735,226.78160919540232 255.86206896551724,223.79310344827587 C264.0229885057471,220.80459770114945 272.183908045977,217.81609195402297 280.34482758620686,214.82758620689654 C288.50574712643675,211.8390804597701 296.6666666666667,207.93103448275863 304.82758620689657,205.86206896551724 C312.98850574712645,203.79310344827587 321.14942528735634,204.94252873563215 329.3103448275862,202.41379310344826 C337.4712643678161,199.88505747126436 345.632183908046,193.9080459770115 353.7931034482759,190.6896551724138 C361.95402298850576,187.4712643678161 370.11494252873564,185.40229885057474 378.2758620689655,183.1034482758621 C386.4367816091954,180.80459770114945 394.5977011494253,179.42528735632186 402.7586206896552,176.89655172413794 C410.91954022988506,174.367816091954 419.08045977011494,170.91954022988506 427.2413793103448,167.93103448275863 C435.4022988505747,164.9425287356322 443.5632183908046,162.29885057471267 451.7241379310345,158.96551724137933 C459.88505747126436,155.632183908046 468.04597701149424,151.37931034482762 476.2068965517241,147.93103448275863 C484.367816091954,144.48275862068965 492.5287356321839,140.91954022988506 500.6896551724138,138.27586206896552 C508.85057471264366,135.632183908046 517.0114942528736,134.48275862068965 525.1724137931035,132.06896551724137 C533.3333333333334,129.65517241379308 541.4942528735633,126.20689655172414 549.6551724137931,123.79310344827587 C557.816091954023,121.3793103448276 565.9770114942529,119.31034482758619 574.1379310344828,117.58620689655172 C582.2988505747127,115.86206896551724 590.4597701149426,114.5977011494253 598.6206896551724,113.44827586206898 C606.7816091954023,112.29885057471266 614.9425287356322,111.95402298850573 623.1034482758621,110.68965517241378 C631.264367816092,109.42528735632183 639.4252873563219,107.93103448275865 647.5862068965517,105.86206896551727 C655.7471264367816,103.79310344827589 663.9080459770115,99.73884161624805 672.0689655172414,98.27586206896552 C680.2298850574713,96.812882521683 688.3908045977012,97.66987609900664 696.551724137931,96.20689655172413 C704.7126436781609,94.74391700444161 712.8735632183908,90.57471264367818 721.0344827586207,88.62068965517244 C729.1954022988506,86.6666666666667 737.3563218390805,86.32183908045977 745.5172413793103,84.48275862068965 C753.6781609195402,82.64367816091954 761.8390804597701,79.88505747126437 770,77.58620689655174" fill="none" stroke="#6b63ff" stroke-width="2.5" class="data-line-0" />
  <g class="points">
    
    <circle cx="60" cy="349.3103448275862" r="4" fill="#6b63ff" class="data-point" style="animation-delay: 1.50s" />
    <circle cx="84.48275862068965" cy="322.41379310344826" r="4" fill="#6b63ff" class="data-point" style="animation-delay: 1.55s" />
    <circle cx="108.9655172413793" cy="310" r="4" fill="#6b63ff" class="data-point" style="animation-delay: 1.60s" />
    <circle cx="133.44827586206895" cy="278.2758620689655" r="4" fill="#6b63ff" class="data-point" style="animation-delay: 1.65s" />
    <circle cx="157.9310344827586" cy="269.3103448275862" r="4" fill="#6b63ff" class="data-point" style="animation-delay: 1.70s" />
    <circle cx="182.41379310344828" cy="257.58620689655174" r="4" fill="#6b63ff" class="data-point" style="animation-delay: 1.75s" />
    <circle cx="206.89655172413794" cy="241.72413793103448" r="4" fill="#6b63ff" class="data-point" style="animation-delay: 1.80s" />
    <circle cx="231.3793103448276" cy="232.75862068965517" r="4" fill="#6b63ff" class="data-point" style="animation-delay: 1.85s" />
    <circle cx="255.86206896551724" cy="223.79310344827587" r="4" fill="#6b63ff" class="data-point" style="animation-delay: 1.90s" />
    <circle cx="280.34482758620686" cy="214.82758620689654" r="4" fill="#6b63ff" class="data-point" style="animation-delay: 1.95s" />
    <circle cx="304.82758620689657" cy="205.86206896551724" r="4" fill="#6b63ff" class="data-point" style="animation-delay: 2.00s" />
    <circle cx="329.3103448275862" cy="202.41379310344826" r="4" fill="#6b63ff" class="data-point" style="animation-delay: 2.05s" />
    <circle cx="353.7931034482759" cy="190.6896551724138" r="4" fill="#6b63ff" class="data-point" style="animation-delay: 2.10s" />
    <circle cx="378.2758620689655" cy="183.1034482758621" r="4" fill="#6b63ff" class="data-point" style="animation-delay: 2.15s" />
    <circle cx="402.7586206896552" cy="176.89655172413794" r="4" fill="#6b63ff" class="data-point" style="animation-delay: 2.20s" />
    <circle cx="427.2413793103448" cy="167.93103448275863" r="4" fill="#6b63ff" class="data-point" style="animation-delay: 2.25s" />
    <circle cx="451.7241379310345" cy="158.96551724137933" r="4" fill="#6b63ff" class="data-point" style="animation-delay: 2.30s" />
    <circle cx="476.2068965517241" cy="147.93103448275863" r="4" fill="#6b63ff" class="data-point" style="animation-delay: 2.35s" />
    <circle cx="500.6896551724138" cy="138.27586206896552" r="4" fill="#6b63ff" class="data-point" style="animation-delay: 2.40s" />
    <circle cx="525.1724137931035" cy="132.06896551724137" r="4" fill="#6b63ff" class="data-point" style="animation-delay: 2.45s" />
    <circle cx="549.6551724137931" cy="123.79310344827587" r="4" fill="#6b63ff" class="data-point" style="animation-delay: 2.50s" />
    <circle cx="574.1379310344828" cy="117.58620689655172" r="4" fill="#6b63ff" class="data-point" style="animation-delay: 2.55s" />
    <circle cx="598.6206896551724" cy="113.44827586206898" r="4" fill="#6b63ff" class="data-point" style="animation-delay: 2.60s" />
    <circle cx="623.1034482758621" cy="110.68965517241378" r="4" fill="#6b63ff" class="data-point" style="animation-delay: 2.65s" />
    <circle cx="647.5862068965517" cy="105.86206896551727" r="4" fill="#6b63ff" class="data-point" style="animation-delay: 2.70s" />
    <circle cx="672.0689655172414" cy="98.27586206896552" r="4" fill="#6b63ff" class="data-point" style="animation-delay: 2.75s" />
    <circle cx="696.551724137931" cy="96.20689655172413" r="4" fill="#6b63ff" class="data-point" style="animation-delay: 2.80s" />
    <circle cx="721.0344827586207" cy="88.62068965517244" r="4" fill="#6b63ff" class="data-point" style="animation-delay: 2.85s" />
    <circle cx="745.5172413793103" cy="84.48275862068965" r="4" fill="#6b63ff" class="data-point" style="animation-delay: 2.90s" />
    <circle cx="770" cy="77.58620689655174" r="4" fill="#6b63ff" class="data-point" style="animation-delay: 2.95s" />
  </g>
</svg>