<svg xmlns="http://www.w3.org/2000/svg" viewBox="0 0 800 400" width="800" height="400">
  <style>
    @keyframes drawLine {
      to { stroke-dashoffset: 0; }
    }
    @keyframes fadeInPoint {
      from { opacity: 0; }
      to { opacity: 1; }
    }
    .data-line-0 {
      stroke-dasharray: 1164;
      stroke-dashoffset: 1164;
      animation: drawLine 2s ease-out forwards;
    }
    .data-point {
      opacity: 0;
      animation: fadeInPoint 0.5s ease-out forwards;
    }
    .chart-bg { fill: #fff; }
    .chart-text { fill: #24292e; }
    .chart-muted { fill: #6a737d; }
    .chart-grid { stroke: #eee; }
    .chart-axis { stroke: #6a737d; }
    @media (prefers-color-scheme: dark) {
      .chart-bg { fill: #0d1117; }
      .chart-text { fill: #e6edf3; }
      .chart-muted { fill: #8b949e; }
      .chart-grid { stroke: #21262d; }
      .chart-axis { stroke: #8b949e; }
    }
  </style>
  <rect width="800" height="400" class="chart-bg" />
  <text x="400" y="34" text-anchor="middle" class="chart-text" font-size="16" font-weight="bold" font-family="-apple-system, BlinkMacSystemFont, 'Segoe UI', Helvetica, Arial, sans-serif">dockur/tor Star History</text>
  
  <g class="grid">
    <line x1="60" y1="350" x2="770" y2="350" class="chart-grid" stroke-opacity="0.3" />
    <text x="778" y="354" text-anchor="start" class="chart-muted" font-size="11" font-family="-apple-system, BlinkMacSystemFont, 'Segoe UI', Helvetica, Arial, sans-serif">0</text>
    <line x1="60" y1="283.33333333333337" x2="770" y2="283.33333333333337" class="chart-grid" stroke-opacity="0.3" />
    <text x="778" y="287.33333333333337" text-anchor="start" class="chart-muted" font-size="11" font-family="-apple-system, BlinkMacSystemFont, 'Segoe UI', Helvetica, Arial, sans-serif">50</text>
    <line x1="60" y1="216.66666666666669" x2="770" y2="216.66666666666669" class="chart-grid" stroke-opacity="0.3" />
    <text x="778" y="220.66666666666669" text-anchor="start" class="chart-muted" font-size="11" font-family="-apple-system, BlinkMacSystemFont, 'Segoe UI', Helvetica, Arial, sans-serif">100</text>
    <line x1="60" y1="150" x2="770" y2="150" class="chart-grid" stroke-opacity="0.3" />
    <text x="778" y="154" text-anchor="start" class="chart-muted" font-size="11" font-family="-apple-system, BlinkMacSystemFont, 'Segoe UI', Helvetica, Arial, sans-serif">150</text>
    <line x1="60" y1="83.33333333333337" x2="770" y2="83.33333333333337" class="chart-grid" stroke-opacity="0.3" />
    <text x="778" y="87.33333333333337" text-anchor="start" class="chart-muted" font-size="11" font-family="-apple-system, BlinkMacSystemFont, 'Segoe UI', Helvetica, Arial, sans-serif">200</text>
    <line x1="60" y1="16.66666666666663" x2="770" y2="16.66666666666663" class="chart-grid" stroke-opacity="0.3" />
    <text x="778" y="20.66666666666663" text-anchor="start" class="chart-muted" font-size="11" font-family="-apple-system, BlinkMacSystemFont, 'Segoe UI', Helvetica, Arial, sans-serif">250</text>
  </g>
  <g class="milestones">
    
  </g>
  <g class="x-axis">
    <text x="60" y="370" text-anchor="middle" class="chart-muted" font-size="11" font-family="-apple-system, BlinkMacSystemFont, 'Segoe UI', Helvetica, Arial, sans-serif">2023</text>
    <text x="84.48275862068965" y="370" text-anchor="middle" class="chart-muted" font-size="11" font-family="-apple-system, BlinkMacSystemFont, 'Segoe UI', Helvetica, Arial, sans-serif">2024</text>
    <text x="378.2758620689655" y="370" text-anchor="middle" class="chart-muted" font-size="11" font-family="-apple-system, BlinkMacSystemFont, 'Segoe UI', Helvetica, Arial, sans-serif">2025</text>
    <text x="647.5862068965517" y="370" text-anchor="middle" class="chart-muted" font-size="11" font-family="-apple-system, BlinkMacSystemFont, 'Segoe UI', Helvetica, Arial, sans-serif">2026</text>
  </g>
  <line x1="770" y1="50" x2="770" y2="350" class="chart-axis" stroke-width="1" />
  <line x1="60" y1="350" x2="770" y2="350" class="chart-axis" stroke-width="1" />
  <path d="M60,350 L60,348.6666666666667 C63.264367816091955,348.31111111111113 77.95402298850574,346.35555555555555 84.48275862068965,346 C91.01149425287356,346 102.43678160919539,346 108.9655172413793,346 C115.49425287356321,345.46666666666664 126.91954022988504,343.6 133.44827586206895,342 C139.97701149425285,340.4 151.40229885057468,336.1333333333333 157.9310344827586,334 C164.45977011494253,331.8666666666667 175.88505747126436,327.77777777777777 182.41379310344828,326 C188.9425287356322,324.22222222222223 200.36781609195404,321.73333333333335 206.89655172413794,320.6666666666667 C213.42528735632183,319.6 224.8505747126437,318.7111111111111 231.3793103448276,318 C237.90804597701148,317.2888888888889 249.33333333333334,316.4 255.86206896551724,315.3333333333333 C262.39080459770116,314.26666666666665 273.81609195402297,311.06666666666666 280.34482758620686,310 C286.87356321839076,308.93333333333334 298.2988505747127,309.64444444444445 304.82758620689657,307.3333333333333 C311.35632183908046,305.0222222222222 322.7816091954023,296.0444444444445 329.3103448275862,292.6666666666667 C335.8390804597701,289.2888888888889 347.264367816092,284.4888888888889 353.7931034482759,282 C360.32183908045977,279.5111111111111 371.7471264367816,276.84444444444443 378.2758620689655,274 C384.8045977011494,271.15555555555557 396.2298850574713,262.9777777777778 402.7586206896552,260.6666666666667 C409.28735632183907,258.35555555555555 420.71264367816093,258.9777777777778 427.2413793103448,256.6666666666667 C433.7701149425287,254.35555555555558 445.1954022988506,246.35555555555553 451.7241379310345,243.33333333333331 C458.2528735632184,240.3111111111111 469.67816091954023,236.3111111111111 476.2068965517241,234 C482.735632183908,231.6888888888889 494.1609195402299,229.37777777777777 500.6896551724138,226 C507.2183908045977,222.62222222222223 518.6436781609195,213.82222222222225 525.1724137931035,208.66666666666669 C531.7011494252874,203.51111111111112 543.1264367816092,193.2 549.6551724137931,187.33333333333331 C556.1839080459771,181.46666666666664 567.6091954022988,169.11111111111111 574.1379310344828,164.66666666666669 C580.6666666666667,160.22222222222226 592.0919540229885,156.84444444444443 598.6206896551724,154 C605.1494252873564,151.15555555555557 616.5747126436781,145.46666666666667 623.1034482758621,143.33333333333334 C629.632183908046,141.20000000000002 641.0574712643678,140.84444444444443 647.5862068965517,138 C654.1149425287357,135.15555555555557 665.5402298850574,125.91111111111111 672.0689655172414,122 C678.5977011494253,118.08888888888889 690.0229885057471,112.22222222222224 696.551724137931,108.66666666666669 C703.080459770115,105.11111111111113 714.5057471264367,97.99999999999999 721.0344827586207,95.33333333333331 C727.5632183908046,92.66666666666664 738.9885057471264,90.97777777777779 745.5172413793103,88.66666666666669 C752.0459770114943,86.35555555555558 766.735632183908,79.42222222222223 770,78 L770,350 L60,350 Z" fill="#6b63ff" fill-opacity="0.1" />
  <path d="M60,350 L60,348.6666666666667 C63.264367816091955,348.31111111111113 77.95402298850574,346.35555555555555 84.48275862068965,346 C91.01149425287356,346 102.43678160919539,346 108.9655172413793,346 C115.49425287356321,345.46666666666664 126.91954022988504,343.6 133.44827586206895,342 C139.97701149425285,340.4 151.40229885057468,336.1333333333333 157.9310344827586,334 C164.45977011494253,331.8666666666667 175.88505747126436,327.77777777777777 182.41379310344828,326 C188.9425287356322,324.22222222222223 200.36781609195404,321.73333333333335 206.89655172413794,320.6666666666667 C213.42528735632183,319.6 224.8505747126437,318.7111111111111 231.3793103448276,318 C237.90804597701148,317.2888888888889 249.33333333333334,316.4 255.86206896551724,315.3333333333333 C262.39080459770116,314.26666666666665 273.81609195402297,311.06666666666666 280.34482758620686,310 C286.87356321839076,308.93333333333334 298.2988505747127,309.64444444444445 304.82758620689657,307.3333333333333 C311.35632183908046,305.0222222222222 322.7816091954023,296.0444444444445 329.3103448275862,292.6666666666667 C335.8390804597701,289.2888888888889 347.264367816092,284.4888888888889 353.7931034482759,282 C360.32183908045977,279.5111111111111 371.7471264367816,276.84444444444443 378.2758620689655,274 C384.8045977011494,271.15555555555557 396.2298850574713,262.9777777777778 402.7586206896552,260.6666666666667 C409.28735632183907,258.35555555555555 420.71264367816093,258.9777777777778 427.2413793103448,256.6666666666667 C433.7701149425287,254.35555555555558 445.1954022988506,246.35555555555553 451.7241379310345,243.33333333333331 C458.2528735632184,240.3111111111111 469.67816091954023,236.3111111111111 476.2068965517241,234 C482.735632183908,231.6888888888889 494.1609195402299,229.37777777777777 500.6896551724138,226 C507.2183908045977,222.62222222222223 518.6436781609195,213.82222222222225 525.1724137931035,208.66666666666669 C531.7011494252874,203.51111111111112 543.1264367816092,193.2 549.6551724137931,187.33333333333331 C556.1839080459771,181.46666666666664 567.6091954022988,169.11111111111111 574.1379310344828,164.66666666666669 C580.6666666666667,160.22222222222226 592.0919540229885,156.84444444444443 598.6206896551724,154 C605.1494252873564,151.15555555555557 616.5747126436781,145.46666666666667 623.1034482758621,143.33333333333334 C629.632183908046,141.20000000000002 641.0574712643678,140.84444444444443 647.5862068965517,138 C654.1149425287357,135.15555555555557 665.5402298850574,125.91111111111111 672.0689655172414,122 C678.5977011494253,118.08888888888889 690.0229885057471,112.22222222222224 696.551724137931,108.66666666666669 C703.080459770115,105.11111111111113 714.5057471264367,97.99999999999999 721.0344827586207,95.33333333333331 C727.5632183908046,92.66666666666664 738.9885057471264,90.97777777777779 745.5172413793103,88.66666666666669 C752.0459770114943,86.35555555555558 766.735632183908,79.42222222222223 770,78" fill="none" stroke="#6b63ff" stroke-width="2.5" class="data-line-0" />
  <g class="points">
    
    <circle cx="60" cy="348.6666666666667" r="4" fill="#6b63ff" class="data-point" style="animation-delay: 1.50s" />
    <circle cx="84.48275862068965" cy="346" r="4" fill="#6b63ff" class="data-point" style="animation-delay: 1.55s" />
    <circle cx="108.9655172413793" cy="346" r="4" fill="#6b63ff" class="data-point" style="animation-delay: 1.60s" />
    <circle cx="133.44827586206895" cy="342" r="4" fill="#6b63ff" class="data-point" style="animation-delay: 1.65s" />
    <circle cx="157.9310344827586" cy="334" r="4" fill="#6b63ff" class="data-point" style="animation-delay: 1.70s" />
    <circle cx="182.41379310344828" cy="326" r="4" fill="#6b63ff" class="data-point" style="animation-delay: 1.75s" />
    <circle cx="206.89655172413794" cy="320.6666666666667" r="4" fill="#6b63ff" class="data-point" style="animation-delay: 1.80s" />
    <circle cx="231.3793103448276" cy="318" r="4" fill="#6b63ff" class="data-point" style="animation-delay: 1.85s" />
    <circle cx="255.86206896551724" cy="315.3333333333333" r="4" fill="#6b63ff" class="data-point" style="animation-delay: 1.90s" />
    <circle cx="280.34482758620686" cy="310" r="4" fill="#6b63ff" class="data-point" style="animation-delay: 1.95s" />
    <circle cx="304.82758620689657" cy="307.3333333333333" r="4" fill="#6b63ff" class="data-point" style="animation-delay: 2.00s" />
    <circle cx="329.3103448275862" cy="292.6666666666667" r="4" fill="#6b63ff" class="data-point" style="animation-delay: 2.05s" />
    <circle cx="353.7931034482759" cy="282" r="4" fill="#6b63ff" class="data-point" style="animation-delay: 2.10s" />
    <circle cx="378.2758620689655" cy="274" r="4" fill="#6b63ff" class="data-point" style="animation-delay: 2.15s" />
    <circle cx="402.7586206896552" cy="260.6666666666667" r="4" fill="#6b63ff" class="data-point" style="animation-delay: 2.20s" />
    <circle cx="427.2413793103448" cy="256.6666666666667" r="4" fill="#6b63ff" class="data-point" style="animation-delay: 2.25s" />
    <circle cx="451.7241379310345" cy="243.33333333333331" r="4" fill="#6b63ff" class="data-point" style="animation-delay: 2.30s" />
    <circle cx="476.2068965517241" cy="234" r="4" fill="#6b63ff" class="data-point" style="animation-delay: 2.35s" />
    <circle cx="500.6896551724138" cy="226" r="4" fill="#6b63ff" class="data-point" style="animation-delay: 2.40s" />
    <circle cx="525.1724137931035" cy="208.66666666666669" r="4" fill="#6b63ff" class="data-point" style="animation-delay: 2.45s" />
    <circle cx="549.6551724137931" cy="187.33333333333331" r="4" fill="#6b63ff" class="data-point" style="animation-delay: 2.50s" />
    <circle cx="574.1379310344828" cy="164.66666666666669" r="4" fill="#6b63ff" class="data-point" style="animation-delay: 2.55s" />
    <circle cx="598.6206896551724" cy="154" r="4" fill="#6b63ff" class="data-point" style="animation-delay: 2.60s" />
    <circle cx="623.1034482758621" cy="143.33333333333334" r="4" fill="#6b63ff" class="data-point" style="animation-delay: 2.65s" />
    <circle cx="647.5862068965517" cy="138" r="4" fill="#6b63ff" class="data-point" style="animation-delay: 2.70s" />
    <circle cx="672.0689655172414" cy="122" r="4" fill="#6b63ff" class="data-point" style="animation-delay: 2.75s" />
    <circle cx="696.551724137931" cy="108.66666666666669" r="4" fill="#6b63ff" class="data-point" style="animation-delay: 2.80s" />
    <circle cx="721.0344827586207" cy="95.33333333333331" r="4" fill="#6b63ff" class="data-point" style="animation-delay: 2.85s" />
    <circle cx="745.5172413793103" cy="88.66666666666669" r="4" fill="#6b63ff" class="data-point" style="animation-delay: 2.90s" />
    <circle cx="770" cy="78" r="4" fill="#6b63ff" class="data-point" style="animation-delay: 2.95s" />
  </g>
</svg>