<svg xmlns="http://www.w3.org/2000/svg" viewBox="0 0 800 400" width="800" height="400">
  <style>
    @keyframes drawLine {
      to { stroke-dashoffset: 0; }
    }
    @keyframes fadeInPoint {
      from { opacity: 0; }
      to { opacity: 1; }
    }
    .data-line-0 {
      stroke-dasharray: 1271;
      stroke-dashoffset: 1271;
      animation: drawLine 2s ease-out forwards;
    }
    .data-point {
      opacity: 0;
      animation: fadeInPoint 0.5s ease-out forwards;
    }
    .chart-bg { fill: #fff; }
    .chart-text { fill: #24292e; }
    .chart-muted { fill: #6a737d; }
    .chart-grid { stroke: #eee; }
    .chart-axis { stroke: #6a737d; }
    @media (prefers-color-scheme: dark) {
      .chart-bg { fill: #0d1117; }
      .chart-text { fill: #e6edf3; }
      .chart-muted { fill: #8b949e; }
      .chart-grid { stroke: #21262d; }
      .chart-axis { stroke: #8b949e; }
    }
  </style>
  <rect width="800" height="400" class="chart-bg" />
  <text x="400" y="14" text-anchor="middle" class="chart-text" font-size="16" font-weight="bold" font-family="-apple-system, BlinkMacSystemFont, 'Segoe UI', Helvetica, Arial, sans-serif">dockur/proxmox Star History</text>
  
  <g class="grid">
    <line x1="60" y1="350" x2="770" y2="350" class="chart-grid" stroke-opacity="0.3" />
    <text x="778" y="354" text-anchor="start" class="chart-muted" font-size="11" font-family="-apple-system, BlinkMacSystemFont, 'Segoe UI', Helvetica, Arial, sans-serif">0</text>
    <line x1="60" y1="290.7114624505929" x2="770" y2="290.7114624505929" class="chart-grid" stroke-opacity="0.3" />
    <text x="778" y="294.7114624505929" text-anchor="start" class="chart-muted" font-size="11" font-family="-apple-system, BlinkMacSystemFont, 'Segoe UI', Helvetica, Arial, sans-serif">50</text>
    <line x1="60" y1="231.42292490118575" x2="770" y2="231.42292490118575" class="chart-grid" stroke-opacity="0.3" />
    <text x="778" y="235.42292490118575" text-anchor="start" class="chart-muted" font-size="11" font-family="-apple-system, BlinkMacSystemFont, 'Segoe UI', Helvetica, Arial, sans-serif">100</text>
    <line x1="60" y1="172.13438735177866" x2="770" y2="172.13438735177866" class="chart-grid" stroke-opacity="0.3" />
    <text x="778" y="176.13438735177866" text-anchor="start" class="chart-muted" font-size="11" font-family="-apple-system, BlinkMacSystemFont, 'Segoe UI', Helvetica, Arial, sans-serif">150</text>
    <line x1="60" y1="112.84584980237153" x2="770" y2="112.84584980237153" class="chart-grid" stroke-opacity="0.3" />
    <text x="778" y="116.84584980237153" text-anchor="start" class="chart-muted" font-size="11" font-family="-apple-system, BlinkMacSystemFont, 'Segoe UI', Helvetica, Arial, sans-serif">200</text>
    <line x1="60" y1="53.55731225296444" x2="770" y2="53.55731225296444" class="chart-grid" stroke-opacity="0.3" />
    <text x="778" y="57.55731225296444" text-anchor="start" class="chart-muted" font-size="11" font-family="-apple-system, BlinkMacSystemFont, 'Segoe UI', Helvetica, Arial, sans-serif">250</text>
  </g>
  <g class="milestones">
    
  </g>
  <g class="x-axis">
    <text x="60" y="370" text-anchor="middle" class="chart-muted" font-size="11" font-family="-apple-system, BlinkMacSystemFont, 'Segoe UI', Helvetica, Arial, sans-serif">May 27</text>
    <text x="133.44827586206895" y="370" text-anchor="middle" class="chart-muted" font-size="11" font-family="-apple-system, BlinkMacSystemFont, 'Segoe UI', Helvetica, Arial, sans-serif">May 31</text>
    <text x="206.89655172413794" y="370" text-anchor="middle" class="chart-muted" font-size="11" font-family="-apple-system, BlinkMacSystemFont, 'Segoe UI', Helvetica, Arial, sans-serif">Jun 3</text>
    <text x="280.34482758620686" y="370" text-anchor="middle" class="chart-muted" font-size="11" font-family="-apple-system, BlinkMacSystemFont, 'Segoe UI', Helvetica, Arial, sans-serif">Jun 6</text>
    <text x="353.7931034482759" y="370" text-anchor="middle" class="chart-muted" font-size="11" font-family="-apple-system, BlinkMacSystemFont, 'Segoe UI', Helvetica, Arial, sans-serif">Jun 9</text>
    <text x="427.2413793103448" y="370" text-anchor="middle" class="chart-muted" font-size="11" font-family="-apple-system, BlinkMacSystemFont, 'Segoe UI', Helvetica, Arial, sans-serif">Jun 12</text>
    <text x="500.6896551724138" y="370" text-anchor="middle" class="chart-muted" font-size="11" font-family="-apple-system, BlinkMacSystemFont, 'Segoe UI', Helvetica, Arial, sans-serif">Jun 15</text>
    <text x="574.1379310344828" y="370" text-anchor="middle" class="chart-muted" font-size="11" font-family="-apple-system, BlinkMacSystemFont, 'Segoe UI', Helvetica, Arial, sans-serif">Jun 18</text>
    <text x="647.5862068965517" y="370" text-anchor="middle" class="chart-muted" font-size="11" font-family="-apple-system, BlinkMacSystemFont, 'Segoe UI', Helvetica, Arial, sans-serif">Jun 21</text>
    <text x="721.0344827586207" y="370" text-anchor="middle" class="chart-muted" font-size="11" font-family="-apple-system, BlinkMacSystemFont, 'Segoe UI', Helvetica, Arial, sans-serif">Jun 25</text>
    <text x="770" y="370" text-anchor="middle" class="chart-muted" font-size="11" font-family="-apple-system, BlinkMacSystemFont, 'Segoe UI', Helvetica, Arial, sans-serif">Jun 27</text>
  </g>
  <line x1="770" y1="50" x2="770" y2="350" class="chart-axis" stroke-width="1" />
  <line x1="60" y1="350" x2="770" y2="350" class="chart-axis" stroke-width="1" />
  <path d="M60,350 L60,348.8142292490119 C63.264367816091955,337.5889328063241 77.95402298850574,281.85770750988144 84.48275862068965,264.62450592885375 C91.01149425287356,247.39130434782606 102.43678160919539,230.1581027667984 108.9655172413793,219.56521739130434 C115.49425287356321,208.97233201581028 126.91954022988504,194.34782608695653 133.44827586206895,185.17786561264822 C139.97701149425285,176.0079051383399 151.40229885057468,157.11462450592882 157.9310344827586,150.79051383399207 C164.45977011494253,144.46640316205531 175.88505747126436,139.64426877470356 182.41379310344828,137.74703557312253 C188.9425287356322,136.56126482213438 200.36781609195404,137.50988142292488 206.89655172413794,136.56126482213438 C213.42528735632183,135.61264822134387 224.8505747126437,131.73913043478262 231.3793103448276,130.6324110671937 C237.90804597701148,129.52569169960475 249.33333333333334,129.68379446640319 255.86206896551724,128.2608695652174 C262.39080459770116,126.83794466403162 273.81609195402297,121.54150197628456 280.34482758620686,119.96047430830038 C286.87356321839076,118.37944664031619 298.2988505747127,117.19367588932809 304.82758620689657,116.403162055336 C311.35632183908046,115.6126482213439 322.7816091954023,114.82213438735178 329.3103448275862,114.03162055335969 C335.8390804597701,113.2411067193676 347.264367816092,112.68774703557311 353.7931034482759,110.47430830039525 C360.32183908045977,108.26086956521739 371.7471264367816,99.64426877470355 378.2758620689655,97.43083003952569 C384.8045977011494,95.21739130434783 396.2298850574713,94.50592885375492 402.7586206896552,93.87351778656125 C409.28735632183907,93.24110671936758 420.71264367816093,92.84584980237155 427.2413793103448,92.68774703557312 C433.7701149425287,92.68774703557312 445.1954022988506,92.68774703557312 451.7241379310345,92.68774703557312 C458.2528735632184,92.68774703557312 469.67816091954023,92.68774703557312 476.2068965517241,92.68774703557312 C482.735632183908,92.68774703557312 494.1609195402299,92.68774703557312 500.6896551724138,92.68774703557312 C507.2183908045977,92.5296442687747 518.6436781609195,92.13438735177867 525.1724137931035,91.501976284585 C531.7011494252874,90.86956521739133 543.1264367816092,88.41897233201583 549.6551724137931,87.94466403162056 C556.1839080459771,87.94466403162056 567.6091954022988,87.94466403162056 574.1379310344828,87.94466403162056 C580.6666666666667,87.78656126482214 592.0919540229885,87.07509881422922 598.6206896551724,86.75889328063238 C605.1494252873564,86.44268774703554 616.5747126436781,85.88932806324108 623.1034482758621,85.57312252964425 C629.632183908046,85.25691699604742 641.0574712643678,84.54545454545455 647.5862068965517,84.38735177865613 C654.1149425287357,84.38735177865613 665.5402298850574,84.38735177865613 672.0689655172414,84.38735177865613 C678.5977011494253,84.0711462450593 690.0229885057471,82.64822134387354 696.551724137931,82.01581027667987 C703.080459770115,81.3833992094862 714.5057471264367,80.11857707509883 721.0344827586207,79.64426877470356 C727.5632183908046,79.1699604743083 738.9885057471264,78.77470355731226 745.5172413793103,78.45849802371544 C752.0459770114943,78.1422924901186 766.735632183908,77.43083003952573 770,77.27272727272731 L770,350 L60,350 Z" fill="#6b63ff" fill-opacity="0.1" />
  <path d="M60,350 L60,348.8142292490119 C63.264367816091955,337.5889328063241 77.95402298850574,281.85770750988144 84.48275862068965,264.62450592885375 C91.01149425287356,247.39130434782606 102.43678160919539,230.1581027667984 108.9655172413793,219.56521739130434 C115.49425287356321,208.97233201581028 126.91954022988504,194.34782608695653 133.44827586206895,185.17786561264822 C139.97701149425285,176.0079051383399 151.40229885057468,157.11462450592882 157.9310344827586,150.79051383399207 C164.45977011494253,144.46640316205531 175.88505747126436,139.64426877470356 182.41379310344828,137.74703557312253 C188.9425287356322,136.56126482213438 200.36781609195404,137.50988142292488 206.89655172413794,136.56126482213438 C213.42528735632183,135.61264822134387 224.8505747126437,131.73913043478262 231.3793103448276,130.6324110671937 C237.90804597701148,129.52569169960475 249.33333333333334,129.68379446640319 255.86206896551724,128.2608695652174 C262.39080459770116,126.83794466403162 273.81609195402297,121.54150197628456 280.34482758620686,119.96047430830038 C286.87356321839076,118.37944664031619 298.2988505747127,117.19367588932809 304.82758620689657,116.403162055336 C311.35632183908046,115.6126482213439 322.7816091954023,114.82213438735178 329.3103448275862,114.03162055335969 C335.8390804597701,113.2411067193676 347.264367816092,112.68774703557311 353.7931034482759,110.47430830039525 C360.32183908045977,108.26086956521739 371.7471264367816,99.64426877470355 378.2758620689655,97.43083003952569 C384.8045977011494,95.21739130434783 396.2298850574713,94.50592885375492 402.7586206896552,93.87351778656125 C409.28735632183907,93.24110671936758 420.71264367816093,92.84584980237155 427.2413793103448,92.68774703557312 C433.7701149425287,92.68774703557312 445.1954022988506,92.68774703557312 451.7241379310345,92.68774703557312 C458.2528735632184,92.68774703557312 469.67816091954023,92.68774703557312 476.2068965517241,92.68774703557312 C482.735632183908,92.68774703557312 494.1609195402299,92.68774703557312 500.6896551724138,92.68774703557312 C507.2183908045977,92.5296442687747 518.6436781609195,92.13438735177867 525.1724137931035,91.501976284585 C531.7011494252874,90.86956521739133 543.1264367816092,88.41897233201583 549.6551724137931,87.94466403162056 C556.1839080459771,87.94466403162056 567.6091954022988,87.94466403162056 574.1379310344828,87.94466403162056 C580.6666666666667,87.78656126482214 592.0919540229885,87.07509881422922 598.6206896551724,86.75889328063238 C605.1494252873564,86.44268774703554 616.5747126436781,85.88932806324108 623.1034482758621,85.57312252964425 C629.632183908046,85.25691699604742 641.0574712643678,84.54545454545455 647.5862068965517,84.38735177865613 C654.1149425287357,84.38735177865613 665.5402298850574,84.38735177865613 672.0689655172414,84.38735177865613 C678.5977011494253,84.0711462450593 690.0229885057471,82.64822134387354 696.551724137931,82.01581027667987 C703.080459770115,81.3833992094862 714.5057471264367,80.11857707509883 721.0344827586207,79.64426877470356 C727.5632183908046,79.1699604743083 738.9885057471264,78.77470355731226 745.5172413793103,78.45849802371544 C752.0459770114943,78.1422924901186 766.735632183908,77.43083003952573 770,77.27272727272731" fill="none" stroke="#6b63ff" stroke-width="2.5" class="data-line-0" />
  <g class="points">
    
    <circle cx="60" cy="348.8142292490119" r="4" fill="#6b63ff" class="data-point" style="animation-delay: 1.50s" />
    <circle cx="84.48275862068965" cy="264.62450592885375" r="4" fill="#6b63ff" class="data-point" style="animation-delay: 1.55s" />
    <circle cx="108.9655172413793" cy="219.56521739130434" r="4" fill="#6b63ff" class="data-point" style="animation-delay: 1.60s" />
    <circle cx="133.44827586206895" cy="185.17786561264822" r="4" fill="#6b63ff" class="data-point" style="animation-delay: 1.65s" />
    <circle cx="157.9310344827586" cy="150.79051383399207" r="4" fill="#6b63ff" class="data-point" style="animation-delay: 1.70s" />
    <circle cx="182.41379310344828" cy="137.74703557312253" r="4" fill="#6b63ff" class="data-point" style="animation-delay: 1.75s" />
    <circle cx="206.89655172413794" cy="136.56126482213438" r="4" fill="#6b63ff" class="data-point" style="animation-delay: 1.80s" />
    <circle cx="231.3793103448276" cy="130.6324110671937" r="4" fill="#6b63ff" class="data-point" style="animation-delay: 1.85s" />
    <circle cx="255.86206896551724" cy="128.2608695652174" r="4" fill="#6b63ff" class="data-point" style="animation-delay: 1.90s" />
    <circle cx="280.34482758620686" cy="119.96047430830038" r="4" fill="#6b63ff" class="data-point" style="animation-delay: 1.95s" />
    <circle cx="304.82758620689657" cy="116.403162055336" r="4" fill="#6b63ff" class="data-point" style="animation-delay: 2.00s" />
    <circle cx="329.3103448275862" cy="114.03162055335969" r="4" fill="#6b63ff" class="data-point" style="animation-delay: 2.05s" />
    <circle cx="353.7931034482759" cy="110.47430830039525" r="4" fill="#6b63ff" class="data-point" style="animation-delay: 2.10s" />
    <circle cx="378.2758620689655" cy="97.43083003952569" r="4" fill="#6b63ff" class="data-point" style="animation-delay: 2.15s" />
    <circle cx="402.7586206896552" cy="93.87351778656125" r="4" fill="#6b63ff" class="data-point" style="animation-delay: 2.20s" />
    <circle cx="427.2413793103448" cy="92.68774703557312" r="4" fill="#6b63ff" class="data-point" style="animation-delay: 2.25s" />
    <circle cx="451.7241379310345" cy="92.68774703557312" r="4" fill="#6b63ff" class="data-point" style="animation-delay: 2.30s" />
    <circle cx="476.2068965517241" cy="92.68774703557312" r="4" fill="#6b63ff" class="data-point" style="animation-delay: 2.35s" />
    <circle cx="500.6896551724138" cy="92.68774703557312" r="4" fill="#6b63ff" class="data-point" style="animation-delay: 2.40s" />
    <circle cx="525.1724137931035" cy="91.501976284585" r="4" fill="#6b63ff" class="data-point" style="animation-delay: 2.45s" />
    <circle cx="549.6551724137931" cy="87.94466403162056" r="4" fill="#6b63ff" class="data-point" style="animation-delay: 2.50s" />
    <circle cx="574.1379310344828" cy="87.94466403162056" r="4" fill="#6b63ff" class="data-point" style="animation-delay: 2.55s" />
    <circle cx="598.6206896551724" cy="86.75889328063238" r="4" fill="#6b63ff" class="data-point" style="animation-delay: 2.60s" />
    <circle cx="623.1034482758621" cy="85.57312252964425" r="4" fill="#6b63ff" class="data-point" style="animation-delay: 2.65s" />
    <circle cx="647.5862068965517" cy="84.38735177865613" r="4" fill="#6b63ff" class="data-point" style="animation-delay: 2.70s" />
    <circle cx="672.0689655172414" cy="84.38735177865613" r="4" fill="#6b63ff" class="data-point" style="animation-delay: 2.75s" />
    <circle cx="696.551724137931" cy="82.01581027667987" r="4" fill="#6b63ff" class="data-point" style="animation-delay: 2.80s" />
    <circle cx="721.0344827586207" cy="79.64426877470356" r="4" fill="#6b63ff" class="data-point" style="animation-delay: 2.85s" />
    <circle cx="745.5172413793103" cy="78.45849802371544" r="4" fill="#6b63ff" class="data-point" style="animation-delay: 2.90s" />
    <circle cx="770" cy="77.27272727272731" r="4" fill="#6b63ff" class="data-point" style="animation-delay: 2.95s" />
  </g>
</svg>