<svg xmlns="http://www.w3.org/2000/svg" viewBox="0 0 800 400" width="800" height="400">
  <style>
    @keyframes drawLine {
      to { stroke-dashoffset: 0; }
    }
    @keyframes fadeInPoint {
      from { opacity: 0; }
      to { opacity: 1; }
    }
    .data-line-0 {
      stroke-dasharray: 1267;
      stroke-dashoffset: 1267;
      animation: drawLine 2s ease-out forwards;
    }
    .data-point {
      opacity: 0;
      animation: fadeInPoint 0.5s ease-out forwards;
    }
    .chart-bg { fill: #fff; }
    .chart-text { fill: #24292e; }
    .chart-muted { fill: #6a737d; }
    .chart-grid { stroke: #eee; }
    .chart-axis { stroke: #6a737d; }
    @media (prefers-color-scheme: dark) {
      .chart-bg { fill: #0d1117; }
      .chart-text { fill: #e6edf3; }
      .chart-muted { fill: #8b949e; }
      .chart-grid { stroke: #21262d; }
      .chart-axis { stroke: #8b949e; }
    }
  </style>
  <rect width="800" height="400" class="chart-bg" />
  <text x="400" y="14" text-anchor="middle" class="chart-text" font-size="16" font-weight="bold" font-family="-apple-system, BlinkMacSystemFont, 'Segoe UI', Helvetica, Arial, sans-serif">dockur/macos Star History</text>
  
  <g class="grid">
    <line x1="60" y1="350" x2="770" y2="350" class="chart-grid" stroke-opacity="0.3" />
    <text x="778" y="354" text-anchor="start" class="chart-muted" font-size="11" font-family="-apple-system, BlinkMacSystemFont, 'Segoe UI', Helvetica, Arial, sans-serif">0</text>
    <line x1="60" y1="283.05962156372726" x2="770" y2="283.05962156372726" class="chart-grid" stroke-opacity="0.3" />
    <text x="778" y="287.05962156372726" text-anchor="start" class="chart-muted" font-size="11" font-family="-apple-system, BlinkMacSystemFont, 'Segoe UI', Helvetica, Arial, sans-serif">5K</text>
    <line x1="60" y1="216.1192431274545" x2="770" y2="216.1192431274545" class="chart-grid" stroke-opacity="0.3" />
    <text x="778" y="220.1192431274545" text-anchor="start" class="chart-muted" font-size="11" font-family="-apple-system, BlinkMacSystemFont, 'Segoe UI', Helvetica, Arial, sans-serif">10K</text>
    <line x1="60" y1="149.1788646911817" x2="770" y2="149.1788646911817" class="chart-grid" stroke-opacity="0.3" />
    <text x="778" y="153.1788646911817" text-anchor="start" class="chart-muted" font-size="11" font-family="-apple-system, BlinkMacSystemFont, 'Segoe UI', Helvetica, Arial, sans-serif">15K</text>
    <line x1="60" y1="82.23848625490899" x2="770" y2="82.23848625490899" class="chart-grid" stroke-opacity="0.3" />
    <text x="778" y="86.23848625490899" text-anchor="start" class="chart-muted" font-size="11" font-family="-apple-system, BlinkMacSystemFont, 'Segoe UI', Helvetica, Arial, sans-serif">20K</text>
  </g>
  <g class="milestones">
    
  </g>
  <g class="x-axis">
    <text x="60" y="370" text-anchor="middle" class="chart-muted" font-size="11" font-family="-apple-system, BlinkMacSystemFont, 'Segoe UI', Helvetica, Arial, sans-serif">2024</text>
    <text x="280.34482758620686" y="370" text-anchor="middle" class="chart-muted" font-size="11" font-family="-apple-system, BlinkMacSystemFont, 'Segoe UI', Helvetica, Arial, sans-serif">2025</text>
    <text x="623.1034482758621" y="370" text-anchor="middle" class="chart-muted" font-size="11" font-family="-apple-system, BlinkMacSystemFont, 'Segoe UI', Helvetica, Arial, sans-serif">2026</text>
  </g>
  <line x1="770" y1="50" x2="770" y2="350" class="chart-axis" stroke-width="1" />
  <line x1="60" y1="350" x2="770" y2="350" class="chart-axis" stroke-width="1" />
  <path d="M60,350 L60,349.90628347018924 C68.16091954022988,346.8761156729739 76.32183908045977,340.81578007854336 84.48275862068965,340.81578007854336 C92.64367816091954,340.81578007854336 100.80459770114942,340.81578007854336 108.9655172413793,340.81578007854336 C117.12643678160919,340.81578007854336 125.28735632183907,340.81578007854336 133.44827586206895,340.81578007854336 C141.60919540229884,340.81578007854336 149.77011494252872,340.81578007854336 157.9310344827586,340.81578007854336 C166.0919540229885,340.81578007854336 174.2528735632184,340.81578007854336 182.41379310344828,340.81578007854336 C190.57471264367817,340.81578007854336 198.73563218390805,340.81578007854336 206.89655172413794,334.21545876472686 C215.05747126436782,327.61513745091037 223.2183908045977,239.76009690372518 231.3793103448276,230.6586933238129 C239.54022988505747,221.55728974390064 247.70114942528735,222.61418719422747 255.86206896551724,221.48786147804356 C264.0229885057471,220.36153576185964 272.183908045977,219.7697250981792 280.34482758620686,216.70831845769368 C288.50574712643675,213.64691181720815 296.6666666666667,203.11942163513032 304.82758620689657,203.11942163513032 C312.98850574712645,203.11942163513032 321.14942528735634,203.11942163513032 329.3103448275862,203.11942163513032 C337.4712643678161,203.11942163513032 345.632183908046,203.11942163513032 353.7931034482759,203.11942163513032 C361.95402298850576,203.11942163513032 370.11494252873564,193.94858978936094 378.2758620689655,193.94858978936094 C386.4367816091954,193.94858978936094 394.5977011494253,193.94858978936094 402.7586206896552,193.94858978936094 C410.91954022988506,193.94858978936094 419.08045977011494,193.94858978936094 427.2413793103448,193.94858978936094 C435.4022988505747,193.94858978936094 443.5632183908046,146.81847182862094 451.7241379310345,142.89985719385936 C459.88505747126436,138.98124255909778 468.04597701149424,139.81017102174528 476.2068965517241,138.87004641199573 C484.367816091954,137.92992180224618 492.5287356321839,132.74723313102461 500.6896551724138,129.68582649053909 C508.85057471264366,126.62441985005354 517.0114942528736,120.50160656908247 525.1724137931035,120.50160656908247 C533.3333333333334,120.50160656908247 541.4942528735633,120.50160656908247 549.6551724137931,120.50160656908247 C557.816091954023,120.50160656908247 565.9770114942529,111.33077472331311 574.1379310344828,111.33077472331311 C582.2988505747127,111.33077472331311 590.4597701149426,111.33077472331311 598.6206896551724,111.33077472331311 C606.7816091954023,111.33077472331311 614.9425287356322,110.38468404141378 623.1034482758621,108.85398072117101 C631.264367816092,107.32327740092825 639.4252873563219,102.1465548018565 647.5862068965517,102.1465548018565 C655.7471264367816,102.1465548018565 663.9080459770115,102.1465548018565 672.0689655172414,102.1465548018565 C680.2298850574713,102.1465548018565 688.3908045977012,92.96233488039985 696.551724137931,92.96233488039985 C704.7126436781609,92.96233488039985 712.8735632183908,92.96233488039985 721.0344827586207,92.96233488039985 C729.1954022988506,92.96233488039985 737.3563218390805,86.4066404855409 745.5172413793103,83.79150303463052 C753.6781609195402,81.17636558372014 761.8390804597701,79.44484112816853 770,77.27151017493753 L770,350 L60,350 Z" fill="#6b63ff" fill-opacity="0.1" />
  <path d="M60,350 L60,349.90628347018924 C68.16091954022988,346.8761156729739 76.32183908045977,340.81578007854336 84.48275862068965,340.81578007854336 C92.64367816091954,340.81578007854336 100.80459770114942,340.81578007854336 108.9655172413793,340.81578007854336 C117.12643678160919,340.81578007854336 125.28735632183907,340.81578007854336 133.44827586206895,340.81578007854336 C141.60919540229884,340.81578007854336 149.77011494252872,340.81578007854336 157.9310344827586,340.81578007854336 C166.0919540229885,340.81578007854336 174.2528735632184,340.81578007854336 182.41379310344828,340.81578007854336 C190.57471264367817,340.81578007854336 198.73563218390805,340.81578007854336 206.89655172413794,334.21545876472686 C215.05747126436782,327.61513745091037 223.2183908045977,239.76009690372518 231.3793103448276,230.6586933238129 C239.54022988505747,221.55728974390064 247.70114942528735,222.61418719422747 255.86206896551724,221.48786147804356 C264.0229885057471,220.36153576185964 272.183908045977,219.7697250981792 280.34482758620686,216.70831845769368 C288.50574712643675,213.64691181720815 296.6666666666667,203.11942163513032 304.82758620689657,203.11942163513032 C312.98850574712645,203.11942163513032 321.14942528735634,203.11942163513032 329.3103448275862,203.11942163513032 C337.4712643678161,203.11942163513032 345.632183908046,203.11942163513032 353.7931034482759,203.11942163513032 C361.95402298850576,203.11942163513032 370.11494252873564,193.94858978936094 378.2758620689655,193.94858978936094 C386.4367816091954,193.94858978936094 394.5977011494253,193.94858978936094 402.7586206896552,193.94858978936094 C410.91954022988506,193.94858978936094 419.08045977011494,193.94858978936094 427.2413793103448,193.94858978936094 C435.4022988505747,193.94858978936094 443.5632183908046,146.81847182862094 451.7241379310345,142.89985719385936 C459.88505747126436,138.98124255909778 468.04597701149424,139.81017102174528 476.2068965517241,138.87004641199573 C484.367816091954,137.92992180224618 492.5287356321839,132.74723313102461 500.6896551724138,129.68582649053909 C508.85057471264366,126.62441985005354 517.0114942528736,120.50160656908247 525.1724137931035,120.50160656908247 C533.3333333333334,120.50160656908247 541.4942528735633,120.50160656908247 549.6551724137931,120.50160656908247 C557.816091954023,120.50160656908247 565.9770114942529,111.33077472331311 574.1379310344828,111.33077472331311 C582.2988505747127,111.33077472331311 590.4597701149426,111.33077472331311 598.6206896551724,111.33077472331311 C606.7816091954023,111.33077472331311 614.9425287356322,110.38468404141378 623.1034482758621,108.85398072117101 C631.264367816092,107.32327740092825 639.4252873563219,102.1465548018565 647.5862068965517,102.1465548018565 C655.7471264367816,102.1465548018565 663.9080459770115,102.1465548018565 672.0689655172414,102.1465548018565 C680.2298850574713,102.1465548018565 688.3908045977012,92.96233488039985 696.551724137931,92.96233488039985 C704.7126436781609,92.96233488039985 712.8735632183908,92.96233488039985 721.0344827586207,92.96233488039985 C729.1954022988506,92.96233488039985 737.3563218390805,86.4066404855409 745.5172413793103,83.79150303463052 C753.6781609195402,81.17636558372014 761.8390804597701,79.44484112816853 770,77.27151017493753" fill="none" stroke="#6b63ff" stroke-width="2.5" class="data-line-0" />
  <g class="points">
    
    <circle cx="60" cy="349.90628347018924" r="4" fill="#6b63ff" class="data-point" style="animation-delay: 1.50s" />
    <circle cx="84.48275862068965" cy="340.81578007854336" r="4" fill="#6b63ff" class="data-point" style="animation-delay: 1.55s" />
    <circle cx="108.9655172413793" cy="340.81578007854336" r="4" fill="#6b63ff" class="data-point" style="animation-delay: 1.60s" />
    <circle cx="133.44827586206895" cy="340.81578007854336" r="4" fill="#6b63ff" class="data-point" style="animation-delay: 1.65s" />
    <circle cx="157.9310344827586" cy="340.81578007854336" r="4" fill="#6b63ff" class="data-point" style="animation-delay: 1.70s" />
    <circle cx="182.41379310344828" cy="340.81578007854336" r="4" fill="#6b63ff" class="data-point" style="animation-delay: 1.75s" />
    <circle cx="206.89655172413794" cy="334.21545876472686" r="4" fill="#6b63ff" class="data-point" style="animation-delay: 1.80s" />
    <circle cx="231.3793103448276" cy="230.6586933238129" r="4" fill="#6b63ff" class="data-point" style="animation-delay: 1.85s" />
    <circle cx="255.86206896551724" cy="221.48786147804356" r="4" fill="#6b63ff" class="data-point" style="animation-delay: 1.90s" />
    <circle cx="280.34482758620686" cy="216.70831845769368" r="4" fill="#6b63ff" class="data-point" style="animation-delay: 1.95s" />
    <circle cx="304.82758620689657" cy="203.11942163513032" r="4" fill="#6b63ff" class="data-point" style="animation-delay: 2.00s" />
    <circle cx="329.3103448275862" cy="203.11942163513032" r="4" fill="#6b63ff" class="data-point" style="animation-delay: 2.05s" />
    <circle cx="353.7931034482759" cy="203.11942163513032" r="4" fill="#6b63ff" class="data-point" style="animation-delay: 2.10s" />
    <circle cx="378.2758620689655" cy="193.94858978936094" r="4" fill="#6b63ff" class="data-point" style="animation-delay: 2.15s" />
    <circle cx="402.7586206896552" cy="193.94858978936094" r="4" fill="#6b63ff" class="data-point" style="animation-delay: 2.20s" />
    <circle cx="427.2413793103448" cy="193.94858978936094" r="4" fill="#6b63ff" class="data-point" style="animation-delay: 2.25s" />
    <circle cx="451.7241379310345" cy="142.89985719385936" r="4" fill="#6b63ff" class="data-point" style="animation-delay: 2.30s" />
    <circle cx="476.2068965517241" cy="138.87004641199573" r="4" fill="#6b63ff" class="data-point" style="animation-delay: 2.35s" />
    <circle cx="500.6896551724138" cy="129.68582649053909" r="4" fill="#6b63ff" class="data-point" style="animation-delay: 2.40s" />
    <circle cx="525.1724137931035" cy="120.50160656908247" r="4" fill="#6b63ff" class="data-point" style="animation-delay: 2.45s" />
    <circle cx="549.6551724137931" cy="120.50160656908247" r="4" fill="#6b63ff" class="data-point" style="animation-delay: 2.50s" />
    <circle cx="574.1379310344828" cy="111.33077472331311" r="4" fill="#6b63ff" class="data-point" style="animation-delay: 2.55s" />
    <circle cx="598.6206896551724" cy="111.33077472331311" r="4" fill="#6b63ff" class="data-point" style="animation-delay: 2.60s" />
    <circle cx="623.1034482758621" cy="108.85398072117101" r="4" fill="#6b63ff" class="data-point" style="animation-delay: 2.65s" />
    <circle cx="647.5862068965517" cy="102.1465548018565" r="4" fill="#6b63ff" class="data-point" style="animation-delay: 2.70s" />
    <circle cx="672.0689655172414" cy="102.1465548018565" r="4" fill="#6b63ff" class="data-point" style="animation-delay: 2.75s" />
    <circle cx="696.551724137931" cy="92.96233488039985" r="4" fill="#6b63ff" class="data-point" style="animation-delay: 2.80s" />
    <circle cx="721.0344827586207" cy="92.96233488039985" r="4" fill="#6b63ff" class="data-point" style="animation-delay: 2.85s" />
    <circle cx="745.5172413793103" cy="83.79150303463052" r="4" fill="#6b63ff" class="data-point" style="animation-delay: 2.90s" />
    <circle cx="770" cy="77.27151017493753" r="4" fill="#6b63ff" class="data-point" style="animation-delay: 2.95s" />
  </g>
</svg>