<svg xmlns="http://www.w3.org/2000/svg" viewBox="0 0 800 400" width="800" height="400">
  <style>
    @keyframes drawLine {
      to { stroke-dashoffset: 0; }
    }
    @keyframes fadeInPoint {
      from { opacity: 0; }
      to { opacity: 1; }
    }
    .data-line-0 {
      stroke-dasharray: 1240;
      stroke-dashoffset: 1240;
      animation: drawLine 2s ease-out forwards;
    }
    .data-point {
      opacity: 0;
      animation: fadeInPoint 0.5s ease-out forwards;
    }
    .chart-bg { fill: #fff; }
    .chart-text { fill: #24292e; }
    .chart-muted { fill: #6a737d; }
    .chart-grid { stroke: #eee; }
    .chart-axis { stroke: #6a737d; }
    @media (prefers-color-scheme: dark) {
      .chart-bg { fill: #0d1117; }
      .chart-text { fill: #e6edf3; }
      .chart-muted { fill: #8b949e; }
      .chart-grid { stroke: #21262d; }
      .chart-axis { stroke: #8b949e; }
    }
  </style>
  <rect width="800" height="400" class="chart-bg" />
  <text x="400" y="14" text-anchor="middle" class="chart-text" font-size="16" font-weight="bold" font-family="-apple-system, BlinkMacSystemFont, 'Segoe UI', Helvetica, Arial, sans-serif">dockur/macos Star History</text>
  
  <g class="grid">
    <line x1="60" y1="350" x2="770" y2="350" class="chart-grid" stroke-opacity="0.3" />
    <text x="778" y="354" text-anchor="start" class="chart-muted" font-size="11" font-family="-apple-system, BlinkMacSystemFont, 'Segoe UI', Helvetica, Arial, sans-serif">0</text>
    <line x1="60" y1="290" x2="770" y2="290" class="chart-grid" stroke-opacity="0.3" />
    <text x="778" y="294" text-anchor="start" class="chart-muted" font-size="11" font-family="-apple-system, BlinkMacSystemFont, 'Segoe UI', Helvetica, Arial, sans-serif">5K</text>
    <line x1="60" y1="230" x2="770" y2="230" class="chart-grid" stroke-opacity="0.3" />
    <text x="778" y="234" text-anchor="start" class="chart-muted" font-size="11" font-family="-apple-system, BlinkMacSystemFont, 'Segoe UI', Helvetica, Arial, sans-serif">10K</text>
    <line x1="60" y1="170" x2="770" y2="170" class="chart-grid" stroke-opacity="0.3" />
    <text x="778" y="174" text-anchor="start" class="chart-muted" font-size="11" font-family="-apple-system, BlinkMacSystemFont, 'Segoe UI', Helvetica, Arial, sans-serif">15K</text>
    <line x1="60" y1="110" x2="770" y2="110" class="chart-grid" stroke-opacity="0.3" />
    <text x="778" y="114" text-anchor="start" class="chart-muted" font-size="11" font-family="-apple-system, BlinkMacSystemFont, 'Segoe UI', Helvetica, Arial, sans-serif">20K</text>
    <line x1="60" y1="50" x2="770" y2="50" class="chart-grid" stroke-opacity="0.3" />
    <text x="778" y="54" text-anchor="start" class="chart-muted" font-size="11" font-family="-apple-system, BlinkMacSystemFont, 'Segoe UI', Helvetica, Arial, sans-serif">25K</text>
  </g>
  <g class="milestones">
    
  </g>
  <g class="x-axis">
    <text x="60" y="370" text-anchor="middle" class="chart-muted" font-size="11" font-family="-apple-system, BlinkMacSystemFont, 'Segoe UI', Helvetica, Arial, sans-serif">2024</text>
    <text x="280.34482758620686" y="370" text-anchor="middle" class="chart-muted" font-size="11" font-family="-apple-system, BlinkMacSystemFont, 'Segoe UI', Helvetica, Arial, sans-serif">2025</text>
    <text x="623.1034482758621" y="370" text-anchor="middle" class="chart-muted" font-size="11" font-family="-apple-system, BlinkMacSystemFont, 'Segoe UI', Helvetica, Arial, sans-serif">2026</text>
  </g>
  <line x1="770" y1="50" x2="770" y2="350" class="chart-axis" stroke-width="1" />
  <line x1="60" y1="350" x2="770" y2="350" class="chart-axis" stroke-width="1" />
  <path d="M60,350 L60,349.916 C68.16091954022988,347.112 76.32183908045977,341.504 84.48275862068965,341.504 C92.64367816091954,341.504 100.80459770114942,341.504 108.9655172413793,341.504 C117.12643678160919,341.504 125.28735632183907,341.504 133.44827586206895,341.504 C141.60919540229884,341.504 149.77011494252872,341.504 157.9310344827586,341.504 C166.0919540229885,341.504 174.2528735632184,341.504 182.41379310344828,341.504 C190.57471264367817,341.504 198.73563218390805,341.504 206.89655172413794,334.868 C215.05747126436782,328.23199999999997 223.2183908045977,248.01200000000006 231.3793103448276,239.51600000000002 C239.54022988505747,231.01999999999998 247.70114942528735,231.01999999999998 255.86206896551724,231.01999999999998 C264.0229885057471,231.01999999999998 272.183908045977,231.01999999999998 280.34482758620686,231.01999999999998 C288.50574712643675,231.01999999999998 296.6666666666667,225.094 304.82758620689657,222.26 C312.98850574712645,219.426 321.14942528735634,214.016 329.3103448275862,214.016 C337.4712643678161,214.016 345.632183908046,214.016 353.7931034482759,214.016 C361.95402298850576,214.016 370.11494252873564,214.016 378.2758620689655,214.016 C386.4367816091954,214.016 394.5977011494253,205.52 402.7586206896552,205.52 C410.91954022988506,205.52 419.08045977011494,205.52 427.2413793103448,205.52 C435.4022988505747,205.52 443.5632183908046,171.0992075689397 451.7241379310345,163.028 C459.88505747126436,154.95679243106028 468.04597701149424,157.21103555886768 476.2068965517241,154.52 C484.367816091954,151.82896444113234 492.5287356321839,148.856 500.6896551724138,146.024 C508.85057471264366,143.192 517.0114942528736,137.52800000000002 525.1724137931035,137.52800000000002 C533.3333333333334,137.52800000000002 541.4942528735633,137.52800000000002 549.6551724137931,137.52800000000002 C557.816091954023,137.52800000000002 565.9770114942529,137.52800000000002 574.1379310344828,137.52800000000002 C582.2988505747127,137.52800000000002 590.4597701149426,136.82000000000002 598.6206896551724,135.40400000000002 C606.7816091954023,133.98800000000003 614.9425287356322,129.032 623.1034482758621,129.032 C631.264367816092,129.032 639.4252873563219,129.032 647.5862068965517,129.032 C655.7471264367816,129.032 663.9080459770115,123.358 672.0689655172414,120.524 C680.2298850574713,117.69 688.3908045977012,112.02800000000002 696.551724137931,112.02800000000002 C704.7126436781609,112.02800000000002 712.8735632183908,112.02800000000002 721.0344827586207,112.02800000000002 C729.1954022988506,112.02800000000002 737.3563218390805,104.37018821513891 745.5172413793103,103.53200000000001 C753.6781609195402,102.69381178486111 761.8390804597701,102.8327891226569 770,102.68 L770,350 L60,350 Z" fill="#6b63ff" fill-opacity="0.1" />
  <path d="M60,350 L60,349.916 C68.16091954022988,347.112 76.32183908045977,341.504 84.48275862068965,341.504 C92.64367816091954,341.504 100.80459770114942,341.504 108.9655172413793,341.504 C117.12643678160919,341.504 125.28735632183907,341.504 133.44827586206895,341.504 C141.60919540229884,341.504 149.77011494252872,341.504 157.9310344827586,341.504 C166.0919540229885,341.504 174.2528735632184,341.504 182.41379310344828,341.504 C190.57471264367817,341.504 198.73563218390805,341.504 206.89655172413794,334.868 C215.05747126436782,328.23199999999997 223.2183908045977,248.01200000000006 231.3793103448276,239.51600000000002 C239.54022988505747,231.01999999999998 247.70114942528735,231.01999999999998 255.86206896551724,231.01999999999998 C264.0229885057471,231.01999999999998 272.183908045977,231.01999999999998 280.34482758620686,231.01999999999998 C288.50574712643675,231.01999999999998 296.6666666666667,225.094 304.82758620689657,222.26 C312.98850574712645,219.426 321.14942528735634,214.016 329.3103448275862,214.016 C337.4712643678161,214.016 345.632183908046,214.016 353.7931034482759,214.016 C361.95402298850576,214.016 370.11494252873564,214.016 378.2758620689655,214.016 C386.4367816091954,214.016 394.5977011494253,205.52 402.7586206896552,205.52 C410.91954022988506,205.52 419.08045977011494,205.52 427.2413793103448,205.52 C435.4022988505747,205.52 443.5632183908046,171.0992075689397 451.7241379310345,163.028 C459.88505747126436,154.95679243106028 468.04597701149424,157.21103555886768 476.2068965517241,154.52 C484.367816091954,151.82896444113234 492.5287356321839,148.856 500.6896551724138,146.024 C508.85057471264366,143.192 517.0114942528736,137.52800000000002 525.1724137931035,137.52800000000002 C533.3333333333334,137.52800000000002 541.4942528735633,137.52800000000002 549.6551724137931,137.52800000000002 C557.816091954023,137.52800000000002 565.9770114942529,137.52800000000002 574.1379310344828,137.52800000000002 C582.2988505747127,137.52800000000002 590.4597701149426,136.82000000000002 598.6206896551724,135.40400000000002 C606.7816091954023,133.98800000000003 614.9425287356322,129.032 623.1034482758621,129.032 C631.264367816092,129.032 639.4252873563219,129.032 647.5862068965517,129.032 C655.7471264367816,129.032 663.9080459770115,123.358 672.0689655172414,120.524 C680.2298850574713,117.69 688.3908045977012,112.02800000000002 696.551724137931,112.02800000000002 C704.7126436781609,112.02800000000002 712.8735632183908,112.02800000000002 721.0344827586207,112.02800000000002 C729.1954022988506,112.02800000000002 737.3563218390805,104.37018821513891 745.5172413793103,103.53200000000001 C753.6781609195402,102.69381178486111 761.8390804597701,102.8327891226569 770,102.68" fill="none" stroke="#6b63ff" stroke-width="2.5" class="data-line-0" />
  <g class="points">
    
    <circle cx="60" cy="349.916" r="4" fill="#6b63ff" class="data-point" style="animation-delay: 1.50s" />
    <circle cx="84.48275862068965" cy="341.504" r="4" fill="#6b63ff" class="data-point" style="animation-delay: 1.55s" />
    <circle cx="108.9655172413793" cy="341.504" r="4" fill="#6b63ff" class="data-point" style="animation-delay: 1.60s" />
    <circle cx="133.44827586206895" cy="341.504" r="4" fill="#6b63ff" class="data-point" style="animation-delay: 1.65s" />
    <circle cx="157.9310344827586" cy="341.504" r="4" fill="#6b63ff" class="data-point" style="animation-delay: 1.70s" />
    <circle cx="182.41379310344828" cy="341.504" r="4" fill="#6b63ff" class="data-point" style="animation-delay: 1.75s" />
    <circle cx="206.89655172413794" cy="334.868" r="4" fill="#6b63ff" class="data-point" style="animation-delay: 1.80s" />
    <circle cx="231.3793103448276" cy="239.51600000000002" r="4" fill="#6b63ff" class="data-point" style="animation-delay: 1.85s" />
    <circle cx="255.86206896551724" cy="231.01999999999998" r="4" fill="#6b63ff" class="data-point" style="animation-delay: 1.90s" />
    <circle cx="280.34482758620686" cy="231.01999999999998" r="4" fill="#6b63ff" class="data-point" style="animation-delay: 1.95s" />
    <circle cx="304.82758620689657" cy="222.26" r="4" fill="#6b63ff" class="data-point" style="animation-delay: 2.00s" />
    <circle cx="329.3103448275862" cy="214.016" r="4" fill="#6b63ff" class="data-point" style="animation-delay: 2.05s" />
    <circle cx="353.7931034482759" cy="214.016" r="4" fill="#6b63ff" class="data-point" style="animation-delay: 2.10s" />
    <circle cx="378.2758620689655" cy="214.016" r="4" fill="#6b63ff" class="data-point" style="animation-delay: 2.15s" />
    <circle cx="402.7586206896552" cy="205.52" r="4" fill="#6b63ff" class="data-point" style="animation-delay: 2.20s" />
    <circle cx="427.2413793103448" cy="205.52" r="4" fill="#6b63ff" class="data-point" style="animation-delay: 2.25s" />
    <circle cx="451.7241379310345" cy="163.028" r="4" fill="#6b63ff" class="data-point" style="animation-delay: 2.30s" />
    <circle cx="476.2068965517241" cy="154.52" r="4" fill="#6b63ff" class="data-point" style="animation-delay: 2.35s" />
    <circle cx="500.6896551724138" cy="146.024" r="4" fill="#6b63ff" class="data-point" style="animation-delay: 2.40s" />
    <circle cx="525.1724137931035" cy="137.52800000000002" r="4" fill="#6b63ff" class="data-point" style="animation-delay: 2.45s" />
    <circle cx="549.6551724137931" cy="137.52800000000002" r="4" fill="#6b63ff" class="data-point" style="animation-delay: 2.50s" />
    <circle cx="574.1379310344828" cy="137.52800000000002" r="4" fill="#6b63ff" class="data-point" style="animation-delay: 2.55s" />
    <circle cx="598.6206896551724" cy="135.40400000000002" r="4" fill="#6b63ff" class="data-point" style="animation-delay: 2.60s" />
    <circle cx="623.1034482758621" cy="129.032" r="4" fill="#6b63ff" class="data-point" style="animation-delay: 2.65s" />
    <circle cx="647.5862068965517" cy="129.032" r="4" fill="#6b63ff" class="data-point" style="animation-delay: 2.70s" />
    <circle cx="672.0689655172414" cy="120.524" r="4" fill="#6b63ff" class="data-point" style="animation-delay: 2.75s" />
    <circle cx="696.551724137931" cy="112.02800000000002" r="4" fill="#6b63ff" class="data-point" style="animation-delay: 2.80s" />
    <circle cx="721.0344827586207" cy="112.02800000000002" r="4" fill="#6b63ff" class="data-point" style="animation-delay: 2.85s" />
    <circle cx="745.5172413793103" cy="103.53200000000001" r="4" fill="#6b63ff" class="data-point" style="animation-delay: 2.90s" />
    <circle cx="770" cy="102.68" r="4" fill="#6b63ff" class="data-point" style="animation-delay: 2.95s" />
  </g>
</svg>