<svg xmlns="http://www.w3.org/2000/svg" viewBox="0 0 800 400" width="800" height="400">
  <style>
    @keyframes drawLine {
      to { stroke-dashoffset: 0; }
    }
    @keyframes fadeInPoint {
      from { opacity: 0; }
      to { opacity: 1; }
    }
    .data-line-0 {
      stroke-dasharray: 1236;
      stroke-dashoffset: 1236;
      animation: drawLine 2s ease-out forwards;
    }
    .data-point {
      opacity: 0;
      animation: fadeInPoint 0.5s ease-out forwards;
    }
    .chart-bg { fill: #fff; }
    .chart-text { fill: #24292e; }
    .chart-muted { fill: #6a737d; }
    .chart-grid { stroke: #eee; }
    .chart-axis { stroke: #6a737d; }
    @media (prefers-color-scheme: dark) {
      .chart-bg { fill: #0d1117; }
      .chart-text { fill: #e6edf3; }
      .chart-muted { fill: #8b949e; }
      .chart-grid { stroke: #21262d; }
      .chart-axis { stroke: #8b949e; }
    }
  </style>
  <rect width="800" height="400" class="chart-bg" />
  <text x="400" y="34" text-anchor="middle" class="chart-text" font-size="16" font-weight="bold" font-family="-apple-system, BlinkMacSystemFont, 'Segoe UI', Helvetica, Arial, sans-serif">dockur/zima Star History</text>
  
  <g class="grid">
    <line x1="60" y1="350" x2="770" y2="350" class="chart-grid" stroke-opacity="0.3" />
    <text x="778" y="354" text-anchor="start" class="chart-muted" font-size="11" font-family="-apple-system, BlinkMacSystemFont, 'Segoe UI', Helvetica, Arial, sans-serif">0</text>
    <line x1="60" y1="266.66666666666663" x2="770" y2="266.66666666666663" class="chart-grid" stroke-opacity="0.3" />
    <text x="778" y="270.66666666666663" text-anchor="start" class="chart-muted" font-size="11" font-family="-apple-system, BlinkMacSystemFont, 'Segoe UI', Helvetica, Arial, sans-serif">5</text>
    <line x1="60" y1="183.33333333333331" x2="770" y2="183.33333333333331" class="chart-grid" stroke-opacity="0.3" />
    <text x="778" y="187.33333333333331" text-anchor="start" class="chart-muted" font-size="11" font-family="-apple-system, BlinkMacSystemFont, 'Segoe UI', Helvetica, Arial, sans-serif">10</text>
    <line x1="60" y1="100" x2="770" y2="100" class="chart-grid" stroke-opacity="0.3" />
    <text x="778" y="104" text-anchor="start" class="chart-muted" font-size="11" font-family="-apple-system, BlinkMacSystemFont, 'Segoe UI', Helvetica, Arial, sans-serif">15</text>
    <line x1="60" y1="16.66666666666663" x2="770" y2="16.66666666666663" class="chart-grid" stroke-opacity="0.3" />
    <text x="778" y="20.66666666666663" text-anchor="start" class="chart-muted" font-size="11" font-family="-apple-system, BlinkMacSystemFont, 'Segoe UI', Helvetica, Arial, sans-serif">20</text>
  </g>
  <g class="milestones">
    
  </g>
  <g class="x-axis">
    <text x="60" y="370" text-anchor="middle" class="chart-muted" font-size="11" font-family="-apple-system, BlinkMacSystemFont, 'Segoe UI', Helvetica, Arial, sans-serif">May 25</text>
    <text x="133.44827586206895" y="370" text-anchor="middle" class="chart-muted" font-size="11" font-family="-apple-system, BlinkMacSystemFont, 'Segoe UI', Helvetica, Arial, sans-serif">May 28</text>
    <text x="206.89655172413794" y="370" text-anchor="middle" class="chart-muted" font-size="11" font-family="-apple-system, BlinkMacSystemFont, 'Segoe UI', Helvetica, Arial, sans-serif">May 31</text>
    <text x="280.34482758620686" y="370" text-anchor="middle" class="chart-muted" font-size="11" font-family="-apple-system, BlinkMacSystemFont, 'Segoe UI', Helvetica, Arial, sans-serif">Jun 4</text>
    <text x="353.7931034482759" y="370" text-anchor="middle" class="chart-muted" font-size="11" font-family="-apple-system, BlinkMacSystemFont, 'Segoe UI', Helvetica, Arial, sans-serif">Jun 7</text>
    <text x="427.2413793103448" y="370" text-anchor="middle" class="chart-muted" font-size="11" font-family="-apple-system, BlinkMacSystemFont, 'Segoe UI', Helvetica, Arial, sans-serif">Jun 10</text>
    <text x="500.6896551724138" y="370" text-anchor="middle" class="chart-muted" font-size="11" font-family="-apple-system, BlinkMacSystemFont, 'Segoe UI', Helvetica, Arial, sans-serif">Jun 13</text>
    <text x="574.1379310344828" y="370" text-anchor="middle" class="chart-muted" font-size="11" font-family="-apple-system, BlinkMacSystemFont, 'Segoe UI', Helvetica, Arial, sans-serif">Jun 17</text>
    <text x="647.5862068965517" y="370" text-anchor="middle" class="chart-muted" font-size="11" font-family="-apple-system, BlinkMacSystemFont, 'Segoe UI', Helvetica, Arial, sans-serif">Jun 20</text>
    <text x="721.0344827586207" y="370" text-anchor="middle" class="chart-muted" font-size="11" font-family="-apple-system, BlinkMacSystemFont, 'Segoe UI', Helvetica, Arial, sans-serif">Jun 23</text>
    <text x="770" y="370" text-anchor="middle" class="chart-muted" font-size="11" font-family="-apple-system, BlinkMacSystemFont, 'Segoe UI', Helvetica, Arial, sans-serif">Jun 25</text>
  </g>
  <line x1="770" y1="50" x2="770" y2="350" class="chart-axis" stroke-width="1" />
  <line x1="60" y1="350" x2="770" y2="350" class="chart-axis" stroke-width="1" />
  <path d="M60,350 L60,333.3333333333333 C63.264367816091955,328.88888888888886 77.95402298850574,306.6666666666667 84.48275862068965,300 C91.01149425287356,293.3333333333333 102.43678160919539,290.00000000000006 108.9655172413793,283.33333333333337 C115.49425287356321,276.6666666666667 126.91954022988504,254.44444444444446 133.44827586206895,250 C139.97701149425285,250 151.40229885057468,250 157.9310344827586,250 C164.45977011494253,247.77777777777777 175.88505747126436,235.55555555555554 182.41379310344828,233.33333333333331 C188.9425287356322,233.33333333333331 200.36781609195404,233.33333333333331 206.89655172413794,233.33333333333331 C213.42528735632183,228.88888888888889 224.8505747126437,204.44444444444443 231.3793103448276,200 C237.90804597701148,200 249.33333333333334,200 255.86206896551724,200 C262.39080459770116,197.77777777777777 273.81609195402297,185.55555555555554 280.34482758620686,183.33333333333331 C286.87356321839076,183.33333333333331 298.2988505747127,183.33333333333331 304.82758620689657,183.33333333333331 C311.35632183908046,181.1111111111111 322.7816091954023,168.88888888888889 329.3103448275862,166.66666666666666 C335.8390804597701,166.66666666666666 347.264367816092,166.66666666666666 353.7931034482759,166.66666666666666 C360.32183908045977,164.44444444444443 371.7471264367816,152.22222222222223 378.2758620689655,150 C384.8045977011494,150 396.2298850574713,150 402.7586206896552,150 C409.28735632183907,150 420.71264367816093,150 427.2413793103448,150 C433.7701149425287,147.77777777777777 445.1954022988506,135.55555555555557 451.7241379310345,133.33333333333334 C458.2528735632184,133.33333333333334 469.67816091954023,133.33333333333334 476.2068965517241,133.33333333333334 C482.735632183908,131.11111111111111 494.1609195402299,121.1111111111111 500.6896551724138,116.66666666666666 C507.2183908045977,112.22222222222221 518.6436781609195,102.22222222222221 525.1724137931035,100 C531.7011494252874,100 543.1264367816092,100 549.6551724137931,100 C556.1839080459771,100 567.6091954022988,100 574.1379310344828,100 C580.6666666666667,100 592.0919540229885,100 598.6206896551724,100 C605.1494252873564,100 616.5747126436781,100 623.1034482758621,100 C629.632183908046,100 641.0574712643678,100 647.5862068965517,100 C654.1149425287357,100 665.5402298850574,100 672.0689655172414,100 C678.5977011494253,100 690.0229885057471,100 696.551724137931,100 C703.080459770115,100 714.5057471264367,100 721.0344827586207,100 C727.5632183908046,100 738.9885057471264,100 745.5172413793103,100 C752.0459770114943,97.77777777777779 766.735632183908,85.55555555555559 770,83.33333333333337 L770,350 L60,350 Z" fill="#6b63ff" fill-opacity="0.1" />
  <path d="M60,350 L60,333.3333333333333 C63.264367816091955,328.88888888888886 77.95402298850574,306.6666666666667 84.48275862068965,300 C91.01149425287356,293.3333333333333 102.43678160919539,290.00000000000006 108.9655172413793,283.33333333333337 C115.49425287356321,276.6666666666667 126.91954022988504,254.44444444444446 133.44827586206895,250 C139.97701149425285,250 151.40229885057468,250 157.9310344827586,250 C164.45977011494253,247.77777777777777 175.88505747126436,235.55555555555554 182.41379310344828,233.33333333333331 C188.9425287356322,233.33333333333331 200.36781609195404,233.33333333333331 206.89655172413794,233.33333333333331 C213.42528735632183,228.88888888888889 224.8505747126437,204.44444444444443 231.3793103448276,200 C237.90804597701148,200 249.33333333333334,200 255.86206896551724,200 C262.39080459770116,197.77777777777777 273.81609195402297,185.55555555555554 280.34482758620686,183.33333333333331 C286.87356321839076,183.33333333333331 298.2988505747127,183.33333333333331 304.82758620689657,183.33333333333331 C311.35632183908046,181.1111111111111 322.7816091954023,168.88888888888889 329.3103448275862,166.66666666666666 C335.8390804597701,166.66666666666666 347.264367816092,166.66666666666666 353.7931034482759,166.66666666666666 C360.32183908045977,164.44444444444443 371.7471264367816,152.22222222222223 378.2758620689655,150 C384.8045977011494,150 396.2298850574713,150 402.7586206896552,150 C409.28735632183907,150 420.71264367816093,150 427.2413793103448,150 C433.7701149425287,147.77777777777777 445.1954022988506,135.55555555555557 451.7241379310345,133.33333333333334 C458.2528735632184,133.33333333333334 469.67816091954023,133.33333333333334 476.2068965517241,133.33333333333334 C482.735632183908,131.11111111111111 494.1609195402299,121.1111111111111 500.6896551724138,116.66666666666666 C507.2183908045977,112.22222222222221 518.6436781609195,102.22222222222221 525.1724137931035,100 C531.7011494252874,100 543.1264367816092,100 549.6551724137931,100 C556.1839080459771,100 567.6091954022988,100 574.1379310344828,100 C580.6666666666667,100 592.0919540229885,100 598.6206896551724,100 C605.1494252873564,100 616.5747126436781,100 623.1034482758621,100 C629.632183908046,100 641.0574712643678,100 647.5862068965517,100 C654.1149425287357,100 665.5402298850574,100 672.0689655172414,100 C678.5977011494253,100 690.0229885057471,100 696.551724137931,100 C703.080459770115,100 714.5057471264367,100 721.0344827586207,100 C727.5632183908046,100 738.9885057471264,100 745.5172413793103,100 C752.0459770114943,97.77777777777779 766.735632183908,85.55555555555559 770,83.33333333333337" fill="none" stroke="#6b63ff" stroke-width="2.5" class="data-line-0" />
  <g class="points">
    
    <circle cx="60" cy="333.3333333333333" r="4" fill="#6b63ff" class="data-point" style="animation-delay: 1.50s" />
    <circle cx="84.48275862068965" cy="300" r="4" fill="#6b63ff" class="data-point" style="animation-delay: 1.55s" />
    <circle cx="108.9655172413793" cy="283.33333333333337" r="4" fill="#6b63ff" class="data-point" style="animation-delay: 1.60s" />
    <circle cx="133.44827586206895" cy="250" r="4" fill="#6b63ff" class="data-point" style="animation-delay: 1.65s" />
    <circle cx="157.9310344827586" cy="250" r="4" fill="#6b63ff" class="data-point" style="animation-delay: 1.70s" />
    <circle cx="182.41379310344828" cy="233.33333333333331" r="4" fill="#6b63ff" class="data-point" style="animation-delay: 1.75s" />
    <circle cx="206.89655172413794" cy="233.33333333333331" r="4" fill="#6b63ff" class="data-point" style="animation-delay: 1.80s" />
    <circle cx="231.3793103448276" cy="200" r="4" fill="#6b63ff" class="data-point" style="animation-delay: 1.85s" />
    <circle cx="255.86206896551724" cy="200" r="4" fill="#6b63ff" class="data-point" style="animation-delay: 1.90s" />
    <circle cx="280.34482758620686" cy="183.33333333333331" r="4" fill="#6b63ff" class="data-point" style="animation-delay: 1.95s" />
    <circle cx="304.82758620689657" cy="183.33333333333331" r="4" fill="#6b63ff" class="data-point" style="animation-delay: 2.00s" />
    <circle cx="329.3103448275862" cy="166.66666666666666" r="4" fill="#6b63ff" class="data-point" style="animation-delay: 2.05s" />
    <circle cx="353.7931034482759" cy="166.66666666666666" r="4" fill="#6b63ff" class="data-point" style="animation-delay: 2.10s" />
    <circle cx="378.2758620689655" cy="150" r="4" fill="#6b63ff" class="data-point" style="animation-delay: 2.15s" />
    <circle cx="402.7586206896552" cy="150" r="4" fill="#6b63ff" class="data-point" style="animation-delay: 2.20s" />
    <circle cx="427.2413793103448" cy="150" r="4" fill="#6b63ff" class="data-point" style="animation-delay: 2.25s" />
    <circle cx="451.7241379310345" cy="133.33333333333334" r="4" fill="#6b63ff" class="data-point" style="animation-delay: 2.30s" />
    <circle cx="476.2068965517241" cy="133.33333333333334" r="4" fill="#6b63ff" class="data-point" style="animation-delay: 2.35s" />
    <circle cx="500.6896551724138" cy="116.66666666666666" r="4" fill="#6b63ff" class="data-point" style="animation-delay: 2.40s" />
    <circle cx="525.1724137931035" cy="100" r="4" fill="#6b63ff" class="data-point" style="animation-delay: 2.45s" />
    <circle cx="549.6551724137931" cy="100" r="4" fill="#6b63ff" class="data-point" style="animation-delay: 2.50s" />
    <circle cx="574.1379310344828" cy="100" r="4" fill="#6b63ff" class="data-point" style="animation-delay: 2.55s" />
    <circle cx="598.6206896551724" cy="100" r="4" fill="#6b63ff" class="data-point" style="animation-delay: 2.60s" />
    <circle cx="623.1034482758621" cy="100" r="4" fill="#6b63ff" class="data-point" style="animation-delay: 2.65s" />
    <circle cx="647.5862068965517" cy="100" r="4" fill="#6b63ff" class="data-point" style="animation-delay: 2.70s" />
    <circle cx="672.0689655172414" cy="100" r="4" fill="#6b63ff" class="data-point" style="animation-delay: 2.75s" />
    <circle cx="696.551724137931" cy="100" r="4" fill="#6b63ff" class="data-point" style="animation-delay: 2.80s" />
    <circle cx="721.0344827586207" cy="100" r="4" fill="#6b63ff" class="data-point" style="animation-delay: 2.85s" />
    <circle cx="745.5172413793103" cy="100" r="4" fill="#6b63ff" class="data-point" style="animation-delay: 2.90s" />
    <circle cx="770" cy="83.33333333333337" r="4" fill="#6b63ff" class="data-point" style="animation-delay: 2.95s" />
  </g>
</svg>