<svg xmlns="http://www.w3.org/2000/svg" viewBox="0 0 800 400" width="800" height="400">
  <style>
    @keyframes drawLine {
      to { stroke-dashoffset: 0; }
    }
    @keyframes fadeInPoint {
      from { opacity: 0; }
      to { opacity: 1; }
    }
    .data-line-0 {
      stroke-dasharray: 1233;
      stroke-dashoffset: 1233;
      animation: drawLine 2s ease-out forwards;
    }
    .data-point {
      opacity: 0;
      animation: fadeInPoint 0.5s ease-out forwards;
    }
    .chart-bg { fill: #fff; }
    .chart-text { fill: #24292e; }
    .chart-muted { fill: #6a737d; }
    .chart-grid { stroke: #eee; }
    .chart-axis { stroke: #6a737d; }
    @media (prefers-color-scheme: dark) {
      .chart-bg { fill: #0d1117; }
      .chart-text { fill: #e6edf3; }
      .chart-muted { fill: #8b949e; }
      .chart-grid { stroke: #21262d; }
      .chart-axis { stroke: #8b949e; }
    }
  </style>
  <rect width="800" height="400" class="chart-bg" />
  <text x="400" y="14" text-anchor="middle" class="chart-text" font-size="16" font-weight="bold" font-family="-apple-system, BlinkMacSystemFont, 'Segoe UI', Helvetica, Arial, sans-serif">dockur/macos Star History</text>
  
  <g class="grid">
    <line x1="60" y1="350" x2="770" y2="350" class="chart-grid" stroke-opacity="0.3" />
    <text x="778" y="354" text-anchor="start" class="chart-muted" font-size="11" font-family="-apple-system, BlinkMacSystemFont, 'Segoe UI', Helvetica, Arial, sans-serif">0</text>
    <line x1="60" y1="290" x2="770" y2="290" class="chart-grid" stroke-opacity="0.3" />
    <text x="778" y="294" text-anchor="start" class="chart-muted" font-size="11" font-family="-apple-system, BlinkMacSystemFont, 'Segoe UI', Helvetica, Arial, sans-serif">5K</text>
    <line x1="60" y1="230" x2="770" y2="230" class="chart-grid" stroke-opacity="0.3" />
    <text x="778" y="234" text-anchor="start" class="chart-muted" font-size="11" font-family="-apple-system, BlinkMacSystemFont, 'Segoe UI', Helvetica, Arial, sans-serif">10K</text>
    <line x1="60" y1="170" x2="770" y2="170" class="chart-grid" stroke-opacity="0.3" />
    <text x="778" y="174" text-anchor="start" class="chart-muted" font-size="11" font-family="-apple-system, BlinkMacSystemFont, 'Segoe UI', Helvetica, Arial, sans-serif">15K</text>
    <line x1="60" y1="110" x2="770" y2="110" class="chart-grid" stroke-opacity="0.3" />
    <text x="778" y="114" text-anchor="start" class="chart-muted" font-size="11" font-family="-apple-system, BlinkMacSystemFont, 'Segoe UI', Helvetica, Arial, sans-serif">20K</text>
    <line x1="60" y1="50" x2="770" y2="50" class="chart-grid" stroke-opacity="0.3" />
    <text x="778" y="54" text-anchor="start" class="chart-muted" font-size="11" font-family="-apple-system, BlinkMacSystemFont, 'Segoe UI', Helvetica, Arial, sans-serif">25K</text>
  </g>
  <g class="milestones">
    
  </g>
  <g class="x-axis">
    <text x="60" y="370" text-anchor="middle" class="chart-muted" font-size="11" font-family="-apple-system, BlinkMacSystemFont, 'Segoe UI', Helvetica, Arial, sans-serif">2024</text>
    <text x="280.34482758620686" y="370" text-anchor="middle" class="chart-muted" font-size="11" font-family="-apple-system, BlinkMacSystemFont, 'Segoe UI', Helvetica, Arial, sans-serif">2025</text>
    <text x="623.1034482758621" y="370" text-anchor="middle" class="chart-muted" font-size="11" font-family="-apple-system, BlinkMacSystemFont, 'Segoe UI', Helvetica, Arial, sans-serif">2026</text>
  </g>
  <line x1="770" y1="50" x2="770" y2="350" class="chart-axis" stroke-width="1" />
  <line x1="60" y1="350" x2="770" y2="350" class="chart-axis" stroke-width="1" />
  <path d="M60,350 L60,349.916 C68.16091954022988,347.184 76.32183908045977,341.72 84.48275862068965,341.72 C92.64367816091954,341.72 100.80459770114942,341.72 108.9655172413793,341.72 C117.12643678160919,341.72 125.28735632183907,341.72 133.44827586206895,341.72 C141.60919540229884,341.72 149.77011494252872,341.72 157.9310344827586,341.72 C166.0919540229885,341.72 174.2528735632184,341.72 182.41379310344828,341.72 C190.57471264367817,341.72 198.73563218390805,341.72 206.89655172413794,335.432 C215.05747126436782,329.144 223.2183908045977,250.5832058990834 231.3793103448276,242.38400000000001 C239.54022988505747,234.18479410091663 247.70114942528735,235.1803526785971 255.86206896551724,234.11599999999999 C264.0229885057471,233.05164732140287 272.183908045977,231.82600000000002 280.34482758620686,229.23200000000003 C288.50574712643675,226.63800000000003 296.6666666666667,219.54799999999997 304.82758620689657,218.552 C312.98850574712645,217.556 321.14942528735634,217.556 329.3103448275862,217.556 C337.4712643678161,217.556 345.632183908046,217.556 353.7931034482759,217.556 C361.95402298850576,217.556 370.11494252873564,212.31199999999998 378.2758620689655,210.932 C386.4367816091954,209.552 394.5977011494253,209.276 402.7586206896552,209.276 C410.91954022988506,209.276 419.08045977011494,209.276 427.2413793103448,209.276 C435.4022988505747,209.276 443.5632183908046,175.74290790931056 451.7241379310345,167.888 C459.88505747126436,160.03309209068945 468.04597701149424,162.22693522948745 476.2068965517241,159.608 C484.367816091954,156.98906477051256 492.5287356321839,154.08799999999997 500.6896551724138,151.32799999999997 C508.85057471264366,148.56799999999998 517.0114942528736,143.048 525.1724137931035,143.048 C533.3333333333334,143.048 541.4942528735633,143.048 549.6551724137931,143.048 C557.816091954023,143.048 565.9770114942529,137.64600000000002 574.1379310344828,136.268 C582.2988505747127,134.89 590.4597701149426,134.78 598.6206896551724,134.78 C606.7816091954023,134.78 614.9425287356322,134.78 623.1034482758621,134.78 C631.264367816092,134.78 639.4252873563219,126.5 647.5862068965517,126.5 C655.7471264367816,126.5 663.9080459770115,126.5 672.0689655172414,126.5 C680.2298850574713,126.5 688.3908045977012,120.77200000000002 696.551724137931,118.22000000000003 C704.7126436781609,115.66800000000003 712.8735632183908,112.15290105650082 721.0344827586207,111.18800000000002 C729.1954022988506,110.22309894349921 737.3563218390805,110.7314985477963 745.5172413793103,109.94 C753.6781609195402,109.14850145220369 761.8390804597701,106.24400000000001 770,104.39600000000002 L770,350 L60,350 Z" fill="#6b63ff" fill-opacity="0.1" />
  <path d="M60,350 L60,349.916 C68.16091954022988,347.184 76.32183908045977,341.72 84.48275862068965,341.72 C92.64367816091954,341.72 100.80459770114942,341.72 108.9655172413793,341.72 C117.12643678160919,341.72 125.28735632183907,341.72 133.44827586206895,341.72 C141.60919540229884,341.72 149.77011494252872,341.72 157.9310344827586,341.72 C166.0919540229885,341.72 174.2528735632184,341.72 182.41379310344828,341.72 C190.57471264367817,341.72 198.73563218390805,341.72 206.89655172413794,335.432 C215.05747126436782,329.144 223.2183908045977,250.5832058990834 231.3793103448276,242.38400000000001 C239.54022988505747,234.18479410091663 247.70114942528735,235.1803526785971 255.86206896551724,234.11599999999999 C264.0229885057471,233.05164732140287 272.183908045977,231.82600000000002 280.34482758620686,229.23200000000003 C288.50574712643675,226.63800000000003 296.6666666666667,219.54799999999997 304.82758620689657,218.552 C312.98850574712645,217.556 321.14942528735634,217.556 329.3103448275862,217.556 C337.4712643678161,217.556 345.632183908046,217.556 353.7931034482759,217.556 C361.95402298850576,217.556 370.11494252873564,212.31199999999998 378.2758620689655,210.932 C386.4367816091954,209.552 394.5977011494253,209.276 402.7586206896552,209.276 C410.91954022988506,209.276 419.08045977011494,209.276 427.2413793103448,209.276 C435.4022988505747,209.276 443.5632183908046,175.74290790931056 451.7241379310345,167.888 C459.88505747126436,160.03309209068945 468.04597701149424,162.22693522948745 476.2068965517241,159.608 C484.367816091954,156.98906477051256 492.5287356321839,154.08799999999997 500.6896551724138,151.32799999999997 C508.85057471264366,148.56799999999998 517.0114942528736,143.048 525.1724137931035,143.048 C533.3333333333334,143.048 541.4942528735633,143.048 549.6551724137931,143.048 C557.816091954023,143.048 565.9770114942529,137.64600000000002 574.1379310344828,136.268 C582.2988505747127,134.89 590.4597701149426,134.78 598.6206896551724,134.78 C606.7816091954023,134.78 614.9425287356322,134.78 623.1034482758621,134.78 C631.264367816092,134.78 639.4252873563219,126.5 647.5862068965517,126.5 C655.7471264367816,126.5 663.9080459770115,126.5 672.0689655172414,126.5 C680.2298850574713,126.5 688.3908045977012,120.77200000000002 696.551724137931,118.22000000000003 C704.7126436781609,115.66800000000003 712.8735632183908,112.15290105650082 721.0344827586207,111.18800000000002 C729.1954022988506,110.22309894349921 737.3563218390805,110.7314985477963 745.5172413793103,109.94 C753.6781609195402,109.14850145220369 761.8390804597701,106.24400000000001 770,104.39600000000002" fill="none" stroke="#6b63ff" stroke-width="2.5" class="data-line-0" />
  <g class="points">
    
    <circle cx="60" cy="349.916" r="4" fill="#6b63ff" class="data-point" style="animation-delay: 1.50s" />
    <circle cx="84.48275862068965" cy="341.72" r="4" fill="#6b63ff" class="data-point" style="animation-delay: 1.55s" />
    <circle cx="108.9655172413793" cy="341.72" r="4" fill="#6b63ff" class="data-point" style="animation-delay: 1.60s" />
    <circle cx="133.44827586206895" cy="341.72" r="4" fill="#6b63ff" class="data-point" style="animation-delay: 1.65s" />
    <circle cx="157.9310344827586" cy="341.72" r="4" fill="#6b63ff" class="data-point" style="animation-delay: 1.70s" />
    <circle cx="182.41379310344828" cy="341.72" r="4" fill="#6b63ff" class="data-point" style="animation-delay: 1.75s" />
    <circle cx="206.89655172413794" cy="335.432" r="4" fill="#6b63ff" class="data-point" style="animation-delay: 1.80s" />
    <circle cx="231.3793103448276" cy="242.38400000000001" r="4" fill="#6b63ff" class="data-point" style="animation-delay: 1.85s" />
    <circle cx="255.86206896551724" cy="234.11599999999999" r="4" fill="#6b63ff" class="data-point" style="animation-delay: 1.90s" />
    <circle cx="280.34482758620686" cy="229.23200000000003" r="4" fill="#6b63ff" class="data-point" style="animation-delay: 1.95s" />
    <circle cx="304.82758620689657" cy="218.552" r="4" fill="#6b63ff" class="data-point" style="animation-delay: 2.00s" />
    <circle cx="329.3103448275862" cy="217.556" r="4" fill="#6b63ff" class="data-point" style="animation-delay: 2.05s" />
    <circle cx="353.7931034482759" cy="217.556" r="4" fill="#6b63ff" class="data-point" style="animation-delay: 2.10s" />
    <circle cx="378.2758620689655" cy="210.932" r="4" fill="#6b63ff" class="data-point" style="animation-delay: 2.15s" />
    <circle cx="402.7586206896552" cy="209.276" r="4" fill="#6b63ff" class="data-point" style="animation-delay: 2.20s" />
    <circle cx="427.2413793103448" cy="209.276" r="4" fill="#6b63ff" class="data-point" style="animation-delay: 2.25s" />
    <circle cx="451.7241379310345" cy="167.888" r="4" fill="#6b63ff" class="data-point" style="animation-delay: 2.30s" />
    <circle cx="476.2068965517241" cy="159.608" r="4" fill="#6b63ff" class="data-point" style="animation-delay: 2.35s" />
    <circle cx="500.6896551724138" cy="151.32799999999997" r="4" fill="#6b63ff" class="data-point" style="animation-delay: 2.40s" />
    <circle cx="525.1724137931035" cy="143.048" r="4" fill="#6b63ff" class="data-point" style="animation-delay: 2.45s" />
    <circle cx="549.6551724137931" cy="143.048" r="4" fill="#6b63ff" class="data-point" style="animation-delay: 2.50s" />
    <circle cx="574.1379310344828" cy="136.268" r="4" fill="#6b63ff" class="data-point" style="animation-delay: 2.55s" />
    <circle cx="598.6206896551724" cy="134.78" r="4" fill="#6b63ff" class="data-point" style="animation-delay: 2.60s" />
    <circle cx="623.1034482758621" cy="134.78" r="4" fill="#6b63ff" class="data-point" style="animation-delay: 2.65s" />
    <circle cx="647.5862068965517" cy="126.5" r="4" fill="#6b63ff" class="data-point" style="animation-delay: 2.70s" />
    <circle cx="672.0689655172414" cy="126.5" r="4" fill="#6b63ff" class="data-point" style="animation-delay: 2.75s" />
    <circle cx="696.551724137931" cy="118.22000000000003" r="4" fill="#6b63ff" class="data-point" style="animation-delay: 2.80s" />
    <circle cx="721.0344827586207" cy="111.18800000000002" r="4" fill="#6b63ff" class="data-point" style="animation-delay: 2.85s" />
    <circle cx="745.5172413793103" cy="109.94" r="4" fill="#6b63ff" class="data-point" style="animation-delay: 2.90s" />
    <circle cx="770" cy="104.39600000000002" r="4" fill="#6b63ff" class="data-point" style="animation-delay: 2.95s" />
  </g>
</svg>