<svg xmlns="http://www.w3.org/2000/svg" viewBox="0 0 800 400" width="800" height="400">
  <style>
    @keyframes drawLine {
      to { stroke-dashoffset: 0; }
    }
    @keyframes fadeInPoint {
      from { opacity: 0; }
      to { opacity: 1; }
    }
    .data-line-0 {
      stroke-dasharray: 1267;
      stroke-dashoffset: 1267;
      animation: drawLine 2s ease-out forwards;
    }
    .data-point {
      opacity: 0;
      animation: fadeInPoint 0.5s ease-out forwards;
    }
    .chart-bg { fill: #fff; }
    .chart-text { fill: #24292e; }
    .chart-muted { fill: #6a737d; }
    .chart-grid { stroke: #eee; }
    .chart-axis { stroke: #6a737d; }
    @media (prefers-color-scheme: dark) {
      .chart-bg { fill: #0d1117; }
      .chart-text { fill: #e6edf3; }
      .chart-muted { fill: #8b949e; }
      .chart-grid { stroke: #21262d; }
      .chart-axis { stroke: #8b949e; }
    }
  </style>
  <rect width="800" height="400" class="chart-bg" />
  <text x="400" y="14" text-anchor="middle" class="chart-text" font-size="16" font-weight="bold" font-family="-apple-system, BlinkMacSystemFont, 'Segoe UI', Helvetica, Arial, sans-serif">dockur/macos Star History</text>
  
  <g class="grid">
    <line x1="60" y1="350" x2="770" y2="350" class="chart-grid" stroke-opacity="0.3" />
    <text x="778" y="354" text-anchor="start" class="chart-muted" font-size="11" font-family="-apple-system, BlinkMacSystemFont, 'Segoe UI', Helvetica, Arial, sans-serif">0</text>
    <line x1="60" y1="283.0745549457904" x2="770" y2="283.0745549457904" class="chart-grid" stroke-opacity="0.3" />
    <text x="778" y="287.0745549457904" text-anchor="start" class="chart-muted" font-size="11" font-family="-apple-system, BlinkMacSystemFont, 'Segoe UI', Helvetica, Arial, sans-serif">5K</text>
    <line x1="60" y1="216.1491098915808" x2="770" y2="216.1491098915808" class="chart-grid" stroke-opacity="0.3" />
    <text x="778" y="220.1491098915808" text-anchor="start" class="chart-muted" font-size="11" font-family="-apple-system, BlinkMacSystemFont, 'Segoe UI', Helvetica, Arial, sans-serif">10K</text>
    <line x1="60" y1="149.22366483737116" x2="770" y2="149.22366483737116" class="chart-grid" stroke-opacity="0.3" />
    <text x="778" y="153.22366483737116" text-anchor="start" class="chart-muted" font-size="11" font-family="-apple-system, BlinkMacSystemFont, 'Segoe UI', Helvetica, Arial, sans-serif">15K</text>
    <line x1="60" y1="82.29821978316158" x2="770" y2="82.29821978316158" class="chart-grid" stroke-opacity="0.3" />
    <text x="778" y="86.29821978316158" text-anchor="start" class="chart-muted" font-size="11" font-family="-apple-system, BlinkMacSystemFont, 'Segoe UI', Helvetica, Arial, sans-serif">20K</text>
  </g>
  <g class="milestones">
    
  </g>
  <g class="x-axis">
    <text x="60" y="370" text-anchor="middle" class="chart-muted" font-size="11" font-family="-apple-system, BlinkMacSystemFont, 'Segoe UI', Helvetica, Arial, sans-serif">2024</text>
    <text x="280.34482758620686" y="370" text-anchor="middle" class="chart-muted" font-size="11" font-family="-apple-system, BlinkMacSystemFont, 'Segoe UI', Helvetica, Arial, sans-serif">2025</text>
    <text x="623.1034482758621" y="370" text-anchor="middle" class="chart-muted" font-size="11" font-family="-apple-system, BlinkMacSystemFont, 'Segoe UI', Helvetica, Arial, sans-serif">2026</text>
  </g>
  <line x1="770" y1="50" x2="770" y2="350" class="chart-axis" stroke-width="1" />
  <line x1="60" y1="350" x2="770" y2="350" class="chart-axis" stroke-width="1" />
  <path d="M60,350 L60,349.9063043769241 C68.16091954022988,346.88127426047384 76.32183908045977,340.8312140275733 84.48275862068965,340.8312140275733 C92.64367816091954,340.8312140275733 100.80459770114942,340.8312140275733 108.9655172413793,340.8312140275733 C117.12643678160919,340.8312140275733 125.28735632183907,340.8312140275733 133.44827586206895,340.8312140275733 C141.60919540229884,340.8312140275733 149.77011494252872,340.8312140275733 157.9310344827586,340.8312140275733 C166.0919540229885,340.8312140275733 174.2528735632184,340.8312140275733 182.41379310344828,340.8312140275733 C190.57471264367817,340.8312140275733 198.73563218390805,340.8312140275733 206.89655172413794,333.8709677419355 C215.05747126436782,326.91072145629767 223.2183908045977,239.94221213614145 231.3793103448276,230.85932271449605 C239.54022988505747,221.77643329285064 247.70114942528735,222.85391534854625 255.86206896551724,221.70392183108018 C264.0229885057471,220.5539283136141 272.183908045977,219.71400526480167 280.34482758620686,216.65774327399276 C288.50574712643675,213.60148128318386 296.6666666666667,203.36634988622674 304.82758620689657,203.36634988622674 C312.98850574712645,203.36634988622674 321.14942528735634,203.36634988622674 329.3103448275862,203.36634988622674 C337.4712643678161,203.36634988622674 345.632183908046,203.36634988622674 353.7931034482759,203.36634988622674 C361.95402298850576,203.36634988622674 370.11494252873564,194.19756391380005 378.2758620689655,194.19756391380005 C386.4367816091954,194.19756391380005 394.5977011494253,194.19756391380005 402.7586206896552,194.19756391380005 C410.91954022988506,194.19756391380005 419.08045977011494,194.19756391380005 427.2413793103448,194.19756391380005 C435.4022988505747,194.19756391380005 443.5632183908046,145.92593728148685 451.7241379310345,142.61143086601527 C459.88505747126436,139.29692445054368 468.04597701149424,139.96843593440659 476.2068965517241,139.21161825726142 C484.367816091954,138.45480058011626 492.5287356321839,133.11024851648597 500.6896551724138,130.05621737384553 C508.85057471264366,127.00218623120509 517.0114942528736,120.88743140141881 525.1724137931035,120.88743140141881 C533.3333333333334,120.88743140141881 541.4942528735633,120.88743140141881 549.6551724137931,120.88743140141881 C557.816091954023,120.88743140141881 565.9770114942529,111.71864542899209 574.1379310344828,111.71864542899209 C582.2988505747127,111.71864542899209 590.4597701149426,111.71864542899209 598.6206896551724,111.71864542899209 C606.7816091954023,111.71864542899209 614.9425287356322,110.50060232900549 623.1034482758621,108.97470218176952 C631.264367816092,107.44880203453354 639.4252873563219,102.56324454557623 647.5862068965517,102.56324454557623 C655.7471264367816,102.56324454557623 663.9080459770115,102.56324454557623 672.0689655172414,102.56324454557623 C680.2298850574713,102.56324454557623 688.3908045977012,93.3944585731495 696.551724137931,93.3944585731495 C704.7126436781609,93.3944585731495 712.8735632183908,93.3944585731495 721.0344827586207,93.3944585731495 C729.1954022988506,93.3944585731495 737.3563218390805,86.91384464373351 745.5172413793103,84.22567260072276 C753.6781609195402,81.53750055771201 761.8390804597701,79.58550841029758 770,77.265426315085 L770,350 L60,350 Z" fill="#6b63ff" fill-opacity="0.1" />
  <path d="M60,350 L60,349.9063043769241 C68.16091954022988,346.88127426047384 76.32183908045977,340.8312140275733 84.48275862068965,340.8312140275733 C92.64367816091954,340.8312140275733 100.80459770114942,340.8312140275733 108.9655172413793,340.8312140275733 C117.12643678160919,340.8312140275733 125.28735632183907,340.8312140275733 133.44827586206895,340.8312140275733 C141.60919540229884,340.8312140275733 149.77011494252872,340.8312140275733 157.9310344827586,340.8312140275733 C166.0919540229885,340.8312140275733 174.2528735632184,340.8312140275733 182.41379310344828,340.8312140275733 C190.57471264367817,340.8312140275733 198.73563218390805,340.8312140275733 206.89655172413794,333.8709677419355 C215.05747126436782,326.91072145629767 223.2183908045977,239.94221213614145 231.3793103448276,230.85932271449605 C239.54022988505747,221.77643329285064 247.70114942528735,222.85391534854625 255.86206896551724,221.70392183108018 C264.0229885057471,220.5539283136141 272.183908045977,219.71400526480167 280.34482758620686,216.65774327399276 C288.50574712643675,213.60148128318386 296.6666666666667,203.36634988622674 304.82758620689657,203.36634988622674 C312.98850574712645,203.36634988622674 321.14942528735634,203.36634988622674 329.3103448275862,203.36634988622674 C337.4712643678161,203.36634988622674 345.632183908046,203.36634988622674 353.7931034482759,203.36634988622674 C361.95402298850576,203.36634988622674 370.11494252873564,194.19756391380005 378.2758620689655,194.19756391380005 C386.4367816091954,194.19756391380005 394.5977011494253,194.19756391380005 402.7586206896552,194.19756391380005 C410.91954022988506,194.19756391380005 419.08045977011494,194.19756391380005 427.2413793103448,194.19756391380005 C435.4022988505747,194.19756391380005 443.5632183908046,145.92593728148685 451.7241379310345,142.61143086601527 C459.88505747126436,139.29692445054368 468.04597701149424,139.96843593440659 476.2068965517241,139.21161825726142 C484.367816091954,138.45480058011626 492.5287356321839,133.11024851648597 500.6896551724138,130.05621737384553 C508.85057471264366,127.00218623120509 517.0114942528736,120.88743140141881 525.1724137931035,120.88743140141881 C533.3333333333334,120.88743140141881 541.4942528735633,120.88743140141881 549.6551724137931,120.88743140141881 C557.816091954023,120.88743140141881 565.9770114942529,111.71864542899209 574.1379310344828,111.71864542899209 C582.2988505747127,111.71864542899209 590.4597701149426,111.71864542899209 598.6206896551724,111.71864542899209 C606.7816091954023,111.71864542899209 614.9425287356322,110.50060232900549 623.1034482758621,108.97470218176952 C631.264367816092,107.44880203453354 639.4252873563219,102.56324454557623 647.5862068965517,102.56324454557623 C655.7471264367816,102.56324454557623 663.9080459770115,102.56324454557623 672.0689655172414,102.56324454557623 C680.2298850574713,102.56324454557623 688.3908045977012,93.3944585731495 696.551724137931,93.3944585731495 C704.7126436781609,93.3944585731495 712.8735632183908,93.3944585731495 721.0344827586207,93.3944585731495 C729.1954022988506,93.3944585731495 737.3563218390805,86.91384464373351 745.5172413793103,84.22567260072276 C753.6781609195402,81.53750055771201 761.8390804597701,79.58550841029758 770,77.265426315085" fill="none" stroke="#6b63ff" stroke-width="2.5" class="data-line-0" />
  <g class="points">
    
    <circle cx="60" cy="349.9063043769241" r="4" fill="#6b63ff" class="data-point" style="animation-delay: 1.50s" />
    <circle cx="84.48275862068965" cy="340.8312140275733" r="4" fill="#6b63ff" class="data-point" style="animation-delay: 1.55s" />
    <circle cx="108.9655172413793" cy="340.8312140275733" r="4" fill="#6b63ff" class="data-point" style="animation-delay: 1.60s" />
    <circle cx="133.44827586206895" cy="340.8312140275733" r="4" fill="#6b63ff" class="data-point" style="animation-delay: 1.65s" />
    <circle cx="157.9310344827586" cy="340.8312140275733" r="4" fill="#6b63ff" class="data-point" style="animation-delay: 1.70s" />
    <circle cx="182.41379310344828" cy="340.8312140275733" r="4" fill="#6b63ff" class="data-point" style="animation-delay: 1.75s" />
    <circle cx="206.89655172413794" cy="333.8709677419355" r="4" fill="#6b63ff" class="data-point" style="animation-delay: 1.80s" />
    <circle cx="231.3793103448276" cy="230.85932271449605" r="4" fill="#6b63ff" class="data-point" style="animation-delay: 1.85s" />
    <circle cx="255.86206896551724" cy="221.70392183108018" r="4" fill="#6b63ff" class="data-point" style="animation-delay: 1.90s" />
    <circle cx="280.34482758620686" cy="216.65774327399276" r="4" fill="#6b63ff" class="data-point" style="animation-delay: 1.95s" />
    <circle cx="304.82758620689657" cy="203.36634988622674" r="4" fill="#6b63ff" class="data-point" style="animation-delay: 2.00s" />
    <circle cx="329.3103448275862" cy="203.36634988622674" r="4" fill="#6b63ff" class="data-point" style="animation-delay: 2.05s" />
    <circle cx="353.7931034482759" cy="203.36634988622674" r="4" fill="#6b63ff" class="data-point" style="animation-delay: 2.10s" />
    <circle cx="378.2758620689655" cy="194.19756391380005" r="4" fill="#6b63ff" class="data-point" style="animation-delay: 2.15s" />
    <circle cx="402.7586206896552" cy="194.19756391380005" r="4" fill="#6b63ff" class="data-point" style="animation-delay: 2.20s" />
    <circle cx="427.2413793103448" cy="194.19756391380005" r="4" fill="#6b63ff" class="data-point" style="animation-delay: 2.25s" />
    <circle cx="451.7241379310345" cy="142.61143086601527" r="4" fill="#6b63ff" class="data-point" style="animation-delay: 2.30s" />
    <circle cx="476.2068965517241" cy="139.21161825726142" r="4" fill="#6b63ff" class="data-point" style="animation-delay: 2.35s" />
    <circle cx="500.6896551724138" cy="130.05621737384553" r="4" fill="#6b63ff" class="data-point" style="animation-delay: 2.40s" />
    <circle cx="525.1724137931035" cy="120.88743140141881" r="4" fill="#6b63ff" class="data-point" style="animation-delay: 2.45s" />
    <circle cx="549.6551724137931" cy="120.88743140141881" r="4" fill="#6b63ff" class="data-point" style="animation-delay: 2.50s" />
    <circle cx="574.1379310344828" cy="111.71864542899209" r="4" fill="#6b63ff" class="data-point" style="animation-delay: 2.55s" />
    <circle cx="598.6206896551724" cy="111.71864542899209" r="4" fill="#6b63ff" class="data-point" style="animation-delay: 2.60s" />
    <circle cx="623.1034482758621" cy="108.97470218176952" r="4" fill="#6b63ff" class="data-point" style="animation-delay: 2.65s" />
    <circle cx="647.5862068965517" cy="102.56324454557623" r="4" fill="#6b63ff" class="data-point" style="animation-delay: 2.70s" />
    <circle cx="672.0689655172414" cy="102.56324454557623" r="4" fill="#6b63ff" class="data-point" style="animation-delay: 2.75s" />
    <circle cx="696.551724137931" cy="93.3944585731495" r="4" fill="#6b63ff" class="data-point" style="animation-delay: 2.80s" />
    <circle cx="721.0344827586207" cy="93.3944585731495" r="4" fill="#6b63ff" class="data-point" style="animation-delay: 2.85s" />
    <circle cx="745.5172413793103" cy="84.22567260072276" r="4" fill="#6b63ff" class="data-point" style="animation-delay: 2.90s" />
    <circle cx="770" cy="77.265426315085" r="4" fill="#6b63ff" class="data-point" style="animation-delay: 2.95s" />
  </g>
</svg>