<svg xmlns="http://www.w3.org/2000/svg" viewBox="0 0 800 400" width="800" height="400">
  <style>
    @keyframes drawLine {
      to { stroke-dashoffset: 0; }
    }
    @keyframes fadeInPoint {
      from { opacity: 0; }
      to { opacity: 1; }
    }
    .data-line-0 {
      stroke-dasharray: 1199;
      stroke-dashoffset: 1199;
      animation: drawLine 2s ease-out forwards;
    }
    .data-point {
      opacity: 0;
      animation: fadeInPoint 0.5s ease-out forwards;
    }
    .chart-bg { fill: #fff; }
    .chart-text { fill: #24292e; }
    .chart-muted { fill: #6a737d; }
    .chart-grid { stroke: #eee; }
    .chart-axis { stroke: #6a737d; }
    @media (prefers-color-scheme: dark) {
      .chart-bg { fill: #0d1117; }
      .chart-text { fill: #e6edf3; }
      .chart-muted { fill: #8b949e; }
      .chart-grid { stroke: #21262d; }
      .chart-axis { stroke: #8b949e; }
    }
  </style>
  <rect width="800" height="400" class="chart-bg" />
  <text x="400" y="34" text-anchor="middle" class="chart-text" font-size="16" font-weight="bold" font-family="-apple-system, BlinkMacSystemFont, 'Segoe UI', Helvetica, Arial, sans-serif">dockur/windows Star History</text>
  
  <g class="grid">
    <line x1="60" y1="350" x2="770" y2="350" class="chart-grid" stroke-opacity="0.3" />
    <text x="778" y="354" text-anchor="start" class="chart-muted" font-size="11" font-family="-apple-system, BlinkMacSystemFont, 'Segoe UI', Helvetica, Arial, sans-serif">0</text>
    <line x1="60" y1="297.33608356008074" x2="770" y2="297.33608356008074" class="chart-grid" stroke-opacity="0.3" />
    <text x="778" y="301.33608356008074" text-anchor="start" class="chart-muted" font-size="11" font-family="-apple-system, BlinkMacSystemFont, 'Segoe UI', Helvetica, Arial, sans-serif">10K</text>
    <line x1="60" y1="244.6721671201615" x2="770" y2="244.6721671201615" class="chart-grid" stroke-opacity="0.3" />
    <text x="778" y="248.6721671201615" text-anchor="start" class="chart-muted" font-size="11" font-family="-apple-system, BlinkMacSystemFont, 'Segoe UI', Helvetica, Arial, sans-serif">20K</text>
    <line x1="60" y1="192.00825068024227" x2="770" y2="192.00825068024227" class="chart-grid" stroke-opacity="0.3" />
    <text x="778" y="196.00825068024227" text-anchor="start" class="chart-muted" font-size="11" font-family="-apple-system, BlinkMacSystemFont, 'Segoe UI', Helvetica, Arial, sans-serif">30K</text>
    <line x1="60" y1="139.344334240323" x2="770" y2="139.344334240323" class="chart-grid" stroke-opacity="0.3" />
    <text x="778" y="143.344334240323" text-anchor="start" class="chart-muted" font-size="11" font-family="-apple-system, BlinkMacSystemFont, 'Segoe UI', Helvetica, Arial, sans-serif">40K</text>
    <line x1="60" y1="86.68041780040375" x2="770" y2="86.68041780040375" class="chart-grid" stroke-opacity="0.3" />
    <text x="778" y="90.68041780040375" text-anchor="start" class="chart-muted" font-size="11" font-family="-apple-system, BlinkMacSystemFont, 'Segoe UI', Helvetica, Arial, sans-serif">50K</text>
    <line x1="60" y1="34.01650136048454" x2="770" y2="34.01650136048454" class="chart-grid" stroke-opacity="0.3" />
    <text x="778" y="38.01650136048454" text-anchor="start" class="chart-muted" font-size="11" font-family="-apple-system, BlinkMacSystemFont, 'Segoe UI', Helvetica, Arial, sans-serif">60K</text>
  </g>
  <g class="milestones">
    
  </g>
  <g class="x-axis">
    <text x="60" y="370" text-anchor="middle" class="chart-muted" font-size="11" font-family="-apple-system, BlinkMacSystemFont, 'Segoe UI', Helvetica, Arial, sans-serif">2024</text>
    <text x="353.7931034482759" y="370" text-anchor="middle" class="chart-muted" font-size="11" font-family="-apple-system, BlinkMacSystemFont, 'Segoe UI', Helvetica, Arial, sans-serif">2025</text>
    <text x="647.5862068965517" y="370" text-anchor="middle" class="chart-muted" font-size="11" font-family="-apple-system, BlinkMacSystemFont, 'Segoe UI', Helvetica, Arial, sans-serif">2026</text>
  </g>
  <line x1="770" y1="50" x2="770" y2="350" class="chart-axis" stroke-width="1" />
  <line x1="60" y1="350" x2="770" y2="350" class="chart-axis" stroke-width="1" />
  <path d="M60,350 L60,349.9315369086281 L84.48275862068965,342.9798999385588 L108.9655172413793,307.8688668480646 L133.44827586206895,286.8033002720969 L157.9310344827586,279.78320021065565 L182.41379310344828,272.75783375757044 L206.89655172413794,269.74019134556306 L231.3793103448276,265.7377336961292 L255.86206896551724,265.7377336961292 L280.34482758620686,258.71763363468796 L304.82758620689657,202.54103396822612 L329.3103448275862,195.52093390678488 L353.7931034482759,188.49556745369964 L378.2758620689655,181.4754673922584 L402.7586206896552,181.4754673922584 L427.2413793103448,174.45536733081718 L451.7241379310345,171.08487667866234 L476.2068965517241,167.43000087773194 L500.6896551724138,167.43000087773194 L525.1724137931035,160.40990081629073 L549.6551724137931,139.344334240323 L574.1379310344828,132.4453611866936 L598.6206896551724,125.55165452470814 L623.1034482758621,118.65268147107875 L647.5862068965517,111.7537084174493 L672.0689655172414,104.86000175546388 L696.551724137931,97.96102870183446 L721.0344827586207,91.06205564820505 L745.5172413793103,84.1683489862196 L770,77.26937593259015 L770,350 L60,350 Z" fill="#6b63ff" fill-opacity="0.1" />
  <path d="M60,350 L60,349.9315369086281 L84.48275862068965,342.9798999385588 L108.9655172413793,307.8688668480646 L133.44827586206895,286.8033002720969 L157.9310344827586,279.78320021065565 L182.41379310344828,272.75783375757044 L206.89655172413794,269.74019134556306 L231.3793103448276,265.7377336961292 L255.86206896551724,265.7377336961292 L280.34482758620686,258.71763363468796 L304.82758620689657,202.54103396822612 L329.3103448275862,195.52093390678488 L353.7931034482759,188.49556745369964 L378.2758620689655,181.4754673922584 L402.7586206896552,181.4754673922584 L427.2413793103448,174.45536733081718 L451.7241379310345,171.08487667866234 L476.2068965517241,167.43000087773194 L500.6896551724138,167.43000087773194 L525.1724137931035,160.40990081629073 L549.6551724137931,139.344334240323 L574.1379310344828,132.4453611866936 L598.6206896551724,125.55165452470814 L623.1034482758621,118.65268147107875 L647.5862068965517,111.7537084174493 L672.0689655172414,104.86000175546388 L696.551724137931,97.96102870183446 L721.0344827586207,91.06205564820505 L745.5172413793103,84.1683489862196 L770,77.26937593259015" fill="none" stroke="#6b63ff" stroke-width="2" class="data-line-0" />
  <g class="points">
    
    <circle cx="60" cy="349.9315369086281" r="4" fill="#6b63ff" class="data-point" style="animation-delay: 1.50s" />
    <circle cx="84.48275862068965" cy="342.9798999385588" r="4" fill="#6b63ff" class="data-point" style="animation-delay: 1.55s" />
    <circle cx="108.9655172413793" cy="307.8688668480646" r="4" fill="#6b63ff" class="data-point" style="animation-delay: 1.60s" />
    <circle cx="133.44827586206895" cy="286.8033002720969" r="4" fill="#6b63ff" class="data-point" style="animation-delay: 1.65s" />
    <circle cx="157.9310344827586" cy="279.78320021065565" r="4" fill="#6b63ff" class="data-point" style="animation-delay: 1.70s" />
    <circle cx="182.41379310344828" cy="272.75783375757044" r="4" fill="#6b63ff" class="data-point" style="animation-delay: 1.75s" />
    <circle cx="206.89655172413794" cy="269.74019134556306" r="4" fill="#6b63ff" class="data-point" style="animation-delay: 1.80s" />
    <circle cx="231.3793103448276" cy="265.7377336961292" r="4" fill="#6b63ff" class="data-point" style="animation-delay: 1.85s" />
    <circle cx="255.86206896551724" cy="265.7377336961292" r="4" fill="#6b63ff" class="data-point" style="animation-delay: 1.90s" />
    <circle cx="280.34482758620686" cy="258.71763363468796" r="4" fill="#6b63ff" class="data-point" style="animation-delay: 1.95s" />
    <circle cx="304.82758620689657" cy="202.54103396822612" r="4" fill="#6b63ff" class="data-point" style="animation-delay: 2.00s" />
    <circle cx="329.3103448275862" cy="195.52093390678488" r="4" fill="#6b63ff" class="data-point" style="animation-delay: 2.05s" />
    <circle cx="353.7931034482759" cy="188.49556745369964" r="4" fill="#6b63ff" class="data-point" style="animation-delay: 2.10s" />
    <circle cx="378.2758620689655" cy="181.4754673922584" r="4" fill="#6b63ff" class="data-point" style="animation-delay: 2.15s" />
    <circle cx="402.7586206896552" cy="181.4754673922584" r="4" fill="#6b63ff" class="data-point" style="animation-delay: 2.20s" />
    <circle cx="427.2413793103448" cy="174.45536733081718" r="4" fill="#6b63ff" class="data-point" style="animation-delay: 2.25s" />
    <circle cx="451.7241379310345" cy="171.08487667866234" r="4" fill="#6b63ff" class="data-point" style="animation-delay: 2.30s" />
    <circle cx="476.2068965517241" cy="167.43000087773194" r="4" fill="#6b63ff" class="data-point" style="animation-delay: 2.35s" />
    <circle cx="500.6896551724138" cy="167.43000087773194" r="4" fill="#6b63ff" class="data-point" style="animation-delay: 2.40s" />
    <circle cx="525.1724137931035" cy="160.40990081629073" r="4" fill="#6b63ff" class="data-point" style="animation-delay: 2.45s" />
    <circle cx="549.6551724137931" cy="139.344334240323" r="4" fill="#6b63ff" class="data-point" style="animation-delay: 2.50s" />
    <circle cx="574.1379310344828" cy="132.4453611866936" r="4" fill="#6b63ff" class="data-point" style="animation-delay: 2.55s" />
    <circle cx="598.6206896551724" cy="125.55165452470814" r="4" fill="#6b63ff" class="data-point" style="animation-delay: 2.60s" />
    <circle cx="623.1034482758621" cy="118.65268147107875" r="4" fill="#6b63ff" class="data-point" style="animation-delay: 2.65s" />
    <circle cx="647.5862068965517" cy="111.7537084174493" r="4" fill="#6b63ff" class="data-point" style="animation-delay: 2.70s" />
    <circle cx="672.0689655172414" cy="104.86000175546388" r="4" fill="#6b63ff" class="data-point" style="animation-delay: 2.75s" />
    <circle cx="696.551724137931" cy="97.96102870183446" r="4" fill="#6b63ff" class="data-point" style="animation-delay: 2.80s" />
    <circle cx="721.0344827586207" cy="91.06205564820505" r="4" fill="#6b63ff" class="data-point" style="animation-delay: 2.85s" />
    <circle cx="745.5172413793103" cy="84.1683489862196" r="4" fill="#6b63ff" class="data-point" style="animation-delay: 2.90s" />
    <circle cx="770" cy="77.26937593259015" r="4" fill="#6b63ff" class="data-point" style="animation-delay: 2.95s" />
  </g>
</svg>