<svg xmlns="http://www.w3.org/2000/svg" viewBox="0 0 800 400" width="800" height="400">
  <style>
    @keyframes drawLine {
      to { stroke-dashoffset: 0; }
    }
    @keyframes fadeInPoint {
      from { opacity: 0; }
      to { opacity: 1; }
    }
    .data-line-0 {
      stroke-dasharray: 1246;
      stroke-dashoffset: 1246;
      animation: drawLine 2s ease-out forwards;
    }
    .data-point {
      opacity: 0;
      animation: fadeInPoint 0.5s ease-out forwards;
    }
    .chart-bg { fill: #fff; }
    .chart-text { fill: #24292e; }
    .chart-muted { fill: #6a737d; }
    .chart-grid { stroke: #eee; }
    .chart-axis { stroke: #6a737d; }
    @media (prefers-color-scheme: dark) {
      .chart-bg { fill: #0d1117; }
      .chart-text { fill: #e6edf3; }
      .chart-muted { fill: #8b949e; }
      .chart-grid { stroke: #21262d; }
      .chart-axis { stroke: #8b949e; }
    }
  </style>
  <rect width="800" height="400" class="chart-bg" />
  <text x="400" y="34" text-anchor="middle" class="chart-text" font-size="16" font-weight="bold" font-family="-apple-system, BlinkMacSystemFont, 'Segoe UI', Helvetica, Arial, sans-serif">dockur/lemmy-ui Star History</text>
  
  <g class="grid">
    <line x1="60" y1="350" x2="770" y2="350" class="chart-grid" stroke-opacity="0.3" />
    <text x="778" y="354" text-anchor="start" class="chart-muted" font-size="11" font-family="-apple-system, BlinkMacSystemFont, 'Segoe UI', Helvetica, Arial, sans-serif">0</text>
    <line x1="60" y1="287.5" x2="770" y2="287.5" class="chart-grid" stroke-opacity="0.3" />
    <text x="778" y="291.5" text-anchor="start" class="chart-muted" font-size="11" font-family="-apple-system, BlinkMacSystemFont, 'Segoe UI', Helvetica, Arial, sans-serif">5</text>
    <line x1="60" y1="225" x2="770" y2="225" class="chart-grid" stroke-opacity="0.3" />
    <text x="778" y="229" text-anchor="start" class="chart-muted" font-size="11" font-family="-apple-system, BlinkMacSystemFont, 'Segoe UI', Helvetica, Arial, sans-serif">10</text>
    <line x1="60" y1="162.5" x2="770" y2="162.5" class="chart-grid" stroke-opacity="0.3" />
    <text x="778" y="166.5" text-anchor="start" class="chart-muted" font-size="11" font-family="-apple-system, BlinkMacSystemFont, 'Segoe UI', Helvetica, Arial, sans-serif">15</text>
    <line x1="60" y1="100" x2="770" y2="100" class="chart-grid" stroke-opacity="0.3" />
    <text x="778" y="104" text-anchor="start" class="chart-muted" font-size="11" font-family="-apple-system, BlinkMacSystemFont, 'Segoe UI', Helvetica, Arial, sans-serif">20</text>
    <line x1="60" y1="37.5" x2="770" y2="37.5" class="chart-grid" stroke-opacity="0.3" />
    <text x="778" y="41.5" text-anchor="start" class="chart-muted" font-size="11" font-family="-apple-system, BlinkMacSystemFont, 'Segoe UI', Helvetica, Arial, sans-serif">25</text>
  </g>
  <g class="milestones">
    
  </g>
  <g class="x-axis">
    <text x="60" y="370" text-anchor="middle" class="chart-muted" font-size="11" font-family="-apple-system, BlinkMacSystemFont, 'Segoe UI', Helvetica, Arial, sans-serif">Apr 1</text>
    <text x="133.44827586206895" y="370" text-anchor="middle" class="chart-muted" font-size="11" font-family="-apple-system, BlinkMacSystemFont, 'Segoe UI', Helvetica, Arial, sans-serif">Aug 1</text>
    <text x="206.89655172413794" y="370" text-anchor="middle" class="chart-muted" font-size="11" font-family="-apple-system, BlinkMacSystemFont, 'Segoe UI', Helvetica, Arial, sans-serif">Dec 2</text>
    <text x="280.34482758620686" y="370" text-anchor="middle" class="chart-muted" font-size="11" font-family="-apple-system, BlinkMacSystemFont, 'Segoe UI', Helvetica, Arial, sans-serif">Apr 2</text>
    <text x="353.7931034482759" y="370" text-anchor="middle" class="chart-muted" font-size="11" font-family="-apple-system, BlinkMacSystemFont, 'Segoe UI', Helvetica, Arial, sans-serif">Aug 2</text>
    <text x="427.2413793103448" y="370" text-anchor="middle" class="chart-muted" font-size="11" font-family="-apple-system, BlinkMacSystemFont, 'Segoe UI', Helvetica, Arial, sans-serif">Dec 2</text>
    <text x="500.6896551724138" y="370" text-anchor="middle" class="chart-muted" font-size="11" font-family="-apple-system, BlinkMacSystemFont, 'Segoe UI', Helvetica, Arial, sans-serif">Apr 3</text>
    <text x="574.1379310344828" y="370" text-anchor="middle" class="chart-muted" font-size="11" font-family="-apple-system, BlinkMacSystemFont, 'Segoe UI', Helvetica, Arial, sans-serif">Aug 3</text>
    <text x="647.5862068965517" y="370" text-anchor="middle" class="chart-muted" font-size="11" font-family="-apple-system, BlinkMacSystemFont, 'Segoe UI', Helvetica, Arial, sans-serif">Dec 3</text>
    <text x="721.0344827586207" y="370" text-anchor="middle" class="chart-muted" font-size="11" font-family="-apple-system, BlinkMacSystemFont, 'Segoe UI', Helvetica, Arial, sans-serif">Apr 4</text>
    <text x="770" y="370" text-anchor="middle" class="chart-muted" font-size="11" font-family="-apple-system, BlinkMacSystemFont, 'Segoe UI', Helvetica, Arial, sans-serif">Jun 25</text>
  </g>
  <line x1="770" y1="50" x2="770" y2="350" class="chart-axis" stroke-width="1" />
  <line x1="60" y1="350" x2="770" y2="350" class="chart-axis" stroke-width="1" />
  <path d="M60,350 L84.48275862068965,350 L108.9655172413793,350 L133.44827586206895,350 L157.9310344827586,350 L182.41379310344828,350 L206.89655172413794,350 L231.3793103448276,350 L255.86206896551724,350 L280.34482758620686,337.5 L304.82758620689657,312.5 L329.3103448275862,312.5 L353.7931034482759,312.5 L378.2758620689655,312.5 L402.7586206896552,312.5 L427.2413793103448,300 L451.7241379310345,300 L476.2068965517241,237.5 L500.6896551724138,237.5 L525.1724137931035,225 L549.6551724137931,212.5 L574.1379310344828,212.5 L598.6206896551724,175 L623.1034482758621,150 L647.5862068965517,125 L672.0689655172414,125 L696.551724137931,125 L721.0344827586207,112.5 L745.5172413793103,112.5 L770,87.5 L770,350 L60,350 Z" fill="#6b63ff" fill-opacity="0.1" />
  <path d="M60,350 L84.48275862068965,350 L108.9655172413793,350 L133.44827586206895,350 L157.9310344827586,350 L182.41379310344828,350 L206.89655172413794,350 L231.3793103448276,350 L255.86206896551724,350 L280.34482758620686,337.5 L304.82758620689657,312.5 L329.3103448275862,312.5 L353.7931034482759,312.5 L378.2758620689655,312.5 L402.7586206896552,312.5 L427.2413793103448,300 L451.7241379310345,300 L476.2068965517241,237.5 L500.6896551724138,237.5 L525.1724137931035,225 L549.6551724137931,212.5 L574.1379310344828,212.5 L598.6206896551724,175 L623.1034482758621,150 L647.5862068965517,125 L672.0689655172414,125 L696.551724137931,125 L721.0344827586207,112.5 L745.5172413793103,112.5 L770,87.5" fill="none" stroke="#6b63ff" stroke-width="2" class="data-line-0" />
  <g class="points">
    
    <circle cx="60" cy="350" r="4" fill="#6b63ff" class="data-point" style="animation-delay: 1.50s" />
    <circle cx="84.48275862068965" cy="350" r="4" fill="#6b63ff" class="data-point" style="animation-delay: 1.55s" />
    <circle cx="108.9655172413793" cy="350" r="4" fill="#6b63ff" class="data-point" style="animation-delay: 1.60s" />
    <circle cx="133.44827586206895" cy="350" r="4" fill="#6b63ff" class="data-point" style="animation-delay: 1.65s" />
    <circle cx="157.9310344827586" cy="350" r="4" fill="#6b63ff" class="data-point" style="animation-delay: 1.70s" />
    <circle cx="182.41379310344828" cy="350" r="4" fill="#6b63ff" class="data-point" style="animation-delay: 1.75s" />
    <circle cx="206.89655172413794" cy="350" r="4" fill="#6b63ff" class="data-point" style="animation-delay: 1.80s" />
    <circle cx="231.3793103448276" cy="350" r="4" fill="#6b63ff" class="data-point" style="animation-delay: 1.85s" />
    <circle cx="255.86206896551724" cy="350" r="4" fill="#6b63ff" class="data-point" style="animation-delay: 1.90s" />
    <circle cx="280.34482758620686" cy="337.5" r="4" fill="#6b63ff" class="data-point" style="animation-delay: 1.95s" />
    <circle cx="304.82758620689657" cy="312.5" r="4" fill="#6b63ff" class="data-point" style="animation-delay: 2.00s" />
    <circle cx="329.3103448275862" cy="312.5" r="4" fill="#6b63ff" class="data-point" style="animation-delay: 2.05s" />
    <circle cx="353.7931034482759" cy="312.5" r="4" fill="#6b63ff" class="data-point" style="animation-delay: 2.10s" />
    <circle cx="378.2758620689655" cy="312.5" r="4" fill="#6b63ff" class="data-point" style="animation-delay: 2.15s" />
    <circle cx="402.7586206896552" cy="312.5" r="4" fill="#6b63ff" class="data-point" style="animation-delay: 2.20s" />
    <circle cx="427.2413793103448" cy="300" r="4" fill="#6b63ff" class="data-point" style="animation-delay: 2.25s" />
    <circle cx="451.7241379310345" cy="300" r="4" fill="#6b63ff" class="data-point" style="animation-delay: 2.30s" />
    <circle cx="476.2068965517241" cy="237.5" r="4" fill="#6b63ff" class="data-point" style="animation-delay: 2.35s" />
    <circle cx="500.6896551724138" cy="237.5" r="4" fill="#6b63ff" class="data-point" style="animation-delay: 2.40s" />
    <circle cx="525.1724137931035" cy="225" r="4" fill="#6b63ff" class="data-point" style="animation-delay: 2.45s" />
    <circle cx="549.6551724137931" cy="212.5" r="4" fill="#6b63ff" class="data-point" style="animation-delay: 2.50s" />
    <circle cx="574.1379310344828" cy="212.5" r="4" fill="#6b63ff" class="data-point" style="animation-delay: 2.55s" />
    <circle cx="598.6206896551724" cy="175" r="4" fill="#6b63ff" class="data-point" style="animation-delay: 2.60s" />
    <circle cx="623.1034482758621" cy="150" r="4" fill="#6b63ff" class="data-point" style="animation-delay: 2.65s" />
    <circle cx="647.5862068965517" cy="125" r="4" fill="#6b63ff" class="data-point" style="animation-delay: 2.70s" />
    <circle cx="672.0689655172414" cy="125" r="4" fill="#6b63ff" class="data-point" style="animation-delay: 2.75s" />
    <circle cx="696.551724137931" cy="125" r="4" fill="#6b63ff" class="data-point" style="animation-delay: 2.80s" />
    <circle cx="721.0344827586207" cy="112.5" r="4" fill="#6b63ff" class="data-point" style="animation-delay: 2.85s" />
    <circle cx="745.5172413793103" cy="112.5" r="4" fill="#6b63ff" class="data-point" style="animation-delay: 2.90s" />
    <circle cx="770" cy="87.5" r="4" fill="#6b63ff" class="data-point" style="animation-delay: 2.95s" />
  </g>
</svg>