<svg xmlns="http://www.w3.org/2000/svg" viewBox="0 0 800 400" width="800" height="400">
  <style>
    @keyframes drawLine {
      to { stroke-dashoffset: 0; }
    }
    @keyframes fadeInPoint {
      from { opacity: 0; }
      to { opacity: 1; }
    }
    .data-line-0 {
      stroke-dasharray: 1267;
      stroke-dashoffset: 1267;
      animation: drawLine 2s ease-out forwards;
    }
    .data-point {
      opacity: 0;
      animation: fadeInPoint 0.5s ease-out forwards;
    }
    .chart-bg { fill: #fff; }
    .chart-text { fill: #24292e; }
    .chart-muted { fill: #6a737d; }
    .chart-grid { stroke: #eee; }
    .chart-axis { stroke: #6a737d; }
    @media (prefers-color-scheme: dark) {
      .chart-bg { fill: #0d1117; }
      .chart-text { fill: #e6edf3; }
      .chart-muted { fill: #8b949e; }
      .chart-grid { stroke: #21262d; }
      .chart-axis { stroke: #8b949e; }
    }
  </style>
  <rect width="800" height="400" class="chart-bg" />
  <text x="400" y="14" text-anchor="middle" class="chart-text" font-size="16" font-weight="bold" font-family="-apple-system, BlinkMacSystemFont, 'Segoe UI', Helvetica, Arial, sans-serif">dockur/macos Star History</text>
  
  <g class="grid">
    <line x1="60" y1="350" x2="770" y2="350" class="chart-grid" stroke-opacity="0.3" />
    <text x="778" y="354" text-anchor="start" class="chart-muted" font-size="11" font-family="-apple-system, BlinkMacSystemFont, 'Segoe UI', Helvetica, Arial, sans-serif">0</text>
    <line x1="60" y1="283.0416927060084" x2="770" y2="283.0416927060084" class="chart-grid" stroke-opacity="0.3" />
    <text x="778" y="287.0416927060084" text-anchor="start" class="chart-muted" font-size="11" font-family="-apple-system, BlinkMacSystemFont, 'Segoe UI', Helvetica, Arial, sans-serif">5K</text>
    <line x1="60" y1="216.08338541201678" x2="770" y2="216.08338541201678" class="chart-grid" stroke-opacity="0.3" />
    <text x="778" y="220.08338541201678" text-anchor="start" class="chart-muted" font-size="11" font-family="-apple-system, BlinkMacSystemFont, 'Segoe UI', Helvetica, Arial, sans-serif">10K</text>
    <line x1="60" y1="149.1250781180252" x2="770" y2="149.1250781180252" class="chart-grid" stroke-opacity="0.3" />
    <text x="778" y="153.1250781180252" text-anchor="start" class="chart-muted" font-size="11" font-family="-apple-system, BlinkMacSystemFont, 'Segoe UI', Helvetica, Arial, sans-serif">15K</text>
    <line x1="60" y1="82.16677082403356" x2="770" y2="82.16677082403356" class="chart-grid" stroke-opacity="0.3" />
    <text x="778" y="86.16677082403356" text-anchor="start" class="chart-muted" font-size="11" font-family="-apple-system, BlinkMacSystemFont, 'Segoe UI', Helvetica, Arial, sans-serif">20K</text>
  </g>
  <g class="milestones">
    
  </g>
  <g class="x-axis">
    <text x="60" y="370" text-anchor="middle" class="chart-muted" font-size="11" font-family="-apple-system, BlinkMacSystemFont, 'Segoe UI', Helvetica, Arial, sans-serif">2024</text>
    <text x="280.34482758620686" y="370" text-anchor="middle" class="chart-muted" font-size="11" font-family="-apple-system, BlinkMacSystemFont, 'Segoe UI', Helvetica, Arial, sans-serif">2025</text>
    <text x="623.1034482758621" y="370" text-anchor="middle" class="chart-muted" font-size="11" font-family="-apple-system, BlinkMacSystemFont, 'Segoe UI', Helvetica, Arial, sans-serif">2026</text>
  </g>
  <line x1="770" y1="50" x2="770" y2="350" class="chart-axis" stroke-width="1" />
  <line x1="60" y1="350" x2="770" y2="350" class="chart-axis" stroke-width="1" />
  <path d="M60,350 L60,349.9062583697884 C63.264367816091955,348.6920810641907 77.95402298850574,342.01410588340326 84.48275862068965,340.79992857780553 C91.01149425287356,340.79992857780553 102.43678160919539,340.79992857780553 108.9655172413793,340.79992857780553 C115.49425287356321,340.79992857780553 126.91954022988504,340.79992857780553 133.44827586206895,340.79992857780553 C139.97701149425285,340.79992857780553 151.40229885057468,340.79992857780553 157.9310344827586,340.79992857780553 C164.45977011494253,340.79992857780553 175.88505747126436,340.79992857780553 182.41379310344828,340.79992857780553 C188.9425287356322,339.9303633604142 200.36781609195404,340.79992857780553 206.89655172413794,334.2781894473708 C213.42528735632183,319.56700294616553 224.8505747126437,245.53432729220606 231.3793103448276,230.46602981876617 C237.90804597701148,221.26595839657173 249.33333333333334,223.04437103830014 255.86206896551724,221.26595839657173 C262.39080459770116,219.48754575484332 273.81609195402297,219.57950183019375 280.34482758620686,217.12793500580307 C286.87356321839076,214.67636818141239 298.2988505747127,204.77903758592984 304.82758620689657,202.87920721364165 C311.35632183908046,202.87920721364165 322.7816091954023,202.87920721364165 329.3103448275862,202.87920721364165 C335.8390804597701,202.87920721364165 347.264367816092,202.87920721364165 353.7931034482759,202.87920721364165 C360.32183908045977,201.65253102401573 371.7471264367816,194.9058119810731 378.2758620689655,193.67913579144718 C384.8045977011494,193.67913579144718 396.2298850574713,193.67913579144718 402.7586206896552,193.67913579144718 C409.28735632183907,193.67913579144718 420.71264367816093,193.67913579144718 427.2413793103448,193.67913579144718 C433.7701149425287,186.96009284885278 445.1954022988506,150.6427997500223 451.7241379310345,143.2863137219891 C458.2528735632184,138.5054905811981 469.67816091954023,140.36960985626283 476.2068965517241,138.5054905811981 C482.735632183908,136.64137130613338 494.1609195402299,131.75698598339434 500.6896551724138,129.30541915900366 C507.2183908045977,126.85385233461298 518.6436781609195,121.34363003303275 525.1724137931035,120.11873939826799 C531.7011494252874,120.11873939826799 543.1264367816092,120.11873939826799 549.6551724137931,120.11873939826799 C556.1839080459771,118.89206320864207 567.6091954022988,112.14534416569947 574.1379310344828,110.91866797607355 C580.6666666666667,110.91866797607355 592.0919540229885,110.91866797607355 598.6206896551724,110.91866797607355 C605.1494252873564,110.67404696009284 616.5747126436781,110.3106865458441 623.1034482758621,109.08401035621819 C629.632183908046,107.85733416659227 641.0574712643678,102.70065172752432 647.5862068965517,101.71859655387911 C654.1149425287357,101.71859655387911 665.5402298850574,101.71859655387911 672.0689655172414,101.71859655387911 C678.5977011494253,100.49370591911436 690.0229885057471,93.75680742790821 696.551724137931,92.53191679314347 C703.080459770115,92.53191679314347 714.5057471264367,92.53191679314347 721.0344827586207,92.53191679314347 C727.5632183908046,91.30524060351753 738.9885057471264,85.36737791268635 745.5172413793103,83.331845370949 C752.0459770114943,81.29631282921164 766.735632183908,78.07427908222478 770,77.26542273011336 L770,350 L60,350 Z" fill="#6b63ff" fill-opacity="0.1" />
  <path d="M60,350 L60,349.9062583697884 C63.264367816091955,348.6920810641907 77.95402298850574,342.01410588340326 84.48275862068965,340.79992857780553 C91.01149425287356,340.79992857780553 102.43678160919539,340.79992857780553 108.9655172413793,340.79992857780553 C115.49425287356321,340.79992857780553 126.91954022988504,340.79992857780553 133.44827586206895,340.79992857780553 C139.97701149425285,340.79992857780553 151.40229885057468,340.79992857780553 157.9310344827586,340.79992857780553 C164.45977011494253,340.79992857780553 175.88505747126436,340.79992857780553 182.41379310344828,340.79992857780553 C188.9425287356322,339.9303633604142 200.36781609195404,340.79992857780553 206.89655172413794,334.2781894473708 C213.42528735632183,319.56700294616553 224.8505747126437,245.53432729220606 231.3793103448276,230.46602981876617 C237.90804597701148,221.26595839657173 249.33333333333334,223.04437103830014 255.86206896551724,221.26595839657173 C262.39080459770116,219.48754575484332 273.81609195402297,219.57950183019375 280.34482758620686,217.12793500580307 C286.87356321839076,214.67636818141239 298.2988505747127,204.77903758592984 304.82758620689657,202.87920721364165 C311.35632183908046,202.87920721364165 322.7816091954023,202.87920721364165 329.3103448275862,202.87920721364165 C335.8390804597701,202.87920721364165 347.264367816092,202.87920721364165 353.7931034482759,202.87920721364165 C360.32183908045977,201.65253102401573 371.7471264367816,194.9058119810731 378.2758620689655,193.67913579144718 C384.8045977011494,193.67913579144718 396.2298850574713,193.67913579144718 402.7586206896552,193.67913579144718 C409.28735632183907,193.67913579144718 420.71264367816093,193.67913579144718 427.2413793103448,193.67913579144718 C433.7701149425287,186.96009284885278 445.1954022988506,150.6427997500223 451.7241379310345,143.2863137219891 C458.2528735632184,138.5054905811981 469.67816091954023,140.36960985626283 476.2068965517241,138.5054905811981 C482.735632183908,136.64137130613338 494.1609195402299,131.75698598339434 500.6896551724138,129.30541915900366 C507.2183908045977,126.85385233461298 518.6436781609195,121.34363003303275 525.1724137931035,120.11873939826799 C531.7011494252874,120.11873939826799 543.1264367816092,120.11873939826799 549.6551724137931,120.11873939826799 C556.1839080459771,118.89206320864207 567.6091954022988,112.14534416569947 574.1379310344828,110.91866797607355 C580.6666666666667,110.91866797607355 592.0919540229885,110.91866797607355 598.6206896551724,110.91866797607355 C605.1494252873564,110.67404696009284 616.5747126436781,110.3106865458441 623.1034482758621,109.08401035621819 C629.632183908046,107.85733416659227 641.0574712643678,102.70065172752432 647.5862068965517,101.71859655387911 C654.1149425287357,101.71859655387911 665.5402298850574,101.71859655387911 672.0689655172414,101.71859655387911 C678.5977011494253,100.49370591911436 690.0229885057471,93.75680742790821 696.551724137931,92.53191679314347 C703.080459770115,92.53191679314347 714.5057471264367,92.53191679314347 721.0344827586207,92.53191679314347 C727.5632183908046,91.30524060351753 738.9885057471264,85.36737791268635 745.5172413793103,83.331845370949 C752.0459770114943,81.29631282921164 766.735632183908,78.07427908222478 770,77.26542273011336" fill="none" stroke="#6b63ff" stroke-width="2.5" class="data-line-0" />
  <g class="points">
    
    <circle cx="60" cy="349.9062583697884" r="4" fill="#6b63ff" class="data-point" style="animation-delay: 1.50s" />
    <circle cx="84.48275862068965" cy="340.79992857780553" r="4" fill="#6b63ff" class="data-point" style="animation-delay: 1.55s" />
    <circle cx="108.9655172413793" cy="340.79992857780553" r="4" fill="#6b63ff" class="data-point" style="animation-delay: 1.60s" />
    <circle cx="133.44827586206895" cy="340.79992857780553" r="4" fill="#6b63ff" class="data-point" style="animation-delay: 1.65s" />
    <circle cx="157.9310344827586" cy="340.79992857780553" r="4" fill="#6b63ff" class="data-point" style="animation-delay: 1.70s" />
    <circle cx="182.41379310344828" cy="340.79992857780553" r="4" fill="#6b63ff" class="data-point" style="animation-delay: 1.75s" />
    <circle cx="206.89655172413794" cy="334.2781894473708" r="4" fill="#6b63ff" class="data-point" style="animation-delay: 1.80s" />
    <circle cx="231.3793103448276" cy="230.46602981876617" r="4" fill="#6b63ff" class="data-point" style="animation-delay: 1.85s" />
    <circle cx="255.86206896551724" cy="221.26595839657173" r="4" fill="#6b63ff" class="data-point" style="animation-delay: 1.90s" />
    <circle cx="280.34482758620686" cy="217.12793500580307" r="4" fill="#6b63ff" class="data-point" style="animation-delay: 1.95s" />
    <circle cx="304.82758620689657" cy="202.87920721364165" r="4" fill="#6b63ff" class="data-point" style="animation-delay: 2.00s" />
    <circle cx="329.3103448275862" cy="202.87920721364165" r="4" fill="#6b63ff" class="data-point" style="animation-delay: 2.05s" />
    <circle cx="353.7931034482759" cy="202.87920721364165" r="4" fill="#6b63ff" class="data-point" style="animation-delay: 2.10s" />
    <circle cx="378.2758620689655" cy="193.67913579144718" r="4" fill="#6b63ff" class="data-point" style="animation-delay: 2.15s" />
    <circle cx="402.7586206896552" cy="193.67913579144718" r="4" fill="#6b63ff" class="data-point" style="animation-delay: 2.20s" />
    <circle cx="427.2413793103448" cy="193.67913579144718" r="4" fill="#6b63ff" class="data-point" style="animation-delay: 2.25s" />
    <circle cx="451.7241379310345" cy="143.2863137219891" r="4" fill="#6b63ff" class="data-point" style="animation-delay: 2.30s" />
    <circle cx="476.2068965517241" cy="138.5054905811981" r="4" fill="#6b63ff" class="data-point" style="animation-delay: 2.35s" />
    <circle cx="500.6896551724138" cy="129.30541915900366" r="4" fill="#6b63ff" class="data-point" style="animation-delay: 2.40s" />
    <circle cx="525.1724137931035" cy="120.11873939826799" r="4" fill="#6b63ff" class="data-point" style="animation-delay: 2.45s" />
    <circle cx="549.6551724137931" cy="120.11873939826799" r="4" fill="#6b63ff" class="data-point" style="animation-delay: 2.50s" />
    <circle cx="574.1379310344828" cy="110.91866797607355" r="4" fill="#6b63ff" class="data-point" style="animation-delay: 2.55s" />
    <circle cx="598.6206896551724" cy="110.91866797607355" r="4" fill="#6b63ff" class="data-point" style="animation-delay: 2.60s" />
    <circle cx="623.1034482758621" cy="109.08401035621819" r="4" fill="#6b63ff" class="data-point" style="animation-delay: 2.65s" />
    <circle cx="647.5862068965517" cy="101.71859655387911" r="4" fill="#6b63ff" class="data-point" style="animation-delay: 2.70s" />
    <circle cx="672.0689655172414" cy="101.71859655387911" r="4" fill="#6b63ff" class="data-point" style="animation-delay: 2.75s" />
    <circle cx="696.551724137931" cy="92.53191679314347" r="4" fill="#6b63ff" class="data-point" style="animation-delay: 2.80s" />
    <circle cx="721.0344827586207" cy="92.53191679314347" r="4" fill="#6b63ff" class="data-point" style="animation-delay: 2.85s" />
    <circle cx="745.5172413793103" cy="83.331845370949" r="4" fill="#6b63ff" class="data-point" style="animation-delay: 2.90s" />
    <circle cx="770" cy="77.26542273011336" r="4" fill="#6b63ff" class="data-point" style="animation-delay: 2.95s" />
  </g>
</svg>