<svg xmlns="http://www.w3.org/2000/svg" viewBox="0 0 800 400" width="800" height="400">
  <style>
    @keyframes drawLine {
      to { stroke-dashoffset: 0; }
    }
    @keyframes fadeInPoint {
      from { opacity: 0; }
      to { opacity: 1; }
    }
    .data-line-0 {
      stroke-dasharray: 1267;
      stroke-dashoffset: 1267;
      animation: drawLine 2s ease-out forwards;
    }
    .data-point {
      opacity: 0;
      animation: fadeInPoint 0.5s ease-out forwards;
    }
    .chart-bg { fill: #fff; }
    .chart-text { fill: #24292e; }
    .chart-muted { fill: #6a737d; }
    .chart-grid { stroke: #eee; }
    .chart-axis { stroke: #6a737d; }
    @media (prefers-color-scheme: dark) {
      .chart-bg { fill: #0d1117; }
      .chart-text { fill: #e6edf3; }
      .chart-muted { fill: #8b949e; }
      .chart-grid { stroke: #21262d; }
      .chart-axis { stroke: #8b949e; }
    }
  </style>
  <rect width="800" height="400" class="chart-bg" />
  <text x="400" y="14" text-anchor="middle" class="chart-text" font-size="16" font-weight="bold" font-family="-apple-system, BlinkMacSystemFont, 'Segoe UI', Helvetica, Arial, sans-serif">dockur/macos Star History</text>
  
  <g class="grid">
    <line x1="60" y1="350" x2="770" y2="350" class="chart-grid" stroke-opacity="0.3" />
    <text x="778" y="354" text-anchor="start" class="chart-muted" font-size="11" font-family="-apple-system, BlinkMacSystemFont, 'Segoe UI', Helvetica, Arial, sans-serif">0</text>
    <line x1="60" y1="283.0536463447291" x2="770" y2="283.0536463447291" class="chart-grid" stroke-opacity="0.3" />
    <text x="778" y="287.0536463447291" text-anchor="start" class="chart-muted" font-size="11" font-family="-apple-system, BlinkMacSystemFont, 'Segoe UI', Helvetica, Arial, sans-serif">5K</text>
    <line x1="60" y1="216.10729268945818" x2="770" y2="216.10729268945818" class="chart-grid" stroke-opacity="0.3" />
    <text x="778" y="220.10729268945818" text-anchor="start" class="chart-muted" font-size="11" font-family="-apple-system, BlinkMacSystemFont, 'Segoe UI', Helvetica, Arial, sans-serif">10K</text>
    <line x1="60" y1="149.16093903418727" x2="770" y2="149.16093903418727" class="chart-grid" stroke-opacity="0.3" />
    <text x="778" y="153.16093903418727" text-anchor="start" class="chart-muted" font-size="11" font-family="-apple-system, BlinkMacSystemFont, 'Segoe UI', Helvetica, Arial, sans-serif">15K</text>
    <line x1="60" y1="82.21458537891635" x2="770" y2="82.21458537891635" class="chart-grid" stroke-opacity="0.3" />
    <text x="778" y="86.21458537891635" text-anchor="start" class="chart-muted" font-size="11" font-family="-apple-system, BlinkMacSystemFont, 'Segoe UI', Helvetica, Arial, sans-serif">20K</text>
  </g>
  <g class="milestones">
    
  </g>
  <g class="x-axis">
    <text x="60" y="370" text-anchor="middle" class="chart-muted" font-size="11" font-family="-apple-system, BlinkMacSystemFont, 'Segoe UI', Helvetica, Arial, sans-serif">2024</text>
    <text x="280.34482758620686" y="370" text-anchor="middle" class="chart-muted" font-size="11" font-family="-apple-system, BlinkMacSystemFont, 'Segoe UI', Helvetica, Arial, sans-serif">2025</text>
    <text x="623.1034482758621" y="370" text-anchor="middle" class="chart-muted" font-size="11" font-family="-apple-system, BlinkMacSystemFont, 'Segoe UI', Helvetica, Arial, sans-serif">2026</text>
  </g>
  <line x1="770" y1="50" x2="770" y2="350" class="chart-axis" stroke-width="1" />
  <line x1="60" y1="350" x2="770" y2="350" class="chart-axis" stroke-width="1" />
  <path d="M60,350 L60,349.90627510488264 C68.16091954022988,346.8758368294207 76.32183908045977,340.8149602784968 84.48275862068965,340.8149602784968 C92.64367816091954,340.8149602784968 100.80459770114942,340.8149602784968 108.9655172413793,340.8149602784968 C117.12643678160919,340.8149602784968 125.28735632183907,340.8149602784968 133.44827586206895,340.8149602784968 C141.60919540229884,340.8149602784968 149.77011494252872,340.8149602784968 157.9310344827586,340.8149602784968 C166.0919540229885,340.8149602784968 174.2528735632184,340.8149602784968 182.41379310344828,340.8149602784968 C190.57471264367817,340.8149602784968 198.73563218390805,340.8149602784968 206.89655172413794,334.20066053735604 C215.05747126436782,327.5863607962153 223.2183908045977,239.69929167034448 231.3793103448276,230.58109434972775 C239.54022988505747,221.46289702911102 247.70114942528735,222.50214337144953 255.86206896551724,221.39605462822456 C264.0229885057471,220.2899658849996 272.183908045977,219.9589395697581 280.34482758620686,216.8972596625904 C288.50574712643675,213.83557975542266 296.6666666666667,203.02597518521824 304.82758620689657,203.02597518521824 C312.98850574712645,203.02597518521824 321.14942528735634,203.02597518521824 329.3103448275862,203.02597518521824 C337.4712643678161,203.02597518521824 345.632183908046,203.02597518521824 353.7931034482759,203.02597518521824 C361.95402298850576,203.02597518521824 370.11494252873564,193.84093546371506 378.2758620689655,193.84093546371506 C386.4367816091954,193.84093546371506 394.5977011494253,193.84093546371506 402.7586206896552,193.84093546371506 C410.91954022988506,193.84093546371506 419.08045977011494,193.84093546371506 427.2413793103448,193.84093546371506 C435.4022988505747,193.84093546371506 443.5632183908046,147.41271389026502 451.7241379310345,143.1357672052129 C459.88505747126436,138.85882052016075 468.04597701149424,139.78538636825482 476.2068965517241,138.73069713469604 C484.367816091954,137.67600790113727 492.5287356321839,132.60733732036059 500.6896551724138,129.54565741319288 C508.85057471264366,126.48397750602517 517.0114942528736,120.36061769168975 525.1724137931035,120.36061769168975 C533.3333333333334,120.36061769168975 541.4942528735633,120.36061769168975 549.6551724137931,120.36061769168975 C557.816091954023,120.36061769168975 565.9770114942529,111.17557797018657 574.1379310344828,111.17557797018657 C582.2988505747127,111.17557797018657 590.4597701149426,111.17557797018657 598.6206896551724,111.17557797018657 C606.7816091954023,111.17557797018657 614.9425287356322,110.7672052128894 623.1034482758621,109.23413371418368 C631.264367816092,107.70106221547798 639.4252873563219,101.97714897795234 647.5862068965517,101.97714897795234 C655.7471264367816,101.97714897795234 663.9080459770115,101.97714897795234 672.0689655172414,101.97714897795234 C680.2298850574713,101.97714897795234 688.3908045977012,92.79210925644912 696.551724137931,92.79210925644912 C704.7126436781609,92.79210925644912 712.8735632183908,92.79210925644912 721.0344827586207,92.79210925644912 C729.1954022988506,92.79210925644912 737.3563218390805,86.19343033116128 745.5172413793103,83.60706953494599 C753.6781609195402,81.0207087387307 761.8390804597701,79.38498616442024 770,77.27394447915736 L770,350 L60,350 Z" fill="#6b63ff" fill-opacity="0.1" />
  <path d="M60,350 L60,349.90627510488264 C68.16091954022988,346.8758368294207 76.32183908045977,340.8149602784968 84.48275862068965,340.8149602784968 C92.64367816091954,340.8149602784968 100.80459770114942,340.8149602784968 108.9655172413793,340.8149602784968 C117.12643678160919,340.8149602784968 125.28735632183907,340.8149602784968 133.44827586206895,340.8149602784968 C141.60919540229884,340.8149602784968 149.77011494252872,340.8149602784968 157.9310344827586,340.8149602784968 C166.0919540229885,340.8149602784968 174.2528735632184,340.8149602784968 182.41379310344828,340.8149602784968 C190.57471264367817,340.8149602784968 198.73563218390805,340.8149602784968 206.89655172413794,334.20066053735604 C215.05747126436782,327.5863607962153 223.2183908045977,239.69929167034448 231.3793103448276,230.58109434972775 C239.54022988505747,221.46289702911102 247.70114942528735,222.50214337144953 255.86206896551724,221.39605462822456 C264.0229885057471,220.2899658849996 272.183908045977,219.9589395697581 280.34482758620686,216.8972596625904 C288.50574712643675,213.83557975542266 296.6666666666667,203.02597518521824 304.82758620689657,203.02597518521824 C312.98850574712645,203.02597518521824 321.14942528735634,203.02597518521824 329.3103448275862,203.02597518521824 C337.4712643678161,203.02597518521824 345.632183908046,203.02597518521824 353.7931034482759,203.02597518521824 C361.95402298850576,203.02597518521824 370.11494252873564,193.84093546371506 378.2758620689655,193.84093546371506 C386.4367816091954,193.84093546371506 394.5977011494253,193.84093546371506 402.7586206896552,193.84093546371506 C410.91954022988506,193.84093546371506 419.08045977011494,193.84093546371506 427.2413793103448,193.84093546371506 C435.4022988505747,193.84093546371506 443.5632183908046,147.41271389026502 451.7241379310345,143.1357672052129 C459.88505747126436,138.85882052016075 468.04597701149424,139.78538636825482 476.2068965517241,138.73069713469604 C484.367816091954,137.67600790113727 492.5287356321839,132.60733732036059 500.6896551724138,129.54565741319288 C508.85057471264366,126.48397750602517 517.0114942528736,120.36061769168975 525.1724137931035,120.36061769168975 C533.3333333333334,120.36061769168975 541.4942528735633,120.36061769168975 549.6551724137931,120.36061769168975 C557.816091954023,120.36061769168975 565.9770114942529,111.17557797018657 574.1379310344828,111.17557797018657 C582.2988505747127,111.17557797018657 590.4597701149426,111.17557797018657 598.6206896551724,111.17557797018657 C606.7816091954023,111.17557797018657 614.9425287356322,110.7672052128894 623.1034482758621,109.23413371418368 C631.264367816092,107.70106221547798 639.4252873563219,101.97714897795234 647.5862068965517,101.97714897795234 C655.7471264367816,101.97714897795234 663.9080459770115,101.97714897795234 672.0689655172414,101.97714897795234 C680.2298850574713,101.97714897795234 688.3908045977012,92.79210925644912 696.551724137931,92.79210925644912 C704.7126436781609,92.79210925644912 712.8735632183908,92.79210925644912 721.0344827586207,92.79210925644912 C729.1954022988506,92.79210925644912 737.3563218390805,86.19343033116128 745.5172413793103,83.60706953494599 C753.6781609195402,81.0207087387307 761.8390804597701,79.38498616442024 770,77.27394447915736" fill="none" stroke="#6b63ff" stroke-width="2.5" class="data-line-0" />
  <g class="points">
    
    <circle cx="60" cy="349.90627510488264" r="4" fill="#6b63ff" class="data-point" style="animation-delay: 1.50s" />
    <circle cx="84.48275862068965" cy="340.8149602784968" r="4" fill="#6b63ff" class="data-point" style="animation-delay: 1.55s" />
    <circle cx="108.9655172413793" cy="340.8149602784968" r="4" fill="#6b63ff" class="data-point" style="animation-delay: 1.60s" />
    <circle cx="133.44827586206895" cy="340.8149602784968" r="4" fill="#6b63ff" class="data-point" style="animation-delay: 1.65s" />
    <circle cx="157.9310344827586" cy="340.8149602784968" r="4" fill="#6b63ff" class="data-point" style="animation-delay: 1.70s" />
    <circle cx="182.41379310344828" cy="340.8149602784968" r="4" fill="#6b63ff" class="data-point" style="animation-delay: 1.75s" />
    <circle cx="206.89655172413794" cy="334.20066053735604" r="4" fill="#6b63ff" class="data-point" style="animation-delay: 1.80s" />
    <circle cx="231.3793103448276" cy="230.58109434972775" r="4" fill="#6b63ff" class="data-point" style="animation-delay: 1.85s" />
    <circle cx="255.86206896551724" cy="221.39605462822456" r="4" fill="#6b63ff" class="data-point" style="animation-delay: 1.90s" />
    <circle cx="280.34482758620686" cy="216.8972596625904" r="4" fill="#6b63ff" class="data-point" style="animation-delay: 1.95s" />
    <circle cx="304.82758620689657" cy="203.02597518521824" r="4" fill="#6b63ff" class="data-point" style="animation-delay: 2.00s" />
    <circle cx="329.3103448275862" cy="203.02597518521824" r="4" fill="#6b63ff" class="data-point" style="animation-delay: 2.05s" />
    <circle cx="353.7931034482759" cy="203.02597518521824" r="4" fill="#6b63ff" class="data-point" style="animation-delay: 2.10s" />
    <circle cx="378.2758620689655" cy="193.84093546371506" r="4" fill="#6b63ff" class="data-point" style="animation-delay: 2.15s" />
    <circle cx="402.7586206896552" cy="193.84093546371506" r="4" fill="#6b63ff" class="data-point" style="animation-delay: 2.20s" />
    <circle cx="427.2413793103448" cy="193.84093546371506" r="4" fill="#6b63ff" class="data-point" style="animation-delay: 2.25s" />
    <circle cx="451.7241379310345" cy="143.1357672052129" r="4" fill="#6b63ff" class="data-point" style="animation-delay: 2.30s" />
    <circle cx="476.2068965517241" cy="138.73069713469604" r="4" fill="#6b63ff" class="data-point" style="animation-delay: 2.35s" />
    <circle cx="500.6896551724138" cy="129.54565741319288" r="4" fill="#6b63ff" class="data-point" style="animation-delay: 2.40s" />
    <circle cx="525.1724137931035" cy="120.36061769168975" r="4" fill="#6b63ff" class="data-point" style="animation-delay: 2.45s" />
    <circle cx="549.6551724137931" cy="120.36061769168975" r="4" fill="#6b63ff" class="data-point" style="animation-delay: 2.50s" />
    <circle cx="574.1379310344828" cy="111.17557797018657" r="4" fill="#6b63ff" class="data-point" style="animation-delay: 2.55s" />
    <circle cx="598.6206896551724" cy="111.17557797018657" r="4" fill="#6b63ff" class="data-point" style="animation-delay: 2.60s" />
    <circle cx="623.1034482758621" cy="109.23413371418368" r="4" fill="#6b63ff" class="data-point" style="animation-delay: 2.65s" />
    <circle cx="647.5862068965517" cy="101.97714897795234" r="4" fill="#6b63ff" class="data-point" style="animation-delay: 2.70s" />
    <circle cx="672.0689655172414" cy="101.97714897795234" r="4" fill="#6b63ff" class="data-point" style="animation-delay: 2.75s" />
    <circle cx="696.551724137931" cy="92.79210925644912" r="4" fill="#6b63ff" class="data-point" style="animation-delay: 2.80s" />
    <circle cx="721.0344827586207" cy="92.79210925644912" r="4" fill="#6b63ff" class="data-point" style="animation-delay: 2.85s" />
    <circle cx="745.5172413793103" cy="83.60706953494599" r="4" fill="#6b63ff" class="data-point" style="animation-delay: 2.90s" />
    <circle cx="770" cy="77.27394447915736" r="4" fill="#6b63ff" class="data-point" style="animation-delay: 2.95s" />
  </g>
</svg>