<svg xmlns="http://www.w3.org/2000/svg" viewBox="0 0 800 400" width="800" height="400">
  <style>
    @keyframes drawLine {
      to { stroke-dashoffset: 0; }
    }
    @keyframes fadeInPoint {
      from { opacity: 0; }
      to { opacity: 1; }
    }
    .data-line-0 {
      stroke-dasharray: 1165;
      stroke-dashoffset: 1165;
      animation: drawLine 2s ease-out forwards;
    }
    .data-point {
      opacity: 0;
      animation: fadeInPoint 0.5s ease-out forwards;
    }
    .chart-bg { fill: #fff; }
    .chart-text { fill: #24292e; }
    .chart-muted { fill: #6a737d; }
    .chart-grid { stroke: #eee; }
    .chart-axis { stroke: #6a737d; }
    @media (prefers-color-scheme: dark) {
      .chart-bg { fill: #0d1117; }
      .chart-text { fill: #e6edf3; }
      .chart-muted { fill: #8b949e; }
      .chart-grid { stroke: #21262d; }
      .chart-axis { stroke: #8b949e; }
    }
  </style>
  <rect width="800" height="400" class="chart-bg" />
  <text x="400" y="14" text-anchor="middle" class="chart-text" font-size="16" font-weight="bold" font-family="-apple-system, BlinkMacSystemFont, 'Segoe UI', Helvetica, Arial, sans-serif">dockur/dnsmasq Star History</text>
  
  <g class="grid">
    <line x1="60" y1="350" x2="770" y2="350" class="chart-grid" stroke-opacity="0.3" />
    <text x="778" y="354" text-anchor="start" class="chart-muted" font-size="11" font-family="-apple-system, BlinkMacSystemFont, 'Segoe UI', Helvetica, Arial, sans-serif">0</text>
    <line x1="60" y1="257.97546012269936" x2="770" y2="257.97546012269936" class="chart-grid" stroke-opacity="0.3" />
    <text x="778" y="261.97546012269936" text-anchor="start" class="chart-muted" font-size="11" font-family="-apple-system, BlinkMacSystemFont, 'Segoe UI', Helvetica, Arial, sans-serif">50</text>
    <line x1="60" y1="165.95092024539878" x2="770" y2="165.95092024539878" class="chart-grid" stroke-opacity="0.3" />
    <text x="778" y="169.95092024539878" text-anchor="start" class="chart-muted" font-size="11" font-family="-apple-system, BlinkMacSystemFont, 'Segoe UI', Helvetica, Arial, sans-serif">100</text>
    <line x1="60" y1="73.92638036809814" x2="770" y2="73.92638036809814" class="chart-grid" stroke-opacity="0.3" />
    <text x="778" y="77.92638036809814" text-anchor="start" class="chart-muted" font-size="11" font-family="-apple-system, BlinkMacSystemFont, 'Segoe UI', Helvetica, Arial, sans-serif">150</text>
  </g>
  <g class="milestones">
    
  </g>
  <g class="x-axis">
    <text x="60" y="370" text-anchor="middle" class="chart-muted" font-size="11" font-family="-apple-system, BlinkMacSystemFont, 'Segoe UI', Helvetica, Arial, sans-serif">2024</text>
    <text x="329.3103448275862" y="370" text-anchor="middle" class="chart-muted" font-size="11" font-family="-apple-system, BlinkMacSystemFont, 'Segoe UI', Helvetica, Arial, sans-serif">2025</text>
    <text x="623.1034482758621" y="370" text-anchor="middle" class="chart-muted" font-size="11" font-family="-apple-system, BlinkMacSystemFont, 'Segoe UI', Helvetica, Arial, sans-serif">2026</text>
  </g>
  <line x1="770" y1="50" x2="770" y2="350" class="chart-axis" stroke-width="1" />
  <line x1="60" y1="350" x2="770" y2="350" class="chart-axis" stroke-width="1" />
  <path d="M60,350 L60,348.159509202454 C68.16091954022988,343.2515337423313 76.32183908045977,333.4355828220859 84.48275862068965,333.4355828220859 C92.64367816091954,333.4355828220859 100.80459770114942,333.4355828220859 108.9655172413793,333.4355828220859 C117.12643678160919,333.4355828220859 125.28735632183907,330.06134969325154 133.44827586206895,327.9141104294479 C141.60919540229884,325.7668711656442 149.77011494252872,322.39263803680984 157.9310344827586,320.55214723926383 C166.0919540229885,318.7116564417178 174.2528735632184,316.8711656441718 182.41379310344828,316.8711656441718 C190.57471264367817,316.8711656441718 198.73563218390805,316.8711656441718 206.89655172413794,316.8711656441718 C215.05747126436782,316.8711656441718 223.2183908045977,310.21708352996694 231.3793103448276,309.5092024539877 C239.54022988505747,308.8013213780085 247.70114942528735,309.36762623879184 255.86206896551724,307.6687116564417 C264.0229885057471,305.96979707409156 272.183908045977,292.9447852760736 280.34482758620686,287.4233128834356 C288.50574712643675,281.90184049079755 296.6666666666667,278.22085889570553 304.82758620689657,274.5398773006135 C312.98850574712645,270.8588957055215 321.14942528735634,268.40490797546016 329.3103448275862,265.33742331288346 C337.4712643678161,262.26993865030676 345.632183908046,258.8957055214724 353.7931034482759,256.13496932515335 C361.95402298850576,253.37423312883433 370.11494252873564,251.53374233128832 378.2758620689655,248.7730061349693 C386.4367816091954,246.0122699386503 394.5977011494253,243.86503067484662 402.7586206896552,239.57055214723925 C410.91954022988506,235.2760736196319 419.08045977011494,226.68711656441718 427.2413793103448,223.00613496932516 C435.4022988505747,219.32515337423314 443.5632183908046,220.55214723926383 451.7241379310345,217.48466257668713 C459.88505747126436,214.41717791411043 468.04597701149424,208.58895705521473 476.2068965517241,204.60122699386503 C484.367816091954,200.61349693251532 492.5287356321839,198.159509202454 500.6896551724138,193.55828220858896 C508.85057471264366,188.95705521472394 517.0114942528736,182.51533742331287 525.1724137931035,176.99386503067484 C533.3333333333334,171.4723926380368 541.4942528735633,166.25766871165644 549.6551724137931,160.42944785276075 C557.816091954023,154.60122699386505 565.9770114942529,145.51662563699574 574.1379310344828,142.0245398773006 C582.2988505747127,138.53245411760548 590.4597701149426,139.50758686877364 598.6206896551724,138.3435582822086 C606.7816091954023,137.17952969564354 614.9425287356322,136.19631901840492 623.1034482758621,134.66257668711657 C631.264367816092,133.12883435582822 639.4252873563219,130.98159509202455 647.5862068965517,129.14110429447854 C655.7471264367816,127.30061349693253 663.9080459770115,126.38036809815952 672.0689655172414,123.6196319018405 C680.2298850574713,120.85889570552149 688.3908045977012,115.33742331288343 696.551724137931,112.57668711656441 C704.7126436781609,109.8159509202454 712.8735632183908,111.04294478527608 721.0344827586207,107.05521472392638 C729.1954022988506,103.06748466257669 737.3563218390805,93.55828220858898 745.5172413793103,88.65030674846628 C753.6781609195402,83.74233128834358 761.8390804597701,81.28834355828224 770,77.60736196319021 L770,350 L60,350 Z" fill="#6b63ff" fill-opacity="0.1" />
  <path d="M60,350 L60,348.159509202454 C68.16091954022988,343.2515337423313 76.32183908045977,333.4355828220859 84.48275862068965,333.4355828220859 C92.64367816091954,333.4355828220859 100.80459770114942,333.4355828220859 108.9655172413793,333.4355828220859 C117.12643678160919,333.4355828220859 125.28735632183907,330.06134969325154 133.44827586206895,327.9141104294479 C141.60919540229884,325.7668711656442 149.77011494252872,322.39263803680984 157.9310344827586,320.55214723926383 C166.0919540229885,318.7116564417178 174.2528735632184,316.8711656441718 182.41379310344828,316.8711656441718 C190.57471264367817,316.8711656441718 198.73563218390805,316.8711656441718 206.89655172413794,316.8711656441718 C215.05747126436782,316.8711656441718 223.2183908045977,310.21708352996694 231.3793103448276,309.5092024539877 C239.54022988505747,308.8013213780085 247.70114942528735,309.36762623879184 255.86206896551724,307.6687116564417 C264.0229885057471,305.96979707409156 272.183908045977,292.9447852760736 280.34482758620686,287.4233128834356 C288.50574712643675,281.90184049079755 296.6666666666667,278.22085889570553 304.82758620689657,274.5398773006135 C312.98850574712645,270.8588957055215 321.14942528735634,268.40490797546016 329.3103448275862,265.33742331288346 C337.4712643678161,262.26993865030676 345.632183908046,258.8957055214724 353.7931034482759,256.13496932515335 C361.95402298850576,253.37423312883433 370.11494252873564,251.53374233128832 378.2758620689655,248.7730061349693 C386.4367816091954,246.0122699386503 394.5977011494253,243.86503067484662 402.7586206896552,239.57055214723925 C410.91954022988506,235.2760736196319 419.08045977011494,226.68711656441718 427.2413793103448,223.00613496932516 C435.4022988505747,219.32515337423314 443.5632183908046,220.55214723926383 451.7241379310345,217.48466257668713 C459.88505747126436,214.41717791411043 468.04597701149424,208.58895705521473 476.2068965517241,204.60122699386503 C484.367816091954,200.61349693251532 492.5287356321839,198.159509202454 500.6896551724138,193.55828220858896 C508.85057471264366,188.95705521472394 517.0114942528736,182.51533742331287 525.1724137931035,176.99386503067484 C533.3333333333334,171.4723926380368 541.4942528735633,166.25766871165644 549.6551724137931,160.42944785276075 C557.816091954023,154.60122699386505 565.9770114942529,145.51662563699574 574.1379310344828,142.0245398773006 C582.2988505747127,138.53245411760548 590.4597701149426,139.50758686877364 598.6206896551724,138.3435582822086 C606.7816091954023,137.17952969564354 614.9425287356322,136.19631901840492 623.1034482758621,134.66257668711657 C631.264367816092,133.12883435582822 639.4252873563219,130.98159509202455 647.5862068965517,129.14110429447854 C655.7471264367816,127.30061349693253 663.9080459770115,126.38036809815952 672.0689655172414,123.6196319018405 C680.2298850574713,120.85889570552149 688.3908045977012,115.33742331288343 696.551724137931,112.57668711656441 C704.7126436781609,109.8159509202454 712.8735632183908,111.04294478527608 721.0344827586207,107.05521472392638 C729.1954022988506,103.06748466257669 737.3563218390805,93.55828220858898 745.5172413793103,88.65030674846628 C753.6781609195402,83.74233128834358 761.8390804597701,81.28834355828224 770,77.60736196319021" fill="none" stroke="#6b63ff" stroke-width="2.5" class="data-line-0" />
  <g class="points">
    
    <circle cx="60" cy="348.159509202454" r="4" fill="#6b63ff" class="data-point" style="animation-delay: 1.50s" />
    <circle cx="84.48275862068965" cy="333.4355828220859" r="4" fill="#6b63ff" class="data-point" style="animation-delay: 1.55s" />
    <circle cx="108.9655172413793" cy="333.4355828220859" r="4" fill="#6b63ff" class="data-point" style="animation-delay: 1.60s" />
    <circle cx="133.44827586206895" cy="327.9141104294479" r="4" fill="#6b63ff" class="data-point" style="animation-delay: 1.65s" />
    <circle cx="157.9310344827586" cy="320.55214723926383" r="4" fill="#6b63ff" class="data-point" style="animation-delay: 1.70s" />
    <circle cx="182.41379310344828" cy="316.8711656441718" r="4" fill="#6b63ff" class="data-point" style="animation-delay: 1.75s" />
    <circle cx="206.89655172413794" cy="316.8711656441718" r="4" fill="#6b63ff" class="data-point" style="animation-delay: 1.80s" />
    <circle cx="231.3793103448276" cy="309.5092024539877" r="4" fill="#6b63ff" class="data-point" style="animation-delay: 1.85s" />
    <circle cx="255.86206896551724" cy="307.6687116564417" r="4" fill="#6b63ff" class="data-point" style="animation-delay: 1.90s" />
    <circle cx="280.34482758620686" cy="287.4233128834356" r="4" fill="#6b63ff" class="data-point" style="animation-delay: 1.95s" />
    <circle cx="304.82758620689657" cy="274.5398773006135" r="4" fill="#6b63ff" class="data-point" style="animation-delay: 2.00s" />
    <circle cx="329.3103448275862" cy="265.33742331288346" r="4" fill="#6b63ff" class="data-point" style="animation-delay: 2.05s" />
    <circle cx="353.7931034482759" cy="256.13496932515335" r="4" fill="#6b63ff" class="data-point" style="animation-delay: 2.10s" />
    <circle cx="378.2758620689655" cy="248.7730061349693" r="4" fill="#6b63ff" class="data-point" style="animation-delay: 2.15s" />
    <circle cx="402.7586206896552" cy="239.57055214723925" r="4" fill="#6b63ff" class="data-point" style="animation-delay: 2.20s" />
    <circle cx="427.2413793103448" cy="223.00613496932516" r="4" fill="#6b63ff" class="data-point" style="animation-delay: 2.25s" />
    <circle cx="451.7241379310345" cy="217.48466257668713" r="4" fill="#6b63ff" class="data-point" style="animation-delay: 2.30s" />
    <circle cx="476.2068965517241" cy="204.60122699386503" r="4" fill="#6b63ff" class="data-point" style="animation-delay: 2.35s" />
    <circle cx="500.6896551724138" cy="193.55828220858896" r="4" fill="#6b63ff" class="data-point" style="animation-delay: 2.40s" />
    <circle cx="525.1724137931035" cy="176.99386503067484" r="4" fill="#6b63ff" class="data-point" style="animation-delay: 2.45s" />
    <circle cx="549.6551724137931" cy="160.42944785276075" r="4" fill="#6b63ff" class="data-point" style="animation-delay: 2.50s" />
    <circle cx="574.1379310344828" cy="142.0245398773006" r="4" fill="#6b63ff" class="data-point" style="animation-delay: 2.55s" />
    <circle cx="598.6206896551724" cy="138.3435582822086" r="4" fill="#6b63ff" class="data-point" style="animation-delay: 2.60s" />
    <circle cx="623.1034482758621" cy="134.66257668711657" r="4" fill="#6b63ff" class="data-point" style="animation-delay: 2.65s" />
    <circle cx="647.5862068965517" cy="129.14110429447854" r="4" fill="#6b63ff" class="data-point" style="animation-delay: 2.70s" />
    <circle cx="672.0689655172414" cy="123.6196319018405" r="4" fill="#6b63ff" class="data-point" style="animation-delay: 2.75s" />
    <circle cx="696.551724137931" cy="112.57668711656441" r="4" fill="#6b63ff" class="data-point" style="animation-delay: 2.80s" />
    <circle cx="721.0344827586207" cy="107.05521472392638" r="4" fill="#6b63ff" class="data-point" style="animation-delay: 2.85s" />
    <circle cx="745.5172413793103" cy="88.65030674846628" r="4" fill="#6b63ff" class="data-point" style="animation-delay: 2.90s" />
    <circle cx="770" cy="77.60736196319021" r="4" fill="#6b63ff" class="data-point" style="animation-delay: 2.95s" />
  </g>
</svg>