<svg xmlns="http://www.w3.org/2000/svg" viewBox="0 0 800 400" width="800" height="400">
  <style>
    @keyframes drawLine {
      to { stroke-dashoffset: 0; }
    }
    @keyframes fadeInPoint {
      from { opacity: 0; }
      to { opacity: 1; }
    }
    .data-line-0 {
      stroke-dasharray: 1156;
      stroke-dashoffset: 1156;
      animation: drawLine 2s ease-out forwards;
    }
    .data-point {
      opacity: 0;
      animation: fadeInPoint 0.5s ease-out forwards;
    }
    .chart-bg { fill: #fff; }
    .chart-text { fill: #24292e; }
    .chart-muted { fill: #6a737d; }
    .chart-grid { stroke: #eee; }
    .chart-axis { stroke: #6a737d; }
    @media (prefers-color-scheme: dark) {
      .chart-bg { fill: #0d1117; }
      .chart-text { fill: #e6edf3; }
      .chart-muted { fill: #8b949e; }
      .chart-grid { stroke: #21262d; }
      .chart-axis { stroke: #8b949e; }
    }
  </style>
  <rect width="800" height="400" class="chart-bg" />
  <text x="400" y="34" text-anchor="middle" class="chart-text" font-size="16" font-weight="bold" font-family="-apple-system, BlinkMacSystemFont, 'Segoe UI', Helvetica, Arial, sans-serif">dockur/samba Star History</text>
  
  <g class="grid">
    <line x1="60" y1="350" x2="770" y2="350" class="chart-grid" stroke-opacity="0.3" />
    <text x="778" y="354" text-anchor="start" class="chart-muted" font-size="11" font-family="-apple-system, BlinkMacSystemFont, 'Segoe UI', Helvetica, Arial, sans-serif">0</text>
    <line x1="60" y1="277.09599027946535" x2="770" y2="277.09599027946535" class="chart-grid" stroke-opacity="0.3" />
    <text x="778" y="281.09599027946535" text-anchor="start" class="chart-muted" font-size="11" font-family="-apple-system, BlinkMacSystemFont, 'Segoe UI', Helvetica, Arial, sans-serif">200</text>
    <line x1="60" y1="204.19198055893074" x2="770" y2="204.19198055893074" class="chart-grid" stroke-opacity="0.3" />
    <text x="778" y="208.19198055893074" text-anchor="start" class="chart-muted" font-size="11" font-family="-apple-system, BlinkMacSystemFont, 'Segoe UI', Helvetica, Arial, sans-serif">400</text>
    <line x1="60" y1="131.2879708383961" x2="770" y2="131.2879708383961" class="chart-grid" stroke-opacity="0.3" />
    <text x="778" y="135.2879708383961" text-anchor="start" class="chart-muted" font-size="11" font-family="-apple-system, BlinkMacSystemFont, 'Segoe UI', Helvetica, Arial, sans-serif">600</text>
    <line x1="60" y1="58.383961117861475" x2="770" y2="58.383961117861475" class="chart-grid" stroke-opacity="0.3" />
    <text x="778" y="62.383961117861475" text-anchor="start" class="chart-muted" font-size="11" font-family="-apple-system, BlinkMacSystemFont, 'Segoe UI', Helvetica, Arial, sans-serif">800</text>
  </g>
  <g class="milestones">
    
  </g>
  <g class="x-axis">
    <text x="60" y="370" text-anchor="middle" class="chart-muted" font-size="11" font-family="-apple-system, BlinkMacSystemFont, 'Segoe UI', Helvetica, Arial, sans-serif">2024</text>
    <text x="329.3103448275862" y="370" text-anchor="middle" class="chart-muted" font-size="11" font-family="-apple-system, BlinkMacSystemFont, 'Segoe UI', Helvetica, Arial, sans-serif">2025</text>
    <text x="647.5862068965517" y="370" text-anchor="middle" class="chart-muted" font-size="11" font-family="-apple-system, BlinkMacSystemFont, 'Segoe UI', Helvetica, Arial, sans-serif">2026</text>
  </g>
  <line x1="770" y1="50" x2="770" y2="350" class="chart-axis" stroke-width="1" />
  <line x1="60" y1="350" x2="770" y2="350" class="chart-axis" stroke-width="1" />
  <path d="M60,350 L60,349.6354799513973 C63.264367816091955,348.90643985419194 77.95402298850574,345.5771567436209 84.48275862068965,344.1676792223572 C91.01149425287356,342.7582017010935 102.43678160919539,340.47387606318347 108.9655172413793,339.0643985419198 C115.49425287356321,337.6549210206561 126.91954022988504,334.95747266099636 133.44827586206895,333.59659781287974 C139.97701149425285,332.2357229647631 151.40229885057468,329.92709599027944 157.9310344827586,328.85783718104494 C164.45977011494253,327.78857837181044 175.88505747126436,326.2575941676792 182.41379310344828,325.5771567436209 C188.9425287356322,324.8967193195626 200.36781609195404,324.43499392466583 206.89655172413794,323.7545565006075 C213.42528735632183,323.0741190765492 224.8505747126437,321.7375455650061 231.3793103448276,320.47387606318347 C237.90804597701148,319.21020656136085 249.33333333333334,315.68651275820173 255.86206896551724,314.27703523693805 C262.39080459770116,312.86755771567437 273.81609195402297,313.25637910085055 280.34482758620686,309.90279465370594 C286.87356321839076,306.5492102065613 298.2988505747127,293.30498177399755 304.82758620689657,289.12515188335357 C311.35632183908046,284.9453219927096 322.7816091954023,281.47023086269746 329.3103448275862,278.5540704738761 C335.8390804597701,275.6379100850547 347.264367816092,270.4131227217497 353.7931034482759,267.2539489671932 C360.32183908045977,264.0947752126367 371.7471264367816,257.67922235722966 378.2758620689655,254.8602673147023 C384.8045977011494,252.04131227217496 396.2298850574713,249.07654921020654 402.7586206896552,246.11178614823814 C409.28735632183907,243.14702308626974 420.71264367816093,235.92952612393682 427.2413793103448,232.62454434993924 C433.7701149425287,229.31956257594166 445.1954022988506,224.04617253948967 451.7241379310345,221.32442284325637 C458.2528735632184,218.60267314702307 469.67816091954023,214.8359659781288 476.2068965517241,212.21142162818956 C482.735632183908,209.5868772782503 494.1609195402299,204.45929526123936 500.6896551724138,201.64034021871203 C507.2183908045977,198.8213851761847 518.6436781609195,194.6172539489672 525.1724137931035,191.06925880923453 C531.7011494252874,187.52126366950185 543.1264367816092,178.57837181044957 549.6551724137931,175.0303766707169 C556.1839080459771,171.4823815309842 567.6091954022988,167.7156743620899 574.1379310344828,164.45929526123936 C580.6666666666667,161.2029161603888 592.0919540229885,153.6208991494532 598.6206896551724,150.60753341433778 C605.1494252873564,147.59416767922235 616.5747126436781,144.5321992709599 623.1034482758621,141.85905224787362 C629.632183908046,139.18590522478735 641.0574712643678,134.64155528554068 647.5862068965517,130.55893074119075 C654.1149425287357,126.47630619684081 665.5402298850574,114.98177399756986 672.0689655172414,111.23936816524909 C678.5977011494253,107.49696233292832 690.0229885057471,104.82381530984203 696.551724137931,102.49088699878493 C703.080459770115,100.15795868772783 714.5057471264367,96.36695018226004 721.0344827586207,93.7424058323208 C727.5632183908046,91.11786148238156 738.9885057471264,84.99392466585662 745.5172413793103,82.80680437424058 C752.0459770114943,80.61968408262454 766.735632183908,78.06804374240582 770,77.33900364520048 L770,350 L60,350 Z" fill="#6b63ff" fill-opacity="0.1" />
  <path d="M60,350 L60,349.6354799513973 C63.264367816091955,348.90643985419194 77.95402298850574,345.5771567436209 84.48275862068965,344.1676792223572 C91.01149425287356,342.7582017010935 102.43678160919539,340.47387606318347 108.9655172413793,339.0643985419198 C115.49425287356321,337.6549210206561 126.91954022988504,334.95747266099636 133.44827586206895,333.59659781287974 C139.97701149425285,332.2357229647631 151.40229885057468,329.92709599027944 157.9310344827586,328.85783718104494 C164.45977011494253,327.78857837181044 175.88505747126436,326.2575941676792 182.41379310344828,325.5771567436209 C188.9425287356322,324.8967193195626 200.36781609195404,324.43499392466583 206.89655172413794,323.7545565006075 C213.42528735632183,323.0741190765492 224.8505747126437,321.7375455650061 231.3793103448276,320.47387606318347 C237.90804597701148,319.21020656136085 249.33333333333334,315.68651275820173 255.86206896551724,314.27703523693805 C262.39080459770116,312.86755771567437 273.81609195402297,313.25637910085055 280.34482758620686,309.90279465370594 C286.87356321839076,306.5492102065613 298.2988505747127,293.30498177399755 304.82758620689657,289.12515188335357 C311.35632183908046,284.9453219927096 322.7816091954023,281.47023086269746 329.3103448275862,278.5540704738761 C335.8390804597701,275.6379100850547 347.264367816092,270.4131227217497 353.7931034482759,267.2539489671932 C360.32183908045977,264.0947752126367 371.7471264367816,257.67922235722966 378.2758620689655,254.8602673147023 C384.8045977011494,252.04131227217496 396.2298850574713,249.07654921020654 402.7586206896552,246.11178614823814 C409.28735632183907,243.14702308626974 420.71264367816093,235.92952612393682 427.2413793103448,232.62454434993924 C433.7701149425287,229.31956257594166 445.1954022988506,224.04617253948967 451.7241379310345,221.32442284325637 C458.2528735632184,218.60267314702307 469.67816091954023,214.8359659781288 476.2068965517241,212.21142162818956 C482.735632183908,209.5868772782503 494.1609195402299,204.45929526123936 500.6896551724138,201.64034021871203 C507.2183908045977,198.8213851761847 518.6436781609195,194.6172539489672 525.1724137931035,191.06925880923453 C531.7011494252874,187.52126366950185 543.1264367816092,178.57837181044957 549.6551724137931,175.0303766707169 C556.1839080459771,171.4823815309842 567.6091954022988,167.7156743620899 574.1379310344828,164.45929526123936 C580.6666666666667,161.2029161603888 592.0919540229885,153.6208991494532 598.6206896551724,150.60753341433778 C605.1494252873564,147.59416767922235 616.5747126436781,144.5321992709599 623.1034482758621,141.85905224787362 C629.632183908046,139.18590522478735 641.0574712643678,134.64155528554068 647.5862068965517,130.55893074119075 C654.1149425287357,126.47630619684081 665.5402298850574,114.98177399756986 672.0689655172414,111.23936816524909 C678.5977011494253,107.49696233292832 690.0229885057471,104.82381530984203 696.551724137931,102.49088699878493 C703.080459770115,100.15795868772783 714.5057471264367,96.36695018226004 721.0344827586207,93.7424058323208 C727.5632183908046,91.11786148238156 738.9885057471264,84.99392466585662 745.5172413793103,82.80680437424058 C752.0459770114943,80.61968408262454 766.735632183908,78.06804374240582 770,77.33900364520048" fill="none" stroke="#6b63ff" stroke-width="2.5" class="data-line-0" />
  <g class="points">
    
    <circle cx="60" cy="349.6354799513973" r="4" fill="#6b63ff" class="data-point" style="animation-delay: 1.50s" />
    <circle cx="84.48275862068965" cy="344.1676792223572" r="4" fill="#6b63ff" class="data-point" style="animation-delay: 1.55s" />
    <circle cx="108.9655172413793" cy="339.0643985419198" r="4" fill="#6b63ff" class="data-point" style="animation-delay: 1.60s" />
    <circle cx="133.44827586206895" cy="333.59659781287974" r="4" fill="#6b63ff" class="data-point" style="animation-delay: 1.65s" />
    <circle cx="157.9310344827586" cy="328.85783718104494" r="4" fill="#6b63ff" class="data-point" style="animation-delay: 1.70s" />
    <circle cx="182.41379310344828" cy="325.5771567436209" r="4" fill="#6b63ff" class="data-point" style="animation-delay: 1.75s" />
    <circle cx="206.89655172413794" cy="323.7545565006075" r="4" fill="#6b63ff" class="data-point" style="animation-delay: 1.80s" />
    <circle cx="231.3793103448276" cy="320.47387606318347" r="4" fill="#6b63ff" class="data-point" style="animation-delay: 1.85s" />
    <circle cx="255.86206896551724" cy="314.27703523693805" r="4" fill="#6b63ff" class="data-point" style="animation-delay: 1.90s" />
    <circle cx="280.34482758620686" cy="309.90279465370594" r="4" fill="#6b63ff" class="data-point" style="animation-delay: 1.95s" />
    <circle cx="304.82758620689657" cy="289.12515188335357" r="4" fill="#6b63ff" class="data-point" style="animation-delay: 2.00s" />
    <circle cx="329.3103448275862" cy="278.5540704738761" r="4" fill="#6b63ff" class="data-point" style="animation-delay: 2.05s" />
    <circle cx="353.7931034482759" cy="267.2539489671932" r="4" fill="#6b63ff" class="data-point" style="animation-delay: 2.10s" />
    <circle cx="378.2758620689655" cy="254.8602673147023" r="4" fill="#6b63ff" class="data-point" style="animation-delay: 2.15s" />
    <circle cx="402.7586206896552" cy="246.11178614823814" r="4" fill="#6b63ff" class="data-point" style="animation-delay: 2.20s" />
    <circle cx="427.2413793103448" cy="232.62454434993924" r="4" fill="#6b63ff" class="data-point" style="animation-delay: 2.25s" />
    <circle cx="451.7241379310345" cy="221.32442284325637" r="4" fill="#6b63ff" class="data-point" style="animation-delay: 2.30s" />
    <circle cx="476.2068965517241" cy="212.21142162818956" r="4" fill="#6b63ff" class="data-point" style="animation-delay: 2.35s" />
    <circle cx="500.6896551724138" cy="201.64034021871203" r="4" fill="#6b63ff" class="data-point" style="animation-delay: 2.40s" />
    <circle cx="525.1724137931035" cy="191.06925880923453" r="4" fill="#6b63ff" class="data-point" style="animation-delay: 2.45s" />
    <circle cx="549.6551724137931" cy="175.0303766707169" r="4" fill="#6b63ff" class="data-point" style="animation-delay: 2.50s" />
    <circle cx="574.1379310344828" cy="164.45929526123936" r="4" fill="#6b63ff" class="data-point" style="animation-delay: 2.55s" />
    <circle cx="598.6206896551724" cy="150.60753341433778" r="4" fill="#6b63ff" class="data-point" style="animation-delay: 2.60s" />
    <circle cx="623.1034482758621" cy="141.85905224787362" r="4" fill="#6b63ff" class="data-point" style="animation-delay: 2.65s" />
    <circle cx="647.5862068965517" cy="130.55893074119075" r="4" fill="#6b63ff" class="data-point" style="animation-delay: 2.70s" />
    <circle cx="672.0689655172414" cy="111.23936816524909" r="4" fill="#6b63ff" class="data-point" style="animation-delay: 2.75s" />
    <circle cx="696.551724137931" cy="102.49088699878493" r="4" fill="#6b63ff" class="data-point" style="animation-delay: 2.80s" />
    <circle cx="721.0344827586207" cy="93.7424058323208" r="4" fill="#6b63ff" class="data-point" style="animation-delay: 2.85s" />
    <circle cx="745.5172413793103" cy="82.80680437424058" r="4" fill="#6b63ff" class="data-point" style="animation-delay: 2.90s" />
    <circle cx="770" cy="77.33900364520048" r="4" fill="#6b63ff" class="data-point" style="animation-delay: 2.95s" />
  </g>
</svg>