<svg xmlns="http://www.w3.org/2000/svg" viewBox="0 0 800 400" width="800" height="400">
  <style>
    @keyframes drawLine {
      to { stroke-dashoffset: 0; }
    }
    @keyframes fadeInPoint {
      from { opacity: 0; }
      to { opacity: 1; }
    }
    .data-line-0 {
      stroke-dasharray: 1183;
      stroke-dashoffset: 1183;
      animation: drawLine 2s ease-out forwards;
    }
    .data-point {
      opacity: 0;
      animation: fadeInPoint 0.5s ease-out forwards;
    }
    .chart-bg { fill: #fff; }
    .chart-text { fill: #24292e; }
    .chart-muted { fill: #6a737d; }
    .chart-grid { stroke: #eee; }
    .chart-axis { stroke: #6a737d; }
    @media (prefers-color-scheme: dark) {
      .chart-bg { fill: #0d1117; }
      .chart-text { fill: #e6edf3; }
      .chart-muted { fill: #8b949e; }
      .chart-grid { stroke: #21262d; }
      .chart-axis { stroke: #8b949e; }
    }
  </style>
  <rect width="800" height="400" class="chart-bg" />
  <text x="400" y="34" text-anchor="middle" class="chart-text" font-size="16" font-weight="bold" font-family="-apple-system, BlinkMacSystemFont, 'Segoe UI', Helvetica, Arial, sans-serif">dockur/portainer-backup Star History</text>
  
  <g class="grid">
    <line x1="60" y1="350" x2="770" y2="350" class="chart-grid" stroke-opacity="0.3" />
    <text x="778" y="354" text-anchor="start" class="chart-muted" font-size="11" font-family="-apple-system, BlinkMacSystemFont, 'Segoe UI', Helvetica, Arial, sans-serif">0</text>
    <line x1="60" y1="247.26027397260276" x2="770" y2="247.26027397260276" class="chart-grid" stroke-opacity="0.3" />
    <text x="778" y="251.26027397260276" text-anchor="start" class="chart-muted" font-size="11" font-family="-apple-system, BlinkMacSystemFont, 'Segoe UI', Helvetica, Arial, sans-serif">50</text>
    <line x1="60" y1="144.5205479452055" x2="770" y2="144.5205479452055" class="chart-grid" stroke-opacity="0.3" />
    <text x="778" y="148.5205479452055" text-anchor="start" class="chart-muted" font-size="11" font-family="-apple-system, BlinkMacSystemFont, 'Segoe UI', Helvetica, Arial, sans-serif">100</text>
    <line x1="60" y1="41.78082191780817" x2="770" y2="41.78082191780817" class="chart-grid" stroke-opacity="0.3" />
    <text x="778" y="45.78082191780817" text-anchor="start" class="chart-muted" font-size="11" font-family="-apple-system, BlinkMacSystemFont, 'Segoe UI', Helvetica, Arial, sans-serif">150</text>
  </g>
  <g class="milestones">
    
  </g>
  <g class="x-axis">
    <text x="60" y="370" text-anchor="middle" class="chart-muted" font-size="11" font-family="-apple-system, BlinkMacSystemFont, 'Segoe UI', Helvetica, Arial, sans-serif">2024</text>
    <text x="353.7931034482759" y="370" text-anchor="middle" class="chart-muted" font-size="11" font-family="-apple-system, BlinkMacSystemFont, 'Segoe UI', Helvetica, Arial, sans-serif">2025</text>
    <text x="647.5862068965517" y="370" text-anchor="middle" class="chart-muted" font-size="11" font-family="-apple-system, BlinkMacSystemFont, 'Segoe UI', Helvetica, Arial, sans-serif">2026</text>
  </g>
  <line x1="770" y1="50" x2="770" y2="350" class="chart-axis" stroke-width="1" />
  <line x1="60" y1="350" x2="770" y2="350" class="chart-axis" stroke-width="1" />
  <path d="M60,350 L60,347.94520547945206 L84.48275862068965,341.7808219178082 L108.9655172413793,329.45205479452056 L133.44827586206895,317.1232876712329 L157.9310344827586,308.9041095890411 L182.41379310344828,308.9041095890411 L206.89655172413794,298.63013698630135 L231.3793103448276,296.5753424657534 L255.86206896551724,294.52054794520546 L280.34482758620686,292.4657534246575 L304.82758620689657,261.64383561643837 L329.3103448275862,251.36986301369865 L353.7931034482759,245.2054794520548 L378.2758620689655,234.93150684931507 L402.7586206896552,226.7123287671233 L427.2413793103448,218.49315068493152 L451.7241379310345,210.27397260273975 L476.2068965517241,206.16438356164383 L500.6896551724138,206.16438356164383 L525.1724137931035,197.94520547945206 L549.6551724137931,183.56164383561645 L574.1379310344828,171.23287671232876 L598.6206896551724,126.02739726027397 L623.1034482758621,115.75342465753425 L647.5862068965517,109.58904109589042 L672.0689655172414,105.4794520547945 L696.551724137931,97.26027397260273 L721.0344827586207,91.09589041095893 L745.5172413793103,86.98630136986304 L770,78.76712328767127 L770,350 L60,350 Z" fill="#6b63ff" fill-opacity="0.1" />
  <path d="M60,350 L60,347.94520547945206 L84.48275862068965,341.7808219178082 L108.9655172413793,329.45205479452056 L133.44827586206895,317.1232876712329 L157.9310344827586,308.9041095890411 L182.41379310344828,308.9041095890411 L206.89655172413794,298.63013698630135 L231.3793103448276,296.5753424657534 L255.86206896551724,294.52054794520546 L280.34482758620686,292.4657534246575 L304.82758620689657,261.64383561643837 L329.3103448275862,251.36986301369865 L353.7931034482759,245.2054794520548 L378.2758620689655,234.93150684931507 L402.7586206896552,226.7123287671233 L427.2413793103448,218.49315068493152 L451.7241379310345,210.27397260273975 L476.2068965517241,206.16438356164383 L500.6896551724138,206.16438356164383 L525.1724137931035,197.94520547945206 L549.6551724137931,183.56164383561645 L574.1379310344828,171.23287671232876 L598.6206896551724,126.02739726027397 L623.1034482758621,115.75342465753425 L647.5862068965517,109.58904109589042 L672.0689655172414,105.4794520547945 L696.551724137931,97.26027397260273 L721.0344827586207,91.09589041095893 L745.5172413793103,86.98630136986304 L770,78.76712328767127" fill="none" stroke="#6b63ff" stroke-width="2.5" class="data-line-0" />
  <g class="points">
    
    <circle cx="60" cy="347.94520547945206" r="4" fill="#6b63ff" class="data-point" style="animation-delay: 1.50s" />
    <circle cx="84.48275862068965" cy="341.7808219178082" r="4" fill="#6b63ff" class="data-point" style="animation-delay: 1.55s" />
    <circle cx="108.9655172413793" cy="329.45205479452056" r="4" fill="#6b63ff" class="data-point" style="animation-delay: 1.60s" />
    <circle cx="133.44827586206895" cy="317.1232876712329" r="4" fill="#6b63ff" class="data-point" style="animation-delay: 1.65s" />
    <circle cx="157.9310344827586" cy="308.9041095890411" r="4" fill="#6b63ff" class="data-point" style="animation-delay: 1.70s" />
    <circle cx="182.41379310344828" cy="308.9041095890411" r="4" fill="#6b63ff" class="data-point" style="animation-delay: 1.75s" />
    <circle cx="206.89655172413794" cy="298.63013698630135" r="4" fill="#6b63ff" class="data-point" style="animation-delay: 1.80s" />
    <circle cx="231.3793103448276" cy="296.5753424657534" r="4" fill="#6b63ff" class="data-point" style="animation-delay: 1.85s" />
    <circle cx="255.86206896551724" cy="294.52054794520546" r="4" fill="#6b63ff" class="data-point" style="animation-delay: 1.90s" />
    <circle cx="280.34482758620686" cy="292.4657534246575" r="4" fill="#6b63ff" class="data-point" style="animation-delay: 1.95s" />
    <circle cx="304.82758620689657" cy="261.64383561643837" r="4" fill="#6b63ff" class="data-point" style="animation-delay: 2.00s" />
    <circle cx="329.3103448275862" cy="251.36986301369865" r="4" fill="#6b63ff" class="data-point" style="animation-delay: 2.05s" />
    <circle cx="353.7931034482759" cy="245.2054794520548" r="4" fill="#6b63ff" class="data-point" style="animation-delay: 2.10s" />
    <circle cx="378.2758620689655" cy="234.93150684931507" r="4" fill="#6b63ff" class="data-point" style="animation-delay: 2.15s" />
    <circle cx="402.7586206896552" cy="226.7123287671233" r="4" fill="#6b63ff" class="data-point" style="animation-delay: 2.20s" />
    <circle cx="427.2413793103448" cy="218.49315068493152" r="4" fill="#6b63ff" class="data-point" style="animation-delay: 2.25s" />
    <circle cx="451.7241379310345" cy="210.27397260273975" r="4" fill="#6b63ff" class="data-point" style="animation-delay: 2.30s" />
    <circle cx="476.2068965517241" cy="206.16438356164383" r="4" fill="#6b63ff" class="data-point" style="animation-delay: 2.35s" />
    <circle cx="500.6896551724138" cy="206.16438356164383" r="4" fill="#6b63ff" class="data-point" style="animation-delay: 2.40s" />
    <circle cx="525.1724137931035" cy="197.94520547945206" r="4" fill="#6b63ff" class="data-point" style="animation-delay: 2.45s" />
    <circle cx="549.6551724137931" cy="183.56164383561645" r="4" fill="#6b63ff" class="data-point" style="animation-delay: 2.50s" />
    <circle cx="574.1379310344828" cy="171.23287671232876" r="4" fill="#6b63ff" class="data-point" style="animation-delay: 2.55s" />
    <circle cx="598.6206896551724" cy="126.02739726027397" r="4" fill="#6b63ff" class="data-point" style="animation-delay: 2.60s" />
    <circle cx="623.1034482758621" cy="115.75342465753425" r="4" fill="#6b63ff" class="data-point" style="animation-delay: 2.65s" />
    <circle cx="647.5862068965517" cy="109.58904109589042" r="4" fill="#6b63ff" class="data-point" style="animation-delay: 2.70s" />
    <circle cx="672.0689655172414" cy="105.4794520547945" r="4" fill="#6b63ff" class="data-point" style="animation-delay: 2.75s" />
    <circle cx="696.551724137931" cy="97.26027397260273" r="4" fill="#6b63ff" class="data-point" style="animation-delay: 2.80s" />
    <circle cx="721.0344827586207" cy="91.09589041095893" r="4" fill="#6b63ff" class="data-point" style="animation-delay: 2.85s" />
    <circle cx="745.5172413793103" cy="86.98630136986304" r="4" fill="#6b63ff" class="data-point" style="animation-delay: 2.90s" />
    <circle cx="770" cy="78.76712328767127" r="4" fill="#6b63ff" class="data-point" style="animation-delay: 2.95s" />
  </g>
</svg>