<svg xmlns="http://www.w3.org/2000/svg" viewBox="0 0 800 400" width="800" height="400">
  <style>
    @keyframes drawLine {
      to { stroke-dashoffset: 0; }
    }
    @keyframes fadeInPoint {
      from { opacity: 0; }
      to { opacity: 1; }
    }
    .data-line-0 {
      stroke-dasharray: 1244;
      stroke-dashoffset: 1244;
      animation: drawLine 2s ease-out forwards;
    }
    .data-point {
      opacity: 0;
      animation: fadeInPoint 0.5s ease-out forwards;
    }
    .chart-bg { fill: #fff; }
    .chart-text { fill: #24292e; }
    .chart-muted { fill: #6a737d; }
    .chart-grid { stroke: #eee; }
    .chart-axis { stroke: #6a737d; }
    @media (prefers-color-scheme: dark) {
      .chart-bg { fill: #0d1117; }
      .chart-text { fill: #e6edf3; }
      .chart-muted { fill: #8b949e; }
      .chart-grid { stroke: #21262d; }
      .chart-axis { stroke: #8b949e; }
    }
  </style>
  <rect width="800" height="400" class="chart-bg" />
  <text x="400" y="14" text-anchor="middle" class="chart-text" font-size="16" font-weight="bold" font-family="-apple-system, BlinkMacSystemFont, 'Segoe UI', Helvetica, Arial, sans-serif">dockur/lemmy Star History</text>
  
  <g class="grid">
    <line x1="60" y1="350" x2="770" y2="350" class="chart-grid" stroke-opacity="0.3" />
    <text x="778" y="354" text-anchor="start" class="chart-muted" font-size="11" font-family="-apple-system, BlinkMacSystemFont, 'Segoe UI', Helvetica, Arial, sans-serif">0</text>
    <line x1="60" y1="307.14285714285717" x2="770" y2="307.14285714285717" class="chart-grid" stroke-opacity="0.3" />
    <text x="778" y="311.14285714285717" text-anchor="start" class="chart-muted" font-size="11" font-family="-apple-system, BlinkMacSystemFont, 'Segoe UI', Helvetica, Arial, sans-serif">2</text>
    <line x1="60" y1="264.2857142857143" x2="770" y2="264.2857142857143" class="chart-grid" stroke-opacity="0.3" />
    <text x="778" y="268.2857142857143" text-anchor="start" class="chart-muted" font-size="11" font-family="-apple-system, BlinkMacSystemFont, 'Segoe UI', Helvetica, Arial, sans-serif">4</text>
    <line x1="60" y1="221.42857142857144" x2="770" y2="221.42857142857144" class="chart-grid" stroke-opacity="0.3" />
    <text x="778" y="225.42857142857144" text-anchor="start" class="chart-muted" font-size="11" font-family="-apple-system, BlinkMacSystemFont, 'Segoe UI', Helvetica, Arial, sans-serif">6</text>
    <line x1="60" y1="178.57142857142858" x2="770" y2="178.57142857142858" class="chart-grid" stroke-opacity="0.3" />
    <text x="778" y="182.57142857142858" text-anchor="start" class="chart-muted" font-size="11" font-family="-apple-system, BlinkMacSystemFont, 'Segoe UI', Helvetica, Arial, sans-serif">8</text>
    <line x1="60" y1="135.71428571428572" x2="770" y2="135.71428571428572" class="chart-grid" stroke-opacity="0.3" />
    <text x="778" y="139.71428571428572" text-anchor="start" class="chart-muted" font-size="11" font-family="-apple-system, BlinkMacSystemFont, 'Segoe UI', Helvetica, Arial, sans-serif">10</text>
    <line x1="60" y1="92.85714285714289" x2="770" y2="92.85714285714289" class="chart-grid" stroke-opacity="0.3" />
    <text x="778" y="96.85714285714289" text-anchor="start" class="chart-muted" font-size="11" font-family="-apple-system, BlinkMacSystemFont, 'Segoe UI', Helvetica, Arial, sans-serif">12</text>
    <line x1="60" y1="50" x2="770" y2="50" class="chart-grid" stroke-opacity="0.3" />
    <text x="778" y="54" text-anchor="start" class="chart-muted" font-size="11" font-family="-apple-system, BlinkMacSystemFont, 'Segoe UI', Helvetica, Arial, sans-serif">14</text>
  </g>
  <g class="milestones">
    
  </g>
  <g class="x-axis">
    <text x="60" y="370" text-anchor="middle" class="chart-muted" font-size="11" font-family="-apple-system, BlinkMacSystemFont, 'Segoe UI', Helvetica, Arial, sans-serif">2024</text>
    <text x="329.3103448275862" y="370" text-anchor="middle" class="chart-muted" font-size="11" font-family="-apple-system, BlinkMacSystemFont, 'Segoe UI', Helvetica, Arial, sans-serif">2025</text>
    <text x="623.1034482758621" y="370" text-anchor="middle" class="chart-muted" font-size="11" font-family="-apple-system, BlinkMacSystemFont, 'Segoe UI', Helvetica, Arial, sans-serif">2026</text>
  </g>
  <line x1="770" y1="50" x2="770" y2="350" class="chart-axis" stroke-width="1" />
  <line x1="60" y1="350" x2="770" y2="350" class="chart-axis" stroke-width="1" />
  <path d="M60,350 L60,328.57142857142856 C63.264367816091955,325.7142857142857 77.95402298850574,310 84.48275862068965,307.14285714285717 C91.01149425287356,307.14285714285717 102.43678160919539,307.14285714285717 108.9655172413793,307.14285714285717 C115.49425287356321,307.14285714285717 126.91954022988504,307.14285714285717 133.44827586206895,307.14285714285717 C139.97701149425285,304.28571428571433 151.40229885057468,288.57142857142856 157.9310344827586,285.7142857142857 C164.45977011494253,285.7142857142857 175.88505747126436,285.7142857142857 182.41379310344828,285.7142857142857 C188.9425287356322,285.7142857142857 200.36781609195404,285.7142857142857 206.89655172413794,285.7142857142857 C213.42528735632183,285.7142857142857 224.8505747126437,285.7142857142857 231.3793103448276,285.7142857142857 C237.90804597701148,285.7142857142857 249.33333333333334,285.7142857142857 255.86206896551724,285.7142857142857 C262.39080459770116,280 273.81609195402297,251.42857142857144 280.34482758620686,242.85714285714286 C286.87356321839076,234.28571428571428 298.2988505747127,224.2857142857143 304.82758620689657,221.42857142857144 C311.35632183908046,221.42857142857144 322.7816091954023,221.42857142857144 329.3103448275862,221.42857142857144 C335.8390804597701,218.57142857142858 347.264367816092,205.71428571428572 353.7931034482759,200 C360.32183908045977,194.28571428571428 371.7471264367816,181.42857142857144 378.2758620689655,178.57142857142858 C384.8045977011494,178.57142857142858 396.2298850574713,178.57142857142858 402.7586206896552,178.57142857142858 C409.28735632183907,178.57142857142858 420.71264367816093,178.57142857142858 427.2413793103448,178.57142857142858 C433.7701149425287,178.57142857142858 445.1954022988506,178.57142857142858 451.7241379310345,178.57142857142858 C458.2528735632184,178.57142857142858 469.67816091954023,178.57142857142858 476.2068965517241,178.57142857142858 C482.735632183908,178.57142857142858 494.1609195402299,178.57142857142858 500.6896551724138,178.57142857142858 C507.2183908045977,175.71428571428572 518.6436781609195,162.85714285714286 525.1724137931035,157.14285714285714 C531.7011494252874,151.42857142857142 543.1264367816092,138.57142857142858 549.6551724137931,135.71428571428572 C556.1839080459771,135.71428571428572 567.6091954022988,135.71428571428572 574.1379310344828,135.71428571428572 C580.6666666666667,132.85714285714286 592.0919540229885,117.14285714285714 598.6206896551724,114.28571428571428 C605.1494252873564,114.28571428571428 616.5747126436781,114.28571428571428 623.1034482758621,114.28571428571428 C629.632183908046,114.28571428571428 641.0574712643678,114.28571428571428 647.5862068965517,114.28571428571428 C654.1149425287357,114.28571428571428 665.5402298850574,114.28571428571428 672.0689655172414,114.28571428571428 C678.5977011494253,114.28571428571428 690.0229885057471,114.28571428571428 696.551724137931,114.28571428571428 C703.080459770115,114.28571428571428 714.5057471264367,114.28571428571428 721.0344827586207,114.28571428571428 C727.5632183908046,114.28571428571428 738.9885057471264,114.28571428571428 745.5172413793103,114.28571428571428 C752.0459770114943,111.42857142857143 766.735632183908,95.71428571428574 770,92.85714285714289 L770,350 L60,350 Z" fill="#6b63ff" fill-opacity="0.1" />
  <path d="M60,350 L60,328.57142857142856 C63.264367816091955,325.7142857142857 77.95402298850574,310 84.48275862068965,307.14285714285717 C91.01149425287356,307.14285714285717 102.43678160919539,307.14285714285717 108.9655172413793,307.14285714285717 C115.49425287356321,307.14285714285717 126.91954022988504,307.14285714285717 133.44827586206895,307.14285714285717 C139.97701149425285,304.28571428571433 151.40229885057468,288.57142857142856 157.9310344827586,285.7142857142857 C164.45977011494253,285.7142857142857 175.88505747126436,285.7142857142857 182.41379310344828,285.7142857142857 C188.9425287356322,285.7142857142857 200.36781609195404,285.7142857142857 206.89655172413794,285.7142857142857 C213.42528735632183,285.7142857142857 224.8505747126437,285.7142857142857 231.3793103448276,285.7142857142857 C237.90804597701148,285.7142857142857 249.33333333333334,285.7142857142857 255.86206896551724,285.7142857142857 C262.39080459770116,280 273.81609195402297,251.42857142857144 280.34482758620686,242.85714285714286 C286.87356321839076,234.28571428571428 298.2988505747127,224.2857142857143 304.82758620689657,221.42857142857144 C311.35632183908046,221.42857142857144 322.7816091954023,221.42857142857144 329.3103448275862,221.42857142857144 C335.8390804597701,218.57142857142858 347.264367816092,205.71428571428572 353.7931034482759,200 C360.32183908045977,194.28571428571428 371.7471264367816,181.42857142857144 378.2758620689655,178.57142857142858 C384.8045977011494,178.57142857142858 396.2298850574713,178.57142857142858 402.7586206896552,178.57142857142858 C409.28735632183907,178.57142857142858 420.71264367816093,178.57142857142858 427.2413793103448,178.57142857142858 C433.7701149425287,178.57142857142858 445.1954022988506,178.57142857142858 451.7241379310345,178.57142857142858 C458.2528735632184,178.57142857142858 469.67816091954023,178.57142857142858 476.2068965517241,178.57142857142858 C482.735632183908,178.57142857142858 494.1609195402299,178.57142857142858 500.6896551724138,178.57142857142858 C507.2183908045977,175.71428571428572 518.6436781609195,162.85714285714286 525.1724137931035,157.14285714285714 C531.7011494252874,151.42857142857142 543.1264367816092,138.57142857142858 549.6551724137931,135.71428571428572 C556.1839080459771,135.71428571428572 567.6091954022988,135.71428571428572 574.1379310344828,135.71428571428572 C580.6666666666667,132.85714285714286 592.0919540229885,117.14285714285714 598.6206896551724,114.28571428571428 C605.1494252873564,114.28571428571428 616.5747126436781,114.28571428571428 623.1034482758621,114.28571428571428 C629.632183908046,114.28571428571428 641.0574712643678,114.28571428571428 647.5862068965517,114.28571428571428 C654.1149425287357,114.28571428571428 665.5402298850574,114.28571428571428 672.0689655172414,114.28571428571428 C678.5977011494253,114.28571428571428 690.0229885057471,114.28571428571428 696.551724137931,114.28571428571428 C703.080459770115,114.28571428571428 714.5057471264367,114.28571428571428 721.0344827586207,114.28571428571428 C727.5632183908046,114.28571428571428 738.9885057471264,114.28571428571428 745.5172413793103,114.28571428571428 C752.0459770114943,111.42857142857143 766.735632183908,95.71428571428574 770,92.85714285714289" fill="none" stroke="#6b63ff" stroke-width="2.5" class="data-line-0" />
  <g class="points">
    
    <circle cx="60" cy="328.57142857142856" r="4" fill="#6b63ff" class="data-point" style="animation-delay: 1.50s" />
    <circle cx="84.48275862068965" cy="307.14285714285717" r="4" fill="#6b63ff" class="data-point" style="animation-delay: 1.55s" />
    <circle cx="108.9655172413793" cy="307.14285714285717" r="4" fill="#6b63ff" class="data-point" style="animation-delay: 1.60s" />
    <circle cx="133.44827586206895" cy="307.14285714285717" r="4" fill="#6b63ff" class="data-point" style="animation-delay: 1.65s" />
    <circle cx="157.9310344827586" cy="285.7142857142857" r="4" fill="#6b63ff" class="data-point" style="animation-delay: 1.70s" />
    <circle cx="182.41379310344828" cy="285.7142857142857" r="4" fill="#6b63ff" class="data-point" style="animation-delay: 1.75s" />
    <circle cx="206.89655172413794" cy="285.7142857142857" r="4" fill="#6b63ff" class="data-point" style="animation-delay: 1.80s" />
    <circle cx="231.3793103448276" cy="285.7142857142857" r="4" fill="#6b63ff" class="data-point" style="animation-delay: 1.85s" />
    <circle cx="255.86206896551724" cy="285.7142857142857" r="4" fill="#6b63ff" class="data-point" style="animation-delay: 1.90s" />
    <circle cx="280.34482758620686" cy="242.85714285714286" r="4" fill="#6b63ff" class="data-point" style="animation-delay: 1.95s" />
    <circle cx="304.82758620689657" cy="221.42857142857144" r="4" fill="#6b63ff" class="data-point" style="animation-delay: 2.00s" />
    <circle cx="329.3103448275862" cy="221.42857142857144" r="4" fill="#6b63ff" class="data-point" style="animation-delay: 2.05s" />
    <circle cx="353.7931034482759" cy="200" r="4" fill="#6b63ff" class="data-point" style="animation-delay: 2.10s" />
    <circle cx="378.2758620689655" cy="178.57142857142858" r="4" fill="#6b63ff" class="data-point" style="animation-delay: 2.15s" />
    <circle cx="402.7586206896552" cy="178.57142857142858" r="4" fill="#6b63ff" class="data-point" style="animation-delay: 2.20s" />
    <circle cx="427.2413793103448" cy="178.57142857142858" r="4" fill="#6b63ff" class="data-point" style="animation-delay: 2.25s" />
    <circle cx="451.7241379310345" cy="178.57142857142858" r="4" fill="#6b63ff" class="data-point" style="animation-delay: 2.30s" />
    <circle cx="476.2068965517241" cy="178.57142857142858" r="4" fill="#6b63ff" class="data-point" style="animation-delay: 2.35s" />
    <circle cx="500.6896551724138" cy="178.57142857142858" r="4" fill="#6b63ff" class="data-point" style="animation-delay: 2.40s" />
    <circle cx="525.1724137931035" cy="157.14285714285714" r="4" fill="#6b63ff" class="data-point" style="animation-delay: 2.45s" />
    <circle cx="549.6551724137931" cy="135.71428571428572" r="4" fill="#6b63ff" class="data-point" style="animation-delay: 2.50s" />
    <circle cx="574.1379310344828" cy="135.71428571428572" r="4" fill="#6b63ff" class="data-point" style="animation-delay: 2.55s" />
    <circle cx="598.6206896551724" cy="114.28571428571428" r="4" fill="#6b63ff" class="data-point" style="animation-delay: 2.60s" />
    <circle cx="623.1034482758621" cy="114.28571428571428" r="4" fill="#6b63ff" class="data-point" style="animation-delay: 2.65s" />
    <circle cx="647.5862068965517" cy="114.28571428571428" r="4" fill="#6b63ff" class="data-point" style="animation-delay: 2.70s" />
    <circle cx="672.0689655172414" cy="114.28571428571428" r="4" fill="#6b63ff" class="data-point" style="animation-delay: 2.75s" />
    <circle cx="696.551724137931" cy="114.28571428571428" r="4" fill="#6b63ff" class="data-point" style="animation-delay: 2.80s" />
    <circle cx="721.0344827586207" cy="114.28571428571428" r="4" fill="#6b63ff" class="data-point" style="animation-delay: 2.85s" />
    <circle cx="745.5172413793103" cy="114.28571428571428" r="4" fill="#6b63ff" class="data-point" style="animation-delay: 2.90s" />
    <circle cx="770" cy="92.85714285714289" r="4" fill="#6b63ff" class="data-point" style="animation-delay: 2.95s" />
  </g>
</svg>