<svg xmlns="http://www.w3.org/2000/svg" viewBox="0 0 800 400" width="800" height="400">
  <style>
    @keyframes drawLine {
      to { stroke-dashoffset: 0; }
    }
    @keyframes fadeInPoint {
      from { opacity: 0; }
      to { opacity: 1; }
    }
    .data-line-0 {
      stroke-dasharray: 1168;
      stroke-dashoffset: 1168;
      animation: drawLine 2s ease-out forwards;
    }
    .data-point {
      opacity: 0;
      animation: fadeInPoint 0.5s ease-out forwards;
    }
    .chart-bg { fill: #fff; }
    .chart-text { fill: #24292e; }
    .chart-muted { fill: #6a737d; }
    .chart-grid { stroke: #eee; }
    .chart-axis { stroke: #6a737d; }
    @media (prefers-color-scheme: dark) {
      .chart-bg { fill: #0d1117; }
      .chart-text { fill: #e6edf3; }
      .chart-muted { fill: #8b949e; }
      .chart-grid { stroke: #21262d; }
      .chart-axis { stroke: #8b949e; }
    }
  </style>
  <rect width="800" height="400" class="chart-bg" />
  <text x="400" y="34" text-anchor="middle" class="chart-text" font-size="16" font-weight="bold" font-family="-apple-system, BlinkMacSystemFont, 'Segoe UI', Helvetica, Arial, sans-serif">dockur/dnsmasq Star History</text>
  
  <g class="grid">
    <line x1="60" y1="350" x2="770" y2="350" class="chart-grid" stroke-opacity="0.3" />
    <text x="778" y="354" text-anchor="start" class="chart-muted" font-size="11" font-family="-apple-system, BlinkMacSystemFont, 'Segoe UI', Helvetica, Arial, sans-serif">0</text>
    <line x1="60" y1="257.4074074074074" x2="770" y2="257.4074074074074" class="chart-grid" stroke-opacity="0.3" />
    <text x="778" y="261.4074074074074" text-anchor="start" class="chart-muted" font-size="11" font-family="-apple-system, BlinkMacSystemFont, 'Segoe UI', Helvetica, Arial, sans-serif">50</text>
    <line x1="60" y1="164.81481481481484" x2="770" y2="164.81481481481484" class="chart-grid" stroke-opacity="0.3" />
    <text x="778" y="168.81481481481484" text-anchor="start" class="chart-muted" font-size="11" font-family="-apple-system, BlinkMacSystemFont, 'Segoe UI', Helvetica, Arial, sans-serif">100</text>
    <line x1="60" y1="72.22222222222223" x2="770" y2="72.22222222222223" class="chart-grid" stroke-opacity="0.3" />
    <text x="778" y="76.22222222222223" text-anchor="start" class="chart-muted" font-size="11" font-family="-apple-system, BlinkMacSystemFont, 'Segoe UI', Helvetica, Arial, sans-serif">150</text>
  </g>
  <g class="milestones">
    
  </g>
  <g class="x-axis">
    <text x="60" y="370" text-anchor="middle" class="chart-muted" font-size="11" font-family="-apple-system, BlinkMacSystemFont, 'Segoe UI', Helvetica, Arial, sans-serif">2024</text>
    <text x="329.3103448275862" y="370" text-anchor="middle" class="chart-muted" font-size="11" font-family="-apple-system, BlinkMacSystemFont, 'Segoe UI', Helvetica, Arial, sans-serif">2025</text>
    <text x="623.1034482758621" y="370" text-anchor="middle" class="chart-muted" font-size="11" font-family="-apple-system, BlinkMacSystemFont, 'Segoe UI', Helvetica, Arial, sans-serif">2026</text>
  </g>
  <line x1="770" y1="50" x2="770" y2="350" class="chart-axis" stroke-width="1" />
  <line x1="60" y1="350" x2="770" y2="350" class="chart-axis" stroke-width="1" />
  <path d="M60,350 L60,348.14814814814815 L84.48275862068965,333.3333333333333 L108.9655172413793,333.3333333333333 L133.44827586206895,329.6296296296296 L157.9310344827586,320.3703703703704 L182.41379310344828,316.6666666666667 L206.89655172413794,316.6666666666667 L231.3793103448276,309.25925925925924 L255.86206896551724,307.4074074074074 L280.34482758620686,294.44444444444446 L304.82758620689657,275.9259259259259 L329.3103448275862,264.81481481481484 L353.7931034482759,257.4074074074074 L378.2758620689655,250 L402.7586206896552,238.8888888888889 L427.2413793103448,222.22222222222223 L451.7241379310345,216.66666666666669 L476.2068965517241,205.55555555555557 L500.6896551724138,192.59259259259258 L525.1724137931035,179.62962962962965 L549.6551724137931,159.25925925925924 L574.1379310344828,140.74074074074073 L598.6206896551724,137.037037037037 L623.1034482758621,133.33333333333334 L647.5862068965517,127.7777777777778 L672.0689655172414,124.07407407407408 L696.551724137931,111.11111111111111 L721.0344827586207,107.40740740740739 L745.5172413793103,87.03703703703701 L770,77.77777777777777 L770,350 L60,350 Z" fill="#6b63ff" fill-opacity="0.1" />
  <path d="M60,350 L60,348.14814814814815 L84.48275862068965,333.3333333333333 L108.9655172413793,333.3333333333333 L133.44827586206895,329.6296296296296 L157.9310344827586,320.3703703703704 L182.41379310344828,316.6666666666667 L206.89655172413794,316.6666666666667 L231.3793103448276,309.25925925925924 L255.86206896551724,307.4074074074074 L280.34482758620686,294.44444444444446 L304.82758620689657,275.9259259259259 L329.3103448275862,264.81481481481484 L353.7931034482759,257.4074074074074 L378.2758620689655,250 L402.7586206896552,238.8888888888889 L427.2413793103448,222.22222222222223 L451.7241379310345,216.66666666666669 L476.2068965517241,205.55555555555557 L500.6896551724138,192.59259259259258 L525.1724137931035,179.62962962962965 L549.6551724137931,159.25925925925924 L574.1379310344828,140.74074074074073 L598.6206896551724,137.037037037037 L623.1034482758621,133.33333333333334 L647.5862068965517,127.7777777777778 L672.0689655172414,124.07407407407408 L696.551724137931,111.11111111111111 L721.0344827586207,107.40740740740739 L745.5172413793103,87.03703703703701 L770,77.77777777777777" fill="none" stroke="#6b63ff" stroke-width="2" class="data-line-0" />
  <g class="points">
    
    <circle cx="60" cy="348.14814814814815" r="4" fill="#6b63ff" class="data-point" style="animation-delay: 1.50s" />
    <circle cx="84.48275862068965" cy="333.3333333333333" r="4" fill="#6b63ff" class="data-point" style="animation-delay: 1.55s" />
    <circle cx="108.9655172413793" cy="333.3333333333333" r="4" fill="#6b63ff" class="data-point" style="animation-delay: 1.60s" />
    <circle cx="133.44827586206895" cy="329.6296296296296" r="4" fill="#6b63ff" class="data-point" style="animation-delay: 1.65s" />
    <circle cx="157.9310344827586" cy="320.3703703703704" r="4" fill="#6b63ff" class="data-point" style="animation-delay: 1.70s" />
    <circle cx="182.41379310344828" cy="316.6666666666667" r="4" fill="#6b63ff" class="data-point" style="animation-delay: 1.75s" />
    <circle cx="206.89655172413794" cy="316.6666666666667" r="4" fill="#6b63ff" class="data-point" style="animation-delay: 1.80s" />
    <circle cx="231.3793103448276" cy="309.25925925925924" r="4" fill="#6b63ff" class="data-point" style="animation-delay: 1.85s" />
    <circle cx="255.86206896551724" cy="307.4074074074074" r="4" fill="#6b63ff" class="data-point" style="animation-delay: 1.90s" />
    <circle cx="280.34482758620686" cy="294.44444444444446" r="4" fill="#6b63ff" class="data-point" style="animation-delay: 1.95s" />
    <circle cx="304.82758620689657" cy="275.9259259259259" r="4" fill="#6b63ff" class="data-point" style="animation-delay: 2.00s" />
    <circle cx="329.3103448275862" cy="264.81481481481484" r="4" fill="#6b63ff" class="data-point" style="animation-delay: 2.05s" />
    <circle cx="353.7931034482759" cy="257.4074074074074" r="4" fill="#6b63ff" class="data-point" style="animation-delay: 2.10s" />
    <circle cx="378.2758620689655" cy="250" r="4" fill="#6b63ff" class="data-point" style="animation-delay: 2.15s" />
    <circle cx="402.7586206896552" cy="238.8888888888889" r="4" fill="#6b63ff" class="data-point" style="animation-delay: 2.20s" />
    <circle cx="427.2413793103448" cy="222.22222222222223" r="4" fill="#6b63ff" class="data-point" style="animation-delay: 2.25s" />
    <circle cx="451.7241379310345" cy="216.66666666666669" r="4" fill="#6b63ff" class="data-point" style="animation-delay: 2.30s" />
    <circle cx="476.2068965517241" cy="205.55555555555557" r="4" fill="#6b63ff" class="data-point" style="animation-delay: 2.35s" />
    <circle cx="500.6896551724138" cy="192.59259259259258" r="4" fill="#6b63ff" class="data-point" style="animation-delay: 2.40s" />
    <circle cx="525.1724137931035" cy="179.62962962962965" r="4" fill="#6b63ff" class="data-point" style="animation-delay: 2.45s" />
    <circle cx="549.6551724137931" cy="159.25925925925924" r="4" fill="#6b63ff" class="data-point" style="animation-delay: 2.50s" />
    <circle cx="574.1379310344828" cy="140.74074074074073" r="4" fill="#6b63ff" class="data-point" style="animation-delay: 2.55s" />
    <circle cx="598.6206896551724" cy="137.037037037037" r="4" fill="#6b63ff" class="data-point" style="animation-delay: 2.60s" />
    <circle cx="623.1034482758621" cy="133.33333333333334" r="4" fill="#6b63ff" class="data-point" style="animation-delay: 2.65s" />
    <circle cx="647.5862068965517" cy="127.7777777777778" r="4" fill="#6b63ff" class="data-point" style="animation-delay: 2.70s" />
    <circle cx="672.0689655172414" cy="124.07407407407408" r="4" fill="#6b63ff" class="data-point" style="animation-delay: 2.75s" />
    <circle cx="696.551724137931" cy="111.11111111111111" r="4" fill="#6b63ff" class="data-point" style="animation-delay: 2.80s" />
    <circle cx="721.0344827586207" cy="107.40740740740739" r="4" fill="#6b63ff" class="data-point" style="animation-delay: 2.85s" />
    <circle cx="745.5172413793103" cy="87.03703703703701" r="4" fill="#6b63ff" class="data-point" style="animation-delay: 2.90s" />
    <circle cx="770" cy="77.77777777777777" r="4" fill="#6b63ff" class="data-point" style="animation-delay: 2.95s" />
  </g>
</svg>