<svg xmlns="http://www.w3.org/2000/svg" viewBox="0 0 800 400" width="800" height="400">
  <style>
    @keyframes drawLine {
      to { stroke-dashoffset: 0; }
    }
    @keyframes fadeInPoint {
      from { opacity: 0; }
      to { opacity: 1; }
    }
    .data-line-0 {
      stroke-dasharray: 1156;
      stroke-dashoffset: 1156;
      animation: drawLine 2s ease-out forwards;
    }
    .data-point {
      opacity: 0;
      animation: fadeInPoint 0.5s ease-out forwards;
    }
    .chart-bg { fill: #fff; }
    .chart-text { fill: #24292e; }
    .chart-muted { fill: #6a737d; }
    .chart-grid { stroke: #eee; }
    .chart-axis { stroke: #6a737d; }
    @media (prefers-color-scheme: dark) {
      .chart-bg { fill: #0d1117; }
      .chart-text { fill: #e6edf3; }
      .chart-muted { fill: #8b949e; }
      .chart-grid { stroke: #21262d; }
      .chart-axis { stroke: #8b949e; }
    }
  </style>
  <rect width="800" height="400" class="chart-bg" />
  <text x="400" y="34" text-anchor="middle" class="chart-text" font-size="16" font-weight="bold" font-family="-apple-system, BlinkMacSystemFont, 'Segoe UI', Helvetica, Arial, sans-serif">dockur/samba Star History</text>
  
  <g class="grid">
    <line x1="60" y1="350" x2="770" y2="350" class="chart-grid" stroke-opacity="0.3" />
    <text x="778" y="354" text-anchor="start" class="chart-muted" font-size="11" font-family="-apple-system, BlinkMacSystemFont, 'Segoe UI', Helvetica, Arial, sans-serif">0</text>
    <line x1="60" y1="277.00729927007296" x2="770" y2="277.00729927007296" class="chart-grid" stroke-opacity="0.3" />
    <text x="778" y="281.00729927007296" text-anchor="start" class="chart-muted" font-size="11" font-family="-apple-system, BlinkMacSystemFont, 'Segoe UI', Helvetica, Arial, sans-serif">200</text>
    <line x1="60" y1="204.01459854014598" x2="770" y2="204.01459854014598" class="chart-grid" stroke-opacity="0.3" />
    <text x="778" y="208.01459854014598" text-anchor="start" class="chart-muted" font-size="11" font-family="-apple-system, BlinkMacSystemFont, 'Segoe UI', Helvetica, Arial, sans-serif">400</text>
    <line x1="60" y1="131.02189781021897" x2="770" y2="131.02189781021897" class="chart-grid" stroke-opacity="0.3" />
    <text x="778" y="135.02189781021897" text-anchor="start" class="chart-muted" font-size="11" font-family="-apple-system, BlinkMacSystemFont, 'Segoe UI', Helvetica, Arial, sans-serif">600</text>
    <line x1="60" y1="58.029197080291965" x2="770" y2="58.029197080291965" class="chart-grid" stroke-opacity="0.3" />
    <text x="778" y="62.029197080291965" text-anchor="start" class="chart-muted" font-size="11" font-family="-apple-system, BlinkMacSystemFont, 'Segoe UI', Helvetica, Arial, sans-serif">800</text>
  </g>
  <g class="milestones">
    
  </g>
  <g class="x-axis">
    <text x="60" y="370" text-anchor="middle" class="chart-muted" font-size="11" font-family="-apple-system, BlinkMacSystemFont, 'Segoe UI', Helvetica, Arial, sans-serif">2024</text>
    <text x="329.3103448275862" y="370" text-anchor="middle" class="chart-muted" font-size="11" font-family="-apple-system, BlinkMacSystemFont, 'Segoe UI', Helvetica, Arial, sans-serif">2025</text>
    <text x="647.5862068965517" y="370" text-anchor="middle" class="chart-muted" font-size="11" font-family="-apple-system, BlinkMacSystemFont, 'Segoe UI', Helvetica, Arial, sans-serif">2026</text>
  </g>
  <line x1="770" y1="50" x2="770" y2="350" class="chart-axis" stroke-width="1" />
  <line x1="60" y1="350" x2="770" y2="350" class="chart-axis" stroke-width="1" />
  <path d="M60,350 L60,349.6350364963504 C63.264367816091955,348.9051094890511 77.95402298850574,345.57177615571777 84.48275862068965,344.16058394160586 C91.01149425287356,342.74939172749396 102.43678160919539,340.4622871046229 108.9655172413793,339.05109489051097 C115.49425287356321,337.63990267639906 126.91954022988504,334.93917274939173 133.44827586206895,333.57664233576645 C139.97701149425285,332.21411192214117 151.40229885057468,329.9026763990268 157.9310344827586,328.8321167883212 C164.45977011494253,327.76155717761554 175.88505747126436,326.2287104622871 182.41379310344828,325.54744525547443 C188.9425287356322,324.86618004866176 200.36781609195404,324.40389294403894 206.89655172413794,323.7226277372263 C213.42528735632183,323.0413625304136 224.8505747126437,321.70316301703167 231.3793103448276,320.4379562043796 C237.90804597701148,319.1727493917275 249.33333333333334,315.6447688564477 255.86206896551724,314.2335766423358 C262.39080459770116,312.82238442822387 273.81609195402297,313.21167883211683 280.34482758620686,309.8540145985402 C286.87356321839076,306.4963503649635 298.2988505747127,293.2360097323601 304.82758620689657,289.05109489051097 C311.35632183908046,284.8661800486618 322.7816091954023,281.3868613138686 329.3103448275862,278.46715328467155 C335.8390804597701,275.5474452554745 347.264367816092,270.2676399026764 353.7931034482759,267.15328467153284 C360.32183908045977,264.03892944038927 371.7471264367816,257.88321167883214 378.2758620689655,255.1094890510949 C384.8045977011494,252.33576642335768 396.2298850574713,249.36739659367396 402.7586206896552,246.35036496350364 C409.28735632183907,243.33333333333331 420.71264367816093,235.83941605839414 427.2413793103448,232.4817518248175 C433.7701149425287,229.12408759124088 445.1954022988506,223.84428223844282 451.7241379310345,221.16788321167883 C458.2528735632184,218.49148418491484 469.67816091954023,215.03649635036496 476.2068965517241,212.4087591240876 C482.735632183908,209.78102189781023 494.1609195402299,204.330900243309 500.6896551724138,201.45985401459853 C507.2183908045977,198.58880778588806 518.6436781609195,194.37956204379563 525.1724137931035,190.87591240875912 C531.7011494252874,187.3722627737226 543.1264367816092,178.6374695863747 549.6551724137931,175.1824817518248 C556.1839080459771,171.72749391727493 567.6091954022988,168.27250608272507 574.1379310344828,164.96350364963504 C580.6666666666667,161.65450121654501 592.0919540229885,153.43065693430657 598.6206896551724,150.36496350364962 C605.1494252873564,147.29927007299267 616.5747126436781,144.647201946472 623.1034482758621,141.970802919708 C629.632183908046,139.29440389294402 641.0574712643678,134.42822384428223 647.5862068965517,130.2919708029197 C654.1149425287357,126.15571776155718 665.5402298850574,114.69586374695865 672.0689655172414,110.94890510948906 C678.5977011494253,107.20194647201947 690.0229885057471,104.52554744525547 696.551724137931,102.1897810218978 C703.080459770115,99.85401459854013 714.5057471264367,96.05839416058394 721.0344827586207,93.43065693430657 C727.5632183908046,90.8029197080292 738.9885057471264,84.62287104622872 745.5172413793103,82.48175182481754 C752.0459770114943,80.34063260340635 766.735632183908,78.05352798053529 770,77.37226277372264 L770,350 L60,350 Z" fill="#6b63ff" fill-opacity="0.1" />
  <path d="M60,350 L60,349.6350364963504 C63.264367816091955,348.9051094890511 77.95402298850574,345.57177615571777 84.48275862068965,344.16058394160586 C91.01149425287356,342.74939172749396 102.43678160919539,340.4622871046229 108.9655172413793,339.05109489051097 C115.49425287356321,337.63990267639906 126.91954022988504,334.93917274939173 133.44827586206895,333.57664233576645 C139.97701149425285,332.21411192214117 151.40229885057468,329.9026763990268 157.9310344827586,328.8321167883212 C164.45977011494253,327.76155717761554 175.88505747126436,326.2287104622871 182.41379310344828,325.54744525547443 C188.9425287356322,324.86618004866176 200.36781609195404,324.40389294403894 206.89655172413794,323.7226277372263 C213.42528735632183,323.0413625304136 224.8505747126437,321.70316301703167 231.3793103448276,320.4379562043796 C237.90804597701148,319.1727493917275 249.33333333333334,315.6447688564477 255.86206896551724,314.2335766423358 C262.39080459770116,312.82238442822387 273.81609195402297,313.21167883211683 280.34482758620686,309.8540145985402 C286.87356321839076,306.4963503649635 298.2988505747127,293.2360097323601 304.82758620689657,289.05109489051097 C311.35632183908046,284.8661800486618 322.7816091954023,281.3868613138686 329.3103448275862,278.46715328467155 C335.8390804597701,275.5474452554745 347.264367816092,270.2676399026764 353.7931034482759,267.15328467153284 C360.32183908045977,264.03892944038927 371.7471264367816,257.88321167883214 378.2758620689655,255.1094890510949 C384.8045977011494,252.33576642335768 396.2298850574713,249.36739659367396 402.7586206896552,246.35036496350364 C409.28735632183907,243.33333333333331 420.71264367816093,235.83941605839414 427.2413793103448,232.4817518248175 C433.7701149425287,229.12408759124088 445.1954022988506,223.84428223844282 451.7241379310345,221.16788321167883 C458.2528735632184,218.49148418491484 469.67816091954023,215.03649635036496 476.2068965517241,212.4087591240876 C482.735632183908,209.78102189781023 494.1609195402299,204.330900243309 500.6896551724138,201.45985401459853 C507.2183908045977,198.58880778588806 518.6436781609195,194.37956204379563 525.1724137931035,190.87591240875912 C531.7011494252874,187.3722627737226 543.1264367816092,178.6374695863747 549.6551724137931,175.1824817518248 C556.1839080459771,171.72749391727493 567.6091954022988,168.27250608272507 574.1379310344828,164.96350364963504 C580.6666666666667,161.65450121654501 592.0919540229885,153.43065693430657 598.6206896551724,150.36496350364962 C605.1494252873564,147.29927007299267 616.5747126436781,144.647201946472 623.1034482758621,141.970802919708 C629.632183908046,139.29440389294402 641.0574712643678,134.42822384428223 647.5862068965517,130.2919708029197 C654.1149425287357,126.15571776155718 665.5402298850574,114.69586374695865 672.0689655172414,110.94890510948906 C678.5977011494253,107.20194647201947 690.0229885057471,104.52554744525547 696.551724137931,102.1897810218978 C703.080459770115,99.85401459854013 714.5057471264367,96.05839416058394 721.0344827586207,93.43065693430657 C727.5632183908046,90.8029197080292 738.9885057471264,84.62287104622872 745.5172413793103,82.48175182481754 C752.0459770114943,80.34063260340635 766.735632183908,78.05352798053529 770,77.37226277372264" fill="none" stroke="#6b63ff" stroke-width="2.5" class="data-line-0" />
  <g class="points">
    
    <circle cx="60" cy="349.6350364963504" r="4" fill="#6b63ff" class="data-point" style="animation-delay: 1.50s" />
    <circle cx="84.48275862068965" cy="344.16058394160586" r="4" fill="#6b63ff" class="data-point" style="animation-delay: 1.55s" />
    <circle cx="108.9655172413793" cy="339.05109489051097" r="4" fill="#6b63ff" class="data-point" style="animation-delay: 1.60s" />
    <circle cx="133.44827586206895" cy="333.57664233576645" r="4" fill="#6b63ff" class="data-point" style="animation-delay: 1.65s" />
    <circle cx="157.9310344827586" cy="328.8321167883212" r="4" fill="#6b63ff" class="data-point" style="animation-delay: 1.70s" />
    <circle cx="182.41379310344828" cy="325.54744525547443" r="4" fill="#6b63ff" class="data-point" style="animation-delay: 1.75s" />
    <circle cx="206.89655172413794" cy="323.7226277372263" r="4" fill="#6b63ff" class="data-point" style="animation-delay: 1.80s" />
    <circle cx="231.3793103448276" cy="320.4379562043796" r="4" fill="#6b63ff" class="data-point" style="animation-delay: 1.85s" />
    <circle cx="255.86206896551724" cy="314.2335766423358" r="4" fill="#6b63ff" class="data-point" style="animation-delay: 1.90s" />
    <circle cx="280.34482758620686" cy="309.8540145985402" r="4" fill="#6b63ff" class="data-point" style="animation-delay: 1.95s" />
    <circle cx="304.82758620689657" cy="289.05109489051097" r="4" fill="#6b63ff" class="data-point" style="animation-delay: 2.00s" />
    <circle cx="329.3103448275862" cy="278.46715328467155" r="4" fill="#6b63ff" class="data-point" style="animation-delay: 2.05s" />
    <circle cx="353.7931034482759" cy="267.15328467153284" r="4" fill="#6b63ff" class="data-point" style="animation-delay: 2.10s" />
    <circle cx="378.2758620689655" cy="255.1094890510949" r="4" fill="#6b63ff" class="data-point" style="animation-delay: 2.15s" />
    <circle cx="402.7586206896552" cy="246.35036496350364" r="4" fill="#6b63ff" class="data-point" style="animation-delay: 2.20s" />
    <circle cx="427.2413793103448" cy="232.4817518248175" r="4" fill="#6b63ff" class="data-point" style="animation-delay: 2.25s" />
    <circle cx="451.7241379310345" cy="221.16788321167883" r="4" fill="#6b63ff" class="data-point" style="animation-delay: 2.30s" />
    <circle cx="476.2068965517241" cy="212.4087591240876" r="4" fill="#6b63ff" class="data-point" style="animation-delay: 2.35s" />
    <circle cx="500.6896551724138" cy="201.45985401459853" r="4" fill="#6b63ff" class="data-point" style="animation-delay: 2.40s" />
    <circle cx="525.1724137931035" cy="190.87591240875912" r="4" fill="#6b63ff" class="data-point" style="animation-delay: 2.45s" />
    <circle cx="549.6551724137931" cy="175.1824817518248" r="4" fill="#6b63ff" class="data-point" style="animation-delay: 2.50s" />
    <circle cx="574.1379310344828" cy="164.96350364963504" r="4" fill="#6b63ff" class="data-point" style="animation-delay: 2.55s" />
    <circle cx="598.6206896551724" cy="150.36496350364962" r="4" fill="#6b63ff" class="data-point" style="animation-delay: 2.60s" />
    <circle cx="623.1034482758621" cy="141.970802919708" r="4" fill="#6b63ff" class="data-point" style="animation-delay: 2.65s" />
    <circle cx="647.5862068965517" cy="130.2919708029197" r="4" fill="#6b63ff" class="data-point" style="animation-delay: 2.70s" />
    <circle cx="672.0689655172414" cy="110.94890510948906" r="4" fill="#6b63ff" class="data-point" style="animation-delay: 2.75s" />
    <circle cx="696.551724137931" cy="102.1897810218978" r="4" fill="#6b63ff" class="data-point" style="animation-delay: 2.80s" />
    <circle cx="721.0344827586207" cy="93.43065693430657" r="4" fill="#6b63ff" class="data-point" style="animation-delay: 2.85s" />
    <circle cx="745.5172413793103" cy="82.48175182481754" r="4" fill="#6b63ff" class="data-point" style="animation-delay: 2.90s" />
    <circle cx="770" cy="77.37226277372264" r="4" fill="#6b63ff" class="data-point" style="animation-delay: 2.95s" />
  </g>
</svg>