<svg xmlns="http://www.w3.org/2000/svg" viewBox="0 0 800 400" width="800" height="400">
  <style>
    @keyframes drawLine {
      to { stroke-dashoffset: 0; }
    }
    @keyframes fadeInPoint {
      from { opacity: 0; }
      to { opacity: 1; }
    }
    .data-line-0 {
      stroke-dasharray: 1180;
      stroke-dashoffset: 1180;
      animation: drawLine 2s ease-out forwards;
    }
    .data-point {
      opacity: 0;
      animation: fadeInPoint 0.5s ease-out forwards;
    }
    .chart-bg { fill: #fff; }
    .chart-text { fill: #24292e; }
    .chart-muted { fill: #6a737d; }
    .chart-grid { stroke: #eee; }
    .chart-axis { stroke: #6a737d; }
    @media (prefers-color-scheme: dark) {
      .chart-bg { fill: #0d1117; }
      .chart-text { fill: #e6edf3; }
      .chart-muted { fill: #8b949e; }
      .chart-grid { stroke: #21262d; }
      .chart-axis { stroke: #8b949e; }
    }
  </style>
  <rect width="800" height="400" class="chart-bg" />
  <text x="400" y="14" text-anchor="middle" class="chart-text" font-size="16" font-weight="bold" font-family="-apple-system, BlinkMacSystemFont, 'Segoe UI', Helvetica, Arial, sans-serif">dockur/chrony Star History</text>
  
  <g class="grid">
    <line x1="60" y1="350" x2="770" y2="350" class="chart-grid" stroke-opacity="0.3" />
    <text x="778" y="354" text-anchor="start" class="chart-muted" font-size="11" font-family="-apple-system, BlinkMacSystemFont, 'Segoe UI', Helvetica, Arial, sans-serif">0</text>
    <line x1="60" y1="301.61290322580646" x2="770" y2="301.61290322580646" class="chart-grid" stroke-opacity="0.3" />
    <text x="778" y="305.61290322580646" text-anchor="start" class="chart-muted" font-size="11" font-family="-apple-system, BlinkMacSystemFont, 'Segoe UI', Helvetica, Arial, sans-serif">20</text>
    <line x1="60" y1="253.22580645161293" x2="770" y2="253.22580645161293" class="chart-grid" stroke-opacity="0.3" />
    <text x="778" y="257.2258064516129" text-anchor="start" class="chart-muted" font-size="11" font-family="-apple-system, BlinkMacSystemFont, 'Segoe UI', Helvetica, Arial, sans-serif">40</text>
    <line x1="60" y1="204.83870967741936" x2="770" y2="204.83870967741936" class="chart-grid" stroke-opacity="0.3" />
    <text x="778" y="208.83870967741936" text-anchor="start" class="chart-muted" font-size="11" font-family="-apple-system, BlinkMacSystemFont, 'Segoe UI', Helvetica, Arial, sans-serif">60</text>
    <line x1="60" y1="156.45161290322582" x2="770" y2="156.45161290322582" class="chart-grid" stroke-opacity="0.3" />
    <text x="778" y="160.45161290322582" text-anchor="start" class="chart-muted" font-size="11" font-family="-apple-system, BlinkMacSystemFont, 'Segoe UI', Helvetica, Arial, sans-serif">80</text>
    <line x1="60" y1="108.06451612903228" x2="770" y2="108.06451612903228" class="chart-grid" stroke-opacity="0.3" />
    <text x="778" y="112.06451612903228" text-anchor="start" class="chart-muted" font-size="11" font-family="-apple-system, BlinkMacSystemFont, 'Segoe UI', Helvetica, Arial, sans-serif">100</text>
    <line x1="60" y1="59.67741935483872" x2="770" y2="59.67741935483872" class="chart-grid" stroke-opacity="0.3" />
    <text x="778" y="63.67741935483872" text-anchor="start" class="chart-muted" font-size="11" font-family="-apple-system, BlinkMacSystemFont, 'Segoe UI', Helvetica, Arial, sans-serif">120</text>
  </g>
  <g class="milestones">
    
  </g>
  <g class="x-axis">
    <text x="60" y="370" text-anchor="middle" class="chart-muted" font-size="11" font-family="-apple-system, BlinkMacSystemFont, 'Segoe UI', Helvetica, Arial, sans-serif">2023</text>
    <text x="108.9655172413793" y="370" text-anchor="middle" class="chart-muted" font-size="11" font-family="-apple-system, BlinkMacSystemFont, 'Segoe UI', Helvetica, Arial, sans-serif">2024</text>
    <text x="353.7931034482759" y="370" text-anchor="middle" class="chart-muted" font-size="11" font-family="-apple-system, BlinkMacSystemFont, 'Segoe UI', Helvetica, Arial, sans-serif">2025</text>
    <text x="623.1034482758621" y="370" text-anchor="middle" class="chart-muted" font-size="11" font-family="-apple-system, BlinkMacSystemFont, 'Segoe UI', Helvetica, Arial, sans-serif">2026</text>
  </g>
  <line x1="770" y1="50" x2="770" y2="350" class="chart-axis" stroke-width="1" />
  <line x1="60" y1="350" x2="770" y2="350" class="chart-axis" stroke-width="1" />
  <path d="M60,350 L60,347.5806451612903 C68.16091954022988,347.5806451612903 76.32183908045977,347.5806451612903 84.48275862068965,347.5806451612903 C92.64367816091954,347.5806451612903 100.80459770114942,347.5806451612903 108.9655172413793,347.5806451612903 C117.12643678160919,347.5806451612903 125.28735632183907,345.16129032258067 133.44827586206895,342.741935483871 C141.60919540229884,340.3225806451613 149.77011494252872,333.06451612903226 157.9310344827586,333.06451612903226 C166.0919540229885,333.06451612903226 174.2528735632184,333.06451612903226 182.41379310344828,333.06451612903226 C190.57471264367817,333.06451612903226 198.73563218390805,333.06451612903226 206.89655172413794,333.06451612903226 C215.05747126436782,333.06451612903226 223.2183908045977,331.8548387096774 231.3793103448276,330.64516129032256 C239.54022988505747,329.43548387096774 247.70114942528735,325.80645161290323 255.86206896551724,325.80645161290323 C264.0229885057471,325.80645161290323 272.183908045977,325.80645161290323 280.34482758620686,325.80645161290323 C288.50574712643675,325.80645161290323 296.6666666666667,322.58064516129036 304.82758620689657,318.5483870967742 C312.98850574712645,314.5161290322581 321.14942528735634,306.0483870967742 329.3103448275862,301.61290322580646 C337.4712643678161,297.1774193548387 345.632183908046,294.758064516129 353.7931034482759,291.93548387096774 C361.95402298850576,289.11290322580646 370.11494252873564,287.5 378.2758620689655,284.6774193548387 C386.4367816091954,281.85483870967744 394.5977011494253,279.8387096774194 402.7586206896552,275 C410.91954022988506,270.1612903225806 419.08045977011494,260.48387096774195 427.2413793103448,255.64516129032256 C435.4022988505747,250.8064516129032 443.5632183908046,248.79032258064512 451.7241379310345,245.96774193548384 C459.88505747126436,243.14516129032256 468.04597701149424,241.12903225806448 476.2068965517241,238.70967741935482 C484.367816091954,236.29032258064515 492.5287356321839,234.27419354838707 500.6896551724138,231.4516129032258 C508.85057471264366,228.6290322580645 517.0114942528736,227.8225806451613 525.1724137931035,221.7741935483871 C533.3333333333334,215.72580645161293 541.4942528735633,201.20967741935482 549.6551724137931,195.16129032258064 C557.816091954023,189.11290322580646 565.9770114942529,191.93548387096774 574.1379310344828,185.48387096774195 C582.2988505747127,179.03225806451616 590.4597701149426,164.51612903225808 598.6206896551724,156.45161290322582 C606.7816091954023,148.38709677419357 614.9425287356322,141.53225806451613 623.1034482758621,137.09677419354838 C631.264367816092,132.66129032258064 639.4252873563219,133.06451612903226 647.5862068965517,129.83870967741936 C655.7471264367816,126.61290322580646 663.9080459770115,121.37096774193549 672.0689655172414,117.74193548387098 C680.2298850574713,114.11290322580646 688.3908045977012,109.95371486155578 696.551724137931,108.06451612903228 C704.7126436781609,106.17531739650879 712.8735632183908,107.15652027634135 721.0344827586207,105.64516129032256 C729.1954022988506,104.13380230430377 737.3563218390805,102.82258064516127 745.5172413793103,98.38709677419354 C753.6781609195402,93.95161290322581 761.8390804597701,85.48387096774195 770,79.03225806451616 L770,350 L60,350 Z" fill="#6b63ff" fill-opacity="0.1" />
  <path d="M60,350 L60,347.5806451612903 C68.16091954022988,347.5806451612903 76.32183908045977,347.5806451612903 84.48275862068965,347.5806451612903 C92.64367816091954,347.5806451612903 100.80459770114942,347.5806451612903 108.9655172413793,347.5806451612903 C117.12643678160919,347.5806451612903 125.28735632183907,345.16129032258067 133.44827586206895,342.741935483871 C141.60919540229884,340.3225806451613 149.77011494252872,333.06451612903226 157.9310344827586,333.06451612903226 C166.0919540229885,333.06451612903226 174.2528735632184,333.06451612903226 182.41379310344828,333.06451612903226 C190.57471264367817,333.06451612903226 198.73563218390805,333.06451612903226 206.89655172413794,333.06451612903226 C215.05747126436782,333.06451612903226 223.2183908045977,331.8548387096774 231.3793103448276,330.64516129032256 C239.54022988505747,329.43548387096774 247.70114942528735,325.80645161290323 255.86206896551724,325.80645161290323 C264.0229885057471,325.80645161290323 272.183908045977,325.80645161290323 280.34482758620686,325.80645161290323 C288.50574712643675,325.80645161290323 296.6666666666667,322.58064516129036 304.82758620689657,318.5483870967742 C312.98850574712645,314.5161290322581 321.14942528735634,306.0483870967742 329.3103448275862,301.61290322580646 C337.4712643678161,297.1774193548387 345.632183908046,294.758064516129 353.7931034482759,291.93548387096774 C361.95402298850576,289.11290322580646 370.11494252873564,287.5 378.2758620689655,284.6774193548387 C386.4367816091954,281.85483870967744 394.5977011494253,279.8387096774194 402.7586206896552,275 C410.91954022988506,270.1612903225806 419.08045977011494,260.48387096774195 427.2413793103448,255.64516129032256 C435.4022988505747,250.8064516129032 443.5632183908046,248.79032258064512 451.7241379310345,245.96774193548384 C459.88505747126436,243.14516129032256 468.04597701149424,241.12903225806448 476.2068965517241,238.70967741935482 C484.367816091954,236.29032258064515 492.5287356321839,234.27419354838707 500.6896551724138,231.4516129032258 C508.85057471264366,228.6290322580645 517.0114942528736,227.8225806451613 525.1724137931035,221.7741935483871 C533.3333333333334,215.72580645161293 541.4942528735633,201.20967741935482 549.6551724137931,195.16129032258064 C557.816091954023,189.11290322580646 565.9770114942529,191.93548387096774 574.1379310344828,185.48387096774195 C582.2988505747127,179.03225806451616 590.4597701149426,164.51612903225808 598.6206896551724,156.45161290322582 C606.7816091954023,148.38709677419357 614.9425287356322,141.53225806451613 623.1034482758621,137.09677419354838 C631.264367816092,132.66129032258064 639.4252873563219,133.06451612903226 647.5862068965517,129.83870967741936 C655.7471264367816,126.61290322580646 663.9080459770115,121.37096774193549 672.0689655172414,117.74193548387098 C680.2298850574713,114.11290322580646 688.3908045977012,109.95371486155578 696.551724137931,108.06451612903228 C704.7126436781609,106.17531739650879 712.8735632183908,107.15652027634135 721.0344827586207,105.64516129032256 C729.1954022988506,104.13380230430377 737.3563218390805,102.82258064516127 745.5172413793103,98.38709677419354 C753.6781609195402,93.95161290322581 761.8390804597701,85.48387096774195 770,79.03225806451616" fill="none" stroke="#6b63ff" stroke-width="2.5" class="data-line-0" />
  <g class="points">
    
    <circle cx="60" cy="347.5806451612903" r="4" fill="#6b63ff" class="data-point" style="animation-delay: 1.50s" />
    <circle cx="84.48275862068965" cy="347.5806451612903" r="4" fill="#6b63ff" class="data-point" style="animation-delay: 1.55s" />
    <circle cx="108.9655172413793" cy="347.5806451612903" r="4" fill="#6b63ff" class="data-point" style="animation-delay: 1.60s" />
    <circle cx="133.44827586206895" cy="342.741935483871" r="4" fill="#6b63ff" class="data-point" style="animation-delay: 1.65s" />
    <circle cx="157.9310344827586" cy="333.06451612903226" r="4" fill="#6b63ff" class="data-point" style="animation-delay: 1.70s" />
    <circle cx="182.41379310344828" cy="333.06451612903226" r="4" fill="#6b63ff" class="data-point" style="animation-delay: 1.75s" />
    <circle cx="206.89655172413794" cy="333.06451612903226" r="4" fill="#6b63ff" class="data-point" style="animation-delay: 1.80s" />
    <circle cx="231.3793103448276" cy="330.64516129032256" r="4" fill="#6b63ff" class="data-point" style="animation-delay: 1.85s" />
    <circle cx="255.86206896551724" cy="325.80645161290323" r="4" fill="#6b63ff" class="data-point" style="animation-delay: 1.90s" />
    <circle cx="280.34482758620686" cy="325.80645161290323" r="4" fill="#6b63ff" class="data-point" style="animation-delay: 1.95s" />
    <circle cx="304.82758620689657" cy="318.5483870967742" r="4" fill="#6b63ff" class="data-point" style="animation-delay: 2.00s" />
    <circle cx="329.3103448275862" cy="301.61290322580646" r="4" fill="#6b63ff" class="data-point" style="animation-delay: 2.05s" />
    <circle cx="353.7931034482759" cy="291.93548387096774" r="4" fill="#6b63ff" class="data-point" style="animation-delay: 2.10s" />
    <circle cx="378.2758620689655" cy="284.6774193548387" r="4" fill="#6b63ff" class="data-point" style="animation-delay: 2.15s" />
    <circle cx="402.7586206896552" cy="275" r="4" fill="#6b63ff" class="data-point" style="animation-delay: 2.20s" />
    <circle cx="427.2413793103448" cy="255.64516129032256" r="4" fill="#6b63ff" class="data-point" style="animation-delay: 2.25s" />
    <circle cx="451.7241379310345" cy="245.96774193548384" r="4" fill="#6b63ff" class="data-point" style="animation-delay: 2.30s" />
    <circle cx="476.2068965517241" cy="238.70967741935482" r="4" fill="#6b63ff" class="data-point" style="animation-delay: 2.35s" />
    <circle cx="500.6896551724138" cy="231.4516129032258" r="4" fill="#6b63ff" class="data-point" style="animation-delay: 2.40s" />
    <circle cx="525.1724137931035" cy="221.7741935483871" r="4" fill="#6b63ff" class="data-point" style="animation-delay: 2.45s" />
    <circle cx="549.6551724137931" cy="195.16129032258064" r="4" fill="#6b63ff" class="data-point" style="animation-delay: 2.50s" />
    <circle cx="574.1379310344828" cy="185.48387096774195" r="4" fill="#6b63ff" class="data-point" style="animation-delay: 2.55s" />
    <circle cx="598.6206896551724" cy="156.45161290322582" r="4" fill="#6b63ff" class="data-point" style="animation-delay: 2.60s" />
    <circle cx="623.1034482758621" cy="137.09677419354838" r="4" fill="#6b63ff" class="data-point" style="animation-delay: 2.65s" />
    <circle cx="647.5862068965517" cy="129.83870967741936" r="4" fill="#6b63ff" class="data-point" style="animation-delay: 2.70s" />
    <circle cx="672.0689655172414" cy="117.74193548387098" r="4" fill="#6b63ff" class="data-point" style="animation-delay: 2.75s" />
    <circle cx="696.551724137931" cy="108.06451612903228" r="4" fill="#6b63ff" class="data-point" style="animation-delay: 2.80s" />
    <circle cx="721.0344827586207" cy="105.64516129032256" r="4" fill="#6b63ff" class="data-point" style="animation-delay: 2.85s" />
    <circle cx="745.5172413793103" cy="98.38709677419354" r="4" fill="#6b63ff" class="data-point" style="animation-delay: 2.90s" />
    <circle cx="770" cy="79.03225806451616" r="4" fill="#6b63ff" class="data-point" style="animation-delay: 2.95s" />
  </g>
</svg>