<svg xmlns="http://www.w3.org/2000/svg" viewBox="0 0 800 400" width="800" height="400">
  <style>
    @keyframes drawLine {
      to { stroke-dashoffset: 0; }
    }
    @keyframes fadeInPoint {
      from { opacity: 0; }
      to { opacity: 1; }
    }
    .data-line-0 {
      stroke-dasharray: 1185;
      stroke-dashoffset: 1185;
      animation: drawLine 2s ease-out forwards;
    }
    .data-point {
      opacity: 0;
      animation: fadeInPoint 0.5s ease-out forwards;
    }
    .chart-bg { fill: #fff; }
    .chart-text { fill: #24292e; }
    .chart-muted { fill: #6a737d; }
    .chart-grid { stroke: #eee; }
    .chart-axis { stroke: #6a737d; }
    @media (prefers-color-scheme: dark) {
      .chart-bg { fill: #0d1117; }
      .chart-text { fill: #e6edf3; }
      .chart-muted { fill: #8b949e; }
      .chart-grid { stroke: #21262d; }
      .chart-axis { stroke: #8b949e; }
    }
  </style>
  <rect width="800" height="400" class="chart-bg" />
  <text x="400" y="34" text-anchor="middle" class="chart-text" font-size="16" font-weight="bold" font-family="-apple-system, BlinkMacSystemFont, 'Segoe UI', Helvetica, Arial, sans-serif">dockur/windows Star History</text>
  
  <g class="grid">
    <line x1="60" y1="380" x2="770" y2="380" class="chart-grid" stroke-opacity="0.3" />
    <text x="52" y="384" text-anchor="end" class="chart-muted" font-size="11" font-family="-apple-system, BlinkMacSystemFont, 'Segoe UI', Helvetica, Arial, sans-serif">51,772</text>
    <line x1="60" y1="320" x2="770" y2="320" class="chart-grid" stroke-opacity="0.3" />
    <text x="52" y="324" text-anchor="end" class="chart-muted" font-size="11" font-family="-apple-system, BlinkMacSystemFont, 'Segoe UI', Helvetica, Arial, sans-serif">51,774</text>
    <line x1="60" y1="260" x2="770" y2="260" class="chart-grid" stroke-opacity="0.3" />
    <text x="52" y="264" text-anchor="end" class="chart-muted" font-size="11" font-family="-apple-system, BlinkMacSystemFont, 'Segoe UI', Helvetica, Arial, sans-serif">51,776</text>
    <line x1="60" y1="200" x2="770" y2="200" class="chart-grid" stroke-opacity="0.3" />
    <text x="52" y="204" text-anchor="end" class="chart-muted" font-size="11" font-family="-apple-system, BlinkMacSystemFont, 'Segoe UI', Helvetica, Arial, sans-serif">51,778</text>
    <line x1="60" y1="140" x2="770" y2="140" class="chart-grid" stroke-opacity="0.3" />
    <text x="52" y="144" text-anchor="end" class="chart-muted" font-size="11" font-family="-apple-system, BlinkMacSystemFont, 'Segoe UI', Helvetica, Arial, sans-serif">51,780</text>
    <line x1="60" y1="80" x2="770" y2="80" class="chart-grid" stroke-opacity="0.3" />
    <text x="52" y="84" text-anchor="end" class="chart-muted" font-size="11" font-family="-apple-system, BlinkMacSystemFont, 'Segoe UI', Helvetica, Arial, sans-serif">51,782</text>
    <line x1="60" y1="20" x2="770" y2="20" class="chart-grid" stroke-opacity="0.3" />
    <text x="52" y="24" text-anchor="end" class="chart-muted" font-size="11" font-family="-apple-system, BlinkMacSystemFont, 'Segoe UI', Helvetica, Arial, sans-serif">51,784</text>
  </g>
  <g class="milestones">
    
  </g>
  <g class="x-axis">
    <text x="60" y="370" text-anchor="middle" class="chart-muted" font-size="11" font-family="-apple-system, BlinkMacSystemFont, 'Segoe UI', Helvetica, Arial, sans-serif">Jun 23</text>
    <text x="202" y="370" text-anchor="middle" class="chart-muted" font-size="11" font-family="-apple-system, BlinkMacSystemFont, 'Segoe UI', Helvetica, Arial, sans-serif">Jun 24</text>
    <text x="344" y="370" text-anchor="middle" class="chart-muted" font-size="11" font-family="-apple-system, BlinkMacSystemFont, 'Segoe UI', Helvetica, Arial, sans-serif">Jun 24</text>
    <text x="486" y="370" text-anchor="middle" class="chart-muted" font-size="11" font-family="-apple-system, BlinkMacSystemFont, 'Segoe UI', Helvetica, Arial, sans-serif">Jun 24</text>
    <text x="628" y="370" text-anchor="middle" class="chart-muted" font-size="11" font-family="-apple-system, BlinkMacSystemFont, 'Segoe UI', Helvetica, Arial, sans-serif">Jun 24</text>
    <text x="770" y="370" text-anchor="middle" class="chart-muted" font-size="11" font-family="-apple-system, BlinkMacSystemFont, 'Segoe UI', Helvetica, Arial, sans-serif">Jun 24</text>
  </g>
  <line x1="60" y1="50" x2="60" y2="350" class="chart-axis" stroke-width="1" />
  <line x1="60" y1="350" x2="770" y2="350" class="chart-axis" stroke-width="1" />
  <path d="M60,320 C78.93333333333334,312 164.13333333333333,288 202,260 C239.86666666666667,232 306.1333333333333,134 344,110 C381.8666666666667,86 448.1333333333333,84 486,80 C523.8666666666667,76 590.1333333333333,80 628,80 C665.8666666666667,80 751.0666666666667,80 770,80 L770,350 L60,350 Z" fill="#dfb317" fill-opacity="0.1" />
  <path d="M60,320 C78.93333333333334,312 164.13333333333333,288 202,260 C239.86666666666667,232 306.1333333333333,134 344,110 C381.8666666666667,86 448.1333333333333,84 486,80 C523.8666666666667,76 590.1333333333333,80 628,80 C665.8666666666667,80 751.0666666666667,80 770,80" fill="none" stroke="#dfb317" stroke-width="2" class="data-line-0" />
  <g class="points">
    
    <circle cx="60" cy="320" r="4" fill="#dfb317" class="data-point" style="animation-delay: 1.50s" />
    <circle cx="202" cy="260" r="4" fill="#dfb317" class="data-point" style="animation-delay: 1.55s" />
    <circle cx="344" cy="110" r="4" fill="#dfb317" class="data-point" style="animation-delay: 1.60s" />
    <circle cx="486" cy="80" r="4" fill="#dfb317" class="data-point" style="animation-delay: 1.65s" />
    <circle cx="628" cy="80" r="4" fill="#dfb317" class="data-point" style="animation-delay: 1.70s" />
    <circle cx="770" cy="80" r="4" fill="#dfb317" class="data-point" style="animation-delay: 1.75s" />
  </g>
</svg>