<svg xmlns="http://www.w3.org/2000/svg" viewBox="0 0 800 400" width="800" height="400">
  <style>
    @keyframes drawLine {
      to { stroke-dashoffset: 0; }
    }
    @keyframes fadeInPoint {
      from { opacity: 0; }
      to { opacity: 1; }
    }
    .data-line-0 {
      stroke-dasharray: 1156;
      stroke-dashoffset: 1156;
      animation: drawLine 2s ease-out forwards;
    }
    .data-point {
      opacity: 0;
      animation: fadeInPoint 0.5s ease-out forwards;
    }
    .chart-bg { fill: #fff; }
    .chart-text { fill: #24292e; }
    .chart-muted { fill: #6a737d; }
    .chart-grid { stroke: #eee; }
    .chart-axis { stroke: #6a737d; }
    @media (prefers-color-scheme: dark) {
      .chart-bg { fill: #0d1117; }
      .chart-text { fill: #e6edf3; }
      .chart-muted { fill: #8b949e; }
      .chart-grid { stroke: #21262d; }
      .chart-axis { stroke: #8b949e; }
    }
  </style>
  <rect width="800" height="400" class="chart-bg" />
  <text x="400" y="14" text-anchor="middle" class="chart-text" font-size="16" font-weight="bold" font-family="-apple-system, BlinkMacSystemFont, 'Segoe UI', Helvetica, Arial, sans-serif">dockur/samba Star History</text>
  
  <g class="grid">
    <line x1="60" y1="350" x2="770" y2="350" class="chart-grid" stroke-opacity="0.3" />
    <text x="778" y="354" text-anchor="start" class="chart-muted" font-size="11" font-family="-apple-system, BlinkMacSystemFont, 'Segoe UI', Helvetica, Arial, sans-serif">0</text>
    <line x1="60" y1="277.09599027946535" x2="770" y2="277.09599027946535" class="chart-grid" stroke-opacity="0.3" />
    <text x="778" y="281.09599027946535" text-anchor="start" class="chart-muted" font-size="11" font-family="-apple-system, BlinkMacSystemFont, 'Segoe UI', Helvetica, Arial, sans-serif">200</text>
    <line x1="60" y1="204.19198055893074" x2="770" y2="204.19198055893074" class="chart-grid" stroke-opacity="0.3" />
    <text x="778" y="208.19198055893074" text-anchor="start" class="chart-muted" font-size="11" font-family="-apple-system, BlinkMacSystemFont, 'Segoe UI', Helvetica, Arial, sans-serif">400</text>
    <line x1="60" y1="131.2879708383961" x2="770" y2="131.2879708383961" class="chart-grid" stroke-opacity="0.3" />
    <text x="778" y="135.2879708383961" text-anchor="start" class="chart-muted" font-size="11" font-family="-apple-system, BlinkMacSystemFont, 'Segoe UI', Helvetica, Arial, sans-serif">600</text>
    <line x1="60" y1="58.383961117861475" x2="770" y2="58.383961117861475" class="chart-grid" stroke-opacity="0.3" />
    <text x="778" y="62.383961117861475" text-anchor="start" class="chart-muted" font-size="11" font-family="-apple-system, BlinkMacSystemFont, 'Segoe UI', Helvetica, Arial, sans-serif">800</text>
  </g>
  <g class="milestones">
    
  </g>
  <g class="x-axis">
    <text x="60" y="370" text-anchor="middle" class="chart-muted" font-size="11" font-family="-apple-system, BlinkMacSystemFont, 'Segoe UI', Helvetica, Arial, sans-serif">2024</text>
    <text x="329.3103448275862" y="370" text-anchor="middle" class="chart-muted" font-size="11" font-family="-apple-system, BlinkMacSystemFont, 'Segoe UI', Helvetica, Arial, sans-serif">2025</text>
    <text x="647.5862068965517" y="370" text-anchor="middle" class="chart-muted" font-size="11" font-family="-apple-system, BlinkMacSystemFont, 'Segoe UI', Helvetica, Arial, sans-serif">2026</text>
  </g>
  <line x1="770" y1="50" x2="770" y2="350" class="chart-axis" stroke-width="1" />
  <line x1="60" y1="350" x2="770" y2="350" class="chart-axis" stroke-width="1" />
  <path d="M60,350 L60,349.6354799513973 C68.16091954022988,347.81287970838395 76.32183908045977,345.9295261239368 84.48275862068965,344.1676792223572 C92.64367816091954,342.4058323207776 100.80459770114942,340.8262454434994 108.9655172413793,339.0643985419198 C117.12643678160919,337.3025516403402 125.28735632183907,335.29769137302554 133.44827586206895,333.59659781287974 C141.60919540229884,331.89550425273393 149.77011494252872,330.19441069258806 157.9310344827586,328.85783718104494 C166.0919540229885,327.5212636695018 174.2528735632184,326.4277035236938 182.41379310344828,325.5771567436209 C190.57471264367817,324.726609963548 198.73563218390805,324.6051032806804 206.89655172413794,323.7545565006075 C215.05747126436782,322.90400972053465 223.2183908045977,322.0534629404617 231.3793103448276,320.47387606318347 C239.54022988505747,318.8942891859052 247.70114942528735,315.9512335115519 255.86206896551724,314.27703523693805 C264.0229885057471,312.6028369623242 272.183908045977,313.9439629027739 280.34482758620686,309.90279465370594 C288.50574712643675,305.861626404638 296.6666666666667,294.1069258809235 304.82758620689657,288.76063183475094 C312.98850574712645,283.4143377885784 321.14942528735634,281.47023086269746 329.3103448275862,277.8250303766707 C337.4712643678161,274.179829890644 345.632183908046,270.7168894289186 353.7931034482759,266.8894289185905 C361.95402298850576,263.06196840826243 370.11494252873564,258.3232077764277 378.2758620689655,254.8602673147023 C386.4367816091954,251.3973268529769 394.5977011494253,249.93924665856622 402.7586206896552,246.11178614823814 C410.91954022988506,242.28432563791006 419.08045977011494,236.02673147023086 427.2413793103448,231.8955042527339 C435.4022988505747,227.76427703523694 443.5632183908046,224.60510328068042 451.7241379310345,221.32442284325637 C459.88505747126436,218.04374240583232 468.04597701149424,215.5528554070474 476.2068965517241,212.21142162818956 C484.367816091954,208.86998784933172 492.5287356321839,204.92102065613608 500.6896551724138,201.27582017010934 C508.85057471264366,197.6306196840826 517.0114942528736,194.77521263669502 525.1724137931035,190.34021871202916 C533.3333333333334,185.9052247873633 541.4942528735633,179.16160388821385 549.6551724137931,174.6658566221142 C557.816091954023,170.17010935601456 565.9770114942529,167.37545565006076 574.1379310344828,163.36573511543136 C582.2988505747127,159.35601458080197 590.4597701149426,154.3134872417983 598.6206896551724,150.60753341433778 C606.7816091954023,146.90157958687726 614.9425287356322,144.71445929526126 623.1034482758621,141.1300121506683 C631.264367816092,137.54556500607535 639.4252873563219,134.20413122721752 647.5862068965517,129.1008505467801 C655.7471264367816,123.99756986634266 663.9080459770115,115.1883353584447 672.0689655172414,110.51032806804372 C680.2298850574713,105.83232077764274 688.3908045977012,104.07047387606316 696.551724137931,101.03280680437422 C704.7126436781609,97.99513973268527 712.8735632183908,95.56500607533411 721.0344827586207,92.28432563791006 C729.1954022988506,89.003645200486 737.3563218390805,83.83961117861483 745.5172413793103,81.3487241798299 C753.6781609195402,78.85783718104497 761.8390804597701,78.67557715674361 770,77.33900364520048 L770,350 L60,350 Z" fill="#6b63ff" fill-opacity="0.1" />
  <path d="M60,350 L60,349.6354799513973 C68.16091954022988,347.81287970838395 76.32183908045977,345.9295261239368 84.48275862068965,344.1676792223572 C92.64367816091954,342.4058323207776 100.80459770114942,340.8262454434994 108.9655172413793,339.0643985419198 C117.12643678160919,337.3025516403402 125.28735632183907,335.29769137302554 133.44827586206895,333.59659781287974 C141.60919540229884,331.89550425273393 149.77011494252872,330.19441069258806 157.9310344827586,328.85783718104494 C166.0919540229885,327.5212636695018 174.2528735632184,326.4277035236938 182.41379310344828,325.5771567436209 C190.57471264367817,324.726609963548 198.73563218390805,324.6051032806804 206.89655172413794,323.7545565006075 C215.05747126436782,322.90400972053465 223.2183908045977,322.0534629404617 231.3793103448276,320.47387606318347 C239.54022988505747,318.8942891859052 247.70114942528735,315.9512335115519 255.86206896551724,314.27703523693805 C264.0229885057471,312.6028369623242 272.183908045977,313.9439629027739 280.34482758620686,309.90279465370594 C288.50574712643675,305.861626404638 296.6666666666667,294.1069258809235 304.82758620689657,288.76063183475094 C312.98850574712645,283.4143377885784 321.14942528735634,281.47023086269746 329.3103448275862,277.8250303766707 C337.4712643678161,274.179829890644 345.632183908046,270.7168894289186 353.7931034482759,266.8894289185905 C361.95402298850576,263.06196840826243 370.11494252873564,258.3232077764277 378.2758620689655,254.8602673147023 C386.4367816091954,251.3973268529769 394.5977011494253,249.93924665856622 402.7586206896552,246.11178614823814 C410.91954022988506,242.28432563791006 419.08045977011494,236.02673147023086 427.2413793103448,231.8955042527339 C435.4022988505747,227.76427703523694 443.5632183908046,224.60510328068042 451.7241379310345,221.32442284325637 C459.88505747126436,218.04374240583232 468.04597701149424,215.5528554070474 476.2068965517241,212.21142162818956 C484.367816091954,208.86998784933172 492.5287356321839,204.92102065613608 500.6896551724138,201.27582017010934 C508.85057471264366,197.6306196840826 517.0114942528736,194.77521263669502 525.1724137931035,190.34021871202916 C533.3333333333334,185.9052247873633 541.4942528735633,179.16160388821385 549.6551724137931,174.6658566221142 C557.816091954023,170.17010935601456 565.9770114942529,167.37545565006076 574.1379310344828,163.36573511543136 C582.2988505747127,159.35601458080197 590.4597701149426,154.3134872417983 598.6206896551724,150.60753341433778 C606.7816091954023,146.90157958687726 614.9425287356322,144.71445929526126 623.1034482758621,141.1300121506683 C631.264367816092,137.54556500607535 639.4252873563219,134.20413122721752 647.5862068965517,129.1008505467801 C655.7471264367816,123.99756986634266 663.9080459770115,115.1883353584447 672.0689655172414,110.51032806804372 C680.2298850574713,105.83232077764274 688.3908045977012,104.07047387606316 696.551724137931,101.03280680437422 C704.7126436781609,97.99513973268527 712.8735632183908,95.56500607533411 721.0344827586207,92.28432563791006 C729.1954022988506,89.003645200486 737.3563218390805,83.83961117861483 745.5172413793103,81.3487241798299 C753.6781609195402,78.85783718104497 761.8390804597701,78.67557715674361 770,77.33900364520048" fill="none" stroke="#6b63ff" stroke-width="2.5" class="data-line-0" />
  <g class="points">
    
    <circle cx="60" cy="349.6354799513973" r="4" fill="#6b63ff" class="data-point" style="animation-delay: 1.50s" />
    <circle cx="84.48275862068965" cy="344.1676792223572" r="4" fill="#6b63ff" class="data-point" style="animation-delay: 1.55s" />
    <circle cx="108.9655172413793" cy="339.0643985419198" r="4" fill="#6b63ff" class="data-point" style="animation-delay: 1.60s" />
    <circle cx="133.44827586206895" cy="333.59659781287974" r="4" fill="#6b63ff" class="data-point" style="animation-delay: 1.65s" />
    <circle cx="157.9310344827586" cy="328.85783718104494" r="4" fill="#6b63ff" class="data-point" style="animation-delay: 1.70s" />
    <circle cx="182.41379310344828" cy="325.5771567436209" r="4" fill="#6b63ff" class="data-point" style="animation-delay: 1.75s" />
    <circle cx="206.89655172413794" cy="323.7545565006075" r="4" fill="#6b63ff" class="data-point" style="animation-delay: 1.80s" />
    <circle cx="231.3793103448276" cy="320.47387606318347" r="4" fill="#6b63ff" class="data-point" style="animation-delay: 1.85s" />
    <circle cx="255.86206896551724" cy="314.27703523693805" r="4" fill="#6b63ff" class="data-point" style="animation-delay: 1.90s" />
    <circle cx="280.34482758620686" cy="309.90279465370594" r="4" fill="#6b63ff" class="data-point" style="animation-delay: 1.95s" />
    <circle cx="304.82758620689657" cy="288.76063183475094" r="4" fill="#6b63ff" class="data-point" style="animation-delay: 2.00s" />
    <circle cx="329.3103448275862" cy="277.8250303766707" r="4" fill="#6b63ff" class="data-point" style="animation-delay: 2.05s" />
    <circle cx="353.7931034482759" cy="266.8894289185905" r="4" fill="#6b63ff" class="data-point" style="animation-delay: 2.10s" />
    <circle cx="378.2758620689655" cy="254.8602673147023" r="4" fill="#6b63ff" class="data-point" style="animation-delay: 2.15s" />
    <circle cx="402.7586206896552" cy="246.11178614823814" r="4" fill="#6b63ff" class="data-point" style="animation-delay: 2.20s" />
    <circle cx="427.2413793103448" cy="231.8955042527339" r="4" fill="#6b63ff" class="data-point" style="animation-delay: 2.25s" />
    <circle cx="451.7241379310345" cy="221.32442284325637" r="4" fill="#6b63ff" class="data-point" style="animation-delay: 2.30s" />
    <circle cx="476.2068965517241" cy="212.21142162818956" r="4" fill="#6b63ff" class="data-point" style="animation-delay: 2.35s" />
    <circle cx="500.6896551724138" cy="201.27582017010934" r="4" fill="#6b63ff" class="data-point" style="animation-delay: 2.40s" />
    <circle cx="525.1724137931035" cy="190.34021871202916" r="4" fill="#6b63ff" class="data-point" style="animation-delay: 2.45s" />
    <circle cx="549.6551724137931" cy="174.6658566221142" r="4" fill="#6b63ff" class="data-point" style="animation-delay: 2.50s" />
    <circle cx="574.1379310344828" cy="163.36573511543136" r="4" fill="#6b63ff" class="data-point" style="animation-delay: 2.55s" />
    <circle cx="598.6206896551724" cy="150.60753341433778" r="4" fill="#6b63ff" class="data-point" style="animation-delay: 2.60s" />
    <circle cx="623.1034482758621" cy="141.1300121506683" r="4" fill="#6b63ff" class="data-point" style="animation-delay: 2.65s" />
    <circle cx="647.5862068965517" cy="129.1008505467801" r="4" fill="#6b63ff" class="data-point" style="animation-delay: 2.70s" />
    <circle cx="672.0689655172414" cy="110.51032806804372" r="4" fill="#6b63ff" class="data-point" style="animation-delay: 2.75s" />
    <circle cx="696.551724137931" cy="101.03280680437422" r="4" fill="#6b63ff" class="data-point" style="animation-delay: 2.80s" />
    <circle cx="721.0344827586207" cy="92.28432563791006" r="4" fill="#6b63ff" class="data-point" style="animation-delay: 2.85s" />
    <circle cx="745.5172413793103" cy="81.3487241798299" r="4" fill="#6b63ff" class="data-point" style="animation-delay: 2.90s" />
    <circle cx="770" cy="77.33900364520048" r="4" fill="#6b63ff" class="data-point" style="animation-delay: 2.95s" />
  </g>
</svg>