<svg xmlns="http://www.w3.org/2000/svg" viewBox="0 0 800 400" width="800" height="400">
  <style>
    @keyframes drawLine {
      to { stroke-dashoffset: 0; }
    }
    @keyframes fadeInPoint {
      from { opacity: 0; }
      to { opacity: 1; }
    }
    .data-line-0 {
      stroke-dasharray: 1243;
      stroke-dashoffset: 1243;
      animation: drawLine 2s ease-out forwards;
    }
    .data-point {
      opacity: 0;
      animation: fadeInPoint 0.5s ease-out forwards;
    }
    .chart-bg { fill: #fff; }
    .chart-text { fill: #24292e; }
    .chart-muted { fill: #6a737d; }
    .chart-grid { stroke: #eee; }
    .chart-axis { stroke: #6a737d; }
    @media (prefers-color-scheme: dark) {
      .chart-bg { fill: #0d1117; }
      .chart-text { fill: #e6edf3; }
      .chart-muted { fill: #8b949e; }
      .chart-grid { stroke: #21262d; }
      .chart-axis { stroke: #8b949e; }
    }
  </style>
  <rect width="800" height="400" class="chart-bg" />
  <text x="400" y="34" text-anchor="middle" class="chart-text" font-size="16" font-weight="bold" font-family="-apple-system, BlinkMacSystemFont, 'Segoe UI', Helvetica, Arial, sans-serif">dockur/zima Star History</text>
  
  <g class="grid">
    <line x1="60" y1="350" x2="770" y2="350" class="chart-grid" stroke-opacity="0.3" />
    <text x="778" y="354" text-anchor="start" class="chart-muted" font-size="11" font-family="-apple-system, BlinkMacSystemFont, 'Segoe UI', Helvetica, Arial, sans-serif">0</text>
    <line x1="60" y1="261.7647058823529" x2="770" y2="261.7647058823529" class="chart-grid" stroke-opacity="0.3" />
    <text x="778" y="265.7647058823529" text-anchor="start" class="chart-muted" font-size="11" font-family="-apple-system, BlinkMacSystemFont, 'Segoe UI', Helvetica, Arial, sans-serif">5</text>
    <line x1="60" y1="173.52941176470588" x2="770" y2="173.52941176470588" class="chart-grid" stroke-opacity="0.3" />
    <text x="778" y="177.52941176470588" text-anchor="start" class="chart-muted" font-size="11" font-family="-apple-system, BlinkMacSystemFont, 'Segoe UI', Helvetica, Arial, sans-serif">10</text>
    <line x1="60" y1="85.29411764705884" x2="770" y2="85.29411764705884" class="chart-grid" stroke-opacity="0.3" />
    <text x="778" y="89.29411764705884" text-anchor="start" class="chart-muted" font-size="11" font-family="-apple-system, BlinkMacSystemFont, 'Segoe UI', Helvetica, Arial, sans-serif">15</text>
  </g>
  <g class="milestones">
    
  </g>
  <g class="x-axis">
    <text x="60" y="370" text-anchor="middle" class="chart-muted" font-size="11" font-family="-apple-system, BlinkMacSystemFont, 'Segoe UI', Helvetica, Arial, sans-serif">May 25</text>
    <text x="133.44827586206895" y="370" text-anchor="middle" class="chart-muted" font-size="11" font-family="-apple-system, BlinkMacSystemFont, 'Segoe UI', Helvetica, Arial, sans-serif">May 28</text>
    <text x="206.89655172413794" y="370" text-anchor="middle" class="chart-muted" font-size="11" font-family="-apple-system, BlinkMacSystemFont, 'Segoe UI', Helvetica, Arial, sans-serif">May 31</text>
    <text x="280.34482758620686" y="370" text-anchor="middle" class="chart-muted" font-size="11" font-family="-apple-system, BlinkMacSystemFont, 'Segoe UI', Helvetica, Arial, sans-serif">Jun 4</text>
    <text x="353.7931034482759" y="370" text-anchor="middle" class="chart-muted" font-size="11" font-family="-apple-system, BlinkMacSystemFont, 'Segoe UI', Helvetica, Arial, sans-serif">Jun 7</text>
    <text x="427.2413793103448" y="370" text-anchor="middle" class="chart-muted" font-size="11" font-family="-apple-system, BlinkMacSystemFont, 'Segoe UI', Helvetica, Arial, sans-serif">Jun 10</text>
    <text x="500.6896551724138" y="370" text-anchor="middle" class="chart-muted" font-size="11" font-family="-apple-system, BlinkMacSystemFont, 'Segoe UI', Helvetica, Arial, sans-serif">Jun 13</text>
    <text x="574.1379310344828" y="370" text-anchor="middle" class="chart-muted" font-size="11" font-family="-apple-system, BlinkMacSystemFont, 'Segoe UI', Helvetica, Arial, sans-serif">Jun 16</text>
    <text x="647.5862068965517" y="370" text-anchor="middle" class="chart-muted" font-size="11" font-family="-apple-system, BlinkMacSystemFont, 'Segoe UI', Helvetica, Arial, sans-serif">Jun 20</text>
    <text x="721.0344827586207" y="370" text-anchor="middle" class="chart-muted" font-size="11" font-family="-apple-system, BlinkMacSystemFont, 'Segoe UI', Helvetica, Arial, sans-serif">Jun 23</text>
    <text x="770" y="370" text-anchor="middle" class="chart-muted" font-size="11" font-family="-apple-system, BlinkMacSystemFont, 'Segoe UI', Helvetica, Arial, sans-serif">Jun 25</text>
  </g>
  <line x1="770" y1="50" x2="770" y2="350" class="chart-axis" stroke-width="1" />
  <line x1="60" y1="350" x2="770" y2="350" class="chart-axis" stroke-width="1" />
  <path d="M60,350 L60,332.3529411764706 C63.264367816091955,327.64705882352945 77.95402298850574,304.11764705882354 84.48275862068965,297.05882352941177 C91.01149425287356,290 102.43678160919539,286.4705882352941 108.9655172413793,279.4117647058823 C115.49425287356321,272.35294117647055 126.91954022988504,248.8235294117647 133.44827586206895,244.11764705882354 C139.97701149425285,244.11764705882354 151.40229885057468,244.11764705882354 157.9310344827586,244.11764705882354 C164.45977011494253,241.76470588235296 175.88505747126436,228.82352941176472 182.41379310344828,226.47058823529414 C188.9425287356322,226.47058823529414 200.36781609195404,226.47058823529414 206.89655172413794,226.47058823529414 C213.42528735632183,221.76470588235296 224.8505747126437,195.8823529411765 231.3793103448276,191.1764705882353 C237.90804597701148,191.1764705882353 249.33333333333334,191.1764705882353 255.86206896551724,191.1764705882353 C262.39080459770116,188.82352941176472 273.81609195402297,175.88235294117646 280.34482758620686,173.52941176470588 C286.87356321839076,173.52941176470588 298.2988505747127,173.52941176470588 304.82758620689657,173.52941176470588 C311.35632183908046,171.1764705882353 322.7816091954023,158.23529411764704 329.3103448275862,155.88235294117646 C335.8390804597701,155.88235294117646 347.264367816092,155.88235294117646 353.7931034482759,155.88235294117646 C360.32183908045977,153.52941176470588 371.7471264367816,140.58823529411762 378.2758620689655,138.23529411764704 C384.8045977011494,138.23529411764704 396.2298850574713,138.23529411764704 402.7586206896552,138.23529411764704 C409.28735632183907,138.23529411764704 420.71264367816093,138.23529411764704 427.2413793103448,138.23529411764704 C433.7701149425287,135.88235294117646 445.1954022988506,122.94117647058823 451.7241379310345,120.58823529411765 C458.2528735632184,120.58823529411765 469.67816091954023,120.58823529411765 476.2068965517241,120.58823529411765 C482.735632183908,118.23529411764707 494.1609195402299,107.64705882352943 500.6896551724138,102.94117647058826 C507.2183908045977,98.23529411764709 518.6436781609195,87.64705882352943 525.1724137931035,85.29411764705884 C531.7011494252874,85.29411764705884 543.1264367816092,85.29411764705884 549.6551724137931,85.29411764705884 C556.1839080459771,85.29411764705884 567.6091954022988,85.29411764705884 574.1379310344828,85.29411764705884 C580.6666666666667,85.29411764705884 592.0919540229885,85.29411764705884 598.6206896551724,85.29411764705884 C605.1494252873564,85.29411764705884 616.5747126436781,85.29411764705884 623.1034482758621,85.29411764705884 C629.632183908046,85.29411764705884 641.0574712643678,85.29411764705884 647.5862068965517,85.29411764705884 C654.1149425287357,85.29411764705884 665.5402298850574,85.29411764705884 672.0689655172414,85.29411764705884 C678.5977011494253,85.29411764705884 690.0229885057471,85.29411764705884 696.551724137931,85.29411764705884 C703.080459770115,85.29411764705884 714.5057471264367,85.29411764705884 721.0344827586207,85.29411764705884 C727.5632183908046,85.29411764705884 738.9885057471264,85.29411764705884 745.5172413793103,85.29411764705884 C752.0459770114943,85.29411764705884 766.735632183908,85.29411764705884 770,85.29411764705884 L770,350 L60,350 Z" fill="#6b63ff" fill-opacity="0.1" />
  <path d="M60,350 L60,332.3529411764706 C63.264367816091955,327.64705882352945 77.95402298850574,304.11764705882354 84.48275862068965,297.05882352941177 C91.01149425287356,290 102.43678160919539,286.4705882352941 108.9655172413793,279.4117647058823 C115.49425287356321,272.35294117647055 126.91954022988504,248.8235294117647 133.44827586206895,244.11764705882354 C139.97701149425285,244.11764705882354 151.40229885057468,244.11764705882354 157.9310344827586,244.11764705882354 C164.45977011494253,241.76470588235296 175.88505747126436,228.82352941176472 182.41379310344828,226.47058823529414 C188.9425287356322,226.47058823529414 200.36781609195404,226.47058823529414 206.89655172413794,226.47058823529414 C213.42528735632183,221.76470588235296 224.8505747126437,195.8823529411765 231.3793103448276,191.1764705882353 C237.90804597701148,191.1764705882353 249.33333333333334,191.1764705882353 255.86206896551724,191.1764705882353 C262.39080459770116,188.82352941176472 273.81609195402297,175.88235294117646 280.34482758620686,173.52941176470588 C286.87356321839076,173.52941176470588 298.2988505747127,173.52941176470588 304.82758620689657,173.52941176470588 C311.35632183908046,171.1764705882353 322.7816091954023,158.23529411764704 329.3103448275862,155.88235294117646 C335.8390804597701,155.88235294117646 347.264367816092,155.88235294117646 353.7931034482759,155.88235294117646 C360.32183908045977,153.52941176470588 371.7471264367816,140.58823529411762 378.2758620689655,138.23529411764704 C384.8045977011494,138.23529411764704 396.2298850574713,138.23529411764704 402.7586206896552,138.23529411764704 C409.28735632183907,138.23529411764704 420.71264367816093,138.23529411764704 427.2413793103448,138.23529411764704 C433.7701149425287,135.88235294117646 445.1954022988506,122.94117647058823 451.7241379310345,120.58823529411765 C458.2528735632184,120.58823529411765 469.67816091954023,120.58823529411765 476.2068965517241,120.58823529411765 C482.735632183908,118.23529411764707 494.1609195402299,107.64705882352943 500.6896551724138,102.94117647058826 C507.2183908045977,98.23529411764709 518.6436781609195,87.64705882352943 525.1724137931035,85.29411764705884 C531.7011494252874,85.29411764705884 543.1264367816092,85.29411764705884 549.6551724137931,85.29411764705884 C556.1839080459771,85.29411764705884 567.6091954022988,85.29411764705884 574.1379310344828,85.29411764705884 C580.6666666666667,85.29411764705884 592.0919540229885,85.29411764705884 598.6206896551724,85.29411764705884 C605.1494252873564,85.29411764705884 616.5747126436781,85.29411764705884 623.1034482758621,85.29411764705884 C629.632183908046,85.29411764705884 641.0574712643678,85.29411764705884 647.5862068965517,85.29411764705884 C654.1149425287357,85.29411764705884 665.5402298850574,85.29411764705884 672.0689655172414,85.29411764705884 C678.5977011494253,85.29411764705884 690.0229885057471,85.29411764705884 696.551724137931,85.29411764705884 C703.080459770115,85.29411764705884 714.5057471264367,85.29411764705884 721.0344827586207,85.29411764705884 C727.5632183908046,85.29411764705884 738.9885057471264,85.29411764705884 745.5172413793103,85.29411764705884 C752.0459770114943,85.29411764705884 766.735632183908,85.29411764705884 770,85.29411764705884" fill="none" stroke="#6b63ff" stroke-width="2.5" class="data-line-0" />
  <g class="points">
    
    <circle cx="60" cy="332.3529411764706" r="4" fill="#6b63ff" class="data-point" style="animation-delay: 1.50s" />
    <circle cx="84.48275862068965" cy="297.05882352941177" r="4" fill="#6b63ff" class="data-point" style="animation-delay: 1.55s" />
    <circle cx="108.9655172413793" cy="279.4117647058823" r="4" fill="#6b63ff" class="data-point" style="animation-delay: 1.60s" />
    <circle cx="133.44827586206895" cy="244.11764705882354" r="4" fill="#6b63ff" class="data-point" style="animation-delay: 1.65s" />
    <circle cx="157.9310344827586" cy="244.11764705882354" r="4" fill="#6b63ff" class="data-point" style="animation-delay: 1.70s" />
    <circle cx="182.41379310344828" cy="226.47058823529414" r="4" fill="#6b63ff" class="data-point" style="animation-delay: 1.75s" />
    <circle cx="206.89655172413794" cy="226.47058823529414" r="4" fill="#6b63ff" class="data-point" style="animation-delay: 1.80s" />
    <circle cx="231.3793103448276" cy="191.1764705882353" r="4" fill="#6b63ff" class="data-point" style="animation-delay: 1.85s" />
    <circle cx="255.86206896551724" cy="191.1764705882353" r="4" fill="#6b63ff" class="data-point" style="animation-delay: 1.90s" />
    <circle cx="280.34482758620686" cy="173.52941176470588" r="4" fill="#6b63ff" class="data-point" style="animation-delay: 1.95s" />
    <circle cx="304.82758620689657" cy="173.52941176470588" r="4" fill="#6b63ff" class="data-point" style="animation-delay: 2.00s" />
    <circle cx="329.3103448275862" cy="155.88235294117646" r="4" fill="#6b63ff" class="data-point" style="animation-delay: 2.05s" />
    <circle cx="353.7931034482759" cy="155.88235294117646" r="4" fill="#6b63ff" class="data-point" style="animation-delay: 2.10s" />
    <circle cx="378.2758620689655" cy="138.23529411764704" r="4" fill="#6b63ff" class="data-point" style="animation-delay: 2.15s" />
    <circle cx="402.7586206896552" cy="138.23529411764704" r="4" fill="#6b63ff" class="data-point" style="animation-delay: 2.20s" />
    <circle cx="427.2413793103448" cy="138.23529411764704" r="4" fill="#6b63ff" class="data-point" style="animation-delay: 2.25s" />
    <circle cx="451.7241379310345" cy="120.58823529411765" r="4" fill="#6b63ff" class="data-point" style="animation-delay: 2.30s" />
    <circle cx="476.2068965517241" cy="120.58823529411765" r="4" fill="#6b63ff" class="data-point" style="animation-delay: 2.35s" />
    <circle cx="500.6896551724138" cy="102.94117647058826" r="4" fill="#6b63ff" class="data-point" style="animation-delay: 2.40s" />
    <circle cx="525.1724137931035" cy="85.29411764705884" r="4" fill="#6b63ff" class="data-point" style="animation-delay: 2.45s" />
    <circle cx="549.6551724137931" cy="85.29411764705884" r="4" fill="#6b63ff" class="data-point" style="animation-delay: 2.50s" />
    <circle cx="574.1379310344828" cy="85.29411764705884" r="4" fill="#6b63ff" class="data-point" style="animation-delay: 2.55s" />
    <circle cx="598.6206896551724" cy="85.29411764705884" r="4" fill="#6b63ff" class="data-point" style="animation-delay: 2.60s" />
    <circle cx="623.1034482758621" cy="85.29411764705884" r="4" fill="#6b63ff" class="data-point" style="animation-delay: 2.65s" />
    <circle cx="647.5862068965517" cy="85.29411764705884" r="4" fill="#6b63ff" class="data-point" style="animation-delay: 2.70s" />
    <circle cx="672.0689655172414" cy="85.29411764705884" r="4" fill="#6b63ff" class="data-point" style="animation-delay: 2.75s" />
    <circle cx="696.551724137931" cy="85.29411764705884" r="4" fill="#6b63ff" class="data-point" style="animation-delay: 2.80s" />
    <circle cx="721.0344827586207" cy="85.29411764705884" r="4" fill="#6b63ff" class="data-point" style="animation-delay: 2.85s" />
    <circle cx="745.5172413793103" cy="85.29411764705884" r="4" fill="#6b63ff" class="data-point" style="animation-delay: 2.90s" />
    <circle cx="770" cy="85.29411764705884" r="4" fill="#6b63ff" class="data-point" style="animation-delay: 2.95s" />
  </g>
</svg>