<svg xmlns="http://www.w3.org/2000/svg" viewBox="0 0 800 400" width="800" height="400">
  <style>
    @keyframes drawLine {
      to { stroke-dashoffset: 0; }
    }
    @keyframes fadeInPoint {
      from { opacity: 0; }
      to { opacity: 1; }
    }
    .data-line-0 {
      stroke-dasharray: 1189;
      stroke-dashoffset: 1189;
      animation: drawLine 2s ease-out forwards;
    }
    .data-point {
      opacity: 0;
      animation: fadeInPoint 0.5s ease-out forwards;
    }
    .chart-bg { fill: #fff; }
    .chart-text { fill: #24292e; }
    .chart-muted { fill: #6a737d; }
    .chart-grid { stroke: #eee; }
    .chart-axis { stroke: #6a737d; }
    @media (prefers-color-scheme: dark) {
      .chart-bg { fill: #0d1117; }
      .chart-text { fill: #e6edf3; }
      .chart-muted { fill: #8b949e; }
      .chart-grid { stroke: #21262d; }
      .chart-axis { stroke: #8b949e; }
    }
  </style>
  <rect width="800" height="400" class="chart-bg" />
  <text x="400" y="14" text-anchor="middle" class="chart-text" font-size="16" font-weight="bold" font-family="-apple-system, BlinkMacSystemFont, 'Segoe UI', Helvetica, Arial, sans-serif">dockur/windows Star History</text>
  
  <g class="grid">
    <line x1="60" y1="350" x2="770" y2="350" class="chart-grid" stroke-opacity="0.3" />
    <text x="778" y="354" text-anchor="start" class="chart-muted" font-size="11" font-family="-apple-system, BlinkMacSystemFont, 'Segoe UI', Helvetica, Arial, sans-serif">0</text>
    <line x1="60" y1="300" x2="770" y2="300" class="chart-grid" stroke-opacity="0.3" />
    <text x="778" y="304" text-anchor="start" class="chart-muted" font-size="11" font-family="-apple-system, BlinkMacSystemFont, 'Segoe UI', Helvetica, Arial, sans-serif">10K</text>
    <line x1="60" y1="250" x2="770" y2="250" class="chart-grid" stroke-opacity="0.3" />
    <text x="778" y="254" text-anchor="start" class="chart-muted" font-size="11" font-family="-apple-system, BlinkMacSystemFont, 'Segoe UI', Helvetica, Arial, sans-serif">20K</text>
    <line x1="60" y1="200" x2="770" y2="200" class="chart-grid" stroke-opacity="0.3" />
    <text x="778" y="204" text-anchor="start" class="chart-muted" font-size="11" font-family="-apple-system, BlinkMacSystemFont, 'Segoe UI', Helvetica, Arial, sans-serif">30K</text>
    <line x1="60" y1="150" x2="770" y2="150" class="chart-grid" stroke-opacity="0.3" />
    <text x="778" y="154" text-anchor="start" class="chart-muted" font-size="11" font-family="-apple-system, BlinkMacSystemFont, 'Segoe UI', Helvetica, Arial, sans-serif">40K</text>
    <line x1="60" y1="100" x2="770" y2="100" class="chart-grid" stroke-opacity="0.3" />
    <text x="778" y="104" text-anchor="start" class="chart-muted" font-size="11" font-family="-apple-system, BlinkMacSystemFont, 'Segoe UI', Helvetica, Arial, sans-serif">50K</text>
    <line x1="60" y1="50" x2="770" y2="50" class="chart-grid" stroke-opacity="0.3" />
    <text x="778" y="54" text-anchor="start" class="chart-muted" font-size="11" font-family="-apple-system, BlinkMacSystemFont, 'Segoe UI', Helvetica, Arial, sans-serif">60K</text>
  </g>
  <g class="milestones">
    
  </g>
  <g class="x-axis">
    <text x="60" y="370" text-anchor="middle" class="chart-muted" font-size="11" font-family="-apple-system, BlinkMacSystemFont, 'Segoe UI', Helvetica, Arial, sans-serif">2024</text>
    <text x="353.7931034482759" y="370" text-anchor="middle" class="chart-muted" font-size="11" font-family="-apple-system, BlinkMacSystemFont, 'Segoe UI', Helvetica, Arial, sans-serif">2025</text>
    <text x="647.5862068965517" y="370" text-anchor="middle" class="chart-muted" font-size="11" font-family="-apple-system, BlinkMacSystemFont, 'Segoe UI', Helvetica, Arial, sans-serif">2026</text>
  </g>
  <line x1="770" y1="50" x2="770" y2="350" class="chart-axis" stroke-width="1" />
  <line x1="60" y1="350" x2="770" y2="350" class="chart-axis" stroke-width="1" />
  <path d="M60,350 L60,349.935 C68.16091954022988,347.86367368972105 76.32183908045977,349.6015466818932 84.48275862068965,343.335 C92.64367816091954,337.0684533181068 100.80459770114942,318.88916666666665 108.9655172413793,310 C117.12643678160919,301.11083333333335 125.28735632183907,294.44416666666666 133.44827586206895,290 C141.60919540229884,285.55583333333334 149.77011494252872,285.55749999999995 157.9310344827586,283.335 C166.0919540229885,281.11249999999995 174.2528735632184,278.37666666666667 182.41379310344828,276.665 C190.57471264367817,274.9533333333334 198.73563218390805,274.17583333333334 206.89655172413794,273.065 C215.05747126436782,271.95416666666665 223.2183908045977,270 231.3793103448276,270 C239.54022988505747,270 247.70114942528735,270 255.86206896551724,270 C264.0229885057471,270 272.183908045977,270 280.34482758620686,263.33500000000004 C288.50574712643675,256.6700000000001 296.6666666666667,216.50624848179675 304.82758620689657,210 C312.98850574712645,203.49375151820328 321.14942528735634,204.78101372507933 329.3103448275862,203.335 C337.4712643678161,201.88898627492068 345.632183908046,198.8875 353.7931034482759,196.665 C361.95402298850576,194.4425 370.11494252873564,190 378.2758620689655,190 C386.4367816091954,190 394.5977011494253,190 402.7586206896552,190 C410.91954022988506,190 419.08045977011494,185.2575 427.2413793103448,183.335 C435.4022988505747,181.41250000000002 443.5632183908046,179.57666666666668 451.7241379310345,178.465 C459.88505747126436,177.35333333333332 468.04597701149424,177.19833333333332 476.2068965517241,176.665 C484.367816091954,176.13166666666666 492.5287356321839,176.3758333333333 500.6896551724138,175.265 C508.85057471264366,174.15416666666664 517.0114942528736,174.21083333333334 525.1724137931035,170 C533.3333333333334,165.78916666666666 541.4942528735633,154.45833333333334 549.6551724137931,150 C557.816091954023,145.54166666666666 565.9770114942529,145.49916666666667 574.1379310344828,143.25 C582.2988505747127,141.00083333333333 590.4597701149426,138.75416666666666 598.6206896551724,136.505 C606.7816091954023,134.25583333333333 614.9425287356322,132.005 623.1034482758621,129.755 C631.264367816092,127.505 639.4252873563219,125.25416666666666 647.5862068965517,123.005 C655.7471264367816,120.75583333333333 663.9080459770115,118.50916666666666 672.0689655172414,116.25999999999999 C680.2298850574713,114.01083333333332 688.3908045977012,111.76000000000002 696.551724137931,109.51000000000002 C704.7126436781609,107.26000000000002 712.8735632183908,105.00916666666666 721.0344827586207,102.75999999999999 C729.1954022988506,100.51083333333332 737.3563218390805,98.26416666666665 745.5172413793103,96.01499999999999 C753.6781609195402,93.76583333333332 761.8390804597701,91.51499999999999 770,89.26499999999999 L770,350 L60,350 Z" fill="#6b63ff" fill-opacity="0.1" />
  <path d="M60,350 L60,349.935 C68.16091954022988,347.86367368972105 76.32183908045977,349.6015466818932 84.48275862068965,343.335 C92.64367816091954,337.0684533181068 100.80459770114942,318.88916666666665 108.9655172413793,310 C117.12643678160919,301.11083333333335 125.28735632183907,294.44416666666666 133.44827586206895,290 C141.60919540229884,285.55583333333334 149.77011494252872,285.55749999999995 157.9310344827586,283.335 C166.0919540229885,281.11249999999995 174.2528735632184,278.37666666666667 182.41379310344828,276.665 C190.57471264367817,274.9533333333334 198.73563218390805,274.17583333333334 206.89655172413794,273.065 C215.05747126436782,271.95416666666665 223.2183908045977,270 231.3793103448276,270 C239.54022988505747,270 247.70114942528735,270 255.86206896551724,270 C264.0229885057471,270 272.183908045977,270 280.34482758620686,263.33500000000004 C288.50574712643675,256.6700000000001 296.6666666666667,216.50624848179675 304.82758620689657,210 C312.98850574712645,203.49375151820328 321.14942528735634,204.78101372507933 329.3103448275862,203.335 C337.4712643678161,201.88898627492068 345.632183908046,198.8875 353.7931034482759,196.665 C361.95402298850576,194.4425 370.11494252873564,190 378.2758620689655,190 C386.4367816091954,190 394.5977011494253,190 402.7586206896552,190 C410.91954022988506,190 419.08045977011494,185.2575 427.2413793103448,183.335 C435.4022988505747,181.41250000000002 443.5632183908046,179.57666666666668 451.7241379310345,178.465 C459.88505747126436,177.35333333333332 468.04597701149424,177.19833333333332 476.2068965517241,176.665 C484.367816091954,176.13166666666666 492.5287356321839,176.3758333333333 500.6896551724138,175.265 C508.85057471264366,174.15416666666664 517.0114942528736,174.21083333333334 525.1724137931035,170 C533.3333333333334,165.78916666666666 541.4942528735633,154.45833333333334 549.6551724137931,150 C557.816091954023,145.54166666666666 565.9770114942529,145.49916666666667 574.1379310344828,143.25 C582.2988505747127,141.00083333333333 590.4597701149426,138.75416666666666 598.6206896551724,136.505 C606.7816091954023,134.25583333333333 614.9425287356322,132.005 623.1034482758621,129.755 C631.264367816092,127.505 639.4252873563219,125.25416666666666 647.5862068965517,123.005 C655.7471264367816,120.75583333333333 663.9080459770115,118.50916666666666 672.0689655172414,116.25999999999999 C680.2298850574713,114.01083333333332 688.3908045977012,111.76000000000002 696.551724137931,109.51000000000002 C704.7126436781609,107.26000000000002 712.8735632183908,105.00916666666666 721.0344827586207,102.75999999999999 C729.1954022988506,100.51083333333332 737.3563218390805,98.26416666666665 745.5172413793103,96.01499999999999 C753.6781609195402,93.76583333333332 761.8390804597701,91.51499999999999 770,89.26499999999999" fill="none" stroke="#6b63ff" stroke-width="2.5" class="data-line-0" />
  <g class="points">
    
    <circle cx="60" cy="349.935" r="4" fill="#6b63ff" class="data-point" style="animation-delay: 1.50s" />
    <circle cx="84.48275862068965" cy="343.335" r="4" fill="#6b63ff" class="data-point" style="animation-delay: 1.55s" />
    <circle cx="108.9655172413793" cy="310" r="4" fill="#6b63ff" class="data-point" style="animation-delay: 1.60s" />
    <circle cx="133.44827586206895" cy="290" r="4" fill="#6b63ff" class="data-point" style="animation-delay: 1.65s" />
    <circle cx="157.9310344827586" cy="283.335" r="4" fill="#6b63ff" class="data-point" style="animation-delay: 1.70s" />
    <circle cx="182.41379310344828" cy="276.665" r="4" fill="#6b63ff" class="data-point" style="animation-delay: 1.75s" />
    <circle cx="206.89655172413794" cy="273.065" r="4" fill="#6b63ff" class="data-point" style="animation-delay: 1.80s" />
    <circle cx="231.3793103448276" cy="270" r="4" fill="#6b63ff" class="data-point" style="animation-delay: 1.85s" />
    <circle cx="255.86206896551724" cy="270" r="4" fill="#6b63ff" class="data-point" style="animation-delay: 1.90s" />
    <circle cx="280.34482758620686" cy="263.33500000000004" r="4" fill="#6b63ff" class="data-point" style="animation-delay: 1.95s" />
    <circle cx="304.82758620689657" cy="210" r="4" fill="#6b63ff" class="data-point" style="animation-delay: 2.00s" />
    <circle cx="329.3103448275862" cy="203.335" r="4" fill="#6b63ff" class="data-point" style="animation-delay: 2.05s" />
    <circle cx="353.7931034482759" cy="196.665" r="4" fill="#6b63ff" class="data-point" style="animation-delay: 2.10s" />
    <circle cx="378.2758620689655" cy="190" r="4" fill="#6b63ff" class="data-point" style="animation-delay: 2.15s" />
    <circle cx="402.7586206896552" cy="190" r="4" fill="#6b63ff" class="data-point" style="animation-delay: 2.20s" />
    <circle cx="427.2413793103448" cy="183.335" r="4" fill="#6b63ff" class="data-point" style="animation-delay: 2.25s" />
    <circle cx="451.7241379310345" cy="178.465" r="4" fill="#6b63ff" class="data-point" style="animation-delay: 2.30s" />
    <circle cx="476.2068965517241" cy="176.665" r="4" fill="#6b63ff" class="data-point" style="animation-delay: 2.35s" />
    <circle cx="500.6896551724138" cy="175.265" r="4" fill="#6b63ff" class="data-point" style="animation-delay: 2.40s" />
    <circle cx="525.1724137931035" cy="170" r="4" fill="#6b63ff" class="data-point" style="animation-delay: 2.45s" />
    <circle cx="549.6551724137931" cy="150" r="4" fill="#6b63ff" class="data-point" style="animation-delay: 2.50s" />
    <circle cx="574.1379310344828" cy="143.25" r="4" fill="#6b63ff" class="data-point" style="animation-delay: 2.55s" />
    <circle cx="598.6206896551724" cy="136.505" r="4" fill="#6b63ff" class="data-point" style="animation-delay: 2.60s" />
    <circle cx="623.1034482758621" cy="129.755" r="4" fill="#6b63ff" class="data-point" style="animation-delay: 2.65s" />
    <circle cx="647.5862068965517" cy="123.005" r="4" fill="#6b63ff" class="data-point" style="animation-delay: 2.70s" />
    <circle cx="672.0689655172414" cy="116.25999999999999" r="4" fill="#6b63ff" class="data-point" style="animation-delay: 2.75s" />
    <circle cx="696.551724137931" cy="109.51000000000002" r="4" fill="#6b63ff" class="data-point" style="animation-delay: 2.80s" />
    <circle cx="721.0344827586207" cy="102.75999999999999" r="4" fill="#6b63ff" class="data-point" style="animation-delay: 2.85s" />
    <circle cx="745.5172413793103" cy="96.01499999999999" r="4" fill="#6b63ff" class="data-point" style="animation-delay: 2.90s" />
    <circle cx="770" cy="89.26499999999999" r="4" fill="#6b63ff" class="data-point" style="animation-delay: 2.95s" />
  </g>
</svg>