<svg xmlns="http://www.w3.org/2000/svg" viewBox="0 0 800 400" width="800" height="400">
  <style>
    @keyframes drawLine {
      to { stroke-dashoffset: 0; }
    }
    @keyframes fadeInPoint {
      from { opacity: 0; }
      to { opacity: 1; }
    }
    .data-line-0 {
      stroke-dasharray: 1271;
      stroke-dashoffset: 1271;
      animation: drawLine 2s ease-out forwards;
    }
    .data-point {
      opacity: 0;
      animation: fadeInPoint 0.5s ease-out forwards;
    }
    .chart-bg { fill: #fff; }
    .chart-text { fill: #24292e; }
    .chart-muted { fill: #6a737d; }
    .chart-grid { stroke: #eee; }
    .chart-axis { stroke: #6a737d; }
    @media (prefers-color-scheme: dark) {
      .chart-bg { fill: #0d1117; }
      .chart-text { fill: #e6edf3; }
      .chart-muted { fill: #8b949e; }
      .chart-grid { stroke: #21262d; }
      .chart-axis { stroke: #8b949e; }
    }
  </style>
  <rect width="800" height="400" class="chart-bg" />
  <text x="400" y="14" text-anchor="middle" class="chart-text" font-size="16" font-weight="bold" font-family="-apple-system, BlinkMacSystemFont, 'Segoe UI', Helvetica, Arial, sans-serif">dockur/proxmox Star History</text>
  
  <g class="grid">
    <line x1="60" y1="350" x2="770" y2="350" class="chart-grid" stroke-opacity="0.3" />
    <text x="778" y="354" text-anchor="start" class="chart-muted" font-size="11" font-family="-apple-system, BlinkMacSystemFont, 'Segoe UI', Helvetica, Arial, sans-serif">0</text>
    <line x1="60" y1="290.9448818897638" x2="770" y2="290.9448818897638" class="chart-grid" stroke-opacity="0.3" />
    <text x="778" y="294.9448818897638" text-anchor="start" class="chart-muted" font-size="11" font-family="-apple-system, BlinkMacSystemFont, 'Segoe UI', Helvetica, Arial, sans-serif">50</text>
    <line x1="60" y1="231.88976377952756" x2="770" y2="231.88976377952756" class="chart-grid" stroke-opacity="0.3" />
    <text x="778" y="235.88976377952756" text-anchor="start" class="chart-muted" font-size="11" font-family="-apple-system, BlinkMacSystemFont, 'Segoe UI', Helvetica, Arial, sans-serif">100</text>
    <line x1="60" y1="172.83464566929135" x2="770" y2="172.83464566929135" class="chart-grid" stroke-opacity="0.3" />
    <text x="778" y="176.83464566929135" text-anchor="start" class="chart-muted" font-size="11" font-family="-apple-system, BlinkMacSystemFont, 'Segoe UI', Helvetica, Arial, sans-serif">150</text>
    <line x1="60" y1="113.77952755905511" x2="770" y2="113.77952755905511" class="chart-grid" stroke-opacity="0.3" />
    <text x="778" y="117.77952755905511" text-anchor="start" class="chart-muted" font-size="11" font-family="-apple-system, BlinkMacSystemFont, 'Segoe UI', Helvetica, Arial, sans-serif">200</text>
    <line x1="60" y1="54.7244094488189" x2="770" y2="54.7244094488189" class="chart-grid" stroke-opacity="0.3" />
    <text x="778" y="58.7244094488189" text-anchor="start" class="chart-muted" font-size="11" font-family="-apple-system, BlinkMacSystemFont, 'Segoe UI', Helvetica, Arial, sans-serif">250</text>
  </g>
  <g class="milestones">
    
  </g>
  <g class="x-axis">
    <text x="60" y="370" text-anchor="middle" class="chart-muted" font-size="11" font-family="-apple-system, BlinkMacSystemFont, 'Segoe UI', Helvetica, Arial, sans-serif">May 27</text>
    <text x="133.44827586206895" y="370" text-anchor="middle" class="chart-muted" font-size="11" font-family="-apple-system, BlinkMacSystemFont, 'Segoe UI', Helvetica, Arial, sans-serif">May 31</text>
    <text x="206.89655172413794" y="370" text-anchor="middle" class="chart-muted" font-size="11" font-family="-apple-system, BlinkMacSystemFont, 'Segoe UI', Helvetica, Arial, sans-serif">Jun 3</text>
    <text x="280.34482758620686" y="370" text-anchor="middle" class="chart-muted" font-size="11" font-family="-apple-system, BlinkMacSystemFont, 'Segoe UI', Helvetica, Arial, sans-serif">Jun 6</text>
    <text x="353.7931034482759" y="370" text-anchor="middle" class="chart-muted" font-size="11" font-family="-apple-system, BlinkMacSystemFont, 'Segoe UI', Helvetica, Arial, sans-serif">Jun 9</text>
    <text x="427.2413793103448" y="370" text-anchor="middle" class="chart-muted" font-size="11" font-family="-apple-system, BlinkMacSystemFont, 'Segoe UI', Helvetica, Arial, sans-serif">Jun 13</text>
    <text x="500.6896551724138" y="370" text-anchor="middle" class="chart-muted" font-size="11" font-family="-apple-system, BlinkMacSystemFont, 'Segoe UI', Helvetica, Arial, sans-serif">Jun 16</text>
    <text x="574.1379310344828" y="370" text-anchor="middle" class="chart-muted" font-size="11" font-family="-apple-system, BlinkMacSystemFont, 'Segoe UI', Helvetica, Arial, sans-serif">Jun 19</text>
    <text x="647.5862068965517" y="370" text-anchor="middle" class="chart-muted" font-size="11" font-family="-apple-system, BlinkMacSystemFont, 'Segoe UI', Helvetica, Arial, sans-serif">Jun 22</text>
    <text x="721.0344827586207" y="370" text-anchor="middle" class="chart-muted" font-size="11" font-family="-apple-system, BlinkMacSystemFont, 'Segoe UI', Helvetica, Arial, sans-serif">Jun 25</text>
    <text x="770" y="370" text-anchor="middle" class="chart-muted" font-size="11" font-family="-apple-system, BlinkMacSystemFont, 'Segoe UI', Helvetica, Arial, sans-serif">Jun 28</text>
  </g>
  <line x1="770" y1="50" x2="770" y2="350" class="chart-axis" stroke-width="1" />
  <line x1="60" y1="350" x2="770" y2="350" class="chart-axis" stroke-width="1" />
  <path d="M60,350 L60,348.81889763779526 C68.16091954022988,320.4724409448819 76.32183908045977,285.23622047244095 84.48275862068965,263.7795275590551 C92.64367816091954,242.32283464566927 100.80459770114942,234.05511811023624 108.9655172413793,220.07874015748033 C117.12643678160919,206.10236220472441 125.28735632183907,191.53543307086613 133.44827586206895,179.92125984251967 C141.60919540229884,168.30708661417322 149.77011494252872,157.4803149606299 157.9310344827586,150.39370078740157 C166.0919540229885,143.30708661417322 174.2528735632184,139.6063282036293 182.41379310344828,137.40157480314963 C190.57471264367817,135.19682140266997 198.73563218390805,135.88735215584774 206.89655172413794,135.03937007874018 C215.05747126436782,134.19138800163262 223.2183908045977,133.46456692913387 231.3793103448276,131.49606299212599 C239.54022988505747,129.5275590551181 247.70114942528735,125.39370078740158 255.86206896551724,123.22834645669292 C264.0229885057471,121.06299212598425 272.183908045977,119.68503937007874 280.34482758620686,118.50393700787401 C288.50574712643675,117.32283464566929 296.6666666666667,117.12598425196853 304.82758620689657,116.14173228346459 C312.98850574712645,115.15748031496065 321.14942528735634,114.37007874015747 329.3103448275862,112.59842519685037 C337.4712643678161,110.82677165354328 345.632183908046,108.46456692913385 353.7931034482759,105.51181102362204 C361.95402298850576,102.55905511811024 370.11494252873564,94.88188976377953 378.2758620689655,94.88188976377953 C386.4367816091954,94.88188976377953 394.5977011494253,94.88188976377953 402.7586206896552,94.88188976377953 C410.91954022988506,94.88188976377953 419.08045977011494,93.70078740157481 427.2413793103448,93.70078740157481 C435.4022988505747,93.70078740157481 443.5632183908046,93.70078740157481 451.7241379310345,93.70078740157481 C459.88505747126436,93.70078740157481 468.04597701149424,93.70078740157481 476.2068965517241,93.70078740157481 C484.367816091954,93.70078740157481 492.5287356321839,92.91338582677166 500.6896551724138,92.51968503937007 C508.85057471264366,92.12598425196849 517.0114942528736,91.92913385826769 525.1724137931035,91.33858267716533 C533.3333333333334,90.74803149606298 541.4942528735633,89.56692913385827 549.6551724137931,88.97637795275591 C557.816091954023,88.38582677165356 565.9770114942529,88.18897637795276 574.1379310344828,87.79527559055117 C582.2988505747127,87.40157480314959 590.4597701149426,87.007874015748 598.6206896551724,86.61417322834643 C606.7816091954023,86.22047244094486 614.9425287356322,85.43307086614175 623.1034482758621,85.43307086614175 C631.264367816092,85.43307086614175 639.4252873563219,85.43307086614175 647.5862068965517,85.43307086614175 C655.7471264367816,85.43307086614175 663.9080459770115,83.85826771653542 672.0689655172414,83.07086614173227 C680.2298850574713,82.28346456692911 688.3908045977012,81.2992125984252 696.551724137931,80.70866141732284 C704.7126436781609,80.11811023622049 712.8735632183908,79.92125984251967 721.0344827586207,79.5275590551181 C729.1954022988506,79.13385826771653 737.3563218390805,78.740157480315 745.5172413793103,78.34645669291342 C753.6781609195402,77.95275590551184 761.8390804597701,77.55905511811022 770,77.16535433070862 L770,350 L60,350 Z" fill="#6b63ff" fill-opacity="0.1" />
  <path d="M60,350 L60,348.81889763779526 C68.16091954022988,320.4724409448819 76.32183908045977,285.23622047244095 84.48275862068965,263.7795275590551 C92.64367816091954,242.32283464566927 100.80459770114942,234.05511811023624 108.9655172413793,220.07874015748033 C117.12643678160919,206.10236220472441 125.28735632183907,191.53543307086613 133.44827586206895,179.92125984251967 C141.60919540229884,168.30708661417322 149.77011494252872,157.4803149606299 157.9310344827586,150.39370078740157 C166.0919540229885,143.30708661417322 174.2528735632184,139.6063282036293 182.41379310344828,137.40157480314963 C190.57471264367817,135.19682140266997 198.73563218390805,135.88735215584774 206.89655172413794,135.03937007874018 C215.05747126436782,134.19138800163262 223.2183908045977,133.46456692913387 231.3793103448276,131.49606299212599 C239.54022988505747,129.5275590551181 247.70114942528735,125.39370078740158 255.86206896551724,123.22834645669292 C264.0229885057471,121.06299212598425 272.183908045977,119.68503937007874 280.34482758620686,118.50393700787401 C288.50574712643675,117.32283464566929 296.6666666666667,117.12598425196853 304.82758620689657,116.14173228346459 C312.98850574712645,115.15748031496065 321.14942528735634,114.37007874015747 329.3103448275862,112.59842519685037 C337.4712643678161,110.82677165354328 345.632183908046,108.46456692913385 353.7931034482759,105.51181102362204 C361.95402298850576,102.55905511811024 370.11494252873564,94.88188976377953 378.2758620689655,94.88188976377953 C386.4367816091954,94.88188976377953 394.5977011494253,94.88188976377953 402.7586206896552,94.88188976377953 C410.91954022988506,94.88188976377953 419.08045977011494,93.70078740157481 427.2413793103448,93.70078740157481 C435.4022988505747,93.70078740157481 443.5632183908046,93.70078740157481 451.7241379310345,93.70078740157481 C459.88505747126436,93.70078740157481 468.04597701149424,93.70078740157481 476.2068965517241,93.70078740157481 C484.367816091954,93.70078740157481 492.5287356321839,92.91338582677166 500.6896551724138,92.51968503937007 C508.85057471264366,92.12598425196849 517.0114942528736,91.92913385826769 525.1724137931035,91.33858267716533 C533.3333333333334,90.74803149606298 541.4942528735633,89.56692913385827 549.6551724137931,88.97637795275591 C557.816091954023,88.38582677165356 565.9770114942529,88.18897637795276 574.1379310344828,87.79527559055117 C582.2988505747127,87.40157480314959 590.4597701149426,87.007874015748 598.6206896551724,86.61417322834643 C606.7816091954023,86.22047244094486 614.9425287356322,85.43307086614175 623.1034482758621,85.43307086614175 C631.264367816092,85.43307086614175 639.4252873563219,85.43307086614175 647.5862068965517,85.43307086614175 C655.7471264367816,85.43307086614175 663.9080459770115,83.85826771653542 672.0689655172414,83.07086614173227 C680.2298850574713,82.28346456692911 688.3908045977012,81.2992125984252 696.551724137931,80.70866141732284 C704.7126436781609,80.11811023622049 712.8735632183908,79.92125984251967 721.0344827586207,79.5275590551181 C729.1954022988506,79.13385826771653 737.3563218390805,78.740157480315 745.5172413793103,78.34645669291342 C753.6781609195402,77.95275590551184 761.8390804597701,77.55905511811022 770,77.16535433070862" fill="none" stroke="#6b63ff" stroke-width="2.5" class="data-line-0" />
  <g class="points">
    
    <circle cx="60" cy="348.81889763779526" r="4" fill="#6b63ff" class="data-point" style="animation-delay: 1.50s" />
    <circle cx="84.48275862068965" cy="263.7795275590551" r="4" fill="#6b63ff" class="data-point" style="animation-delay: 1.55s" />
    <circle cx="108.9655172413793" cy="220.07874015748033" r="4" fill="#6b63ff" class="data-point" style="animation-delay: 1.60s" />
    <circle cx="133.44827586206895" cy="179.92125984251967" r="4" fill="#6b63ff" class="data-point" style="animation-delay: 1.65s" />
    <circle cx="157.9310344827586" cy="150.39370078740157" r="4" fill="#6b63ff" class="data-point" style="animation-delay: 1.70s" />
    <circle cx="182.41379310344828" cy="137.40157480314963" r="4" fill="#6b63ff" class="data-point" style="animation-delay: 1.75s" />
    <circle cx="206.89655172413794" cy="135.03937007874018" r="4" fill="#6b63ff" class="data-point" style="animation-delay: 1.80s" />
    <circle cx="231.3793103448276" cy="131.49606299212599" r="4" fill="#6b63ff" class="data-point" style="animation-delay: 1.85s" />
    <circle cx="255.86206896551724" cy="123.22834645669292" r="4" fill="#6b63ff" class="data-point" style="animation-delay: 1.90s" />
    <circle cx="280.34482758620686" cy="118.50393700787401" r="4" fill="#6b63ff" class="data-point" style="animation-delay: 1.95s" />
    <circle cx="304.82758620689657" cy="116.14173228346459" r="4" fill="#6b63ff" class="data-point" style="animation-delay: 2.00s" />
    <circle cx="329.3103448275862" cy="112.59842519685037" r="4" fill="#6b63ff" class="data-point" style="animation-delay: 2.05s" />
    <circle cx="353.7931034482759" cy="105.51181102362204" r="4" fill="#6b63ff" class="data-point" style="animation-delay: 2.10s" />
    <circle cx="378.2758620689655" cy="94.88188976377953" r="4" fill="#6b63ff" class="data-point" style="animation-delay: 2.15s" />
    <circle cx="402.7586206896552" cy="94.88188976377953" r="4" fill="#6b63ff" class="data-point" style="animation-delay: 2.20s" />
    <circle cx="427.2413793103448" cy="93.70078740157481" r="4" fill="#6b63ff" class="data-point" style="animation-delay: 2.25s" />
    <circle cx="451.7241379310345" cy="93.70078740157481" r="4" fill="#6b63ff" class="data-point" style="animation-delay: 2.30s" />
    <circle cx="476.2068965517241" cy="93.70078740157481" r="4" fill="#6b63ff" class="data-point" style="animation-delay: 2.35s" />
    <circle cx="500.6896551724138" cy="92.51968503937007" r="4" fill="#6b63ff" class="data-point" style="animation-delay: 2.40s" />
    <circle cx="525.1724137931035" cy="91.33858267716533" r="4" fill="#6b63ff" class="data-point" style="animation-delay: 2.45s" />
    <circle cx="549.6551724137931" cy="88.97637795275591" r="4" fill="#6b63ff" class="data-point" style="animation-delay: 2.50s" />
    <circle cx="574.1379310344828" cy="87.79527559055117" r="4" fill="#6b63ff" class="data-point" style="animation-delay: 2.55s" />
    <circle cx="598.6206896551724" cy="86.61417322834643" r="4" fill="#6b63ff" class="data-point" style="animation-delay: 2.60s" />
    <circle cx="623.1034482758621" cy="85.43307086614175" r="4" fill="#6b63ff" class="data-point" style="animation-delay: 2.65s" />
    <circle cx="647.5862068965517" cy="85.43307086614175" r="4" fill="#6b63ff" class="data-point" style="animation-delay: 2.70s" />
    <circle cx="672.0689655172414" cy="83.07086614173227" r="4" fill="#6b63ff" class="data-point" style="animation-delay: 2.75s" />
    <circle cx="696.551724137931" cy="80.70866141732284" r="4" fill="#6b63ff" class="data-point" style="animation-delay: 2.80s" />
    <circle cx="721.0344827586207" cy="79.5275590551181" r="4" fill="#6b63ff" class="data-point" style="animation-delay: 2.85s" />
    <circle cx="745.5172413793103" cy="78.34645669291342" r="4" fill="#6b63ff" class="data-point" style="animation-delay: 2.90s" />
    <circle cx="770" cy="77.16535433070862" r="4" fill="#6b63ff" class="data-point" style="animation-delay: 2.95s" />
  </g>
</svg>