<svg xmlns="http://www.w3.org/2000/svg" viewBox="0 0 800 400" width="800" height="400">
  <style>
    @keyframes drawLine {
      to { stroke-dashoffset: 0; }
    }
    @keyframes fadeInPoint {
      from { opacity: 0; }
      to { opacity: 1; }
    }
    .data-line-0 {
      stroke-dasharray: 1179;
      stroke-dashoffset: 1179;
      animation: drawLine 2s ease-out forwards;
    }
    .data-point {
      opacity: 0;
      animation: fadeInPoint 0.5s ease-out forwards;
    }
    .chart-bg { fill: #fff; }
    .chart-text { fill: #24292e; }
    .chart-muted { fill: #6a737d; }
    .chart-grid { stroke: #eee; }
    .chart-axis { stroke: #6a737d; }
    @media (prefers-color-scheme: dark) {
      .chart-bg { fill: #0d1117; }
      .chart-text { fill: #e6edf3; }
      .chart-muted { fill: #8b949e; }
      .chart-grid { stroke: #21262d; }
      .chart-axis { stroke: #8b949e; }
    }
  </style>
  <rect width="800" height="400" class="chart-bg" />
  <text x="400" y="14" text-anchor="middle" class="chart-text" font-size="16" font-weight="bold" font-family="-apple-system, BlinkMacSystemFont, 'Segoe UI', Helvetica, Arial, sans-serif">dockur/portainer-backup Star History</text>
  
  <g class="grid">
    <line x1="60" y1="350" x2="770" y2="350" class="chart-grid" stroke-opacity="0.3" />
    <text x="778" y="354" text-anchor="start" class="chart-muted" font-size="11" font-family="-apple-system, BlinkMacSystemFont, 'Segoe UI', Helvetica, Arial, sans-serif">0</text>
    <line x1="60" y1="250" x2="770" y2="250" class="chart-grid" stroke-opacity="0.3" />
    <text x="778" y="254" text-anchor="start" class="chart-muted" font-size="11" font-family="-apple-system, BlinkMacSystemFont, 'Segoe UI', Helvetica, Arial, sans-serif">50</text>
    <line x1="60" y1="150" x2="770" y2="150" class="chart-grid" stroke-opacity="0.3" />
    <text x="778" y="154" text-anchor="start" class="chart-muted" font-size="11" font-family="-apple-system, BlinkMacSystemFont, 'Segoe UI', Helvetica, Arial, sans-serif">100</text>
    <line x1="60" y1="50" x2="770" y2="50" class="chart-grid" stroke-opacity="0.3" />
    <text x="778" y="54" text-anchor="start" class="chart-muted" font-size="11" font-family="-apple-system, BlinkMacSystemFont, 'Segoe UI', Helvetica, Arial, sans-serif">150</text>
  </g>
  <g class="milestones">
    
  </g>
  <g class="x-axis">
    <text x="60" y="370" text-anchor="middle" class="chart-muted" font-size="11" font-family="-apple-system, BlinkMacSystemFont, 'Segoe UI', Helvetica, Arial, sans-serif">2024</text>
    <text x="353.7931034482759" y="370" text-anchor="middle" class="chart-muted" font-size="11" font-family="-apple-system, BlinkMacSystemFont, 'Segoe UI', Helvetica, Arial, sans-serif">2025</text>
    <text x="647.5862068965517" y="370" text-anchor="middle" class="chart-muted" font-size="11" font-family="-apple-system, BlinkMacSystemFont, 'Segoe UI', Helvetica, Arial, sans-serif">2026</text>
  </g>
  <line x1="770" y1="50" x2="770" y2="350" class="chart-axis" stroke-width="1" />
  <line x1="60" y1="350" x2="770" y2="350" class="chart-axis" stroke-width="1" />
  <path d="M60,350 L60,348 C63.264367816091955,347.2 77.95402298850574,344.4 84.48275862068965,342 C91.01149425287356,339.6 102.43678160919539,333.2 108.9655172413793,330 C115.49425287356321,326.8 126.91954022988504,320.6666666666667 133.44827586206895,318 C139.97701149425285,315.3333333333333 151.40229885057468,311.06666666666666 157.9310344827586,310 C164.45977011494253,310 175.88505747126436,310 182.41379310344828,310 C188.9425287356322,308.6666666666667 200.36781609195404,301.6 206.89655172413794,300 C213.42528735632183,298.4 224.8505747126437,298.53333333333336 231.3793103448276,298 C237.90804597701148,297.46666666666664 249.33333333333334,296.53333333333336 255.86206896551724,296 C262.39080459770116,295.46666666666664 273.81609195402297,296 280.34482758620686,294 C286.87356321839076,289.73333333333335 298.2988505747127,269.3333333333333 304.82758620689657,264 C311.35632183908046,258.6666666666667 322.7816091954023,256.1333333333333 329.3103448275862,254 C335.8390804597701,251.86666666666667 347.264367816092,250.13333333333333 353.7931034482759,248 C360.32183908045977,245.86666666666667 371.7471264367816,240.4 378.2758620689655,238 C384.8045977011494,235.6 396.2298850574713,232.13333333333333 402.7586206896552,230 C409.28735632183907,227.86666666666667 420.71264367816093,224.13333333333333 427.2413793103448,222 C433.7701149425287,219.86666666666667 445.1954022988506,215.6 451.7241379310345,214 C458.2528735632184,212.4 469.67816091954023,210.53333333333333 476.2068965517241,210 C482.735632183908,210 494.1609195402299,210 500.6896551724138,210 C507.2183908045977,208.93333333333334 518.6436781609195,204.93333333333334 525.1724137931035,202 C531.7011494252874,199.06666666666666 543.1264367816092,191.46666666666667 549.6551724137931,188 C556.1839080459771,184.53333333333333 567.6091954022988,183.46666666666667 574.1379310344828,176 C580.6666666666667,168.53333333333333 592.0919540229885,139.2 598.6206896551724,132 C605.1494252873564,124.8 616.5747126436781,124.13333333333334 623.1034482758621,122 C629.632183908046,119.86666666666666 641.0574712643678,117.33333333333333 647.5862068965517,116 C654.1149425287357,114.66666666666667 665.5402298850574,113.86666666666666 672.0689655172414,112 C678.5977011494253,110.13333333333334 690.0229885057471,103.86666666666666 696.551724137931,102 C703.080459770115,100.13333333333334 714.5057471264367,99.06666666666666 721.0344827586207,98 C727.5632183908046,96.93333333333334 738.9885057471264,95.6 745.5172413793103,94 C752.0459770114943,92.4 766.735632183908,87.06666666666666 770,86 L770,350 L60,350 Z" fill="#6b63ff" fill-opacity="0.1" />
  <path d="M60,350 L60,348 C63.264367816091955,347.2 77.95402298850574,344.4 84.48275862068965,342 C91.01149425287356,339.6 102.43678160919539,333.2 108.9655172413793,330 C115.49425287356321,326.8 126.91954022988504,320.6666666666667 133.44827586206895,318 C139.97701149425285,315.3333333333333 151.40229885057468,311.06666666666666 157.9310344827586,310 C164.45977011494253,310 175.88505747126436,310 182.41379310344828,310 C188.9425287356322,308.6666666666667 200.36781609195404,301.6 206.89655172413794,300 C213.42528735632183,298.4 224.8505747126437,298.53333333333336 231.3793103448276,298 C237.90804597701148,297.46666666666664 249.33333333333334,296.53333333333336 255.86206896551724,296 C262.39080459770116,295.46666666666664 273.81609195402297,296 280.34482758620686,294 C286.87356321839076,289.73333333333335 298.2988505747127,269.3333333333333 304.82758620689657,264 C311.35632183908046,258.6666666666667 322.7816091954023,256.1333333333333 329.3103448275862,254 C335.8390804597701,251.86666666666667 347.264367816092,250.13333333333333 353.7931034482759,248 C360.32183908045977,245.86666666666667 371.7471264367816,240.4 378.2758620689655,238 C384.8045977011494,235.6 396.2298850574713,232.13333333333333 402.7586206896552,230 C409.28735632183907,227.86666666666667 420.71264367816093,224.13333333333333 427.2413793103448,222 C433.7701149425287,219.86666666666667 445.1954022988506,215.6 451.7241379310345,214 C458.2528735632184,212.4 469.67816091954023,210.53333333333333 476.2068965517241,210 C482.735632183908,210 494.1609195402299,210 500.6896551724138,210 C507.2183908045977,208.93333333333334 518.6436781609195,204.93333333333334 525.1724137931035,202 C531.7011494252874,199.06666666666666 543.1264367816092,191.46666666666667 549.6551724137931,188 C556.1839080459771,184.53333333333333 567.6091954022988,183.46666666666667 574.1379310344828,176 C580.6666666666667,168.53333333333333 592.0919540229885,139.2 598.6206896551724,132 C605.1494252873564,124.8 616.5747126436781,124.13333333333334 623.1034482758621,122 C629.632183908046,119.86666666666666 641.0574712643678,117.33333333333333 647.5862068965517,116 C654.1149425287357,114.66666666666667 665.5402298850574,113.86666666666666 672.0689655172414,112 C678.5977011494253,110.13333333333334 690.0229885057471,103.86666666666666 696.551724137931,102 C703.080459770115,100.13333333333334 714.5057471264367,99.06666666666666 721.0344827586207,98 C727.5632183908046,96.93333333333334 738.9885057471264,95.6 745.5172413793103,94 C752.0459770114943,92.4 766.735632183908,87.06666666666666 770,86" fill="none" stroke="#6b63ff" stroke-width="2.5" class="data-line-0" />
  <g class="points">
    
    <circle cx="60" cy="348" r="4" fill="#6b63ff" class="data-point" style="animation-delay: 1.50s" />
    <circle cx="84.48275862068965" cy="342" r="4" fill="#6b63ff" class="data-point" style="animation-delay: 1.55s" />
    <circle cx="108.9655172413793" cy="330" r="4" fill="#6b63ff" class="data-point" style="animation-delay: 1.60s" />
    <circle cx="133.44827586206895" cy="318" r="4" fill="#6b63ff" class="data-point" style="animation-delay: 1.65s" />
    <circle cx="157.9310344827586" cy="310" r="4" fill="#6b63ff" class="data-point" style="animation-delay: 1.70s" />
    <circle cx="182.41379310344828" cy="310" r="4" fill="#6b63ff" class="data-point" style="animation-delay: 1.75s" />
    <circle cx="206.89655172413794" cy="300" r="4" fill="#6b63ff" class="data-point" style="animation-delay: 1.80s" />
    <circle cx="231.3793103448276" cy="298" r="4" fill="#6b63ff" class="data-point" style="animation-delay: 1.85s" />
    <circle cx="255.86206896551724" cy="296" r="4" fill="#6b63ff" class="data-point" style="animation-delay: 1.90s" />
    <circle cx="280.34482758620686" cy="294" r="4" fill="#6b63ff" class="data-point" style="animation-delay: 1.95s" />
    <circle cx="304.82758620689657" cy="264" r="4" fill="#6b63ff" class="data-point" style="animation-delay: 2.00s" />
    <circle cx="329.3103448275862" cy="254" r="4" fill="#6b63ff" class="data-point" style="animation-delay: 2.05s" />
    <circle cx="353.7931034482759" cy="248" r="4" fill="#6b63ff" class="data-point" style="animation-delay: 2.10s" />
    <circle cx="378.2758620689655" cy="238" r="4" fill="#6b63ff" class="data-point" style="animation-delay: 2.15s" />
    <circle cx="402.7586206896552" cy="230" r="4" fill="#6b63ff" class="data-point" style="animation-delay: 2.20s" />
    <circle cx="427.2413793103448" cy="222" r="4" fill="#6b63ff" class="data-point" style="animation-delay: 2.25s" />
    <circle cx="451.7241379310345" cy="214" r="4" fill="#6b63ff" class="data-point" style="animation-delay: 2.30s" />
    <circle cx="476.2068965517241" cy="210" r="4" fill="#6b63ff" class="data-point" style="animation-delay: 2.35s" />
    <circle cx="500.6896551724138" cy="210" r="4" fill="#6b63ff" class="data-point" style="animation-delay: 2.40s" />
    <circle cx="525.1724137931035" cy="202" r="4" fill="#6b63ff" class="data-point" style="animation-delay: 2.45s" />
    <circle cx="549.6551724137931" cy="188" r="4" fill="#6b63ff" class="data-point" style="animation-delay: 2.50s" />
    <circle cx="574.1379310344828" cy="176" r="4" fill="#6b63ff" class="data-point" style="animation-delay: 2.55s" />
    <circle cx="598.6206896551724" cy="132" r="4" fill="#6b63ff" class="data-point" style="animation-delay: 2.60s" />
    <circle cx="623.1034482758621" cy="122" r="4" fill="#6b63ff" class="data-point" style="animation-delay: 2.65s" />
    <circle cx="647.5862068965517" cy="116" r="4" fill="#6b63ff" class="data-point" style="animation-delay: 2.70s" />
    <circle cx="672.0689655172414" cy="112" r="4" fill="#6b63ff" class="data-point" style="animation-delay: 2.75s" />
    <circle cx="696.551724137931" cy="102" r="4" fill="#6b63ff" class="data-point" style="animation-delay: 2.80s" />
    <circle cx="721.0344827586207" cy="98" r="4" fill="#6b63ff" class="data-point" style="animation-delay: 2.85s" />
    <circle cx="745.5172413793103" cy="94" r="4" fill="#6b63ff" class="data-point" style="animation-delay: 2.90s" />
    <circle cx="770" cy="86" r="4" fill="#6b63ff" class="data-point" style="animation-delay: 2.95s" />
  </g>
</svg>