<svg xmlns="http://www.w3.org/2000/svg" viewBox="0 0 800 400" width="800" height="400">
  <style>
    @keyframes drawLine {
      to { stroke-dashoffset: 0; }
    }
    @keyframes fadeInPoint {
      from { opacity: 0; }
      to { opacity: 1; }
    }
    .data-line-0 {
      stroke-dasharray: 1156;
      stroke-dashoffset: 1156;
      animation: drawLine 2s ease-out forwards;
    }
    .data-point {
      opacity: 0;
      animation: fadeInPoint 0.5s ease-out forwards;
    }
    .chart-bg { fill: #fff; }
    .chart-text { fill: #24292e; }
    .chart-muted { fill: #6a737d; }
    .chart-grid { stroke: #eee; }
    .chart-axis { stroke: #6a737d; }
    @media (prefers-color-scheme: dark) {
      .chart-bg { fill: #0d1117; }
      .chart-text { fill: #e6edf3; }
      .chart-muted { fill: #8b949e; }
      .chart-grid { stroke: #21262d; }
      .chart-axis { stroke: #8b949e; }
    }
  </style>
  <rect width="800" height="400" class="chart-bg" />
  <text x="400" y="14" text-anchor="middle" class="chart-text" font-size="16" font-weight="bold" font-family="-apple-system, BlinkMacSystemFont, 'Segoe UI', Helvetica, Arial, sans-serif">dockur/samba Star History</text>
  
  <g class="grid">
    <line x1="60" y1="350" x2="770" y2="350" class="chart-grid" stroke-opacity="0.3" />
    <text x="778" y="354" text-anchor="start" class="chart-muted" font-size="11" font-family="-apple-system, BlinkMacSystemFont, 'Segoe UI', Helvetica, Arial, sans-serif">0</text>
    <line x1="60" y1="277.27272727272725" x2="770" y2="277.27272727272725" class="chart-grid" stroke-opacity="0.3" />
    <text x="778" y="281.27272727272725" text-anchor="start" class="chart-muted" font-size="11" font-family="-apple-system, BlinkMacSystemFont, 'Segoe UI', Helvetica, Arial, sans-serif">200</text>
    <line x1="60" y1="204.54545454545453" x2="770" y2="204.54545454545453" class="chart-grid" stroke-opacity="0.3" />
    <text x="778" y="208.54545454545453" text-anchor="start" class="chart-muted" font-size="11" font-family="-apple-system, BlinkMacSystemFont, 'Segoe UI', Helvetica, Arial, sans-serif">400</text>
    <line x1="60" y1="131.8181818181818" x2="770" y2="131.8181818181818" class="chart-grid" stroke-opacity="0.3" />
    <text x="778" y="135.8181818181818" text-anchor="start" class="chart-muted" font-size="11" font-family="-apple-system, BlinkMacSystemFont, 'Segoe UI', Helvetica, Arial, sans-serif">600</text>
    <line x1="60" y1="59.090909090909065" x2="770" y2="59.090909090909065" class="chart-grid" stroke-opacity="0.3" />
    <text x="778" y="63.090909090909065" text-anchor="start" class="chart-muted" font-size="11" font-family="-apple-system, BlinkMacSystemFont, 'Segoe UI', Helvetica, Arial, sans-serif">800</text>
  </g>
  <g class="milestones">
    
  </g>
  <g class="x-axis">
    <text x="60" y="370" text-anchor="middle" class="chart-muted" font-size="11" font-family="-apple-system, BlinkMacSystemFont, 'Segoe UI', Helvetica, Arial, sans-serif">2024</text>
    <text x="329.3103448275862" y="370" text-anchor="middle" class="chart-muted" font-size="11" font-family="-apple-system, BlinkMacSystemFont, 'Segoe UI', Helvetica, Arial, sans-serif">2025</text>
    <text x="647.5862068965517" y="370" text-anchor="middle" class="chart-muted" font-size="11" font-family="-apple-system, BlinkMacSystemFont, 'Segoe UI', Helvetica, Arial, sans-serif">2026</text>
  </g>
  <line x1="770" y1="50" x2="770" y2="350" class="chart-axis" stroke-width="1" />
  <line x1="60" y1="350" x2="770" y2="350" class="chart-axis" stroke-width="1" />
  <path d="M60,350 L60,349.6363636363636 C68.16091954022988,347.8181818181818 76.32183908045977,345.93939393939394 84.48275862068965,344.1818181818182 C92.64367816091954,342.42424242424244 100.80459770114942,340.8484848484848 108.9655172413793,339.09090909090907 C117.12643678160919,337.3333333333333 125.28735632183907,335.3333333333333 133.44827586206895,333.6363636363636 C141.60919540229884,331.93939393939394 149.77011494252872,330.24242424242425 157.9310344827586,328.90909090909093 C166.0919540229885,327.5757575757576 174.2528735632184,326.54545454545456 182.41379310344828,325.6363636363636 C190.57471264367817,324.7272727272727 198.73563218390805,324.30303030303025 206.89655172413794,323.45454545454544 C215.05747126436782,322.6060606060606 223.2183908045977,322.1212121212121 231.3793103448276,320.54545454545456 C239.54022988505747,318.969696969697 247.70114942528735,315.5498384709283 255.86206896551724,314 C264.0229885057471,312.4501615290717 272.183908045977,313.6875467066914 280.34482758620686,310 C288.50574712643675,306.3124532933086 296.6666666666667,294.2424242424242 304.82758620689657,288.9090909090909 C312.98850574712645,283.57575757575756 321.14942528735634,281.6969696969697 329.3103448275862,278 C337.4712643678161,274.3030303030303 345.632183908046,270.6666666666667 353.7931034482759,266.72727272727275 C361.95402298850576,262.7878787878788 370.11494252873564,257.75757575757575 378.2758620689655,254.36363636363637 C386.4367816091954,250.96969696969697 394.5977011494253,250.1818181818182 402.7586206896552,246.36363636363637 C410.91954022988506,242.54545454545456 419.08045977011494,235.57575757575756 427.2413793103448,231.45454545454544 C435.4022988505747,227.33333333333331 443.5632183908046,224.90909090909093 451.7241379310345,221.63636363636365 C459.88505747126436,218.36363636363637 468.04597701149424,215.15151515151516 476.2068965517241,211.8181818181818 C484.367816091954,208.48484848484847 492.5287356321839,205.39393939393938 500.6896551724138,201.63636363636363 C508.85057471264366,197.87878787878788 517.0114942528736,193.81818181818184 525.1724137931035,189.27272727272728 C533.3333333333334,184.72727272727275 541.4942528735633,178.66666666666669 549.6551724137931,174.36363636363637 C557.816091954023,170.06060606060606 565.9770114942529,167.45454545454544 574.1379310344828,163.45454545454544 C582.2988505747127,159.45454545454544 590.4597701149426,154.12121212121212 598.6206896551724,150.36363636363637 C606.7816091954023,146.60606060606062 614.9425287356322,144.42424242424244 623.1034482758621,140.9090909090909 C631.264367816092,137.39393939393938 639.4252873563219,134.36363636363637 647.5862068965517,129.27272727272728 C655.7471264367816,124.18181818181819 663.9080459770115,114.96969696969695 672.0689655172414,110.36363636363635 C680.2298850574713,105.75757575757574 688.3908045977012,104.6060606060606 696.551724137931,101.63636363636363 C704.7126436781609,98.66666666666666 712.8735632183908,95.81818181818183 721.0344827586207,92.54545454545456 C729.1954022988506,89.2727272727273 737.3563218390805,84.54545454545455 745.5172413793103,82 C753.6781609195402,79.45454545454545 761.8390804597701,78.84848484848487 770,77.27272727272731 L770,350 L60,350 Z" fill="#6b63ff" fill-opacity="0.1" />
  <path d="M60,350 L60,349.6363636363636 C68.16091954022988,347.8181818181818 76.32183908045977,345.93939393939394 84.48275862068965,344.1818181818182 C92.64367816091954,342.42424242424244 100.80459770114942,340.8484848484848 108.9655172413793,339.09090909090907 C117.12643678160919,337.3333333333333 125.28735632183907,335.3333333333333 133.44827586206895,333.6363636363636 C141.60919540229884,331.93939393939394 149.77011494252872,330.24242424242425 157.9310344827586,328.90909090909093 C166.0919540229885,327.5757575757576 174.2528735632184,326.54545454545456 182.41379310344828,325.6363636363636 C190.57471264367817,324.7272727272727 198.73563218390805,324.30303030303025 206.89655172413794,323.45454545454544 C215.05747126436782,322.6060606060606 223.2183908045977,322.1212121212121 231.3793103448276,320.54545454545456 C239.54022988505747,318.969696969697 247.70114942528735,315.5498384709283 255.86206896551724,314 C264.0229885057471,312.4501615290717 272.183908045977,313.6875467066914 280.34482758620686,310 C288.50574712643675,306.3124532933086 296.6666666666667,294.2424242424242 304.82758620689657,288.9090909090909 C312.98850574712645,283.57575757575756 321.14942528735634,281.6969696969697 329.3103448275862,278 C337.4712643678161,274.3030303030303 345.632183908046,270.6666666666667 353.7931034482759,266.72727272727275 C361.95402298850576,262.7878787878788 370.11494252873564,257.75757575757575 378.2758620689655,254.36363636363637 C386.4367816091954,250.96969696969697 394.5977011494253,250.1818181818182 402.7586206896552,246.36363636363637 C410.91954022988506,242.54545454545456 419.08045977011494,235.57575757575756 427.2413793103448,231.45454545454544 C435.4022988505747,227.33333333333331 443.5632183908046,224.90909090909093 451.7241379310345,221.63636363636365 C459.88505747126436,218.36363636363637 468.04597701149424,215.15151515151516 476.2068965517241,211.8181818181818 C484.367816091954,208.48484848484847 492.5287356321839,205.39393939393938 500.6896551724138,201.63636363636363 C508.85057471264366,197.87878787878788 517.0114942528736,193.81818181818184 525.1724137931035,189.27272727272728 C533.3333333333334,184.72727272727275 541.4942528735633,178.66666666666669 549.6551724137931,174.36363636363637 C557.816091954023,170.06060606060606 565.9770114942529,167.45454545454544 574.1379310344828,163.45454545454544 C582.2988505747127,159.45454545454544 590.4597701149426,154.12121212121212 598.6206896551724,150.36363636363637 C606.7816091954023,146.60606060606062 614.9425287356322,144.42424242424244 623.1034482758621,140.9090909090909 C631.264367816092,137.39393939393938 639.4252873563219,134.36363636363637 647.5862068965517,129.27272727272728 C655.7471264367816,124.18181818181819 663.9080459770115,114.96969696969695 672.0689655172414,110.36363636363635 C680.2298850574713,105.75757575757574 688.3908045977012,104.6060606060606 696.551724137931,101.63636363636363 C704.7126436781609,98.66666666666666 712.8735632183908,95.81818181818183 721.0344827586207,92.54545454545456 C729.1954022988506,89.2727272727273 737.3563218390805,84.54545454545455 745.5172413793103,82 C753.6781609195402,79.45454545454545 761.8390804597701,78.84848484848487 770,77.27272727272731" fill="none" stroke="#6b63ff" stroke-width="2.5" class="data-line-0" />
  <g class="points">
    
    <circle cx="60" cy="349.6363636363636" r="4" fill="#6b63ff" class="data-point" style="animation-delay: 1.50s" />
    <circle cx="84.48275862068965" cy="344.1818181818182" r="4" fill="#6b63ff" class="data-point" style="animation-delay: 1.55s" />
    <circle cx="108.9655172413793" cy="339.09090909090907" r="4" fill="#6b63ff" class="data-point" style="animation-delay: 1.60s" />
    <circle cx="133.44827586206895" cy="333.6363636363636" r="4" fill="#6b63ff" class="data-point" style="animation-delay: 1.65s" />
    <circle cx="157.9310344827586" cy="328.90909090909093" r="4" fill="#6b63ff" class="data-point" style="animation-delay: 1.70s" />
    <circle cx="182.41379310344828" cy="325.6363636363636" r="4" fill="#6b63ff" class="data-point" style="animation-delay: 1.75s" />
    <circle cx="206.89655172413794" cy="323.45454545454544" r="4" fill="#6b63ff" class="data-point" style="animation-delay: 1.80s" />
    <circle cx="231.3793103448276" cy="320.54545454545456" r="4" fill="#6b63ff" class="data-point" style="animation-delay: 1.85s" />
    <circle cx="255.86206896551724" cy="314" r="4" fill="#6b63ff" class="data-point" style="animation-delay: 1.90s" />
    <circle cx="280.34482758620686" cy="310" r="4" fill="#6b63ff" class="data-point" style="animation-delay: 1.95s" />
    <circle cx="304.82758620689657" cy="288.9090909090909" r="4" fill="#6b63ff" class="data-point" style="animation-delay: 2.00s" />
    <circle cx="329.3103448275862" cy="278" r="4" fill="#6b63ff" class="data-point" style="animation-delay: 2.05s" />
    <circle cx="353.7931034482759" cy="266.72727272727275" r="4" fill="#6b63ff" class="data-point" style="animation-delay: 2.10s" />
    <circle cx="378.2758620689655" cy="254.36363636363637" r="4" fill="#6b63ff" class="data-point" style="animation-delay: 2.15s" />
    <circle cx="402.7586206896552" cy="246.36363636363637" r="4" fill="#6b63ff" class="data-point" style="animation-delay: 2.20s" />
    <circle cx="427.2413793103448" cy="231.45454545454544" r="4" fill="#6b63ff" class="data-point" style="animation-delay: 2.25s" />
    <circle cx="451.7241379310345" cy="221.63636363636365" r="4" fill="#6b63ff" class="data-point" style="animation-delay: 2.30s" />
    <circle cx="476.2068965517241" cy="211.8181818181818" r="4" fill="#6b63ff" class="data-point" style="animation-delay: 2.35s" />
    <circle cx="500.6896551724138" cy="201.63636363636363" r="4" fill="#6b63ff" class="data-point" style="animation-delay: 2.40s" />
    <circle cx="525.1724137931035" cy="189.27272727272728" r="4" fill="#6b63ff" class="data-point" style="animation-delay: 2.45s" />
    <circle cx="549.6551724137931" cy="174.36363636363637" r="4" fill="#6b63ff" class="data-point" style="animation-delay: 2.50s" />
    <circle cx="574.1379310344828" cy="163.45454545454544" r="4" fill="#6b63ff" class="data-point" style="animation-delay: 2.55s" />
    <circle cx="598.6206896551724" cy="150.36363636363637" r="4" fill="#6b63ff" class="data-point" style="animation-delay: 2.60s" />
    <circle cx="623.1034482758621" cy="140.9090909090909" r="4" fill="#6b63ff" class="data-point" style="animation-delay: 2.65s" />
    <circle cx="647.5862068965517" cy="129.27272727272728" r="4" fill="#6b63ff" class="data-point" style="animation-delay: 2.70s" />
    <circle cx="672.0689655172414" cy="110.36363636363635" r="4" fill="#6b63ff" class="data-point" style="animation-delay: 2.75s" />
    <circle cx="696.551724137931" cy="101.63636363636363" r="4" fill="#6b63ff" class="data-point" style="animation-delay: 2.80s" />
    <circle cx="721.0344827586207" cy="92.54545454545456" r="4" fill="#6b63ff" class="data-point" style="animation-delay: 2.85s" />
    <circle cx="745.5172413793103" cy="82" r="4" fill="#6b63ff" class="data-point" style="animation-delay: 2.90s" />
    <circle cx="770" cy="77.27272727272731" r="4" fill="#6b63ff" class="data-point" style="animation-delay: 2.95s" />
  </g>
</svg>