<svg xmlns="http://www.w3.org/2000/svg" viewBox="0 0 800 400" width="800" height="400">
  <style>
    @keyframes drawLine {
      to { stroke-dashoffset: 0; }
    }
    @keyframes fadeInPoint {
      from { opacity: 0; }
      to { opacity: 1; }
    }
    .data-line-0 {
      stroke-dasharray: 1218;
      stroke-dashoffset: 1218;
      animation: drawLine 2s ease-out forwards;
    }
    .data-point {
      opacity: 0;
      animation: fadeInPoint 0.5s ease-out forwards;
    }
    .chart-bg { fill: #fff; }
    .chart-text { fill: #24292e; }
    .chart-muted { fill: #6a737d; }
    .chart-grid { stroke: #eee; }
    .chart-axis { stroke: #6a737d; }
    @media (prefers-color-scheme: dark) {
      .chart-bg { fill: #0d1117; }
      .chart-text { fill: #e6edf3; }
      .chart-muted { fill: #8b949e; }
      .chart-grid { stroke: #21262d; }
      .chart-axis { stroke: #8b949e; }
    }
  </style>
  <rect width="800" height="400" class="chart-bg" />
  <text x="400" y="14" text-anchor="middle" class="chart-text" font-size="16" font-weight="bold" font-family="-apple-system, BlinkMacSystemFont, 'Segoe UI', Helvetica, Arial, sans-serif">dockur/lemmy-ui Star History</text>
  
  <g class="grid">
    <line x1="60" y1="350" x2="770" y2="350" class="chart-grid" stroke-opacity="0.3" />
    <text x="778" y="354" text-anchor="start" class="chart-muted" font-size="11" font-family="-apple-system, BlinkMacSystemFont, 'Segoe UI', Helvetica, Arial, sans-serif">0</text>
    <line x1="60" y1="290" x2="770" y2="290" class="chart-grid" stroke-opacity="0.3" />
    <text x="778" y="294" text-anchor="start" class="chart-muted" font-size="11" font-family="-apple-system, BlinkMacSystemFont, 'Segoe UI', Helvetica, Arial, sans-serif">5</text>
    <line x1="60" y1="230" x2="770" y2="230" class="chart-grid" stroke-opacity="0.3" />
    <text x="778" y="234" text-anchor="start" class="chart-muted" font-size="11" font-family="-apple-system, BlinkMacSystemFont, 'Segoe UI', Helvetica, Arial, sans-serif">10</text>
    <line x1="60" y1="170" x2="770" y2="170" class="chart-grid" stroke-opacity="0.3" />
    <text x="778" y="174" text-anchor="start" class="chart-muted" font-size="11" font-family="-apple-system, BlinkMacSystemFont, 'Segoe UI', Helvetica, Arial, sans-serif">15</text>
    <line x1="60" y1="110" x2="770" y2="110" class="chart-grid" stroke-opacity="0.3" />
    <text x="778" y="114" text-anchor="start" class="chart-muted" font-size="11" font-family="-apple-system, BlinkMacSystemFont, 'Segoe UI', Helvetica, Arial, sans-serif">20</text>
    <line x1="60" y1="50" x2="770" y2="50" class="chart-grid" stroke-opacity="0.3" />
    <text x="778" y="54" text-anchor="start" class="chart-muted" font-size="11" font-family="-apple-system, BlinkMacSystemFont, 'Segoe UI', Helvetica, Arial, sans-serif">25</text>
  </g>
  <g class="milestones">
    
  </g>
  <g class="x-axis">
    <text x="60" y="370" text-anchor="middle" class="chart-muted" font-size="11" font-family="-apple-system, BlinkMacSystemFont, 'Segoe UI', Helvetica, Arial, sans-serif">2024</text>
    <text x="329.3103448275862" y="370" text-anchor="middle" class="chart-muted" font-size="11" font-family="-apple-system, BlinkMacSystemFont, 'Segoe UI', Helvetica, Arial, sans-serif">2025</text>
    <text x="623.1034482758621" y="370" text-anchor="middle" class="chart-muted" font-size="11" font-family="-apple-system, BlinkMacSystemFont, 'Segoe UI', Helvetica, Arial, sans-serif">2026</text>
  </g>
  <line x1="770" y1="50" x2="770" y2="350" class="chart-axis" stroke-width="1" />
  <line x1="60" y1="350" x2="770" y2="350" class="chart-axis" stroke-width="1" />
  <path d="M60,350 L60,338 C68.16091954022988,338 76.32183908045977,338 84.48275862068965,338 C92.64367816091954,338 100.80459770114942,330 108.9655172413793,326 C117.12643678160919,322 125.28735632183907,314 133.44827586206895,314 C141.60919540229884,314 149.77011494252872,314 157.9310344827586,314 C166.0919540229885,314 174.2528735632184,314 182.41379310344828,314 C190.57471264367817,314 198.73563218390805,314 206.89655172413794,314 C215.05747126436782,314 223.2183908045977,314 231.3793103448276,314 C239.54022988505747,314 247.70114942528735,314 255.86206896551724,314 C264.0229885057471,314 272.183908045977,302 280.34482758620686,302 C288.50574712643675,302 296.6666666666667,302 304.82758620689657,302 C312.98850574712645,302 321.14942528735634,288 329.3103448275862,278 C337.4712643678161,268 345.632183908046,242 353.7931034482759,242 C361.95402298850576,242 370.11494252873564,242 378.2758620689655,242 C386.4367816091954,242 394.5977011494253,230 402.7586206896552,230 C410.91954022988506,230 419.08045977011494,230 427.2413793103448,230 C435.4022988505747,230 443.5632183908046,218 451.7241379310345,218 C459.88505747126436,218 468.04597701149424,218 476.2068965517241,218 C484.367816091954,218 492.5287356321839,218 500.6896551724138,218 C508.85057471264366,218 517.0114942528736,191.99999999999997 525.1724137931035,181.99999999999997 C533.3333333333334,171.99999999999997 541.4942528735633,158 549.6551724137931,158 C557.816091954023,158 565.9770114942529,158 574.1379310344828,158 C582.2988505747127,158 590.4597701149426,134 598.6206896551724,134 C606.7816091954023,134 614.9425287356322,134 623.1034482758621,134 C631.264367816092,134 639.4252873563219,134 647.5862068965517,134 C655.7471264367816,134 663.9080459770115,134 672.0689655172414,134 C680.2298850574713,134 688.3908045977012,122 696.551724137931,122 C704.7126436781609,122 712.8735632183908,122 721.0344827586207,122 C729.1954022988506,122 737.3563218390805,114 745.5172413793103,110 C753.6781609195402,106 761.8390804597701,102 770,98 L770,350 L60,350 Z" fill="#6b63ff" fill-opacity="0.1" />
  <path d="M60,350 L60,338 C68.16091954022988,338 76.32183908045977,338 84.48275862068965,338 C92.64367816091954,338 100.80459770114942,330 108.9655172413793,326 C117.12643678160919,322 125.28735632183907,314 133.44827586206895,314 C141.60919540229884,314 149.77011494252872,314 157.9310344827586,314 C166.0919540229885,314 174.2528735632184,314 182.41379310344828,314 C190.57471264367817,314 198.73563218390805,314 206.89655172413794,314 C215.05747126436782,314 223.2183908045977,314 231.3793103448276,314 C239.54022988505747,314 247.70114942528735,314 255.86206896551724,314 C264.0229885057471,314 272.183908045977,302 280.34482758620686,302 C288.50574712643675,302 296.6666666666667,302 304.82758620689657,302 C312.98850574712645,302 321.14942528735634,288 329.3103448275862,278 C337.4712643678161,268 345.632183908046,242 353.7931034482759,242 C361.95402298850576,242 370.11494252873564,242 378.2758620689655,242 C386.4367816091954,242 394.5977011494253,230 402.7586206896552,230 C410.91954022988506,230 419.08045977011494,230 427.2413793103448,230 C435.4022988505747,230 443.5632183908046,218 451.7241379310345,218 C459.88505747126436,218 468.04597701149424,218 476.2068965517241,218 C484.367816091954,218 492.5287356321839,218 500.6896551724138,218 C508.85057471264366,218 517.0114942528736,191.99999999999997 525.1724137931035,181.99999999999997 C533.3333333333334,171.99999999999997 541.4942528735633,158 549.6551724137931,158 C557.816091954023,158 565.9770114942529,158 574.1379310344828,158 C582.2988505747127,158 590.4597701149426,134 598.6206896551724,134 C606.7816091954023,134 614.9425287356322,134 623.1034482758621,134 C631.264367816092,134 639.4252873563219,134 647.5862068965517,134 C655.7471264367816,134 663.9080459770115,134 672.0689655172414,134 C680.2298850574713,134 688.3908045977012,122 696.551724137931,122 C704.7126436781609,122 712.8735632183908,122 721.0344827586207,122 C729.1954022988506,122 737.3563218390805,114 745.5172413793103,110 C753.6781609195402,106 761.8390804597701,102 770,98" fill="none" stroke="#6b63ff" stroke-width="2.5" class="data-line-0" />
  <g class="points">
    
    <circle cx="60" cy="338" r="4" fill="#6b63ff" class="data-point" style="animation-delay: 1.50s" />
    <circle cx="84.48275862068965" cy="338" r="4" fill="#6b63ff" class="data-point" style="animation-delay: 1.55s" />
    <circle cx="108.9655172413793" cy="326" r="4" fill="#6b63ff" class="data-point" style="animation-delay: 1.60s" />
    <circle cx="133.44827586206895" cy="314" r="4" fill="#6b63ff" class="data-point" style="animation-delay: 1.65s" />
    <circle cx="157.9310344827586" cy="314" r="4" fill="#6b63ff" class="data-point" style="animation-delay: 1.70s" />
    <circle cx="182.41379310344828" cy="314" r="4" fill="#6b63ff" class="data-point" style="animation-delay: 1.75s" />
    <circle cx="206.89655172413794" cy="314" r="4" fill="#6b63ff" class="data-point" style="animation-delay: 1.80s" />
    <circle cx="231.3793103448276" cy="314" r="4" fill="#6b63ff" class="data-point" style="animation-delay: 1.85s" />
    <circle cx="255.86206896551724" cy="314" r="4" fill="#6b63ff" class="data-point" style="animation-delay: 1.90s" />
    <circle cx="280.34482758620686" cy="302" r="4" fill="#6b63ff" class="data-point" style="animation-delay: 1.95s" />
    <circle cx="304.82758620689657" cy="302" r="4" fill="#6b63ff" class="data-point" style="animation-delay: 2.00s" />
    <circle cx="329.3103448275862" cy="278" r="4" fill="#6b63ff" class="data-point" style="animation-delay: 2.05s" />
    <circle cx="353.7931034482759" cy="242" r="4" fill="#6b63ff" class="data-point" style="animation-delay: 2.10s" />
    <circle cx="378.2758620689655" cy="242" r="4" fill="#6b63ff" class="data-point" style="animation-delay: 2.15s" />
    <circle cx="402.7586206896552" cy="230" r="4" fill="#6b63ff" class="data-point" style="animation-delay: 2.20s" />
    <circle cx="427.2413793103448" cy="230" r="4" fill="#6b63ff" class="data-point" style="animation-delay: 2.25s" />
    <circle cx="451.7241379310345" cy="218" r="4" fill="#6b63ff" class="data-point" style="animation-delay: 2.30s" />
    <circle cx="476.2068965517241" cy="218" r="4" fill="#6b63ff" class="data-point" style="animation-delay: 2.35s" />
    <circle cx="500.6896551724138" cy="218" r="4" fill="#6b63ff" class="data-point" style="animation-delay: 2.40s" />
    <circle cx="525.1724137931035" cy="181.99999999999997" r="4" fill="#6b63ff" class="data-point" style="animation-delay: 2.45s" />
    <circle cx="549.6551724137931" cy="158" r="4" fill="#6b63ff" class="data-point" style="animation-delay: 2.50s" />
    <circle cx="574.1379310344828" cy="158" r="4" fill="#6b63ff" class="data-point" style="animation-delay: 2.55s" />
    <circle cx="598.6206896551724" cy="134" r="4" fill="#6b63ff" class="data-point" style="animation-delay: 2.60s" />
    <circle cx="623.1034482758621" cy="134" r="4" fill="#6b63ff" class="data-point" style="animation-delay: 2.65s" />
    <circle cx="647.5862068965517" cy="134" r="4" fill="#6b63ff" class="data-point" style="animation-delay: 2.70s" />
    <circle cx="672.0689655172414" cy="134" r="4" fill="#6b63ff" class="data-point" style="animation-delay: 2.75s" />
    <circle cx="696.551724137931" cy="122" r="4" fill="#6b63ff" class="data-point" style="animation-delay: 2.80s" />
    <circle cx="721.0344827586207" cy="122" r="4" fill="#6b63ff" class="data-point" style="animation-delay: 2.85s" />
    <circle cx="745.5172413793103" cy="110" r="4" fill="#6b63ff" class="data-point" style="animation-delay: 2.90s" />
    <circle cx="770" cy="98" r="4" fill="#6b63ff" class="data-point" style="animation-delay: 2.95s" />
  </g>
</svg>