<svg xmlns="http://www.w3.org/2000/svg" viewBox="0 0 800 400" width="800" height="400">
  <style>
    @keyframes drawLine {
      to { stroke-dashoffset: 0; }
    }
    @keyframes fadeInPoint {
      from { opacity: 0; }
      to { opacity: 1; }
    }
    .data-line-0 {
      stroke-dasharray: 1164;
      stroke-dashoffset: 1164;
      animation: drawLine 2s ease-out forwards;
    }
    .data-point {
      opacity: 0;
      animation: fadeInPoint 0.5s ease-out forwards;
    }
    .chart-bg { fill: #fff; }
    .chart-text { fill: #24292e; }
    .chart-muted { fill: #6a737d; }
    .chart-grid { stroke: #eee; }
    .chart-axis { stroke: #6a737d; }
    @media (prefers-color-scheme: dark) {
      .chart-bg { fill: #0d1117; }
      .chart-text { fill: #e6edf3; }
      .chart-muted { fill: #8b949e; }
      .chart-grid { stroke: #21262d; }
      .chart-axis { stroke: #8b949e; }
    }
  </style>
  <rect width="800" height="400" class="chart-bg" />
  <text x="400" y="14" text-anchor="middle" class="chart-text" font-size="16" font-weight="bold" font-family="-apple-system, BlinkMacSystemFont, 'Segoe UI', Helvetica, Arial, sans-serif">dockur/umbrel Star History</text>
  
  <g class="grid">
    <line x1="60" y1="350" x2="770" y2="350" class="chart-grid" stroke-opacity="0.3" />
    <text x="778" y="354" text-anchor="start" class="chart-muted" font-size="11" font-family="-apple-system, BlinkMacSystemFont, 'Segoe UI', Helvetica, Arial, sans-serif">0</text>
    <line x1="60" y1="281.1926605504587" x2="770" y2="281.1926605504587" class="chart-grid" stroke-opacity="0.3" />
    <text x="778" y="285.1926605504587" text-anchor="start" class="chart-muted" font-size="11" font-family="-apple-system, BlinkMacSystemFont, 'Segoe UI', Helvetica, Arial, sans-serif">100</text>
    <line x1="60" y1="212.38532110091742" x2="770" y2="212.38532110091742" class="chart-grid" stroke-opacity="0.3" />
    <text x="778" y="216.38532110091742" text-anchor="start" class="chart-muted" font-size="11" font-family="-apple-system, BlinkMacSystemFont, 'Segoe UI', Helvetica, Arial, sans-serif">200</text>
    <line x1="60" y1="143.57798165137615" x2="770" y2="143.57798165137615" class="chart-grid" stroke-opacity="0.3" />
    <text x="778" y="147.57798165137615" text-anchor="start" class="chart-muted" font-size="11" font-family="-apple-system, BlinkMacSystemFont, 'Segoe UI', Helvetica, Arial, sans-serif">300</text>
    <line x1="60" y1="74.77064220183485" x2="770" y2="74.77064220183485" class="chart-grid" stroke-opacity="0.3" />
    <text x="778" y="78.77064220183485" text-anchor="start" class="chart-muted" font-size="11" font-family="-apple-system, BlinkMacSystemFont, 'Segoe UI', Helvetica, Arial, sans-serif">400</text>
  </g>
  <g class="milestones">
    
  </g>
  <g class="x-axis">
    <text x="60" y="370" text-anchor="middle" class="chart-muted" font-size="11" font-family="-apple-system, BlinkMacSystemFont, 'Segoe UI', Helvetica, Arial, sans-serif">2024</text>
    <text x="182.41379310344828" y="370" text-anchor="middle" class="chart-muted" font-size="11" font-family="-apple-system, BlinkMacSystemFont, 'Segoe UI', Helvetica, Arial, sans-serif">2025</text>
    <text x="574.1379310344828" y="370" text-anchor="middle" class="chart-muted" font-size="11" font-family="-apple-system, BlinkMacSystemFont, 'Segoe UI', Helvetica, Arial, sans-serif">2026</text>
  </g>
  <line x1="770" y1="50" x2="770" y2="350" class="chart-axis" stroke-width="1" />
  <line x1="60" y1="350" x2="770" y2="350" class="chart-axis" stroke-width="1" />
  <path d="M60,350 L60,349.3119266055046 C68.16091954022988,340.3669724770642 76.32183908045977,329.1284403669725 84.48275862068965,322.4770642201835 C92.64367816091954,315.8256880733945 100.80459770114942,316.74311926605503 108.9655172413793,309.4036697247706 C117.12643678160919,302.0642201834862 125.28735632183907,285.0917431192661 133.44827586206895,278.4403669724771 C141.60919540229884,271.7889908256881 149.77011494252872,272.9357798165138 157.9310344827586,269.4954128440367 C166.0919540229885,266.0550458715596 174.2528735632184,262.5 182.41379310344828,257.79816513761466 C190.57471264367817,253.09633027522935 198.73563218390805,245.5275229357798 206.89655172413794,241.28440366972478 C215.05747126436782,237.04128440366975 223.2183908045977,235.43577981651376 231.3793103448276,232.3394495412844 C239.54022988505747,229.24311926605506 247.70114942528735,225.57339449541286 255.86206896551724,222.70642201834863 C264.0229885057471,219.8394495412844 272.183908045977,217.88990825688072 280.34482758620686,215.13761467889907 C288.50574712643675,212.38532110091742 296.6666666666667,208.25688073394497 304.82758620689657,206.19266055045873 C312.98850574712645,204.12844036697248 321.14942528735634,205.38990825688074 329.3103448275862,202.75229357798165 C337.4712643678161,200.11467889908255 345.632183908046,193.57798165137615 353.7931034482759,190.36697247706422 C361.95402298850576,187.1559633027523 370.11494252873564,185.77981651376146 378.2758620689655,183.4862385321101 C386.4367816091954,181.19266055045873 394.5977011494253,179.4724770642202 402.7586206896552,176.60550458715596 C410.91954022988506,173.73853211009174 419.08045977011494,169.3807339449541 427.2413793103448,166.28440366972475 C435.4022988505747,163.1880733944954 443.5632183908046,161.12385321100916 451.7241379310345,158.0275229357798 C459.88505747126436,154.93119266055047 468.04597701149424,150.91743119266056 476.2068965517241,147.70642201834863 C484.367816091954,144.4954128440367 492.5287356321839,141.28440366972475 500.6896551724138,138.76146788990823 C508.85057471264366,136.2385321100917 517.0114942528736,135.09174311926606 525.1724137931035,132.56880733944953 C533.3333333333334,130.04587155963304 541.4942528735633,126.03211009174314 549.6551724137931,123.62385321100919 C557.816091954023,121.21559633027525 565.9770114942529,119.83944954128441 574.1379310344828,118.11926605504587 C582.2988505747127,116.39908256880733 590.4597701149426,114.90825688073394 598.6206896551724,113.30275229357798 C606.7816091954023,111.69724770642202 614.9425287356322,109.63302752293578 623.1034482758621,108.4862385321101 C631.264367816092,107.33944954128441 639.4252873563219,108.02752293577981 647.5862068965517,106.42201834862385 C655.7471264367816,104.81651376146789 663.9080459770115,100.68807339449539 672.0689655172414,98.85321100917429 C680.2298850574713,97.01834862385319 688.3908045977012,97.01834862385319 696.551724137931,95.41284403669724 C704.7126436781609,93.80733944954129 712.8735632183908,91.05504587155967 721.0344827586207,89.22018348623857 C729.1954022988506,87.38532110091747 737.3563218390805,86.3532110091743 745.5172413793103,84.40366972477062 C753.6781609195402,82.45412844036694 761.8390804597701,79.81651376146789 770,77.52293577981652 L770,350 L60,350 Z" fill="#6b63ff" fill-opacity="0.1" />
  <path d="M60,350 L60,349.3119266055046 C68.16091954022988,340.3669724770642 76.32183908045977,329.1284403669725 84.48275862068965,322.4770642201835 C92.64367816091954,315.8256880733945 100.80459770114942,316.74311926605503 108.9655172413793,309.4036697247706 C117.12643678160919,302.0642201834862 125.28735632183907,285.0917431192661 133.44827586206895,278.4403669724771 C141.60919540229884,271.7889908256881 149.77011494252872,272.9357798165138 157.9310344827586,269.4954128440367 C166.0919540229885,266.0550458715596 174.2528735632184,262.5 182.41379310344828,257.79816513761466 C190.57471264367817,253.09633027522935 198.73563218390805,245.5275229357798 206.89655172413794,241.28440366972478 C215.05747126436782,237.04128440366975 223.2183908045977,235.43577981651376 231.3793103448276,232.3394495412844 C239.54022988505747,229.24311926605506 247.70114942528735,225.57339449541286 255.86206896551724,222.70642201834863 C264.0229885057471,219.8394495412844 272.183908045977,217.88990825688072 280.34482758620686,215.13761467889907 C288.50574712643675,212.38532110091742 296.6666666666667,208.25688073394497 304.82758620689657,206.19266055045873 C312.98850574712645,204.12844036697248 321.14942528735634,205.38990825688074 329.3103448275862,202.75229357798165 C337.4712643678161,200.11467889908255 345.632183908046,193.57798165137615 353.7931034482759,190.36697247706422 C361.95402298850576,187.1559633027523 370.11494252873564,185.77981651376146 378.2758620689655,183.4862385321101 C386.4367816091954,181.19266055045873 394.5977011494253,179.4724770642202 402.7586206896552,176.60550458715596 C410.91954022988506,173.73853211009174 419.08045977011494,169.3807339449541 427.2413793103448,166.28440366972475 C435.4022988505747,163.1880733944954 443.5632183908046,161.12385321100916 451.7241379310345,158.0275229357798 C459.88505747126436,154.93119266055047 468.04597701149424,150.91743119266056 476.2068965517241,147.70642201834863 C484.367816091954,144.4954128440367 492.5287356321839,141.28440366972475 500.6896551724138,138.76146788990823 C508.85057471264366,136.2385321100917 517.0114942528736,135.09174311926606 525.1724137931035,132.56880733944953 C533.3333333333334,130.04587155963304 541.4942528735633,126.03211009174314 549.6551724137931,123.62385321100919 C557.816091954023,121.21559633027525 565.9770114942529,119.83944954128441 574.1379310344828,118.11926605504587 C582.2988505747127,116.39908256880733 590.4597701149426,114.90825688073394 598.6206896551724,113.30275229357798 C606.7816091954023,111.69724770642202 614.9425287356322,109.63302752293578 623.1034482758621,108.4862385321101 C631.264367816092,107.33944954128441 639.4252873563219,108.02752293577981 647.5862068965517,106.42201834862385 C655.7471264367816,104.81651376146789 663.9080459770115,100.68807339449539 672.0689655172414,98.85321100917429 C680.2298850574713,97.01834862385319 688.3908045977012,97.01834862385319 696.551724137931,95.41284403669724 C704.7126436781609,93.80733944954129 712.8735632183908,91.05504587155967 721.0344827586207,89.22018348623857 C729.1954022988506,87.38532110091747 737.3563218390805,86.3532110091743 745.5172413793103,84.40366972477062 C753.6781609195402,82.45412844036694 761.8390804597701,79.81651376146789 770,77.52293577981652" fill="none" stroke="#6b63ff" stroke-width="2.5" class="data-line-0" />
  <g class="points">
    
    <circle cx="60" cy="349.3119266055046" r="4" fill="#6b63ff" class="data-point" style="animation-delay: 1.50s" />
    <circle cx="84.48275862068965" cy="322.4770642201835" r="4" fill="#6b63ff" class="data-point" style="animation-delay: 1.55s" />
    <circle cx="108.9655172413793" cy="309.4036697247706" r="4" fill="#6b63ff" class="data-point" style="animation-delay: 1.60s" />
    <circle cx="133.44827586206895" cy="278.4403669724771" r="4" fill="#6b63ff" class="data-point" style="animation-delay: 1.65s" />
    <circle cx="157.9310344827586" cy="269.4954128440367" r="4" fill="#6b63ff" class="data-point" style="animation-delay: 1.70s" />
    <circle cx="182.41379310344828" cy="257.79816513761466" r="4" fill="#6b63ff" class="data-point" style="animation-delay: 1.75s" />
    <circle cx="206.89655172413794" cy="241.28440366972478" r="4" fill="#6b63ff" class="data-point" style="animation-delay: 1.80s" />
    <circle cx="231.3793103448276" cy="232.3394495412844" r="4" fill="#6b63ff" class="data-point" style="animation-delay: 1.85s" />
    <circle cx="255.86206896551724" cy="222.70642201834863" r="4" fill="#6b63ff" class="data-point" style="animation-delay: 1.90s" />
    <circle cx="280.34482758620686" cy="215.13761467889907" r="4" fill="#6b63ff" class="data-point" style="animation-delay: 1.95s" />
    <circle cx="304.82758620689657" cy="206.19266055045873" r="4" fill="#6b63ff" class="data-point" style="animation-delay: 2.00s" />
    <circle cx="329.3103448275862" cy="202.75229357798165" r="4" fill="#6b63ff" class="data-point" style="animation-delay: 2.05s" />
    <circle cx="353.7931034482759" cy="190.36697247706422" r="4" fill="#6b63ff" class="data-point" style="animation-delay: 2.10s" />
    <circle cx="378.2758620689655" cy="183.4862385321101" r="4" fill="#6b63ff" class="data-point" style="animation-delay: 2.15s" />
    <circle cx="402.7586206896552" cy="176.60550458715596" r="4" fill="#6b63ff" class="data-point" style="animation-delay: 2.20s" />
    <circle cx="427.2413793103448" cy="166.28440366972475" r="4" fill="#6b63ff" class="data-point" style="animation-delay: 2.25s" />
    <circle cx="451.7241379310345" cy="158.0275229357798" r="4" fill="#6b63ff" class="data-point" style="animation-delay: 2.30s" />
    <circle cx="476.2068965517241" cy="147.70642201834863" r="4" fill="#6b63ff" class="data-point" style="animation-delay: 2.35s" />
    <circle cx="500.6896551724138" cy="138.76146788990823" r="4" fill="#6b63ff" class="data-point" style="animation-delay: 2.40s" />
    <circle cx="525.1724137931035" cy="132.56880733944953" r="4" fill="#6b63ff" class="data-point" style="animation-delay: 2.45s" />
    <circle cx="549.6551724137931" cy="123.62385321100919" r="4" fill="#6b63ff" class="data-point" style="animation-delay: 2.50s" />
    <circle cx="574.1379310344828" cy="118.11926605504587" r="4" fill="#6b63ff" class="data-point" style="animation-delay: 2.55s" />
    <circle cx="598.6206896551724" cy="113.30275229357798" r="4" fill="#6b63ff" class="data-point" style="animation-delay: 2.60s" />
    <circle cx="623.1034482758621" cy="108.4862385321101" r="4" fill="#6b63ff" class="data-point" style="animation-delay: 2.65s" />
    <circle cx="647.5862068965517" cy="106.42201834862385" r="4" fill="#6b63ff" class="data-point" style="animation-delay: 2.70s" />
    <circle cx="672.0689655172414" cy="98.85321100917429" r="4" fill="#6b63ff" class="data-point" style="animation-delay: 2.75s" />
    <circle cx="696.551724137931" cy="95.41284403669724" r="4" fill="#6b63ff" class="data-point" style="animation-delay: 2.80s" />
    <circle cx="721.0344827586207" cy="89.22018348623857" r="4" fill="#6b63ff" class="data-point" style="animation-delay: 2.85s" />
    <circle cx="745.5172413793103" cy="84.40366972477062" r="4" fill="#6b63ff" class="data-point" style="animation-delay: 2.90s" />
    <circle cx="770" cy="77.52293577981652" r="4" fill="#6b63ff" class="data-point" style="animation-delay: 2.95s" />
  </g>
</svg>