<svg xmlns="http://www.w3.org/2000/svg" viewBox="0 0 800 400" width="800" height="400">
  <style>
    @keyframes drawLine {
      to { stroke-dashoffset: 0; }
    }
    @keyframes fadeInPoint {
      from { opacity: 0; }
      to { opacity: 1; }
    }
    .data-line-0 {
      stroke-dasharray: 1189;
      stroke-dashoffset: 1189;
      animation: drawLine 2s ease-out forwards;
    }
    .data-point {
      opacity: 0;
      animation: fadeInPoint 0.5s ease-out forwards;
    }
    .chart-bg { fill: #fff; }
    .chart-text { fill: #24292e; }
    .chart-muted { fill: #6a737d; }
    .chart-grid { stroke: #eee; }
    .chart-axis { stroke: #6a737d; }
    @media (prefers-color-scheme: dark) {
      .chart-bg { fill: #0d1117; }
      .chart-text { fill: #e6edf3; }
      .chart-muted { fill: #8b949e; }
      .chart-grid { stroke: #21262d; }
      .chart-axis { stroke: #8b949e; }
    }
  </style>
  <rect width="800" height="400" class="chart-bg" />
  <text x="400" y="14" text-anchor="middle" class="chart-text" font-size="16" font-weight="bold" font-family="-apple-system, BlinkMacSystemFont, 'Segoe UI', Helvetica, Arial, sans-serif">dockur/windows Star History</text>
  
  <g class="grid">
    <line x1="60" y1="350" x2="770" y2="350" class="chart-grid" stroke-opacity="0.3" />
    <text x="778" y="354" text-anchor="start" class="chart-muted" font-size="11" font-family="-apple-system, BlinkMacSystemFont, 'Segoe UI', Helvetica, Arial, sans-serif">0</text>
    <line x1="60" y1="300" x2="770" y2="300" class="chart-grid" stroke-opacity="0.3" />
    <text x="778" y="304" text-anchor="start" class="chart-muted" font-size="11" font-family="-apple-system, BlinkMacSystemFont, 'Segoe UI', Helvetica, Arial, sans-serif">10K</text>
    <line x1="60" y1="250" x2="770" y2="250" class="chart-grid" stroke-opacity="0.3" />
    <text x="778" y="254" text-anchor="start" class="chart-muted" font-size="11" font-family="-apple-system, BlinkMacSystemFont, 'Segoe UI', Helvetica, Arial, sans-serif">20K</text>
    <line x1="60" y1="200" x2="770" y2="200" class="chart-grid" stroke-opacity="0.3" />
    <text x="778" y="204" text-anchor="start" class="chart-muted" font-size="11" font-family="-apple-system, BlinkMacSystemFont, 'Segoe UI', Helvetica, Arial, sans-serif">30K</text>
    <line x1="60" y1="150" x2="770" y2="150" class="chart-grid" stroke-opacity="0.3" />
    <text x="778" y="154" text-anchor="start" class="chart-muted" font-size="11" font-family="-apple-system, BlinkMacSystemFont, 'Segoe UI', Helvetica, Arial, sans-serif">40K</text>
    <line x1="60" y1="100" x2="770" y2="100" class="chart-grid" stroke-opacity="0.3" />
    <text x="778" y="104" text-anchor="start" class="chart-muted" font-size="11" font-family="-apple-system, BlinkMacSystemFont, 'Segoe UI', Helvetica, Arial, sans-serif">50K</text>
    <line x1="60" y1="50" x2="770" y2="50" class="chart-grid" stroke-opacity="0.3" />
    <text x="778" y="54" text-anchor="start" class="chart-muted" font-size="11" font-family="-apple-system, BlinkMacSystemFont, 'Segoe UI', Helvetica, Arial, sans-serif">60K</text>
  </g>
  <g class="milestones">
    
  </g>
  <g class="x-axis">
    <text x="60" y="370" text-anchor="middle" class="chart-muted" font-size="11" font-family="-apple-system, BlinkMacSystemFont, 'Segoe UI', Helvetica, Arial, sans-serif">2024</text>
    <text x="353.7931034482759" y="370" text-anchor="middle" class="chart-muted" font-size="11" font-family="-apple-system, BlinkMacSystemFont, 'Segoe UI', Helvetica, Arial, sans-serif">2025</text>
    <text x="647.5862068965517" y="370" text-anchor="middle" class="chart-muted" font-size="11" font-family="-apple-system, BlinkMacSystemFont, 'Segoe UI', Helvetica, Arial, sans-serif">2026</text>
  </g>
  <line x1="770" y1="50" x2="770" y2="350" class="chart-axis" stroke-width="1" />
  <line x1="60" y1="350" x2="770" y2="350" class="chart-axis" stroke-width="1" />
  <path d="M60,350 L60,349.935 C68.16091954022988,347.86367368972105 76.32183908045977,349.6015466818932 84.48275862068965,343.335 C92.64367816091954,337.0684533181068 100.80459770114942,318.88916666666665 108.9655172413793,310 C117.12643678160919,301.11083333333335 125.28735632183907,294.44416666666666 133.44827586206895,290 C141.60919540229884,285.55583333333334 149.77011494252872,285.55749999999995 157.9310344827586,283.335 C166.0919540229885,281.11249999999995 174.2528735632184,278.49833333333333 182.41379310344828,276.665 C190.57471264367817,274.8316666666667 198.73563218390805,273.4458333333333 206.89655172413794,272.335 C215.05747126436782,271.22416666666663 223.2183908045977,270 231.3793103448276,270 C239.54022988505747,270 247.70114942528735,270 255.86206896551724,270 C264.0229885057471,270 272.183908045977,270 280.34482758620686,263.33500000000004 C288.50574712643675,256.6700000000001 296.6666666666667,216.50624848179675 304.82758620689657,210 C312.98850574712645,203.49375151820328 321.14942528735634,204.78101372507933 329.3103448275862,203.335 C337.4712643678161,201.88898627492068 345.632183908046,198.8875 353.7931034482759,196.665 C361.95402298850576,194.4425 370.11494252873564,190 378.2758620689655,190 C386.4367816091954,190 394.5977011494253,190 402.7586206896552,190 C410.91954022988506,190 419.08045977011494,185.46833333333333 427.2413793103448,183.335 C435.4022988505747,181.20166666666668 443.5632183908046,177.68613090149063 451.7241379310345,177.20000000000002 C459.88505747126436,176.7138690985094 468.04597701149424,176.88838698846607 476.2068965517241,176.665 C484.367816091954,176.44161301153392 492.5287356321839,175.23570122372465 500.6896551724138,174.135 C508.85057471264366,173.03429877627534 517.0114942528736,173.9858100577036 525.1724137931035,170 C533.3333333333334,166.01418994229644 541.4942528735633,154.46416666666667 549.6551724137931,150 C557.816091954023,145.53583333333333 565.9770114942529,145.47666666666666 574.1379310344828,143.215 C582.2988505747127,140.95333333333335 590.4597701149426,138.6925 598.6206896551724,136.43 C606.7816091954023,134.16750000000002 614.9425287356322,131.90249999999997 623.1034482758621,129.64 C631.264367816092,127.37749999999998 639.4252873563219,125.11666666666666 647.5862068965517,122.85499999999999 C655.7471264367816,120.59333333333332 663.9080459770115,118.33166666666666 672.0689655172414,116.07 C680.2298850574713,113.80833333333332 688.3908045977012,111.5475 696.551724137931,109.285 C704.7126436781609,107.0225 712.8735632183908,104.75750000000001 721.0344827586207,102.495 C729.1954022988506,100.2325 737.3563218390805,97.97166666666668 745.5172413793103,95.71000000000001 C753.6781609195402,93.44833333333334 761.8390804597701,91.18666666666668 770,88.92500000000001 L770,350 L60,350 Z" fill="#6b63ff" fill-opacity="0.1" />
  <path d="M60,350 L60,349.935 C68.16091954022988,347.86367368972105 76.32183908045977,349.6015466818932 84.48275862068965,343.335 C92.64367816091954,337.0684533181068 100.80459770114942,318.88916666666665 108.9655172413793,310 C117.12643678160919,301.11083333333335 125.28735632183907,294.44416666666666 133.44827586206895,290 C141.60919540229884,285.55583333333334 149.77011494252872,285.55749999999995 157.9310344827586,283.335 C166.0919540229885,281.11249999999995 174.2528735632184,278.49833333333333 182.41379310344828,276.665 C190.57471264367817,274.8316666666667 198.73563218390805,273.4458333333333 206.89655172413794,272.335 C215.05747126436782,271.22416666666663 223.2183908045977,270 231.3793103448276,270 C239.54022988505747,270 247.70114942528735,270 255.86206896551724,270 C264.0229885057471,270 272.183908045977,270 280.34482758620686,263.33500000000004 C288.50574712643675,256.6700000000001 296.6666666666667,216.50624848179675 304.82758620689657,210 C312.98850574712645,203.49375151820328 321.14942528735634,204.78101372507933 329.3103448275862,203.335 C337.4712643678161,201.88898627492068 345.632183908046,198.8875 353.7931034482759,196.665 C361.95402298850576,194.4425 370.11494252873564,190 378.2758620689655,190 C386.4367816091954,190 394.5977011494253,190 402.7586206896552,190 C410.91954022988506,190 419.08045977011494,185.46833333333333 427.2413793103448,183.335 C435.4022988505747,181.20166666666668 443.5632183908046,177.68613090149063 451.7241379310345,177.20000000000002 C459.88505747126436,176.7138690985094 468.04597701149424,176.88838698846607 476.2068965517241,176.665 C484.367816091954,176.44161301153392 492.5287356321839,175.23570122372465 500.6896551724138,174.135 C508.85057471264366,173.03429877627534 517.0114942528736,173.9858100577036 525.1724137931035,170 C533.3333333333334,166.01418994229644 541.4942528735633,154.46416666666667 549.6551724137931,150 C557.816091954023,145.53583333333333 565.9770114942529,145.47666666666666 574.1379310344828,143.215 C582.2988505747127,140.95333333333335 590.4597701149426,138.6925 598.6206896551724,136.43 C606.7816091954023,134.16750000000002 614.9425287356322,131.90249999999997 623.1034482758621,129.64 C631.264367816092,127.37749999999998 639.4252873563219,125.11666666666666 647.5862068965517,122.85499999999999 C655.7471264367816,120.59333333333332 663.9080459770115,118.33166666666666 672.0689655172414,116.07 C680.2298850574713,113.80833333333332 688.3908045977012,111.5475 696.551724137931,109.285 C704.7126436781609,107.0225 712.8735632183908,104.75750000000001 721.0344827586207,102.495 C729.1954022988506,100.2325 737.3563218390805,97.97166666666668 745.5172413793103,95.71000000000001 C753.6781609195402,93.44833333333334 761.8390804597701,91.18666666666668 770,88.92500000000001" fill="none" stroke="#6b63ff" stroke-width="2.5" class="data-line-0" />
  <g class="points">
    
    <circle cx="60" cy="349.935" r="4" fill="#6b63ff" class="data-point" style="animation-delay: 1.50s" />
    <circle cx="84.48275862068965" cy="343.335" r="4" fill="#6b63ff" class="data-point" style="animation-delay: 1.55s" />
    <circle cx="108.9655172413793" cy="310" r="4" fill="#6b63ff" class="data-point" style="animation-delay: 1.60s" />
    <circle cx="133.44827586206895" cy="290" r="4" fill="#6b63ff" class="data-point" style="animation-delay: 1.65s" />
    <circle cx="157.9310344827586" cy="283.335" r="4" fill="#6b63ff" class="data-point" style="animation-delay: 1.70s" />
    <circle cx="182.41379310344828" cy="276.665" r="4" fill="#6b63ff" class="data-point" style="animation-delay: 1.75s" />
    <circle cx="206.89655172413794" cy="272.335" r="4" fill="#6b63ff" class="data-point" style="animation-delay: 1.80s" />
    <circle cx="231.3793103448276" cy="270" r="4" fill="#6b63ff" class="data-point" style="animation-delay: 1.85s" />
    <circle cx="255.86206896551724" cy="270" r="4" fill="#6b63ff" class="data-point" style="animation-delay: 1.90s" />
    <circle cx="280.34482758620686" cy="263.33500000000004" r="4" fill="#6b63ff" class="data-point" style="animation-delay: 1.95s" />
    <circle cx="304.82758620689657" cy="210" r="4" fill="#6b63ff" class="data-point" style="animation-delay: 2.00s" />
    <circle cx="329.3103448275862" cy="203.335" r="4" fill="#6b63ff" class="data-point" style="animation-delay: 2.05s" />
    <circle cx="353.7931034482759" cy="196.665" r="4" fill="#6b63ff" class="data-point" style="animation-delay: 2.10s" />
    <circle cx="378.2758620689655" cy="190" r="4" fill="#6b63ff" class="data-point" style="animation-delay: 2.15s" />
    <circle cx="402.7586206896552" cy="190" r="4" fill="#6b63ff" class="data-point" style="animation-delay: 2.20s" />
    <circle cx="427.2413793103448" cy="183.335" r="4" fill="#6b63ff" class="data-point" style="animation-delay: 2.25s" />
    <circle cx="451.7241379310345" cy="177.20000000000002" r="4" fill="#6b63ff" class="data-point" style="animation-delay: 2.30s" />
    <circle cx="476.2068965517241" cy="176.665" r="4" fill="#6b63ff" class="data-point" style="animation-delay: 2.35s" />
    <circle cx="500.6896551724138" cy="174.135" r="4" fill="#6b63ff" class="data-point" style="animation-delay: 2.40s" />
    <circle cx="525.1724137931035" cy="170" r="4" fill="#6b63ff" class="data-point" style="animation-delay: 2.45s" />
    <circle cx="549.6551724137931" cy="150" r="4" fill="#6b63ff" class="data-point" style="animation-delay: 2.50s" />
    <circle cx="574.1379310344828" cy="143.215" r="4" fill="#6b63ff" class="data-point" style="animation-delay: 2.55s" />
    <circle cx="598.6206896551724" cy="136.43" r="4" fill="#6b63ff" class="data-point" style="animation-delay: 2.60s" />
    <circle cx="623.1034482758621" cy="129.64" r="4" fill="#6b63ff" class="data-point" style="animation-delay: 2.65s" />
    <circle cx="647.5862068965517" cy="122.85499999999999" r="4" fill="#6b63ff" class="data-point" style="animation-delay: 2.70s" />
    <circle cx="672.0689655172414" cy="116.07" r="4" fill="#6b63ff" class="data-point" style="animation-delay: 2.75s" />
    <circle cx="696.551724137931" cy="109.285" r="4" fill="#6b63ff" class="data-point" style="animation-delay: 2.80s" />
    <circle cx="721.0344827586207" cy="102.495" r="4" fill="#6b63ff" class="data-point" style="animation-delay: 2.85s" />
    <circle cx="745.5172413793103" cy="95.71000000000001" r="4" fill="#6b63ff" class="data-point" style="animation-delay: 2.90s" />
    <circle cx="770" cy="88.92500000000001" r="4" fill="#6b63ff" class="data-point" style="animation-delay: 2.95s" />
  </g>
</svg>