<svg xmlns="http://www.w3.org/2000/svg" viewBox="0 0 800 400" width="800" height="400">
  <style>
    @keyframes drawLine {
      to { stroke-dashoffset: 0; }
    }
    @keyframes fadeInPoint {
      from { opacity: 0; }
      to { opacity: 1; }
    }
    .data-line-0 {
      stroke-dasharray: 1172;
      stroke-dashoffset: 1172;
      animation: drawLine 2s ease-out forwards;
    }
    .data-point {
      opacity: 0;
      animation: fadeInPoint 0.5s ease-out forwards;
    }
    .chart-bg { fill: #fff; }
    .chart-text { fill: #24292e; }
    .chart-muted { fill: #6a737d; }
    .chart-grid { stroke: #eee; }
    .chart-axis { stroke: #6a737d; }
    @media (prefers-color-scheme: dark) {
      .chart-bg { fill: #0d1117; }
      .chart-text { fill: #e6edf3; }
      .chart-muted { fill: #8b949e; }
      .chart-grid { stroke: #21262d; }
      .chart-axis { stroke: #8b949e; }
    }
  </style>
  <rect width="800" height="400" class="chart-bg" />
  <text x="400" y="34" text-anchor="middle" class="chart-text" font-size="16" font-weight="bold" font-family="-apple-system, BlinkMacSystemFont, 'Segoe UI', Helvetica, Arial, sans-serif">dockur/casa Star History</text>
  
  <g class="grid">
    <line x1="60" y1="350" x2="770" y2="350" class="chart-grid" stroke-opacity="0.3" />
    <text x="778" y="354" text-anchor="start" class="chart-muted" font-size="11" font-family="-apple-system, BlinkMacSystemFont, 'Segoe UI', Helvetica, Arial, sans-serif">0</text>
    <line x1="60" y1="285.3448275862069" x2="770" y2="285.3448275862069" class="chart-grid" stroke-opacity="0.3" />
    <text x="778" y="289.3448275862069" text-anchor="start" class="chart-muted" font-size="11" font-family="-apple-system, BlinkMacSystemFont, 'Segoe UI', Helvetica, Arial, sans-serif">50</text>
    <line x1="60" y1="220.6896551724138" x2="770" y2="220.6896551724138" class="chart-grid" stroke-opacity="0.3" />
    <text x="778" y="224.6896551724138" text-anchor="start" class="chart-muted" font-size="11" font-family="-apple-system, BlinkMacSystemFont, 'Segoe UI', Helvetica, Arial, sans-serif">100</text>
    <line x1="60" y1="156.0344827586207" x2="770" y2="156.0344827586207" class="chart-grid" stroke-opacity="0.3" />
    <text x="778" y="160.0344827586207" text-anchor="start" class="chart-muted" font-size="11" font-family="-apple-system, BlinkMacSystemFont, 'Segoe UI', Helvetica, Arial, sans-serif">150</text>
    <line x1="60" y1="91.37931034482762" x2="770" y2="91.37931034482762" class="chart-grid" stroke-opacity="0.3" />
    <text x="778" y="95.37931034482762" text-anchor="start" class="chart-muted" font-size="11" font-family="-apple-system, BlinkMacSystemFont, 'Segoe UI', Helvetica, Arial, sans-serif">200</text>
    <line x1="60" y1="26.724137931034477" x2="770" y2="26.724137931034477" class="chart-grid" stroke-opacity="0.3" />
    <text x="778" y="30.724137931034477" text-anchor="start" class="chart-muted" font-size="11" font-family="-apple-system, BlinkMacSystemFont, 'Segoe UI', Helvetica, Arial, sans-serif">250</text>
  </g>
  <g class="milestones">
    
  </g>
  <g class="x-axis">
    <text x="60" y="370" text-anchor="middle" class="chart-muted" font-size="11" font-family="-apple-system, BlinkMacSystemFont, 'Segoe UI', Helvetica, Arial, sans-serif">2024</text>
    <text x="133.44827586206895" y="370" text-anchor="middle" class="chart-muted" font-size="11" font-family="-apple-system, BlinkMacSystemFont, 'Segoe UI', Helvetica, Arial, sans-serif">2025</text>
    <text x="574.1379310344828" y="370" text-anchor="middle" class="chart-muted" font-size="11" font-family="-apple-system, BlinkMacSystemFont, 'Segoe UI', Helvetica, Arial, sans-serif">2026</text>
  </g>
  <line x1="770" y1="50" x2="770" y2="350" class="chart-axis" stroke-width="1" />
  <line x1="60" y1="350" x2="770" y2="350" class="chart-axis" stroke-width="1" />
  <path d="M60,350 L60,348.7068965517241 C63.264367816091955,345.94827586206895 77.95402298850574,331.4655172413793 84.48275862068965,328.01724137931035 C91.01149425287356,324.5689655172414 102.43678160919539,325.08620689655174 108.9655172413793,322.8448275862069 C115.49425287356321,320.6034482758621 126.91954022988504,313.7931034482759 133.44827586206895,311.2068965517241 C139.97701149425285,308.6206896551724 151.40229885057468,305.6896551724138 157.9310344827586,303.44827586206895 C164.45977011494253,301.2068965517241 175.88505747126436,296.63793103448273 182.41379310344828,294.3965517241379 C188.9425287356322,292.1551724137931 200.36781609195404,288.87931034482756 206.89655172413794,286.63793103448273 C213.42528735632183,284.3965517241379 224.8505747126437,280 231.3793103448276,277.58620689655174 C237.90804597701148,275.1724137931035 249.33333333333334,270.7758620689655 255.86206896551724,268.5344827586207 C262.39080459770116,266.2931034482759 273.81609195402297,262.8448275862069 280.34482758620686,260.7758620689655 C286.87356321839076,258.7068965517241 298.2988505747127,254.5689655172414 304.82758620689657,253.01724137931035 C311.35632183908046,251.4655172413793 322.7816091954023,250.86206896551724 329.3103448275862,249.13793103448276 C335.8390804597701,247.41379310344828 347.264367816092,242.67241379310346 353.7931034482759,240.08620689655174 C360.32183908045977,237.50000000000003 371.7471264367816,232.8448275862069 378.2758620689655,229.74137931034483 C384.8045977011494,226.63793103448276 396.2298850574713,219.3965517241379 402.7586206896552,216.8103448275862 C409.28735632183907,214.22413793103448 420.71264367816093,212.58620689655172 427.2413793103448,210.3448275862069 C433.7701149425287,208.10344827586206 445.1954022988506,202.93103448275863 451.7241379310345,200 C458.2528735632184,197.06896551724137 469.67816091954023,191.1206896551724 476.2068965517241,188.36206896551724 C482.735632183908,185.60344827586206 494.1609195402299,181.37931034482756 500.6896551724138,179.3103448275862 C507.2183908045977,177.24137931034483 518.6436781609195,179.3103448275862 525.1724137931035,172.8448275862069 C531.7011494252874,166.1206896551724 543.1264367816092,135.6034482758621 549.6551724137931,128.87931034482762 C556.1839080459771,122.41379310344828 567.6091954022988,125.3448275862069 574.1379310344828,122.41379310344828 C580.6666666666667,119.48275862068967 592.0919540229885,109.65517241379311 598.6206896551724,106.89655172413794 C605.1494252873564,104.13793103448276 616.5747126436781,102.58620689655172 623.1034482758621,101.72413793103448 C629.632183908046,100.86206896551724 641.0574712643678,101.29310344827587 647.5862068965517,100.43103448275863 C654.1149425287357,99.5689655172414 665.5402298850574,96.29310344827587 672.0689655172414,95.25862068965517 C678.5977011494253,94.22413793103448 690.0229885057471,93.70689655172411 696.551724137931,92.67241379310343 C703.080459770115,91.63793103448275 714.5057471264367,88.70689655172414 721.0344827586207,87.5 C727.5632183908046,86.29310344827586 738.9885057471264,84.99999999999997 745.5172413793103,83.62068965517238 C752.0459770114943,82.2413793103448 766.735632183908,78.01724137931038 770,77.15517241379314 L770,350 L60,350 Z" fill="#6b63ff" fill-opacity="0.1" />
  <path d="M60,350 L60,348.7068965517241 C63.264367816091955,345.94827586206895 77.95402298850574,331.4655172413793 84.48275862068965,328.01724137931035 C91.01149425287356,324.5689655172414 102.43678160919539,325.08620689655174 108.9655172413793,322.8448275862069 C115.49425287356321,320.6034482758621 126.91954022988504,313.7931034482759 133.44827586206895,311.2068965517241 C139.97701149425285,308.6206896551724 151.40229885057468,305.6896551724138 157.9310344827586,303.44827586206895 C164.45977011494253,301.2068965517241 175.88505747126436,296.63793103448273 182.41379310344828,294.3965517241379 C188.9425287356322,292.1551724137931 200.36781609195404,288.87931034482756 206.89655172413794,286.63793103448273 C213.42528735632183,284.3965517241379 224.8505747126437,280 231.3793103448276,277.58620689655174 C237.90804597701148,275.1724137931035 249.33333333333334,270.7758620689655 255.86206896551724,268.5344827586207 C262.39080459770116,266.2931034482759 273.81609195402297,262.8448275862069 280.34482758620686,260.7758620689655 C286.87356321839076,258.7068965517241 298.2988505747127,254.5689655172414 304.82758620689657,253.01724137931035 C311.35632183908046,251.4655172413793 322.7816091954023,250.86206896551724 329.3103448275862,249.13793103448276 C335.8390804597701,247.41379310344828 347.264367816092,242.67241379310346 353.7931034482759,240.08620689655174 C360.32183908045977,237.50000000000003 371.7471264367816,232.8448275862069 378.2758620689655,229.74137931034483 C384.8045977011494,226.63793103448276 396.2298850574713,219.3965517241379 402.7586206896552,216.8103448275862 C409.28735632183907,214.22413793103448 420.71264367816093,212.58620689655172 427.2413793103448,210.3448275862069 C433.7701149425287,208.10344827586206 445.1954022988506,202.93103448275863 451.7241379310345,200 C458.2528735632184,197.06896551724137 469.67816091954023,191.1206896551724 476.2068965517241,188.36206896551724 C482.735632183908,185.60344827586206 494.1609195402299,181.37931034482756 500.6896551724138,179.3103448275862 C507.2183908045977,177.24137931034483 518.6436781609195,179.3103448275862 525.1724137931035,172.8448275862069 C531.7011494252874,166.1206896551724 543.1264367816092,135.6034482758621 549.6551724137931,128.87931034482762 C556.1839080459771,122.41379310344828 567.6091954022988,125.3448275862069 574.1379310344828,122.41379310344828 C580.6666666666667,119.48275862068967 592.0919540229885,109.65517241379311 598.6206896551724,106.89655172413794 C605.1494252873564,104.13793103448276 616.5747126436781,102.58620689655172 623.1034482758621,101.72413793103448 C629.632183908046,100.86206896551724 641.0574712643678,101.29310344827587 647.5862068965517,100.43103448275863 C654.1149425287357,99.5689655172414 665.5402298850574,96.29310344827587 672.0689655172414,95.25862068965517 C678.5977011494253,94.22413793103448 690.0229885057471,93.70689655172411 696.551724137931,92.67241379310343 C703.080459770115,91.63793103448275 714.5057471264367,88.70689655172414 721.0344827586207,87.5 C727.5632183908046,86.29310344827586 738.9885057471264,84.99999999999997 745.5172413793103,83.62068965517238 C752.0459770114943,82.2413793103448 766.735632183908,78.01724137931038 770,77.15517241379314" fill="none" stroke="#6b63ff" stroke-width="2.5" class="data-line-0" />
  <g class="points">
    
    <circle cx="60" cy="348.7068965517241" r="4" fill="#6b63ff" class="data-point" style="animation-delay: 1.50s" />
    <circle cx="84.48275862068965" cy="328.01724137931035" r="4" fill="#6b63ff" class="data-point" style="animation-delay: 1.55s" />
    <circle cx="108.9655172413793" cy="322.8448275862069" r="4" fill="#6b63ff" class="data-point" style="animation-delay: 1.60s" />
    <circle cx="133.44827586206895" cy="311.2068965517241" r="4" fill="#6b63ff" class="data-point" style="animation-delay: 1.65s" />
    <circle cx="157.9310344827586" cy="303.44827586206895" r="4" fill="#6b63ff" class="data-point" style="animation-delay: 1.70s" />
    <circle cx="182.41379310344828" cy="294.3965517241379" r="4" fill="#6b63ff" class="data-point" style="animation-delay: 1.75s" />
    <circle cx="206.89655172413794" cy="286.63793103448273" r="4" fill="#6b63ff" class="data-point" style="animation-delay: 1.80s" />
    <circle cx="231.3793103448276" cy="277.58620689655174" r="4" fill="#6b63ff" class="data-point" style="animation-delay: 1.85s" />
    <circle cx="255.86206896551724" cy="268.5344827586207" r="4" fill="#6b63ff" class="data-point" style="animation-delay: 1.90s" />
    <circle cx="280.34482758620686" cy="260.7758620689655" r="4" fill="#6b63ff" class="data-point" style="animation-delay: 1.95s" />
    <circle cx="304.82758620689657" cy="253.01724137931035" r="4" fill="#6b63ff" class="data-point" style="animation-delay: 2.00s" />
    <circle cx="329.3103448275862" cy="249.13793103448276" r="4" fill="#6b63ff" class="data-point" style="animation-delay: 2.05s" />
    <circle cx="353.7931034482759" cy="240.08620689655174" r="4" fill="#6b63ff" class="data-point" style="animation-delay: 2.10s" />
    <circle cx="378.2758620689655" cy="229.74137931034483" r="4" fill="#6b63ff" class="data-point" style="animation-delay: 2.15s" />
    <circle cx="402.7586206896552" cy="216.8103448275862" r="4" fill="#6b63ff" class="data-point" style="animation-delay: 2.20s" />
    <circle cx="427.2413793103448" cy="210.3448275862069" r="4" fill="#6b63ff" class="data-point" style="animation-delay: 2.25s" />
    <circle cx="451.7241379310345" cy="200" r="4" fill="#6b63ff" class="data-point" style="animation-delay: 2.30s" />
    <circle cx="476.2068965517241" cy="188.36206896551724" r="4" fill="#6b63ff" class="data-point" style="animation-delay: 2.35s" />
    <circle cx="500.6896551724138" cy="179.3103448275862" r="4" fill="#6b63ff" class="data-point" style="animation-delay: 2.40s" />
    <circle cx="525.1724137931035" cy="172.8448275862069" r="4" fill="#6b63ff" class="data-point" style="animation-delay: 2.45s" />
    <circle cx="549.6551724137931" cy="128.87931034482762" r="4" fill="#6b63ff" class="data-point" style="animation-delay: 2.50s" />
    <circle cx="574.1379310344828" cy="122.41379310344828" r="4" fill="#6b63ff" class="data-point" style="animation-delay: 2.55s" />
    <circle cx="598.6206896551724" cy="106.89655172413794" r="4" fill="#6b63ff" class="data-point" style="animation-delay: 2.60s" />
    <circle cx="623.1034482758621" cy="101.72413793103448" r="4" fill="#6b63ff" class="data-point" style="animation-delay: 2.65s" />
    <circle cx="647.5862068965517" cy="100.43103448275863" r="4" fill="#6b63ff" class="data-point" style="animation-delay: 2.70s" />
    <circle cx="672.0689655172414" cy="95.25862068965517" r="4" fill="#6b63ff" class="data-point" style="animation-delay: 2.75s" />
    <circle cx="696.551724137931" cy="92.67241379310343" r="4" fill="#6b63ff" class="data-point" style="animation-delay: 2.80s" />
    <circle cx="721.0344827586207" cy="87.5" r="4" fill="#6b63ff" class="data-point" style="animation-delay: 2.85s" />
    <circle cx="745.5172413793103" cy="83.62068965517238" r="4" fill="#6b63ff" class="data-point" style="animation-delay: 2.90s" />
    <circle cx="770" cy="77.15517241379314" r="4" fill="#6b63ff" class="data-point" style="animation-delay: 2.95s" />
  </g>
</svg>