<svg xmlns="http://www.w3.org/2000/svg" viewBox="0 0 800 400" width="800" height="400">
  <style>
    @keyframes drawLine {
      to { stroke-dashoffset: 0; }
    }
    @keyframes fadeInPoint {
      from { opacity: 0; }
      to { opacity: 1; }
    }
    .data-line-0 {
      stroke-dasharray: 1173;
      stroke-dashoffset: 1173;
      animation: drawLine 2s ease-out forwards;
    }
    .data-point {
      opacity: 0;
      animation: fadeInPoint 0.5s ease-out forwards;
    }
    .chart-bg { fill: #fff; }
    .chart-text { fill: #24292e; }
    .chart-muted { fill: #6a737d; }
    .chart-grid { stroke: #eee; }
    .chart-axis { stroke: #6a737d; }
    @media (prefers-color-scheme: dark) {
      .chart-bg { fill: #0d1117; }
      .chart-text { fill: #e6edf3; }
      .chart-muted { fill: #8b949e; }
      .chart-grid { stroke: #21262d; }
      .chart-axis { stroke: #8b949e; }
    }
  </style>
  <rect width="800" height="400" class="chart-bg" />
  <text x="400" y="14" text-anchor="middle" class="chart-text" font-size="16" font-weight="bold" font-family="-apple-system, BlinkMacSystemFont, 'Segoe UI', Helvetica, Arial, sans-serif">dockur/chrony Star History</text>
  
  <g class="grid">
    <line x1="60" y1="350" x2="770" y2="350" class="chart-grid" stroke-opacity="0.3" />
    <text x="778" y="354" text-anchor="start" class="chart-muted" font-size="11" font-family="-apple-system, BlinkMacSystemFont, 'Segoe UI', Helvetica, Arial, sans-serif">0</text>
    <line x1="60" y1="300" x2="770" y2="300" class="chart-grid" stroke-opacity="0.3" />
    <text x="778" y="304" text-anchor="start" class="chart-muted" font-size="11" font-family="-apple-system, BlinkMacSystemFont, 'Segoe UI', Helvetica, Arial, sans-serif">20</text>
    <line x1="60" y1="250" x2="770" y2="250" class="chart-grid" stroke-opacity="0.3" />
    <text x="778" y="254" text-anchor="start" class="chart-muted" font-size="11" font-family="-apple-system, BlinkMacSystemFont, 'Segoe UI', Helvetica, Arial, sans-serif">40</text>
    <line x1="60" y1="200" x2="770" y2="200" class="chart-grid" stroke-opacity="0.3" />
    <text x="778" y="204" text-anchor="start" class="chart-muted" font-size="11" font-family="-apple-system, BlinkMacSystemFont, 'Segoe UI', Helvetica, Arial, sans-serif">60</text>
    <line x1="60" y1="150" x2="770" y2="150" class="chart-grid" stroke-opacity="0.3" />
    <text x="778" y="154" text-anchor="start" class="chart-muted" font-size="11" font-family="-apple-system, BlinkMacSystemFont, 'Segoe UI', Helvetica, Arial, sans-serif">80</text>
    <line x1="60" y1="100" x2="770" y2="100" class="chart-grid" stroke-opacity="0.3" />
    <text x="778" y="104" text-anchor="start" class="chart-muted" font-size="11" font-family="-apple-system, BlinkMacSystemFont, 'Segoe UI', Helvetica, Arial, sans-serif">100</text>
    <line x1="60" y1="50" x2="770" y2="50" class="chart-grid" stroke-opacity="0.3" />
    <text x="778" y="54" text-anchor="start" class="chart-muted" font-size="11" font-family="-apple-system, BlinkMacSystemFont, 'Segoe UI', Helvetica, Arial, sans-serif">120</text>
  </g>
  <g class="milestones">
    
  </g>
  <g class="x-axis">
    <text x="60" y="370" text-anchor="middle" class="chart-muted" font-size="11" font-family="-apple-system, BlinkMacSystemFont, 'Segoe UI', Helvetica, Arial, sans-serif">2023</text>
    <text x="108.9655172413793" y="370" text-anchor="middle" class="chart-muted" font-size="11" font-family="-apple-system, BlinkMacSystemFont, 'Segoe UI', Helvetica, Arial, sans-serif">2024</text>
    <text x="378.2758620689655" y="370" text-anchor="middle" class="chart-muted" font-size="11" font-family="-apple-system, BlinkMacSystemFont, 'Segoe UI', Helvetica, Arial, sans-serif">2025</text>
    <text x="647.5862068965517" y="370" text-anchor="middle" class="chart-muted" font-size="11" font-family="-apple-system, BlinkMacSystemFont, 'Segoe UI', Helvetica, Arial, sans-serif">2026</text>
  </g>
  <line x1="770" y1="50" x2="770" y2="350" class="chart-axis" stroke-width="1" />
  <line x1="60" y1="350" x2="770" y2="350" class="chart-axis" stroke-width="1" />
  <path d="M60,350 L60,347.5 C63.264367816091955,347.5 77.95402298850574,347.5 84.48275862068965,347.5 C91.01149425287356,347.5 102.43678160919539,347.5 108.9655172413793,347.5 C115.49425287356321,346.8333333333333 126.91954022988504,344.5 133.44827586206895,342.5 C139.97701149425285,340.5 151.40229885057468,333.8333333333333 157.9310344827586,332.5 C164.45977011494253,332.5 175.88505747126436,332.5 182.41379310344828,332.5 C188.9425287356322,332.5 200.36781609195404,332.5 206.89655172413794,332.5 C213.42528735632183,332.5 224.8505747126437,332.5 231.3793103448276,332.5 C237.90804597701148,331.8333333333333 249.33333333333334,328.5 255.86206896551724,327.5 C262.39080459770116,326.5 273.81609195402297,326 280.34482758620686,325 C286.87356321839076,324 298.2988505747127,322.3333333333333 304.82758620689657,320 C311.35632183908046,317.6666666666667 322.7816091954023,311.5 329.3103448275862,307.5 C335.8390804597701,303.5 347.264367816092,292.6666666666667 353.7931034482759,290 C360.32183908045977,287.5 371.7471264367816,288.8333333333333 378.2758620689655,287.5 C384.8045977011494,286.1666666666667 396.2298850574713,283.3333333333333 402.7586206896552,280 C409.28735632183907,276.6666666666667 420.71264367816093,266.5 427.2413793103448,262.5 C433.7701149425287,258.5 445.1954022988506,253.33333333333334 451.7241379310345,250 C458.2528735632184,246.66666666666666 469.67816091954023,239.83333333333334 476.2068965517241,237.5 C482.735632183908,235.16666666666666 494.1609195402299,233.83333333333334 500.6896551724138,232.5 C507.2183908045977,231.16666666666666 518.6436781609195,230.83333333333334 525.1724137931035,227.5 C531.7011494252874,224.16666666666666 543.1264367816092,212.83333333333334 549.6551724137931,207.5 C556.1839080459771,202.16666666666666 567.6091954022988,191.83333333333334 574.1379310344828,187.5 C580.6666666666667,183.16666666666666 592.0919540229885,180 598.6206896551724,175 C605.1494252873564,170 616.5747126436781,156 623.1034482758621,150 C629.632183908046,144 641.0574712643678,134.00000000000003 647.5862068965517,130.00000000000003 C654.1149425287357,126.00000000000003 665.5402298850574,122.66666666666664 672.0689655172414,119.99999999999997 C678.5977011494253,117.3333333333333 690.0229885057471,112.66666666666666 696.551724137931,110 C703.080459770115,107.33333333333334 714.5057471264367,101.66666666666667 721.0344827586207,100 C727.5632183908046,98.33333333333333 738.9885057471264,99.16666666666667 745.5172413793103,97.5 C752.0459770114943,95.83333333333333 766.735632183908,88.83333333333333 770,87.5 L770,350 L60,350 Z" fill="#6b63ff" fill-opacity="0.1" />
  <path d="M60,350 L60,347.5 C63.264367816091955,347.5 77.95402298850574,347.5 84.48275862068965,347.5 C91.01149425287356,347.5 102.43678160919539,347.5 108.9655172413793,347.5 C115.49425287356321,346.8333333333333 126.91954022988504,344.5 133.44827586206895,342.5 C139.97701149425285,340.5 151.40229885057468,333.8333333333333 157.9310344827586,332.5 C164.45977011494253,332.5 175.88505747126436,332.5 182.41379310344828,332.5 C188.9425287356322,332.5 200.36781609195404,332.5 206.89655172413794,332.5 C213.42528735632183,332.5 224.8505747126437,332.5 231.3793103448276,332.5 C237.90804597701148,331.8333333333333 249.33333333333334,328.5 255.86206896551724,327.5 C262.39080459770116,326.5 273.81609195402297,326 280.34482758620686,325 C286.87356321839076,324 298.2988505747127,322.3333333333333 304.82758620689657,320 C311.35632183908046,317.6666666666667 322.7816091954023,311.5 329.3103448275862,307.5 C335.8390804597701,303.5 347.264367816092,292.6666666666667 353.7931034482759,290 C360.32183908045977,287.5 371.7471264367816,288.8333333333333 378.2758620689655,287.5 C384.8045977011494,286.1666666666667 396.2298850574713,283.3333333333333 402.7586206896552,280 C409.28735632183907,276.6666666666667 420.71264367816093,266.5 427.2413793103448,262.5 C433.7701149425287,258.5 445.1954022988506,253.33333333333334 451.7241379310345,250 C458.2528735632184,246.66666666666666 469.67816091954023,239.83333333333334 476.2068965517241,237.5 C482.735632183908,235.16666666666666 494.1609195402299,233.83333333333334 500.6896551724138,232.5 C507.2183908045977,231.16666666666666 518.6436781609195,230.83333333333334 525.1724137931035,227.5 C531.7011494252874,224.16666666666666 543.1264367816092,212.83333333333334 549.6551724137931,207.5 C556.1839080459771,202.16666666666666 567.6091954022988,191.83333333333334 574.1379310344828,187.5 C580.6666666666667,183.16666666666666 592.0919540229885,180 598.6206896551724,175 C605.1494252873564,170 616.5747126436781,156 623.1034482758621,150 C629.632183908046,144 641.0574712643678,134.00000000000003 647.5862068965517,130.00000000000003 C654.1149425287357,126.00000000000003 665.5402298850574,122.66666666666664 672.0689655172414,119.99999999999997 C678.5977011494253,117.3333333333333 690.0229885057471,112.66666666666666 696.551724137931,110 C703.080459770115,107.33333333333334 714.5057471264367,101.66666666666667 721.0344827586207,100 C727.5632183908046,98.33333333333333 738.9885057471264,99.16666666666667 745.5172413793103,97.5 C752.0459770114943,95.83333333333333 766.735632183908,88.83333333333333 770,87.5" fill="none" stroke="#6b63ff" stroke-width="2.5" class="data-line-0" />
  <g class="points">
    
    <circle cx="60" cy="347.5" r="4" fill="#6b63ff" class="data-point" style="animation-delay: 1.50s" />
    <circle cx="84.48275862068965" cy="347.5" r="4" fill="#6b63ff" class="data-point" style="animation-delay: 1.55s" />
    <circle cx="108.9655172413793" cy="347.5" r="4" fill="#6b63ff" class="data-point" style="animation-delay: 1.60s" />
    <circle cx="133.44827586206895" cy="342.5" r="4" fill="#6b63ff" class="data-point" style="animation-delay: 1.65s" />
    <circle cx="157.9310344827586" cy="332.5" r="4" fill="#6b63ff" class="data-point" style="animation-delay: 1.70s" />
    <circle cx="182.41379310344828" cy="332.5" r="4" fill="#6b63ff" class="data-point" style="animation-delay: 1.75s" />
    <circle cx="206.89655172413794" cy="332.5" r="4" fill="#6b63ff" class="data-point" style="animation-delay: 1.80s" />
    <circle cx="231.3793103448276" cy="332.5" r="4" fill="#6b63ff" class="data-point" style="animation-delay: 1.85s" />
    <circle cx="255.86206896551724" cy="327.5" r="4" fill="#6b63ff" class="data-point" style="animation-delay: 1.90s" />
    <circle cx="280.34482758620686" cy="325" r="4" fill="#6b63ff" class="data-point" style="animation-delay: 1.95s" />
    <circle cx="304.82758620689657" cy="320" r="4" fill="#6b63ff" class="data-point" style="animation-delay: 2.00s" />
    <circle cx="329.3103448275862" cy="307.5" r="4" fill="#6b63ff" class="data-point" style="animation-delay: 2.05s" />
    <circle cx="353.7931034482759" cy="290" r="4" fill="#6b63ff" class="data-point" style="animation-delay: 2.10s" />
    <circle cx="378.2758620689655" cy="287.5" r="4" fill="#6b63ff" class="data-point" style="animation-delay: 2.15s" />
    <circle cx="402.7586206896552" cy="280" r="4" fill="#6b63ff" class="data-point" style="animation-delay: 2.20s" />
    <circle cx="427.2413793103448" cy="262.5" r="4" fill="#6b63ff" class="data-point" style="animation-delay: 2.25s" />
    <circle cx="451.7241379310345" cy="250" r="4" fill="#6b63ff" class="data-point" style="animation-delay: 2.30s" />
    <circle cx="476.2068965517241" cy="237.5" r="4" fill="#6b63ff" class="data-point" style="animation-delay: 2.35s" />
    <circle cx="500.6896551724138" cy="232.5" r="4" fill="#6b63ff" class="data-point" style="animation-delay: 2.40s" />
    <circle cx="525.1724137931035" cy="227.5" r="4" fill="#6b63ff" class="data-point" style="animation-delay: 2.45s" />
    <circle cx="549.6551724137931" cy="207.5" r="4" fill="#6b63ff" class="data-point" style="animation-delay: 2.50s" />
    <circle cx="574.1379310344828" cy="187.5" r="4" fill="#6b63ff" class="data-point" style="animation-delay: 2.55s" />
    <circle cx="598.6206896551724" cy="175" r="4" fill="#6b63ff" class="data-point" style="animation-delay: 2.60s" />
    <circle cx="623.1034482758621" cy="150" r="4" fill="#6b63ff" class="data-point" style="animation-delay: 2.65s" />
    <circle cx="647.5862068965517" cy="130.00000000000003" r="4" fill="#6b63ff" class="data-point" style="animation-delay: 2.70s" />
    <circle cx="672.0689655172414" cy="119.99999999999997" r="4" fill="#6b63ff" class="data-point" style="animation-delay: 2.75s" />
    <circle cx="696.551724137931" cy="110" r="4" fill="#6b63ff" class="data-point" style="animation-delay: 2.80s" />
    <circle cx="721.0344827586207" cy="100" r="4" fill="#6b63ff" class="data-point" style="animation-delay: 2.85s" />
    <circle cx="745.5172413793103" cy="97.5" r="4" fill="#6b63ff" class="data-point" style="animation-delay: 2.90s" />
    <circle cx="770" cy="87.5" r="4" fill="#6b63ff" class="data-point" style="animation-delay: 2.95s" />
  </g>
</svg>