<svg xmlns="http://www.w3.org/2000/svg" viewBox="0 0 800 400" width="800" height="400">
  <style>
    @keyframes drawLine {
      to { stroke-dashoffset: 0; }
    }
    @keyframes fadeInPoint {
      from { opacity: 0; }
      to { opacity: 1; }
    }
    .data-line-0 {
      stroke-dasharray: 1267;
      stroke-dashoffset: 1267;
      animation: drawLine 2s ease-out forwards;
    }
    .data-point {
      opacity: 0;
      animation: fadeInPoint 0.5s ease-out forwards;
    }
    .chart-bg { fill: #fff; }
    .chart-text { fill: #24292e; }
    .chart-muted { fill: #6a737d; }
    .chart-grid { stroke: #eee; }
    .chart-axis { stroke: #6a737d; }
    @media (prefers-color-scheme: dark) {
      .chart-bg { fill: #0d1117; }
      .chart-text { fill: #e6edf3; }
      .chart-muted { fill: #8b949e; }
      .chart-grid { stroke: #21262d; }
      .chart-axis { stroke: #8b949e; }
    }
  </style>
  <rect width="800" height="400" class="chart-bg" />
  <text x="400" y="14" text-anchor="middle" class="chart-text" font-size="16" font-weight="bold" font-family="-apple-system, BlinkMacSystemFont, 'Segoe UI', Helvetica, Arial, sans-serif">dockur/proxmox Star History</text>
  
  <g class="grid">
    <line x1="60" y1="350" x2="770" y2="350" class="chart-grid" stroke-opacity="0.3" />
    <text x="778" y="354" text-anchor="start" class="chart-muted" font-size="11" font-family="-apple-system, BlinkMacSystemFont, 'Segoe UI', Helvetica, Arial, sans-serif">0</text>
    <line x1="60" y1="292.5287356321839" x2="770" y2="292.5287356321839" class="chart-grid" stroke-opacity="0.3" />
    <text x="778" y="296.5287356321839" text-anchor="start" class="chart-muted" font-size="11" font-family="-apple-system, BlinkMacSystemFont, 'Segoe UI', Helvetica, Arial, sans-serif">50</text>
    <line x1="60" y1="235.0574712643678" x2="770" y2="235.0574712643678" class="chart-grid" stroke-opacity="0.3" />
    <text x="778" y="239.0574712643678" text-anchor="start" class="chart-muted" font-size="11" font-family="-apple-system, BlinkMacSystemFont, 'Segoe UI', Helvetica, Arial, sans-serif">100</text>
    <line x1="60" y1="177.58620689655174" x2="770" y2="177.58620689655174" class="chart-grid" stroke-opacity="0.3" />
    <text x="778" y="181.58620689655174" text-anchor="start" class="chart-muted" font-size="11" font-family="-apple-system, BlinkMacSystemFont, 'Segoe UI', Helvetica, Arial, sans-serif">150</text>
    <line x1="60" y1="120.11494252873561" x2="770" y2="120.11494252873561" class="chart-grid" stroke-opacity="0.3" />
    <text x="778" y="124.11494252873561" text-anchor="start" class="chart-muted" font-size="11" font-family="-apple-system, BlinkMacSystemFont, 'Segoe UI', Helvetica, Arial, sans-serif">200</text>
    <line x1="60" y1="62.643678160919535" x2="770" y2="62.643678160919535" class="chart-grid" stroke-opacity="0.3" />
    <text x="778" y="66.64367816091954" text-anchor="start" class="chart-muted" font-size="11" font-family="-apple-system, BlinkMacSystemFont, 'Segoe UI', Helvetica, Arial, sans-serif">250</text>
  </g>
  <g class="milestones">
    
  </g>
  <g class="x-axis">
    <text x="60" y="370" text-anchor="middle" class="chart-muted" font-size="11" font-family="-apple-system, BlinkMacSystemFont, 'Segoe UI', Helvetica, Arial, sans-serif">May 27</text>
    <text x="133.44827586206895" y="370" text-anchor="middle" class="chart-muted" font-size="11" font-family="-apple-system, BlinkMacSystemFont, 'Segoe UI', Helvetica, Arial, sans-serif">May 31</text>
    <text x="206.89655172413794" y="370" text-anchor="middle" class="chart-muted" font-size="11" font-family="-apple-system, BlinkMacSystemFont, 'Segoe UI', Helvetica, Arial, sans-serif">Jun 3</text>
    <text x="280.34482758620686" y="370" text-anchor="middle" class="chart-muted" font-size="11" font-family="-apple-system, BlinkMacSystemFont, 'Segoe UI', Helvetica, Arial, sans-serif">Jun 7</text>
    <text x="353.7931034482759" y="370" text-anchor="middle" class="chart-muted" font-size="11" font-family="-apple-system, BlinkMacSystemFont, 'Segoe UI', Helvetica, Arial, sans-serif">Jun 10</text>
    <text x="427.2413793103448" y="370" text-anchor="middle" class="chart-muted" font-size="11" font-family="-apple-system, BlinkMacSystemFont, 'Segoe UI', Helvetica, Arial, sans-serif">Jun 14</text>
    <text x="500.6896551724138" y="370" text-anchor="middle" class="chart-muted" font-size="11" font-family="-apple-system, BlinkMacSystemFont, 'Segoe UI', Helvetica, Arial, sans-serif">Jun 17</text>
    <text x="574.1379310344828" y="370" text-anchor="middle" class="chart-muted" font-size="11" font-family="-apple-system, BlinkMacSystemFont, 'Segoe UI', Helvetica, Arial, sans-serif">Jun 20</text>
    <text x="647.5862068965517" y="370" text-anchor="middle" class="chart-muted" font-size="11" font-family="-apple-system, BlinkMacSystemFont, 'Segoe UI', Helvetica, Arial, sans-serif">Jun 24</text>
    <text x="721.0344827586207" y="370" text-anchor="middle" class="chart-muted" font-size="11" font-family="-apple-system, BlinkMacSystemFont, 'Segoe UI', Helvetica, Arial, sans-serif">Jun 27</text>
    <text x="770" y="370" text-anchor="middle" class="chart-muted" font-size="11" font-family="-apple-system, BlinkMacSystemFont, 'Segoe UI', Helvetica, Arial, sans-serif">Jun 30</text>
  </g>
  <line x1="770" y1="50" x2="770" y2="350" class="chart-axis" stroke-width="1" />
  <line x1="60" y1="350" x2="770" y2="350" class="chart-axis" stroke-width="1" />
  <path d="M60,350 L60,348.85057471264366 C68.16091954022988,320.49808429118775 76.32183908045977,284.86590038314176 84.48275862068965,263.7931034482759 C92.64367816091954,242.72030651340998 100.80459770114942,236.59003831417627 108.9655172413793,222.41379310344828 C117.12643678160919,208.2375478927203 125.28735632183907,190.22988505747125 133.44827586206895,178.73563218390802 C141.60919540229884,167.2413793103448 149.77011494252872,159.38697318007664 157.9310344827586,153.44827586206898 C166.0919540229885,147.50957854406133 174.2528735632184,145.59386973180077 182.41379310344828,143.10344827586206 C190.57471264367817,140.61302681992336 198.73563218390805,139.84674329501917 206.89655172413794,138.5057471264368 C215.05747126436782,137.16475095785444 223.2183908045977,136.78160919540227 231.3793103448276,135.0574712643678 C239.54022988505747,133.33333333333331 247.70114942528735,130.07662835249042 255.86206896551724,128.16091954022988 C264.0229885057471,126.24521072796935 272.183908045977,124.71264367816092 280.34482758620686,123.5632183908046 C288.50574712643675,122.41379310344827 296.6666666666667,122.60536398467433 304.82758620689657,121.26436781609195 C312.98850574712645,119.92337164750957 321.14942528735634,118.58237547892718 329.3103448275862,115.51724137931032 C337.4712643678161,112.45210727969346 345.632183908046,104.00734933773812 353.7931034482759,102.87356321839081 C361.95402298850576,101.73977709904351 370.11494252873564,101.91310228425903 378.2758620689655,101.72413793103448 C386.4367816091954,101.53517357780993 394.5977011494253,100.57471264367817 402.7586206896552,100.57471264367817 C410.91954022988506,100.57471264367817 419.08045977011494,100.57471264367817 427.2413793103448,100.57471264367817 C435.4022988505747,100.57471264367817 443.5632183908046,100.57471264367817 451.7241379310345,100.57471264367817 C459.88505747126436,100.57471264367817 468.04597701149424,100 476.2068965517241,99.42528735632183 C484.367816091954,98.85057471264366 492.5287356321839,97.70114942528735 500.6896551724138,97.12643678160919 C508.85057471264366,96.55172413793102 517.0114942528736,96.36015325670495 525.1724137931035,95.97701149425285 C533.3333333333334,95.59386973180075 541.4942528735633,95.21072796934867 549.6551724137931,94.82758620689657 C557.816091954023,94.44444444444447 565.9770114942529,94.06130268199234 574.1379310344828,93.67816091954023 C582.2988505747127,93.29501915708812 590.4597701149426,92.911877394636 598.6206896551724,92.5287356321839 C606.7816091954023,92.1455938697318 614.9425287356322,91.95402298850577 623.1034482758621,91.37931034482762 C631.264367816092,90.80459770114946 639.4252873563219,89.65517241379311 647.5862068965517,89.08045977011494 C655.7471264367816,88.50574712643677 663.9080459770115,88.50574712643676 672.0689655172414,87.9310344827586 C680.2298850574713,87.35632183908045 688.3908045977012,86.20689655172414 696.551724137931,85.63218390804599 C704.7126436781609,85.05747126436783 712.8735632183908,84.48275862068965 721.0344827586207,84.48275862068965 C729.1954022988506,84.48275862068965 737.3563218390805,84.48275862068965 745.5172413793103,84.48275862068965 C753.6781609195402,84.48275862068965 761.8390804597701,79.88505747126437 770,77.58620689655174 L770,350 L60,350 Z" fill="#6b63ff" fill-opacity="0.1" />
  <path d="M60,350 L60,348.85057471264366 C68.16091954022988,320.49808429118775 76.32183908045977,284.86590038314176 84.48275862068965,263.7931034482759 C92.64367816091954,242.72030651340998 100.80459770114942,236.59003831417627 108.9655172413793,222.41379310344828 C117.12643678160919,208.2375478927203 125.28735632183907,190.22988505747125 133.44827586206895,178.73563218390802 C141.60919540229884,167.2413793103448 149.77011494252872,159.38697318007664 157.9310344827586,153.44827586206898 C166.0919540229885,147.50957854406133 174.2528735632184,145.59386973180077 182.41379310344828,143.10344827586206 C190.57471264367817,140.61302681992336 198.73563218390805,139.84674329501917 206.89655172413794,138.5057471264368 C215.05747126436782,137.16475095785444 223.2183908045977,136.78160919540227 231.3793103448276,135.0574712643678 C239.54022988505747,133.33333333333331 247.70114942528735,130.07662835249042 255.86206896551724,128.16091954022988 C264.0229885057471,126.24521072796935 272.183908045977,124.71264367816092 280.34482758620686,123.5632183908046 C288.50574712643675,122.41379310344827 296.6666666666667,122.60536398467433 304.82758620689657,121.26436781609195 C312.98850574712645,119.92337164750957 321.14942528735634,118.58237547892718 329.3103448275862,115.51724137931032 C337.4712643678161,112.45210727969346 345.632183908046,104.00734933773812 353.7931034482759,102.87356321839081 C361.95402298850576,101.73977709904351 370.11494252873564,101.91310228425903 378.2758620689655,101.72413793103448 C386.4367816091954,101.53517357780993 394.5977011494253,100.57471264367817 402.7586206896552,100.57471264367817 C410.91954022988506,100.57471264367817 419.08045977011494,100.57471264367817 427.2413793103448,100.57471264367817 C435.4022988505747,100.57471264367817 443.5632183908046,100.57471264367817 451.7241379310345,100.57471264367817 C459.88505747126436,100.57471264367817 468.04597701149424,100 476.2068965517241,99.42528735632183 C484.367816091954,98.85057471264366 492.5287356321839,97.70114942528735 500.6896551724138,97.12643678160919 C508.85057471264366,96.55172413793102 517.0114942528736,96.36015325670495 525.1724137931035,95.97701149425285 C533.3333333333334,95.59386973180075 541.4942528735633,95.21072796934867 549.6551724137931,94.82758620689657 C557.816091954023,94.44444444444447 565.9770114942529,94.06130268199234 574.1379310344828,93.67816091954023 C582.2988505747127,93.29501915708812 590.4597701149426,92.911877394636 598.6206896551724,92.5287356321839 C606.7816091954023,92.1455938697318 614.9425287356322,91.95402298850577 623.1034482758621,91.37931034482762 C631.264367816092,90.80459770114946 639.4252873563219,89.65517241379311 647.5862068965517,89.08045977011494 C655.7471264367816,88.50574712643677 663.9080459770115,88.50574712643676 672.0689655172414,87.9310344827586 C680.2298850574713,87.35632183908045 688.3908045977012,86.20689655172414 696.551724137931,85.63218390804599 C704.7126436781609,85.05747126436783 712.8735632183908,84.48275862068965 721.0344827586207,84.48275862068965 C729.1954022988506,84.48275862068965 737.3563218390805,84.48275862068965 745.5172413793103,84.48275862068965 C753.6781609195402,84.48275862068965 761.8390804597701,79.88505747126437 770,77.58620689655174" fill="none" stroke="#6b63ff" stroke-width="2.5" class="data-line-0" />
  <g class="points">
    
    <circle cx="60" cy="348.85057471264366" r="4" fill="#6b63ff" class="data-point" style="animation-delay: 1.50s" />
    <circle cx="84.48275862068965" cy="263.7931034482759" r="4" fill="#6b63ff" class="data-point" style="animation-delay: 1.55s" />
    <circle cx="108.9655172413793" cy="222.41379310344828" r="4" fill="#6b63ff" class="data-point" style="animation-delay: 1.60s" />
    <circle cx="133.44827586206895" cy="178.73563218390802" r="4" fill="#6b63ff" class="data-point" style="animation-delay: 1.65s" />
    <circle cx="157.9310344827586" cy="153.44827586206898" r="4" fill="#6b63ff" class="data-point" style="animation-delay: 1.70s" />
    <circle cx="182.41379310344828" cy="143.10344827586206" r="4" fill="#6b63ff" class="data-point" style="animation-delay: 1.75s" />
    <circle cx="206.89655172413794" cy="138.5057471264368" r="4" fill="#6b63ff" class="data-point" style="animation-delay: 1.80s" />
    <circle cx="231.3793103448276" cy="135.0574712643678" r="4" fill="#6b63ff" class="data-point" style="animation-delay: 1.85s" />
    <circle cx="255.86206896551724" cy="128.16091954022988" r="4" fill="#6b63ff" class="data-point" style="animation-delay: 1.90s" />
    <circle cx="280.34482758620686" cy="123.5632183908046" r="4" fill="#6b63ff" class="data-point" style="animation-delay: 1.95s" />
    <circle cx="304.82758620689657" cy="121.26436781609195" r="4" fill="#6b63ff" class="data-point" style="animation-delay: 2.00s" />
    <circle cx="329.3103448275862" cy="115.51724137931032" r="4" fill="#6b63ff" class="data-point" style="animation-delay: 2.05s" />
    <circle cx="353.7931034482759" cy="102.87356321839081" r="4" fill="#6b63ff" class="data-point" style="animation-delay: 2.10s" />
    <circle cx="378.2758620689655" cy="101.72413793103448" r="4" fill="#6b63ff" class="data-point" style="animation-delay: 2.15s" />
    <circle cx="402.7586206896552" cy="100.57471264367817" r="4" fill="#6b63ff" class="data-point" style="animation-delay: 2.20s" />
    <circle cx="427.2413793103448" cy="100.57471264367817" r="4" fill="#6b63ff" class="data-point" style="animation-delay: 2.25s" />
    <circle cx="451.7241379310345" cy="100.57471264367817" r="4" fill="#6b63ff" class="data-point" style="animation-delay: 2.30s" />
    <circle cx="476.2068965517241" cy="99.42528735632183" r="4" fill="#6b63ff" class="data-point" style="animation-delay: 2.35s" />
    <circle cx="500.6896551724138" cy="97.12643678160919" r="4" fill="#6b63ff" class="data-point" style="animation-delay: 2.40s" />
    <circle cx="525.1724137931035" cy="95.97701149425285" r="4" fill="#6b63ff" class="data-point" style="animation-delay: 2.45s" />
    <circle cx="549.6551724137931" cy="94.82758620689657" r="4" fill="#6b63ff" class="data-point" style="animation-delay: 2.50s" />
    <circle cx="574.1379310344828" cy="93.67816091954023" r="4" fill="#6b63ff" class="data-point" style="animation-delay: 2.55s" />
    <circle cx="598.6206896551724" cy="92.5287356321839" r="4" fill="#6b63ff" class="data-point" style="animation-delay: 2.60s" />
    <circle cx="623.1034482758621" cy="91.37931034482762" r="4" fill="#6b63ff" class="data-point" style="animation-delay: 2.65s" />
    <circle cx="647.5862068965517" cy="89.08045977011494" r="4" fill="#6b63ff" class="data-point" style="animation-delay: 2.70s" />
    <circle cx="672.0689655172414" cy="87.9310344827586" r="4" fill="#6b63ff" class="data-point" style="animation-delay: 2.75s" />
    <circle cx="696.551724137931" cy="85.63218390804599" r="4" fill="#6b63ff" class="data-point" style="animation-delay: 2.80s" />
    <circle cx="721.0344827586207" cy="84.48275862068965" r="4" fill="#6b63ff" class="data-point" style="animation-delay: 2.85s" />
    <circle cx="745.5172413793103" cy="84.48275862068965" r="4" fill="#6b63ff" class="data-point" style="animation-delay: 2.90s" />
    <circle cx="770" cy="77.58620689655174" r="4" fill="#6b63ff" class="data-point" style="animation-delay: 2.95s" />
  </g>
</svg>