<svg xmlns="http://www.w3.org/2000/svg" viewBox="0 0 800 400" width="800" height="400">
  <style>
    @keyframes drawLine {
      to { stroke-dashoffset: 0; }
    }
    @keyframes fadeInPoint {
      from { opacity: 0; }
      to { opacity: 1; }
    }
    .data-line-0 {
      stroke-dasharray: 1202;
      stroke-dashoffset: 1202;
      animation: drawLine 2s ease-out forwards;
    }
    .data-point {
      opacity: 0;
      animation: fadeInPoint 0.5s ease-out forwards;
    }
    .chart-bg { fill: #fff; }
    .chart-text { fill: #24292e; }
    .chart-muted { fill: #6a737d; }
    .chart-grid { stroke: #eee; }
    .chart-axis { stroke: #6a737d; }
    @media (prefers-color-scheme: dark) {
      .chart-bg { fill: #0d1117; }
      .chart-text { fill: #e6edf3; }
      .chart-muted { fill: #8b949e; }
      .chart-grid { stroke: #21262d; }
      .chart-axis { stroke: #8b949e; }
    }
  </style>
  <rect width="800" height="400" class="chart-bg" />
  <text x="400" y="34" text-anchor="middle" class="chart-text" font-size="16" font-weight="bold" font-family="-apple-system, BlinkMacSystemFont, 'Segoe UI', Helvetica, Arial, sans-serif">dockur/statping Star History</text>
  
  <g class="grid">
    <line x1="60" y1="350" x2="770" y2="350" class="chart-grid" stroke-opacity="0.3" />
    <text x="778" y="354" text-anchor="start" class="chart-muted" font-size="11" font-family="-apple-system, BlinkMacSystemFont, 'Segoe UI', Helvetica, Arial, sans-serif">0</text>
    <line x1="60" y1="276.8292682926829" x2="770" y2="276.8292682926829" class="chart-grid" stroke-opacity="0.3" />
    <text x="778" y="280.8292682926829" text-anchor="start" class="chart-muted" font-size="11" font-family="-apple-system, BlinkMacSystemFont, 'Segoe UI', Helvetica, Arial, sans-serif">20</text>
    <line x1="60" y1="203.65853658536585" x2="770" y2="203.65853658536585" class="chart-grid" stroke-opacity="0.3" />
    <text x="778" y="207.65853658536585" text-anchor="start" class="chart-muted" font-size="11" font-family="-apple-system, BlinkMacSystemFont, 'Segoe UI', Helvetica, Arial, sans-serif">40</text>
    <line x1="60" y1="130.4878048780488" x2="770" y2="130.4878048780488" class="chart-grid" stroke-opacity="0.3" />
    <text x="778" y="134.4878048780488" text-anchor="start" class="chart-muted" font-size="11" font-family="-apple-system, BlinkMacSystemFont, 'Segoe UI', Helvetica, Arial, sans-serif">60</text>
    <line x1="60" y1="57.3170731707317" x2="770" y2="57.3170731707317" class="chart-grid" stroke-opacity="0.3" />
    <text x="778" y="61.3170731707317" text-anchor="start" class="chart-muted" font-size="11" font-family="-apple-system, BlinkMacSystemFont, 'Segoe UI', Helvetica, Arial, sans-serif">80</text>
  </g>
  <g class="milestones">
    
  </g>
  <g class="x-axis">
    <text x="60" y="370" text-anchor="middle" class="chart-muted" font-size="11" font-family="-apple-system, BlinkMacSystemFont, 'Segoe UI', Helvetica, Arial, sans-serif">2024</text>
    <text x="329.3103448275862" y="370" text-anchor="middle" class="chart-muted" font-size="11" font-family="-apple-system, BlinkMacSystemFont, 'Segoe UI', Helvetica, Arial, sans-serif">2025</text>
    <text x="647.5862068965517" y="370" text-anchor="middle" class="chart-muted" font-size="11" font-family="-apple-system, BlinkMacSystemFont, 'Segoe UI', Helvetica, Arial, sans-serif">2026</text>
  </g>
  <line x1="770" y1="50" x2="770" y2="350" class="chart-axis" stroke-width="1" />
  <line x1="60" y1="350" x2="770" y2="350" class="chart-axis" stroke-width="1" />
  <path d="M60,350 L60,346.3414634146341 L84.48275862068965,320.7317073170732 L108.9655172413793,298.780487804878 L133.44827586206895,295.1219512195122 L157.9310344827586,287.8048780487805 L182.41379310344828,280.4878048780488 L206.89655172413794,273.1707317073171 L231.3793103448276,262.1951219512195 L255.86206896551724,254.8780487804878 L280.34482758620686,247.5609756097561 L304.82758620689657,192.6829268292683 L329.3103448275862,181.7073170731707 L353.7931034482759,167.0731707317073 L378.2758620689655,156.09756097560975 L402.7586206896552,148.78048780487805 L427.2413793103448,137.8048780487805 L451.7241379310345,137.8048780487805 L476.2068965517241,137.8048780487805 L500.6896551724138,126.82926829268294 L525.1724137931035,108.53658536585365 L549.6551724137931,101.21951219512195 L574.1379310344828,93.90243902439028 L598.6206896551724,90.2439024390244 L623.1034482758621,90.2439024390244 L647.5862068965517,90.2439024390244 L672.0689655172414,90.2439024390244 L696.551724137931,90.2439024390244 L721.0344827586207,82.92682926829269 L745.5172413793103,82.92682926829269 L770,79.26829268292681 L770,350 L60,350 Z" fill="#6b63ff" fill-opacity="0.1" />
  <path d="M60,350 L60,346.3414634146341 L84.48275862068965,320.7317073170732 L108.9655172413793,298.780487804878 L133.44827586206895,295.1219512195122 L157.9310344827586,287.8048780487805 L182.41379310344828,280.4878048780488 L206.89655172413794,273.1707317073171 L231.3793103448276,262.1951219512195 L255.86206896551724,254.8780487804878 L280.34482758620686,247.5609756097561 L304.82758620689657,192.6829268292683 L329.3103448275862,181.7073170731707 L353.7931034482759,167.0731707317073 L378.2758620689655,156.09756097560975 L402.7586206896552,148.78048780487805 L427.2413793103448,137.8048780487805 L451.7241379310345,137.8048780487805 L476.2068965517241,137.8048780487805 L500.6896551724138,126.82926829268294 L525.1724137931035,108.53658536585365 L549.6551724137931,101.21951219512195 L574.1379310344828,93.90243902439028 L598.6206896551724,90.2439024390244 L623.1034482758621,90.2439024390244 L647.5862068965517,90.2439024390244 L672.0689655172414,90.2439024390244 L696.551724137931,90.2439024390244 L721.0344827586207,82.92682926829269 L745.5172413793103,82.92682926829269 L770,79.26829268292681" fill="none" stroke="#6b63ff" stroke-width="2.5" class="data-line-0" />
  <g class="points">
    
    <circle cx="60" cy="346.3414634146341" r="4" fill="#6b63ff" class="data-point" style="animation-delay: 1.50s" />
    <circle cx="84.48275862068965" cy="320.7317073170732" r="4" fill="#6b63ff" class="data-point" style="animation-delay: 1.55s" />
    <circle cx="108.9655172413793" cy="298.780487804878" r="4" fill="#6b63ff" class="data-point" style="animation-delay: 1.60s" />
    <circle cx="133.44827586206895" cy="295.1219512195122" r="4" fill="#6b63ff" class="data-point" style="animation-delay: 1.65s" />
    <circle cx="157.9310344827586" cy="287.8048780487805" r="4" fill="#6b63ff" class="data-point" style="animation-delay: 1.70s" />
    <circle cx="182.41379310344828" cy="280.4878048780488" r="4" fill="#6b63ff" class="data-point" style="animation-delay: 1.75s" />
    <circle cx="206.89655172413794" cy="273.1707317073171" r="4" fill="#6b63ff" class="data-point" style="animation-delay: 1.80s" />
    <circle cx="231.3793103448276" cy="262.1951219512195" r="4" fill="#6b63ff" class="data-point" style="animation-delay: 1.85s" />
    <circle cx="255.86206896551724" cy="254.8780487804878" r="4" fill="#6b63ff" class="data-point" style="animation-delay: 1.90s" />
    <circle cx="280.34482758620686" cy="247.5609756097561" r="4" fill="#6b63ff" class="data-point" style="animation-delay: 1.95s" />
    <circle cx="304.82758620689657" cy="192.6829268292683" r="4" fill="#6b63ff" class="data-point" style="animation-delay: 2.00s" />
    <circle cx="329.3103448275862" cy="181.7073170731707" r="4" fill="#6b63ff" class="data-point" style="animation-delay: 2.05s" />
    <circle cx="353.7931034482759" cy="167.0731707317073" r="4" fill="#6b63ff" class="data-point" style="animation-delay: 2.10s" />
    <circle cx="378.2758620689655" cy="156.09756097560975" r="4" fill="#6b63ff" class="data-point" style="animation-delay: 2.15s" />
    <circle cx="402.7586206896552" cy="148.78048780487805" r="4" fill="#6b63ff" class="data-point" style="animation-delay: 2.20s" />
    <circle cx="427.2413793103448" cy="137.8048780487805" r="4" fill="#6b63ff" class="data-point" style="animation-delay: 2.25s" />
    <circle cx="451.7241379310345" cy="137.8048780487805" r="4" fill="#6b63ff" class="data-point" style="animation-delay: 2.30s" />
    <circle cx="476.2068965517241" cy="137.8048780487805" r="4" fill="#6b63ff" class="data-point" style="animation-delay: 2.35s" />
    <circle cx="500.6896551724138" cy="126.82926829268294" r="4" fill="#6b63ff" class="data-point" style="animation-delay: 2.40s" />
    <circle cx="525.1724137931035" cy="108.53658536585365" r="4" fill="#6b63ff" class="data-point" style="animation-delay: 2.45s" />
    <circle cx="549.6551724137931" cy="101.21951219512195" r="4" fill="#6b63ff" class="data-point" style="animation-delay: 2.50s" />
    <circle cx="574.1379310344828" cy="93.90243902439028" r="4" fill="#6b63ff" class="data-point" style="animation-delay: 2.55s" />
    <circle cx="598.6206896551724" cy="90.2439024390244" r="4" fill="#6b63ff" class="data-point" style="animation-delay: 2.60s" />
    <circle cx="623.1034482758621" cy="90.2439024390244" r="4" fill="#6b63ff" class="data-point" style="animation-delay: 2.65s" />
    <circle cx="647.5862068965517" cy="90.2439024390244" r="4" fill="#6b63ff" class="data-point" style="animation-delay: 2.70s" />
    <circle cx="672.0689655172414" cy="90.2439024390244" r="4" fill="#6b63ff" class="data-point" style="animation-delay: 2.75s" />
    <circle cx="696.551724137931" cy="90.2439024390244" r="4" fill="#6b63ff" class="data-point" style="animation-delay: 2.80s" />
    <circle cx="721.0344827586207" cy="82.92682926829269" r="4" fill="#6b63ff" class="data-point" style="animation-delay: 2.85s" />
    <circle cx="745.5172413793103" cy="82.92682926829269" r="4" fill="#6b63ff" class="data-point" style="animation-delay: 2.90s" />
    <circle cx="770" cy="79.26829268292681" r="4" fill="#6b63ff" class="data-point" style="animation-delay: 2.95s" />
  </g>
</svg>