<svg xmlns="http://www.w3.org/2000/svg" viewBox="0 0 800 400" width="800" height="400">
  <style>
    @keyframes drawLine {
      to { stroke-dashoffset: 0; }
    }
    @keyframes fadeInPoint {
      from { opacity: 0; }
      to { opacity: 1; }
    }
    .data-line-0 {
      stroke-dasharray: 1146;
      stroke-dashoffset: 1146;
      animation: drawLine 2s ease-out forwards;
    }
    .data-point {
      opacity: 0;
      animation: fadeInPoint 0.5s ease-out forwards;
    }
    .chart-bg { fill: #fff; }
    .chart-text { fill: #24292e; }
    .chart-muted { fill: #6a737d; }
    .chart-grid { stroke: #eee; }
    .chart-axis { stroke: #6a737d; }
    @media (prefers-color-scheme: dark) {
      .chart-bg { fill: #0d1117; }
      .chart-text { fill: #e6edf3; }
      .chart-muted { fill: #8b949e; }
      .chart-grid { stroke: #21262d; }
      .chart-axis { stroke: #8b949e; }
    }
  </style>
  <rect width="800" height="400" class="chart-bg" />
  <text x="400" y="14" text-anchor="middle" class="chart-text" font-size="16" font-weight="bold" font-family="-apple-system, BlinkMacSystemFont, 'Segoe UI', Helvetica, Arial, sans-serif">dockur/tor Star History</text>
  
  <g class="grid">
    <line x1="60" y1="350" x2="770" y2="350" class="chart-grid" stroke-opacity="0.3" />
    <text x="778" y="354" text-anchor="start" class="chart-muted" font-size="11" font-family="-apple-system, BlinkMacSystemFont, 'Segoe UI', Helvetica, Arial, sans-serif">0</text>
    <line x1="60" y1="290" x2="770" y2="290" class="chart-grid" stroke-opacity="0.3" />
    <text x="778" y="294" text-anchor="start" class="chart-muted" font-size="11" font-family="-apple-system, BlinkMacSystemFont, 'Segoe UI', Helvetica, Arial, sans-serif">50</text>
    <line x1="60" y1="230" x2="770" y2="230" class="chart-grid" stroke-opacity="0.3" />
    <text x="778" y="234" text-anchor="start" class="chart-muted" font-size="11" font-family="-apple-system, BlinkMacSystemFont, 'Segoe UI', Helvetica, Arial, sans-serif">100</text>
    <line x1="60" y1="170" x2="770" y2="170" class="chart-grid" stroke-opacity="0.3" />
    <text x="778" y="174" text-anchor="start" class="chart-muted" font-size="11" font-family="-apple-system, BlinkMacSystemFont, 'Segoe UI', Helvetica, Arial, sans-serif">150</text>
    <line x1="60" y1="110" x2="770" y2="110" class="chart-grid" stroke-opacity="0.3" />
    <text x="778" y="114" text-anchor="start" class="chart-muted" font-size="11" font-family="-apple-system, BlinkMacSystemFont, 'Segoe UI', Helvetica, Arial, sans-serif">200</text>
    <line x1="60" y1="50" x2="770" y2="50" class="chart-grid" stroke-opacity="0.3" />
    <text x="778" y="54" text-anchor="start" class="chart-muted" font-size="11" font-family="-apple-system, BlinkMacSystemFont, 'Segoe UI', Helvetica, Arial, sans-serif">250</text>
  </g>
  <g class="milestones">
    
  </g>
  <g class="x-axis">
    <text x="60" y="370" text-anchor="middle" class="chart-muted" font-size="11" font-family="-apple-system, BlinkMacSystemFont, 'Segoe UI', Helvetica, Arial, sans-serif">2023</text>
    <text x="84.48275862068965" y="370" text-anchor="middle" class="chart-muted" font-size="11" font-family="-apple-system, BlinkMacSystemFont, 'Segoe UI', Helvetica, Arial, sans-serif">2024</text>
    <text x="378.2758620689655" y="370" text-anchor="middle" class="chart-muted" font-size="11" font-family="-apple-system, BlinkMacSystemFont, 'Segoe UI', Helvetica, Arial, sans-serif">2025</text>
    <text x="647.5862068965517" y="370" text-anchor="middle" class="chart-muted" font-size="11" font-family="-apple-system, BlinkMacSystemFont, 'Segoe UI', Helvetica, Arial, sans-serif">2026</text>
  </g>
  <line x1="770" y1="50" x2="770" y2="350" class="chart-axis" stroke-width="1" />
  <line x1="60" y1="350" x2="770" y2="350" class="chart-axis" stroke-width="1" />
  <path d="M60,350 L60,348.8 C63.264367816091955,348.48 77.95402298850574,346.71999999999997 84.48275862068965,346.4 C91.01149425287356,346.4 102.43678160919539,346.4 108.9655172413793,346.4 C115.49425287356321,345.91999999999996 126.91954022988504,344.24 133.44827586206895,342.8 C139.97701149425285,341.36 151.40229885057468,337.52000000000004 157.9310344827586,335.6 C164.45977011494253,333.68 175.88505747126436,330 182.41379310344828,328.4 C188.9425287356322,326.79999999999995 200.36781609195404,324.56 206.89655172413794,323.6 C213.42528735632183,322.64000000000004 224.8505747126437,321.84 231.3793103448276,321.2 C237.90804597701148,320.56 249.33333333333334,319.76 255.86206896551724,318.8 C262.39080459770116,317.84000000000003 273.81609195402297,314.96 280.34482758620686,314 C286.87356321839076,313.04 298.2988505747127,313.84000000000003 304.82758620689657,311.6 C311.35632183908046,309.36 322.7816091954023,300.24 329.3103448275862,297.2 C335.8390804597701,294.15999999999997 347.264367816092,290.88 353.7931034482759,288.8 C360.32183908045977,286.72 371.7471264367816,284.16 378.2758620689655,281.6 C384.8045977011494,279.04 396.2298850574713,271.68 402.7586206896552,269.6 C409.28735632183907,267.52000000000004 420.71264367816093,268.08 427.2413793103448,266 C433.7701149425287,263.92 445.1954022988506,256.71999999999997 451.7241379310345,254 C458.2528735632184,251.28 469.67816091954023,248.00000000000003 476.2068965517241,245.60000000000002 C482.735632183908,243.20000000000002 494.1609195402299,239.04 500.6896551724138,236 C507.2183908045977,232.96 518.6436781609195,227.12 525.1724137931035,222.8 C531.7011494252874,218.48000000000002 543.1264367816092,208.88 549.6551724137931,203.6 C556.1839080459771,198.32 567.6091954022988,187.51999999999998 574.1379310344828,183.2 C580.6666666666667,178.88 592.0919540229885,173.76000000000002 598.6206896551724,171.20000000000002 C605.1494252873564,168.64000000000001 616.5747126436781,165.76 623.1034482758621,164 C629.632183908046,162.24 641.0574712643678,160.56 647.5862068965517,158 C654.1149425287357,155.44 665.5402298850574,148.32 672.0689655172414,144.79999999999998 C678.5977011494253,141.27999999999997 690.0229885057471,134.79999999999998 696.551724137931,131.6 C703.080459770115,128.4 714.5057471264367,123.03999999999998 721.0344827586207,120.79999999999998 C727.5632183908046,118.55999999999999 738.9885057471264,116.87999999999998 745.5172413793103,114.79999999999998 C752.0459770114943,112.71999999999998 766.735632183908,106.48000000000002 770,105.20000000000002 L770,350 L60,350 Z" fill="#6b63ff" fill-opacity="0.1" />
  <path d="M60,350 L60,348.8 C63.264367816091955,348.48 77.95402298850574,346.71999999999997 84.48275862068965,346.4 C91.01149425287356,346.4 102.43678160919539,346.4 108.9655172413793,346.4 C115.49425287356321,345.91999999999996 126.91954022988504,344.24 133.44827586206895,342.8 C139.97701149425285,341.36 151.40229885057468,337.52000000000004 157.9310344827586,335.6 C164.45977011494253,333.68 175.88505747126436,330 182.41379310344828,328.4 C188.9425287356322,326.79999999999995 200.36781609195404,324.56 206.89655172413794,323.6 C213.42528735632183,322.64000000000004 224.8505747126437,321.84 231.3793103448276,321.2 C237.90804597701148,320.56 249.33333333333334,319.76 255.86206896551724,318.8 C262.39080459770116,317.84000000000003 273.81609195402297,314.96 280.34482758620686,314 C286.87356321839076,313.04 298.2988505747127,313.84000000000003 304.82758620689657,311.6 C311.35632183908046,309.36 322.7816091954023,300.24 329.3103448275862,297.2 C335.8390804597701,294.15999999999997 347.264367816092,290.88 353.7931034482759,288.8 C360.32183908045977,286.72 371.7471264367816,284.16 378.2758620689655,281.6 C384.8045977011494,279.04 396.2298850574713,271.68 402.7586206896552,269.6 C409.28735632183907,267.52000000000004 420.71264367816093,268.08 427.2413793103448,266 C433.7701149425287,263.92 445.1954022988506,256.71999999999997 451.7241379310345,254 C458.2528735632184,251.28 469.67816091954023,248.00000000000003 476.2068965517241,245.60000000000002 C482.735632183908,243.20000000000002 494.1609195402299,239.04 500.6896551724138,236 C507.2183908045977,232.96 518.6436781609195,227.12 525.1724137931035,222.8 C531.7011494252874,218.48000000000002 543.1264367816092,208.88 549.6551724137931,203.6 C556.1839080459771,198.32 567.6091954022988,187.51999999999998 574.1379310344828,183.2 C580.6666666666667,178.88 592.0919540229885,173.76000000000002 598.6206896551724,171.20000000000002 C605.1494252873564,168.64000000000001 616.5747126436781,165.76 623.1034482758621,164 C629.632183908046,162.24 641.0574712643678,160.56 647.5862068965517,158 C654.1149425287357,155.44 665.5402298850574,148.32 672.0689655172414,144.79999999999998 C678.5977011494253,141.27999999999997 690.0229885057471,134.79999999999998 696.551724137931,131.6 C703.080459770115,128.4 714.5057471264367,123.03999999999998 721.0344827586207,120.79999999999998 C727.5632183908046,118.55999999999999 738.9885057471264,116.87999999999998 745.5172413793103,114.79999999999998 C752.0459770114943,112.71999999999998 766.735632183908,106.48000000000002 770,105.20000000000002" fill="none" stroke="#6b63ff" stroke-width="2.5" class="data-line-0" />
  <g class="points">
    
    <circle cx="60" cy="348.8" r="4" fill="#6b63ff" class="data-point" style="animation-delay: 1.50s" />
    <circle cx="84.48275862068965" cy="346.4" r="4" fill="#6b63ff" class="data-point" style="animation-delay: 1.55s" />
    <circle cx="108.9655172413793" cy="346.4" r="4" fill="#6b63ff" class="data-point" style="animation-delay: 1.60s" />
    <circle cx="133.44827586206895" cy="342.8" r="4" fill="#6b63ff" class="data-point" style="animation-delay: 1.65s" />
    <circle cx="157.9310344827586" cy="335.6" r="4" fill="#6b63ff" class="data-point" style="animation-delay: 1.70s" />
    <circle cx="182.41379310344828" cy="328.4" r="4" fill="#6b63ff" class="data-point" style="animation-delay: 1.75s" />
    <circle cx="206.89655172413794" cy="323.6" r="4" fill="#6b63ff" class="data-point" style="animation-delay: 1.80s" />
    <circle cx="231.3793103448276" cy="321.2" r="4" fill="#6b63ff" class="data-point" style="animation-delay: 1.85s" />
    <circle cx="255.86206896551724" cy="318.8" r="4" fill="#6b63ff" class="data-point" style="animation-delay: 1.90s" />
    <circle cx="280.34482758620686" cy="314" r="4" fill="#6b63ff" class="data-point" style="animation-delay: 1.95s" />
    <circle cx="304.82758620689657" cy="311.6" r="4" fill="#6b63ff" class="data-point" style="animation-delay: 2.00s" />
    <circle cx="329.3103448275862" cy="297.2" r="4" fill="#6b63ff" class="data-point" style="animation-delay: 2.05s" />
    <circle cx="353.7931034482759" cy="288.8" r="4" fill="#6b63ff" class="data-point" style="animation-delay: 2.10s" />
    <circle cx="378.2758620689655" cy="281.6" r="4" fill="#6b63ff" class="data-point" style="animation-delay: 2.15s" />
    <circle cx="402.7586206896552" cy="269.6" r="4" fill="#6b63ff" class="data-point" style="animation-delay: 2.20s" />
    <circle cx="427.2413793103448" cy="266" r="4" fill="#6b63ff" class="data-point" style="animation-delay: 2.25s" />
    <circle cx="451.7241379310345" cy="254" r="4" fill="#6b63ff" class="data-point" style="animation-delay: 2.30s" />
    <circle cx="476.2068965517241" cy="245.60000000000002" r="4" fill="#6b63ff" class="data-point" style="animation-delay: 2.35s" />
    <circle cx="500.6896551724138" cy="236" r="4" fill="#6b63ff" class="data-point" style="animation-delay: 2.40s" />
    <circle cx="525.1724137931035" cy="222.8" r="4" fill="#6b63ff" class="data-point" style="animation-delay: 2.45s" />
    <circle cx="549.6551724137931" cy="203.6" r="4" fill="#6b63ff" class="data-point" style="animation-delay: 2.50s" />
    <circle cx="574.1379310344828" cy="183.2" r="4" fill="#6b63ff" class="data-point" style="animation-delay: 2.55s" />
    <circle cx="598.6206896551724" cy="171.20000000000002" r="4" fill="#6b63ff" class="data-point" style="animation-delay: 2.60s" />
    <circle cx="623.1034482758621" cy="164" r="4" fill="#6b63ff" class="data-point" style="animation-delay: 2.65s" />
    <circle cx="647.5862068965517" cy="158" r="4" fill="#6b63ff" class="data-point" style="animation-delay: 2.70s" />
    <circle cx="672.0689655172414" cy="144.79999999999998" r="4" fill="#6b63ff" class="data-point" style="animation-delay: 2.75s" />
    <circle cx="696.551724137931" cy="131.6" r="4" fill="#6b63ff" class="data-point" style="animation-delay: 2.80s" />
    <circle cx="721.0344827586207" cy="120.79999999999998" r="4" fill="#6b63ff" class="data-point" style="animation-delay: 2.85s" />
    <circle cx="745.5172413793103" cy="114.79999999999998" r="4" fill="#6b63ff" class="data-point" style="animation-delay: 2.90s" />
    <circle cx="770" cy="105.20000000000002" r="4" fill="#6b63ff" class="data-point" style="animation-delay: 2.95s" />
  </g>
</svg>