<svg xmlns="http://www.w3.org/2000/svg" viewBox="0 0 800 400" width="800" height="400">
  <style>
    @keyframes drawLine {
      to { stroke-dashoffset: 0; }
    }
    @keyframes fadeInPoint {
      from { opacity: 0; }
      to { opacity: 1; }
    }
    .data-line-0 {
      stroke-dasharray: 1167;
      stroke-dashoffset: 1167;
      animation: drawLine 2s ease-out forwards;
    }
    .data-point {
      opacity: 0;
      animation: fadeInPoint 0.5s ease-out forwards;
    }
    .chart-bg { fill: #fff; }
    .chart-text { fill: #24292e; }
    .chart-muted { fill: #6a737d; }
    .chart-grid { stroke: #eee; }
    .chart-axis { stroke: #6a737d; }
    @media (prefers-color-scheme: dark) {
      .chart-bg { fill: #0d1117; }
      .chart-text { fill: #e6edf3; }
      .chart-muted { fill: #8b949e; }
      .chart-grid { stroke: #21262d; }
      .chart-axis { stroke: #8b949e; }
    }
  </style>
  <rect width="800" height="400" class="chart-bg" />
  <text x="400" y="34" text-anchor="middle" class="chart-text" font-size="16" font-weight="bold" font-family="-apple-system, BlinkMacSystemFont, 'Segoe UI', Helvetica, Arial, sans-serif">dockur/dnsmasq Star History</text>
  
  <g class="grid">
    <line x1="60" y1="350" x2="770" y2="350" class="chart-grid" stroke-opacity="0.3" />
    <text x="778" y="354" text-anchor="start" class="chart-muted" font-size="11" font-family="-apple-system, BlinkMacSystemFont, 'Segoe UI', Helvetica, Arial, sans-serif">0</text>
    <line x1="60" y1="257.4074074074074" x2="770" y2="257.4074074074074" class="chart-grid" stroke-opacity="0.3" />
    <text x="778" y="261.4074074074074" text-anchor="start" class="chart-muted" font-size="11" font-family="-apple-system, BlinkMacSystemFont, 'Segoe UI', Helvetica, Arial, sans-serif">50</text>
    <line x1="60" y1="164.81481481481484" x2="770" y2="164.81481481481484" class="chart-grid" stroke-opacity="0.3" />
    <text x="778" y="168.81481481481484" text-anchor="start" class="chart-muted" font-size="11" font-family="-apple-system, BlinkMacSystemFont, 'Segoe UI', Helvetica, Arial, sans-serif">100</text>
    <line x1="60" y1="72.22222222222223" x2="770" y2="72.22222222222223" class="chart-grid" stroke-opacity="0.3" />
    <text x="778" y="76.22222222222223" text-anchor="start" class="chart-muted" font-size="11" font-family="-apple-system, BlinkMacSystemFont, 'Segoe UI', Helvetica, Arial, sans-serif">150</text>
  </g>
  <g class="milestones">
    
  </g>
  <g class="x-axis">
    <text x="60" y="370" text-anchor="middle" class="chart-muted" font-size="11" font-family="-apple-system, BlinkMacSystemFont, 'Segoe UI', Helvetica, Arial, sans-serif">2024</text>
    <text x="329.3103448275862" y="370" text-anchor="middle" class="chart-muted" font-size="11" font-family="-apple-system, BlinkMacSystemFont, 'Segoe UI', Helvetica, Arial, sans-serif">2025</text>
    <text x="623.1034482758621" y="370" text-anchor="middle" class="chart-muted" font-size="11" font-family="-apple-system, BlinkMacSystemFont, 'Segoe UI', Helvetica, Arial, sans-serif">2026</text>
  </g>
  <line x1="770" y1="50" x2="770" y2="350" class="chart-axis" stroke-width="1" />
  <line x1="60" y1="350" x2="770" y2="350" class="chart-axis" stroke-width="1" />
  <path d="M60,350 L60,348.14814814814815 C63.264367816091955,346.17283950617286 77.95402298850574,335.3086419753086 84.48275862068965,333.3333333333333 C91.01149425287356,333.3333333333333 102.43678160919539,333.3333333333333 108.9655172413793,333.3333333333333 C115.49425287356321,332.59259259259255 126.91954022988504,329.5061728395062 133.44827586206895,327.77777777777777 C139.97701149425285,326.04938271604937 151.40229885057468,321.85185185185185 157.9310344827586,320.3703703703704 C164.45977011494253,318.8888888888889 175.88505747126436,317.1604938271605 182.41379310344828,316.6666666666667 C188.9425287356322,316.6666666666667 200.36781609195404,316.6666666666667 206.89655172413794,316.6666666666667 C213.42528735632183,315.67901234567904 224.8505747126437,310.4938271604938 231.3793103448276,309.25925925925924 C237.90804597701148,308.02469135802465 249.33333333333334,309.25925925925924 255.86206896551724,307.4074074074074 C262.39080459770116,305.18518518518516 273.81609195402297,296.7901234567901 280.34482758620686,292.5925925925926 C286.87356321839076,288.3950617283951 298.2988505747127,279.6296296296296 304.82758620689657,275.9259259259259 C311.35632183908046,272.22222222222223 322.7816091954023,267.28395061728395 329.3103448275862,264.81481481481484 C335.8390804597701,262.3456790123457 347.264367816092,259.3827160493827 353.7931034482759,257.4074074074074 C360.32183908045977,255.43209876543207 371.7471264367816,252.46913580246914 378.2758620689655,250 C384.8045977011494,247.53086419753086 396.2298850574713,242.5925925925926 402.7586206896552,238.8888888888889 C409.28735632183907,235.18518518518522 420.71264367816093,225.1851851851852 427.2413793103448,222.22222222222223 C433.7701149425287,219.25925925925927 445.1954022988506,218.8888888888889 451.7241379310345,216.66666666666669 C458.2528735632184,214.44444444444446 469.67816091954023,208.76543209876544 476.2068965517241,205.55555555555557 C482.735632183908,202.3456790123457 494.1609195402299,196.04938271604937 500.6896551724138,192.59259259259258 C507.2183908045977,189.1358024691358 518.6436781609195,184.0740740740741 525.1724137931035,179.62962962962965 C531.7011494252874,175.1851851851852 543.1264367816092,164.44444444444443 549.6551724137931,159.25925925925924 C556.1839080459771,154.07407407407405 567.6091954022988,143.7037037037037 574.1379310344828,140.74074074074073 C580.6666666666667,137.77777777777777 592.0919540229885,138.02469135802465 598.6206896551724,137.037037037037 C605.1494252873564,136.04938271604937 616.5747126436781,134.5679012345679 623.1034482758621,133.33333333333334 C629.632183908046,132.0987654320988 641.0574712643678,129.01234567901236 647.5862068965517,127.7777777777778 C654.1149425287357,126.54320987654323 665.5402298850574,126.2962962962963 672.0689655172414,124.07407407407408 C678.5977011494253,121.85185185185185 690.0229885057471,113.33333333333334 696.551724137931,111.11111111111111 C703.080459770115,108.88888888888889 714.5057471264367,110.61728395061728 721.0344827586207,107.40740740740739 C727.5632183908046,104.1975308641975 738.9885057471264,90.98765432098763 745.5172413793103,87.03703703703701 C752.0459770114943,83.08641975308639 766.735632183908,79.01234567901234 770,77.77777777777777 L770,350 L60,350 Z" fill="#6b63ff" fill-opacity="0.1" />
  <path d="M60,350 L60,348.14814814814815 C63.264367816091955,346.17283950617286 77.95402298850574,335.3086419753086 84.48275862068965,333.3333333333333 C91.01149425287356,333.3333333333333 102.43678160919539,333.3333333333333 108.9655172413793,333.3333333333333 C115.49425287356321,332.59259259259255 126.91954022988504,329.5061728395062 133.44827586206895,327.77777777777777 C139.97701149425285,326.04938271604937 151.40229885057468,321.85185185185185 157.9310344827586,320.3703703703704 C164.45977011494253,318.8888888888889 175.88505747126436,317.1604938271605 182.41379310344828,316.6666666666667 C188.9425287356322,316.6666666666667 200.36781609195404,316.6666666666667 206.89655172413794,316.6666666666667 C213.42528735632183,315.67901234567904 224.8505747126437,310.4938271604938 231.3793103448276,309.25925925925924 C237.90804597701148,308.02469135802465 249.33333333333334,309.25925925925924 255.86206896551724,307.4074074074074 C262.39080459770116,305.18518518518516 273.81609195402297,296.7901234567901 280.34482758620686,292.5925925925926 C286.87356321839076,288.3950617283951 298.2988505747127,279.6296296296296 304.82758620689657,275.9259259259259 C311.35632183908046,272.22222222222223 322.7816091954023,267.28395061728395 329.3103448275862,264.81481481481484 C335.8390804597701,262.3456790123457 347.264367816092,259.3827160493827 353.7931034482759,257.4074074074074 C360.32183908045977,255.43209876543207 371.7471264367816,252.46913580246914 378.2758620689655,250 C384.8045977011494,247.53086419753086 396.2298850574713,242.5925925925926 402.7586206896552,238.8888888888889 C409.28735632183907,235.18518518518522 420.71264367816093,225.1851851851852 427.2413793103448,222.22222222222223 C433.7701149425287,219.25925925925927 445.1954022988506,218.8888888888889 451.7241379310345,216.66666666666669 C458.2528735632184,214.44444444444446 469.67816091954023,208.76543209876544 476.2068965517241,205.55555555555557 C482.735632183908,202.3456790123457 494.1609195402299,196.04938271604937 500.6896551724138,192.59259259259258 C507.2183908045977,189.1358024691358 518.6436781609195,184.0740740740741 525.1724137931035,179.62962962962965 C531.7011494252874,175.1851851851852 543.1264367816092,164.44444444444443 549.6551724137931,159.25925925925924 C556.1839080459771,154.07407407407405 567.6091954022988,143.7037037037037 574.1379310344828,140.74074074074073 C580.6666666666667,137.77777777777777 592.0919540229885,138.02469135802465 598.6206896551724,137.037037037037 C605.1494252873564,136.04938271604937 616.5747126436781,134.5679012345679 623.1034482758621,133.33333333333334 C629.632183908046,132.0987654320988 641.0574712643678,129.01234567901236 647.5862068965517,127.7777777777778 C654.1149425287357,126.54320987654323 665.5402298850574,126.2962962962963 672.0689655172414,124.07407407407408 C678.5977011494253,121.85185185185185 690.0229885057471,113.33333333333334 696.551724137931,111.11111111111111 C703.080459770115,108.88888888888889 714.5057471264367,110.61728395061728 721.0344827586207,107.40740740740739 C727.5632183908046,104.1975308641975 738.9885057471264,90.98765432098763 745.5172413793103,87.03703703703701 C752.0459770114943,83.08641975308639 766.735632183908,79.01234567901234 770,77.77777777777777" fill="none" stroke="#6b63ff" stroke-width="2.5" class="data-line-0" />
  <g class="points">
    
    <circle cx="60" cy="348.14814814814815" r="4" fill="#6b63ff" class="data-point" style="animation-delay: 1.50s" />
    <circle cx="84.48275862068965" cy="333.3333333333333" r="4" fill="#6b63ff" class="data-point" style="animation-delay: 1.55s" />
    <circle cx="108.9655172413793" cy="333.3333333333333" r="4" fill="#6b63ff" class="data-point" style="animation-delay: 1.60s" />
    <circle cx="133.44827586206895" cy="327.77777777777777" r="4" fill="#6b63ff" class="data-point" style="animation-delay: 1.65s" />
    <circle cx="157.9310344827586" cy="320.3703703703704" r="4" fill="#6b63ff" class="data-point" style="animation-delay: 1.70s" />
    <circle cx="182.41379310344828" cy="316.6666666666667" r="4" fill="#6b63ff" class="data-point" style="animation-delay: 1.75s" />
    <circle cx="206.89655172413794" cy="316.6666666666667" r="4" fill="#6b63ff" class="data-point" style="animation-delay: 1.80s" />
    <circle cx="231.3793103448276" cy="309.25925925925924" r="4" fill="#6b63ff" class="data-point" style="animation-delay: 1.85s" />
    <circle cx="255.86206896551724" cy="307.4074074074074" r="4" fill="#6b63ff" class="data-point" style="animation-delay: 1.90s" />
    <circle cx="280.34482758620686" cy="292.5925925925926" r="4" fill="#6b63ff" class="data-point" style="animation-delay: 1.95s" />
    <circle cx="304.82758620689657" cy="275.9259259259259" r="4" fill="#6b63ff" class="data-point" style="animation-delay: 2.00s" />
    <circle cx="329.3103448275862" cy="264.81481481481484" r="4" fill="#6b63ff" class="data-point" style="animation-delay: 2.05s" />
    <circle cx="353.7931034482759" cy="257.4074074074074" r="4" fill="#6b63ff" class="data-point" style="animation-delay: 2.10s" />
    <circle cx="378.2758620689655" cy="250" r="4" fill="#6b63ff" class="data-point" style="animation-delay: 2.15s" />
    <circle cx="402.7586206896552" cy="238.8888888888889" r="4" fill="#6b63ff" class="data-point" style="animation-delay: 2.20s" />
    <circle cx="427.2413793103448" cy="222.22222222222223" r="4" fill="#6b63ff" class="data-point" style="animation-delay: 2.25s" />
    <circle cx="451.7241379310345" cy="216.66666666666669" r="4" fill="#6b63ff" class="data-point" style="animation-delay: 2.30s" />
    <circle cx="476.2068965517241" cy="205.55555555555557" r="4" fill="#6b63ff" class="data-point" style="animation-delay: 2.35s" />
    <circle cx="500.6896551724138" cy="192.59259259259258" r="4" fill="#6b63ff" class="data-point" style="animation-delay: 2.40s" />
    <circle cx="525.1724137931035" cy="179.62962962962965" r="4" fill="#6b63ff" class="data-point" style="animation-delay: 2.45s" />
    <circle cx="549.6551724137931" cy="159.25925925925924" r="4" fill="#6b63ff" class="data-point" style="animation-delay: 2.50s" />
    <circle cx="574.1379310344828" cy="140.74074074074073" r="4" fill="#6b63ff" class="data-point" style="animation-delay: 2.55s" />
    <circle cx="598.6206896551724" cy="137.037037037037" r="4" fill="#6b63ff" class="data-point" style="animation-delay: 2.60s" />
    <circle cx="623.1034482758621" cy="133.33333333333334" r="4" fill="#6b63ff" class="data-point" style="animation-delay: 2.65s" />
    <circle cx="647.5862068965517" cy="127.7777777777778" r="4" fill="#6b63ff" class="data-point" style="animation-delay: 2.70s" />
    <circle cx="672.0689655172414" cy="124.07407407407408" r="4" fill="#6b63ff" class="data-point" style="animation-delay: 2.75s" />
    <circle cx="696.551724137931" cy="111.11111111111111" r="4" fill="#6b63ff" class="data-point" style="animation-delay: 2.80s" />
    <circle cx="721.0344827586207" cy="107.40740740740739" r="4" fill="#6b63ff" class="data-point" style="animation-delay: 2.85s" />
    <circle cx="745.5172413793103" cy="87.03703703703701" r="4" fill="#6b63ff" class="data-point" style="animation-delay: 2.90s" />
    <circle cx="770" cy="77.77777777777777" r="4" fill="#6b63ff" class="data-point" style="animation-delay: 2.95s" />
  </g>
</svg>