<svg xmlns="http://www.w3.org/2000/svg" viewBox="0 0 800 400" width="800" height="400">
  <style>
    @keyframes drawLine {
      to { stroke-dashoffset: 0; }
    }
    @keyframes fadeInPoint {
      from { opacity: 0; }
      to { opacity: 1; }
    }
    .data-line-0 {
      stroke-dasharray: 1165;
      stroke-dashoffset: 1165;
      animation: drawLine 2s ease-out forwards;
    }
    .data-point {
      opacity: 0;
      animation: fadeInPoint 0.5s ease-out forwards;
    }
    .chart-bg { fill: #fff; }
    .chart-text { fill: #24292e; }
    .chart-muted { fill: #6a737d; }
    .chart-grid { stroke: #eee; }
    .chart-axis { stroke: #6a737d; }
    @media (prefers-color-scheme: dark) {
      .chart-bg { fill: #0d1117; }
      .chart-text { fill: #e6edf3; }
      .chart-muted { fill: #8b949e; }
      .chart-grid { stroke: #21262d; }
      .chart-axis { stroke: #8b949e; }
    }
  </style>
  <rect width="800" height="400" class="chart-bg" />
  <text x="400" y="14" text-anchor="middle" class="chart-text" font-size="16" font-weight="bold" font-family="-apple-system, BlinkMacSystemFont, 'Segoe UI', Helvetica, Arial, sans-serif">dockur/umbrel Star History</text>
  
  <g class="grid">
    <line x1="60" y1="350" x2="770" y2="350" class="chart-grid" stroke-opacity="0.3" />
    <text x="778" y="354" text-anchor="start" class="chart-muted" font-size="11" font-family="-apple-system, BlinkMacSystemFont, 'Segoe UI', Helvetica, Arial, sans-serif">0</text>
    <line x1="60" y1="280.8755760368664" x2="770" y2="280.8755760368664" class="chart-grid" stroke-opacity="0.3" />
    <text x="778" y="284.8755760368664" text-anchor="start" class="chart-muted" font-size="11" font-family="-apple-system, BlinkMacSystemFont, 'Segoe UI', Helvetica, Arial, sans-serif">100</text>
    <line x1="60" y1="211.75115207373273" x2="770" y2="211.75115207373273" class="chart-grid" stroke-opacity="0.3" />
    <text x="778" y="215.75115207373273" text-anchor="start" class="chart-muted" font-size="11" font-family="-apple-system, BlinkMacSystemFont, 'Segoe UI', Helvetica, Arial, sans-serif">200</text>
    <line x1="60" y1="142.6267281105991" x2="770" y2="142.6267281105991" class="chart-grid" stroke-opacity="0.3" />
    <text x="778" y="146.6267281105991" text-anchor="start" class="chart-muted" font-size="11" font-family="-apple-system, BlinkMacSystemFont, 'Segoe UI', Helvetica, Arial, sans-serif">300</text>
    <line x1="60" y1="73.50230414746545" x2="770" y2="73.50230414746545" class="chart-grid" stroke-opacity="0.3" />
    <text x="778" y="77.50230414746545" text-anchor="start" class="chart-muted" font-size="11" font-family="-apple-system, BlinkMacSystemFont, 'Segoe UI', Helvetica, Arial, sans-serif">400</text>
  </g>
  <g class="milestones">
    
  </g>
  <g class="x-axis">
    <text x="60" y="370" text-anchor="middle" class="chart-muted" font-size="11" font-family="-apple-system, BlinkMacSystemFont, 'Segoe UI', Helvetica, Arial, sans-serif">2024</text>
    <text x="182.41379310344828" y="370" text-anchor="middle" class="chart-muted" font-size="11" font-family="-apple-system, BlinkMacSystemFont, 'Segoe UI', Helvetica, Arial, sans-serif">2025</text>
    <text x="574.1379310344828" y="370" text-anchor="middle" class="chart-muted" font-size="11" font-family="-apple-system, BlinkMacSystemFont, 'Segoe UI', Helvetica, Arial, sans-serif">2026</text>
  </g>
  <line x1="770" y1="50" x2="770" y2="350" class="chart-axis" stroke-width="1" />
  <line x1="60" y1="350" x2="770" y2="350" class="chart-axis" stroke-width="1" />
  <path d="M60,350 L60,349.3087557603687 C68.16091954022988,340.3225806451613 76.32183908045977,328.91705069124424 84.48275862068965,322.35023041474653 C92.64367816091954,315.7834101382488 100.80459770114942,317.28110599078343 108.9655172413793,309.9078341013825 C117.12643678160919,302.53456221198155 125.28735632183907,284.9078341013825 133.44827586206895,278.110599078341 C141.60919540229884,271.31336405529953 149.77011494252872,272.5806451612903 157.9310344827586,269.1244239631336 C166.0919540229885,265.6682027649769 174.2528735632184,261.9815668202765 182.41379310344828,257.37327188940094 C190.57471264367817,252.76497695852538 198.73563218390805,245.6221198156682 206.89655172413794,241.4746543778802 C215.05747126436782,237.32718894009219 223.2183908045977,235.48387096774192 231.3793103448276,232.4884792626728 C239.54022988505747,229.49308755760367 247.70114942528735,226.49769585253458 255.86206896551724,223.50230414746545 C264.0229885057471,220.50691244239633 272.183908045977,217.5115207373272 280.34482758620686,214.51612903225808 C288.50574712643675,211.52073732718895 296.6666666666667,207.60368663594468 304.82758620689657,205.52995391705068 C312.98850574712645,203.45622119815667 321.14942528735634,204.60829493087556 329.3103448275862,202.073732718894 C337.4712643678161,199.53917050691246 345.632183908046,193.5483870967742 353.7931034482759,190.3225806451613 C361.95402298850576,187.0967741935484 370.11494252873564,185.02304147465435 378.2758620689655,182.71889400921657 C386.4367816091954,180.4147465437788 394.5977011494253,179.03225806451616 402.7586206896552,176.49769585253458 C410.91954022988506,173.963133640553 419.08045977011494,170.5069124423963 427.2413793103448,167.51152073732717 C435.4022988505747,164.51612903225805 443.5632183908046,161.8663594470046 451.7241379310345,158.52534562211983 C459.88505747126436,155.18433179723505 468.04597701149424,150.9216589861751 476.2068965517241,147.46543778801842 C484.367816091954,144.00921658986175 492.5287356321839,140.43778801843317 500.6896551724138,137.78801843317973 C508.85057471264366,135.13824884792626 517.0114942528736,133.98617511520737 525.1724137931035,131.5668202764977 C533.3333333333334,129.14746543778804 541.4942528735633,125.69124423963136 549.6551724137931,123.27188940092168 C557.816091954023,120.852534562212 565.9770114942529,118.77880184331798 574.1379310344828,117.05069124423963 C582.2988505747127,115.32258064516128 590.4597701149426,114.0552995391705 598.6206896551724,112.90322580645162 C606.7816091954023,111.75115207373273 614.9425287356322,111.40552995391705 623.1034482758621,110.13824884792626 C631.264367816092,108.87096774193547 639.4252873563219,107.37327188940091 647.5862068965517,105.2995391705069 C655.7471264367816,103.2258064516129 663.9080459770115,99.16220300246059 672.0689655172414,97.69585253456222 C680.2298850574713,96.22950206666385 688.3908045977012,97.08847028356658 696.551724137931,95.62211981566821 C704.7126436781609,94.15576934776985 712.8735632183908,89.86175115207374 721.0344827586207,88.0184331797235 C729.1954022988506,86.17511520737327 737.3563218390805,86.29032258064514 745.5172413793103,84.5622119815668 C753.6781609195402,82.83410138248847 761.8390804597701,79.95391705069125 770,77.64976958525347 L770,350 L60,350 Z" fill="#6b63ff" fill-opacity="0.1" />
  <path d="M60,350 L60,349.3087557603687 C68.16091954022988,340.3225806451613 76.32183908045977,328.91705069124424 84.48275862068965,322.35023041474653 C92.64367816091954,315.7834101382488 100.80459770114942,317.28110599078343 108.9655172413793,309.9078341013825 C117.12643678160919,302.53456221198155 125.28735632183907,284.9078341013825 133.44827586206895,278.110599078341 C141.60919540229884,271.31336405529953 149.77011494252872,272.5806451612903 157.9310344827586,269.1244239631336 C166.0919540229885,265.6682027649769 174.2528735632184,261.9815668202765 182.41379310344828,257.37327188940094 C190.57471264367817,252.76497695852538 198.73563218390805,245.6221198156682 206.89655172413794,241.4746543778802 C215.05747126436782,237.32718894009219 223.2183908045977,235.48387096774192 231.3793103448276,232.4884792626728 C239.54022988505747,229.49308755760367 247.70114942528735,226.49769585253458 255.86206896551724,223.50230414746545 C264.0229885057471,220.50691244239633 272.183908045977,217.5115207373272 280.34482758620686,214.51612903225808 C288.50574712643675,211.52073732718895 296.6666666666667,207.60368663594468 304.82758620689657,205.52995391705068 C312.98850574712645,203.45622119815667 321.14942528735634,204.60829493087556 329.3103448275862,202.073732718894 C337.4712643678161,199.53917050691246 345.632183908046,193.5483870967742 353.7931034482759,190.3225806451613 C361.95402298850576,187.0967741935484 370.11494252873564,185.02304147465435 378.2758620689655,182.71889400921657 C386.4367816091954,180.4147465437788 394.5977011494253,179.03225806451616 402.7586206896552,176.49769585253458 C410.91954022988506,173.963133640553 419.08045977011494,170.5069124423963 427.2413793103448,167.51152073732717 C435.4022988505747,164.51612903225805 443.5632183908046,161.8663594470046 451.7241379310345,158.52534562211983 C459.88505747126436,155.18433179723505 468.04597701149424,150.9216589861751 476.2068965517241,147.46543778801842 C484.367816091954,144.00921658986175 492.5287356321839,140.43778801843317 500.6896551724138,137.78801843317973 C508.85057471264366,135.13824884792626 517.0114942528736,133.98617511520737 525.1724137931035,131.5668202764977 C533.3333333333334,129.14746543778804 541.4942528735633,125.69124423963136 549.6551724137931,123.27188940092168 C557.816091954023,120.852534562212 565.9770114942529,118.77880184331798 574.1379310344828,117.05069124423963 C582.2988505747127,115.32258064516128 590.4597701149426,114.0552995391705 598.6206896551724,112.90322580645162 C606.7816091954023,111.75115207373273 614.9425287356322,111.40552995391705 623.1034482758621,110.13824884792626 C631.264367816092,108.87096774193547 639.4252873563219,107.37327188940091 647.5862068965517,105.2995391705069 C655.7471264367816,103.2258064516129 663.9080459770115,99.16220300246059 672.0689655172414,97.69585253456222 C680.2298850574713,96.22950206666385 688.3908045977012,97.08847028356658 696.551724137931,95.62211981566821 C704.7126436781609,94.15576934776985 712.8735632183908,89.86175115207374 721.0344827586207,88.0184331797235 C729.1954022988506,86.17511520737327 737.3563218390805,86.29032258064514 745.5172413793103,84.5622119815668 C753.6781609195402,82.83410138248847 761.8390804597701,79.95391705069125 770,77.64976958525347" fill="none" stroke="#6b63ff" stroke-width="2.5" class="data-line-0" />
  <g class="points">
    
    <circle cx="60" cy="349.3087557603687" r="4" fill="#6b63ff" class="data-point" style="animation-delay: 1.50s" />
    <circle cx="84.48275862068965" cy="322.35023041474653" r="4" fill="#6b63ff" class="data-point" style="animation-delay: 1.55s" />
    <circle cx="108.9655172413793" cy="309.9078341013825" r="4" fill="#6b63ff" class="data-point" style="animation-delay: 1.60s" />
    <circle cx="133.44827586206895" cy="278.110599078341" r="4" fill="#6b63ff" class="data-point" style="animation-delay: 1.65s" />
    <circle cx="157.9310344827586" cy="269.1244239631336" r="4" fill="#6b63ff" class="data-point" style="animation-delay: 1.70s" />
    <circle cx="182.41379310344828" cy="257.37327188940094" r="4" fill="#6b63ff" class="data-point" style="animation-delay: 1.75s" />
    <circle cx="206.89655172413794" cy="241.4746543778802" r="4" fill="#6b63ff" class="data-point" style="animation-delay: 1.80s" />
    <circle cx="231.3793103448276" cy="232.4884792626728" r="4" fill="#6b63ff" class="data-point" style="animation-delay: 1.85s" />
    <circle cx="255.86206896551724" cy="223.50230414746545" r="4" fill="#6b63ff" class="data-point" style="animation-delay: 1.90s" />
    <circle cx="280.34482758620686" cy="214.51612903225808" r="4" fill="#6b63ff" class="data-point" style="animation-delay: 1.95s" />
    <circle cx="304.82758620689657" cy="205.52995391705068" r="4" fill="#6b63ff" class="data-point" style="animation-delay: 2.00s" />
    <circle cx="329.3103448275862" cy="202.073732718894" r="4" fill="#6b63ff" class="data-point" style="animation-delay: 2.05s" />
    <circle cx="353.7931034482759" cy="190.3225806451613" r="4" fill="#6b63ff" class="data-point" style="animation-delay: 2.10s" />
    <circle cx="378.2758620689655" cy="182.71889400921657" r="4" fill="#6b63ff" class="data-point" style="animation-delay: 2.15s" />
    <circle cx="402.7586206896552" cy="176.49769585253458" r="4" fill="#6b63ff" class="data-point" style="animation-delay: 2.20s" />
    <circle cx="427.2413793103448" cy="167.51152073732717" r="4" fill="#6b63ff" class="data-point" style="animation-delay: 2.25s" />
    <circle cx="451.7241379310345" cy="158.52534562211983" r="4" fill="#6b63ff" class="data-point" style="animation-delay: 2.30s" />
    <circle cx="476.2068965517241" cy="147.46543778801842" r="4" fill="#6b63ff" class="data-point" style="animation-delay: 2.35s" />
    <circle cx="500.6896551724138" cy="137.78801843317973" r="4" fill="#6b63ff" class="data-point" style="animation-delay: 2.40s" />
    <circle cx="525.1724137931035" cy="131.5668202764977" r="4" fill="#6b63ff" class="data-point" style="animation-delay: 2.45s" />
    <circle cx="549.6551724137931" cy="123.27188940092168" r="4" fill="#6b63ff" class="data-point" style="animation-delay: 2.50s" />
    <circle cx="574.1379310344828" cy="117.05069124423963" r="4" fill="#6b63ff" class="data-point" style="animation-delay: 2.55s" />
    <circle cx="598.6206896551724" cy="112.90322580645162" r="4" fill="#6b63ff" class="data-point" style="animation-delay: 2.60s" />
    <circle cx="623.1034482758621" cy="110.13824884792626" r="4" fill="#6b63ff" class="data-point" style="animation-delay: 2.65s" />
    <circle cx="647.5862068965517" cy="105.2995391705069" r="4" fill="#6b63ff" class="data-point" style="animation-delay: 2.70s" />
    <circle cx="672.0689655172414" cy="97.69585253456222" r="4" fill="#6b63ff" class="data-point" style="animation-delay: 2.75s" />
    <circle cx="696.551724137931" cy="95.62211981566821" r="4" fill="#6b63ff" class="data-point" style="animation-delay: 2.80s" />
    <circle cx="721.0344827586207" cy="88.0184331797235" r="4" fill="#6b63ff" class="data-point" style="animation-delay: 2.85s" />
    <circle cx="745.5172413793103" cy="84.5622119815668" r="4" fill="#6b63ff" class="data-point" style="animation-delay: 2.90s" />
    <circle cx="770" cy="77.64976958525347" r="4" fill="#6b63ff" class="data-point" style="animation-delay: 2.95s" />
  </g>
</svg>