<svg xmlns="http://www.w3.org/2000/svg" viewBox="0 0 800 400" width="800" height="400">
  <style>
    @keyframes drawLine {
      to { stroke-dashoffset: 0; }
    }
    @keyframes fadeInPoint {
      from { opacity: 0; }
      to { opacity: 1; }
    }
    .data-line-0 {
      stroke-dasharray: 1212;
      stroke-dashoffset: 1212;
      animation: drawLine 2s ease-out forwards;
    }
    .data-point {
      opacity: 0;
      animation: fadeInPoint 0.5s ease-out forwards;
    }
    .chart-bg { fill: #fff; }
    .chart-text { fill: #24292e; }
    .chart-muted { fill: #6a737d; }
    .chart-grid { stroke: #eee; }
    .chart-axis { stroke: #6a737d; }
    @media (prefers-color-scheme: dark) {
      .chart-bg { fill: #0d1117; }
      .chart-text { fill: #e6edf3; }
      .chart-muted { fill: #8b949e; }
      .chart-grid { stroke: #21262d; }
      .chart-axis { stroke: #8b949e; }
    }
  </style>
  <rect width="800" height="400" class="chart-bg" />
  <text x="400" y="34" text-anchor="middle" class="chart-text" font-size="16" font-weight="bold" font-family="-apple-system, BlinkMacSystemFont, 'Segoe UI', Helvetica, Arial, sans-serif">dockur/lemmy Star History</text>
  
  <g class="grid">
    <line x1="60" y1="350" x2="770" y2="350" class="chart-grid" stroke-opacity="0.3" />
    <text x="778" y="354" text-anchor="start" class="chart-muted" font-size="11" font-family="-apple-system, BlinkMacSystemFont, 'Segoe UI', Helvetica, Arial, sans-serif">0</text>
    <line x1="60" y1="307.14285714285717" x2="770" y2="307.14285714285717" class="chart-grid" stroke-opacity="0.3" />
    <text x="778" y="311.14285714285717" text-anchor="start" class="chart-muted" font-size="11" font-family="-apple-system, BlinkMacSystemFont, 'Segoe UI', Helvetica, Arial, sans-serif">2</text>
    <line x1="60" y1="264.2857142857143" x2="770" y2="264.2857142857143" class="chart-grid" stroke-opacity="0.3" />
    <text x="778" y="268.2857142857143" text-anchor="start" class="chart-muted" font-size="11" font-family="-apple-system, BlinkMacSystemFont, 'Segoe UI', Helvetica, Arial, sans-serif">4</text>
    <line x1="60" y1="221.42857142857144" x2="770" y2="221.42857142857144" class="chart-grid" stroke-opacity="0.3" />
    <text x="778" y="225.42857142857144" text-anchor="start" class="chart-muted" font-size="11" font-family="-apple-system, BlinkMacSystemFont, 'Segoe UI', Helvetica, Arial, sans-serif">6</text>
    <line x1="60" y1="178.57142857142858" x2="770" y2="178.57142857142858" class="chart-grid" stroke-opacity="0.3" />
    <text x="778" y="182.57142857142858" text-anchor="start" class="chart-muted" font-size="11" font-family="-apple-system, BlinkMacSystemFont, 'Segoe UI', Helvetica, Arial, sans-serif">8</text>
    <line x1="60" y1="135.71428571428572" x2="770" y2="135.71428571428572" class="chart-grid" stroke-opacity="0.3" />
    <text x="778" y="139.71428571428572" text-anchor="start" class="chart-muted" font-size="11" font-family="-apple-system, BlinkMacSystemFont, 'Segoe UI', Helvetica, Arial, sans-serif">10</text>
    <line x1="60" y1="92.85714285714289" x2="770" y2="92.85714285714289" class="chart-grid" stroke-opacity="0.3" />
    <text x="778" y="96.85714285714289" text-anchor="start" class="chart-muted" font-size="11" font-family="-apple-system, BlinkMacSystemFont, 'Segoe UI', Helvetica, Arial, sans-serif">12</text>
    <line x1="60" y1="50" x2="770" y2="50" class="chart-grid" stroke-opacity="0.3" />
    <text x="778" y="54" text-anchor="start" class="chart-muted" font-size="11" font-family="-apple-system, BlinkMacSystemFont, 'Segoe UI', Helvetica, Arial, sans-serif">14</text>
  </g>
  <g class="milestones">
    
  </g>
  <g class="x-axis">
    <text x="60" y="370" text-anchor="middle" class="chart-muted" font-size="11" font-family="-apple-system, BlinkMacSystemFont, 'Segoe UI', Helvetica, Arial, sans-serif">2024</text>
    <text x="329.3103448275862" y="370" text-anchor="middle" class="chart-muted" font-size="11" font-family="-apple-system, BlinkMacSystemFont, 'Segoe UI', Helvetica, Arial, sans-serif">2025</text>
    <text x="623.1034482758621" y="370" text-anchor="middle" class="chart-muted" font-size="11" font-family="-apple-system, BlinkMacSystemFont, 'Segoe UI', Helvetica, Arial, sans-serif">2026</text>
  </g>
  <line x1="770" y1="50" x2="770" y2="350" class="chart-axis" stroke-width="1" />
  <line x1="60" y1="350" x2="770" y2="350" class="chart-axis" stroke-width="1" />
  <path d="M60,328.57142857142856 L84.48275862068965,307.14285714285717 L108.9655172413793,307.14285714285717 L133.44827586206895,307.14285714285717 L157.9310344827586,285.7142857142857 L182.41379310344828,285.7142857142857 L206.89655172413794,285.7142857142857 L231.3793103448276,285.7142857142857 L255.86206896551724,285.7142857142857 L280.34482758620686,242.85714285714286 L304.82758620689657,221.42857142857144 L329.3103448275862,221.42857142857144 L353.7931034482759,200 L378.2758620689655,178.57142857142858 L402.7586206896552,178.57142857142858 L427.2413793103448,178.57142857142858 L451.7241379310345,178.57142857142858 L476.2068965517241,178.57142857142858 L500.6896551724138,178.57142857142858 L525.1724137931035,157.14285714285714 L549.6551724137931,135.71428571428572 L574.1379310344828,135.71428571428572 L598.6206896551724,114.28571428571428 L623.1034482758621,114.28571428571428 L647.5862068965517,114.28571428571428 L672.0689655172414,114.28571428571428 L696.551724137931,114.28571428571428 L721.0344827586207,114.28571428571428 L745.5172413793103,114.28571428571428 L770,92.85714285714289 L770,350 L60,350 Z" fill="#6b63ff" fill-opacity="0.1" />
  <path d="M60,328.57142857142856 L84.48275862068965,307.14285714285717 L108.9655172413793,307.14285714285717 L133.44827586206895,307.14285714285717 L157.9310344827586,285.7142857142857 L182.41379310344828,285.7142857142857 L206.89655172413794,285.7142857142857 L231.3793103448276,285.7142857142857 L255.86206896551724,285.7142857142857 L280.34482758620686,242.85714285714286 L304.82758620689657,221.42857142857144 L329.3103448275862,221.42857142857144 L353.7931034482759,200 L378.2758620689655,178.57142857142858 L402.7586206896552,178.57142857142858 L427.2413793103448,178.57142857142858 L451.7241379310345,178.57142857142858 L476.2068965517241,178.57142857142858 L500.6896551724138,178.57142857142858 L525.1724137931035,157.14285714285714 L549.6551724137931,135.71428571428572 L574.1379310344828,135.71428571428572 L598.6206896551724,114.28571428571428 L623.1034482758621,114.28571428571428 L647.5862068965517,114.28571428571428 L672.0689655172414,114.28571428571428 L696.551724137931,114.28571428571428 L721.0344827586207,114.28571428571428 L745.5172413793103,114.28571428571428 L770,92.85714285714289" fill="none" stroke="#6b63ff" stroke-width="2" class="data-line-0" />
  <g class="points">
    
    <circle cx="60" cy="328.57142857142856" r="4" fill="#6b63ff" class="data-point" style="animation-delay: 1.50s" />
    <circle cx="84.48275862068965" cy="307.14285714285717" r="4" fill="#6b63ff" class="data-point" style="animation-delay: 1.55s" />
    <circle cx="108.9655172413793" cy="307.14285714285717" r="4" fill="#6b63ff" class="data-point" style="animation-delay: 1.60s" />
    <circle cx="133.44827586206895" cy="307.14285714285717" r="4" fill="#6b63ff" class="data-point" style="animation-delay: 1.65s" />
    <circle cx="157.9310344827586" cy="285.7142857142857" r="4" fill="#6b63ff" class="data-point" style="animation-delay: 1.70s" />
    <circle cx="182.41379310344828" cy="285.7142857142857" r="4" fill="#6b63ff" class="data-point" style="animation-delay: 1.75s" />
    <circle cx="206.89655172413794" cy="285.7142857142857" r="4" fill="#6b63ff" class="data-point" style="animation-delay: 1.80s" />
    <circle cx="231.3793103448276" cy="285.7142857142857" r="4" fill="#6b63ff" class="data-point" style="animation-delay: 1.85s" />
    <circle cx="255.86206896551724" cy="285.7142857142857" r="4" fill="#6b63ff" class="data-point" style="animation-delay: 1.90s" />
    <circle cx="280.34482758620686" cy="242.85714285714286" r="4" fill="#6b63ff" class="data-point" style="animation-delay: 1.95s" />
    <circle cx="304.82758620689657" cy="221.42857142857144" r="4" fill="#6b63ff" class="data-point" style="animation-delay: 2.00s" />
    <circle cx="329.3103448275862" cy="221.42857142857144" r="4" fill="#6b63ff" class="data-point" style="animation-delay: 2.05s" />
    <circle cx="353.7931034482759" cy="200" r="4" fill="#6b63ff" class="data-point" style="animation-delay: 2.10s" />
    <circle cx="378.2758620689655" cy="178.57142857142858" r="4" fill="#6b63ff" class="data-point" style="animation-delay: 2.15s" />
    <circle cx="402.7586206896552" cy="178.57142857142858" r="4" fill="#6b63ff" class="data-point" style="animation-delay: 2.20s" />
    <circle cx="427.2413793103448" cy="178.57142857142858" r="4" fill="#6b63ff" class="data-point" style="animation-delay: 2.25s" />
    <circle cx="451.7241379310345" cy="178.57142857142858" r="4" fill="#6b63ff" class="data-point" style="animation-delay: 2.30s" />
    <circle cx="476.2068965517241" cy="178.57142857142858" r="4" fill="#6b63ff" class="data-point" style="animation-delay: 2.35s" />
    <circle cx="500.6896551724138" cy="178.57142857142858" r="4" fill="#6b63ff" class="data-point" style="animation-delay: 2.40s" />
    <circle cx="525.1724137931035" cy="157.14285714285714" r="4" fill="#6b63ff" class="data-point" style="animation-delay: 2.45s" />
    <circle cx="549.6551724137931" cy="135.71428571428572" r="4" fill="#6b63ff" class="data-point" style="animation-delay: 2.50s" />
    <circle cx="574.1379310344828" cy="135.71428571428572" r="4" fill="#6b63ff" class="data-point" style="animation-delay: 2.55s" />
    <circle cx="598.6206896551724" cy="114.28571428571428" r="4" fill="#6b63ff" class="data-point" style="animation-delay: 2.60s" />
    <circle cx="623.1034482758621" cy="114.28571428571428" r="4" fill="#6b63ff" class="data-point" style="animation-delay: 2.65s" />
    <circle cx="647.5862068965517" cy="114.28571428571428" r="4" fill="#6b63ff" class="data-point" style="animation-delay: 2.70s" />
    <circle cx="672.0689655172414" cy="114.28571428571428" r="4" fill="#6b63ff" class="data-point" style="animation-delay: 2.75s" />
    <circle cx="696.551724137931" cy="114.28571428571428" r="4" fill="#6b63ff" class="data-point" style="animation-delay: 2.80s" />
    <circle cx="721.0344827586207" cy="114.28571428571428" r="4" fill="#6b63ff" class="data-point" style="animation-delay: 2.85s" />
    <circle cx="745.5172413793103" cy="114.28571428571428" r="4" fill="#6b63ff" class="data-point" style="animation-delay: 2.90s" />
    <circle cx="770" cy="92.85714285714289" r="4" fill="#6b63ff" class="data-point" style="animation-delay: 2.95s" />
  </g>
</svg>