<svg xmlns="http://www.w3.org/2000/svg" viewBox="0 0 800 400" width="800" height="400">
  <style>
    @keyframes drawLine {
      to { stroke-dashoffset: 0; }
    }
    @keyframes fadeInPoint {
      from { opacity: 0; }
      to { opacity: 1; }
    }
    .data-line-0 {
      stroke-dasharray: 1156;
      stroke-dashoffset: 1156;
      animation: drawLine 2s ease-out forwards;
    }
    .data-point {
      opacity: 0;
      animation: fadeInPoint 0.5s ease-out forwards;
    }
    .chart-bg { fill: #fff; }
    .chart-text { fill: #24292e; }
    .chart-muted { fill: #6a737d; }
    .chart-grid { stroke: #eee; }
    .chart-axis { stroke: #6a737d; }
    @media (prefers-color-scheme: dark) {
      .chart-bg { fill: #0d1117; }
      .chart-text { fill: #e6edf3; }
      .chart-muted { fill: #8b949e; }
      .chart-grid { stroke: #21262d; }
      .chart-axis { stroke: #8b949e; }
    }
  </style>
  <rect width="800" height="400" class="chart-bg" />
  <text x="400" y="14" text-anchor="middle" class="chart-text" font-size="16" font-weight="bold" font-family="-apple-system, BlinkMacSystemFont, 'Segoe UI', Helvetica, Arial, sans-serif">dockur/samba Star History</text>
  
  <g class="grid">
    <line x1="60" y1="350" x2="770" y2="350" class="chart-grid" stroke-opacity="0.3" />
    <text x="778" y="354" text-anchor="start" class="chart-muted" font-size="11" font-family="-apple-system, BlinkMacSystemFont, 'Segoe UI', Helvetica, Arial, sans-serif">0</text>
    <line x1="60" y1="277.18446601941747" x2="770" y2="277.18446601941747" class="chart-grid" stroke-opacity="0.3" />
    <text x="778" y="281.18446601941747" text-anchor="start" class="chart-muted" font-size="11" font-family="-apple-system, BlinkMacSystemFont, 'Segoe UI', Helvetica, Arial, sans-serif">200</text>
    <line x1="60" y1="204.36893203883494" x2="770" y2="204.36893203883494" class="chart-grid" stroke-opacity="0.3" />
    <text x="778" y="208.36893203883494" text-anchor="start" class="chart-muted" font-size="11" font-family="-apple-system, BlinkMacSystemFont, 'Segoe UI', Helvetica, Arial, sans-serif">400</text>
    <line x1="60" y1="131.5533980582524" x2="770" y2="131.5533980582524" class="chart-grid" stroke-opacity="0.3" />
    <text x="778" y="135.5533980582524" text-anchor="start" class="chart-muted" font-size="11" font-family="-apple-system, BlinkMacSystemFont, 'Segoe UI', Helvetica, Arial, sans-serif">600</text>
    <line x1="60" y1="58.73786407766988" x2="770" y2="58.73786407766988" class="chart-grid" stroke-opacity="0.3" />
    <text x="778" y="62.73786407766988" text-anchor="start" class="chart-muted" font-size="11" font-family="-apple-system, BlinkMacSystemFont, 'Segoe UI', Helvetica, Arial, sans-serif">800</text>
  </g>
  <g class="milestones">
    
  </g>
  <g class="x-axis">
    <text x="60" y="370" text-anchor="middle" class="chart-muted" font-size="11" font-family="-apple-system, BlinkMacSystemFont, 'Segoe UI', Helvetica, Arial, sans-serif">2024</text>
    <text x="329.3103448275862" y="370" text-anchor="middle" class="chart-muted" font-size="11" font-family="-apple-system, BlinkMacSystemFont, 'Segoe UI', Helvetica, Arial, sans-serif">2025</text>
    <text x="647.5862068965517" y="370" text-anchor="middle" class="chart-muted" font-size="11" font-family="-apple-system, BlinkMacSystemFont, 'Segoe UI', Helvetica, Arial, sans-serif">2026</text>
  </g>
  <line x1="770" y1="50" x2="770" y2="350" class="chart-axis" stroke-width="1" />
  <line x1="60" y1="350" x2="770" y2="350" class="chart-axis" stroke-width="1" />
  <path d="M60,350 L60,349.63592233009706 C68.16091954022988,347.81553398058253 76.32183908045977,345.93446601941747 84.48275862068965,344.1747572815534 C92.64367816091954,342.41504854368935 100.80459770114942,340.8373786407767 108.9655172413793,339.07766990291265 C117.12643678160919,337.3179611650486 125.28735632183907,335.31553398058253 133.44827586206895,333.61650485436894 C141.60919540229884,331.91747572815535 149.77011494252872,330.21844660194176 157.9310344827586,328.88349514563106 C166.0919540229885,327.54854368932035 174.2528735632184,326.5169902912621 182.41379310344828,325.6067961165048 C190.57471264367817,324.69660194174753 198.73563218390805,324.2718446601941 206.89655172413794,323.42233009708735 C215.05747126436782,322.5728155339806 223.2183908045977,322.0873786407767 231.3793103448276,320.50970873786406 C239.54022988505747,318.9320388349514 247.70114942528735,315.5080300224707 255.86206896551724,313.95631067961165 C264.0229885057471,312.4045913367526 272.183908045977,313.64347819541314 280.34482758620686,309.9514563106796 C288.50574712643675,306.25943442594604 296.6666666666667,294.1747572815534 304.82758620689657,288.8349514563107 C312.98850574712645,283.495145631068 321.14942528735634,281.61407766990294 329.3103448275862,277.9126213592233 C337.4712643678161,274.21116504854365 345.632183908046,270.50970873786406 353.7931034482759,266.626213592233 C361.95402298850576,262.74271844660194 370.11494252873564,258.00970873786406 378.2758620689655,254.61165048543688 C386.4367816091954,251.2135922330097 394.5977011494253,249.99999999999997 402.7586206896552,246.23786407766988 C410.91954022988506,242.4757281553398 419.08045977011494,236.1650485436893 427.2413793103448,232.0388349514563 C435.4022988505747,227.9126213592233 443.5632183908046,224.81796116504856 451.7241379310345,221.48058252427185 C459.88505747126436,218.14320388349515 468.04597701149424,215.35194174757282 476.2068965517241,212.01456310679612 C484.367816091954,208.6771844660194 492.5287356321839,205.15776699029126 500.6896551724138,201.45631067961165 C508.85057471264366,197.75485436893203 517.0114942528736,194.23543689320388 525.1724137931035,189.80582524271844 C533.3333333333334,185.376213592233 541.4942528735633,179.30825242718447 549.6551724137931,174.87864077669903 C557.816091954023,170.4490291262136 565.9770114942529,167.29368932038835 574.1379310344828,163.22815533980582 C582.2988505747127,159.1626213592233 590.4597701149426,154.24757281553397 598.6206896551724,150.48543689320388 C606.7816091954023,146.7233009708738 614.9425287356322,144.1747572815534 623.1034482758621,140.65533980582526 C631.264367816092,137.13592233009712 639.4252873563219,134.34466019417476 647.5862068965517,129.36893203883494 C655.7471264367816,124.39320388349513 663.9080459770115,115.4733009708738 672.0689655172414,110.80097087378641 C680.2298850574713,106.12864077669903 688.3908045977012,104.36893203883496 696.551724137931,101.33495145631068 C704.7126436781609,98.3009708737864 712.8735632183908,95.87378640776697 721.0344827586207,92.59708737864077 C729.1954022988506,89.32038834951456 737.3563218390805,84.2233009708738 745.5172413793103,81.67475728155341 C753.6781609195402,79.12621359223303 761.8390804597701,78.76213592233012 770,77.30582524271847 L770,350 L60,350 Z" fill="#6b63ff" fill-opacity="0.1" />
  <path d="M60,350 L60,349.63592233009706 C68.16091954022988,347.81553398058253 76.32183908045977,345.93446601941747 84.48275862068965,344.1747572815534 C92.64367816091954,342.41504854368935 100.80459770114942,340.8373786407767 108.9655172413793,339.07766990291265 C117.12643678160919,337.3179611650486 125.28735632183907,335.31553398058253 133.44827586206895,333.61650485436894 C141.60919540229884,331.91747572815535 149.77011494252872,330.21844660194176 157.9310344827586,328.88349514563106 C166.0919540229885,327.54854368932035 174.2528735632184,326.5169902912621 182.41379310344828,325.6067961165048 C190.57471264367817,324.69660194174753 198.73563218390805,324.2718446601941 206.89655172413794,323.42233009708735 C215.05747126436782,322.5728155339806 223.2183908045977,322.0873786407767 231.3793103448276,320.50970873786406 C239.54022988505747,318.9320388349514 247.70114942528735,315.5080300224707 255.86206896551724,313.95631067961165 C264.0229885057471,312.4045913367526 272.183908045977,313.64347819541314 280.34482758620686,309.9514563106796 C288.50574712643675,306.25943442594604 296.6666666666667,294.1747572815534 304.82758620689657,288.8349514563107 C312.98850574712645,283.495145631068 321.14942528735634,281.61407766990294 329.3103448275862,277.9126213592233 C337.4712643678161,274.21116504854365 345.632183908046,270.50970873786406 353.7931034482759,266.626213592233 C361.95402298850576,262.74271844660194 370.11494252873564,258.00970873786406 378.2758620689655,254.61165048543688 C386.4367816091954,251.2135922330097 394.5977011494253,249.99999999999997 402.7586206896552,246.23786407766988 C410.91954022988506,242.4757281553398 419.08045977011494,236.1650485436893 427.2413793103448,232.0388349514563 C435.4022988505747,227.9126213592233 443.5632183908046,224.81796116504856 451.7241379310345,221.48058252427185 C459.88505747126436,218.14320388349515 468.04597701149424,215.35194174757282 476.2068965517241,212.01456310679612 C484.367816091954,208.6771844660194 492.5287356321839,205.15776699029126 500.6896551724138,201.45631067961165 C508.85057471264366,197.75485436893203 517.0114942528736,194.23543689320388 525.1724137931035,189.80582524271844 C533.3333333333334,185.376213592233 541.4942528735633,179.30825242718447 549.6551724137931,174.87864077669903 C557.816091954023,170.4490291262136 565.9770114942529,167.29368932038835 574.1379310344828,163.22815533980582 C582.2988505747127,159.1626213592233 590.4597701149426,154.24757281553397 598.6206896551724,150.48543689320388 C606.7816091954023,146.7233009708738 614.9425287356322,144.1747572815534 623.1034482758621,140.65533980582526 C631.264367816092,137.13592233009712 639.4252873563219,134.34466019417476 647.5862068965517,129.36893203883494 C655.7471264367816,124.39320388349513 663.9080459770115,115.4733009708738 672.0689655172414,110.80097087378641 C680.2298850574713,106.12864077669903 688.3908045977012,104.36893203883496 696.551724137931,101.33495145631068 C704.7126436781609,98.3009708737864 712.8735632183908,95.87378640776697 721.0344827586207,92.59708737864077 C729.1954022988506,89.32038834951456 737.3563218390805,84.2233009708738 745.5172413793103,81.67475728155341 C753.6781609195402,79.12621359223303 761.8390804597701,78.76213592233012 770,77.30582524271847" fill="none" stroke="#6b63ff" stroke-width="2.5" class="data-line-0" />
  <g class="points">
    
    <circle cx="60" cy="349.63592233009706" r="4" fill="#6b63ff" class="data-point" style="animation-delay: 1.50s" />
    <circle cx="84.48275862068965" cy="344.1747572815534" r="4" fill="#6b63ff" class="data-point" style="animation-delay: 1.55s" />
    <circle cx="108.9655172413793" cy="339.07766990291265" r="4" fill="#6b63ff" class="data-point" style="animation-delay: 1.60s" />
    <circle cx="133.44827586206895" cy="333.61650485436894" r="4" fill="#6b63ff" class="data-point" style="animation-delay: 1.65s" />
    <circle cx="157.9310344827586" cy="328.88349514563106" r="4" fill="#6b63ff" class="data-point" style="animation-delay: 1.70s" />
    <circle cx="182.41379310344828" cy="325.6067961165048" r="4" fill="#6b63ff" class="data-point" style="animation-delay: 1.75s" />
    <circle cx="206.89655172413794" cy="323.42233009708735" r="4" fill="#6b63ff" class="data-point" style="animation-delay: 1.80s" />
    <circle cx="231.3793103448276" cy="320.50970873786406" r="4" fill="#6b63ff" class="data-point" style="animation-delay: 1.85s" />
    <circle cx="255.86206896551724" cy="313.95631067961165" r="4" fill="#6b63ff" class="data-point" style="animation-delay: 1.90s" />
    <circle cx="280.34482758620686" cy="309.9514563106796" r="4" fill="#6b63ff" class="data-point" style="animation-delay: 1.95s" />
    <circle cx="304.82758620689657" cy="288.8349514563107" r="4" fill="#6b63ff" class="data-point" style="animation-delay: 2.00s" />
    <circle cx="329.3103448275862" cy="277.9126213592233" r="4" fill="#6b63ff" class="data-point" style="animation-delay: 2.05s" />
    <circle cx="353.7931034482759" cy="266.626213592233" r="4" fill="#6b63ff" class="data-point" style="animation-delay: 2.10s" />
    <circle cx="378.2758620689655" cy="254.61165048543688" r="4" fill="#6b63ff" class="data-point" style="animation-delay: 2.15s" />
    <circle cx="402.7586206896552" cy="246.23786407766988" r="4" fill="#6b63ff" class="data-point" style="animation-delay: 2.20s" />
    <circle cx="427.2413793103448" cy="232.0388349514563" r="4" fill="#6b63ff" class="data-point" style="animation-delay: 2.25s" />
    <circle cx="451.7241379310345" cy="221.48058252427185" r="4" fill="#6b63ff" class="data-point" style="animation-delay: 2.30s" />
    <circle cx="476.2068965517241" cy="212.01456310679612" r="4" fill="#6b63ff" class="data-point" style="animation-delay: 2.35s" />
    <circle cx="500.6896551724138" cy="201.45631067961165" r="4" fill="#6b63ff" class="data-point" style="animation-delay: 2.40s" />
    <circle cx="525.1724137931035" cy="189.80582524271844" r="4" fill="#6b63ff" class="data-point" style="animation-delay: 2.45s" />
    <circle cx="549.6551724137931" cy="174.87864077669903" r="4" fill="#6b63ff" class="data-point" style="animation-delay: 2.50s" />
    <circle cx="574.1379310344828" cy="163.22815533980582" r="4" fill="#6b63ff" class="data-point" style="animation-delay: 2.55s" />
    <circle cx="598.6206896551724" cy="150.48543689320388" r="4" fill="#6b63ff" class="data-point" style="animation-delay: 2.60s" />
    <circle cx="623.1034482758621" cy="140.65533980582526" r="4" fill="#6b63ff" class="data-point" style="animation-delay: 2.65s" />
    <circle cx="647.5862068965517" cy="129.36893203883494" r="4" fill="#6b63ff" class="data-point" style="animation-delay: 2.70s" />
    <circle cx="672.0689655172414" cy="110.80097087378641" r="4" fill="#6b63ff" class="data-point" style="animation-delay: 2.75s" />
    <circle cx="696.551724137931" cy="101.33495145631068" r="4" fill="#6b63ff" class="data-point" style="animation-delay: 2.80s" />
    <circle cx="721.0344827586207" cy="92.59708737864077" r="4" fill="#6b63ff" class="data-point" style="animation-delay: 2.85s" />
    <circle cx="745.5172413793103" cy="81.67475728155341" r="4" fill="#6b63ff" class="data-point" style="animation-delay: 2.90s" />
    <circle cx="770" cy="77.30582524271847" r="4" fill="#6b63ff" class="data-point" style="animation-delay: 2.95s" />
  </g>
</svg>