<svg xmlns="http://www.w3.org/2000/svg" viewBox="0 0 800 400" width="800" height="400">
  <style>
    @keyframes drawLine {
      to { stroke-dashoffset: 0; }
    }
    @keyframes fadeInPoint {
      from { opacity: 0; }
      to { opacity: 1; }
    }
    .data-line-0 {
      stroke-dasharray: 1179;
      stroke-dashoffset: 1179;
      animation: drawLine 2s ease-out forwards;
    }
    .data-point {
      opacity: 0;
      animation: fadeInPoint 0.5s ease-out forwards;
    }
    .chart-bg { fill: #fff; }
    .chart-text { fill: #24292e; }
    .chart-muted { fill: #6a737d; }
    .chart-grid { stroke: #eee; }
    .chart-axis { stroke: #6a737d; }
    @media (prefers-color-scheme: dark) {
      .chart-bg { fill: #0d1117; }
      .chart-text { fill: #e6edf3; }
      .chart-muted { fill: #8b949e; }
      .chart-grid { stroke: #21262d; }
      .chart-axis { stroke: #8b949e; }
    }
  </style>
  <rect width="800" height="400" class="chart-bg" />
  <text x="400" y="14" text-anchor="middle" class="chart-text" font-size="16" font-weight="bold" font-family="-apple-system, BlinkMacSystemFont, 'Segoe UI', Helvetica, Arial, sans-serif">dockur/windows-arm Star History</text>
  
  <g class="grid">
    <line x1="60" y1="350" x2="770" y2="350" class="chart-grid" stroke-opacity="0.3" />
    <text x="778" y="354" text-anchor="start" class="chart-muted" font-size="11" font-family="-apple-system, BlinkMacSystemFont, 'Segoe UI', Helvetica, Arial, sans-serif">0</text>
    <line x1="60" y1="290" x2="770" y2="290" class="chart-grid" stroke-opacity="0.3" />
    <text x="778" y="294" text-anchor="start" class="chart-muted" font-size="11" font-family="-apple-system, BlinkMacSystemFont, 'Segoe UI', Helvetica, Arial, sans-serif">500</text>
    <line x1="60" y1="230" x2="770" y2="230" class="chart-grid" stroke-opacity="0.3" />
    <text x="778" y="234" text-anchor="start" class="chart-muted" font-size="11" font-family="-apple-system, BlinkMacSystemFont, 'Segoe UI', Helvetica, Arial, sans-serif">1K</text>
    <line x1="60" y1="170" x2="770" y2="170" class="chart-grid" stroke-opacity="0.3" />
    <text x="778" y="174" text-anchor="start" class="chart-muted" font-size="11" font-family="-apple-system, BlinkMacSystemFont, 'Segoe UI', Helvetica, Arial, sans-serif">1.5K</text>
    <line x1="60" y1="110" x2="770" y2="110" class="chart-grid" stroke-opacity="0.3" />
    <text x="778" y="114" text-anchor="start" class="chart-muted" font-size="11" font-family="-apple-system, BlinkMacSystemFont, 'Segoe UI', Helvetica, Arial, sans-serif">2K</text>
    <line x1="60" y1="50" x2="770" y2="50" class="chart-grid" stroke-opacity="0.3" />
    <text x="778" y="54" text-anchor="start" class="chart-muted" font-size="11" font-family="-apple-system, BlinkMacSystemFont, 'Segoe UI', Helvetica, Arial, sans-serif">2.5K</text>
  </g>
  <g class="milestones">
    
  </g>
  <g class="x-axis">
    <text x="60" y="370" text-anchor="middle" class="chart-muted" font-size="11" font-family="-apple-system, BlinkMacSystemFont, 'Segoe UI', Helvetica, Arial, sans-serif">2024</text>
    <text x="329.3103448275862" y="370" text-anchor="middle" class="chart-muted" font-size="11" font-family="-apple-system, BlinkMacSystemFont, 'Segoe UI', Helvetica, Arial, sans-serif">2025</text>
    <text x="623.1034482758621" y="370" text-anchor="middle" class="chart-muted" font-size="11" font-family="-apple-system, BlinkMacSystemFont, 'Segoe UI', Helvetica, Arial, sans-serif">2026</text>
  </g>
  <line x1="770" y1="50" x2="770" y2="350" class="chart-axis" stroke-width="1" />
  <line x1="60" y1="350" x2="770" y2="350" class="chart-axis" stroke-width="1" />
  <path d="M60,350 L60,349.88 C68.16091954022988,344.68 76.32183908045977,341.38 84.48275862068965,334.28 C92.64367816091954,327.17999999999995 100.80459770114942,313.81999999999994 108.9655172413793,307.28 C117.12643678160919,300.74 125.28735632183907,298.94 133.44827586206895,295.04 C141.60919540229884,291.14000000000004 149.77011494252872,286.86 157.9310344827586,283.88 C166.0919540229885,280.9 174.2528735632184,279.08 182.41379310344828,277.15999999999997 C190.57471264367817,275.23999999999995 198.73563218390805,274.16 206.89655172413794,272.36 C215.05747126436782,270.56 223.2183908045977,268.52000000000004 231.3793103448276,266.36 C239.54022988505747,264.2 247.70114942528735,260.3636283772487 255.86206896551724,259.4 C264.0229885057471,258.43637162275127 272.183908045977,259.29971837022333 280.34482758620686,254.72 C288.50574712643675,250.14028162977667 296.6666666666667,212.52063902297405 304.82758620689657,204.08 C312.98850574712645,195.63936097702597 321.14942528735634,197.28532189166233 329.3103448275862,195.44 C337.4712643678161,193.59467810833766 345.632183908046,193.28 353.7931034482759,191.12 C361.95402298850576,188.96 370.11494252873564,184.76 378.2758620689655,182.48 C386.4367816091954,180.2 394.5977011494253,179.32 402.7586206896552,177.44 C410.91954022988506,175.56 419.08045977011494,173.18 427.2413793103448,171.20000000000002 C435.4022988505747,169.22000000000003 443.5632183908046,167.08 451.7241379310345,165.56 C459.88505747126436,164.04 468.04597701149424,163.34 476.2068965517241,162.08 C484.367816091954,160.82000000000002 492.5287356321839,161.04 500.6896551724138,158 C508.85057471264366,154.96 517.0114942528736,148.92000000000002 525.1724137931035,143.84 C533.3333333333334,138.76000000000002 541.4942528735633,131.64 549.6551724137931,127.51999999999998 C557.816091954023,123.39999999999998 565.9770114942529,121.42 574.1379310344828,119.12 C582.2988505747127,116.82000000000001 590.4597701149426,115.38 598.6206896551724,113.72 C606.7816091954023,112.06 614.9425287356322,110.58000000000003 623.1034482758621,109.16000000000003 C631.264367816092,107.74000000000002 639.4252873563219,106.42000000000003 647.5862068965517,105.20000000000002 C655.7471264367816,103.98 663.9080459770115,102.97999999999998 672.0689655172414,101.83999999999997 C680.2298850574713,100.69999999999997 688.3908045977012,99.32000000000001 696.551724137931,98.36000000000001 C704.7126436781609,97.40000000000002 712.8735632183908,97.19999999999999 721.0344827586207,96.07999999999998 C729.1954022988506,94.95999999999998 737.3563218390805,93.03999999999998 745.5172413793103,91.63999999999999 C753.6781609195402,90.24 761.8390804597701,89 770,87.68 L770,350 L60,350 Z" fill="#6b63ff" fill-opacity="0.1" />
  <path d="M60,350 L60,349.88 C68.16091954022988,344.68 76.32183908045977,341.38 84.48275862068965,334.28 C92.64367816091954,327.17999999999995 100.80459770114942,313.81999999999994 108.9655172413793,307.28 C117.12643678160919,300.74 125.28735632183907,298.94 133.44827586206895,295.04 C141.60919540229884,291.14000000000004 149.77011494252872,286.86 157.9310344827586,283.88 C166.0919540229885,280.9 174.2528735632184,279.08 182.41379310344828,277.15999999999997 C190.57471264367817,275.23999999999995 198.73563218390805,274.16 206.89655172413794,272.36 C215.05747126436782,270.56 223.2183908045977,268.52000000000004 231.3793103448276,266.36 C239.54022988505747,264.2 247.70114942528735,260.3636283772487 255.86206896551724,259.4 C264.0229885057471,258.43637162275127 272.183908045977,259.29971837022333 280.34482758620686,254.72 C288.50574712643675,250.14028162977667 296.6666666666667,212.52063902297405 304.82758620689657,204.08 C312.98850574712645,195.63936097702597 321.14942528735634,197.28532189166233 329.3103448275862,195.44 C337.4712643678161,193.59467810833766 345.632183908046,193.28 353.7931034482759,191.12 C361.95402298850576,188.96 370.11494252873564,184.76 378.2758620689655,182.48 C386.4367816091954,180.2 394.5977011494253,179.32 402.7586206896552,177.44 C410.91954022988506,175.56 419.08045977011494,173.18 427.2413793103448,171.20000000000002 C435.4022988505747,169.22000000000003 443.5632183908046,167.08 451.7241379310345,165.56 C459.88505747126436,164.04 468.04597701149424,163.34 476.2068965517241,162.08 C484.367816091954,160.82000000000002 492.5287356321839,161.04 500.6896551724138,158 C508.85057471264366,154.96 517.0114942528736,148.92000000000002 525.1724137931035,143.84 C533.3333333333334,138.76000000000002 541.4942528735633,131.64 549.6551724137931,127.51999999999998 C557.816091954023,123.39999999999998 565.9770114942529,121.42 574.1379310344828,119.12 C582.2988505747127,116.82000000000001 590.4597701149426,115.38 598.6206896551724,113.72 C606.7816091954023,112.06 614.9425287356322,110.58000000000003 623.1034482758621,109.16000000000003 C631.264367816092,107.74000000000002 639.4252873563219,106.42000000000003 647.5862068965517,105.20000000000002 C655.7471264367816,103.98 663.9080459770115,102.97999999999998 672.0689655172414,101.83999999999997 C680.2298850574713,100.69999999999997 688.3908045977012,99.32000000000001 696.551724137931,98.36000000000001 C704.7126436781609,97.40000000000002 712.8735632183908,97.19999999999999 721.0344827586207,96.07999999999998 C729.1954022988506,94.95999999999998 737.3563218390805,93.03999999999998 745.5172413793103,91.63999999999999 C753.6781609195402,90.24 761.8390804597701,89 770,87.68" fill="none" stroke="#6b63ff" stroke-width="2.5" class="data-line-0" />
  <g class="points">
    
    <circle cx="60" cy="349.88" r="4" fill="#6b63ff" class="data-point" style="animation-delay: 1.50s" />
    <circle cx="84.48275862068965" cy="334.28" r="4" fill="#6b63ff" class="data-point" style="animation-delay: 1.55s" />
    <circle cx="108.9655172413793" cy="307.28" r="4" fill="#6b63ff" class="data-point" style="animation-delay: 1.60s" />
    <circle cx="133.44827586206895" cy="295.04" r="4" fill="#6b63ff" class="data-point" style="animation-delay: 1.65s" />
    <circle cx="157.9310344827586" cy="283.88" r="4" fill="#6b63ff" class="data-point" style="animation-delay: 1.70s" />
    <circle cx="182.41379310344828" cy="277.15999999999997" r="4" fill="#6b63ff" class="data-point" style="animation-delay: 1.75s" />
    <circle cx="206.89655172413794" cy="272.36" r="4" fill="#6b63ff" class="data-point" style="animation-delay: 1.80s" />
    <circle cx="231.3793103448276" cy="266.36" r="4" fill="#6b63ff" class="data-point" style="animation-delay: 1.85s" />
    <circle cx="255.86206896551724" cy="259.4" r="4" fill="#6b63ff" class="data-point" style="animation-delay: 1.90s" />
    <circle cx="280.34482758620686" cy="254.72" r="4" fill="#6b63ff" class="data-point" style="animation-delay: 1.95s" />
    <circle cx="304.82758620689657" cy="204.08" r="4" fill="#6b63ff" class="data-point" style="animation-delay: 2.00s" />
    <circle cx="329.3103448275862" cy="195.44" r="4" fill="#6b63ff" class="data-point" style="animation-delay: 2.05s" />
    <circle cx="353.7931034482759" cy="191.12" r="4" fill="#6b63ff" class="data-point" style="animation-delay: 2.10s" />
    <circle cx="378.2758620689655" cy="182.48" r="4" fill="#6b63ff" class="data-point" style="animation-delay: 2.15s" />
    <circle cx="402.7586206896552" cy="177.44" r="4" fill="#6b63ff" class="data-point" style="animation-delay: 2.20s" />
    <circle cx="427.2413793103448" cy="171.20000000000002" r="4" fill="#6b63ff" class="data-point" style="animation-delay: 2.25s" />
    <circle cx="451.7241379310345" cy="165.56" r="4" fill="#6b63ff" class="data-point" style="animation-delay: 2.30s" />
    <circle cx="476.2068965517241" cy="162.08" r="4" fill="#6b63ff" class="data-point" style="animation-delay: 2.35s" />
    <circle cx="500.6896551724138" cy="158" r="4" fill="#6b63ff" class="data-point" style="animation-delay: 2.40s" />
    <circle cx="525.1724137931035" cy="143.84" r="4" fill="#6b63ff" class="data-point" style="animation-delay: 2.45s" />
    <circle cx="549.6551724137931" cy="127.51999999999998" r="4" fill="#6b63ff" class="data-point" style="animation-delay: 2.50s" />
    <circle cx="574.1379310344828" cy="119.12" r="4" fill="#6b63ff" class="data-point" style="animation-delay: 2.55s" />
    <circle cx="598.6206896551724" cy="113.72" r="4" fill="#6b63ff" class="data-point" style="animation-delay: 2.60s" />
    <circle cx="623.1034482758621" cy="109.16000000000003" r="4" fill="#6b63ff" class="data-point" style="animation-delay: 2.65s" />
    <circle cx="647.5862068965517" cy="105.20000000000002" r="4" fill="#6b63ff" class="data-point" style="animation-delay: 2.70s" />
    <circle cx="672.0689655172414" cy="101.83999999999997" r="4" fill="#6b63ff" class="data-point" style="animation-delay: 2.75s" />
    <circle cx="696.551724137931" cy="98.36000000000001" r="4" fill="#6b63ff" class="data-point" style="animation-delay: 2.80s" />
    <circle cx="721.0344827586207" cy="96.07999999999998" r="4" fill="#6b63ff" class="data-point" style="animation-delay: 2.85s" />
    <circle cx="745.5172413793103" cy="91.63999999999999" r="4" fill="#6b63ff" class="data-point" style="animation-delay: 2.90s" />
    <circle cx="770" cy="87.68" r="4" fill="#6b63ff" class="data-point" style="animation-delay: 2.95s" />
  </g>
</svg>