<svg xmlns="http://www.w3.org/2000/svg" viewBox="0 0 800 400" width="800" height="400">
  <style>
    @keyframes drawLine {
      to { stroke-dashoffset: 0; }
    }
    @keyframes fadeInPoint {
      from { opacity: 0; }
      to { opacity: 1; }
    }
    .data-line-0 {
      stroke-dasharray: 1060;
      stroke-dashoffset: 1060;
      animation: drawLine 2s ease-out forwards;
    }
    .data-point {
      opacity: 0;
      animation: fadeInPoint 0.5s ease-out forwards;
    }
    .chart-bg { fill: #fff; }
    .chart-text { fill: #24292e; }
    .chart-muted { fill: #6a737d; }
    .chart-grid { stroke: #eee; }
    .chart-axis { stroke: #6a737d; }
    @media (prefers-color-scheme: dark) {
      .chart-bg { fill: #0d1117; }
      .chart-text { fill: #e6edf3; }
      .chart-muted { fill: #8b949e; }
      .chart-grid { stroke: #21262d; }
      .chart-axis { stroke: #8b949e; }
    }
  </style>
  <rect width="800" height="400" class="chart-bg" />
  <text x="400" y="14" text-anchor="middle" class="chart-text" font-size="16" font-weight="bold" font-family="-apple-system, BlinkMacSystemFont, 'Segoe UI', Helvetica, Arial, sans-serif">Growth Forecast</text>
  <g class="legend">
    <rect x="220" y="31" width="12" height="3" fill="#6b63ff" />
    <line x1="220" y1="32.5" x2="232" y2="32.5" stroke="#6b63ff" stroke-width="2" />
    <text x="236" y="36" class="chart-text" font-size="10" font-family="-apple-system, BlinkMacSystemFont, 'Segoe UI', Helvetica, Arial, sans-serif">Star History</text>
    <rect x="340" y="31" width="12" height="3" fill="#28a745" rx="1" />
    <line x1="340" y1="32.5" x2="352" y2="32.5" stroke="#28a745" stroke-width="2" stroke-dasharray="4,2" />
    <text x="356" y="36" class="chart-text" font-size="10" font-family="-apple-system, BlinkMacSystemFont, 'Segoe UI', Helvetica, Arial, sans-serif">Linear Regression</text>
    <rect x="460" y="31" width="12" height="3" fill="#d73a49" rx="1" />
    <line x1="460" y1="32.5" x2="472" y2="32.5" stroke="#d73a49" stroke-width="2" stroke-dasharray="4,2" />
    <text x="476" y="36" class="chart-text" font-size="10" font-family="-apple-system, BlinkMacSystemFont, 'Segoe UI', Helvetica, Arial, sans-serif">Weighted Moving Average</text>
  </g>
  <g class="grid">
    <line x1="60" y1="350" x2="770" y2="350" class="chart-grid" stroke-opacity="0.3" />
    <text x="778" y="354" text-anchor="start" class="chart-muted" font-size="11" font-family="-apple-system, BlinkMacSystemFont, 'Segoe UI', Helvetica, Arial, sans-serif">0</text>
    <line x1="60" y1="294.03193910674975" x2="770" y2="294.03193910674975" class="chart-grid" stroke-opacity="0.3" />
    <text x="778" y="298.03193910674975" text-anchor="start" class="chart-muted" font-size="11" font-family="-apple-system, BlinkMacSystemFont, 'Segoe UI', Helvetica, Arial, sans-serif">20K</text>
    <line x1="60" y1="238.0638782134995" x2="770" y2="238.0638782134995" class="chart-grid" stroke-opacity="0.3" />
    <text x="778" y="242.0638782134995" text-anchor="start" class="chart-muted" font-size="11" font-family="-apple-system, BlinkMacSystemFont, 'Segoe UI', Helvetica, Arial, sans-serif">40K</text>
    <line x1="60" y1="182.09581732024927" x2="770" y2="182.09581732024927" class="chart-grid" stroke-opacity="0.3" />
    <text x="778" y="186.09581732024927" text-anchor="start" class="chart-muted" font-size="11" font-family="-apple-system, BlinkMacSystemFont, 'Segoe UI', Helvetica, Arial, sans-serif">60K</text>
    <line x1="60" y1="126.12775642699899" x2="770" y2="126.12775642699899" class="chart-grid" stroke-opacity="0.3" />
    <text x="778" y="130.12775642699899" text-anchor="start" class="chart-muted" font-size="11" font-family="-apple-system, BlinkMacSystemFont, 'Segoe UI', Helvetica, Arial, sans-serif">80K</text>
    <line x1="60" y1="70.15969553374873" x2="770" y2="70.15969553374873" class="chart-grid" stroke-opacity="0.3" />
    <text x="778" y="74.15969553374873" text-anchor="start" class="chart-muted" font-size="11" font-family="-apple-system, BlinkMacSystemFont, 'Segoe UI', Helvetica, Arial, sans-serif">100K</text>
  </g>
  <g class="milestones">
    
  </g>
  <g class="x-axis">
    <text x="60" y="370" text-anchor="middle" class="chart-muted" font-size="11" font-family="-apple-system, BlinkMacSystemFont, 'Segoe UI', Helvetica, Arial, sans-serif">Apr 1</text>
    <text x="146.06060606060606" y="370" text-anchor="middle" class="chart-muted" font-size="11" font-family="-apple-system, BlinkMacSystemFont, 'Segoe UI', Helvetica, Arial, sans-serif">Sep 12</text>
    <text x="232.12121212121212" y="370" text-anchor="middle" class="chart-muted" font-size="11" font-family="-apple-system, BlinkMacSystemFont, 'Segoe UI', Helvetica, Arial, sans-serif">Feb 22</text>
    <text x="318.1818181818182" y="370" text-anchor="middle" class="chart-muted" font-size="11" font-family="-apple-system, BlinkMacSystemFont, 'Segoe UI', Helvetica, Arial, sans-serif">Aug 3</text>
    <text x="404.24242424242425" y="370" text-anchor="middle" class="chart-muted" font-size="11" font-family="-apple-system, BlinkMacSystemFont, 'Segoe UI', Helvetica, Arial, sans-serif">Jan 14</text>
    <text x="490.3030303030303" y="370" text-anchor="middle" class="chart-muted" font-size="11" font-family="-apple-system, BlinkMacSystemFont, 'Segoe UI', Helvetica, Arial, sans-serif">Jun 26</text>
    <text x="576.3636363636364" y="370" text-anchor="middle" class="chart-muted" font-size="11" font-family="-apple-system, BlinkMacSystemFont, 'Segoe UI', Helvetica, Arial, sans-serif">Dec 6</text>
    <text x="662.4242424242425" y="370" text-anchor="middle" class="chart-muted" font-size="11" font-family="-apple-system, BlinkMacSystemFont, 'Segoe UI', Helvetica, Arial, sans-serif">May 19</text>
    <text x="748.4848484848485" y="370" text-anchor="middle" class="chart-muted" font-size="11" font-family="-apple-system, BlinkMacSystemFont, 'Segoe UI', Helvetica, Arial, sans-serif">Week 3</text>
    <text x="770" y="370" text-anchor="middle" class="chart-muted" font-size="11" font-family="-apple-system, BlinkMacSystemFont, 'Segoe UI', Helvetica, Arial, sans-serif">Week 4</text>
  </g>
  <line x1="770" y1="50" x2="770" y2="350" class="chart-axis" stroke-width="1" />
  <line x1="60" y1="350" x2="770" y2="350" class="chart-axis" stroke-width="1" />
  <path d="M60,350 L60,349.99720159695534 C67.17171717171718,349.6194171859259 74.34343434343434,349.08250602180783 81.51515151515152,348.863848363867 C88.68686868686869,348.6451907059262 95.85858585858585,348.7689837266695 103.03030303030303,348.56441923808813 C110.20202020202021,348.3598547495068 117.37373737373737,347.7878623931943 124.54545454545455,347.5234133054737 C131.7171717171717,347.2589642177531 138.88888888888889,347.1363008842954 146.06060606060606,346.9777247117645 C153.23232323232324,346.8191485392336 160.4040404040404,346.6964852057759 167.57575757575756,346.5719562702884 C174.74747474747474,346.4474273348009 181.91919191919192,346.3112695780992 189.0909090909091,346.2305510988396 C196.26262626262627,346.14983261958 203.43434343434345,346.1238095217304 210.60606060606062,345.75482258124697 C217.7777777777778,345.38583564076356 224.94949494949495,345.7388512875895 232.12121212121212,341.48445953509196 C239.2929292929293,337.2300677825944 246.46464646464645,319.4605611730906 253.63636363636363,313.32133129360847 C260.8080808080808,307.18210141412635 267.979797979798,307.20448863848367 275.1515151515151,304.6490802581993 C282.3232323232323,302.09367187791497 289.4949494949495,299.86940785791575 296.66666666666663,297.98888101190255 C303.83838383838383,296.10835416588935 311.010101010101,293.8338213730334 318.1818181818182,293.3659191821201 C325.35353535353534,292.89801699120676 332.52525252525254,292.91153212969573 339.6969696969697,292.6915040483564 C346.8686868686869,292.4714759670171 354.04040404040404,292.6864840368806 361.21212121212125,287.8670571993582 C368.3838383838384,283.04763036183584 375.55555555555554,235.28254549188065 382.7272727272727,228.85993059960447 C389.8989898989899,222.43731570732825 397.07070707070704,223.75624267890132 404.24242424242425,222.26689302637962 C411.4141414141414,220.77754337385795 418.5858585858586,215.88933248759375 425.75757575757575,213.64781164881907 C432.9292929292929,211.4062908100444 440.1010101010101,210.178258273945 447.27272727272725,208.8177679937316 C454.44444444444446,207.45727771351818 461.6161616161616,206.80571620461924 468.7878787878788,205.48486996753854 C475.95959595959596,204.16402373045784 483.13131313131316,204.3440543263311 490.3030303030303,200.89269057124733 C497.47474747474746,197.44132681616355 504.64646464646466,189.9112906234842 511.8181818181818,184.77668743703595 C518.989898989899,179.6420842505877 526.1616161616162,173.92074922577515 533.3333333333333,170.08507145255774 C540.5050505050505,166.2493936793403 547.6767676767677,164.54936382970783 554.8484848484849,161.76262079773142 C562.0202020202021,158.975877765755 569.1919191919192,155.8150815268087 576.3636363636364,153.36461326069923 C583.5353535353536,150.91414499458975 590.7070707070707,149.39694414387523 597.8787878787879,147.05981120107458 C605.0505050505051,144.72267825827393 612.2222222222222,141.87623596134472 619.3939393939394,139.34181560389538 C626.5656565656566,136.80739524644602 633.7373737373738,134.3583261818589 640.909090909091,131.8532890563785 C648.0808080808082,129.3482519308981 655.2525252525253,126.85860602216336 662.4242424242425,124.31159285101302 C669.5959595959596,121.76457967986269 676.7676767676768,119.15133763665534 683.9393939393939,116.5712100294765 L683.9393939393939,350 L60,350 Z" fill="#6b63ff" fill-opacity="0.1" />
  
  
  <path d="M60,350 L60,349.99720159695534 C67.17171717171718,349.6194171859259 74.34343434343434,349.08250602180783 81.51515151515152,348.863848363867 C88.68686868686869,348.6451907059262 95.85858585858585,348.7689837266695 103.03030303030303,348.56441923808813 C110.20202020202021,348.3598547495068 117.37373737373737,347.7878623931943 124.54545454545455,347.5234133054737 C131.7171717171717,347.2589642177531 138.88888888888889,347.1363008842954 146.06060606060606,346.9777247117645 C153.23232323232324,346.8191485392336 160.4040404040404,346.6964852057759 167.57575757575756,346.5719562702884 C174.74747474747474,346.4474273348009 181.91919191919192,346.3112695780992 189.0909090909091,346.2305510988396 C196.26262626262627,346.14983261958 203.43434343434345,346.1238095217304 210.60606060606062,345.75482258124697 C217.7777777777778,345.38583564076356 224.94949494949495,345.7388512875895 232.12121212121212,341.48445953509196 C239.2929292929293,337.2300677825944 246.46464646464645,319.4605611730906 253.63636363636363,313.32133129360847 C260.8080808080808,307.18210141412635 267.979797979798,307.20448863848367 275.1515151515151,304.6490802581993 C282.3232323232323,302.09367187791497 289.4949494949495,299.86940785791575 296.66666666666663,297.98888101190255 C303.83838383838383,296.10835416588935 311.010101010101,293.8338213730334 318.1818181818182,293.3659191821201 C325.35353535353534,292.89801699120676 332.52525252525254,292.91153212969573 339.6969696969697,292.6915040483564 C346.8686868686869,292.4714759670171 354.04040404040404,292.6864840368806 361.21212121212125,287.8670571993582 C368.3838383838384,283.04763036183584 375.55555555555554,235.28254549188065 382.7272727272727,228.85993059960447 C389.8989898989899,222.43731570732825 397.07070707070704,223.75624267890132 404.24242424242425,222.26689302637962 C411.4141414141414,220.77754337385795 418.5858585858586,215.88933248759375 425.75757575757575,213.64781164881907 C432.9292929292929,211.4062908100444 440.1010101010101,210.178258273945 447.27272727272725,208.8177679937316 C454.44444444444446,207.45727771351818 461.6161616161616,206.80571620461924 468.7878787878788,205.48486996753854 C475.95959595959596,204.16402373045784 483.13131313131316,204.3440543263311 490.3030303030303,200.89269057124733 C497.47474747474746,197.44132681616355 504.64646464646466,189.9112906234842 511.8181818181818,184.77668743703595 C518.989898989899,179.6420842505877 526.1616161616162,173.92074922577515 533.3333333333333,170.08507145255774 C540.5050505050505,166.2493936793403 547.6767676767677,164.54936382970783 554.8484848484849,161.76262079773142 C562.0202020202021,158.975877765755 569.1919191919192,155.8150815268087 576.3636363636364,153.36461326069923 C583.5353535353536,150.91414499458975 590.7070707070707,149.39694414387523 597.8787878787879,147.05981120107458 C605.0505050505051,144.72267825827393 612.2222222222222,141.87623596134472 619.3939393939394,139.34181560389538 C626.5656565656566,136.80739524644602 633.7373737373738,134.3583261818589 640.909090909091,131.8532890563785 C648.0808080808082,129.3482519308981 655.2525252525253,126.85860602216336 662.4242424242425,124.31159285101302 C669.5959595959596,121.76457967986269 676.7676767676768,119.15133763665534 683.9393939393939,116.5712100294765" fill="none" stroke="#6b63ff" stroke-width="2.5" class="data-line-0" />
  <path d="M683.9393939393939,116.5712100294765 C691.1111111111111,112.84560277601581 698.2828282828282,108.81963359576135 705.4545454545454,105.39438826909443 C712.6262626262626,101.96914294242751 719.7979797979798,99.14462146934817 726.969696969697,96.01973806947501 C734.1414141414142,92.89485466960187 741.3131313131313,89.76950486922125 748.4848484848485,86.64508786985556 C755.6565656565657,83.52067087048987 762.8282828282828,80.39718667213907 770,77.27323607328083" fill="none" stroke="#28a745" stroke-width="2.5" stroke-dasharray="8,4" />
  <path d="M683.9393939393939,116.5712100294765 C691.1111111111111,113.48736987425842 698.2828282828282,110.40306331853287 705.4545454545454,107.31968956382224 C712.6262626262626,104.23631580911159 719.7979797979798,101.15434125592328 726.969696969697,98.07096750121264 C734.1414141414142,94.987593746502 741.3131313131313,91.90282079026902 748.4848484848485,88.81944703555837 C755.6565656565657,85.73607328084772 762.8282828282828,82.65363232715197 770,79.57072497294877" fill="none" stroke="#d73a49" stroke-width="2.5" stroke-dasharray="8,4" />
  <g class="points">
    
    <circle cx="60" cy="349.99720159695534" r="4" fill="#6b63ff" class="data-point" style="animation-delay: 1.50s" />
    <circle cx="81.51515151515152" cy="348.863848363867" r="4" fill="#6b63ff" class="data-point" style="animation-delay: 1.55s" />
    <circle cx="103.03030303030303" cy="348.56441923808813" r="4" fill="#6b63ff" class="data-point" style="animation-delay: 1.60s" />
    <circle cx="124.54545454545455" cy="347.5234133054737" r="4" fill="#6b63ff" class="data-point" style="animation-delay: 1.65s" />
    <circle cx="146.06060606060606" cy="346.9777247117645" r="4" fill="#6b63ff" class="data-point" style="animation-delay: 1.70s" />
    <circle cx="167.57575757575756" cy="346.5719562702884" r="4" fill="#6b63ff" class="data-point" style="animation-delay: 1.75s" />
    <circle cx="189.0909090909091" cy="346.2305510988396" r="4" fill="#6b63ff" class="data-point" style="animation-delay: 1.80s" />
    <circle cx="210.60606060606062" cy="345.75482258124697" r="4" fill="#6b63ff" class="data-point" style="animation-delay: 1.85s" />
    <circle cx="232.12121212121212" cy="341.48445953509196" r="4" fill="#6b63ff" class="data-point" style="animation-delay: 1.90s" />
    <circle cx="253.63636363636363" cy="313.32133129360847" r="4" fill="#6b63ff" class="data-point" style="animation-delay: 1.95s" />
    <circle cx="275.1515151515151" cy="304.6490802581993" r="4" fill="#6b63ff" class="data-point" style="animation-delay: 2.00s" />
    <circle cx="296.66666666666663" cy="297.98888101190255" r="4" fill="#6b63ff" class="data-point" style="animation-delay: 2.05s" />
    <circle cx="318.1818181818182" cy="293.3659191821201" r="4" fill="#6b63ff" class="data-point" style="animation-delay: 2.10s" />
    <circle cx="339.6969696969697" cy="292.6915040483564" r="4" fill="#6b63ff" class="data-point" style="animation-delay: 2.15s" />
    <circle cx="361.21212121212125" cy="287.8670571993582" r="4" fill="#6b63ff" class="data-point" style="animation-delay: 2.20s" />
    <circle cx="382.7272727272727" cy="228.85993059960447" r="4" fill="#6b63ff" class="data-point" style="animation-delay: 2.25s" />
    <circle cx="404.24242424242425" cy="222.26689302637962" r="4" fill="#6b63ff" class="data-point" style="animation-delay: 2.30s" />
    <circle cx="425.75757575757575" cy="213.64781164881907" r="4" fill="#6b63ff" class="data-point" style="animation-delay: 2.35s" />
    <circle cx="447.27272727272725" cy="208.8177679937316" r="4" fill="#6b63ff" class="data-point" style="animation-delay: 2.40s" />
    <circle cx="468.7878787878788" cy="205.48486996753854" r="4" fill="#6b63ff" class="data-point" style="animation-delay: 2.45s" />
    <circle cx="490.3030303030303" cy="200.89269057124733" r="4" fill="#6b63ff" class="data-point" style="animation-delay: 2.50s" />
    <circle cx="511.8181818181818" cy="184.77668743703595" r="4" fill="#6b63ff" class="data-point" style="animation-delay: 2.55s" />
    <circle cx="533.3333333333333" cy="170.08507145255774" r="4" fill="#6b63ff" class="data-point" style="animation-delay: 2.60s" />
    <circle cx="554.8484848484849" cy="161.76262079773142" r="4" fill="#6b63ff" class="data-point" style="animation-delay: 2.65s" />
    <circle cx="576.3636363636364" cy="153.36461326069923" r="4" fill="#6b63ff" class="data-point" style="animation-delay: 2.70s" />
    <circle cx="597.8787878787879" cy="147.05981120107458" r="4" fill="#6b63ff" class="data-point" style="animation-delay: 2.75s" />
    <circle cx="619.3939393939394" cy="139.34181560389538" r="4" fill="#6b63ff" class="data-point" style="animation-delay: 2.80s" />
    <circle cx="640.909090909091" cy="131.8532890563785" r="4" fill="#6b63ff" class="data-point" style="animation-delay: 2.85s" />
    <circle cx="662.4242424242425" cy="124.31159285101302" r="4" fill="#6b63ff" class="data-point" style="animation-delay: 2.90s" />
    <circle cx="683.9393939393939" cy="116.5712100294765" r="4" fill="#6b63ff" class="data-point" style="animation-delay: 2.95s" />
  </g>
</svg>