<svg xmlns="http://www.w3.org/2000/svg" viewBox="0 0 800 400" width="800" height="400">
  <style>
    @keyframes drawLine {
      to { stroke-dashoffset: 0; }
    }
    @keyframes fadeInPoint {
      from { opacity: 0; }
      to { opacity: 1; }
    }
    .data-line-0 {
      stroke-dasharray: 1143;
      stroke-dashoffset: 1143;
      animation: drawLine 2s ease-out forwards;
    }
    .data-point {
      opacity: 0;
      animation: fadeInPoint 0.5s ease-out forwards;
    }
    .chart-bg { fill: #fff; }
    .chart-text { fill: #24292e; }
    .chart-muted { fill: #6a737d; }
    .chart-grid { stroke: #eee; }
    .chart-axis { stroke: #6a737d; }
    @media (prefers-color-scheme: dark) {
      .chart-bg { fill: #0d1117; }
      .chart-text { fill: #e6edf3; }
      .chart-muted { fill: #8b949e; }
      .chart-grid { stroke: #21262d; }
      .chart-axis { stroke: #8b949e; }
    }
  </style>
  <rect width="800" height="400" class="chart-bg" />
  <text x="400" y="14" text-anchor="middle" class="chart-text" font-size="16" font-weight="bold" font-family="-apple-system, BlinkMacSystemFont, 'Segoe UI', Helvetica, Arial, sans-serif">Growth Forecast</text>
  <g class="legend">
    <rect x="220" y="25" width="12" height="3" fill="#6b63ff" />
    <line x1="220" y1="26.5" x2="232" y2="26.5" stroke="#6b63ff" stroke-width="2" />
    <text x="236" y="30" class="chart-text" font-size="10" font-family="-apple-system, BlinkMacSystemFont, 'Segoe UI', Helvetica, Arial, sans-serif">Star History</text>
    <rect x="340" y="25" width="12" height="3" fill="#28a745" rx="1" />
    <line x1="340" y1="26.5" x2="352" y2="26.5" stroke="#28a745" stroke-width="2" stroke-dasharray="4,2" />
    <text x="356" y="30" class="chart-text" font-size="10" font-family="-apple-system, BlinkMacSystemFont, 'Segoe UI', Helvetica, Arial, sans-serif">Linear Regression</text>
    <rect x="460" y="25" width="12" height="3" fill="#d73a49" rx="1" />
    <line x1="460" y1="26.5" x2="472" y2="26.5" stroke="#d73a49" stroke-width="2" stroke-dasharray="4,2" />
    <text x="476" y="30" class="chart-text" font-size="10" font-family="-apple-system, BlinkMacSystemFont, 'Segoe UI', Helvetica, Arial, sans-serif">Weighted Moving Average</text>
  </g>
  <g class="grid">
    <line x1="60" y1="350" x2="770" y2="350" class="chart-grid" stroke-opacity="0.3" />
    <text x="778" y="354" text-anchor="start" class="chart-muted" font-size="11" font-family="-apple-system, BlinkMacSystemFont, 'Segoe UI', Helvetica, Arial, sans-serif">0</text>
    <line x1="60" y1="296.46489881865875" x2="770" y2="296.46489881865875" class="chart-grid" stroke-opacity="0.3" />
    <text x="778" y="300.46489881865875" text-anchor="start" class="chart-muted" font-size="11" font-family="-apple-system, BlinkMacSystemFont, 'Segoe UI', Helvetica, Arial, sans-serif">20,000</text>
    <line x1="60" y1="242.92979763731753" x2="770" y2="242.92979763731753" class="chart-grid" stroke-opacity="0.3" />
    <text x="778" y="246.92979763731753" text-anchor="start" class="chart-muted" font-size="11" font-family="-apple-system, BlinkMacSystemFont, 'Segoe UI', Helvetica, Arial, sans-serif">40,000</text>
    <line x1="60" y1="189.3946964559763" x2="770" y2="189.3946964559763" class="chart-grid" stroke-opacity="0.3" />
    <text x="778" y="193.3946964559763" text-anchor="start" class="chart-muted" font-size="11" font-family="-apple-system, BlinkMacSystemFont, 'Segoe UI', Helvetica, Arial, sans-serif">60,000</text>
    <line x1="60" y1="135.85959527463507" x2="770" y2="135.85959527463507" class="chart-grid" stroke-opacity="0.3" />
    <text x="778" y="139.85959527463507" text-anchor="start" class="chart-muted" font-size="11" font-family="-apple-system, BlinkMacSystemFont, 'Segoe UI', Helvetica, Arial, sans-serif">80,000</text>
    <line x1="60" y1="82.32449409329382" x2="770" y2="82.32449409329382" class="chart-grid" stroke-opacity="0.3" />
    <text x="778" y="86.32449409329382" text-anchor="start" class="chart-muted" font-size="11" font-family="-apple-system, BlinkMacSystemFont, 'Segoe UI', Helvetica, Arial, sans-serif">100,000</text>
    <line x1="60" y1="28.789392911952575" x2="770" y2="28.789392911952575" class="chart-grid" stroke-opacity="0.3" />
    <text x="778" y="32.789392911952575" text-anchor="start" class="chart-muted" font-size="11" font-family="-apple-system, BlinkMacSystemFont, 'Segoe UI', Helvetica, Arial, sans-serif">120,000</text>
  </g>
  <g class="milestones">
    
  </g>
  <g class="x-axis">
    <text x="60" y="370" text-anchor="middle" class="chart-muted" font-size="11" font-family="-apple-system, BlinkMacSystemFont, 'Segoe UI', Helvetica, Arial, sans-serif">Apr 1</text>
    <text x="146.06060606060606" y="370" text-anchor="middle" class="chart-muted" font-size="11" font-family="-apple-system, BlinkMacSystemFont, 'Segoe UI', Helvetica, Arial, sans-serif">Sep 11</text>
    <text x="232.12121212121212" y="370" text-anchor="middle" class="chart-muted" font-size="11" font-family="-apple-system, BlinkMacSystemFont, 'Segoe UI', Helvetica, Arial, sans-serif">Feb 21</text>
    <text x="318.1818181818182" y="370" text-anchor="middle" class="chart-muted" font-size="11" font-family="-apple-system, BlinkMacSystemFont, 'Segoe UI', Helvetica, Arial, sans-serif">Aug 2</text>
    <text x="404.24242424242425" y="370" text-anchor="middle" class="chart-muted" font-size="11" font-family="-apple-system, BlinkMacSystemFont, 'Segoe UI', Helvetica, Arial, sans-serif">Jan 12</text>
    <text x="490.3030303030303" y="370" text-anchor="middle" class="chart-muted" font-size="11" font-family="-apple-system, BlinkMacSystemFont, 'Segoe UI', Helvetica, Arial, sans-serif">Jun 23</text>
    <text x="576.3636363636364" y="370" text-anchor="middle" class="chart-muted" font-size="11" font-family="-apple-system, BlinkMacSystemFont, 'Segoe UI', Helvetica, Arial, sans-serif">Dec 3</text>
    <text x="662.4242424242425" y="370" text-anchor="middle" class="chart-muted" font-size="11" font-family="-apple-system, BlinkMacSystemFont, 'Segoe UI', Helvetica, Arial, sans-serif">May 15</text>
    <text x="748.4848484848485" y="370" text-anchor="middle" class="chart-muted" font-size="11" font-family="-apple-system, BlinkMacSystemFont, 'Segoe UI', Helvetica, Arial, sans-serif">Week 3</text>
    <text x="770" y="370" text-anchor="middle" class="chart-muted" font-size="11" font-family="-apple-system, BlinkMacSystemFont, 'Segoe UI', Helvetica, Arial, sans-serif">Week 4</text>
  </g>
  <line x1="770" y1="50" x2="770" y2="350" class="chart-axis" stroke-width="1" />
  <line x1="60" y1="350" x2="770" y2="350" class="chart-axis" stroke-width="1" />
  <path d="M60,349.99732324494096 L81.51515151515152,348.9132374460188 L103.03030303030303,348.6268246546986 L124.54545454545455,347.63107177272565 L146.06060606060606,347.1064277811485 L167.57575757575756,346.72097505264287 L189.0909090909091,346.39441093543667 L210.60606060606062,345.9366858203362 L232.12121212121212,345.42810235911344 L253.63636363636363,343.5222527570577 L275.1515151515151,342.3203897355366 L296.66666666666663,339.6596952068239 L318.1818181818182,338.663942324851 L339.6969696969697,338.0215211106749 L361.21212121212125,337.09268710517864 L382.7272727272727,312.5120453977658 L404.24242424242425,309.7308968913951 L425.75757575757575,305.0519290481459 L447.27272727272725,303.9892572896963 L468.7878787878788,300.8387165851743 L490.3030303030303,299.94468039544597 L511.8181818181818,288.0411506477747 L533.3333333333333,284.7192976194725 L554.8484848484849,281.4027981012884 L576.3636363636364,278.02740997180484 L597.8787878787879,276.62746707591276 L619.3939393939394,273.9025304257825 L640.909090909091,271.33284556907813 L662.4242424242425,268.814019058496 L683.9393939393939,127.94443056497377 L683.9393939393939,350 L60,350 Z" fill="#6b63ff" fill-opacity="0.1" />
  
  
  <path d="M60,349.99732324494096 L81.51515151515152,348.9132374460188 L103.03030303030303,348.6268246546986 L124.54545454545455,347.63107177272565 L146.06060606060606,347.1064277811485 L167.57575757575756,346.72097505264287 L189.0909090909091,346.39441093543667 L210.60606060606062,345.9366858203362 L232.12121212121212,345.42810235911344 L253.63636363636363,343.5222527570577 L275.1515151515151,342.3203897355366 L296.66666666666663,339.6596952068239 L318.1818181818182,338.663942324851 L339.6969696969697,338.0215211106749 L361.21212121212125,337.09268710517864 L382.7272727272727,312.5120453977658 L404.24242424242425,309.7308968913951 L425.75757575757575,305.0519290481459 L447.27272727272725,303.9892572896963 L468.7878787878788,300.8387165851743 L490.3030303030303,299.94468039544597 L511.8181818181818,288.0411506477747 L533.3333333333333,284.7192976194725 L554.8484848484849,281.4027981012884 L576.3636363636364,278.02740997180484 L597.8787878787879,276.62746707591276 L619.3939393939394,273.9025304257825 L640.909090909091,271.33284556907813 L662.4242424242425,268.814019058496 L683.9393939393939,127.94443056497377" fill="none" stroke="#6b63ff" stroke-width="2" class="data-line-0" />
  <path d="M683.9393939393939,127.94443056497377 L705.4545454545454,245.54498733002606 L726.969696969697,241.28091652093224 L748.4848484848485,237.01952246689746 L770,232.75545165780363" fill="none" stroke="#28a745" stroke-width="2" stroke-dasharray="8,4" />
  <path d="M683.9393939393939,127.94443056497377 L705.4545454545454,115.27534887040937 L726.969696969697,102.60894393090402 L748.4848484848485,89.9398622363396 L770,77.2734572968343" fill="none" stroke="#d73a49" stroke-width="2" stroke-dasharray="8,4" />
  <g class="points">
    
    <circle cx="60" cy="349.99732324494096" r="4" fill="#6b63ff" class="data-point" style="animation-delay: 1.50s" />
    <circle cx="81.51515151515152" cy="348.9132374460188" r="4" fill="#6b63ff" class="data-point" style="animation-delay: 1.55s" />
    <circle cx="103.03030303030303" cy="348.6268246546986" r="4" fill="#6b63ff" class="data-point" style="animation-delay: 1.60s" />
    <circle cx="124.54545454545455" cy="347.63107177272565" r="4" fill="#6b63ff" class="data-point" style="animation-delay: 1.65s" />
    <circle cx="146.06060606060606" cy="347.1064277811485" r="4" fill="#6b63ff" class="data-point" style="animation-delay: 1.70s" />
    <circle cx="167.57575757575756" cy="346.72097505264287" r="4" fill="#6b63ff" class="data-point" style="animation-delay: 1.75s" />
    <circle cx="189.0909090909091" cy="346.39441093543667" r="4" fill="#6b63ff" class="data-point" style="animation-delay: 1.80s" />
    <circle cx="210.60606060606062" cy="345.9366858203362" r="4" fill="#6b63ff" class="data-point" style="animation-delay: 1.85s" />
    <circle cx="232.12121212121212" cy="345.42810235911344" r="4" fill="#6b63ff" class="data-point" style="animation-delay: 1.90s" />
    <circle cx="253.63636363636363" cy="343.5222527570577" r="4" fill="#6b63ff" class="data-point" style="animation-delay: 1.95s" />
    <circle cx="275.1515151515151" cy="342.3203897355366" r="4" fill="#6b63ff" class="data-point" style="animation-delay: 2.00s" />
    <circle cx="296.66666666666663" cy="339.6596952068239" r="4" fill="#6b63ff" class="data-point" style="animation-delay: 2.05s" />
    <circle cx="318.1818181818182" cy="338.663942324851" r="4" fill="#6b63ff" class="data-point" style="animation-delay: 2.10s" />
    <circle cx="339.6969696969697" cy="338.0215211106749" r="4" fill="#6b63ff" class="data-point" style="animation-delay: 2.15s" />
    <circle cx="361.21212121212125" cy="337.09268710517864" r="4" fill="#6b63ff" class="data-point" style="animation-delay: 2.20s" />
    <circle cx="382.7272727272727" cy="312.5120453977658" r="4" fill="#6b63ff" class="data-point" style="animation-delay: 2.25s" />
    <circle cx="404.24242424242425" cy="309.7308968913951" r="4" fill="#6b63ff" class="data-point" style="animation-delay: 2.30s" />
    <circle cx="425.75757575757575" cy="305.0519290481459" r="4" fill="#6b63ff" class="data-point" style="animation-delay: 2.35s" />
    <circle cx="447.27272727272725" cy="303.9892572896963" r="4" fill="#6b63ff" class="data-point" style="animation-delay: 2.40s" />
    <circle cx="468.7878787878788" cy="300.8387165851743" r="4" fill="#6b63ff" class="data-point" style="animation-delay: 2.45s" />
    <circle cx="490.3030303030303" cy="299.94468039544597" r="4" fill="#6b63ff" class="data-point" style="animation-delay: 2.50s" />
    <circle cx="511.8181818181818" cy="288.0411506477747" r="4" fill="#6b63ff" class="data-point" style="animation-delay: 2.55s" />
    <circle cx="533.3333333333333" cy="284.7192976194725" r="4" fill="#6b63ff" class="data-point" style="animation-delay: 2.60s" />
    <circle cx="554.8484848484849" cy="281.4027981012884" r="4" fill="#6b63ff" class="data-point" style="animation-delay: 2.65s" />
    <circle cx="576.3636363636364" cy="278.02740997180484" r="4" fill="#6b63ff" class="data-point" style="animation-delay: 2.70s" />
    <circle cx="597.8787878787879" cy="276.62746707591276" r="4" fill="#6b63ff" class="data-point" style="animation-delay: 2.75s" />
    <circle cx="619.3939393939394" cy="273.9025304257825" r="4" fill="#6b63ff" class="data-point" style="animation-delay: 2.80s" />
    <circle cx="640.909090909091" cy="271.33284556907813" r="4" fill="#6b63ff" class="data-point" style="animation-delay: 2.85s" />
    <circle cx="662.4242424242425" cy="268.814019058496" r="4" fill="#6b63ff" class="data-point" style="animation-delay: 2.90s" />
    <circle cx="683.9393939393939" cy="127.94443056497377" r="4" fill="#6b63ff" class="data-point" style="animation-delay: 2.95s" />
  </g>
</svg>