<svg xmlns="http://www.w3.org/2000/svg" viewBox="0 0 800 400" width="800" height="400">
  <style>
    @keyframes drawLine {
      to { stroke-dashoffset: 0; }
    }
    @keyframes fadeInPoint {
      from { opacity: 0; }
      to { opacity: 1; }
    }
    .data-line-0 {
      stroke-dasharray: 1062;
      stroke-dashoffset: 1062;
      animation: drawLine 2s ease-out forwards;
    }
    .data-point {
      opacity: 0;
      animation: fadeInPoint 0.5s ease-out forwards;
    }
    .chart-bg { fill: #fff; }
    .chart-text { fill: #24292e; }
    .chart-muted { fill: #6a737d; }
    .chart-grid { stroke: #eee; }
    .chart-axis { stroke: #6a737d; }
    @media (prefers-color-scheme: dark) {
      .chart-bg { fill: #0d1117; }
      .chart-text { fill: #e6edf3; }
      .chart-muted { fill: #8b949e; }
      .chart-grid { stroke: #21262d; }
      .chart-axis { stroke: #8b949e; }
    }
  </style>
  <rect width="800" height="400" class="chart-bg" />
  <text x="400" y="14" text-anchor="middle" class="chart-text" font-size="16" font-weight="bold" font-family="-apple-system, BlinkMacSystemFont, 'Segoe UI', Helvetica, Arial, sans-serif">Growth Forecast</text>
  <g class="legend">
    <rect x="220" y="31" width="12" height="3" fill="#6b63ff" />
    <line x1="220" y1="32.5" x2="232" y2="32.5" stroke="#6b63ff" stroke-width="2" />
    <text x="236" y="36" class="chart-text" font-size="10" font-family="-apple-system, BlinkMacSystemFont, 'Segoe UI', Helvetica, Arial, sans-serif">Star History</text>
    <rect x="340" y="31" width="12" height="3" fill="#28a745" rx="1" />
    <line x1="340" y1="32.5" x2="352" y2="32.5" stroke="#28a745" stroke-width="2" stroke-dasharray="4,2" />
    <text x="356" y="36" class="chart-text" font-size="10" font-family="-apple-system, BlinkMacSystemFont, 'Segoe UI', Helvetica, Arial, sans-serif">Linear Regression</text>
    <rect x="460" y="31" width="12" height="3" fill="#d73a49" rx="1" />
    <line x1="460" y1="32.5" x2="472" y2="32.5" stroke="#d73a49" stroke-width="2" stroke-dasharray="4,2" />
    <text x="476" y="36" class="chart-text" font-size="10" font-family="-apple-system, BlinkMacSystemFont, 'Segoe UI', Helvetica, Arial, sans-serif">Weighted Moving Average</text>
  </g>
  <g class="grid">
    <line x1="60" y1="350" x2="770" y2="350" class="chart-grid" stroke-opacity="0.3" />
    <text x="778" y="354" text-anchor="start" class="chart-muted" font-size="11" font-family="-apple-system, BlinkMacSystemFont, 'Segoe UI', Helvetica, Arial, sans-serif">0</text>
    <line x1="60" y1="299.10164401689826" x2="770" y2="299.10164401689826" class="chart-grid" stroke-opacity="0.3" />
    <text x="778" y="303.10164401689826" text-anchor="start" class="chart-muted" font-size="11" font-family="-apple-system, BlinkMacSystemFont, 'Segoe UI', Helvetica, Arial, sans-serif">20,000</text>
    <line x1="60" y1="248.20328803379653" x2="770" y2="248.20328803379653" class="chart-grid" stroke-opacity="0.3" />
    <text x="778" y="252.20328803379653" text-anchor="start" class="chart-muted" font-size="11" font-family="-apple-system, BlinkMacSystemFont, 'Segoe UI', Helvetica, Arial, sans-serif">40,000</text>
    <line x1="60" y1="197.30493205069476" x2="770" y2="197.30493205069476" class="chart-grid" stroke-opacity="0.3" />
    <text x="778" y="201.30493205069476" text-anchor="start" class="chart-muted" font-size="11" font-family="-apple-system, BlinkMacSystemFont, 'Segoe UI', Helvetica, Arial, sans-serif">60,000</text>
    <line x1="60" y1="146.40657606759302" x2="770" y2="146.40657606759302" class="chart-grid" stroke-opacity="0.3" />
    <text x="778" y="150.40657606759302" text-anchor="start" class="chart-muted" font-size="11" font-family="-apple-system, BlinkMacSystemFont, 'Segoe UI', Helvetica, Arial, sans-serif">80,000</text>
    <line x1="60" y1="95.50822008449126" x2="770" y2="95.50822008449126" class="chart-grid" stroke-opacity="0.3" />
    <text x="778" y="99.50822008449126" text-anchor="start" class="chart-muted" font-size="11" font-family="-apple-system, BlinkMacSystemFont, 'Segoe UI', Helvetica, Arial, sans-serif">100,000</text>
    <line x1="60" y1="44.60986410138952" x2="770" y2="44.60986410138952" class="chart-grid" stroke-opacity="0.3" />
    <text x="778" y="48.60986410138952" text-anchor="start" class="chart-muted" font-size="11" font-family="-apple-system, BlinkMacSystemFont, 'Segoe UI', Helvetica, Arial, sans-serif">120,000</text>
  </g>
  <g class="milestones">
    
  </g>
  <g class="x-axis">
    <text x="60" y="370" text-anchor="middle" class="chart-muted" font-size="11" font-family="-apple-system, BlinkMacSystemFont, 'Segoe UI', Helvetica, Arial, sans-serif">Apr 1</text>
    <text x="146.06060606060606" y="370" text-anchor="middle" class="chart-muted" font-size="11" font-family="-apple-system, BlinkMacSystemFont, 'Segoe UI', Helvetica, Arial, sans-serif">Sep 11</text>
    <text x="232.12121212121212" y="370" text-anchor="middle" class="chart-muted" font-size="11" font-family="-apple-system, BlinkMacSystemFont, 'Segoe UI', Helvetica, Arial, sans-serif">Feb 21</text>
    <text x="318.1818181818182" y="370" text-anchor="middle" class="chart-muted" font-size="11" font-family="-apple-system, BlinkMacSystemFont, 'Segoe UI', Helvetica, Arial, sans-serif">Aug 2</text>
    <text x="404.24242424242425" y="370" text-anchor="middle" class="chart-muted" font-size="11" font-family="-apple-system, BlinkMacSystemFont, 'Segoe UI', Helvetica, Arial, sans-serif">Jan 12</text>
    <text x="490.3030303030303" y="370" text-anchor="middle" class="chart-muted" font-size="11" font-family="-apple-system, BlinkMacSystemFont, 'Segoe UI', Helvetica, Arial, sans-serif">Jun 23</text>
    <text x="576.3636363636364" y="370" text-anchor="middle" class="chart-muted" font-size="11" font-family="-apple-system, BlinkMacSystemFont, 'Segoe UI', Helvetica, Arial, sans-serif">Dec 3</text>
    <text x="662.4242424242425" y="370" text-anchor="middle" class="chart-muted" font-size="11" font-family="-apple-system, BlinkMacSystemFont, 'Segoe UI', Helvetica, Arial, sans-serif">May 15</text>
    <text x="748.4848484848485" y="370" text-anchor="middle" class="chart-muted" font-size="11" font-family="-apple-system, BlinkMacSystemFont, 'Segoe UI', Helvetica, Arial, sans-serif">Week 3</text>
    <text x="770" y="370" text-anchor="middle" class="chart-muted" font-size="11" font-family="-apple-system, BlinkMacSystemFont, 'Segoe UI', Helvetica, Arial, sans-serif">Week 4</text>
  </g>
  <line x1="770" y1="50" x2="770" y2="350" class="chart-axis" stroke-width="1" />
  <line x1="60" y1="350" x2="770" y2="350" class="chart-axis" stroke-width="1" />
  <path d="M60,349.9974550822009 L81.51515151515152,348.966763373543 L103.03030303030303,348.69445716903346 L124.54545454545455,347.7477477477477 L146.06060606060606,347.24894385911335 L167.57575757575756,346.88247569603504 L189.0909090909091,346.5719957245381 L210.60606060606062,346.13681478088256 L232.12121212121212,341.26075227770144 L253.63636363636363,308.69598411971293 L275.1515151515151,298.76571486740977 L296.66666666666663,291.82572402911387 L318.1818181818182,286.5043009110806 L339.6969696969697,285.89352063928334 L361.21212121212125,280.61790604163485 L382.7272727272727,217.6999032931236 L404.24242424242425,210.6632055784598 L425.75757575757575,201.81961622639588 L447.27272727272725,196.4142108209905 L468.7878787878788,193.4213874891841 L490.3030303030303,188.17885682292464 L511.8181818181818,172.4665343309411 L533.3333333333333,156.12307222476716 L554.8484848484849,152.96737415381483 L576.3636363636364,149.76077772687944 L597.8787878787879,148.43233063572046 L619.3939393939394,145.84160431618056 L640.909090909091,143.39848322899172 L662.4242424242425,140.9960808265893 L683.9393939393939,138.87870921769226 L683.9393939393939,350 L60,350 Z" fill="#6b63ff" fill-opacity="0.1" />
  
  
  <path d="M60,349.9974550822009 L81.51515151515152,348.966763373543 L103.03030303030303,348.69445716903346 L124.54545454545455,347.7477477477477 L146.06060606060606,347.24894385911335 L167.57575757575756,346.88247569603504 L189.0909090909091,346.5719957245381 L210.60606060606062,346.13681478088256 L232.12121212121212,341.26075227770144 L253.63636363636363,308.69598411971293 L275.1515151515151,298.76571486740977 L296.66666666666663,291.82572402911387 L318.1818181818182,286.5043009110806 L339.6969696969697,285.89352063928334 L361.21212121212125,280.61790604163485 L382.7272727272727,217.6999032931236 L404.24242424242425,210.6632055784598 L425.75757575757575,201.81961622639588 L447.27272727272725,196.4142108209905 L468.7878787878788,193.4213874891841 L490.3030303030303,188.17885682292464 L511.8181818181818,172.4665343309411 L533.3333333333333,156.12307222476716 L554.8484848484849,152.96737415381483 L576.3636363636364,149.76077772687944 L597.8787878787879,148.43233063572046 L619.3939393939394,145.84160431618056 L640.909090909091,143.39848322899172 L662.4242424242425,140.9960808265893 L683.9393939393939,138.87870921769226" fill="none" stroke="#6b63ff" stroke-width="2" class="data-line-0" />
  <path d="M683.9393939393939,138.87870921769226 L705.4545454545454,104.92187102356593 L726.969696969697,95.70672367282538 L748.4848484848485,86.49157632208482 L770,77.27388405354509" fill="none" stroke="#28a745" stroke-width="2" stroke-dasharray="8,4" />
  <path d="M683.9393939393939,138.87870921769226 L705.4545454545454,131.3686567923856 L726.969696969697,123.86114928487808 L748.4848484848485,116.35109685957141 L770,108.8410444342648" fill="none" stroke="#d73a49" stroke-width="2" stroke-dasharray="8,4" />
  <g class="points">
    
    <circle cx="60" cy="349.9974550822009" r="4" fill="#6b63ff" class="data-point" style="animation-delay: 1.50s" />
    <circle cx="81.51515151515152" cy="348.966763373543" r="4" fill="#6b63ff" class="data-point" style="animation-delay: 1.55s" />
    <circle cx="103.03030303030303" cy="348.69445716903346" r="4" fill="#6b63ff" class="data-point" style="animation-delay: 1.60s" />
    <circle cx="124.54545454545455" cy="347.7477477477477" r="4" fill="#6b63ff" class="data-point" style="animation-delay: 1.65s" />
    <circle cx="146.06060606060606" cy="347.24894385911335" r="4" fill="#6b63ff" class="data-point" style="animation-delay: 1.70s" />
    <circle cx="167.57575757575756" cy="346.88247569603504" r="4" fill="#6b63ff" class="data-point" style="animation-delay: 1.75s" />
    <circle cx="189.0909090909091" cy="346.5719957245381" r="4" fill="#6b63ff" class="data-point" style="animation-delay: 1.80s" />
    <circle cx="210.60606060606062" cy="346.13681478088256" r="4" fill="#6b63ff" class="data-point" style="animation-delay: 1.85s" />
    <circle cx="232.12121212121212" cy="341.26075227770144" r="4" fill="#6b63ff" class="data-point" style="animation-delay: 1.90s" />
    <circle cx="253.63636363636363" cy="308.69598411971293" r="4" fill="#6b63ff" class="data-point" style="animation-delay: 1.95s" />
    <circle cx="275.1515151515151" cy="298.76571486740977" r="4" fill="#6b63ff" class="data-point" style="animation-delay: 2.00s" />
    <circle cx="296.66666666666663" cy="291.82572402911387" r="4" fill="#6b63ff" class="data-point" style="animation-delay: 2.05s" />
    <circle cx="318.1818181818182" cy="286.5043009110806" r="4" fill="#6b63ff" class="data-point" style="animation-delay: 2.10s" />
    <circle cx="339.6969696969697" cy="285.89352063928334" r="4" fill="#6b63ff" class="data-point" style="animation-delay: 2.15s" />
    <circle cx="361.21212121212125" cy="280.61790604163485" r="4" fill="#6b63ff" class="data-point" style="animation-delay: 2.20s" />
    <circle cx="382.7272727272727" cy="217.6999032931236" r="4" fill="#6b63ff" class="data-point" style="animation-delay: 2.25s" />
    <circle cx="404.24242424242425" cy="210.6632055784598" r="4" fill="#6b63ff" class="data-point" style="animation-delay: 2.30s" />
    <circle cx="425.75757575757575" cy="201.81961622639588" r="4" fill="#6b63ff" class="data-point" style="animation-delay: 2.35s" />
    <circle cx="447.27272727272725" cy="196.4142108209905" r="4" fill="#6b63ff" class="data-point" style="animation-delay: 2.40s" />
    <circle cx="468.7878787878788" cy="193.4213874891841" r="4" fill="#6b63ff" class="data-point" style="animation-delay: 2.45s" />
    <circle cx="490.3030303030303" cy="188.17885682292464" r="4" fill="#6b63ff" class="data-point" style="animation-delay: 2.50s" />
    <circle cx="511.8181818181818" cy="172.4665343309411" r="4" fill="#6b63ff" class="data-point" style="animation-delay: 2.55s" />
    <circle cx="533.3333333333333" cy="156.12307222476716" r="4" fill="#6b63ff" class="data-point" style="animation-delay: 2.60s" />
    <circle cx="554.8484848484849" cy="152.96737415381483" r="4" fill="#6b63ff" class="data-point" style="animation-delay: 2.65s" />
    <circle cx="576.3636363636364" cy="149.76077772687944" r="4" fill="#6b63ff" class="data-point" style="animation-delay: 2.70s" />
    <circle cx="597.8787878787879" cy="148.43233063572046" r="4" fill="#6b63ff" class="data-point" style="animation-delay: 2.75s" />
    <circle cx="619.3939393939394" cy="145.84160431618056" r="4" fill="#6b63ff" class="data-point" style="animation-delay: 2.80s" />
    <circle cx="640.909090909091" cy="143.39848322899172" r="4" fill="#6b63ff" class="data-point" style="animation-delay: 2.85s" />
    <circle cx="662.4242424242425" cy="140.9960808265893" r="4" fill="#6b63ff" class="data-point" style="animation-delay: 2.90s" />
    <circle cx="683.9393939393939" cy="138.87870921769226" r="4" fill="#6b63ff" class="data-point" style="animation-delay: 2.95s" />
  </g>
</svg>