<svg xmlns="http://www.w3.org/2000/svg" viewBox="0 0 800 400" width="800" height="400">
  <style>
    @keyframes drawLine {
      to { stroke-dashoffset: 0; }
    }
    @keyframes fadeInPoint {
      from { opacity: 0; }
      to { opacity: 1; }
    }
    .data-line-0 {
      stroke-dasharray: 1074;
      stroke-dashoffset: 1074;
      animation: drawLine 2s ease-out forwards;
    }
    .data-point {
      opacity: 0;
      animation: fadeInPoint 0.5s ease-out forwards;
    }
    .chart-bg { fill: #fff; }
    .chart-text { fill: #24292e; }
    .chart-muted { fill: #6a737d; }
    .chart-grid { stroke: #eee; }
    .chart-axis { stroke: #6a737d; }
    @media (prefers-color-scheme: dark) {
      .chart-bg { fill: #0d1117; }
      .chart-text { fill: #e6edf3; }
      .chart-muted { fill: #8b949e; }
      .chart-grid { stroke: #21262d; }
      .chart-axis { stroke: #8b949e; }
    }
  </style>
  <rect width="800" height="400" class="chart-bg" />
  <text x="400" y="14" text-anchor="middle" class="chart-text" font-size="16" font-weight="bold" font-family="-apple-system, BlinkMacSystemFont, 'Segoe UI', Helvetica, Arial, sans-serif">Growth Forecast</text>
  <g class="legend">
    <rect x="220" y="31" width="12" height="3" fill="#6b63ff" />
    <line x1="220" y1="32.5" x2="232" y2="32.5" stroke="#6b63ff" stroke-width="2" />
    <text x="236" y="36" class="chart-text" font-size="10" font-family="-apple-system, BlinkMacSystemFont, 'Segoe UI', Helvetica, Arial, sans-serif">Star History</text>
    <rect x="340" y="31" width="12" height="3" fill="#28a745" rx="1" />
    <line x1="340" y1="32.5" x2="352" y2="32.5" stroke="#28a745" stroke-width="2" stroke-dasharray="4,2" />
    <text x="356" y="36" class="chart-text" font-size="10" font-family="-apple-system, BlinkMacSystemFont, 'Segoe UI', Helvetica, Arial, sans-serif">Linear Regression</text>
    <rect x="460" y="31" width="12" height="3" fill="#d73a49" rx="1" />
    <line x1="460" y1="32.5" x2="472" y2="32.5" stroke="#d73a49" stroke-width="2" stroke-dasharray="4,2" />
    <text x="476" y="36" class="chart-text" font-size="10" font-family="-apple-system, BlinkMacSystemFont, 'Segoe UI', Helvetica, Arial, sans-serif">Weighted Moving Average</text>
  </g>
  <g class="grid">
    <line x1="60" y1="350" x2="770" y2="350" class="chart-grid" stroke-opacity="0.3" />
    <text x="778" y="354" text-anchor="start" class="chart-muted" font-size="11" font-family="-apple-system, BlinkMacSystemFont, 'Segoe UI', Helvetica, Arial, sans-serif">0</text>
    <line x1="60" y1="290" x2="770" y2="290" class="chart-grid" stroke-opacity="0.3" />
    <text x="778" y="294" text-anchor="start" class="chart-muted" font-size="11" font-family="-apple-system, BlinkMacSystemFont, 'Segoe UI', Helvetica, Arial, sans-serif">20K</text>
    <line x1="60" y1="230" x2="770" y2="230" class="chart-grid" stroke-opacity="0.3" />
    <text x="778" y="234" text-anchor="start" class="chart-muted" font-size="11" font-family="-apple-system, BlinkMacSystemFont, 'Segoe UI', Helvetica, Arial, sans-serif">40K</text>
    <line x1="60" y1="170" x2="770" y2="170" class="chart-grid" stroke-opacity="0.3" />
    <text x="778" y="174" text-anchor="start" class="chart-muted" font-size="11" font-family="-apple-system, BlinkMacSystemFont, 'Segoe UI', Helvetica, Arial, sans-serif">60K</text>
    <line x1="60" y1="110" x2="770" y2="110" class="chart-grid" stroke-opacity="0.3" />
    <text x="778" y="114" text-anchor="start" class="chart-muted" font-size="11" font-family="-apple-system, BlinkMacSystemFont, 'Segoe UI', Helvetica, Arial, sans-serif">80K</text>
    <line x1="60" y1="50" x2="770" y2="50" class="chart-grid" stroke-opacity="0.3" />
    <text x="778" y="54" text-anchor="start" class="chart-muted" font-size="11" font-family="-apple-system, BlinkMacSystemFont, 'Segoe UI', Helvetica, Arial, sans-serif">100K</text>
  </g>
  <g class="milestones">
    
  </g>
  <g class="x-axis">
    <text x="60" y="370" text-anchor="middle" class="chart-muted" font-size="11" font-family="-apple-system, BlinkMacSystemFont, 'Segoe UI', Helvetica, Arial, sans-serif">Apr 1</text>
    <text x="146.06060606060606" y="370" text-anchor="middle" class="chart-muted" font-size="11" font-family="-apple-system, BlinkMacSystemFont, 'Segoe UI', Helvetica, Arial, sans-serif">Sep 14</text>
    <text x="232.12121212121212" y="370" text-anchor="middle" class="chart-muted" font-size="11" font-family="-apple-system, BlinkMacSystemFont, 'Segoe UI', Helvetica, Arial, sans-serif">Feb 27</text>
    <text x="318.1818181818182" y="370" text-anchor="middle" class="chart-muted" font-size="11" font-family="-apple-system, BlinkMacSystemFont, 'Segoe UI', Helvetica, Arial, sans-serif">Aug 10</text>
    <text x="404.24242424242425" y="370" text-anchor="middle" class="chart-muted" font-size="11" font-family="-apple-system, BlinkMacSystemFont, 'Segoe UI', Helvetica, Arial, sans-serif">Jan 23</text>
    <text x="490.3030303030303" y="370" text-anchor="middle" class="chart-muted" font-size="11" font-family="-apple-system, BlinkMacSystemFont, 'Segoe UI', Helvetica, Arial, sans-serif">Jul 8</text>
    <text x="576.3636363636364" y="370" text-anchor="middle" class="chart-muted" font-size="11" font-family="-apple-system, BlinkMacSystemFont, 'Segoe UI', Helvetica, Arial, sans-serif">Dec 20</text>
    <text x="662.4242424242425" y="370" text-anchor="middle" class="chart-muted" font-size="11" font-family="-apple-system, BlinkMacSystemFont, 'Segoe UI', Helvetica, Arial, sans-serif">Jun 4</text>
    <text x="748.4848484848485" y="370" text-anchor="middle" class="chart-muted" font-size="11" font-family="-apple-system, BlinkMacSystemFont, 'Segoe UI', Helvetica, Arial, sans-serif">Week 3</text>
    <text x="770" y="370" text-anchor="middle" class="chart-muted" font-size="11" font-family="-apple-system, BlinkMacSystemFont, 'Segoe UI', Helvetica, Arial, sans-serif">Week 4</text>
  </g>
  <line x1="770" y1="50" x2="770" y2="350" class="chart-axis" stroke-width="1" />
  <line x1="60" y1="350" x2="770" y2="350" class="chart-axis" stroke-width="1" />
  <path d="M60,350 L60,349.997 C67.17171717171718,349.577 74.34343434343434,348.98470406541287 81.51515151515152,348.737 C88.68686868686869,348.4892959345872 95.85858585858585,348.6294383200293 103.03030303030303,348.398 C110.20202020202021,348.16656167997075 117.37373737373737,347.533 124.54545454545455,347.243 C131.7171717171717,346.953 138.88888888888889,346.7945 146.06060606060606,346.658 C153.23232323232324,346.5215 160.4040404040404,346.521479835566 167.57575757575756,346.424 C174.74747474747474,346.32652016443393 181.91919191919192,346.4161084196515 189.0909090909091,345.818 C196.26262626262627,345.2198915803485 203.43434343434345,341.3412172436715 210.60606060606062,341.27 C217.7777777777778,341.19878275632846 224.94949494949495,341.26429027204756 232.12121212121212,340.823 C239.2929292929293,340.3817097279524 246.46464646464645,316.89050000000003 253.63636363636363,310.319 C260.8080808080808,303.7475 267.979797979798,304.1255 275.1515151515151,301.394 C282.3232323232323,298.6625 289.4949494949495,295.947 296.66666666666663,293.93 C303.83838383838383,291.913 311.010101010101,290.7795 318.1818181818182,289.292 C325.35353535353534,287.80449999999996 332.52525252525254,285.3044518980111 339.6969696969697,285.005 C346.8686868686869,284.7055481019889 354.04040404040404,284.9890386574943 361.21212121212125,282.188 C368.3838383838384,279.3869613425057 375.55555555555554,225.27950199430478 382.7272727272727,218.555 C389.8989898989899,211.8304980056952 397.07070707070704,213.11442639260636 404.24242424242425,211.679 C411.4141414141414,210.24357360739364 418.5858585858586,205.9045 425.75757575757575,203.50400000000002 C432.9292929292929,201.10350000000003 440.1010101010101,199.4515 447.27272727272725,197.276 C454.44444444444446,195.1005 461.6161616161616,193.3005 468.7878787878788,190.451 C475.95959595959596,187.6015 483.13131313131316,183.084 490.3030303030303,180.179 C497.47474747474746,177.274 504.64646464646466,177.27450000000002 511.8181818181818,173.02100000000002 C518.989898989899,168.7675 526.1616161616162,159.1505 533.3333333333333,154.658 C540.5050505050505,150.16549999999995 547.6767676767677,148.68099999999998 554.8484848484849,146.06599999999997 C562.0202020202021,143.451 569.1919191919192,141.64350000000002 576.3636363636364,138.96800000000002 C583.5353535353536,136.29250000000002 590.7070707070707,132.60500000000002 597.8787878787879,130.013 C605.0505050505051,127.421 612.2222222222222,125.92850000000001 619.3939393939394,123.41600000000003 C626.5656565656566,120.90350000000002 633.7373737373738,117.729 640.909090909091,114.93799999999999 C648.0808080808082,112.14699999999999 655.2525252525253,109.6805 662.4242424242425,106.66999999999999 C669.5959595959596,103.6595 676.7676767676768,100.14 683.9393939393939,96.875 L683.9393939393939,350 L60,350 Z" fill="#6b63ff" fill-opacity="0.1" />
  
  
  <path d="M60,350 L60,349.997 C67.17171717171718,349.577 74.34343434343434,348.98470406541287 81.51515151515152,348.737 C88.68686868686869,348.4892959345872 95.85858585858585,348.6294383200293 103.03030303030303,348.398 C110.20202020202021,348.16656167997075 117.37373737373737,347.533 124.54545454545455,347.243 C131.7171717171717,346.953 138.88888888888889,346.7945 146.06060606060606,346.658 C153.23232323232324,346.5215 160.4040404040404,346.521479835566 167.57575757575756,346.424 C174.74747474747474,346.32652016443393 181.91919191919192,346.4161084196515 189.0909090909091,345.818 C196.26262626262627,345.2198915803485 203.43434343434345,341.3412172436715 210.60606060606062,341.27 C217.7777777777778,341.19878275632846 224.94949494949495,341.26429027204756 232.12121212121212,340.823 C239.2929292929293,340.3817097279524 246.46464646464645,316.89050000000003 253.63636363636363,310.319 C260.8080808080808,303.7475 267.979797979798,304.1255 275.1515151515151,301.394 C282.3232323232323,298.6625 289.4949494949495,295.947 296.66666666666663,293.93 C303.83838383838383,291.913 311.010101010101,290.7795 318.1818181818182,289.292 C325.35353535353534,287.80449999999996 332.52525252525254,285.3044518980111 339.6969696969697,285.005 C346.8686868686869,284.7055481019889 354.04040404040404,284.9890386574943 361.21212121212125,282.188 C368.3838383838384,279.3869613425057 375.55555555555554,225.27950199430478 382.7272727272727,218.555 C389.8989898989899,211.8304980056952 397.07070707070704,213.11442639260636 404.24242424242425,211.679 C411.4141414141414,210.24357360739364 418.5858585858586,205.9045 425.75757575757575,203.50400000000002 C432.9292929292929,201.10350000000003 440.1010101010101,199.4515 447.27272727272725,197.276 C454.44444444444446,195.1005 461.6161616161616,193.3005 468.7878787878788,190.451 C475.95959595959596,187.6015 483.13131313131316,183.084 490.3030303030303,180.179 C497.47474747474746,177.274 504.64646464646466,177.27450000000002 511.8181818181818,173.02100000000002 C518.989898989899,168.7675 526.1616161616162,159.1505 533.3333333333333,154.658 C540.5050505050505,150.16549999999995 547.6767676767677,148.68099999999998 554.8484848484849,146.06599999999997 C562.0202020202021,143.451 569.1919191919192,141.64350000000002 576.3636363636364,138.96800000000002 C583.5353535353536,136.29250000000002 590.7070707070707,132.60500000000002 597.8787878787879,130.013 C605.0505050505051,127.421 612.2222222222222,125.92850000000001 619.3939393939394,123.41600000000003 C626.5656565656566,120.90350000000002 633.7373737373738,117.729 640.909090909091,114.93799999999999 C648.0808080808082,112.14699999999999 655.2525252525253,109.6805 662.4242424242425,106.66999999999999 C669.5959595959596,103.6595 676.7676767676768,100.14 683.9393939393939,96.875" fill="none" stroke="#6b63ff" stroke-width="2.5" class="data-line-0" />
  <path d="M683.9393939393939,96.875 C691.1111111111111,96.304 698.2828282828282,95.733 705.4545454545454,95.162 C712.6262626262626,94.59100000000001 719.7979797979798,94.01950000000002 726.969696969697,93.44900000000001 C734.1414141414142,92.8785 741.3131313131313,92.30949999999997 748.4848484848485,91.73899999999998 C755.6565656565657,91.16849999999998 762.8282828282828,90.597 770,90.02600000000001" fill="none" stroke="#28a745" stroke-width="2.5" stroke-dasharray="8,4" />
  <path d="M683.9393939393939,96.875 C691.1111111111111,96.31099999999999 698.2828282828282,95.747 705.4545454545454,95.18299999999999 C712.6262626262626,94.61899999999999 719.7979797979798,94.05549999999998 726.969696969697,93.49099999999999 C734.1414141414142,92.92649999999999 741.3131313131313,92.36049999999999 748.4848484848485,91.79599999999999 C755.6565656565657,91.2315 762.8282828282828,90.66799999999999 770,90.10399999999998" fill="none" stroke="#d73a49" stroke-width="2.5" stroke-dasharray="8,4" />
  <g class="points">
    
    <circle cx="60" cy="349.997" r="4" fill="#6b63ff" class="data-point" style="animation-delay: 1.50s" />
    <circle cx="81.51515151515152" cy="348.737" r="4" fill="#6b63ff" class="data-point" style="animation-delay: 1.55s" />
    <circle cx="103.03030303030303" cy="348.398" r="4" fill="#6b63ff" class="data-point" style="animation-delay: 1.60s" />
    <circle cx="124.54545454545455" cy="347.243" r="4" fill="#6b63ff" class="data-point" style="animation-delay: 1.65s" />
    <circle cx="146.06060606060606" cy="346.658" r="4" fill="#6b63ff" class="data-point" style="animation-delay: 1.70s" />
    <circle cx="167.57575757575756" cy="346.424" r="4" fill="#6b63ff" class="data-point" style="animation-delay: 1.75s" />
    <circle cx="189.0909090909091" cy="345.818" r="4" fill="#6b63ff" class="data-point" style="animation-delay: 1.80s" />
    <circle cx="210.60606060606062" cy="341.27" r="4" fill="#6b63ff" class="data-point" style="animation-delay: 1.85s" />
    <circle cx="232.12121212121212" cy="340.823" r="4" fill="#6b63ff" class="data-point" style="animation-delay: 1.90s" />
    <circle cx="253.63636363636363" cy="310.319" r="4" fill="#6b63ff" class="data-point" style="animation-delay: 1.95s" />
    <circle cx="275.1515151515151" cy="301.394" r="4" fill="#6b63ff" class="data-point" style="animation-delay: 2.00s" />
    <circle cx="296.66666666666663" cy="293.93" r="4" fill="#6b63ff" class="data-point" style="animation-delay: 2.05s" />
    <circle cx="318.1818181818182" cy="289.292" r="4" fill="#6b63ff" class="data-point" style="animation-delay: 2.10s" />
    <circle cx="339.6969696969697" cy="285.005" r="4" fill="#6b63ff" class="data-point" style="animation-delay: 2.15s" />
    <circle cx="361.21212121212125" cy="282.188" r="4" fill="#6b63ff" class="data-point" style="animation-delay: 2.20s" />
    <circle cx="382.7272727272727" cy="218.555" r="4" fill="#6b63ff" class="data-point" style="animation-delay: 2.25s" />
    <circle cx="404.24242424242425" cy="211.679" r="4" fill="#6b63ff" class="data-point" style="animation-delay: 2.30s" />
    <circle cx="425.75757575757575" cy="203.50400000000002" r="4" fill="#6b63ff" class="data-point" style="animation-delay: 2.35s" />
    <circle cx="447.27272727272725" cy="197.276" r="4" fill="#6b63ff" class="data-point" style="animation-delay: 2.40s" />
    <circle cx="468.7878787878788" cy="190.451" r="4" fill="#6b63ff" class="data-point" style="animation-delay: 2.45s" />
    <circle cx="490.3030303030303" cy="180.179" r="4" fill="#6b63ff" class="data-point" style="animation-delay: 2.50s" />
    <circle cx="511.8181818181818" cy="173.02100000000002" r="4" fill="#6b63ff" class="data-point" style="animation-delay: 2.55s" />
    <circle cx="533.3333333333333" cy="154.658" r="4" fill="#6b63ff" class="data-point" style="animation-delay: 2.60s" />
    <circle cx="554.8484848484849" cy="146.06599999999997" r="4" fill="#6b63ff" class="data-point" style="animation-delay: 2.65s" />
    <circle cx="576.3636363636364" cy="138.96800000000002" r="4" fill="#6b63ff" class="data-point" style="animation-delay: 2.70s" />
    <circle cx="597.8787878787879" cy="130.013" r="4" fill="#6b63ff" class="data-point" style="animation-delay: 2.75s" />
    <circle cx="619.3939393939394" cy="123.41600000000003" r="4" fill="#6b63ff" class="data-point" style="animation-delay: 2.80s" />
    <circle cx="640.909090909091" cy="114.93799999999999" r="4" fill="#6b63ff" class="data-point" style="animation-delay: 2.85s" />
    <circle cx="662.4242424242425" cy="106.66999999999999" r="4" fill="#6b63ff" class="data-point" style="animation-delay: 2.90s" />
    <circle cx="683.9393939393939" cy="96.875" r="4" fill="#6b63ff" class="data-point" style="animation-delay: 2.95s" />
  </g>
</svg>