<svg xmlns="http://www.w3.org/2000/svg" viewBox="0 0 800 400" width="800" height="400">
  <style>
    @keyframes drawLine {
      to { stroke-dashoffset: 0; }
    }
    @keyframes fadeInPoint {
      from { opacity: 0; }
      to { opacity: 1; }
    }
    .data-line-0 {
      stroke-dasharray: 1060;
      stroke-dashoffset: 1060;
      animation: drawLine 2s ease-out forwards;
    }
    .data-point {
      opacity: 0;
      animation: fadeInPoint 0.5s ease-out forwards;
    }
    .chart-bg { fill: #fff; }
    .chart-text { fill: #24292e; }
    .chart-muted { fill: #6a737d; }
    .chart-grid { stroke: #eee; }
    .chart-axis { stroke: #6a737d; }
    @media (prefers-color-scheme: dark) {
      .chart-bg { fill: #0d1117; }
      .chart-text { fill: #e6edf3; }
      .chart-muted { fill: #8b949e; }
      .chart-grid { stroke: #21262d; }
      .chart-axis { stroke: #8b949e; }
    }
  </style>
  <rect width="800" height="400" class="chart-bg" />
  <text x="400" y="14" text-anchor="middle" class="chart-text" font-size="16" font-weight="bold" font-family="-apple-system, BlinkMacSystemFont, 'Segoe UI', Helvetica, Arial, sans-serif">Growth Forecast</text>
  <g class="legend">
    <rect x="220" y="31" width="12" height="3" fill="#6b63ff" />
    <line x1="220" y1="32.5" x2="232" y2="32.5" stroke="#6b63ff" stroke-width="2" />
    <text x="236" y="36" class="chart-text" font-size="10" font-family="-apple-system, BlinkMacSystemFont, 'Segoe UI', Helvetica, Arial, sans-serif">Star History</text>
    <rect x="340" y="31" width="12" height="3" fill="#28a745" rx="1" />
    <line x1="340" y1="32.5" x2="352" y2="32.5" stroke="#28a745" stroke-width="2" stroke-dasharray="4,2" />
    <text x="356" y="36" class="chart-text" font-size="10" font-family="-apple-system, BlinkMacSystemFont, 'Segoe UI', Helvetica, Arial, sans-serif">Linear Regression</text>
    <rect x="460" y="31" width="12" height="3" fill="#d73a49" rx="1" />
    <line x1="460" y1="32.5" x2="472" y2="32.5" stroke="#d73a49" stroke-width="2" stroke-dasharray="4,2" />
    <text x="476" y="36" class="chart-text" font-size="10" font-family="-apple-system, BlinkMacSystemFont, 'Segoe UI', Helvetica, Arial, sans-serif">Weighted Moving Average</text>
  </g>
  <g class="grid">
    <line x1="60" y1="350" x2="770" y2="350" class="chart-grid" stroke-opacity="0.3" />
    <text x="778" y="354" text-anchor="start" class="chart-muted" font-size="11" font-family="-apple-system, BlinkMacSystemFont, 'Segoe UI', Helvetica, Arial, sans-serif">0</text>
    <line x1="60" y1="294.14187962575056" x2="770" y2="294.14187962575056" class="chart-grid" stroke-opacity="0.3" />
    <text x="778" y="298.14187962575056" text-anchor="start" class="chart-muted" font-size="11" font-family="-apple-system, BlinkMacSystemFont, 'Segoe UI', Helvetica, Arial, sans-serif">20K</text>
    <line x1="60" y1="238.28375925150118" x2="770" y2="238.28375925150118" class="chart-grid" stroke-opacity="0.3" />
    <text x="778" y="242.28375925150118" text-anchor="start" class="chart-muted" font-size="11" font-family="-apple-system, BlinkMacSystemFont, 'Segoe UI', Helvetica, Arial, sans-serif">40K</text>
    <line x1="60" y1="182.42563887725177" x2="770" y2="182.42563887725177" class="chart-grid" stroke-opacity="0.3" />
    <text x="778" y="186.42563887725177" text-anchor="start" class="chart-muted" font-size="11" font-family="-apple-system, BlinkMacSystemFont, 'Segoe UI', Helvetica, Arial, sans-serif">60K</text>
    <line x1="60" y1="126.56751850300236" x2="770" y2="126.56751850300236" class="chart-grid" stroke-opacity="0.3" />
    <text x="778" y="130.56751850300236" text-anchor="start" class="chart-muted" font-size="11" font-family="-apple-system, BlinkMacSystemFont, 'Segoe UI', Helvetica, Arial, sans-serif">80K</text>
    <line x1="60" y1="70.70939812875298" x2="770" y2="70.70939812875298" class="chart-grid" stroke-opacity="0.3" />
    <text x="778" y="74.70939812875298" text-anchor="start" class="chart-muted" font-size="11" font-family="-apple-system, BlinkMacSystemFont, 'Segoe UI', Helvetica, Arial, sans-serif">100K</text>
  </g>
  <g class="milestones">
    
  </g>
  <g class="x-axis">
    <text x="60" y="370" text-anchor="middle" class="chart-muted" font-size="11" font-family="-apple-system, BlinkMacSystemFont, 'Segoe UI', Helvetica, Arial, sans-serif">Apr 1</text>
    <text x="146.06060606060606" y="370" text-anchor="middle" class="chart-muted" font-size="11" font-family="-apple-system, BlinkMacSystemFont, 'Segoe UI', Helvetica, Arial, sans-serif">Sep 12</text>
    <text x="232.12121212121212" y="370" text-anchor="middle" class="chart-muted" font-size="11" font-family="-apple-system, BlinkMacSystemFont, 'Segoe UI', Helvetica, Arial, sans-serif">Feb 22</text>
    <text x="318.1818181818182" y="370" text-anchor="middle" class="chart-muted" font-size="11" font-family="-apple-system, BlinkMacSystemFont, 'Segoe UI', Helvetica, Arial, sans-serif">Aug 4</text>
    <text x="404.24242424242425" y="370" text-anchor="middle" class="chart-muted" font-size="11" font-family="-apple-system, BlinkMacSystemFont, 'Segoe UI', Helvetica, Arial, sans-serif">Jan 14</text>
    <text x="490.3030303030303" y="370" text-anchor="middle" class="chart-muted" font-size="11" font-family="-apple-system, BlinkMacSystemFont, 'Segoe UI', Helvetica, Arial, sans-serif">Jun 27</text>
    <text x="576.3636363636364" y="370" text-anchor="middle" class="chart-muted" font-size="11" font-family="-apple-system, BlinkMacSystemFont, 'Segoe UI', Helvetica, Arial, sans-serif">Dec 7</text>
    <text x="662.4242424242425" y="370" text-anchor="middle" class="chart-muted" font-size="11" font-family="-apple-system, BlinkMacSystemFont, 'Segoe UI', Helvetica, Arial, sans-serif">May 20</text>
    <text x="748.4848484848485" y="370" text-anchor="middle" class="chart-muted" font-size="11" font-family="-apple-system, BlinkMacSystemFont, 'Segoe UI', Helvetica, Arial, sans-serif">Week 3</text>
    <text x="770" y="370" text-anchor="middle" class="chart-muted" font-size="11" font-family="-apple-system, BlinkMacSystemFont, 'Segoe UI', Helvetica, Arial, sans-serif">Week 4</text>
  </g>
  <line x1="770" y1="50" x2="770" y2="350" class="chart-axis" stroke-width="1" />
  <line x1="60" y1="350" x2="770" y2="350" class="chart-axis" stroke-width="1" />
  <path d="M60,350 L60,349.9972070939813 C67.17171717171718,349.6201647814551 74.34343434343434,349.084308295507 81.51515151515152,348.86608015640275 C88.68686868686869,348.6478520172985 95.85858585858585,348.7714018659766 103.03030303030303,348.5672392124005 C110.20202020202021,348.36307655882445 117.37373737373737,347.79267327654424 124.54545454545455,347.52827817343945 C131.7171717171717,347.26388307033466 138.88888888888889,347.13913326816555 146.06060606060606,346.98086859377185 C153.23232323232324,346.82260391937814 160.4040404040404,346.702043476237 167.57575757575756,346.5786901270772 C174.74747474747474,346.4553367779174 181.91919191919192,346.3231337743282 189.0909090909091,346.240748498813 C196.26262626262627,346.1583632232978 203.43434343434345,346.1318799043026 210.60606060606062,345.75757575757575 C217.7777777777778,345.3832716108489 224.94949494949495,345.74110747558774 232.12121212121212,341.49560117302053 C239.2929292929293,337.2500948704533 246.46464646464645,319.48377787087463 253.63636363636363,313.3570730344924 C260.8080808080808,307.2303681981101 267.979797979798,307.28250244379274 275.1515151515151,304.735372154727 C282.3232323232323,302.1882418656612 289.4949494949495,299.95391705069125 296.66666666666663,298.07429130009774 C303.83838383838383,296.19466554950424 311.010101010101,293.9225161409644 318.1818181818182,293.45761765116606 C325.35353535353534,292.99271916136775 332.52525252525254,293.00671692917786 339.6969696969697,292.78452730065635 C346.8686868686869,292.56233767213484 354.04040404040404,292.7794510890252 361.21212121212125,287.91928501605923 C368.3838383838384,283.0591189430933 375.55555555555554,235.3253635411245 382.7272727272727,228.90238793464601 C389.8989898989899,222.4794123281675 397.07070707070704,223.80061508345443 404.24242424242425,222.30833682446587 C411.4141414141414,220.8160585654773 418.5858585858586,215.9018759018759 425.75757575757575,213.65870688451335 C432.9292929292929,211.4155378671508 440.1010101010101,210.2066750453847 447.27272727272725,208.84932272029044 C454.44444444444446,207.49197039519618 461.6161616161616,206.83377554345296 468.7878787878788,205.51459293394777 C475.95959595959596,204.19541032444258 483.13131313131316,204.39231019876183 490.3030303030303,200.93422706325933 C497.47474747474746,197.47614392775682 504.64646464646466,189.90923055439185 511.8181818181818,184.76609412093282 C518.989898989899,179.62295768747381 526.1616161616162,173.91286133221615 533.3333333333333,170.07540846250524 C540.5050505050505,166.2379555927943 547.6767676767677,164.5286971093423 554.8484848484849,161.74137690266724 C562.0202020202021,158.9540566959922 569.1919191919192,155.80040031652933 576.3636363636364,153.35148722245495 C583.5353535353536,150.90257412838056 590.7070707070707,149.39068100358423 597.8787878787879,147.04789833822093 C605.0505050505051,144.70511567285763 612.2222222222222,141.83633570730345 619.3939393939394,139.2947912302751 C626.5656565656566,136.75324675324674 633.7373737373738,134.30526462784528 640.909090909091,131.79863147605082 C648.0808080808082,129.29199832425638 655.2525252525253,126.77465903272353 662.4242424242425,124.25499231950843 C669.5959595959596,121.73532560629334 676.7676767676768,119.2054182376763 683.9393939393939,116.68063119676023 L683.9393939393939,350 L60,350 Z" fill="#6b63ff" fill-opacity="0.1" />
  
  
  <path d="M60,350 L60,349.9972070939813 C67.17171717171718,349.6201647814551 74.34343434343434,349.084308295507 81.51515151515152,348.86608015640275 C88.68686868686869,348.6478520172985 95.85858585858585,348.7714018659766 103.03030303030303,348.5672392124005 C110.20202020202021,348.36307655882445 117.37373737373737,347.79267327654424 124.54545454545455,347.52827817343945 C131.7171717171717,347.26388307033466 138.88888888888889,347.13913326816555 146.06060606060606,346.98086859377185 C153.23232323232324,346.82260391937814 160.4040404040404,346.702043476237 167.57575757575756,346.5786901270772 C174.74747474747474,346.4553367779174 181.91919191919192,346.3231337743282 189.0909090909091,346.240748498813 C196.26262626262627,346.1583632232978 203.43434343434345,346.1318799043026 210.60606060606062,345.75757575757575 C217.7777777777778,345.3832716108489 224.94949494949495,345.74110747558774 232.12121212121212,341.49560117302053 C239.2929292929293,337.2500948704533 246.46464646464645,319.48377787087463 253.63636363636363,313.3570730344924 C260.8080808080808,307.2303681981101 267.979797979798,307.28250244379274 275.1515151515151,304.735372154727 C282.3232323232323,302.1882418656612 289.4949494949495,299.95391705069125 296.66666666666663,298.07429130009774 C303.83838383838383,296.19466554950424 311.010101010101,293.9225161409644 318.1818181818182,293.45761765116606 C325.35353535353534,292.99271916136775 332.52525252525254,293.00671692917786 339.6969696969697,292.78452730065635 C346.8686868686869,292.56233767213484 354.04040404040404,292.7794510890252 361.21212121212125,287.91928501605923 C368.3838383838384,283.0591189430933 375.55555555555554,235.3253635411245 382.7272727272727,228.90238793464601 C389.8989898989899,222.4794123281675 397.07070707070704,223.80061508345443 404.24242424242425,222.30833682446587 C411.4141414141414,220.8160585654773 418.5858585858586,215.9018759018759 425.75757575757575,213.65870688451335 C432.9292929292929,211.4155378671508 440.1010101010101,210.2066750453847 447.27272727272725,208.84932272029044 C454.44444444444446,207.49197039519618 461.6161616161616,206.83377554345296 468.7878787878788,205.51459293394777 C475.95959595959596,204.19541032444258 483.13131313131316,204.39231019876183 490.3030303030303,200.93422706325933 C497.47474747474746,197.47614392775682 504.64646464646466,189.90923055439185 511.8181818181818,184.76609412093282 C518.989898989899,179.62295768747381 526.1616161616162,173.91286133221615 533.3333333333333,170.07540846250524 C540.5050505050505,166.2379555927943 547.6767676767677,164.5286971093423 554.8484848484849,161.74137690266724 C562.0202020202021,158.9540566959922 569.1919191919192,155.80040031652933 576.3636363636364,153.35148722245495 C583.5353535353536,150.90257412838056 590.7070707070707,149.39068100358423 597.8787878787879,147.04789833822093 C605.0505050505051,144.70511567285763 612.2222222222222,141.83633570730345 619.3939393939394,139.2947912302751 C626.5656565656566,136.75324675324674 633.7373737373738,134.30526462784528 640.909090909091,131.79863147605082 C648.0808080808082,129.29199832425638 655.2525252525253,126.77465903272353 662.4242424242425,124.25499231950843 C669.5959595959596,121.73532560629334 676.7676767676768,119.2054182376763 683.9393939393939,116.68063119676023" fill="none" stroke="#6b63ff" stroke-width="2.5" class="data-line-0" />
  <path d="M683.9393939393939,116.68063119676023 C691.1111111111111,112.92044872690035 698.2828282828282,108.84280593958013 705.4545454545454,105.40008378718056 C712.6262626262626,101.95736163478098 719.7979797979798,99.14956011730206 726.969696969697,96.02429828236279 C734.1414141414142,92.89903644742354 741.3131313131313,89.77377461248427 748.4848484848485,86.64851277754502 C755.6565656565657,83.52325094260577 762.8282828282828,80.39798910766655 770,77.27272727272731" fill="none" stroke="#28a745" stroke-width="2.5" stroke-dasharray="8,4" />
  <path d="M683.9393939393939,116.68063119676023 C691.1111111111111,113.59912488944747 698.2828282828282,110.51761858213469 705.4545454545454,107.43611227482194 C712.6262626262626,104.35460596750917 719.7979797979798,101.27263417586 726.969696969697,98.1915933528837 C734.1414141414142,95.11055252990741 741.3131313131313,92.03090815994045 748.4848484848485,88.94986733696413 C755.6565656565657,85.86882651398781 762.8282828282828,82.78685472233859 770,79.70534841502581" fill="none" stroke="#d73a49" stroke-width="2.5" stroke-dasharray="8,4" />
  <g class="points">
    
    <circle cx="60" cy="349.9972070939813" r="4" fill="#6b63ff" class="data-point" style="animation-delay: 1.50s" />
    <circle cx="81.51515151515152" cy="348.86608015640275" r="4" fill="#6b63ff" class="data-point" style="animation-delay: 1.55s" />
    <circle cx="103.03030303030303" cy="348.5672392124005" r="4" fill="#6b63ff" class="data-point" style="animation-delay: 1.60s" />
    <circle cx="124.54545454545455" cy="347.52827817343945" r="4" fill="#6b63ff" class="data-point" style="animation-delay: 1.65s" />
    <circle cx="146.06060606060606" cy="346.98086859377185" r="4" fill="#6b63ff" class="data-point" style="animation-delay: 1.70s" />
    <circle cx="167.57575757575756" cy="346.5786901270772" r="4" fill="#6b63ff" class="data-point" style="animation-delay: 1.75s" />
    <circle cx="189.0909090909091" cy="346.240748498813" r="4" fill="#6b63ff" class="data-point" style="animation-delay: 1.80s" />
    <circle cx="210.60606060606062" cy="345.75757575757575" r="4" fill="#6b63ff" class="data-point" style="animation-delay: 1.85s" />
    <circle cx="232.12121212121212" cy="341.49560117302053" r="4" fill="#6b63ff" class="data-point" style="animation-delay: 1.90s" />
    <circle cx="253.63636363636363" cy="313.3570730344924" r="4" fill="#6b63ff" class="data-point" style="animation-delay: 1.95s" />
    <circle cx="275.1515151515151" cy="304.735372154727" r="4" fill="#6b63ff" class="data-point" style="animation-delay: 2.00s" />
    <circle cx="296.66666666666663" cy="298.07429130009774" r="4" fill="#6b63ff" class="data-point" style="animation-delay: 2.05s" />
    <circle cx="318.1818181818182" cy="293.45761765116606" r="4" fill="#6b63ff" class="data-point" style="animation-delay: 2.10s" />
    <circle cx="339.6969696969697" cy="292.78452730065635" r="4" fill="#6b63ff" class="data-point" style="animation-delay: 2.15s" />
    <circle cx="361.21212121212125" cy="287.91928501605923" r="4" fill="#6b63ff" class="data-point" style="animation-delay: 2.20s" />
    <circle cx="382.7272727272727" cy="228.90238793464601" r="4" fill="#6b63ff" class="data-point" style="animation-delay: 2.25s" />
    <circle cx="404.24242424242425" cy="222.30833682446587" r="4" fill="#6b63ff" class="data-point" style="animation-delay: 2.30s" />
    <circle cx="425.75757575757575" cy="213.65870688451335" r="4" fill="#6b63ff" class="data-point" style="animation-delay: 2.35s" />
    <circle cx="447.27272727272725" cy="208.84932272029044" r="4" fill="#6b63ff" class="data-point" style="animation-delay: 2.40s" />
    <circle cx="468.7878787878788" cy="205.51459293394777" r="4" fill="#6b63ff" class="data-point" style="animation-delay: 2.45s" />
    <circle cx="490.3030303030303" cy="200.93422706325933" r="4" fill="#6b63ff" class="data-point" style="animation-delay: 2.50s" />
    <circle cx="511.8181818181818" cy="184.76609412093282" r="4" fill="#6b63ff" class="data-point" style="animation-delay: 2.55s" />
    <circle cx="533.3333333333333" cy="170.07540846250524" r="4" fill="#6b63ff" class="data-point" style="animation-delay: 2.60s" />
    <circle cx="554.8484848484849" cy="161.74137690266724" r="4" fill="#6b63ff" class="data-point" style="animation-delay: 2.65s" />
    <circle cx="576.3636363636364" cy="153.35148722245495" r="4" fill="#6b63ff" class="data-point" style="animation-delay: 2.70s" />
    <circle cx="597.8787878787879" cy="147.04789833822093" r="4" fill="#6b63ff" class="data-point" style="animation-delay: 2.75s" />
    <circle cx="619.3939393939394" cy="139.2947912302751" r="4" fill="#6b63ff" class="data-point" style="animation-delay: 2.80s" />
    <circle cx="640.909090909091" cy="131.79863147605082" r="4" fill="#6b63ff" class="data-point" style="animation-delay: 2.85s" />
    <circle cx="662.4242424242425" cy="124.25499231950843" r="4" fill="#6b63ff" class="data-point" style="animation-delay: 2.90s" />
    <circle cx="683.9393939393939" cy="116.68063119676023" r="4" fill="#6b63ff" class="data-point" style="animation-delay: 2.95s" />
  </g>
</svg>