<svg xmlns="http://www.w3.org/2000/svg" viewBox="0 0 800 400" width="800" height="400">
  <style>
    @keyframes drawLine {
      to { stroke-dashoffset: 0; }
    }
    @keyframes fadeInPoint {
      from { opacity: 0; }
      to { opacity: 1; }
    }
    .data-line-0 {
      stroke-dasharray: 1060;
      stroke-dashoffset: 1060;
      animation: drawLine 2s ease-out forwards;
    }
    .data-point {
      opacity: 0;
      animation: fadeInPoint 0.5s ease-out forwards;
    }
    .chart-bg { fill: #fff; }
    .chart-text { fill: #24292e; }
    .chart-muted { fill: #6a737d; }
    .chart-grid { stroke: #eee; }
    .chart-axis { stroke: #6a737d; }
    @media (prefers-color-scheme: dark) {
      .chart-bg { fill: #0d1117; }
      .chart-text { fill: #e6edf3; }
      .chart-muted { fill: #8b949e; }
      .chart-grid { stroke: #21262d; }
      .chart-axis { stroke: #8b949e; }
    }
  </style>
  <rect width="800" height="400" class="chart-bg" />
  <text x="400" y="14" text-anchor="middle" class="chart-text" font-size="16" font-weight="bold" font-family="-apple-system, BlinkMacSystemFont, 'Segoe UI', Helvetica, Arial, sans-serif">Growth Forecast</text>
  <g class="legend">
    <rect x="220" y="31" width="12" height="3" fill="#6b63ff" />
    <line x1="220" y1="32.5" x2="232" y2="32.5" stroke="#6b63ff" stroke-width="2" />
    <text x="236" y="36" class="chart-text" font-size="10" font-family="-apple-system, BlinkMacSystemFont, 'Segoe UI', Helvetica, Arial, sans-serif">Star History</text>
    <rect x="340" y="31" width="12" height="3" fill="#28a745" rx="1" />
    <line x1="340" y1="32.5" x2="352" y2="32.5" stroke="#28a745" stroke-width="2" stroke-dasharray="4,2" />
    <text x="356" y="36" class="chart-text" font-size="10" font-family="-apple-system, BlinkMacSystemFont, 'Segoe UI', Helvetica, Arial, sans-serif">Linear Regression</text>
    <rect x="460" y="31" width="12" height="3" fill="#d73a49" rx="1" />
    <line x1="460" y1="32.5" x2="472" y2="32.5" stroke="#d73a49" stroke-width="2" stroke-dasharray="4,2" />
    <text x="476" y="36" class="chart-text" font-size="10" font-family="-apple-system, BlinkMacSystemFont, 'Segoe UI', Helvetica, Arial, sans-serif">Weighted Moving Average</text>
  </g>
  <g class="grid">
    <line x1="60" y1="350" x2="770" y2="350" class="chart-grid" stroke-opacity="0.3" />
    <text x="778" y="354" text-anchor="start" class="chart-muted" font-size="11" font-family="-apple-system, BlinkMacSystemFont, 'Segoe UI', Helvetica, Arial, sans-serif">0</text>
    <line x1="60" y1="294.3615018685262" x2="770" y2="294.3615018685262" class="chart-grid" stroke-opacity="0.3" />
    <text x="778" y="298.3615018685262" text-anchor="start" class="chart-muted" font-size="11" font-family="-apple-system, BlinkMacSystemFont, 'Segoe UI', Helvetica, Arial, sans-serif">20K</text>
    <line x1="60" y1="238.72300373705247" x2="770" y2="238.72300373705247" class="chart-grid" stroke-opacity="0.3" />
    <text x="778" y="242.72300373705247" text-anchor="start" class="chart-muted" font-size="11" font-family="-apple-system, BlinkMacSystemFont, 'Segoe UI', Helvetica, Arial, sans-serif">40K</text>
    <line x1="60" y1="183.0845056055787" x2="770" y2="183.0845056055787" class="chart-grid" stroke-opacity="0.3" />
    <text x="778" y="187.0845056055787" text-anchor="start" class="chart-muted" font-size="11" font-family="-apple-system, BlinkMacSystemFont, 'Segoe UI', Helvetica, Arial, sans-serif">60K</text>
    <line x1="60" y1="127.4460074741049" x2="770" y2="127.4460074741049" class="chart-grid" stroke-opacity="0.3" />
    <text x="778" y="131.4460074741049" text-anchor="start" class="chart-muted" font-size="11" font-family="-apple-system, BlinkMacSystemFont, 'Segoe UI', Helvetica, Arial, sans-serif">80K</text>
    <line x1="60" y1="71.80750934263114" x2="770" y2="71.80750934263114" class="chart-grid" stroke-opacity="0.3" />
    <text x="778" y="75.80750934263114" text-anchor="start" class="chart-muted" font-size="11" font-family="-apple-system, BlinkMacSystemFont, 'Segoe UI', Helvetica, Arial, sans-serif">100K</text>
  </g>
  <g class="milestones">
    
  </g>
  <g class="x-axis">
    <text x="60" y="370" text-anchor="middle" class="chart-muted" font-size="11" font-family="-apple-system, BlinkMacSystemFont, 'Segoe UI', Helvetica, Arial, sans-serif">Apr 1</text>
    <text x="146.06060606060606" y="370" text-anchor="middle" class="chart-muted" font-size="11" font-family="-apple-system, BlinkMacSystemFont, 'Segoe UI', Helvetica, Arial, sans-serif">Sep 12</text>
    <text x="232.12121212121212" y="370" text-anchor="middle" class="chart-muted" font-size="11" font-family="-apple-system, BlinkMacSystemFont, 'Segoe UI', Helvetica, Arial, sans-serif">Feb 23</text>
    <text x="318.1818181818182" y="370" text-anchor="middle" class="chart-muted" font-size="11" font-family="-apple-system, BlinkMacSystemFont, 'Segoe UI', Helvetica, Arial, sans-serif">Aug 5</text>
    <text x="404.24242424242425" y="370" text-anchor="middle" class="chart-muted" font-size="11" font-family="-apple-system, BlinkMacSystemFont, 'Segoe UI', Helvetica, Arial, sans-serif">Jan 15</text>
    <text x="490.3030303030303" y="370" text-anchor="middle" class="chart-muted" font-size="11" font-family="-apple-system, BlinkMacSystemFont, 'Segoe UI', Helvetica, Arial, sans-serif">Jun 28</text>
    <text x="576.3636363636364" y="370" text-anchor="middle" class="chart-muted" font-size="11" font-family="-apple-system, BlinkMacSystemFont, 'Segoe UI', Helvetica, Arial, sans-serif">Dec 9</text>
    <text x="662.4242424242425" y="370" text-anchor="middle" class="chart-muted" font-size="11" font-family="-apple-system, BlinkMacSystemFont, 'Segoe UI', Helvetica, Arial, sans-serif">May 22</text>
    <text x="748.4848484848485" y="370" text-anchor="middle" class="chart-muted" font-size="11" font-family="-apple-system, BlinkMacSystemFont, 'Segoe UI', Helvetica, Arial, sans-serif">Week 3</text>
    <text x="770" y="370" text-anchor="middle" class="chart-muted" font-size="11" font-family="-apple-system, BlinkMacSystemFont, 'Segoe UI', Helvetica, Arial, sans-serif">Week 4</text>
  </g>
  <line x1="770" y1="50" x2="770" y2="350" class="chart-axis" stroke-width="1" />
  <line x1="60" y1="350" x2="770" y2="350" class="chart-axis" stroke-width="1" />
  <path d="M60,350 L60,349.99721807509343 C67.17171717171718,349.621658212706 74.34343434343434,349.0874853450059 81.51515151515152,348.87053848793107 C88.68686868686869,348.6535916308562 95.85858585858585,348.77668392576555 103.03030303030303,348.5728725229277 C110.20202020202021,348.36906112008984 117.37373737373737,347.7957881656914 124.54545454545455,347.5324326078691 C131.7171717171717,347.2690770500468 138.88888888888889,347.1494542790642 146.06060606060606,346.99273917599385 C153.23232323232324,346.8360240729235 160.4040404040404,346.71593764778976 167.57575757575756,346.5921419894472 C174.74747474747474,346.46834633110467 181.91919191919192,346.33033720556466 189.0909090909091,346.2499652259387 C196.26262626262627,346.16959324631273 203.43434343434345,346.1439902952687 210.60606060606062,345.77703799182115 C217.7777777777778,345.4100856883736 224.94949494949495,345.7611800556193 232.12121212121212,341.52347480966995 C239.2929292929293,337.2857695637206 246.46464646464645,319.5879969213364 253.63636363636363,313.48445367631376 C260.8080808080808,307.3809104312911 267.979797979798,307.4476766290489 275.1515151515151,304.90221533953394 C282.3232323232323,302.356754050019 289.4949494949495,300.092267176068 296.66666666666663,298.2116859392242 C303.83838383838383,296.3311047023804 311.010101010101,294.07334669886706 318.1818181818182,293.61872791847105 C325.35353535353534,293.16410913807505 332.52525252525254,293.1776483842318 339.6969696969697,292.95384786579996 C346.8686868686869,292.7300473473681 354.04040404040404,292.9487821891103 361.21212121212125,288.0075853819119 C368.3838383838384,283.06638857471347 375.55555555555554,235.12775889953426 382.7272727272727,228.68303674922802 C389.8989898989899,222.23831459892176 397.07070707070704,223.51172532488303 404.24242424242425,222.08152894592865 C411.4141414141414,220.65133256697428 418.5858585858586,216.32016246441455 425.75757575757575,214.05289366555698 C432.9292929292929,211.7856248666994 440.1010101010101,209.94352692439654 447.27272727272725,208.4779161527833 C454.44444444444446,207.01230538117008 461.6161616161616,206.57276124593145 468.7878787878788,205.25922903587755 C475.95959595959596,203.9456968258237 483.13131313131316,204.06531959680632 490.3030303030303,200.59672289246004 C497.47474747474746,197.12812618811375 504.64646464646466,189.63964799376848 511.8181818181818,184.44764880979977 C518.989898989899,179.2556496258311 526.1616161616162,173.33061322898018 533.3333333333333,169.44472778864787 C540.5050505050505,165.5588423483155 547.6767676767677,163.59387605597234 554.8484848484849,161.13233616780573 C562.0202020202021,158.67079627963912 569.1919191919192,157.12219141497974 576.3636363636364,154.6754884596482 C583.5353535353536,152.22878550431665 590.7070707070707,148.89418484963699 597.8787878787879,146.45211843581637 C605.0505050505051,144.01005202199576 612.2222222222222,142.58153358247017 619.3939393939394,140.02308997672458 C626.5656565656566,137.46464637097895 633.7373737373738,133.624199037454 640.909090909091,131.10145680134275 C648.0808080808082,128.5787145652315 655.2525252525253,127.23875406856519 662.4242424242425,124.88663656005713 C669.5959595959596,122.53451905154908 676.7676767676768,119.62138002021533 683.9393939393939,116.98875175029443 L683.9393939393939,350 L60,350 Z" fill="#6b63ff" fill-opacity="0.1" />
  
  
  <path d="M60,350 L60,349.99721807509343 C67.17171717171718,349.621658212706 74.34343434343434,349.0874853450059 81.51515151515152,348.87053848793107 C88.68686868686869,348.6535916308562 95.85858585858585,348.77668392576555 103.03030303030303,348.5728725229277 C110.20202020202021,348.36906112008984 117.37373737373737,347.7957881656914 124.54545454545455,347.5324326078691 C131.7171717171717,347.2690770500468 138.88888888888889,347.1494542790642 146.06060606060606,346.99273917599385 C153.23232323232324,346.8360240729235 160.4040404040404,346.71593764778976 167.57575757575756,346.5921419894472 C174.74747474747474,346.46834633110467 181.91919191919192,346.33033720556466 189.0909090909091,346.2499652259387 C196.26262626262627,346.16959324631273 203.43434343434345,346.1439902952687 210.60606060606062,345.77703799182115 C217.7777777777778,345.4100856883736 224.94949494949495,345.7611800556193 232.12121212121212,341.52347480966995 C239.2929292929293,337.2857695637206 246.46464646464645,319.5879969213364 253.63636363636363,313.48445367631376 C260.8080808080808,307.3809104312911 267.979797979798,307.4476766290489 275.1515151515151,304.90221533953394 C282.3232323232323,302.356754050019 289.4949494949495,300.092267176068 296.66666666666663,298.2116859392242 C303.83838383838383,296.3311047023804 311.010101010101,294.07334669886706 318.1818181818182,293.61872791847105 C325.35353535353534,293.16410913807505 332.52525252525254,293.1776483842318 339.6969696969697,292.95384786579996 C346.8686868686869,292.7300473473681 354.04040404040404,292.9487821891103 361.21212121212125,288.0075853819119 C368.3838383838384,283.06638857471347 375.55555555555554,235.12775889953426 382.7272727272727,228.68303674922802 C389.8989898989899,222.23831459892176 397.07070707070704,223.51172532488303 404.24242424242425,222.08152894592865 C411.4141414141414,220.65133256697428 418.5858585858586,216.32016246441455 425.75757575757575,214.05289366555698 C432.9292929292929,211.7856248666994 440.1010101010101,209.94352692439654 447.27272727272725,208.4779161527833 C454.44444444444446,207.01230538117008 461.6161616161616,206.57276124593145 468.7878787878788,205.25922903587755 C475.95959595959596,203.9456968258237 483.13131313131316,204.06531959680632 490.3030303030303,200.59672289246004 C497.47474747474746,197.12812618811375 504.64646464646466,189.63964799376848 511.8181818181818,184.44764880979977 C518.989898989899,179.2556496258311 526.1616161616162,173.33061322898018 533.3333333333333,169.44472778864787 C540.5050505050505,165.5588423483155 547.6767676767677,163.59387605597234 554.8484848484849,161.13233616780573 C562.0202020202021,158.67079627963912 569.1919191919192,157.12219141497974 576.3636363636364,154.6754884596482 C583.5353535353536,152.22878550431665 590.7070707070707,148.89418484963699 597.8787878787879,146.45211843581637 C605.0505050505051,144.01005202199576 612.2222222222222,142.58153358247017 619.3939393939394,140.02308997672458 C626.5656565656566,137.46464637097895 633.7373737373738,133.624199037454 640.909090909091,131.10145680134275 C648.0808080808082,128.5787145652315 655.2525252525253,127.23875406856519 662.4242424242425,124.88663656005713 C669.5959595959596,122.53451905154908 676.7676767676768,119.62138002021533 683.9393939393939,116.98875175029443" fill="none" stroke="#6b63ff" stroke-width="2.5" class="data-line-0" />
  <path d="M683.9393939393939,116.98875175029443 C691.1111111111111,113.12651267166795 698.2828282828282,108.89613219707154 705.4545454545454,105.40203451441499 C712.6262626262626,101.90793683175842 719.7979797979798,99.14965828689061 726.969696969697,96.02416565435507 C734.1414141414142,92.89867302181955 741.3131313131313,89.77410769758622 748.4848484848485,86.64907871920178 C755.6565656565657,83.52404974081735 762.8282828282828,80.3990207624329 770,77.27399178404846" fill="none" stroke="#28a745" stroke-width="2.5" stroke-dasharray="8,4" />
  <path d="M683.9393939393939,116.98875175029443 C691.1111111111111,113.9147247285305 698.2828282828282,110.84116136091767 705.4545454545454,107.76667068500265 C712.6262626262626,104.69218000908762 719.7979797979798,101.61629837071933 726.969696969697,98.5418076948043 C734.1414141414142,95.46731701888929 741.3131313131313,92.39375365127643 748.4848484848485,89.3197266295125 C755.6565656565657,86.24569960774858 762.8282828282828,83.17167258598465 770,80.09764556422073" fill="none" stroke="#d73a49" stroke-width="2.5" stroke-dasharray="8,4" />
  <g class="points">
    
    <circle cx="60" cy="349.99721807509343" r="4" fill="#6b63ff" class="data-point" style="animation-delay: 1.50s" />
    <circle cx="81.51515151515152" cy="348.87053848793107" r="4" fill="#6b63ff" class="data-point" style="animation-delay: 1.55s" />
    <circle cx="103.03030303030303" cy="348.5728725229277" r="4" fill="#6b63ff" class="data-point" style="animation-delay: 1.60s" />
    <circle cx="124.54545454545455" cy="347.5324326078691" r="4" fill="#6b63ff" class="data-point" style="animation-delay: 1.65s" />
    <circle cx="146.06060606060606" cy="346.99273917599385" r="4" fill="#6b63ff" class="data-point" style="animation-delay: 1.70s" />
    <circle cx="167.57575757575756" cy="346.5921419894472" r="4" fill="#6b63ff" class="data-point" style="animation-delay: 1.75s" />
    <circle cx="189.0909090909091" cy="346.2499652259387" r="4" fill="#6b63ff" class="data-point" style="animation-delay: 1.80s" />
    <circle cx="210.60606060606062" cy="345.77703799182115" r="4" fill="#6b63ff" class="data-point" style="animation-delay: 1.85s" />
    <circle cx="232.12121212121212" cy="341.52347480966995" r="4" fill="#6b63ff" class="data-point" style="animation-delay: 1.90s" />
    <circle cx="253.63636363636363" cy="313.48445367631376" r="4" fill="#6b63ff" class="data-point" style="animation-delay: 1.95s" />
    <circle cx="275.1515151515151" cy="304.90221533953394" r="4" fill="#6b63ff" class="data-point" style="animation-delay: 2.00s" />
    <circle cx="296.66666666666663" cy="298.2116859392242" r="4" fill="#6b63ff" class="data-point" style="animation-delay: 2.05s" />
    <circle cx="318.1818181818182" cy="293.61872791847105" r="4" fill="#6b63ff" class="data-point" style="animation-delay: 2.10s" />
    <circle cx="339.6969696969697" cy="292.95384786579996" r="4" fill="#6b63ff" class="data-point" style="animation-delay: 2.15s" />
    <circle cx="361.21212121212125" cy="288.0075853819119" r="4" fill="#6b63ff" class="data-point" style="animation-delay: 2.20s" />
    <circle cx="382.7272727272727" cy="228.68303674922802" r="4" fill="#6b63ff" class="data-point" style="animation-delay: 2.25s" />
    <circle cx="404.24242424242425" cy="222.08152894592865" r="4" fill="#6b63ff" class="data-point" style="animation-delay: 2.30s" />
    <circle cx="425.75757575757575" cy="214.05289366555698" r="4" fill="#6b63ff" class="data-point" style="animation-delay: 2.35s" />
    <circle cx="447.27272727272725" cy="208.4779161527833" r="4" fill="#6b63ff" class="data-point" style="animation-delay: 2.40s" />
    <circle cx="468.7878787878788" cy="205.25922903587755" r="4" fill="#6b63ff" class="data-point" style="animation-delay: 2.45s" />
    <circle cx="490.3030303030303" cy="200.59672289246004" r="4" fill="#6b63ff" class="data-point" style="animation-delay: 2.50s" />
    <circle cx="511.8181818181818" cy="184.44764880979977" r="4" fill="#6b63ff" class="data-point" style="animation-delay: 2.55s" />
    <circle cx="533.3333333333333" cy="169.44472778864787" r="4" fill="#6b63ff" class="data-point" style="animation-delay: 2.60s" />
    <circle cx="554.8484848484849" cy="161.13233616780573" r="4" fill="#6b63ff" class="data-point" style="animation-delay: 2.65s" />
    <circle cx="576.3636363636364" cy="154.6754884596482" r="4" fill="#6b63ff" class="data-point" style="animation-delay: 2.70s" />
    <circle cx="597.8787878787879" cy="146.45211843581637" r="4" fill="#6b63ff" class="data-point" style="animation-delay: 2.75s" />
    <circle cx="619.3939393939394" cy="140.02308997672458" r="4" fill="#6b63ff" class="data-point" style="animation-delay: 2.80s" />
    <circle cx="640.909090909091" cy="131.10145680134275" r="4" fill="#6b63ff" class="data-point" style="animation-delay: 2.85s" />
    <circle cx="662.4242424242425" cy="124.88663656005713" r="4" fill="#6b63ff" class="data-point" style="animation-delay: 2.90s" />
    <circle cx="683.9393939393939" cy="116.98875175029443" r="4" fill="#6b63ff" class="data-point" style="animation-delay: 2.95s" />
  </g>
</svg>