<svg xmlns="http://www.w3.org/2000/svg" viewBox="0 0 800 400" width="800" height="400">
  <style>
    @keyframes drawLine {
      to { stroke-dashoffset: 0; }
    }
    @keyframes fadeInPoint {
      from { opacity: 0; }
      to { opacity: 1; }
    }
    .data-line-0 {
      stroke-dasharray: 1060;
      stroke-dashoffset: 1060;
      animation: drawLine 2s ease-out forwards;
    }
    .data-point {
      opacity: 0;
      animation: fadeInPoint 0.5s ease-out forwards;
    }
    .chart-bg { fill: #fff; }
    .chart-text { fill: #24292e; }
    .chart-muted { fill: #6a737d; }
    .chart-grid { stroke: #eee; }
    .chart-axis { stroke: #6a737d; }
    @media (prefers-color-scheme: dark) {
      .chart-bg { fill: #0d1117; }
      .chart-text { fill: #e6edf3; }
      .chart-muted { fill: #8b949e; }
      .chart-grid { stroke: #21262d; }
      .chart-axis { stroke: #8b949e; }
    }
  </style>
  <rect width="800" height="400" class="chart-bg" />
  <text x="400" y="14" text-anchor="middle" class="chart-text" font-size="16" font-weight="bold" font-family="-apple-system, BlinkMacSystemFont, 'Segoe UI', Helvetica, Arial, sans-serif">Growth Forecast</text>
  <g class="legend">
    <rect x="220" y="31" width="12" height="3" fill="#6b63ff" />
    <line x1="220" y1="32.5" x2="232" y2="32.5" stroke="#6b63ff" stroke-width="2" />
    <text x="236" y="36" class="chart-text" font-size="10" font-family="-apple-system, BlinkMacSystemFont, 'Segoe UI', Helvetica, Arial, sans-serif">Star History</text>
    <rect x="340" y="31" width="12" height="3" fill="#28a745" rx="1" />
    <line x1="340" y1="32.5" x2="352" y2="32.5" stroke="#28a745" stroke-width="2" stroke-dasharray="4,2" />
    <text x="356" y="36" class="chart-text" font-size="10" font-family="-apple-system, BlinkMacSystemFont, 'Segoe UI', Helvetica, Arial, sans-serif">Linear Regression</text>
    <rect x="460" y="31" width="12" height="3" fill="#d73a49" rx="1" />
    <line x1="460" y1="32.5" x2="472" y2="32.5" stroke="#d73a49" stroke-width="2" stroke-dasharray="4,2" />
    <text x="476" y="36" class="chart-text" font-size="10" font-family="-apple-system, BlinkMacSystemFont, 'Segoe UI', Helvetica, Arial, sans-serif">Weighted Moving Average</text>
  </g>
  <g class="grid">
    <line x1="60" y1="350" x2="770" y2="350" class="chart-grid" stroke-opacity="0.3" />
    <text x="778" y="354" text-anchor="start" class="chart-muted" font-size="11" font-family="-apple-system, BlinkMacSystemFont, 'Segoe UI', Helvetica, Arial, sans-serif">0</text>
    <line x1="60" y1="294.0204511951634" x2="770" y2="294.0204511951634" class="chart-grid" stroke-opacity="0.3" />
    <text x="778" y="298.0204511951634" text-anchor="start" class="chart-muted" font-size="11" font-family="-apple-system, BlinkMacSystemFont, 'Segoe UI', Helvetica, Arial, sans-serif">20K</text>
    <line x1="60" y1="238.04090239032672" x2="770" y2="238.04090239032672" class="chart-grid" stroke-opacity="0.3" />
    <text x="778" y="242.04090239032672" text-anchor="start" class="chart-muted" font-size="11" font-family="-apple-system, BlinkMacSystemFont, 'Segoe UI', Helvetica, Arial, sans-serif">40K</text>
    <line x1="60" y1="182.0613535854901" x2="770" y2="182.0613535854901" class="chart-grid" stroke-opacity="0.3" />
    <text x="778" y="186.0613535854901" text-anchor="start" class="chart-muted" font-size="11" font-family="-apple-system, BlinkMacSystemFont, 'Segoe UI', Helvetica, Arial, sans-serif">60K</text>
    <line x1="60" y1="126.08180478065347" x2="770" y2="126.08180478065347" class="chart-grid" stroke-opacity="0.3" />
    <text x="778" y="130.08180478065347" text-anchor="start" class="chart-muted" font-size="11" font-family="-apple-system, BlinkMacSystemFont, 'Segoe UI', Helvetica, Arial, sans-serif">80K</text>
    <line x1="60" y1="70.10225597581683" x2="770" y2="70.10225597581683" class="chart-grid" stroke-opacity="0.3" />
    <text x="778" y="74.10225597581683" text-anchor="start" class="chart-muted" font-size="11" font-family="-apple-system, BlinkMacSystemFont, 'Segoe UI', Helvetica, Arial, sans-serif">100K</text>
  </g>
  <g class="milestones">
    
  </g>
  <g class="x-axis">
    <text x="60" y="370" text-anchor="middle" class="chart-muted" font-size="11" font-family="-apple-system, BlinkMacSystemFont, 'Segoe UI', Helvetica, Arial, sans-serif">Apr 1</text>
    <text x="146.06060606060606" y="370" text-anchor="middle" class="chart-muted" font-size="11" font-family="-apple-system, BlinkMacSystemFont, 'Segoe UI', Helvetica, Arial, sans-serif">Sep 11</text>
    <text x="232.12121212121212" y="370" text-anchor="middle" class="chart-muted" font-size="11" font-family="-apple-system, BlinkMacSystemFont, 'Segoe UI', Helvetica, Arial, sans-serif">Feb 22</text>
    <text x="318.1818181818182" y="370" text-anchor="middle" class="chart-muted" font-size="11" font-family="-apple-system, BlinkMacSystemFont, 'Segoe UI', Helvetica, Arial, sans-serif">Aug 3</text>
    <text x="404.24242424242425" y="370" text-anchor="middle" class="chart-muted" font-size="11" font-family="-apple-system, BlinkMacSystemFont, 'Segoe UI', Helvetica, Arial, sans-serif">Jan 13</text>
    <text x="490.3030303030303" y="370" text-anchor="middle" class="chart-muted" font-size="11" font-family="-apple-system, BlinkMacSystemFont, 'Segoe UI', Helvetica, Arial, sans-serif">Jun 25</text>
    <text x="576.3636363636364" y="370" text-anchor="middle" class="chart-muted" font-size="11" font-family="-apple-system, BlinkMacSystemFont, 'Segoe UI', Helvetica, Arial, sans-serif">Dec 5</text>
    <text x="662.4242424242425" y="370" text-anchor="middle" class="chart-muted" font-size="11" font-family="-apple-system, BlinkMacSystemFont, 'Segoe UI', Helvetica, Arial, sans-serif">May 17</text>
    <text x="748.4848484848485" y="370" text-anchor="middle" class="chart-muted" font-size="11" font-family="-apple-system, BlinkMacSystemFont, 'Segoe UI', Helvetica, Arial, sans-serif">Week 3</text>
    <text x="770" y="370" text-anchor="middle" class="chart-muted" font-size="11" font-family="-apple-system, BlinkMacSystemFont, 'Segoe UI', Helvetica, Arial, sans-serif">Week 4</text>
  </g>
  <line x1="770" y1="50" x2="770" y2="350" class="chart-axis" stroke-width="1" />
  <line x1="60" y1="350" x2="770" y2="350" class="chart-axis" stroke-width="1" />
  <path d="M60,350 L60,349.99720102255975 C67.17171717171718,349.6193390681271 74.34343434343434,349.08253089095814 81.51515151515152,348.8636151592618 C88.68686868686869,348.6446994275655 95.85858585858585,348.7685029320443 103.03030303030303,348.56412457315594 C110.20202020202021,348.35974621426755 117.37373737373737,347.7902073109291 124.54545454545455,347.5257039428262 C131.7171717171717,347.2612005747234 138.88888888888889,347.1361795823926 146.06060606060606,346.97710436453883 C153.23232323232324,346.8180291466851 160.4040404040404,346.6948741393144 167.57575757575756,346.57125263570373 C174.74747474747474,346.447631132093 181.91919191919192,346.3177611855508 189.0909090909091,346.23537534287476 C196.26262626262627,346.1529895001987 203.43434343434345,346.1263159169634 210.60606060606062,345.7511522457129 C217.7777777777778,345.3759885744624 224.94949494949495,345.73462237406864 232.12121212121212,341.48551062678433 C239.2929292929293,337.23639887950003 246.46464646464645,319.4654886081618 253.63636363636363,313.32499860051126 C260.8080808080808,307.1845085928607 267.979797979798,307.187774066541 275.1515151515151,304.6425705808811 C282.3232323232323,302.0973670952212 289.4949494949495,299.9337575339143 296.66666666666663,298.0537776865518 C303.83838383838383,296.1737978391894 311.010101010101,293.83571456927103 318.1818181818182,293.36269149670653 C325.35353535353534,292.88966842414203 332.52525252525254,292.90287960689915 339.6969696969697,292.6909369110485 C346.8686868686869,292.4789942151978 354.04040404040404,292.68619203610615 361.21212121212125,287.9550670821593 C368.3838383838384,283.2239421282125 375.55555555555554,235.24547498342093 382.7272727272727,228.80707581496893 C389.8989898989899,222.3686766465169 397.07070707070704,223.6879107434951 404.24242424242425,222.19869007855797 C411.4141414141414,220.70946941362084 418.5858585858586,215.83894683808848 425.75757575757575,213.5974324046948 C432.9292929292929,211.35591797130115 440.1010101010101,210.11270549159372 447.27272727272725,208.74960347819595 C454.44444444444446,207.3865014647982 461.6161616161616,206.74320314978263 468.7878787878788,205.4188203243082 C475.95959595959596,204.09443749883377 483.13131313131316,204.25864417532796 490.3030303030303,200.8033065253494 C497.47474747474746,197.34796887537084 504.64646464646466,189.82338452352073 511.8181818181818,184.68679442443693 C518.989898989899,179.55020432535312 526.1616161616162,173.81649903901774 533.3333333333333,169.9837659308466 C540.5050505050505,166.15103282267543 547.6767676767677,164.4665148998899 554.8484848484849,161.69039577541002 C562.0202020202021,158.91427665093016 569.1919191919192,155.76636002313822 576.3636363636364,153.32705118396746 C583.5353535353536,150.8877423447967 590.7070707070707,149.38189248194658 597.8787878787879,147.0545427403855 C605.0505050505051,144.72719299882442 612.2222222222222,141.89276184433956 619.3939393939394,139.36295273460098 C626.5656565656566,136.8331436248624 633.7373737373738,134.3714429661697 640.909090909091,131.87568808195405 C648.0808080808082,129.37993319773844 655.2525252525253,126.89957268944414 662.4242424242425,124.38842342930718 C669.5959595959596,121.87727416917022 676.7676767676768,119.33533615719058 683.9393939393939,116.80879252113229 L683.9393939393939,350 L60,350 Z" fill="#6b63ff" fill-opacity="0.1" />
  
  
  <path d="M60,350 L60,349.99720102255975 C67.17171717171718,349.6193390681271 74.34343434343434,349.08253089095814 81.51515151515152,348.8636151592618 C88.68686868686869,348.6446994275655 95.85858585858585,348.7685029320443 103.03030303030303,348.56412457315594 C110.20202020202021,348.35974621426755 117.37373737373737,347.7902073109291 124.54545454545455,347.5257039428262 C131.7171717171717,347.2612005747234 138.88888888888889,347.1361795823926 146.06060606060606,346.97710436453883 C153.23232323232324,346.8180291466851 160.4040404040404,346.6948741393144 167.57575757575756,346.57125263570373 C174.74747474747474,346.447631132093 181.91919191919192,346.3177611855508 189.0909090909091,346.23537534287476 C196.26262626262627,346.1529895001987 203.43434343434345,346.1263159169634 210.60606060606062,345.7511522457129 C217.7777777777778,345.3759885744624 224.94949494949495,345.73462237406864 232.12121212121212,341.48551062678433 C239.2929292929293,337.23639887950003 246.46464646464645,319.4654886081618 253.63636363636363,313.32499860051126 C260.8080808080808,307.1845085928607 267.979797979798,307.187774066541 275.1515151515151,304.6425705808811 C282.3232323232323,302.0973670952212 289.4949494949495,299.9337575339143 296.66666666666663,298.0537776865518 C303.83838383838383,296.1737978391894 311.010101010101,293.83571456927103 318.1818181818182,293.36269149670653 C325.35353535353534,292.88966842414203 332.52525252525254,292.90287960689915 339.6969696969697,292.6909369110485 C346.8686868686869,292.4789942151978 354.04040404040404,292.68619203610615 361.21212121212125,287.9550670821593 C368.3838383838384,283.2239421282125 375.55555555555554,235.24547498342093 382.7272727272727,228.80707581496893 C389.8989898989899,222.3686766465169 397.07070707070704,223.6879107434951 404.24242424242425,222.19869007855797 C411.4141414141414,220.70946941362084 418.5858585858586,215.83894683808848 425.75757575757575,213.5974324046948 C432.9292929292929,211.35591797130115 440.1010101010101,210.11270549159372 447.27272727272725,208.74960347819595 C454.44444444444446,207.3865014647982 461.6161616161616,206.74320314978263 468.7878787878788,205.4188203243082 C475.95959595959596,204.09443749883377 483.13131313131316,204.25864417532796 490.3030303030303,200.8033065253494 C497.47474747474746,197.34796887537084 504.64646464646466,189.82338452352073 511.8181818181818,184.68679442443693 C518.989898989899,179.55020432535312 526.1616161616162,173.81649903901774 533.3333333333333,169.9837659308466 C540.5050505050505,166.15103282267543 547.6767676767677,164.4665148998899 554.8484848484849,161.69039577541002 C562.0202020202021,158.91427665093016 569.1919191919192,155.76636002313822 576.3636363636364,153.32705118396746 C583.5353535353536,150.8877423447967 590.7070707070707,149.38189248194658 597.8787878787879,147.0545427403855 C605.0505050505051,144.72719299882442 612.2222222222222,141.89276184433956 619.3939393939394,139.36295273460098 C626.5656565656566,136.8331436248624 633.7373737373738,134.3714429661697 640.909090909091,131.87568808195405 C648.0808080808082,129.37993319773844 655.2525252525253,126.89957268944414 662.4242424242425,124.38842342930718 C669.5959595959596,121.87727416917022 676.7676767676768,119.33533615719058 683.9393939393939,116.80879252113229" fill="none" stroke="#6b63ff" stroke-width="2.5" class="data-line-0" />
  <path d="M683.9393939393939,116.80879252113229 C691.1111111111111,113.00498217984364 698.2828282828282,108.86156257580564 705.4545454545454,105.39736149726633 C712.6262626262626,101.93316041872701 719.7979797979798,99.14864436192646 726.969696969697,96.02358604989644 C734.1414141414142,92.89852773786644 741.3131313131313,89.7720699371163 748.4848484848485,86.6470116250863 C755.6565656565657,83.52195331305629 762.8282828282828,80.39782799350637 770,77.2732361777164" fill="none" stroke="#28a745" stroke-width="2.5" stroke-dasharray="8,4" />
  <path d="M683.9393939393939,116.80879252113229 C691.1111111111111,113.73085032934635 698.2828282828282,110.65290813756042 705.4545454545454,107.5749659457745 C712.6262626262626,104.49702375398856 719.7979797979798,101.4186150659626 726.969696969697,98.3411393704167 C734.1414141414142,95.26366367487081 741.3131313131313,92.18758746804502 748.4848484848485,89.11011177249912 C755.6565656565657,86.03263607695322 762.8282828282828,82.95422738892726 770,79.87628519714133" fill="none" stroke="#d73a49" stroke-width="2.5" stroke-dasharray="8,4" />
  <g class="points">
    
    <circle cx="60" cy="349.99720102255975" r="4" fill="#6b63ff" class="data-point" style="animation-delay: 1.50s" />
    <circle cx="81.51515151515152" cy="348.8636151592618" r="4" fill="#6b63ff" class="data-point" style="animation-delay: 1.55s" />
    <circle cx="103.03030303030303" cy="348.56412457315594" r="4" fill="#6b63ff" class="data-point" style="animation-delay: 1.60s" />
    <circle cx="124.54545454545455" cy="347.5257039428262" r="4" fill="#6b63ff" class="data-point" style="animation-delay: 1.65s" />
    <circle cx="146.06060606060606" cy="346.97710436453883" r="4" fill="#6b63ff" class="data-point" style="animation-delay: 1.70s" />
    <circle cx="167.57575757575756" cy="346.57125263570373" r="4" fill="#6b63ff" class="data-point" style="animation-delay: 1.75s" />
    <circle cx="189.0909090909091" cy="346.23537534287476" r="4" fill="#6b63ff" class="data-point" style="animation-delay: 1.80s" />
    <circle cx="210.60606060606062" cy="345.7511522457129" r="4" fill="#6b63ff" class="data-point" style="animation-delay: 1.85s" />
    <circle cx="232.12121212121212" cy="341.48551062678433" r="4" fill="#6b63ff" class="data-point" style="animation-delay: 1.90s" />
    <circle cx="253.63636363636363" cy="313.32499860051126" r="4" fill="#6b63ff" class="data-point" style="animation-delay: 1.95s" />
    <circle cx="275.1515151515151" cy="304.6425705808811" r="4" fill="#6b63ff" class="data-point" style="animation-delay: 2.00s" />
    <circle cx="296.66666666666663" cy="298.0537776865518" r="4" fill="#6b63ff" class="data-point" style="animation-delay: 2.05s" />
    <circle cx="318.1818181818182" cy="293.36269149670653" r="4" fill="#6b63ff" class="data-point" style="animation-delay: 2.10s" />
    <circle cx="339.6969696969697" cy="292.6909369110485" r="4" fill="#6b63ff" class="data-point" style="animation-delay: 2.15s" />
    <circle cx="361.21212121212125" cy="287.9550670821593" r="4" fill="#6b63ff" class="data-point" style="animation-delay: 2.20s" />
    <circle cx="382.7272727272727" cy="228.80707581496893" r="4" fill="#6b63ff" class="data-point" style="animation-delay: 2.25s" />
    <circle cx="404.24242424242425" cy="222.19869007855797" r="4" fill="#6b63ff" class="data-point" style="animation-delay: 2.30s" />
    <circle cx="425.75757575757575" cy="213.5974324046948" r="4" fill="#6b63ff" class="data-point" style="animation-delay: 2.35s" />
    <circle cx="447.27272727272725" cy="208.74960347819595" r="4" fill="#6b63ff" class="data-point" style="animation-delay: 2.40s" />
    <circle cx="468.7878787878788" cy="205.4188203243082" r="4" fill="#6b63ff" class="data-point" style="animation-delay: 2.45s" />
    <circle cx="490.3030303030303" cy="200.8033065253494" r="4" fill="#6b63ff" class="data-point" style="animation-delay: 2.50s" />
    <circle cx="511.8181818181818" cy="184.68679442443693" r="4" fill="#6b63ff" class="data-point" style="animation-delay: 2.55s" />
    <circle cx="533.3333333333333" cy="169.9837659308466" r="4" fill="#6b63ff" class="data-point" style="animation-delay: 2.60s" />
    <circle cx="554.8484848484849" cy="161.69039577541002" r="4" fill="#6b63ff" class="data-point" style="animation-delay: 2.65s" />
    <circle cx="576.3636363636364" cy="153.32705118396746" r="4" fill="#6b63ff" class="data-point" style="animation-delay: 2.70s" />
    <circle cx="597.8787878787879" cy="147.0545427403855" r="4" fill="#6b63ff" class="data-point" style="animation-delay: 2.75s" />
    <circle cx="619.3939393939394" cy="139.36295273460098" r="4" fill="#6b63ff" class="data-point" style="animation-delay: 2.80s" />
    <circle cx="640.909090909091" cy="131.87568808195405" r="4" fill="#6b63ff" class="data-point" style="animation-delay: 2.85s" />
    <circle cx="662.4242424242425" cy="124.38842342930718" r="4" fill="#6b63ff" class="data-point" style="animation-delay: 2.90s" />
    <circle cx="683.9393939393939" cy="116.80879252113229" r="4" fill="#6b63ff" class="data-point" style="animation-delay: 2.95s" />
  </g>
</svg>