<svg xmlns="http://www.w3.org/2000/svg" viewBox="0 0 800 400" width="800" height="400">
  <style>
    @keyframes drawLine {
      to { stroke-dashoffset: 0; }
    }
    @keyframes fadeInPoint {
      from { opacity: 0; }
      to { opacity: 1; }
    }
    .data-line-0 {
      stroke-dasharray: 1060;
      stroke-dashoffset: 1060;
      animation: drawLine 2s ease-out forwards;
    }
    .data-point {
      opacity: 0;
      animation: fadeInPoint 0.5s ease-out forwards;
    }
    .chart-bg { fill: #fff; }
    .chart-text { fill: #24292e; }
    .chart-muted { fill: #6a737d; }
    .chart-grid { stroke: #eee; }
    .chart-axis { stroke: #6a737d; }
    @media (prefers-color-scheme: dark) {
      .chart-bg { fill: #0d1117; }
      .chart-text { fill: #e6edf3; }
      .chart-muted { fill: #8b949e; }
      .chart-grid { stroke: #21262d; }
      .chart-axis { stroke: #8b949e; }
    }
  </style>
  <rect width="800" height="400" class="chart-bg" />
  <text x="400" y="14" text-anchor="middle" class="chart-text" font-size="16" font-weight="bold" font-family="-apple-system, BlinkMacSystemFont, 'Segoe UI', Helvetica, Arial, sans-serif">Growth Forecast</text>
  <g class="legend">
    <rect x="220" y="31" width="12" height="3" fill="#6b63ff" />
    <line x1="220" y1="32.5" x2="232" y2="32.5" stroke="#6b63ff" stroke-width="2" />
    <text x="236" y="36" class="chart-text" font-size="10" font-family="-apple-system, BlinkMacSystemFont, 'Segoe UI', Helvetica, Arial, sans-serif">Star History</text>
    <rect x="340" y="31" width="12" height="3" fill="#28a745" rx="1" />
    <line x1="340" y1="32.5" x2="352" y2="32.5" stroke="#28a745" stroke-width="2" stroke-dasharray="4,2" />
    <text x="356" y="36" class="chart-text" font-size="10" font-family="-apple-system, BlinkMacSystemFont, 'Segoe UI', Helvetica, Arial, sans-serif">Linear Regression</text>
    <rect x="460" y="31" width="12" height="3" fill="#d73a49" rx="1" />
    <line x1="460" y1="32.5" x2="472" y2="32.5" stroke="#d73a49" stroke-width="2" stroke-dasharray="4,2" />
    <text x="476" y="36" class="chart-text" font-size="10" font-family="-apple-system, BlinkMacSystemFont, 'Segoe UI', Helvetica, Arial, sans-serif">Weighted Moving Average</text>
  </g>
  <g class="grid">
    <line x1="60" y1="350" x2="770" y2="350" class="chart-grid" stroke-opacity="0.3" />
    <text x="778" y="354" text-anchor="start" class="chart-muted" font-size="11" font-family="-apple-system, BlinkMacSystemFont, 'Segoe UI', Helvetica, Arial, sans-serif">0</text>
    <line x1="60" y1="294.01209338782826" x2="770" y2="294.01209338782826" class="chart-grid" stroke-opacity="0.3" />
    <text x="778" y="298.01209338782826" text-anchor="start" class="chart-muted" font-size="11" font-family="-apple-system, BlinkMacSystemFont, 'Segoe UI', Helvetica, Arial, sans-serif">20K</text>
    <line x1="60" y1="238.02418677565646" x2="770" y2="238.02418677565646" class="chart-grid" stroke-opacity="0.3" />
    <text x="778" y="242.02418677565646" text-anchor="start" class="chart-muted" font-size="11" font-family="-apple-system, BlinkMacSystemFont, 'Segoe UI', Helvetica, Arial, sans-serif">40K</text>
    <line x1="60" y1="182.0362801634847" x2="770" y2="182.0362801634847" class="chart-grid" stroke-opacity="0.3" />
    <text x="778" y="186.0362801634847" text-anchor="start" class="chart-muted" font-size="11" font-family="-apple-system, BlinkMacSystemFont, 'Segoe UI', Helvetica, Arial, sans-serif">60K</text>
    <line x1="60" y1="126.04837355131292" x2="770" y2="126.04837355131292" class="chart-grid" stroke-opacity="0.3" />
    <text x="778" y="130.04837355131292" text-anchor="start" class="chart-muted" font-size="11" font-family="-apple-system, BlinkMacSystemFont, 'Segoe UI', Helvetica, Arial, sans-serif">80K</text>
    <line x1="60" y1="70.06046693914112" x2="770" y2="70.06046693914112" class="chart-grid" stroke-opacity="0.3" />
    <text x="778" y="74.06046693914112" text-anchor="start" class="chart-muted" font-size="11" font-family="-apple-system, BlinkMacSystemFont, 'Segoe UI', Helvetica, Arial, sans-serif">100K</text>
  </g>
  <g class="milestones">
    
  </g>
  <g class="x-axis">
    <text x="60" y="370" text-anchor="middle" class="chart-muted" font-size="11" font-family="-apple-system, BlinkMacSystemFont, 'Segoe UI', Helvetica, Arial, sans-serif">Apr 1</text>
    <text x="146.06060606060606" y="370" text-anchor="middle" class="chart-muted" font-size="11" font-family="-apple-system, BlinkMacSystemFont, 'Segoe UI', Helvetica, Arial, sans-serif">Sep 11</text>
    <text x="232.12121212121212" y="370" text-anchor="middle" class="chart-muted" font-size="11" font-family="-apple-system, BlinkMacSystemFont, 'Segoe UI', Helvetica, Arial, sans-serif">Feb 21</text>
    <text x="318.1818181818182" y="370" text-anchor="middle" class="chart-muted" font-size="11" font-family="-apple-system, BlinkMacSystemFont, 'Segoe UI', Helvetica, Arial, sans-serif">Aug 3</text>
    <text x="404.24242424242425" y="370" text-anchor="middle" class="chart-muted" font-size="11" font-family="-apple-system, BlinkMacSystemFont, 'Segoe UI', Helvetica, Arial, sans-serif">Jan 13</text>
    <text x="490.3030303030303" y="370" text-anchor="middle" class="chart-muted" font-size="11" font-family="-apple-system, BlinkMacSystemFont, 'Segoe UI', Helvetica, Arial, sans-serif">Jun 25</text>
    <text x="576.3636363636364" y="370" text-anchor="middle" class="chart-muted" font-size="11" font-family="-apple-system, BlinkMacSystemFont, 'Segoe UI', Helvetica, Arial, sans-serif">Dec 5</text>
    <text x="662.4242424242425" y="370" text-anchor="middle" class="chart-muted" font-size="11" font-family="-apple-system, BlinkMacSystemFont, 'Segoe UI', Helvetica, Arial, sans-serif">May 17</text>
    <text x="748.4848484848485" y="370" text-anchor="middle" class="chart-muted" font-size="11" font-family="-apple-system, BlinkMacSystemFont, 'Segoe UI', Helvetica, Arial, sans-serif">Week 3</text>
    <text x="770" y="370" text-anchor="middle" class="chart-muted" font-size="11" font-family="-apple-system, BlinkMacSystemFont, 'Segoe UI', Helvetica, Arial, sans-serif">Week 4</text>
  </g>
  <line x1="770" y1="50" x2="770" y2="350" class="chart-axis" stroke-width="1" />
  <line x1="60" y1="350" x2="770" y2="350" class="chart-axis" stroke-width="1" />
  <path d="M60,350 L60,349.9972006046694 C62.86868686868687,349.84566000410575 75.77777777777777,349.0517514883452 81.51515151515152,348.8606461004423 C87.25252525252526,348.6695407125394 97.29292929292929,348.7419517384245 103.03030303030303,348.5639101953978 C108.76767676767678,348.3858686523711 118.8080808080808,347.73696881473603 124.54545454545455,347.525334527742 C130.2828282828283,347.313700240748 140.32323232323233,347.1039322173077 146.06060606060606,346.9766530429427 C151.7979797979798,346.8493738685777 161.83838383838383,346.6700259410634 167.57575757575756,346.5707407200045 C173.3131313131313,346.4714554989456 183.35353535353536,346.34100367653923 189.0909090909091,346.23201388500087 C194.82828282828282,346.1230240934625 204.8686868686869,346.23201388500087 210.60606060606062,345.7533172834668 C216.34343434343435,345.1202806860385 226.3838383838384,345.7533172834668 232.12121212121212,341.4842394042887 C237.85858585858585,337.1601067502753 247.8989898989899,318.2354478099397 253.63636363636363,313.32232237836627 C259.37373737373736,308.4091969467928 269.4141414141414,306.6730119627494 275.1515151515151,304.63579866748785 C280.88888888888886,302.5985853722263 290.9292929292929,299.5474310882183 296.66666666666663,298.0432226639046 C302.40404040404036,296.5390142395909 312.44444444444446,294.069387678928 318.1818181818182,293.35423548513523 C323.9191919191919,292.67958121045854 333.95959595959596,293.35423548513523 339.6969696969697,292.67958121045854 C345.4343434343434,291.95920347871527 355.4747474747475,292.67958121045854 361.21212121212125,287.95140249706066 C366.949494949495,279.4315361215311 376.98989898989896,237.5531418546927 382.7272727272727,228.7805833939869 C388.4646464646464,222.15721404176696 398.5050505050505,224.18770878823506 404.24242424242425,222.15721404176696 C409.979797979798,220.12671929529887 420.020202020202,215.3453520706194 425.75757575757575,213.55187279547619 C431.4949494949495,211.75839352033296 441.5353535353535,209.79452438273333 447.27272727272725,208.7061194781927 C453.010101010101,207.61771457365208 463.0505050505051,206.44887370994533 468.7878787878788,205.38883601142155 C474.52525252525254,204.32879831289776 484.5656565656566,203.52425209488086 490.3030303030303,200.75583673926434 C496.04040404040404,197.9874213836478 506.0808080808081,188.73560644234183 511.8181818181818,184.62572084429766 C517.5555555555555,180.5158352462535 527.5959595959595,172.9946064983297 533.3333333333333,169.93169475393313 C539.070707070707,166.86878300953657 549.1111111111111,163.87175036858704 554.8484848484849,161.65388276132356 C560.5858585858587,159.43601515406007 570.6262626262626,155.2460668495605 576.3636363636364,153.2976876994569 C582.1010101010102,151.3493085493533 592.1414141414141,148.89759811880634 597.8787878787879,147.04103913554673 C603.6161616161617,145.1844801522871 613.6565656565656,141.39092622660172 619.3939393939394,139.3734953250098 C625.1313131313132,137.35606442341788 635.1717171717172,133.90123733273614 640.909090909091,131.9103073736073 C646.6464646464648,129.91937741447848 656.6868686868688,126.43730287591212 662.4242424242425,124.44152063154357 C668.1616161616162,122.44573838717501 681.070707070707,117.94188455293656 683.9393939393939,116.94194054084318 L683.9393939393939,350 L60,350 Z" fill="#6b63ff" fill-opacity="0.1" />
  
  
  <path d="M60,350 L60,349.9972006046694 C62.86868686868687,349.84566000410575 75.77777777777777,349.0517514883452 81.51515151515152,348.8606461004423 C87.25252525252526,348.6695407125394 97.29292929292929,348.7419517384245 103.03030303030303,348.5639101953978 C108.76767676767678,348.3858686523711 118.8080808080808,347.73696881473603 124.54545454545455,347.525334527742 C130.2828282828283,347.313700240748 140.32323232323233,347.1039322173077 146.06060606060606,346.9766530429427 C151.7979797979798,346.8493738685777 161.83838383838383,346.6700259410634 167.57575757575756,346.5707407200045 C173.3131313131313,346.4714554989456 183.35353535353536,346.34100367653923 189.0909090909091,346.23201388500087 C194.82828282828282,346.1230240934625 204.8686868686869,346.23201388500087 210.60606060606062,345.7533172834668 C216.34343434343435,345.1202806860385 226.3838383838384,345.7533172834668 232.12121212121212,341.4842394042887 C237.85858585858585,337.1601067502753 247.8989898989899,318.2354478099397 253.63636363636363,313.32232237836627 C259.37373737373736,308.4091969467928 269.4141414141414,306.6730119627494 275.1515151515151,304.63579866748785 C280.88888888888886,302.5985853722263 290.9292929292929,299.5474310882183 296.66666666666663,298.0432226639046 C302.40404040404036,296.5390142395909 312.44444444444446,294.069387678928 318.1818181818182,293.35423548513523 C323.9191919191919,292.67958121045854 333.95959595959596,293.35423548513523 339.6969696969697,292.67958121045854 C345.4343434343434,291.95920347871527 355.4747474747475,292.67958121045854 361.21212121212125,287.95140249706066 C366.949494949495,279.4315361215311 376.98989898989896,237.5531418546927 382.7272727272727,228.7805833939869 C388.4646464646464,222.15721404176696 398.5050505050505,224.18770878823506 404.24242424242425,222.15721404176696 C409.979797979798,220.12671929529887 420.020202020202,215.3453520706194 425.75757575757575,213.55187279547619 C431.4949494949495,211.75839352033296 441.5353535353535,209.79452438273333 447.27272727272725,208.7061194781927 C453.010101010101,207.61771457365208 463.0505050505051,206.44887370994533 468.7878787878788,205.38883601142155 C474.52525252525254,204.32879831289776 484.5656565656566,203.52425209488086 490.3030303030303,200.75583673926434 C496.04040404040404,197.9874213836478 506.0808080808081,188.73560644234183 511.8181818181818,184.62572084429766 C517.5555555555555,180.5158352462535 527.5959595959595,172.9946064983297 533.3333333333333,169.93169475393313 C539.070707070707,166.86878300953657 549.1111111111111,163.87175036858704 554.8484848484849,161.65388276132356 C560.5858585858587,159.43601515406007 570.6262626262626,155.2460668495605 576.3636363636364,153.2976876994569 C582.1010101010102,151.3493085493533 592.1414141414141,148.89759811880634 597.8787878787879,147.04103913554673 C603.6161616161617,145.1844801522871 613.6565656565656,141.39092622660172 619.3939393939394,139.3734953250098 C625.1313131313132,137.35606442341788 635.1717171717172,133.90123733273614 640.909090909091,131.9103073736073 C646.6464646464648,129.91937741447848 656.6868686868688,126.43730287591212 662.4242424242425,124.44152063154357 C668.1616161616162,122.44573838717501 681.070707070707,117.94188455293656 683.9393939393939,116.94194054084318" fill="none" stroke="#6b63ff" stroke-width="2.5" class="data-line-0" />
  <path d="M683.9393939393939,116.94194054084318 C686.8080808080807,115.40227310900846 699.7171717171716,108.18375230950117 705.4545454545454,105.39443480208277 C711.1919191919192,102.60511729466437 721.2323232323232,98.52135938637254 726.969696969697,96.02205923520518 C732.7070707070708,93.52275908403782 742.7474747474747,89.1493570722057 748.4848484848485,86.64968366832761 C754.2222222222223,84.15001026444952 767.1313131313132,78.52453203441391 770,77.27450870611949" fill="none" stroke="#28a745" stroke-width="2.5" stroke-dasharray="8,4" />
  <path d="M683.9393939393939,116.94194054084318 C686.8080808080807,115.71207285892913 699.7171717171716,110.17766829031596 705.4545454545454,107.71793292648789 C711.1919191919192,105.25819756265982 721.2323232323232,100.95366067596069 726.969696969697,98.4939253121326 C732.7070707070708,96.03418994830452 742.7474747474747,91.72927980889459 748.4848484848485,89.26991769777726 C754.2222222222223,86.81055558665993 767.1313131313132,81.27820390795587 770,80.04870947875258" fill="none" stroke="#d73a49" stroke-width="2.5" stroke-dasharray="8,4" />
  <g class="points">
    
    <circle cx="60" cy="349.9972006046694" r="4" fill="#6b63ff" class="data-point" style="animation-delay: 1.50s" />
    <circle cx="81.51515151515152" cy="348.8606461004423" r="4" fill="#6b63ff" class="data-point" style="animation-delay: 1.55s" />
    <circle cx="103.03030303030303" cy="348.5639101953978" r="4" fill="#6b63ff" class="data-point" style="animation-delay: 1.60s" />
    <circle cx="124.54545454545455" cy="347.525334527742" r="4" fill="#6b63ff" class="data-point" style="animation-delay: 1.65s" />
    <circle cx="146.06060606060606" cy="346.9766530429427" r="4" fill="#6b63ff" class="data-point" style="animation-delay: 1.70s" />
    <circle cx="167.57575757575756" cy="346.5707407200045" r="4" fill="#6b63ff" class="data-point" style="animation-delay: 1.75s" />
    <circle cx="189.0909090909091" cy="346.23201388500087" r="4" fill="#6b63ff" class="data-point" style="animation-delay: 1.80s" />
    <circle cx="210.60606060606062" cy="345.7533172834668" r="4" fill="#6b63ff" class="data-point" style="animation-delay: 1.85s" />
    <circle cx="232.12121212121212" cy="341.4842394042887" r="4" fill="#6b63ff" class="data-point" style="animation-delay: 1.90s" />
    <circle cx="253.63636363636363" cy="313.32232237836627" r="4" fill="#6b63ff" class="data-point" style="animation-delay: 1.95s" />
    <circle cx="275.1515151515151" cy="304.63579866748785" r="4" fill="#6b63ff" class="data-point" style="animation-delay: 2.00s" />
    <circle cx="296.66666666666663" cy="298.0432226639046" r="4" fill="#6b63ff" class="data-point" style="animation-delay: 2.05s" />
    <circle cx="318.1818181818182" cy="293.35423548513523" r="4" fill="#6b63ff" class="data-point" style="animation-delay: 2.10s" />
    <circle cx="339.6969696969697" cy="292.67958121045854" r="4" fill="#6b63ff" class="data-point" style="animation-delay: 2.15s" />
    <circle cx="361.21212121212125" cy="287.95140249706066" r="4" fill="#6b63ff" class="data-point" style="animation-delay: 2.20s" />
    <circle cx="382.7272727272727" cy="228.7805833939869" r="4" fill="#6b63ff" class="data-point" style="animation-delay: 2.25s" />
    <circle cx="404.24242424242425" cy="222.15721404176696" r="4" fill="#6b63ff" class="data-point" style="animation-delay: 2.30s" />
    <circle cx="425.75757575757575" cy="213.55187279547619" r="4" fill="#6b63ff" class="data-point" style="animation-delay: 2.35s" />
    <circle cx="447.27272727272725" cy="208.7061194781927" r="4" fill="#6b63ff" class="data-point" style="animation-delay: 2.40s" />
    <circle cx="468.7878787878788" cy="205.38883601142155" r="4" fill="#6b63ff" class="data-point" style="animation-delay: 2.45s" />
    <circle cx="490.3030303030303" cy="200.75583673926434" r="4" fill="#6b63ff" class="data-point" style="animation-delay: 2.50s" />
    <circle cx="511.8181818181818" cy="184.62572084429766" r="4" fill="#6b63ff" class="data-point" style="animation-delay: 2.55s" />
    <circle cx="533.3333333333333" cy="169.93169475393313" r="4" fill="#6b63ff" class="data-point" style="animation-delay: 2.60s" />
    <circle cx="554.8484848484849" cy="161.65388276132356" r="4" fill="#6b63ff" class="data-point" style="animation-delay: 2.65s" />
    <circle cx="576.3636363636364" cy="153.2976876994569" r="4" fill="#6b63ff" class="data-point" style="animation-delay: 2.70s" />
    <circle cx="597.8787878787879" cy="147.04103913554673" r="4" fill="#6b63ff" class="data-point" style="animation-delay: 2.75s" />
    <circle cx="619.3939393939394" cy="139.3734953250098" r="4" fill="#6b63ff" class="data-point" style="animation-delay: 2.80s" />
    <circle cx="640.909090909091" cy="131.9103073736073" r="4" fill="#6b63ff" class="data-point" style="animation-delay: 2.85s" />
    <circle cx="662.4242424242425" cy="124.44152063154357" r="4" fill="#6b63ff" class="data-point" style="animation-delay: 2.90s" />
    <circle cx="683.9393939393939" cy="116.94194054084318" r="4" fill="#6b63ff" class="data-point" style="animation-delay: 2.95s" />
  </g>
</svg>