<svg xmlns="http://www.w3.org/2000/svg" viewBox="0 0 800 400" width="800" height="400">
  <style>
    @keyframes drawLine {
      to { stroke-dashoffset: 0; }
    }
    @keyframes fadeInPoint {
      from { opacity: 0; }
      to { opacity: 1; }
    }
    .data-line-0 {
      stroke-dasharray: 1060;
      stroke-dashoffset: 1060;
      animation: drawLine 2s ease-out forwards;
    }
    .data-point {
      opacity: 0;
      animation: fadeInPoint 0.5s ease-out forwards;
    }
    .chart-bg { fill: #fff; }
    .chart-text { fill: #24292e; }
    .chart-muted { fill: #6a737d; }
    .chart-grid { stroke: #eee; }
    .chart-axis { stroke: #6a737d; }
    @media (prefers-color-scheme: dark) {
      .chart-bg { fill: #0d1117; }
      .chart-text { fill: #e6edf3; }
      .chart-muted { fill: #8b949e; }
      .chart-grid { stroke: #21262d; }
      .chart-axis { stroke: #8b949e; }
    }
  </style>
  <rect width="800" height="400" class="chart-bg" />
  <text x="400" y="14" text-anchor="middle" class="chart-text" font-size="16" font-weight="bold" font-family="-apple-system, BlinkMacSystemFont, 'Segoe UI', Helvetica, Arial, sans-serif">Growth Forecast</text>
  <g class="legend">
    <rect x="220" y="31" width="12" height="3" fill="#6b63ff" />
    <line x1="220" y1="32.5" x2="232" y2="32.5" stroke="#6b63ff" stroke-width="2" />
    <text x="236" y="36" class="chart-text" font-size="10" font-family="-apple-system, BlinkMacSystemFont, 'Segoe UI', Helvetica, Arial, sans-serif">Star History</text>
    <rect x="340" y="31" width="12" height="3" fill="#28a745" rx="1" />
    <line x1="340" y1="32.5" x2="352" y2="32.5" stroke="#28a745" stroke-width="2" stroke-dasharray="4,2" />
    <text x="356" y="36" class="chart-text" font-size="10" font-family="-apple-system, BlinkMacSystemFont, 'Segoe UI', Helvetica, Arial, sans-serif">Linear Regression</text>
    <rect x="460" y="31" width="12" height="3" fill="#d73a49" rx="1" />
    <line x1="460" y1="32.5" x2="472" y2="32.5" stroke="#d73a49" stroke-width="2" stroke-dasharray="4,2" />
    <text x="476" y="36" class="chart-text" font-size="10" font-family="-apple-system, BlinkMacSystemFont, 'Segoe UI', Helvetica, Arial, sans-serif">Weighted Moving Average</text>
  </g>
  <g class="grid">
    <line x1="60" y1="350" x2="770" y2="350" class="chart-grid" stroke-opacity="0.3" />
    <text x="778" y="354" text-anchor="start" class="chart-muted" font-size="11" font-family="-apple-system, BlinkMacSystemFont, 'Segoe UI', Helvetica, Arial, sans-serif">0</text>
    <line x1="60" y1="294.0303728509995" x2="770" y2="294.0303728509995" class="chart-grid" stroke-opacity="0.3" />
    <text x="778" y="298.0303728509995" text-anchor="start" class="chart-muted" font-size="11" font-family="-apple-system, BlinkMacSystemFont, 'Segoe UI', Helvetica, Arial, sans-serif">20K</text>
    <line x1="60" y1="238.06074570199905" x2="770" y2="238.06074570199905" class="chart-grid" stroke-opacity="0.3" />
    <text x="778" y="242.06074570199905" text-anchor="start" class="chart-muted" font-size="11" font-family="-apple-system, BlinkMacSystemFont, 'Segoe UI', Helvetica, Arial, sans-serif">40K</text>
    <line x1="60" y1="182.09111855299855" x2="770" y2="182.09111855299855" class="chart-grid" stroke-opacity="0.3" />
    <text x="778" y="186.09111855299855" text-anchor="start" class="chart-muted" font-size="11" font-family="-apple-system, BlinkMacSystemFont, 'Segoe UI', Helvetica, Arial, sans-serif">60K</text>
    <line x1="60" y1="126.1214914039981" x2="770" y2="126.1214914039981" class="chart-grid" stroke-opacity="0.3" />
    <text x="778" y="130.1214914039981" text-anchor="start" class="chart-muted" font-size="11" font-family="-apple-system, BlinkMacSystemFont, 'Segoe UI', Helvetica, Arial, sans-serif">80K</text>
    <line x1="60" y1="70.15186425499763" x2="770" y2="70.15186425499763" class="chart-grid" stroke-opacity="0.3" />
    <text x="778" y="74.15186425499763" text-anchor="start" class="chart-muted" font-size="11" font-family="-apple-system, BlinkMacSystemFont, 'Segoe UI', Helvetica, Arial, sans-serif">100K</text>
  </g>
  <g class="milestones">
    
  </g>
  <g class="x-axis">
    <text x="60" y="370" text-anchor="middle" class="chart-muted" font-size="11" font-family="-apple-system, BlinkMacSystemFont, 'Segoe UI', Helvetica, Arial, sans-serif">Apr 1</text>
    <text x="146.06060606060606" y="370" text-anchor="middle" class="chart-muted" font-size="11" font-family="-apple-system, BlinkMacSystemFont, 'Segoe UI', Helvetica, Arial, sans-serif">Sep 11</text>
    <text x="232.12121212121212" y="370" text-anchor="middle" class="chart-muted" font-size="11" font-family="-apple-system, BlinkMacSystemFont, 'Segoe UI', Helvetica, Arial, sans-serif">Feb 22</text>
    <text x="318.1818181818182" y="370" text-anchor="middle" class="chart-muted" font-size="11" font-family="-apple-system, BlinkMacSystemFont, 'Segoe UI', Helvetica, Arial, sans-serif">Aug 3</text>
    <text x="404.24242424242425" y="370" text-anchor="middle" class="chart-muted" font-size="11" font-family="-apple-system, BlinkMacSystemFont, 'Segoe UI', Helvetica, Arial, sans-serif">Jan 13</text>
    <text x="490.3030303030303" y="370" text-anchor="middle" class="chart-muted" font-size="11" font-family="-apple-system, BlinkMacSystemFont, 'Segoe UI', Helvetica, Arial, sans-serif">Jun 25</text>
    <text x="576.3636363636364" y="370" text-anchor="middle" class="chart-muted" font-size="11" font-family="-apple-system, BlinkMacSystemFont, 'Segoe UI', Helvetica, Arial, sans-serif">Dec 6</text>
    <text x="662.4242424242425" y="370" text-anchor="middle" class="chart-muted" font-size="11" font-family="-apple-system, BlinkMacSystemFont, 'Segoe UI', Helvetica, Arial, sans-serif">May 18</text>
    <text x="748.4848484848485" y="370" text-anchor="middle" class="chart-muted" font-size="11" font-family="-apple-system, BlinkMacSystemFont, 'Segoe UI', Helvetica, Arial, sans-serif">Week 3</text>
    <text x="770" y="370" text-anchor="middle" class="chart-muted" font-size="11" font-family="-apple-system, BlinkMacSystemFont, 'Segoe UI', Helvetica, Arial, sans-serif">Week 4</text>
  </g>
  <line x1="770" y1="50" x2="770" y2="350" class="chart-axis" stroke-width="1" />
  <line x1="60" y1="350" x2="770" y2="350" class="chart-axis" stroke-width="1" />
  <path d="M60,350 L60,349.99720151864256 C67.17171717171718,349.6194065353868 74.34343434343434,349.0829068323793 81.51515151515152,348.8638165688753 C88.68686868686869,348.64472630537125 95.85858585858585,348.7684924536504 103.03030303030303,348.5643790636281 C110.20202020202021,348.3602656736058 117.37373737373737,347.7933974496506 124.54545454545455,347.52894096137163 C131.7171717171717,347.26448447309264 138.88888888888889,347.1371535713286 146.06060606060606,346.97764013395397 C153.23232323232324,346.8181266965793 160.4040404040404,346.6954599304111 167.57575757575756,346.5718603371237 C174.74747474747474,346.44826074383633 181.91919191919192,346.3176662261099 189.0909090909091,346.2360425742297 C196.26262626262627,346.1544189223495 203.43434343434345,346.1278667119074 210.60606060606062,345.7547037807483 C217.7777777777778,345.38154084958916 224.94949494949495,345.738357941017 232.12121212121212,341.487019710637 C239.2929292929293,337.235681480257 246.46464646464645,319.46810197666065 253.63636363636363,313.3287002919749 C260.8080808080808,307.1892986072891 267.979797979798,307.1967612242423 275.1515151515151,304.65060960252237 C282.3232323232323,302.1044579808024 289.4949494949495,299.9328364474212 296.66666666666663,298.0517905616552 C303.83838383838383,296.1707446758892 311.010101010101,293.8308843011057 318.1818181818182,293.3643342879264 C325.35353535353534,292.8977842747471 332.52525252525254,292.9118907173913 339.6969696969697,292.6982957248533 C346.8686868686869,292.48470073231533 354.04040404040404,292.6935292651505 361.21212121212125,287.91009412225634 C368.3838383838384,283.12665897936216 375.55555555555554,235.25469420284037 382.7272727272727,228.82855570377143 C389.8989898989899,222.40241720470246 397.07070707070704,223.71989226757086 404.24242424242425,222.2325351442617 C411.4141414141414,220.74517802095255 418.5858585858586,215.8678557103012 425.75757575757575,213.6272049701029 C432.9292929292929,211.3865542299046 440.1010101010101,210.15009188347125 447.27272727272725,208.78863070307182 C454.44444444444446,207.4271695226724 461.6161616161616,206.7825859833397 468.7878787878788,205.45843788770625 C475.95959595959596,204.13428979207282 483.13131313131316,204.29800095148366 490.3030303030303,200.8437421292712 C497.47474747474746,197.38948330705873 504.64646464646466,189.86903107247136 511.8181818181818,184.7328849544314 C518.989898989899,179.59673883639147 526.1616161616162,173.86265053497632 533.3333333333333,170.02686542103152 C540.5050505050505,166.19108030708665 547.6767676767677,164.49753267226987 554.8484848484849,161.7181742707624 C562.0202020202021,158.93881586925497 569.1919191919192,155.7942556506003 576.3636363636364,153.35071501198684 C583.5353535353536,150.90717437337338 590.7070707070707,149.38993106407588 597.8787878787879,147.05693043908173 C605.0505050505051,144.72392981408757 612.2222222222222,141.88533689051408 619.3939393939394,139.3527112620218 C626.5656565656566,136.82008563352954 633.7373737373738,134.3639518288076 640.909090909091,131.8611766681281 C648.0808080808082,129.35840150744863 655.2525252525253,126.86029048236492 662.4242424242425,124.33606029794498 C669.5959595959596,121.81183011352506 676.7676767676768,119.25588380705403 683.9393939393939,116.71579556160856 L683.9393939393939,350 L60,350 Z" fill="#6b63ff" fill-opacity="0.1" />
  
  
  <path d="M60,350 L60,349.99720151864256 C67.17171717171718,349.6194065353868 74.34343434343434,349.0829068323793 81.51515151515152,348.8638165688753 C88.68686868686869,348.64472630537125 95.85858585858585,348.7684924536504 103.03030303030303,348.5643790636281 C110.20202020202021,348.3602656736058 117.37373737373737,347.7933974496506 124.54545454545455,347.52894096137163 C131.7171717171717,347.26448447309264 138.88888888888889,347.1371535713286 146.06060606060606,346.97764013395397 C153.23232323232324,346.8181266965793 160.4040404040404,346.6954599304111 167.57575757575756,346.5718603371237 C174.74747474747474,346.44826074383633 181.91919191919192,346.3176662261099 189.0909090909091,346.2360425742297 C196.26262626262627,346.1544189223495 203.43434343434345,346.1278667119074 210.60606060606062,345.7547037807483 C217.7777777777778,345.38154084958916 224.94949494949495,345.738357941017 232.12121212121212,341.487019710637 C239.2929292929293,337.235681480257 246.46464646464645,319.46810197666065 253.63636363636363,313.3287002919749 C260.8080808080808,307.1892986072891 267.979797979798,307.1967612242423 275.1515151515151,304.65060960252237 C282.3232323232323,302.1044579808024 289.4949494949495,299.9328364474212 296.66666666666663,298.0517905616552 C303.83838383838383,296.1707446758892 311.010101010101,293.8308843011057 318.1818181818182,293.3643342879264 C325.35353535353534,292.8977842747471 332.52525252525254,292.9118907173913 339.6969696969697,292.6982957248533 C346.8686868686869,292.48470073231533 354.04040404040404,292.6935292651505 361.21212121212125,287.91009412225634 C368.3838383838384,283.12665897936216 375.55555555555554,235.25469420284037 382.7272727272727,228.82855570377143 C389.8989898989899,222.40241720470246 397.07070707070704,223.71989226757086 404.24242424242425,222.2325351442617 C411.4141414141414,220.74517802095255 418.5858585858586,215.8678557103012 425.75757575757575,213.6272049701029 C432.9292929292929,211.3865542299046 440.1010101010101,210.15009188347125 447.27272727272725,208.78863070307182 C454.44444444444446,207.4271695226724 461.6161616161616,206.7825859833397 468.7878787878788,205.45843788770625 C475.95959595959596,204.13428979207282 483.13131313131316,204.29800095148366 490.3030303030303,200.8437421292712 C497.47474747474746,197.38948330705873 504.64646464646466,189.86903107247136 511.8181818181818,184.7328849544314 C518.989898989899,179.59673883639147 526.1616161616162,173.86265053497632 533.3333333333333,170.02686542103152 C540.5050505050505,166.19108030708665 547.6767676767677,164.49753267226987 554.8484848484849,161.7181742707624 C562.0202020202021,158.93881586925497 569.1919191919192,155.7942556506003 576.3636363636364,153.35071501198684 C583.5353535353536,150.90717437337338 590.7070707070707,149.38993106407588 597.8787878787879,147.05693043908173 C605.0505050505051,144.72392981408757 612.2222222222222,141.88533689051408 619.3939393939394,139.3527112620218 C626.5656565656566,136.82008563352954 633.7373737373738,134.3639518288076 640.909090909091,131.8611766681281 C648.0808080808082,129.35840150744863 655.2525252525253,126.86029048236492 662.4242424242425,124.33606029794498 C669.5959595959596,121.81183011352506 676.7676767676768,119.25588380705403 683.9393939393939,116.71579556160856" fill="none" stroke="#6b63ff" stroke-width="2.5" class="data-line-0" />
  <path d="M683.9393939393939,116.71579556160856 C691.1111111111111,112.94250986464678 698.2828282828282,108.84506674378036 705.4545454545454,105.39593847072322 C712.6262626262626,101.94681019766605 719.7979797979798,99.1455303588586 726.969696969697,96.02102592326563 C734.1414141414142,92.89652148767269 741.3131313131313,89.77341629275845 748.4848484848485,86.6489118571655 C755.6565656565657,83.52440742157255 762.8282828282828,80.39897015886044 770,77.2739993097079" fill="none" stroke="#28a745" stroke-width="2.5" stroke-dasharray="8,4" />
  <path d="M683.9393939393939,116.71579556160856 C691.1111111111111,113.63560041417523 698.2828282828282,110.55540526674189 705.4545454545454,107.47521011930857 C712.6262626262626,104.39501497187524 719.7979797979798,101.31435341088238 726.969696969697,98.23462467700861 C734.1414141414142,95.15489594313487 741.3131313131313,92.07656644993982 748.4848484848485,88.99683771606607 C755.6565656565657,85.91710898219232 762.8282828282828,82.83644742119942 770,79.75625227376611" fill="none" stroke="#d73a49" stroke-width="2.5" stroke-dasharray="8,4" />
  <g class="points">
    
    <circle cx="60" cy="349.99720151864256" r="4" fill="#6b63ff" class="data-point" style="animation-delay: 1.50s" />
    <circle cx="81.51515151515152" cy="348.8638165688753" r="4" fill="#6b63ff" class="data-point" style="animation-delay: 1.55s" />
    <circle cx="103.03030303030303" cy="348.5643790636281" r="4" fill="#6b63ff" class="data-point" style="animation-delay: 1.60s" />
    <circle cx="124.54545454545455" cy="347.52894096137163" r="4" fill="#6b63ff" class="data-point" style="animation-delay: 1.65s" />
    <circle cx="146.06060606060606" cy="346.97764013395397" r="4" fill="#6b63ff" class="data-point" style="animation-delay: 1.70s" />
    <circle cx="167.57575757575756" cy="346.5718603371237" r="4" fill="#6b63ff" class="data-point" style="animation-delay: 1.75s" />
    <circle cx="189.0909090909091" cy="346.2360425742297" r="4" fill="#6b63ff" class="data-point" style="animation-delay: 1.80s" />
    <circle cx="210.60606060606062" cy="345.7547037807483" r="4" fill="#6b63ff" class="data-point" style="animation-delay: 1.85s" />
    <circle cx="232.12121212121212" cy="341.487019710637" r="4" fill="#6b63ff" class="data-point" style="animation-delay: 1.90s" />
    <circle cx="253.63636363636363" cy="313.3287002919749" r="4" fill="#6b63ff" class="data-point" style="animation-delay: 1.95s" />
    <circle cx="275.1515151515151" cy="304.65060960252237" r="4" fill="#6b63ff" class="data-point" style="animation-delay: 2.00s" />
    <circle cx="296.66666666666663" cy="298.0517905616552" r="4" fill="#6b63ff" class="data-point" style="animation-delay: 2.05s" />
    <circle cx="318.1818181818182" cy="293.3643342879264" r="4" fill="#6b63ff" class="data-point" style="animation-delay: 2.10s" />
    <circle cx="339.6969696969697" cy="292.6982957248533" r="4" fill="#6b63ff" class="data-point" style="animation-delay: 2.15s" />
    <circle cx="361.21212121212125" cy="287.91009412225634" r="4" fill="#6b63ff" class="data-point" style="animation-delay: 2.20s" />
    <circle cx="382.7272727272727" cy="228.82855570377143" r="4" fill="#6b63ff" class="data-point" style="animation-delay: 2.25s" />
    <circle cx="404.24242424242425" cy="222.2325351442617" r="4" fill="#6b63ff" class="data-point" style="animation-delay: 2.30s" />
    <circle cx="425.75757575757575" cy="213.6272049701029" r="4" fill="#6b63ff" class="data-point" style="animation-delay: 2.35s" />
    <circle cx="447.27272727272725" cy="208.78863070307182" r="4" fill="#6b63ff" class="data-point" style="animation-delay: 2.40s" />
    <circle cx="468.7878787878788" cy="205.45843788770625" r="4" fill="#6b63ff" class="data-point" style="animation-delay: 2.45s" />
    <circle cx="490.3030303030303" cy="200.8437421292712" r="4" fill="#6b63ff" class="data-point" style="animation-delay: 2.50s" />
    <circle cx="511.8181818181818" cy="184.7328849544314" r="4" fill="#6b63ff" class="data-point" style="animation-delay: 2.55s" />
    <circle cx="533.3333333333333" cy="170.02686542103152" r="4" fill="#6b63ff" class="data-point" style="animation-delay: 2.60s" />
    <circle cx="554.8484848484849" cy="161.7181742707624" r="4" fill="#6b63ff" class="data-point" style="animation-delay: 2.65s" />
    <circle cx="576.3636363636364" cy="153.35071501198684" r="4" fill="#6b63ff" class="data-point" style="animation-delay: 2.70s" />
    <circle cx="597.8787878787879" cy="147.05693043908173" r="4" fill="#6b63ff" class="data-point" style="animation-delay: 2.75s" />
    <circle cx="619.3939393939394" cy="139.3527112620218" r="4" fill="#6b63ff" class="data-point" style="animation-delay: 2.80s" />
    <circle cx="640.909090909091" cy="131.8611766681281" r="4" fill="#6b63ff" class="data-point" style="animation-delay: 2.85s" />
    <circle cx="662.4242424242425" cy="124.33606029794498" r="4" fill="#6b63ff" class="data-point" style="animation-delay: 2.90s" />
    <circle cx="683.9393939393939" cy="116.71579556160856" r="4" fill="#6b63ff" class="data-point" style="animation-delay: 2.95s" />
  </g>
</svg>