<svg xmlns="http://www.w3.org/2000/svg" viewBox="0 0 800 400" width="800" height="400">
  <style>
    @keyframes drawLine {
      to { stroke-dashoffset: 0; }
    }
    @keyframes fadeInPoint {
      from { opacity: 0; }
      to { opacity: 1; }
    }
    .data-line-0 {
      stroke-dasharray: 1060;
      stroke-dashoffset: 1060;
      animation: drawLine 2s ease-out forwards;
    }
    .data-point {
      opacity: 0;
      animation: fadeInPoint 0.5s ease-out forwards;
    }
    .chart-bg { fill: #fff; }
    .chart-text { fill: #24292e; }
    .chart-muted { fill: #6a737d; }
    .chart-grid { stroke: #eee; }
    .chart-axis { stroke: #6a737d; }
    @media (prefers-color-scheme: dark) {
      .chart-bg { fill: #0d1117; }
      .chart-text { fill: #e6edf3; }
      .chart-muted { fill: #8b949e; }
      .chart-grid { stroke: #21262d; }
      .chart-axis { stroke: #8b949e; }
    }
  </style>
  <rect width="800" height="400" class="chart-bg" />
  <text x="400" y="14" text-anchor="middle" class="chart-text" font-size="16" font-weight="bold" font-family="-apple-system, BlinkMacSystemFont, 'Segoe UI', Helvetica, Arial, sans-serif">Growth Forecast</text>
  <g class="legend">
    <rect x="220" y="31" width="12" height="3" fill="#6b63ff" />
    <line x1="220" y1="32.5" x2="232" y2="32.5" stroke="#6b63ff" stroke-width="2" />
    <text x="236" y="36" class="chart-text" font-size="10" font-family="-apple-system, BlinkMacSystemFont, 'Segoe UI', Helvetica, Arial, sans-serif">Star History</text>
    <rect x="340" y="31" width="12" height="3" fill="#28a745" rx="1" />
    <line x1="340" y1="32.5" x2="352" y2="32.5" stroke="#28a745" stroke-width="2" stroke-dasharray="4,2" />
    <text x="356" y="36" class="chart-text" font-size="10" font-family="-apple-system, BlinkMacSystemFont, 'Segoe UI', Helvetica, Arial, sans-serif">Linear Regression</text>
    <rect x="460" y="31" width="12" height="3" fill="#d73a49" rx="1" />
    <line x1="460" y1="32.5" x2="472" y2="32.5" stroke="#d73a49" stroke-width="2" stroke-dasharray="4,2" />
    <text x="476" y="36" class="chart-text" font-size="10" font-family="-apple-system, BlinkMacSystemFont, 'Segoe UI', Helvetica, Arial, sans-serif">Weighted Moving Average</text>
  </g>
  <g class="grid">
    <line x1="60" y1="350" x2="770" y2="350" class="chart-grid" stroke-opacity="0.3" />
    <text x="778" y="354" text-anchor="start" class="chart-muted" font-size="11" font-family="-apple-system, BlinkMacSystemFont, 'Segoe UI', Helvetica, Arial, sans-serif">0</text>
    <line x1="60" y1="293.98334438106264" x2="770" y2="293.98334438106264" class="chart-grid" stroke-opacity="0.3" />
    <text x="778" y="297.98334438106264" text-anchor="start" class="chart-muted" font-size="11" font-family="-apple-system, BlinkMacSystemFont, 'Segoe UI', Helvetica, Arial, sans-serif">20K</text>
    <line x1="60" y1="237.96668876212527" x2="770" y2="237.96668876212527" class="chart-grid" stroke-opacity="0.3" />
    <text x="778" y="241.96668876212527" text-anchor="start" class="chart-muted" font-size="11" font-family="-apple-system, BlinkMacSystemFont, 'Segoe UI', Helvetica, Arial, sans-serif">40K</text>
    <line x1="60" y1="181.9500331431879" x2="770" y2="181.9500331431879" class="chart-grid" stroke-opacity="0.3" />
    <text x="778" y="185.9500331431879" text-anchor="start" class="chart-muted" font-size="11" font-family="-apple-system, BlinkMacSystemFont, 'Segoe UI', Helvetica, Arial, sans-serif">60K</text>
    <line x1="60" y1="125.93337752425055" x2="770" y2="125.93337752425055" class="chart-grid" stroke-opacity="0.3" />
    <text x="778" y="129.93337752425055" text-anchor="start" class="chart-muted" font-size="11" font-family="-apple-system, BlinkMacSystemFont, 'Segoe UI', Helvetica, Arial, sans-serif">80K</text>
    <line x1="60" y1="69.91672190531318" x2="770" y2="69.91672190531318" class="chart-grid" stroke-opacity="0.3" />
    <text x="778" y="73.91672190531318" text-anchor="start" class="chart-muted" font-size="11" font-family="-apple-system, BlinkMacSystemFont, 'Segoe UI', Helvetica, Arial, sans-serif">100K</text>
  </g>
  <g class="milestones">
    
  </g>
  <g class="x-axis">
    <text x="60" y="370" text-anchor="middle" class="chart-muted" font-size="11" font-family="-apple-system, BlinkMacSystemFont, 'Segoe UI', Helvetica, Arial, sans-serif">Apr 1</text>
    <text x="146.06060606060606" y="370" text-anchor="middle" class="chart-muted" font-size="11" font-family="-apple-system, BlinkMacSystemFont, 'Segoe UI', Helvetica, Arial, sans-serif">Sep 11</text>
    <text x="232.12121212121212" y="370" text-anchor="middle" class="chart-muted" font-size="11" font-family="-apple-system, BlinkMacSystemFont, 'Segoe UI', Helvetica, Arial, sans-serif">Feb 21</text>
    <text x="318.1818181818182" y="370" text-anchor="middle" class="chart-muted" font-size="11" font-family="-apple-system, BlinkMacSystemFont, 'Segoe UI', Helvetica, Arial, sans-serif">Aug 2</text>
    <text x="404.24242424242425" y="370" text-anchor="middle" class="chart-muted" font-size="11" font-family="-apple-system, BlinkMacSystemFont, 'Segoe UI', Helvetica, Arial, sans-serif">Jan 12</text>
    <text x="490.3030303030303" y="370" text-anchor="middle" class="chart-muted" font-size="11" font-family="-apple-system, BlinkMacSystemFont, 'Segoe UI', Helvetica, Arial, sans-serif">Jun 24</text>
    <text x="576.3636363636364" y="370" text-anchor="middle" class="chart-muted" font-size="11" font-family="-apple-system, BlinkMacSystemFont, 'Segoe UI', Helvetica, Arial, sans-serif">Dec 3</text>
    <text x="662.4242424242425" y="370" text-anchor="middle" class="chart-muted" font-size="11" font-family="-apple-system, BlinkMacSystemFont, 'Segoe UI', Helvetica, Arial, sans-serif">May 15</text>
    <text x="748.4848484848485" y="370" text-anchor="middle" class="chart-muted" font-size="11" font-family="-apple-system, BlinkMacSystemFont, 'Segoe UI', Helvetica, Arial, sans-serif">Week 3</text>
    <text x="770" y="370" text-anchor="middle" class="chart-muted" font-size="11" font-family="-apple-system, BlinkMacSystemFont, 'Segoe UI', Helvetica, Arial, sans-serif">Week 4</text>
  </g>
  <line x1="770" y1="50" x2="770" y2="350" class="chart-axis" stroke-width="1" />
  <line x1="60" y1="350" x2="770" y2="350" class="chart-axis" stroke-width="1" />
  <path d="M60,350 L60,349.99719916721904 L81.51515151515152,348.86286189093556 L103.03030303030303,348.5631727833743 L124.54545454545455,347.521262988862 L146.06060606060606,346.97229976379646 L167.57575757575756,346.56897984334006 L189.0909090909091,346.22727824406456 L210.60606060606062,345.7483358385227 L232.12121212121212,341.4826675131406 L253.63636363636363,313.34550139574833 L275.1515151515151,304.62090728309886 L296.66666666666663,298.0809627395879 L318.1818181818182,293.3223478447592 L339.6969696969697,292.6529488101129 L361.21212121212125,287.9475497381221 L382.7272727272727,228.597903109858 L404.24242424242425,221.95152692067109 L425.75757575757575,213.3221611225738 L447.27272727272725,208.4767204115357 L468.7878787878788,205.18014022836124 L490.3030303030303,200.50835114974186 L511.8181818181818,184.3111351775261 L533.3333333333333,169.62916973980262 L554.8484848484849,161.43673385553302 L576.3636363636364,153.19108214842547 L597.8787878787879,147.0096442008757 L619.3939393939394,139.44459485953823 L640.909090909091,132.03919298671474 L662.4242424242425,124.67580360560538 L683.9393939393939,117.65691665655254 L683.9393939393939,350 L60,350 Z" fill="#6b63ff" fill-opacity="0.1" />
  
  
  <path d="M60,350 L60,349.99719916721904 L81.51515151515152,348.86286189093556 L103.03030303030303,348.5631727833743 L124.54545454545455,347.521262988862 L146.06060606060606,346.97229976379646 L167.57575757575756,346.56897984334006 L189.0909090909091,346.22727824406456 L210.60606060606062,345.7483358385227 L232.12121212121212,341.4826675131406 L253.63636363636363,313.34550139574833 L275.1515151515151,304.62090728309886 L296.66666666666663,298.0809627395879 L318.1818181818182,293.3223478447592 L339.6969696969697,292.6529488101129 L361.21212121212125,287.9475497381221 L382.7272727272727,228.597903109858 L404.24242424242425,221.95152692067109 L425.75757575757575,213.3221611225738 L447.27272727272725,208.4767204115357 L468.7878787878788,205.18014022836124 L490.3030303030303,200.50835114974186 L511.8181818181818,184.3111351775261 L533.3333333333333,169.62916973980262 L554.8484848484849,161.43673385553302 L576.3636363636364,153.19108214842547 L597.8787878787879,147.0096442008757 L619.3939393939394,139.44459485953823 L640.909090909091,132.03919298671474 L662.4242424242425,124.67580360560538 L683.9393939393939,117.65691665655254" fill="none" stroke="#6b63ff" stroke-width="2" class="data-line-0" />
  <path d="M683.9393939393939,117.65691665655254 L705.4545454545454,105.38926907600526 L726.969696969697,96.01768259095704 L748.4848484848485,86.64609610590884 L770,77.27450962086061" fill="none" stroke="#28a745" stroke-width="2" stroke-dasharray="8,4" />
  <path d="M683.9393939393939,117.65691665655254 L705.4545454545454,108.48418929895155 L726.969696969697,99.31426277413152 L748.4848484848485,90.14153541653053 L770,80.9716088917105" fill="none" stroke="#d73a49" stroke-width="2" stroke-dasharray="8,4" />
  <g class="points">
    
    <circle cx="60" cy="349.99719916721904" r="4" fill="#6b63ff" class="data-point" style="animation-delay: 1.50s" />
    <circle cx="81.51515151515152" cy="348.86286189093556" r="4" fill="#6b63ff" class="data-point" style="animation-delay: 1.55s" />
    <circle cx="103.03030303030303" cy="348.5631727833743" r="4" fill="#6b63ff" class="data-point" style="animation-delay: 1.60s" />
    <circle cx="124.54545454545455" cy="347.521262988862" r="4" fill="#6b63ff" class="data-point" style="animation-delay: 1.65s" />
    <circle cx="146.06060606060606" cy="346.97229976379646" r="4" fill="#6b63ff" class="data-point" style="animation-delay: 1.70s" />
    <circle cx="167.57575757575756" cy="346.56897984334006" r="4" fill="#6b63ff" class="data-point" style="animation-delay: 1.75s" />
    <circle cx="189.0909090909091" cy="346.22727824406456" r="4" fill="#6b63ff" class="data-point" style="animation-delay: 1.80s" />
    <circle cx="210.60606060606062" cy="345.7483358385227" r="4" fill="#6b63ff" class="data-point" style="animation-delay: 1.85s" />
    <circle cx="232.12121212121212" cy="341.4826675131406" r="4" fill="#6b63ff" class="data-point" style="animation-delay: 1.90s" />
    <circle cx="253.63636363636363" cy="313.34550139574833" r="4" fill="#6b63ff" class="data-point" style="animation-delay: 1.95s" />
    <circle cx="275.1515151515151" cy="304.62090728309886" r="4" fill="#6b63ff" class="data-point" style="animation-delay: 2.00s" />
    <circle cx="296.66666666666663" cy="298.0809627395879" r="4" fill="#6b63ff" class="data-point" style="animation-delay: 2.05s" />
    <circle cx="318.1818181818182" cy="293.3223478447592" r="4" fill="#6b63ff" class="data-point" style="animation-delay: 2.10s" />
    <circle cx="339.6969696969697" cy="292.6529488101129" r="4" fill="#6b63ff" class="data-point" style="animation-delay: 2.15s" />
    <circle cx="361.21212121212125" cy="287.9475497381221" r="4" fill="#6b63ff" class="data-point" style="animation-delay: 2.20s" />
    <circle cx="382.7272727272727" cy="228.597903109858" r="4" fill="#6b63ff" class="data-point" style="animation-delay: 2.25s" />
    <circle cx="404.24242424242425" cy="221.95152692067109" r="4" fill="#6b63ff" class="data-point" style="animation-delay: 2.30s" />
    <circle cx="425.75757575757575" cy="213.3221611225738" r="4" fill="#6b63ff" class="data-point" style="animation-delay: 2.35s" />
    <circle cx="447.27272727272725" cy="208.4767204115357" r="4" fill="#6b63ff" class="data-point" style="animation-delay: 2.40s" />
    <circle cx="468.7878787878788" cy="205.18014022836124" r="4" fill="#6b63ff" class="data-point" style="animation-delay: 2.45s" />
    <circle cx="490.3030303030303" cy="200.50835114974186" r="4" fill="#6b63ff" class="data-point" style="animation-delay: 2.50s" />
    <circle cx="511.8181818181818" cy="184.3111351775261" r="4" fill="#6b63ff" class="data-point" style="animation-delay: 2.55s" />
    <circle cx="533.3333333333333" cy="169.62916973980262" r="4" fill="#6b63ff" class="data-point" style="animation-delay: 2.60s" />
    <circle cx="554.8484848484849" cy="161.43673385553302" r="4" fill="#6b63ff" class="data-point" style="animation-delay: 2.65s" />
    <circle cx="576.3636363636364" cy="153.19108214842547" r="4" fill="#6b63ff" class="data-point" style="animation-delay: 2.70s" />
    <circle cx="597.8787878787879" cy="147.0096442008757" r="4" fill="#6b63ff" class="data-point" style="animation-delay: 2.75s" />
    <circle cx="619.3939393939394" cy="139.44459485953823" r="4" fill="#6b63ff" class="data-point" style="animation-delay: 2.80s" />
    <circle cx="640.909090909091" cy="132.03919298671474" r="4" fill="#6b63ff" class="data-point" style="animation-delay: 2.85s" />
    <circle cx="662.4242424242425" cy="124.67580360560538" r="4" fill="#6b63ff" class="data-point" style="animation-delay: 2.90s" />
    <circle cx="683.9393939393939" cy="117.65691665655254" r="4" fill="#6b63ff" class="data-point" style="animation-delay: 2.95s" />
  </g>
</svg>