<svg xmlns="http://www.w3.org/2000/svg" viewBox="0 0 800 400" width="800" height="400">
  <style>
    @keyframes drawLine {
      to { stroke-dashoffset: 0; }
    }
    @keyframes fadeInPoint {
      from { opacity: 0; }
      to { opacity: 1; }
    }
    .data-line-0 {
      stroke-dasharray: 1060;
      stroke-dashoffset: 1060;
      animation: drawLine 2s ease-out forwards;
    }
    .data-point {
      opacity: 0;
      animation: fadeInPoint 0.5s ease-out forwards;
    }
    .chart-bg { fill: #fff; }
    .chart-text { fill: #24292e; }
    .chart-muted { fill: #6a737d; }
    .chart-grid { stroke: #eee; }
    .chart-axis { stroke: #6a737d; }
    @media (prefers-color-scheme: dark) {
      .chart-bg { fill: #0d1117; }
      .chart-text { fill: #e6edf3; }
      .chart-muted { fill: #8b949e; }
      .chart-grid { stroke: #21262d; }
      .chart-axis { stroke: #8b949e; }
    }
  </style>
  <rect width="800" height="400" class="chart-bg" />
  <text x="400" y="14" text-anchor="middle" class="chart-text" font-size="16" font-weight="bold" font-family="-apple-system, BlinkMacSystemFont, 'Segoe UI', Helvetica, Arial, sans-serif">Growth Forecast</text>
  <g class="legend">
    <rect x="220" y="31" width="12" height="3" fill="#6b63ff" />
    <line x1="220" y1="32.5" x2="232" y2="32.5" stroke="#6b63ff" stroke-width="2" />
    <text x="236" y="36" class="chart-text" font-size="10" font-family="-apple-system, BlinkMacSystemFont, 'Segoe UI', Helvetica, Arial, sans-serif">Star History</text>
    <rect x="340" y="31" width="12" height="3" fill="#28a745" rx="1" />
    <line x1="340" y1="32.5" x2="352" y2="32.5" stroke="#28a745" stroke-width="2" stroke-dasharray="4,2" />
    <text x="356" y="36" class="chart-text" font-size="10" font-family="-apple-system, BlinkMacSystemFont, 'Segoe UI', Helvetica, Arial, sans-serif">Linear Regression</text>
    <rect x="460" y="31" width="12" height="3" fill="#d73a49" rx="1" />
    <line x1="460" y1="32.5" x2="472" y2="32.5" stroke="#d73a49" stroke-width="2" stroke-dasharray="4,2" />
    <text x="476" y="36" class="chart-text" font-size="10" font-family="-apple-system, BlinkMacSystemFont, 'Segoe UI', Helvetica, Arial, sans-serif">Weighted Moving Average</text>
  </g>
  <g class="grid">
    <line x1="60" y1="350" x2="770" y2="350" class="chart-grid" stroke-opacity="0.3" />
    <text x="778" y="354" text-anchor="start" class="chart-muted" font-size="11" font-family="-apple-system, BlinkMacSystemFont, 'Segoe UI', Helvetica, Arial, sans-serif">0</text>
    <line x1="60" y1="293.971313312416" x2="770" y2="293.971313312416" class="chart-grid" stroke-opacity="0.3" />
    <text x="778" y="297.971313312416" text-anchor="start" class="chart-muted" font-size="11" font-family="-apple-system, BlinkMacSystemFont, 'Segoe UI', Helvetica, Arial, sans-serif">20K</text>
    <line x1="60" y1="237.94262662483192" x2="770" y2="237.94262662483192" class="chart-grid" stroke-opacity="0.3" />
    <text x="778" y="241.94262662483192" text-anchor="start" class="chart-muted" font-size="11" font-family="-apple-system, BlinkMacSystemFont, 'Segoe UI', Helvetica, Arial, sans-serif">40K</text>
    <line x1="60" y1="181.91393993724787" x2="770" y2="181.91393993724787" class="chart-grid" stroke-opacity="0.3" />
    <text x="778" y="185.91393993724787" text-anchor="start" class="chart-muted" font-size="11" font-family="-apple-system, BlinkMacSystemFont, 'Segoe UI', Helvetica, Arial, sans-serif">60K</text>
    <line x1="60" y1="125.88525324966383" x2="770" y2="125.88525324966383" class="chart-grid" stroke-opacity="0.3" />
    <text x="778" y="129.88525324966383" text-anchor="start" class="chart-muted" font-size="11" font-family="-apple-system, BlinkMacSystemFont, 'Segoe UI', Helvetica, Arial, sans-serif">80K</text>
    <line x1="60" y1="69.85656656207976" x2="770" y2="69.85656656207976" class="chart-grid" stroke-opacity="0.3" />
    <text x="778" y="73.85656656207976" text-anchor="start" class="chart-muted" font-size="11" font-family="-apple-system, BlinkMacSystemFont, 'Segoe UI', Helvetica, Arial, sans-serif">100K</text>
  </g>
  <g class="milestones">
    
  </g>
  <g class="x-axis">
    <text x="60" y="370" text-anchor="middle" class="chart-muted" font-size="11" font-family="-apple-system, BlinkMacSystemFont, 'Segoe UI', Helvetica, Arial, sans-serif">Apr 1</text>
    <text x="146.06060606060606" y="370" text-anchor="middle" class="chart-muted" font-size="11" font-family="-apple-system, BlinkMacSystemFont, 'Segoe UI', Helvetica, Arial, sans-serif">Sep 11</text>
    <text x="232.12121212121212" y="370" text-anchor="middle" class="chart-muted" font-size="11" font-family="-apple-system, BlinkMacSystemFont, 'Segoe UI', Helvetica, Arial, sans-serif">Feb 21</text>
    <text x="318.1818181818182" y="370" text-anchor="middle" class="chart-muted" font-size="11" font-family="-apple-system, BlinkMacSystemFont, 'Segoe UI', Helvetica, Arial, sans-serif">Aug 2</text>
    <text x="404.24242424242425" y="370" text-anchor="middle" class="chart-muted" font-size="11" font-family="-apple-system, BlinkMacSystemFont, 'Segoe UI', Helvetica, Arial, sans-serif">Jan 12</text>
    <text x="490.3030303030303" y="370" text-anchor="middle" class="chart-muted" font-size="11" font-family="-apple-system, BlinkMacSystemFont, 'Segoe UI', Helvetica, Arial, sans-serif">Jun 24</text>
    <text x="576.3636363636364" y="370" text-anchor="middle" class="chart-muted" font-size="11" font-family="-apple-system, BlinkMacSystemFont, 'Segoe UI', Helvetica, Arial, sans-serif">Dec 4</text>
    <text x="662.4242424242425" y="370" text-anchor="middle" class="chart-muted" font-size="11" font-family="-apple-system, BlinkMacSystemFont, 'Segoe UI', Helvetica, Arial, sans-serif">May 16</text>
    <text x="748.4848484848485" y="370" text-anchor="middle" class="chart-muted" font-size="11" font-family="-apple-system, BlinkMacSystemFont, 'Segoe UI', Helvetica, Arial, sans-serif">Week 3</text>
    <text x="770" y="370" text-anchor="middle" class="chart-muted" font-size="11" font-family="-apple-system, BlinkMacSystemFont, 'Segoe UI', Helvetica, Arial, sans-serif">Week 4</text>
  </g>
  <line x1="770" y1="50" x2="770" y2="350" class="chart-axis" stroke-width="1" />
  <line x1="60" y1="350" x2="770" y2="350" class="chart-axis" stroke-width="1" />
  <path d="M60,350 L60,349.9971985656656 C62.86868686868687,349.84592111160913 75.77777777777777,349.05386224413564 81.51515151515152,348.86261766024205 C87.25252525252526,348.67137307634846 97.29292929292929,348.7417824592858 103.03030303030303,348.56286418646346 C108.76767676767678,348.3839459136411 118.8080808080808,347.7328925743314 124.54545454545455,347.5207306140744 C130.2828282828283,347.3085686538174 140.32323232323233,347.09864784102797 146.06060606060606,346.9716494845361 C151.7979797979798,346.84465112804423 161.83838383838383,346.66760047811147 167.57575757575756,346.56824294038546 C173.3131313131313,346.46888540265945 183.35353535353536,346.3359106529209 189.0909090909091,346.2264679515912 C194.82828282828282,346.11702525026146 204.8686868686869,346.2264679515912 210.60606060606062,345.7474226804124 C216.34343434343435,345.1146720454206 226.3838383838384,345.7474226804124 232.12121212121212,341.48083818915285 C237.85858585858585,337.156917675183 247.8989898989899,318.23472284476316 253.63636363636363,313.3180188256387 C259.37373737373736,308.4013148065143 269.4141414141414,306.6453757657254 275.1515151515151,304.6055580457194 C280.88888888888886,302.5657403257134 290.9292929292929,299.5254370237561 296.66666666666663,298.0193859255939 C302.40404040404036,296.51333482743166 312.44444444444446,294.02734199910356 318.1818181818182,293.3101748095025 C323.9191919191919,292.64063200358584 333.95959595959596,293.3101748095025 339.6969696969697,292.64063200358584 C345.4343434343434,291.92346481398476 355.4747474747475,292.64063200358584 361.21212121212125,287.93142088749437 C366.949494949495,279.3937696100403 376.98989898989896,237.4032571343194 382.7272727272727,228.6082474226804 C388.4646464646464,221.9688480502017 398.5050505050505,224.0045569998506 404.24242424242425,221.9688480502017 C409.979797979798,219.9331391005528 420.020202020202,215.1363364709398 425.75757575757575,213.34043030031376 C431.4949494949495,211.54452412968772 441.5353535353535,209.5865082922456 447.27272727272725,208.49955177050649 C453.010101010101,207.41259524876736 463.0505050505051,206.2513073360227 468.7878787878788,205.1882563872703 C474.52525252525254,204.12520543851787 484.5656565656566,203.3038248916779 490.3030303030303,200.5266696548633 C496.04040404040404,197.7495144180487 506.0808080808081,188.47433886149707 511.8181818181818,184.3595921111609 C517.5555555555555,180.24484536082474 527.5959595959595,172.7192589272374 533.3333333333333,169.666069027342 C539.070707070707,166.61287912744658 549.1111111111111,163.65549828178695 554.8484848484849,161.46066786194532 C560.5858585858587,159.2658374421037 570.6262626262626,155.1303600776931 576.3636363636364,153.20484087852978 C582.1010101010102,151.27932167936646 592.1414141414141,148.85253249663828 597.8787878787879,147.01927386822052 C603.6161616161617,145.18601523980277 613.6565656565656,141.4511429852084 619.3939393939394,139.45540116539667 C625.1313131313132,137.45965934558492 635.1717171717172,134.0230464664575 640.909090909091,132.05121021963245 C646.6464646464648,130.07937397280742 656.6868686868688,126.60298072613178 662.4242424242425,124.66662931420888 C668.1616161616162,122.73027790228598 681.070707070707,118.48031525474376 683.9393939393939,117.52857463021067 L683.9393939393939,350 L60,350 Z" fill="#6b63ff" fill-opacity="0.1" />
  
  
  <path d="M60,350 L60,349.9971985656656 C62.86868686868687,349.84592111160913 75.77777777777777,349.05386224413564 81.51515151515152,348.86261766024205 C87.25252525252526,348.67137307634846 97.29292929292929,348.7417824592858 103.03030303030303,348.56286418646346 C108.76767676767678,348.3839459136411 118.8080808080808,347.7328925743314 124.54545454545455,347.5207306140744 C130.2828282828283,347.3085686538174 140.32323232323233,347.09864784102797 146.06060606060606,346.9716494845361 C151.7979797979798,346.84465112804423 161.83838383838383,346.66760047811147 167.57575757575756,346.56824294038546 C173.3131313131313,346.46888540265945 183.35353535353536,346.3359106529209 189.0909090909091,346.2264679515912 C194.82828282828282,346.11702525026146 204.8686868686869,346.2264679515912 210.60606060606062,345.7474226804124 C216.34343434343435,345.1146720454206 226.3838383838384,345.7474226804124 232.12121212121212,341.48083818915285 C237.85858585858585,337.156917675183 247.8989898989899,318.23472284476316 253.63636363636363,313.3180188256387 C259.37373737373736,308.4013148065143 269.4141414141414,306.6453757657254 275.1515151515151,304.6055580457194 C280.88888888888886,302.5657403257134 290.9292929292929,299.5254370237561 296.66666666666663,298.0193859255939 C302.40404040404036,296.51333482743166 312.44444444444446,294.02734199910356 318.1818181818182,293.3101748095025 C323.9191919191919,292.64063200358584 333.95959595959596,293.3101748095025 339.6969696969697,292.64063200358584 C345.4343434343434,291.92346481398476 355.4747474747475,292.64063200358584 361.21212121212125,287.93142088749437 C366.949494949495,279.3937696100403 376.98989898989896,237.4032571343194 382.7272727272727,228.6082474226804 C388.4646464646464,221.9688480502017 398.5050505050505,224.0045569998506 404.24242424242425,221.9688480502017 C409.979797979798,219.9331391005528 420.020202020202,215.1363364709398 425.75757575757575,213.34043030031376 C431.4949494949495,211.54452412968772 441.5353535353535,209.5865082922456 447.27272727272725,208.49955177050649 C453.010101010101,207.41259524876736 463.0505050505051,206.2513073360227 468.7878787878788,205.1882563872703 C474.52525252525254,204.12520543851787 484.5656565656566,203.3038248916779 490.3030303030303,200.5266696548633 C496.04040404040404,197.7495144180487 506.0808080808081,188.47433886149707 511.8181818181818,184.3595921111609 C517.5555555555555,180.24484536082474 527.5959595959595,172.7192589272374 533.3333333333333,169.666069027342 C539.070707070707,166.61287912744658 549.1111111111111,163.65549828178695 554.8484848484849,161.46066786194532 C560.5858585858587,159.2658374421037 570.6262626262626,155.1303600776931 576.3636363636364,153.20484087852978 C582.1010101010102,151.27932167936646 592.1414141414141,148.85253249663828 597.8787878787879,147.01927386822052 C603.6161616161617,145.18601523980277 613.6565656565656,141.4511429852084 619.3939393939394,139.45540116539667 C625.1313131313132,137.45965934558492 635.1717171717172,134.0230464664575 640.909090909091,132.05121021963245 C646.6464646464648,130.07937397280742 656.6868686868688,126.60298072613178 662.4242424242425,124.66662931420888 C668.1616161616162,122.73027790228598 681.070707070707,118.48031525474376 683.9393939393939,117.52857463021067" fill="none" stroke="#6b63ff" stroke-width="2.5" class="data-line-0" />
  <path d="M683.9393939393939,117.52857463021067 C686.8080808080807,115.90971910951741 699.7171717171716,108.2554534588376 705.4545454545454,105.3871582250112 C711.1919191919192,102.51886299118482 721.2323232323232,98.51523980277902 726.969696969697,96.01636037651278 C732.7070707070708,93.51748095024654 742.7474747474747,89.1444419542806 748.4848484848485,86.64556252801435 C754.2222222222223,84.14668310174811 767.1313131313132,78.52420439264907 770,77.27476467951595" fill="none" stroke="#28a745" stroke-width="2.5" stroke-dasharray="8,4" />
  <path d="M683.9393939393939,117.52857463021067 C686.8080808080807,116.30453458837592 699.7171717171716,110.79635440011953 705.4545454545454,108.34827431645002 C711.1919191919192,105.9001942327805 721.2323232323232,101.61605408635887 726.969696969697,99.16797400268936 C732.7070707070708,96.71989391901985 742.7474747474747,92.43575377259825 748.4848484848485,89.98767368892874 C754.2222222222223,87.53959360525923 767.1313131313132,82.03141341700284 770,80.80737337516808" fill="none" stroke="#d73a49" stroke-width="2.5" stroke-dasharray="8,4" />
  <g class="points">
    
    <circle cx="60" cy="349.9971985656656" r="4" fill="#6b63ff" class="data-point" style="animation-delay: 1.50s" />
    <circle cx="81.51515151515152" cy="348.86261766024205" r="4" fill="#6b63ff" class="data-point" style="animation-delay: 1.55s" />
    <circle cx="103.03030303030303" cy="348.56286418646346" r="4" fill="#6b63ff" class="data-point" style="animation-delay: 1.60s" />
    <circle cx="124.54545454545455" cy="347.5207306140744" r="4" fill="#6b63ff" class="data-point" style="animation-delay: 1.65s" />
    <circle cx="146.06060606060606" cy="346.9716494845361" r="4" fill="#6b63ff" class="data-point" style="animation-delay: 1.70s" />
    <circle cx="167.57575757575756" cy="346.56824294038546" r="4" fill="#6b63ff" class="data-point" style="animation-delay: 1.75s" />
    <circle cx="189.0909090909091" cy="346.2264679515912" r="4" fill="#6b63ff" class="data-point" style="animation-delay: 1.80s" />
    <circle cx="210.60606060606062" cy="345.7474226804124" r="4" fill="#6b63ff" class="data-point" style="animation-delay: 1.85s" />
    <circle cx="232.12121212121212" cy="341.48083818915285" r="4" fill="#6b63ff" class="data-point" style="animation-delay: 1.90s" />
    <circle cx="253.63636363636363" cy="313.3180188256387" r="4" fill="#6b63ff" class="data-point" style="animation-delay: 1.95s" />
    <circle cx="275.1515151515151" cy="304.6055580457194" r="4" fill="#6b63ff" class="data-point" style="animation-delay: 2.00s" />
    <circle cx="296.66666666666663" cy="298.0193859255939" r="4" fill="#6b63ff" class="data-point" style="animation-delay: 2.05s" />
    <circle cx="318.1818181818182" cy="293.3101748095025" r="4" fill="#6b63ff" class="data-point" style="animation-delay: 2.10s" />
    <circle cx="339.6969696969697" cy="292.64063200358584" r="4" fill="#6b63ff" class="data-point" style="animation-delay: 2.15s" />
    <circle cx="361.21212121212125" cy="287.93142088749437" r="4" fill="#6b63ff" class="data-point" style="animation-delay: 2.20s" />
    <circle cx="382.7272727272727" cy="228.6082474226804" r="4" fill="#6b63ff" class="data-point" style="animation-delay: 2.25s" />
    <circle cx="404.24242424242425" cy="221.9688480502017" r="4" fill="#6b63ff" class="data-point" style="animation-delay: 2.30s" />
    <circle cx="425.75757575757575" cy="213.34043030031376" r="4" fill="#6b63ff" class="data-point" style="animation-delay: 2.35s" />
    <circle cx="447.27272727272725" cy="208.49955177050649" r="4" fill="#6b63ff" class="data-point" style="animation-delay: 2.40s" />
    <circle cx="468.7878787878788" cy="205.1882563872703" r="4" fill="#6b63ff" class="data-point" style="animation-delay: 2.45s" />
    <circle cx="490.3030303030303" cy="200.5266696548633" r="4" fill="#6b63ff" class="data-point" style="animation-delay: 2.50s" />
    <circle cx="511.8181818181818" cy="184.3595921111609" r="4" fill="#6b63ff" class="data-point" style="animation-delay: 2.55s" />
    <circle cx="533.3333333333333" cy="169.666069027342" r="4" fill="#6b63ff" class="data-point" style="animation-delay: 2.60s" />
    <circle cx="554.8484848484849" cy="161.46066786194532" r="4" fill="#6b63ff" class="data-point" style="animation-delay: 2.65s" />
    <circle cx="576.3636363636364" cy="153.20484087852978" r="4" fill="#6b63ff" class="data-point" style="animation-delay: 2.70s" />
    <circle cx="597.8787878787879" cy="147.01927386822052" r="4" fill="#6b63ff" class="data-point" style="animation-delay: 2.75s" />
    <circle cx="619.3939393939394" cy="139.45540116539667" r="4" fill="#6b63ff" class="data-point" style="animation-delay: 2.80s" />
    <circle cx="640.909090909091" cy="132.05121021963245" r="4" fill="#6b63ff" class="data-point" style="animation-delay: 2.85s" />
    <circle cx="662.4242424242425" cy="124.66662931420888" r="4" fill="#6b63ff" class="data-point" style="animation-delay: 2.90s" />
    <circle cx="683.9393939393939" cy="117.52857463021067" r="4" fill="#6b63ff" class="data-point" style="animation-delay: 2.95s" />
  </g>
</svg>