<svg xmlns="http://www.w3.org/2000/svg" viewBox="0 0 800 400" width="800" height="400">
  <style>
    @keyframes drawLine {
      to { stroke-dashoffset: 0; }
    }
    @keyframes fadeInPoint {
      from { opacity: 0; }
      to { opacity: 1; }
    }
    .data-line-0 {
      stroke-dasharray: 1060;
      stroke-dashoffset: 1060;
      animation: drawLine 2s ease-out forwards;
    }
    .data-point {
      opacity: 0;
      animation: fadeInPoint 0.5s ease-out forwards;
    }
    .chart-bg { fill: #fff; }
    .chart-text { fill: #24292e; }
    .chart-muted { fill: #6a737d; }
    .chart-grid { stroke: #eee; }
    .chart-axis { stroke: #6a737d; }
    @media (prefers-color-scheme: dark) {
      .chart-bg { fill: #0d1117; }
      .chart-text { fill: #e6edf3; }
      .chart-muted { fill: #8b949e; }
      .chart-grid { stroke: #21262d; }
      .chart-axis { stroke: #8b949e; }
    }
  </style>
  <rect width="800" height="400" class="chart-bg" />
  <text x="400" y="14" text-anchor="middle" class="chart-text" font-size="16" font-weight="bold" font-family="-apple-system, BlinkMacSystemFont, 'Segoe UI', Helvetica, Arial, sans-serif">Growth Forecast</text>
  <g class="legend">
    <rect x="220" y="31" width="12" height="3" fill="#6b63ff" />
    <line x1="220" y1="32.5" x2="232" y2="32.5" stroke="#6b63ff" stroke-width="2" />
    <text x="236" y="36" class="chart-text" font-size="10" font-family="-apple-system, BlinkMacSystemFont, 'Segoe UI', Helvetica, Arial, sans-serif">Star History</text>
    <rect x="340" y="31" width="12" height="3" fill="#28a745" rx="1" />
    <line x1="340" y1="32.5" x2="352" y2="32.5" stroke="#28a745" stroke-width="2" stroke-dasharray="4,2" />
    <text x="356" y="36" class="chart-text" font-size="10" font-family="-apple-system, BlinkMacSystemFont, 'Segoe UI', Helvetica, Arial, sans-serif">Linear Regression</text>
    <rect x="460" y="31" width="12" height="3" fill="#d73a49" rx="1" />
    <line x1="460" y1="32.5" x2="472" y2="32.5" stroke="#d73a49" stroke-width="2" stroke-dasharray="4,2" />
    <text x="476" y="36" class="chart-text" font-size="10" font-family="-apple-system, BlinkMacSystemFont, 'Segoe UI', Helvetica, Arial, sans-serif">Weighted Moving Average</text>
  </g>
  <g class="grid">
    <line x1="60" y1="350" x2="770" y2="350" class="chart-grid" stroke-opacity="0.3" />
    <text x="778" y="354" text-anchor="start" class="chart-muted" font-size="11" font-family="-apple-system, BlinkMacSystemFont, 'Segoe UI', Helvetica, Arial, sans-serif">0</text>
    <line x1="60" y1="293.98020633957333" x2="770" y2="293.98020633957333" class="chart-grid" stroke-opacity="0.3" />
    <text x="778" y="297.98020633957333" text-anchor="start" class="chart-muted" font-size="11" font-family="-apple-system, BlinkMacSystemFont, 'Segoe UI', Helvetica, Arial, sans-serif">20K</text>
    <line x1="60" y1="237.96041267914666" x2="770" y2="237.96041267914666" class="chart-grid" stroke-opacity="0.3" />
    <text x="778" y="241.96041267914666" text-anchor="start" class="chart-muted" font-size="11" font-family="-apple-system, BlinkMacSystemFont, 'Segoe UI', Helvetica, Arial, sans-serif">40K</text>
    <line x1="60" y1="181.94061901871993" x2="770" y2="181.94061901871993" class="chart-grid" stroke-opacity="0.3" />
    <text x="778" y="185.94061901871993" text-anchor="start" class="chart-muted" font-size="11" font-family="-apple-system, BlinkMacSystemFont, 'Segoe UI', Helvetica, Arial, sans-serif">60K</text>
    <line x1="60" y1="125.92082535829329" x2="770" y2="125.92082535829329" class="chart-grid" stroke-opacity="0.3" />
    <text x="778" y="129.92082535829329" text-anchor="start" class="chart-muted" font-size="11" font-family="-apple-system, BlinkMacSystemFont, 'Segoe UI', Helvetica, Arial, sans-serif">80K</text>
    <line x1="60" y1="69.90103169786659" x2="770" y2="69.90103169786659" class="chart-grid" stroke-opacity="0.3" />
    <text x="778" y="73.90103169786659" text-anchor="start" class="chart-muted" font-size="11" font-family="-apple-system, BlinkMacSystemFont, 'Segoe UI', Helvetica, Arial, sans-serif">100K</text>
  </g>
  <g class="milestones">
    
  </g>
  <g class="x-axis">
    <text x="60" y="370" text-anchor="middle" class="chart-muted" font-size="11" font-family="-apple-system, BlinkMacSystemFont, 'Segoe UI', Helvetica, Arial, sans-serif">Apr 1</text>
    <text x="146.06060606060606" y="370" text-anchor="middle" class="chart-muted" font-size="11" font-family="-apple-system, BlinkMacSystemFont, 'Segoe UI', Helvetica, Arial, sans-serif">Sep 11</text>
    <text x="232.12121212121212" y="370" text-anchor="middle" class="chart-muted" font-size="11" font-family="-apple-system, BlinkMacSystemFont, 'Segoe UI', Helvetica, Arial, sans-serif">Feb 21</text>
    <text x="318.1818181818182" y="370" text-anchor="middle" class="chart-muted" font-size="11" font-family="-apple-system, BlinkMacSystemFont, 'Segoe UI', Helvetica, Arial, sans-serif">Aug 2</text>
    <text x="404.24242424242425" y="370" text-anchor="middle" class="chart-muted" font-size="11" font-family="-apple-system, BlinkMacSystemFont, 'Segoe UI', Helvetica, Arial, sans-serif">Jan 12</text>
    <text x="490.3030303030303" y="370" text-anchor="middle" class="chart-muted" font-size="11" font-family="-apple-system, BlinkMacSystemFont, 'Segoe UI', Helvetica, Arial, sans-serif">Jun 24</text>
    <text x="576.3636363636364" y="370" text-anchor="middle" class="chart-muted" font-size="11" font-family="-apple-system, BlinkMacSystemFont, 'Segoe UI', Helvetica, Arial, sans-serif">Dec 4</text>
    <text x="662.4242424242425" y="370" text-anchor="middle" class="chart-muted" font-size="11" font-family="-apple-system, BlinkMacSystemFont, 'Segoe UI', Helvetica, Arial, sans-serif">May 15</text>
    <text x="748.4848484848485" y="370" text-anchor="middle" class="chart-muted" font-size="11" font-family="-apple-system, BlinkMacSystemFont, 'Segoe UI', Helvetica, Arial, sans-serif">Week 3</text>
    <text x="770" y="370" text-anchor="middle" class="chart-muted" font-size="11" font-family="-apple-system, BlinkMacSystemFont, 'Segoe UI', Helvetica, Arial, sans-serif">Week 4</text>
  </g>
  <line x1="770" y1="50" x2="770" y2="350" class="chart-axis" stroke-width="1" />
  <line x1="60" y1="350" x2="770" y2="350" class="chart-axis" stroke-width="1" />
  <path d="M60,350 L60,349.997199010317 C62.86868686868687,349.84594556743383 75.77777777777777,349.0540124177209 81.51515151515152,348.8627981886933 C87.25252525252526,348.6715839596657 97.29292929292929,348.74198216703235 103.03030303030303,348.56309229261007 C108.76767676767678,348.3842024181878 118.8080808080808,347.7332524158536 124.54545454545455,347.5211241305261 C130.2828282828283,347.30899584519864 140.32323232323233,347.0991083516176 146.06060606060606,346.97213015265396 C151.7979797979798,346.84515195369033 161.83838383838383,346.6681294057234 167.57575757575756,346.5687876382989 C173.3131313131313,346.4694458708744 183.35353535353536,346.33649222725364 189.0909090909091,346.22706689697026 C194.82828282828282,346.11764156668687 204.8686868686869,346.22706689697026 210.60606060606062,345.74809766117363 C216.34343434343435,345.11544745810187 226.3838383838384,345.74809766117363 232.12121212121212,341.4821903739321 C237.85858585858585,337.1608234909668 247.8989898989899,318.2530227346996 253.63636363636363,313.3378460389338 C259.37373737373736,308.42266934316797 269.4141414141414,306.6537509920172 275.1515151515151,304.61836515568837 C280.88888888888886,302.58297931935954 290.9292929292929,299.57901125064194 296.66666666666663,298.0724522664675 C302.40404040404036,296.5658932822931 312.44444444444446,294.04220157789086 318.1818181818182,293.31917277438026 C323.9191919191919,292.64973624013817 333.95959595959596,293.31917277438026 339.6969696969697,292.64973624013817 C345.4343434343434,291.93305634657577 355.4747474747475,292.64973624013817 361.21212121212125,287.9440735726623 C366.949494949495,279.40366929648474 376.98989898989896,237.39517296111293 382.7272727272727,228.59670416880633 C388.4646464646464,221.95555763036273 398.5050505050505,223.99206386256478 404.24242424242425,221.95555763036273 C409.979797979798,219.9190513981607 420.020202020202,215.12002240791747 425.75757575757575,213.32290742729097 C431.4949494949495,211.52579244666447 441.5353535353535,209.5632323420942 447.27272727272725,208.47719527566406 C453.010101010101,207.3911582092339 463.0505050505051,206.2397647168666 468.7878787878788,205.17762942906492 C474.52525252525254,204.11549414126324 484.5656565656566,203.29237663974604 490.3030303030303,200.51118061715138 C496.04040404040404,197.72998459455673 506.0808080808081,188.43574062835535 511.8181818181818,184.31865925960506 C517.5555555555555,180.20157789085476 527.5959595959595,172.68353484897997 533.3333333333333,169.6330703515242 C539.070707070707,166.58260585406842 549.1111111111111,163.63241678726484 554.8484848484849,161.4401755286868 C560.5858585858587,159.24793427010877 570.6262626262626,155.11460716119697 576.3636363636364,153.191260912189 C582.1010101010102,151.26791466318102 592.1414141414141,148.84767284440503 597.8787878787879,147.01507866112692 C603.6161616161617,145.18248447784882 613.6565656565656,141.4433499836609 619.3939393939394,139.4468045376033 C625.1313131313132,137.4502590915457 635.1717171717172,134.0106437607955 640.909090909091,132.04098781569488 C646.6464646464648,130.07133187059426 656.6868686868688,126.5947434760282 662.4242424242425,124.67438494934876 C668.1616161616162,122.75402642266933 681.070707070707,118.57644367676576 683.9393939393939,117.63829886559915 L683.9393939393939,350 L60,350 Z" fill="#6b63ff" fill-opacity="0.1" />
  
  
  <path d="M60,350 L60,349.997199010317 C62.86868686868687,349.84594556743383 75.77777777777777,349.0540124177209 81.51515151515152,348.8627981886933 C87.25252525252526,348.6715839596657 97.29292929292929,348.74198216703235 103.03030303030303,348.56309229261007 C108.76767676767678,348.3842024181878 118.8080808080808,347.7332524158536 124.54545454545455,347.5211241305261 C130.2828282828283,347.30899584519864 140.32323232323233,347.0991083516176 146.06060606060606,346.97213015265396 C151.7979797979798,346.84515195369033 161.83838383838383,346.6681294057234 167.57575757575756,346.5687876382989 C173.3131313131313,346.4694458708744 183.35353535353536,346.33649222725364 189.0909090909091,346.22706689697026 C194.82828282828282,346.11764156668687 204.8686868686869,346.22706689697026 210.60606060606062,345.74809766117363 C216.34343434343435,345.11544745810187 226.3838383838384,345.74809766117363 232.12121212121212,341.4821903739321 C237.85858585858585,337.1608234909668 247.8989898989899,318.2530227346996 253.63636363636363,313.3378460389338 C259.37373737373736,308.42266934316797 269.4141414141414,306.6537509920172 275.1515151515151,304.61836515568837 C280.88888888888886,302.58297931935954 290.9292929292929,299.57901125064194 296.66666666666663,298.0724522664675 C302.40404040404036,296.5658932822931 312.44444444444446,294.04220157789086 318.1818181818182,293.31917277438026 C323.9191919191919,292.64973624013817 333.95959595959596,293.31917277438026 339.6969696969697,292.64973624013817 C345.4343434343434,291.93305634657577 355.4747474747475,292.64973624013817 361.21212121212125,287.9440735726623 C366.949494949495,279.40366929648474 376.98989898989896,237.39517296111293 382.7272727272727,228.59670416880633 C388.4646464646464,221.95555763036273 398.5050505050505,223.99206386256478 404.24242424242425,221.95555763036273 C409.979797979798,219.9190513981607 420.020202020202,215.12002240791747 425.75757575757575,213.32290742729097 C431.4949494949495,211.52579244666447 441.5353535353535,209.5632323420942 447.27272727272725,208.47719527566406 C453.010101010101,207.3911582092339 463.0505050505051,206.2397647168666 468.7878787878788,205.17762942906492 C474.52525252525254,204.11549414126324 484.5656565656566,203.29237663974604 490.3030303030303,200.51118061715138 C496.04040404040404,197.72998459455673 506.0808080808081,188.43574062835535 511.8181818181818,184.31865925960506 C517.5555555555555,180.20157789085476 527.5959595959595,172.68353484897997 533.3333333333333,169.6330703515242 C539.070707070707,166.58260585406842 549.1111111111111,163.63241678726484 554.8484848484849,161.4401755286868 C560.5858585858587,159.24793427010877 570.6262626262626,155.11460716119697 576.3636363636364,153.191260912189 C582.1010101010102,151.26791466318102 592.1414141414141,148.84767284440503 597.8787878787879,147.01507866112692 C603.6161616161617,145.18248447784882 613.6565656565656,141.4433499836609 619.3939393939394,139.4468045376033 C625.1313131313132,137.4502590915457 635.1717171717172,134.0106437607955 640.909090909091,132.04098781569488 C646.6464646464648,130.07133187059426 656.6868686868688,126.5947434760282 662.4242424242425,124.67438494934876 C668.1616161616162,122.75402642266933 681.070707070707,118.57644367676576 683.9393939393939,117.63829886559915" fill="none" stroke="#6b63ff" stroke-width="2.5" class="data-line-0" />
  <path d="M683.9393939393939,117.63829886559915 C686.8080808080807,116.00476168246112 699.7171717171716,108.26954857382943 705.4545454545454,105.38676999206388 C711.1919191919192,102.50399141029833 721.2323232323232,98.5163157649036 726.969696969697,96.0174595023575 C732.7070707070708,93.5186032398114 742.7474747474747,89.14457775080528 748.4848484848485,86.64534802296811 C754.2222222222223,84.14611829513093 767.1313131313132,78.5228514074973 770,77.27323654357872" fill="none" stroke="#28a745" stroke-width="2.5" stroke-dasharray="8,4" />
  <path d="M683.9393939393939,117.63829886559915 C686.8080808080807,116.41520003734651 699.7171717171716,110.91125531020958 705.4545454545454,108.46505765370429 C711.1919191919192,106.018859997199 721.2323232323232,101.73801409831474 726.969696969697,99.29181644180943 C732.7070707070708,96.84561878530413 742.7474747474747,92.56439942112877 748.4848484848485,90.11857522991454 C754.2222222222223,87.67275103870031 767.1313131313132,82.1708603706643 770,80.94813500770272" fill="none" stroke="#d73a49" stroke-width="2.5" stroke-dasharray="8,4" />
  <g class="points">
    
    <circle cx="60" cy="349.997199010317" r="4" fill="#6b63ff" class="data-point" style="animation-delay: 1.50s" />
    <circle cx="81.51515151515152" cy="348.8627981886933" r="4" fill="#6b63ff" class="data-point" style="animation-delay: 1.55s" />
    <circle cx="103.03030303030303" cy="348.56309229261007" r="4" fill="#6b63ff" class="data-point" style="animation-delay: 1.60s" />
    <circle cx="124.54545454545455" cy="347.5211241305261" r="4" fill="#6b63ff" class="data-point" style="animation-delay: 1.65s" />
    <circle cx="146.06060606060606" cy="346.97213015265396" r="4" fill="#6b63ff" class="data-point" style="animation-delay: 1.70s" />
    <circle cx="167.57575757575756" cy="346.5687876382989" r="4" fill="#6b63ff" class="data-point" style="animation-delay: 1.75s" />
    <circle cx="189.0909090909091" cy="346.22706689697026" r="4" fill="#6b63ff" class="data-point" style="animation-delay: 1.80s" />
    <circle cx="210.60606060606062" cy="345.74809766117363" r="4" fill="#6b63ff" class="data-point" style="animation-delay: 1.85s" />
    <circle cx="232.12121212121212" cy="341.4821903739321" r="4" fill="#6b63ff" class="data-point" style="animation-delay: 1.90s" />
    <circle cx="253.63636363636363" cy="313.3378460389338" r="4" fill="#6b63ff" class="data-point" style="animation-delay: 1.95s" />
    <circle cx="275.1515151515151" cy="304.61836515568837" r="4" fill="#6b63ff" class="data-point" style="animation-delay: 2.00s" />
    <circle cx="296.66666666666663" cy="298.0724522664675" r="4" fill="#6b63ff" class="data-point" style="animation-delay: 2.05s" />
    <circle cx="318.1818181818182" cy="293.31917277438026" r="4" fill="#6b63ff" class="data-point" style="animation-delay: 2.10s" />
    <circle cx="339.6969696969697" cy="292.64973624013817" r="4" fill="#6b63ff" class="data-point" style="animation-delay: 2.15s" />
    <circle cx="361.21212121212125" cy="287.9440735726623" r="4" fill="#6b63ff" class="data-point" style="animation-delay: 2.20s" />
    <circle cx="382.7272727272727" cy="228.59670416880633" r="4" fill="#6b63ff" class="data-point" style="animation-delay: 2.25s" />
    <circle cx="404.24242424242425" cy="221.95555763036273" r="4" fill="#6b63ff" class="data-point" style="animation-delay: 2.30s" />
    <circle cx="425.75757575757575" cy="213.32290742729097" r="4" fill="#6b63ff" class="data-point" style="animation-delay: 2.35s" />
    <circle cx="447.27272727272725" cy="208.47719527566406" r="4" fill="#6b63ff" class="data-point" style="animation-delay: 2.40s" />
    <circle cx="468.7878787878788" cy="205.17762942906492" r="4" fill="#6b63ff" class="data-point" style="animation-delay: 2.45s" />
    <circle cx="490.3030303030303" cy="200.51118061715138" r="4" fill="#6b63ff" class="data-point" style="animation-delay: 2.50s" />
    <circle cx="511.8181818181818" cy="184.31865925960506" r="4" fill="#6b63ff" class="data-point" style="animation-delay: 2.55s" />
    <circle cx="533.3333333333333" cy="169.6330703515242" r="4" fill="#6b63ff" class="data-point" style="animation-delay: 2.60s" />
    <circle cx="554.8484848484849" cy="161.4401755286868" r="4" fill="#6b63ff" class="data-point" style="animation-delay: 2.65s" />
    <circle cx="576.3636363636364" cy="153.191260912189" r="4" fill="#6b63ff" class="data-point" style="animation-delay: 2.70s" />
    <circle cx="597.8787878787879" cy="147.01507866112692" r="4" fill="#6b63ff" class="data-point" style="animation-delay: 2.75s" />
    <circle cx="619.3939393939394" cy="139.4468045376033" r="4" fill="#6b63ff" class="data-point" style="animation-delay: 2.80s" />
    <circle cx="640.909090909091" cy="132.04098781569488" r="4" fill="#6b63ff" class="data-point" style="animation-delay: 2.85s" />
    <circle cx="662.4242424242425" cy="124.67438494934876" r="4" fill="#6b63ff" class="data-point" style="animation-delay: 2.90s" />
    <circle cx="683.9393939393939" cy="117.63829886559915" r="4" fill="#6b63ff" class="data-point" style="animation-delay: 2.95s" />
  </g>
</svg>