<svg xmlns="http://www.w3.org/2000/svg" viewBox="0 0 800 400" width="800" height="400">
  <style>
    @keyframes drawLine {
      to { stroke-dashoffset: 0; }
    }
    @keyframes fadeInPoint {
      from { opacity: 0; }
      to { opacity: 1; }
    }
    .data-line-0 {
      stroke-dasharray: 1060;
      stroke-dashoffset: 1060;
      animation: drawLine 2s ease-out forwards;
    }
    .data-point {
      opacity: 0;
      animation: fadeInPoint 0.5s ease-out forwards;
    }
    .chart-bg { fill: #fff; }
    .chart-text { fill: #24292e; }
    .chart-muted { fill: #6a737d; }
    .chart-grid { stroke: #eee; }
    .chart-axis { stroke: #6a737d; }
    @media (prefers-color-scheme: dark) {
      .chart-bg { fill: #0d1117; }
      .chart-text { fill: #e6edf3; }
      .chart-muted { fill: #8b949e; }
      .chart-grid { stroke: #21262d; }
      .chart-axis { stroke: #8b949e; }
    }
  </style>
  <rect width="800" height="400" class="chart-bg" />
  <text x="400" y="14" text-anchor="middle" class="chart-text" font-size="16" font-weight="bold" font-family="-apple-system, BlinkMacSystemFont, 'Segoe UI', Helvetica, Arial, sans-serif">Growth Forecast</text>
  <g class="legend">
    <rect x="220" y="31" width="12" height="3" fill="#6b63ff" />
    <line x1="220" y1="32.5" x2="232" y2="32.5" stroke="#6b63ff" stroke-width="2" />
    <text x="236" y="36" class="chart-text" font-size="10" font-family="-apple-system, BlinkMacSystemFont, 'Segoe UI', Helvetica, Arial, sans-serif">Star History</text>
    <rect x="340" y="31" width="12" height="3" fill="#28a745" rx="1" />
    <line x1="340" y1="32.5" x2="352" y2="32.5" stroke="#28a745" stroke-width="2" stroke-dasharray="4,2" />
    <text x="356" y="36" class="chart-text" font-size="10" font-family="-apple-system, BlinkMacSystemFont, 'Segoe UI', Helvetica, Arial, sans-serif">Linear Regression</text>
    <rect x="460" y="31" width="12" height="3" fill="#d73a49" rx="1" />
    <line x1="460" y1="32.5" x2="472" y2="32.5" stroke="#d73a49" stroke-width="2" stroke-dasharray="4,2" />
    <text x="476" y="36" class="chart-text" font-size="10" font-family="-apple-system, BlinkMacSystemFont, 'Segoe UI', Helvetica, Arial, sans-serif">Weighted Moving Average</text>
  </g>
  <g class="grid">
    <line x1="60" y1="350" x2="770" y2="350" class="chart-grid" stroke-opacity="0.3" />
    <text x="778" y="354" text-anchor="start" class="chart-muted" font-size="11" font-family="-apple-system, BlinkMacSystemFont, 'Segoe UI', Helvetica, Arial, sans-serif">0</text>
    <line x1="60" y1="294.3522133907124" x2="770" y2="294.3522133907124" class="chart-grid" stroke-opacity="0.3" />
    <text x="778" y="298.3522133907124" text-anchor="start" class="chart-muted" font-size="11" font-family="-apple-system, BlinkMacSystemFont, 'Segoe UI', Helvetica, Arial, sans-serif">20K</text>
    <line x1="60" y1="238.70442678142476" x2="770" y2="238.70442678142476" class="chart-grid" stroke-opacity="0.3" />
    <text x="778" y="242.70442678142476" text-anchor="start" class="chart-muted" font-size="11" font-family="-apple-system, BlinkMacSystemFont, 'Segoe UI', Helvetica, Arial, sans-serif">40K</text>
    <line x1="60" y1="183.05664017213715" x2="770" y2="183.05664017213715" class="chart-grid" stroke-opacity="0.3" />
    <text x="778" y="187.05664017213715" text-anchor="start" class="chart-muted" font-size="11" font-family="-apple-system, BlinkMacSystemFont, 'Segoe UI', Helvetica, Arial, sans-serif">60K</text>
    <line x1="60" y1="127.40885356284952" x2="770" y2="127.40885356284952" class="chart-grid" stroke-opacity="0.3" />
    <text x="778" y="131.40885356284952" text-anchor="start" class="chart-muted" font-size="11" font-family="-apple-system, BlinkMacSystemFont, 'Segoe UI', Helvetica, Arial, sans-serif">80K</text>
    <line x1="60" y1="71.76106695356191" x2="770" y2="71.76106695356191" class="chart-grid" stroke-opacity="0.3" />
    <text x="778" y="75.76106695356191" text-anchor="start" class="chart-muted" font-size="11" font-family="-apple-system, BlinkMacSystemFont, 'Segoe UI', Helvetica, Arial, sans-serif">100K</text>
  </g>
  <g class="milestones">
    
  </g>
  <g class="x-axis">
    <text x="60" y="370" text-anchor="middle" class="chart-muted" font-size="11" font-family="-apple-system, BlinkMacSystemFont, 'Segoe UI', Helvetica, Arial, sans-serif">Apr 1</text>
    <text x="146.06060606060606" y="370" text-anchor="middle" class="chart-muted" font-size="11" font-family="-apple-system, BlinkMacSystemFont, 'Segoe UI', Helvetica, Arial, sans-serif">Sep 12</text>
    <text x="232.12121212121212" y="370" text-anchor="middle" class="chart-muted" font-size="11" font-family="-apple-system, BlinkMacSystemFont, 'Segoe UI', Helvetica, Arial, sans-serif">Feb 23</text>
    <text x="318.1818181818182" y="370" text-anchor="middle" class="chart-muted" font-size="11" font-family="-apple-system, BlinkMacSystemFont, 'Segoe UI', Helvetica, Arial, sans-serif">Aug 4</text>
    <text x="404.24242424242425" y="370" text-anchor="middle" class="chart-muted" font-size="11" font-family="-apple-system, BlinkMacSystemFont, 'Segoe UI', Helvetica, Arial, sans-serif">Jan 15</text>
    <text x="490.3030303030303" y="370" text-anchor="middle" class="chart-muted" font-size="11" font-family="-apple-system, BlinkMacSystemFont, 'Segoe UI', Helvetica, Arial, sans-serif">Jun 27</text>
    <text x="576.3636363636364" y="370" text-anchor="middle" class="chart-muted" font-size="11" font-family="-apple-system, BlinkMacSystemFont, 'Segoe UI', Helvetica, Arial, sans-serif">Dec 8</text>
    <text x="662.4242424242425" y="370" text-anchor="middle" class="chart-muted" font-size="11" font-family="-apple-system, BlinkMacSystemFont, 'Segoe UI', Helvetica, Arial, sans-serif">May 21</text>
    <text x="748.4848484848485" y="370" text-anchor="middle" class="chart-muted" font-size="11" font-family="-apple-system, BlinkMacSystemFont, 'Segoe UI', Helvetica, Arial, sans-serif">Week 3</text>
    <text x="770" y="370" text-anchor="middle" class="chart-muted" font-size="11" font-family="-apple-system, BlinkMacSystemFont, 'Segoe UI', Helvetica, Arial, sans-serif">Week 4</text>
  </g>
  <line x1="770" y1="50" x2="770" y2="350" class="chart-axis" stroke-width="1" />
  <line x1="60" y1="350" x2="770" y2="350" class="chart-axis" stroke-width="1" />
  <path d="M60,350 L60,349.9972176106695 C67.17171717171718,349.62159505105683 74.34343434343434,349.08754458085997 81.51515151515152,348.87034993183147 C88.68686868686869,348.65315528280297 95.85858585858585,348.77625425693594 103.03030303030303,348.57263427347175 C110.20202020202021,348.36901429000756 117.37373737373737,347.79820257649254 124.54545454545455,347.5348030532086 C131.7171717171717,347.2714035299246 138.88888888888889,347.14944213093924 146.06060606060606,346.992237133768 C153.23232323232324,346.8350321365968 160.4040404040404,346.7153893953868 167.57575757575756,346.59157307018114 C174.74747474747474,346.4677567449755 181.91919191919192,346.3297245797283 189.0909090909091,346.249339182534 C196.26262626262627,346.16895378533974 203.43434343434345,346.1434407300783 210.60606060606062,345.77633299635505 C217.7777777777778,345.4092252626318 224.94949494949495,345.76046425733057 232.12121212121212,341.52205971007504 C239.2929292929293,337.2836551628195 246.46464646464645,319.5903395442446 253.63636363636363,313.4867048163159 C260.8080808080808,307.3830700883872 267.979797979798,307.4442826536574 275.1515151515151,304.9002513425028 C282.3232323232323,302.35622003134824 289.4949494949495,300.10155721056196 296.66666666666663,298.22251694938836 C303.83838383838383,296.34347668821476 311.010101010101,294.0849174239111 318.1818181818182,293.62600977546117 C325.35353535353534,293.1671021270112 332.52525252525254,293.1802887907021 339.6969696969697,292.95823633614975 C346.8686868686869,292.7361838815974 354.04040404040404,292.95319931230057 361.21212121212125,288.0612311145324 C368.3838383838384,283.1692629167643 375.55555555555554,235.26090433645868 382.7272727272727,228.83529182626762 C389.8989898989899,222.40967931607653 397.07070707070704,223.7324046650884 404.24242424242425,222.23824672373655 C411.4141414141414,220.7440887823847 418.5858585858586,215.7886682557201 425.75757575757575,213.52936811938304 C432.9292929292929,211.27006798304598 440.1010101010101,210.03932443587055 447.27272727272725,208.6824459057141 C454.44444444444446,207.32556737555765 461.6161616161616,206.698602313093 468.7878787878788,205.38809693844428 C475.95959595959596,204.07759156379555 483.13131313131316,204.26169299116128 490.3030303030303,200.81941365782177 C497.47474747474746,197.37713432448226 504.64646464646466,189.91152001929123 511.8181818181818,184.73442093840717 C518.989898989899,179.5573218575231 526.1616161616162,173.63686109385 533.3333333333333,169.75681917251742 C540.5050505050505,165.87677725118482 547.6767676767677,163.9453353242875 554.8484848484849,161.4541694104117 C562.0202020202021,158.96300349653595 569.1919191919192,157.25554391074095 576.3636363636364,154.80982368926277 C583.5353535353536,152.3641034677846 590.7070707070707,149.4170894352677 597.8787878787879,146.77984808154255 C605.0505050505051,144.1426067278174 612.2222222222222,141.53829031450275 619.3939393939394,138.98637556691185 C626.5656565656566,136.43446081932092 633.7373737373738,133.978538503631 640.909090909091,131.46835959599704 C648.0808080808082,128.9581806883631 655.2525252525253,126.28198588401143 662.4242424242425,123.9253021211081 C669.5959595959596,121.56861835820479 676.7676767676768,119.5272720527541 683.9393939393939,117.32825701857709 L683.9393939393939,350 L60,350 Z" fill="#6b63ff" fill-opacity="0.1" />
  
  
  <path d="M60,350 L60,349.9972176106695 C67.17171717171718,349.62159505105683 74.34343434343434,349.08754458085997 81.51515151515152,348.87034993183147 C88.68686868686869,348.65315528280297 95.85858585858585,348.77625425693594 103.03030303030303,348.57263427347175 C110.20202020202021,348.36901429000756 117.37373737373737,347.79820257649254 124.54545454545455,347.5348030532086 C131.7171717171717,347.2714035299246 138.88888888888889,347.14944213093924 146.06060606060606,346.992237133768 C153.23232323232324,346.8350321365968 160.4040404040404,346.7153893953868 167.57575757575756,346.59157307018114 C174.74747474747474,346.4677567449755 181.91919191919192,346.3297245797283 189.0909090909091,346.249339182534 C196.26262626262627,346.16895378533974 203.43434343434345,346.1434407300783 210.60606060606062,345.77633299635505 C217.7777777777778,345.4092252626318 224.94949494949495,345.76046425733057 232.12121212121212,341.52205971007504 C239.2929292929293,337.2836551628195 246.46464646464645,319.5903395442446 253.63636363636363,313.4867048163159 C260.8080808080808,307.3830700883872 267.979797979798,307.4442826536574 275.1515151515151,304.9002513425028 C282.3232323232323,302.35622003134824 289.4949494949495,300.10155721056196 296.66666666666663,298.22251694938836 C303.83838383838383,296.34347668821476 311.010101010101,294.0849174239111 318.1818181818182,293.62600977546117 C325.35353535353534,293.1671021270112 332.52525252525254,293.1802887907021 339.6969696969697,292.95823633614975 C346.8686868686869,292.7361838815974 354.04040404040404,292.95319931230057 361.21212121212125,288.0612311145324 C368.3838383838384,283.1692629167643 375.55555555555554,235.26090433645868 382.7272727272727,228.83529182626762 C389.8989898989899,222.40967931607653 397.07070707070704,223.7324046650884 404.24242424242425,222.23824672373655 C411.4141414141414,220.7440887823847 418.5858585858586,215.7886682557201 425.75757575757575,213.52936811938304 C432.9292929292929,211.27006798304598 440.1010101010101,210.03932443587055 447.27272727272725,208.6824459057141 C454.44444444444446,207.32556737555765 461.6161616161616,206.698602313093 468.7878787878788,205.38809693844428 C475.95959595959596,204.07759156379555 483.13131313131316,204.26169299116128 490.3030303030303,200.81941365782177 C497.47474747474746,197.37713432448226 504.64646464646466,189.91152001929123 511.8181818181818,184.73442093840717 C518.989898989899,179.5573218575231 526.1616161616162,173.63686109385 533.3333333333333,169.75681917251742 C540.5050505050505,165.87677725118482 547.6767676767677,163.9453353242875 554.8484848484849,161.4541694104117 C562.0202020202021,158.96300349653595 569.1919191919192,157.25554391074095 576.3636363636364,154.80982368926277 C583.5353535353536,152.3641034677846 590.7070707070707,149.4170894352677 597.8787878787879,146.77984808154255 C605.0505050505051,144.1426067278174 612.2222222222222,141.53829031450275 619.3939393939394,138.98637556691185 C626.5656565656566,136.43446081932092 633.7373737373738,133.978538503631 640.909090909091,131.46835959599704 C648.0808080808082,128.9581806883631 655.2525252525253,126.28198588401143 662.4242424242425,123.9253021211081 C669.5959595959596,121.56861835820479 676.7676767676768,119.5272720527541 683.9393939393939,117.32825701857709" fill="none" stroke="#6b63ff" stroke-width="2.5" class="data-line-0" />
  <path d="M683.9393939393939,117.32825701857709 C691.1111111111111,113.35315012845363 698.2828282828282,108.95326513387928 705.4545454545454,105.40293634820674 C712.6262626262626,101.85260756253417 719.7979797979798,99.15183498576344 726.969696969697,96.02628430454178 C734.1414141414142,92.90073362332012 741.3131313131313,89.77518294209844 748.4848484848485,86.64963226087679 C755.6565656565657,83.52408157965513 762.8282828282828,80.39853089843349 770,77.27298021721185" fill="none" stroke="#28a745" stroke-width="2.5" stroke-dasharray="8,4" />
  <path d="M683.9393939393939,117.32825701857709 C691.1111111111111,114.26113651329518 698.2828282828282,111.19355227645819 705.4545454545454,108.12689550273137 C712.6262626262626,105.06023872900454 719.7979797979798,101.99497314994298 726.969696969697,98.92831637621615 C734.1414141414142,95.86165960248933 741.3131313131313,92.79407536565233 748.4848484848485,89.72695486037043 C755.6565656565657,86.65983435508852 762.8282828282828,83.59271384980663 770,80.52559334452474" fill="none" stroke="#d73a49" stroke-width="2.5" stroke-dasharray="8,4" />
  <g class="points">
    
    <circle cx="60" cy="349.9972176106695" r="4" fill="#6b63ff" class="data-point" style="animation-delay: 1.50s" />
    <circle cx="81.51515151515152" cy="348.87034993183147" r="4" fill="#6b63ff" class="data-point" style="animation-delay: 1.55s" />
    <circle cx="103.03030303030303" cy="348.57263427347175" r="4" fill="#6b63ff" class="data-point" style="animation-delay: 1.60s" />
    <circle cx="124.54545454545455" cy="347.5348030532086" r="4" fill="#6b63ff" class="data-point" style="animation-delay: 1.65s" />
    <circle cx="146.06060606060606" cy="346.992237133768" r="4" fill="#6b63ff" class="data-point" style="animation-delay: 1.70s" />
    <circle cx="167.57575757575756" cy="346.59157307018114" r="4" fill="#6b63ff" class="data-point" style="animation-delay: 1.75s" />
    <circle cx="189.0909090909091" cy="346.249339182534" r="4" fill="#6b63ff" class="data-point" style="animation-delay: 1.80s" />
    <circle cx="210.60606060606062" cy="345.77633299635505" r="4" fill="#6b63ff" class="data-point" style="animation-delay: 1.85s" />
    <circle cx="232.12121212121212" cy="341.52205971007504" r="4" fill="#6b63ff" class="data-point" style="animation-delay: 1.90s" />
    <circle cx="253.63636363636363" cy="313.4867048163159" r="4" fill="#6b63ff" class="data-point" style="animation-delay: 1.95s" />
    <circle cx="275.1515151515151" cy="304.9002513425028" r="4" fill="#6b63ff" class="data-point" style="animation-delay: 2.00s" />
    <circle cx="296.66666666666663" cy="298.22251694938836" r="4" fill="#6b63ff" class="data-point" style="animation-delay: 2.05s" />
    <circle cx="318.1818181818182" cy="293.62600977546117" r="4" fill="#6b63ff" class="data-point" style="animation-delay: 2.10s" />
    <circle cx="339.6969696969697" cy="292.95823633614975" r="4" fill="#6b63ff" class="data-point" style="animation-delay: 2.15s" />
    <circle cx="361.21212121212125" cy="288.0612311145324" r="4" fill="#6b63ff" class="data-point" style="animation-delay: 2.20s" />
    <circle cx="382.7272727272727" cy="228.83529182626762" r="4" fill="#6b63ff" class="data-point" style="animation-delay: 2.25s" />
    <circle cx="404.24242424242425" cy="222.23824672373655" r="4" fill="#6b63ff" class="data-point" style="animation-delay: 2.30s" />
    <circle cx="425.75757575757575" cy="213.52936811938304" r="4" fill="#6b63ff" class="data-point" style="animation-delay: 2.35s" />
    <circle cx="447.27272727272725" cy="208.6824459057141" r="4" fill="#6b63ff" class="data-point" style="animation-delay: 2.40s" />
    <circle cx="468.7878787878788" cy="205.38809693844428" r="4" fill="#6b63ff" class="data-point" style="animation-delay: 2.45s" />
    <circle cx="490.3030303030303" cy="200.81941365782177" r="4" fill="#6b63ff" class="data-point" style="animation-delay: 2.50s" />
    <circle cx="511.8181818181818" cy="184.73442093840717" r="4" fill="#6b63ff" class="data-point" style="animation-delay: 2.55s" />
    <circle cx="533.3333333333333" cy="169.75681917251742" r="4" fill="#6b63ff" class="data-point" style="animation-delay: 2.60s" />
    <circle cx="554.8484848484849" cy="161.4541694104117" r="4" fill="#6b63ff" class="data-point" style="animation-delay: 2.65s" />
    <circle cx="576.3636363636364" cy="154.80982368926277" r="4" fill="#6b63ff" class="data-point" style="animation-delay: 2.70s" />
    <circle cx="597.8787878787879" cy="146.77984808154255" r="4" fill="#6b63ff" class="data-point" style="animation-delay: 2.75s" />
    <circle cx="619.3939393939394" cy="138.98637556691185" r="4" fill="#6b63ff" class="data-point" style="animation-delay: 2.80s" />
    <circle cx="640.909090909091" cy="131.46835959599704" r="4" fill="#6b63ff" class="data-point" style="animation-delay: 2.85s" />
    <circle cx="662.4242424242425" cy="123.9253021211081" r="4" fill="#6b63ff" class="data-point" style="animation-delay: 2.90s" />
    <circle cx="683.9393939393939" cy="117.32825701857709" r="4" fill="#6b63ff" class="data-point" style="animation-delay: 2.95s" />
  </g>
</svg>