<svg xmlns="http://www.w3.org/2000/svg" viewBox="0 0 800 400" width="800" height="400">
  <style>
    @keyframes drawLine {
      to { stroke-dashoffset: 0; }
    }
    @keyframes fadeInPoint {
      from { opacity: 0; }
      to { opacity: 1; }
    }
    .data-line-0 {
      stroke-dasharray: 1159;
      stroke-dashoffset: 1159;
      animation: drawLine 2s ease-out forwards;
    }
    .data-point {
      opacity: 0;
      animation: fadeInPoint 0.5s ease-out forwards;
    }
    .chart-bg { fill: #fff; }
    .chart-text { fill: #24292e; }
    .chart-muted { fill: #6a737d; }
    .chart-grid { stroke: #eee; }
    .chart-axis { stroke: #6a737d; }
    @media (prefers-color-scheme: dark) {
      .chart-bg { fill: #0d1117; }
      .chart-text { fill: #e6edf3; }
      .chart-muted { fill: #8b949e; }
      .chart-grid { stroke: #21262d; }
      .chart-axis { stroke: #8b949e; }
    }
  </style>
  <rect width="800" height="400" class="chart-bg" />
  <text x="400" y="14" text-anchor="middle" class="chart-text" font-size="16" font-weight="bold" font-family="-apple-system, BlinkMacSystemFont, 'Segoe UI', Helvetica, Arial, sans-serif">qemus/qemu-arm Star History</text>
  
  <g class="grid">
    <line x1="60" y1="350" x2="770" y2="350" class="chart-grid" stroke-opacity="0.3" />
    <text x="778" y="354" text-anchor="start" class="chart-muted" font-size="11" font-family="-apple-system, BlinkMacSystemFont, 'Segoe UI', Helvetica, Arial, sans-serif">0</text>
    <line x1="60" y1="282.12669683257917" x2="770" y2="282.12669683257917" class="chart-grid" stroke-opacity="0.3" />
    <text x="778" y="286.12669683257917" text-anchor="start" class="chart-muted" font-size="11" font-family="-apple-system, BlinkMacSystemFont, 'Segoe UI', Helvetica, Arial, sans-serif">50</text>
    <line x1="60" y1="214.25339366515837" x2="770" y2="214.25339366515837" class="chart-grid" stroke-opacity="0.3" />
    <text x="778" y="218.25339366515837" text-anchor="start" class="chart-muted" font-size="11" font-family="-apple-system, BlinkMacSystemFont, 'Segoe UI', Helvetica, Arial, sans-serif">100</text>
    <line x1="60" y1="146.38009049773754" x2="770" y2="146.38009049773754" class="chart-grid" stroke-opacity="0.3" />
    <text x="778" y="150.38009049773754" text-anchor="start" class="chart-muted" font-size="11" font-family="-apple-system, BlinkMacSystemFont, 'Segoe UI', Helvetica, Arial, sans-serif">150</text>
    <line x1="60" y1="78.50678733031674" x2="770" y2="78.50678733031674" class="chart-grid" stroke-opacity="0.3" />
    <text x="778" y="82.50678733031674" text-anchor="start" class="chart-muted" font-size="11" font-family="-apple-system, BlinkMacSystemFont, 'Segoe UI', Helvetica, Arial, sans-serif">200</text>
  </g>
  <g class="milestones">
    
  </g>
  <g class="x-axis">
    <text x="60" y="370" text-anchor="middle" class="chart-muted" font-size="11" font-family="-apple-system, BlinkMacSystemFont, 'Segoe UI', Helvetica, Arial, sans-serif">2024</text>
    <text x="329.3103448275862" y="370" text-anchor="middle" class="chart-muted" font-size="11" font-family="-apple-system, BlinkMacSystemFont, 'Segoe UI', Helvetica, Arial, sans-serif">2025</text>
    <text x="623.1034482758621" y="370" text-anchor="middle" class="chart-muted" font-size="11" font-family="-apple-system, BlinkMacSystemFont, 'Segoe UI', Helvetica, Arial, sans-serif">2026</text>
  </g>
  <line x1="770" y1="50" x2="770" y2="350" class="chart-axis" stroke-width="1" />
  <line x1="60" y1="350" x2="770" y2="350" class="chart-axis" stroke-width="1" />
  <path d="M60,350 L60,348.6425339366516 C68.16091954022988,348.1900452488688 76.32183908045977,347.96380090497735 84.48275862068965,347.28506787330315 C92.64367816091954,346.60633484162895 100.80459770114942,346.60633484162895 108.9655172413793,344.57013574660635 C117.12643678160919,342.53393665158376 125.28735632183907,338.68778280542983 133.44827586206895,335.0678733031674 C141.60919540229884,331.447963800905 149.77011494252872,326.4705882352941 157.9310344827586,322.85067873303166 C166.0919540229885,319.2307692307692 174.2528735632184,316.7420814479638 182.41379310344828,313.34841628959276 C190.57471264367817,309.9547511312217 198.73563218390805,305.6561085972851 206.89655172413794,302.4886877828054 C215.05747126436782,299.32126696832574 223.2183908045977,298.1900452488688 231.3793103448276,294.3438914027149 C239.54022988505747,290.49773755656105 247.70114942528735,283.71040723981895 255.86206896551724,279.4117647058823 C264.0229885057471,275.1131221719457 272.183908045977,272.85067873303166 280.34482758620686,268.552036199095 C288.50574712643675,264.2533936651584 296.6666666666667,257.4660633484163 304.82758620689657,253.61990950226243 C312.98850574712645,249.7737556561086 321.14942528735634,248.19004524886876 329.3103448275862,245.47511312217193 C337.4712643678161,242.7601809954751 345.632183908046,241.17647058823528 353.7931034482759,237.33031674208144 C361.95402298850576,233.4841628959276 370.11494252873564,226.2443438914027 378.2758620689655,222.39819004524887 C386.4367816091954,218.55203619909503 394.5977011494253,217.87330316742083 402.7586206896552,214.25339366515837 C410.91954022988506,210.6334841628959 419.08045977011494,205.20361990950227 427.2413793103448,200.6787330316742 C435.4022988505747,196.15384615384613 443.5632183908046,190.0452488687783 451.7241379310345,187.10407239819006 C459.88505747126436,184.16289592760182 468.04597701149424,184.3891402714932 476.2068965517241,183.03167420814478 C484.367816091954,181.67420814479635 492.5287356321839,181.44796380090497 500.6896551724138,178.95927601809956 C508.85057471264366,176.47058823529414 517.0114942528736,173.98190045248873 525.1724137931035,168.09954751131224 C533.3333333333334,162.21719457013577 541.4942528735633,150.2262443438914 549.6551724137931,143.66515837104072 C557.816091954023,137.10407239819003 565.9770114942529,132.57918552036196 574.1379310344828,128.73303167420812 C582.2988505747127,124.88687782805428 590.4597701149426,123.52941176470588 598.6206896551724,120.58823529411765 C606.7816091954023,117.64705882352942 614.9425287356322,114.2533936651584 623.1034482758621,111.08597285067876 C631.264367816092,107.91855203619912 639.4252873563219,104.07239819004526 647.5862068965517,101.58371040723983 C655.7471264367816,99.0950226244344 663.9080459770115,98.19004524886878 672.0689655172414,96.15384615384616 C680.2298850574713,94.11764705882354 688.3908045977012,91.40271493212671 696.551724137931,89.36651583710409 C704.7126436781609,87.33031674208146 712.8735632183908,85.74660633484167 721.0344827586207,83.93665158371044 C729.1954022988506,82.12669683257921 737.3563218390805,79.63800904977376 745.5172413793103,78.50678733031674 C753.6781609195402,77.37556561085972 761.8390804597701,77.60180995475115 770,77.14932126696834 L770,350 L60,350 Z" fill="#6b63ff" fill-opacity="0.1" />
  <path d="M60,350 L60,348.6425339366516 C68.16091954022988,348.1900452488688 76.32183908045977,347.96380090497735 84.48275862068965,347.28506787330315 C92.64367816091954,346.60633484162895 100.80459770114942,346.60633484162895 108.9655172413793,344.57013574660635 C117.12643678160919,342.53393665158376 125.28735632183907,338.68778280542983 133.44827586206895,335.0678733031674 C141.60919540229884,331.447963800905 149.77011494252872,326.4705882352941 157.9310344827586,322.85067873303166 C166.0919540229885,319.2307692307692 174.2528735632184,316.7420814479638 182.41379310344828,313.34841628959276 C190.57471264367817,309.9547511312217 198.73563218390805,305.6561085972851 206.89655172413794,302.4886877828054 C215.05747126436782,299.32126696832574 223.2183908045977,298.1900452488688 231.3793103448276,294.3438914027149 C239.54022988505747,290.49773755656105 247.70114942528735,283.71040723981895 255.86206896551724,279.4117647058823 C264.0229885057471,275.1131221719457 272.183908045977,272.85067873303166 280.34482758620686,268.552036199095 C288.50574712643675,264.2533936651584 296.6666666666667,257.4660633484163 304.82758620689657,253.61990950226243 C312.98850574712645,249.7737556561086 321.14942528735634,248.19004524886876 329.3103448275862,245.47511312217193 C337.4712643678161,242.7601809954751 345.632183908046,241.17647058823528 353.7931034482759,237.33031674208144 C361.95402298850576,233.4841628959276 370.11494252873564,226.2443438914027 378.2758620689655,222.39819004524887 C386.4367816091954,218.55203619909503 394.5977011494253,217.87330316742083 402.7586206896552,214.25339366515837 C410.91954022988506,210.6334841628959 419.08045977011494,205.20361990950227 427.2413793103448,200.6787330316742 C435.4022988505747,196.15384615384613 443.5632183908046,190.0452488687783 451.7241379310345,187.10407239819006 C459.88505747126436,184.16289592760182 468.04597701149424,184.3891402714932 476.2068965517241,183.03167420814478 C484.367816091954,181.67420814479635 492.5287356321839,181.44796380090497 500.6896551724138,178.95927601809956 C508.85057471264366,176.47058823529414 517.0114942528736,173.98190045248873 525.1724137931035,168.09954751131224 C533.3333333333334,162.21719457013577 541.4942528735633,150.2262443438914 549.6551724137931,143.66515837104072 C557.816091954023,137.10407239819003 565.9770114942529,132.57918552036196 574.1379310344828,128.73303167420812 C582.2988505747127,124.88687782805428 590.4597701149426,123.52941176470588 598.6206896551724,120.58823529411765 C606.7816091954023,117.64705882352942 614.9425287356322,114.2533936651584 623.1034482758621,111.08597285067876 C631.264367816092,107.91855203619912 639.4252873563219,104.07239819004526 647.5862068965517,101.58371040723983 C655.7471264367816,99.0950226244344 663.9080459770115,98.19004524886878 672.0689655172414,96.15384615384616 C680.2298850574713,94.11764705882354 688.3908045977012,91.40271493212671 696.551724137931,89.36651583710409 C704.7126436781609,87.33031674208146 712.8735632183908,85.74660633484167 721.0344827586207,83.93665158371044 C729.1954022988506,82.12669683257921 737.3563218390805,79.63800904977376 745.5172413793103,78.50678733031674 C753.6781609195402,77.37556561085972 761.8390804597701,77.60180995475115 770,77.14932126696834" fill="none" stroke="#6b63ff" stroke-width="2.5" class="data-line-0" />
  <g class="points">
    
    <circle cx="60" cy="348.6425339366516" r="4" fill="#6b63ff" class="data-point" style="animation-delay: 1.50s" />
    <circle cx="84.48275862068965" cy="347.28506787330315" r="4" fill="#6b63ff" class="data-point" style="animation-delay: 1.55s" />
    <circle cx="108.9655172413793" cy="344.57013574660635" r="4" fill="#6b63ff" class="data-point" style="animation-delay: 1.60s" />
    <circle cx="133.44827586206895" cy="335.0678733031674" r="4" fill="#6b63ff" class="data-point" style="animation-delay: 1.65s" />
    <circle cx="157.9310344827586" cy="322.85067873303166" r="4" fill="#6b63ff" class="data-point" style="animation-delay: 1.70s" />
    <circle cx="182.41379310344828" cy="313.34841628959276" r="4" fill="#6b63ff" class="data-point" style="animation-delay: 1.75s" />
    <circle cx="206.89655172413794" cy="302.4886877828054" r="4" fill="#6b63ff" class="data-point" style="animation-delay: 1.80s" />
    <circle cx="231.3793103448276" cy="294.3438914027149" r="4" fill="#6b63ff" class="data-point" style="animation-delay: 1.85s" />
    <circle cx="255.86206896551724" cy="279.4117647058823" r="4" fill="#6b63ff" class="data-point" style="animation-delay: 1.90s" />
    <circle cx="280.34482758620686" cy="268.552036199095" r="4" fill="#6b63ff" class="data-point" style="animation-delay: 1.95s" />
    <circle cx="304.82758620689657" cy="253.61990950226243" r="4" fill="#6b63ff" class="data-point" style="animation-delay: 2.00s" />
    <circle cx="329.3103448275862" cy="245.47511312217193" r="4" fill="#6b63ff" class="data-point" style="animation-delay: 2.05s" />
    <circle cx="353.7931034482759" cy="237.33031674208144" r="4" fill="#6b63ff" class="data-point" style="animation-delay: 2.10s" />
    <circle cx="378.2758620689655" cy="222.39819004524887" r="4" fill="#6b63ff" class="data-point" style="animation-delay: 2.15s" />
    <circle cx="402.7586206896552" cy="214.25339366515837" r="4" fill="#6b63ff" class="data-point" style="animation-delay: 2.20s" />
    <circle cx="427.2413793103448" cy="200.6787330316742" r="4" fill="#6b63ff" class="data-point" style="animation-delay: 2.25s" />
    <circle cx="451.7241379310345" cy="187.10407239819006" r="4" fill="#6b63ff" class="data-point" style="animation-delay: 2.30s" />
    <circle cx="476.2068965517241" cy="183.03167420814478" r="4" fill="#6b63ff" class="data-point" style="animation-delay: 2.35s" />
    <circle cx="500.6896551724138" cy="178.95927601809956" r="4" fill="#6b63ff" class="data-point" style="animation-delay: 2.40s" />
    <circle cx="525.1724137931035" cy="168.09954751131224" r="4" fill="#6b63ff" class="data-point" style="animation-delay: 2.45s" />
    <circle cx="549.6551724137931" cy="143.66515837104072" r="4" fill="#6b63ff" class="data-point" style="animation-delay: 2.50s" />
    <circle cx="574.1379310344828" cy="128.73303167420812" r="4" fill="#6b63ff" class="data-point" style="animation-delay: 2.55s" />
    <circle cx="598.6206896551724" cy="120.58823529411765" r="4" fill="#6b63ff" class="data-point" style="animation-delay: 2.60s" />
    <circle cx="623.1034482758621" cy="111.08597285067876" r="4" fill="#6b63ff" class="data-point" style="animation-delay: 2.65s" />
    <circle cx="647.5862068965517" cy="101.58371040723983" r="4" fill="#6b63ff" class="data-point" style="animation-delay: 2.70s" />
    <circle cx="672.0689655172414" cy="96.15384615384616" r="4" fill="#6b63ff" class="data-point" style="animation-delay: 2.75s" />
    <circle cx="696.551724137931" cy="89.36651583710409" r="4" fill="#6b63ff" class="data-point" style="animation-delay: 2.80s" />
    <circle cx="721.0344827586207" cy="83.93665158371044" r="4" fill="#6b63ff" class="data-point" style="animation-delay: 2.85s" />
    <circle cx="745.5172413793103" cy="78.50678733031674" r="4" fill="#6b63ff" class="data-point" style="animation-delay: 2.90s" />
    <circle cx="770" cy="77.14932126696834" r="4" fill="#6b63ff" class="data-point" style="animation-delay: 2.95s" />
  </g>
</svg>