<svg xmlns="http://www.w3.org/2000/svg" viewBox="0 0 800 400" width="800" height="400">
  <style>
    @keyframes drawLine {
      to { stroke-dashoffset: 0; }
    }
    @keyframes fadeInPoint {
      from { opacity: 0; }
      to { opacity: 1; }
    }
    .data-line-0 {
      stroke-dasharray: 1246;
      stroke-dashoffset: 1246;
      animation: drawLine 2s ease-out forwards;
    }
    .data-point {
      opacity: 0;
      animation: fadeInPoint 0.5s ease-out forwards;
    }
    .chart-bg { fill: #fff; }
    .chart-text { fill: #24292e; }
    .chart-muted { fill: #6a737d; }
    .chart-grid { stroke: #eee; }
    .chart-axis { stroke: #6a737d; }
    @media (prefers-color-scheme: dark) {
      .chart-bg { fill: #0d1117; }
      .chart-text { fill: #e6edf3; }
      .chart-muted { fill: #8b949e; }
      .chart-grid { stroke: #21262d; }
      .chart-axis { stroke: #8b949e; }
    }
  </style>
  <rect width="800" height="400" class="chart-bg" />
  <text x="400" y="34" text-anchor="middle" class="chart-text" font-size="16" font-weight="bold" font-family="-apple-system, BlinkMacSystemFont, 'Segoe UI', Helvetica, Arial, sans-serif">qemus/virtiso-x86 Star History</text>
  
  <g class="grid">
    <line x1="60" y1="350" x2="770" y2="350" class="chart-grid" stroke-opacity="0.3" />
    <text x="778" y="354" text-anchor="start" class="chart-muted" font-size="11" font-family="-apple-system, BlinkMacSystemFont, 'Segoe UI', Helvetica, Arial, sans-serif">0</text>
    <line x1="60" y1="266.66666666666663" x2="770" y2="266.66666666666663" class="chart-grid" stroke-opacity="0.3" />
    <text x="778" y="270.66666666666663" text-anchor="start" class="chart-muted" font-size="11" font-family="-apple-system, BlinkMacSystemFont, 'Segoe UI', Helvetica, Arial, sans-serif">5</text>
    <line x1="60" y1="183.33333333333331" x2="770" y2="183.33333333333331" class="chart-grid" stroke-opacity="0.3" />
    <text x="778" y="187.33333333333331" text-anchor="start" class="chart-muted" font-size="11" font-family="-apple-system, BlinkMacSystemFont, 'Segoe UI', Helvetica, Arial, sans-serif">10</text>
    <line x1="60" y1="100" x2="770" y2="100" class="chart-grid" stroke-opacity="0.3" />
    <text x="778" y="104" text-anchor="start" class="chart-muted" font-size="11" font-family="-apple-system, BlinkMacSystemFont, 'Segoe UI', Helvetica, Arial, sans-serif">15</text>
    <line x1="60" y1="16.66666666666663" x2="770" y2="16.66666666666663" class="chart-grid" stroke-opacity="0.3" />
    <text x="778" y="20.66666666666663" text-anchor="start" class="chart-muted" font-size="11" font-family="-apple-system, BlinkMacSystemFont, 'Segoe UI', Helvetica, Arial, sans-serif">20</text>
  </g>
  <g class="milestones">
    
  </g>
  <g class="x-axis">
    <text x="60" y="370" text-anchor="middle" class="chart-muted" font-size="11" font-family="-apple-system, BlinkMacSystemFont, 'Segoe UI', Helvetica, Arial, sans-serif">2024</text>
    <text x="304.82758620689657" y="370" text-anchor="middle" class="chart-muted" font-size="11" font-family="-apple-system, BlinkMacSystemFont, 'Segoe UI', Helvetica, Arial, sans-serif">2025</text>
    <text x="623.1034482758621" y="370" text-anchor="middle" class="chart-muted" font-size="11" font-family="-apple-system, BlinkMacSystemFont, 'Segoe UI', Helvetica, Arial, sans-serif">2026</text>
  </g>
  <line x1="770" y1="50" x2="770" y2="350" class="chart-axis" stroke-width="1" />
  <line x1="60" y1="350" x2="770" y2="350" class="chart-axis" stroke-width="1" />
  <path d="M60,350 L60,333.3333333333333 C63.264367816091955,331.1111111111111 77.95402298850574,318.8888888888889 84.48275862068965,316.6666666666667 C91.01149425287356,316.6666666666667 102.43678160919539,316.6666666666667 108.9655172413793,316.6666666666667 C115.49425287356321,316.6666666666667 126.91954022988504,316.6666666666667 133.44827586206895,316.6666666666667 C139.97701149425285,316.6666666666667 151.40229885057468,316.6666666666667 157.9310344827586,316.6666666666667 C164.45977011494253,316.6666666666667 175.88505747126436,316.6666666666667 182.41379310344828,316.6666666666667 C188.9425287356322,316.6666666666667 200.36781609195404,316.6666666666667 206.89655172413794,316.6666666666667 C213.42528735632183,314.44444444444446 224.8505747126437,302.22222222222223 231.3793103448276,300 C237.90804597701148,300 249.33333333333334,300 255.86206896551724,300 C262.39080459770116,300 273.81609195402297,300 280.34482758620686,300 C286.87356321839076,297.77777777777777 298.2988505747127,287.7777777777778 304.82758620689657,283.33333333333337 C311.35632183908046,278.8888888888889 322.7816091954023,273.3333333333333 329.3103448275862,266.66666666666663 C335.8390804597701,259.99999999999994 347.264367816092,242.2222222222222 353.7931034482759,233.33333333333331 C360.32183908045977,224.44444444444443 371.7471264367816,204.44444444444443 378.2758620689655,200 C384.8045977011494,200 396.2298850574713,200 402.7586206896552,200 C409.28735632183907,197.77777777777777 420.71264367816093,185.55555555555554 427.2413793103448,183.33333333333331 C433.7701149425287,183.33333333333331 445.1954022988506,183.33333333333331 451.7241379310345,183.33333333333331 C458.2528735632184,183.33333333333331 469.67816091954023,183.33333333333331 476.2068965517241,183.33333333333331 C482.735632183908,178.88888888888889 494.1609195402299,156.66666666666666 500.6896551724138,150 C507.2183908045977,143.33333333333334 518.6436781609195,135.55555555555557 525.1724137931035,133.33333333333334 C531.7011494252874,133.33333333333334 543.1264367816092,133.33333333333334 549.6551724137931,133.33333333333334 C556.1839080459771,128.88888888888889 567.6091954022988,104.44444444444444 574.1379310344828,100 C580.6666666666667,100 592.0919540229885,100 598.6206896551724,100 C605.1494252873564,100 616.5747126436781,100 623.1034482758621,100 C629.632183908046,100 641.0574712643678,100 647.5862068965517,100 C654.1149425287357,100 665.5402298850574,100 672.0689655172414,100 C678.5977011494253,100 690.0229885057471,100 696.551724137931,100 C703.080459770115,100 714.5057471264367,100 721.0344827586207,100 C727.5632183908046,100 738.9885057471264,100 745.5172413793103,100 C752.0459770114943,97.77777777777779 766.735632183908,85.55555555555559 770,83.33333333333337 L770,350 L60,350 Z" fill="#6b63ff" fill-opacity="0.1" />
  <path d="M60,350 L60,333.3333333333333 C63.264367816091955,331.1111111111111 77.95402298850574,318.8888888888889 84.48275862068965,316.6666666666667 C91.01149425287356,316.6666666666667 102.43678160919539,316.6666666666667 108.9655172413793,316.6666666666667 C115.49425287356321,316.6666666666667 126.91954022988504,316.6666666666667 133.44827586206895,316.6666666666667 C139.97701149425285,316.6666666666667 151.40229885057468,316.6666666666667 157.9310344827586,316.6666666666667 C164.45977011494253,316.6666666666667 175.88505747126436,316.6666666666667 182.41379310344828,316.6666666666667 C188.9425287356322,316.6666666666667 200.36781609195404,316.6666666666667 206.89655172413794,316.6666666666667 C213.42528735632183,314.44444444444446 224.8505747126437,302.22222222222223 231.3793103448276,300 C237.90804597701148,300 249.33333333333334,300 255.86206896551724,300 C262.39080459770116,300 273.81609195402297,300 280.34482758620686,300 C286.87356321839076,297.77777777777777 298.2988505747127,287.7777777777778 304.82758620689657,283.33333333333337 C311.35632183908046,278.8888888888889 322.7816091954023,273.3333333333333 329.3103448275862,266.66666666666663 C335.8390804597701,259.99999999999994 347.264367816092,242.2222222222222 353.7931034482759,233.33333333333331 C360.32183908045977,224.44444444444443 371.7471264367816,204.44444444444443 378.2758620689655,200 C384.8045977011494,200 396.2298850574713,200 402.7586206896552,200 C409.28735632183907,197.77777777777777 420.71264367816093,185.55555555555554 427.2413793103448,183.33333333333331 C433.7701149425287,183.33333333333331 445.1954022988506,183.33333333333331 451.7241379310345,183.33333333333331 C458.2528735632184,183.33333333333331 469.67816091954023,183.33333333333331 476.2068965517241,183.33333333333331 C482.735632183908,178.88888888888889 494.1609195402299,156.66666666666666 500.6896551724138,150 C507.2183908045977,143.33333333333334 518.6436781609195,135.55555555555557 525.1724137931035,133.33333333333334 C531.7011494252874,133.33333333333334 543.1264367816092,133.33333333333334 549.6551724137931,133.33333333333334 C556.1839080459771,128.88888888888889 567.6091954022988,104.44444444444444 574.1379310344828,100 C580.6666666666667,100 592.0919540229885,100 598.6206896551724,100 C605.1494252873564,100 616.5747126436781,100 623.1034482758621,100 C629.632183908046,100 641.0574712643678,100 647.5862068965517,100 C654.1149425287357,100 665.5402298850574,100 672.0689655172414,100 C678.5977011494253,100 690.0229885057471,100 696.551724137931,100 C703.080459770115,100 714.5057471264367,100 721.0344827586207,100 C727.5632183908046,100 738.9885057471264,100 745.5172413793103,100 C752.0459770114943,97.77777777777779 766.735632183908,85.55555555555559 770,83.33333333333337" fill="none" stroke="#6b63ff" stroke-width="2.5" class="data-line-0" />
  <g class="points">
    
    <circle cx="60" cy="333.3333333333333" r="4" fill="#6b63ff" class="data-point" style="animation-delay: 1.50s" />
    <circle cx="84.48275862068965" cy="316.6666666666667" r="4" fill="#6b63ff" class="data-point" style="animation-delay: 1.55s" />
    <circle cx="108.9655172413793" cy="316.6666666666667" r="4" fill="#6b63ff" class="data-point" style="animation-delay: 1.60s" />
    <circle cx="133.44827586206895" cy="316.6666666666667" r="4" fill="#6b63ff" class="data-point" style="animation-delay: 1.65s" />
    <circle cx="157.9310344827586" cy="316.6666666666667" r="4" fill="#6b63ff" class="data-point" style="animation-delay: 1.70s" />
    <circle cx="182.41379310344828" cy="316.6666666666667" r="4" fill="#6b63ff" class="data-point" style="animation-delay: 1.75s" />
    <circle cx="206.89655172413794" cy="316.6666666666667" r="4" fill="#6b63ff" class="data-point" style="animation-delay: 1.80s" />
    <circle cx="231.3793103448276" cy="300" r="4" fill="#6b63ff" class="data-point" style="animation-delay: 1.85s" />
    <circle cx="255.86206896551724" cy="300" r="4" fill="#6b63ff" class="data-point" style="animation-delay: 1.90s" />
    <circle cx="280.34482758620686" cy="300" r="4" fill="#6b63ff" class="data-point" style="animation-delay: 1.95s" />
    <circle cx="304.82758620689657" cy="283.33333333333337" r="4" fill="#6b63ff" class="data-point" style="animation-delay: 2.00s" />
    <circle cx="329.3103448275862" cy="266.66666666666663" r="4" fill="#6b63ff" class="data-point" style="animation-delay: 2.05s" />
    <circle cx="353.7931034482759" cy="233.33333333333331" r="4" fill="#6b63ff" class="data-point" style="animation-delay: 2.10s" />
    <circle cx="378.2758620689655" cy="200" r="4" fill="#6b63ff" class="data-point" style="animation-delay: 2.15s" />
    <circle cx="402.7586206896552" cy="200" r="4" fill="#6b63ff" class="data-point" style="animation-delay: 2.20s" />
    <circle cx="427.2413793103448" cy="183.33333333333331" r="4" fill="#6b63ff" class="data-point" style="animation-delay: 2.25s" />
    <circle cx="451.7241379310345" cy="183.33333333333331" r="4" fill="#6b63ff" class="data-point" style="animation-delay: 2.30s" />
    <circle cx="476.2068965517241" cy="183.33333333333331" r="4" fill="#6b63ff" class="data-point" style="animation-delay: 2.35s" />
    <circle cx="500.6896551724138" cy="150" r="4" fill="#6b63ff" class="data-point" style="animation-delay: 2.40s" />
    <circle cx="525.1724137931035" cy="133.33333333333334" r="4" fill="#6b63ff" class="data-point" style="animation-delay: 2.45s" />
    <circle cx="549.6551724137931" cy="133.33333333333334" r="4" fill="#6b63ff" class="data-point" style="animation-delay: 2.50s" />
    <circle cx="574.1379310344828" cy="100" r="4" fill="#6b63ff" class="data-point" style="animation-delay: 2.55s" />
    <circle cx="598.6206896551724" cy="100" r="4" fill="#6b63ff" class="data-point" style="animation-delay: 2.60s" />
    <circle cx="623.1034482758621" cy="100" r="4" fill="#6b63ff" class="data-point" style="animation-delay: 2.65s" />
    <circle cx="647.5862068965517" cy="100" r="4" fill="#6b63ff" class="data-point" style="animation-delay: 2.70s" />
    <circle cx="672.0689655172414" cy="100" r="4" fill="#6b63ff" class="data-point" style="animation-delay: 2.75s" />
    <circle cx="696.551724137931" cy="100" r="4" fill="#6b63ff" class="data-point" style="animation-delay: 2.80s" />
    <circle cx="721.0344827586207" cy="100" r="4" fill="#6b63ff" class="data-point" style="animation-delay: 2.85s" />
    <circle cx="745.5172413793103" cy="100" r="4" fill="#6b63ff" class="data-point" style="animation-delay: 2.90s" />
    <circle cx="770" cy="83.33333333333337" r="4" fill="#6b63ff" class="data-point" style="animation-delay: 2.95s" />
  </g>
</svg>