<svg xmlns="http://www.w3.org/2000/svg" viewBox="0 0 800 400" width="800" height="400">
  <style>
    @keyframes drawLine {
      to { stroke-dashoffset: 0; }
    }
    @keyframes fadeInPoint {
      from { opacity: 0; }
      to { opacity: 1; }
    }
    .data-line-0 {
      stroke-dasharray: 1178;
      stroke-dashoffset: 1178;
      animation: drawLine 2s ease-out forwards;
    }
    .data-point {
      opacity: 0;
      animation: fadeInPoint 0.5s ease-out forwards;
    }
    .chart-bg { fill: #fff; }
    .chart-text { fill: #24292e; }
    .chart-muted { fill: #6a737d; }
    .chart-grid { stroke: #eee; }
    .chart-axis { stroke: #6a737d; }
    @media (prefers-color-scheme: dark) {
      .chart-bg { fill: #0d1117; }
      .chart-text { fill: #e6edf3; }
      .chart-muted { fill: #8b949e; }
      .chart-grid { stroke: #21262d; }
      .chart-axis { stroke: #8b949e; }
    }
  </style>
  <rect width="800" height="400" class="chart-bg" />
  <text x="400" y="14" text-anchor="middle" class="chart-text" font-size="16" font-weight="bold" font-family="-apple-system, BlinkMacSystemFont, 'Segoe UI', Helvetica, Arial, sans-serif">qemus/qemu Star History</text>
  
  <g class="grid">
    <line x1="60" y1="350" x2="770" y2="350" class="chart-grid" stroke-opacity="0.3" />
    <text x="778" y="354" text-anchor="start" class="chart-muted" font-size="11" font-family="-apple-system, BlinkMacSystemFont, 'Segoe UI', Helvetica, Arial, sans-serif">0</text>
    <line x1="60" y1="277.5712216320618" x2="770" y2="277.5712216320618" class="chart-grid" stroke-opacity="0.3" />
    <text x="778" y="281.5712216320618" text-anchor="start" class="chart-muted" font-size="11" font-family="-apple-system, BlinkMacSystemFont, 'Segoe UI', Helvetica, Arial, sans-serif">500</text>
    <line x1="60" y1="205.1424432641236" x2="770" y2="205.1424432641236" class="chart-grid" stroke-opacity="0.3" />
    <text x="778" y="209.1424432641236" text-anchor="start" class="chart-muted" font-size="11" font-family="-apple-system, BlinkMacSystemFont, 'Segoe UI', Helvetica, Arial, sans-serif">1K</text>
    <line x1="60" y1="132.7136648961854" x2="770" y2="132.7136648961854" class="chart-grid" stroke-opacity="0.3" />
    <text x="778" y="136.7136648961854" text-anchor="start" class="chart-muted" font-size="11" font-family="-apple-system, BlinkMacSystemFont, 'Segoe UI', Helvetica, Arial, sans-serif">1.5K</text>
    <line x1="60" y1="60.28488652824723" x2="770" y2="60.28488652824723" class="chart-grid" stroke-opacity="0.3" />
    <text x="778" y="64.28488652824723" text-anchor="start" class="chart-muted" font-size="11" font-family="-apple-system, BlinkMacSystemFont, 'Segoe UI', Helvetica, Arial, sans-serif">2K</text>
  </g>
  <g class="milestones">
    
  </g>
  <g class="x-axis">
    <text x="60" y="370" text-anchor="middle" class="chart-muted" font-size="11" font-family="-apple-system, BlinkMacSystemFont, 'Segoe UI', Helvetica, Arial, sans-serif">2023</text>
    <text x="231.3793103448276" y="370" text-anchor="middle" class="chart-muted" font-size="11" font-family="-apple-system, BlinkMacSystemFont, 'Segoe UI', Helvetica, Arial, sans-serif">2024</text>
    <text x="451.7241379310345" y="370" text-anchor="middle" class="chart-muted" font-size="11" font-family="-apple-system, BlinkMacSystemFont, 'Segoe UI', Helvetica, Arial, sans-serif">2025</text>
    <text x="672.0689655172414" y="370" text-anchor="middle" class="chart-muted" font-size="11" font-family="-apple-system, BlinkMacSystemFont, 'Segoe UI', Helvetica, Arial, sans-serif">2026</text>
  </g>
  <line x1="770" y1="50" x2="770" y2="350" class="chart-axis" stroke-width="1" />
  <line x1="60" y1="350" x2="770" y2="350" class="chart-axis" stroke-width="1" />
  <path d="M60,350 L60,349.8551424432641 C68.16091954022988,349.661999034283 76.32183908045977,349.54128440366975 84.48275862068965,349.27571221632064 C92.64367816091954,349.01014002897153 100.80459770114942,348.6962819893771 108.9655172413793,348.2617093191695 C117.12643678160919,347.82713664896187 125.28735632183907,347.0787059391598 133.44827586206895,346.66827619507484 C141.60919540229884,346.25784645098986 149.77011494252872,346.3061323032352 157.9310344827586,345.7991308546596 C166.0919540229885,345.29212940608403 174.2528735632184,344.35055528730084 182.41379310344828,343.6262675036214 C190.57471264367817,342.90197971994206 198.73563218390805,342.37083534524385 206.89655172413794,341.4534041525833 C215.05747126436782,340.53597295992273 223.2183908045977,340.4152583293095 231.3793103448276,338.1216803476581 C239.54022988505747,335.82810236600676 247.70114942528735,330.8788025108643 255.86206896551724,327.69193626267503 C264.0229885057471,324.50507001448574 272.183908045977,321.99420569773054 280.34482758620686,319.00048285852245 C288.50574712643675,316.00676001931436 296.6666666666667,312.02317720907774 304.82758620689657,309.7295992274264 C312.98850574712645,307.436021245775 321.14942528735634,307.09802028005794 329.3103448275862,305.2390149686142 C337.4712643678161,303.38000965717043 345.632183908046,300.89328826653787 353.7931034482759,298.57556735876386 C361.95402298850576,296.25784645098986 370.11494252873564,293.57798165137615 378.2758620689655,291.33268952197005 C386.4367816091954,289.08739739256396 394.5977011494253,287.68710767745046 402.7586206896552,285.10381458232735 C410.91954022988506,282.52052148720423 419.08045977011494,278.6335103814582 427.2413793103448,275.8329309512313 C435.4022988505747,273.03235152100433 443.5632183908046,270.56977305649445 451.7241379310345,268.3003380009657 C459.88505747126436,266.030902945437 468.04597701149424,265.1617576050217 476.2068965517241,262.2163206180589 C484.367816091954,259.27088363109607 492.5287356321839,254.80444229840657 500.6896551724138,250.62771607918882 C508.85057471264366,246.45098985997106 517.0114942528736,241.62240463544182 525.1724137931035,237.1559633027523 C533.3333333333334,232.68952197006277 541.4942528735633,227.93336552390147 549.6551724137931,223.82906808305165 C557.816091954023,219.72477064220183 565.9770114942529,219.04876871076772 574.1379310344828,212.5301786576533 C582.2988505747127,206.01158860453887 590.4597701149426,192.53983582810235 598.6206896551724,184.71752776436503 C606.7816091954023,176.8952197006277 614.9425287356322,175.27764365041045 623.1034482758621,165.59633027522938 C631.264367816092,155.9150169000483 639.4252873563219,135.0072428778368 647.5862068965517,126.6296475132786 C655.7471264367816,118.25205214872041 663.9080459770115,119.26605504587155 672.0689655172414,115.33075808788024 C680.2298850574713,111.39546112988893 688.3908045977012,106.7117334620956 696.551724137931,103.01786576533075 C704.7126436781609,99.32399806856591 712.8735632183908,96.35441815548045 721.0344827586207,93.16755190729117 C729.1954022988506,89.9806856591019 737.3563218390805,86.52824722356353 745.5172413793103,83.8966682761951 C753.6781609195402,81.26508932882668 761.8390804597701,79.5509415741188 770,77.37807822308065 L770,350 L60,350 Z" fill="#6b63ff" fill-opacity="0.1" />
  <path d="M60,350 L60,349.8551424432641 C68.16091954022988,349.661999034283 76.32183908045977,349.54128440366975 84.48275862068965,349.27571221632064 C92.64367816091954,349.01014002897153 100.80459770114942,348.6962819893771 108.9655172413793,348.2617093191695 C117.12643678160919,347.82713664896187 125.28735632183907,347.0787059391598 133.44827586206895,346.66827619507484 C141.60919540229884,346.25784645098986 149.77011494252872,346.3061323032352 157.9310344827586,345.7991308546596 C166.0919540229885,345.29212940608403 174.2528735632184,344.35055528730084 182.41379310344828,343.6262675036214 C190.57471264367817,342.90197971994206 198.73563218390805,342.37083534524385 206.89655172413794,341.4534041525833 C215.05747126436782,340.53597295992273 223.2183908045977,340.4152583293095 231.3793103448276,338.1216803476581 C239.54022988505747,335.82810236600676 247.70114942528735,330.8788025108643 255.86206896551724,327.69193626267503 C264.0229885057471,324.50507001448574 272.183908045977,321.99420569773054 280.34482758620686,319.00048285852245 C288.50574712643675,316.00676001931436 296.6666666666667,312.02317720907774 304.82758620689657,309.7295992274264 C312.98850574712645,307.436021245775 321.14942528735634,307.09802028005794 329.3103448275862,305.2390149686142 C337.4712643678161,303.38000965717043 345.632183908046,300.89328826653787 353.7931034482759,298.57556735876386 C361.95402298850576,296.25784645098986 370.11494252873564,293.57798165137615 378.2758620689655,291.33268952197005 C386.4367816091954,289.08739739256396 394.5977011494253,287.68710767745046 402.7586206896552,285.10381458232735 C410.91954022988506,282.52052148720423 419.08045977011494,278.6335103814582 427.2413793103448,275.8329309512313 C435.4022988505747,273.03235152100433 443.5632183908046,270.56977305649445 451.7241379310345,268.3003380009657 C459.88505747126436,266.030902945437 468.04597701149424,265.1617576050217 476.2068965517241,262.2163206180589 C484.367816091954,259.27088363109607 492.5287356321839,254.80444229840657 500.6896551724138,250.62771607918882 C508.85057471264366,246.45098985997106 517.0114942528736,241.62240463544182 525.1724137931035,237.1559633027523 C533.3333333333334,232.68952197006277 541.4942528735633,227.93336552390147 549.6551724137931,223.82906808305165 C557.816091954023,219.72477064220183 565.9770114942529,219.04876871076772 574.1379310344828,212.5301786576533 C582.2988505747127,206.01158860453887 590.4597701149426,192.53983582810235 598.6206896551724,184.71752776436503 C606.7816091954023,176.8952197006277 614.9425287356322,175.27764365041045 623.1034482758621,165.59633027522938 C631.264367816092,155.9150169000483 639.4252873563219,135.0072428778368 647.5862068965517,126.6296475132786 C655.7471264367816,118.25205214872041 663.9080459770115,119.26605504587155 672.0689655172414,115.33075808788024 C680.2298850574713,111.39546112988893 688.3908045977012,106.7117334620956 696.551724137931,103.01786576533075 C704.7126436781609,99.32399806856591 712.8735632183908,96.35441815548045 721.0344827586207,93.16755190729117 C729.1954022988506,89.9806856591019 737.3563218390805,86.52824722356353 745.5172413793103,83.8966682761951 C753.6781609195402,81.26508932882668 761.8390804597701,79.5509415741188 770,77.37807822308065" fill="none" stroke="#6b63ff" stroke-width="2.5" class="data-line-0" />
  <g class="points">
    
    <circle cx="60" cy="349.8551424432641" r="4" fill="#6b63ff" class="data-point" style="animation-delay: 1.50s" />
    <circle cx="84.48275862068965" cy="349.27571221632064" r="4" fill="#6b63ff" class="data-point" style="animation-delay: 1.55s" />
    <circle cx="108.9655172413793" cy="348.2617093191695" r="4" fill="#6b63ff" class="data-point" style="animation-delay: 1.60s" />
    <circle cx="133.44827586206895" cy="346.66827619507484" r="4" fill="#6b63ff" class="data-point" style="animation-delay: 1.65s" />
    <circle cx="157.9310344827586" cy="345.7991308546596" r="4" fill="#6b63ff" class="data-point" style="animation-delay: 1.70s" />
    <circle cx="182.41379310344828" cy="343.6262675036214" r="4" fill="#6b63ff" class="data-point" style="animation-delay: 1.75s" />
    <circle cx="206.89655172413794" cy="341.4534041525833" r="4" fill="#6b63ff" class="data-point" style="animation-delay: 1.80s" />
    <circle cx="231.3793103448276" cy="338.1216803476581" r="4" fill="#6b63ff" class="data-point" style="animation-delay: 1.85s" />
    <circle cx="255.86206896551724" cy="327.69193626267503" r="4" fill="#6b63ff" class="data-point" style="animation-delay: 1.90s" />
    <circle cx="280.34482758620686" cy="319.00048285852245" r="4" fill="#6b63ff" class="data-point" style="animation-delay: 1.95s" />
    <circle cx="304.82758620689657" cy="309.7295992274264" r="4" fill="#6b63ff" class="data-point" style="animation-delay: 2.00s" />
    <circle cx="329.3103448275862" cy="305.2390149686142" r="4" fill="#6b63ff" class="data-point" style="animation-delay: 2.05s" />
    <circle cx="353.7931034482759" cy="298.57556735876386" r="4" fill="#6b63ff" class="data-point" style="animation-delay: 2.10s" />
    <circle cx="378.2758620689655" cy="291.33268952197005" r="4" fill="#6b63ff" class="data-point" style="animation-delay: 2.15s" />
    <circle cx="402.7586206896552" cy="285.10381458232735" r="4" fill="#6b63ff" class="data-point" style="animation-delay: 2.20s" />
    <circle cx="427.2413793103448" cy="275.8329309512313" r="4" fill="#6b63ff" class="data-point" style="animation-delay: 2.25s" />
    <circle cx="451.7241379310345" cy="268.3003380009657" r="4" fill="#6b63ff" class="data-point" style="animation-delay: 2.30s" />
    <circle cx="476.2068965517241" cy="262.2163206180589" r="4" fill="#6b63ff" class="data-point" style="animation-delay: 2.35s" />
    <circle cx="500.6896551724138" cy="250.62771607918882" r="4" fill="#6b63ff" class="data-point" style="animation-delay: 2.40s" />
    <circle cx="525.1724137931035" cy="237.1559633027523" r="4" fill="#6b63ff" class="data-point" style="animation-delay: 2.45s" />
    <circle cx="549.6551724137931" cy="223.82906808305165" r="4" fill="#6b63ff" class="data-point" style="animation-delay: 2.50s" />
    <circle cx="574.1379310344828" cy="212.5301786576533" r="4" fill="#6b63ff" class="data-point" style="animation-delay: 2.55s" />
    <circle cx="598.6206896551724" cy="184.71752776436503" r="4" fill="#6b63ff" class="data-point" style="animation-delay: 2.60s" />
    <circle cx="623.1034482758621" cy="165.59633027522938" r="4" fill="#6b63ff" class="data-point" style="animation-delay: 2.65s" />
    <circle cx="647.5862068965517" cy="126.6296475132786" r="4" fill="#6b63ff" class="data-point" style="animation-delay: 2.70s" />
    <circle cx="672.0689655172414" cy="115.33075808788024" r="4" fill="#6b63ff" class="data-point" style="animation-delay: 2.75s" />
    <circle cx="696.551724137931" cy="103.01786576533075" r="4" fill="#6b63ff" class="data-point" style="animation-delay: 2.80s" />
    <circle cx="721.0344827586207" cy="93.16755190729117" r="4" fill="#6b63ff" class="data-point" style="animation-delay: 2.85s" />
    <circle cx="745.5172413793103" cy="83.8966682761951" r="4" fill="#6b63ff" class="data-point" style="animation-delay: 2.90s" />
    <circle cx="770" cy="77.37807822308065" r="4" fill="#6b63ff" class="data-point" style="animation-delay: 2.95s" />
  </g>
</svg>