<svg xmlns="http://www.w3.org/2000/svg" viewBox="0 0 800 400" width="800" height="400">
  <style>
    @keyframes drawLine {
      to { stroke-dashoffset: 0; }
    }
    @keyframes fadeInPoint {
      from { opacity: 0; }
      to { opacity: 1; }
    }
    .data-line-0 {
      stroke-dasharray: 1168;
      stroke-dashoffset: 1168;
      animation: drawLine 2s ease-out forwards;
    }
    .data-point {
      opacity: 0;
      animation: fadeInPoint 0.5s ease-out forwards;
    }
    .chart-bg { fill: #fff; }
    .chart-text { fill: #24292e; }
    .chart-muted { fill: #6a737d; }
    .chart-grid { stroke: #eee; }
    .chart-axis { stroke: #6a737d; }
    @media (prefers-color-scheme: dark) {
      .chart-bg { fill: #0d1117; }
      .chart-text { fill: #e6edf3; }
      .chart-muted { fill: #8b949e; }
      .chart-grid { stroke: #21262d; }
      .chart-axis { stroke: #8b949e; }
    }
  </style>
  <rect width="800" height="400" class="chart-bg" />
  <text x="400" y="14" text-anchor="middle" class="chart-text" font-size="16" font-weight="bold" font-family="-apple-system, BlinkMacSystemFont, 'Segoe UI', Helvetica, Arial, sans-serif">qemus/qemu Star History</text>
  
  <g class="grid">
    <line x1="60" y1="350" x2="770" y2="350" class="chart-grid" stroke-opacity="0.3" />
    <text x="778" y="354" text-anchor="start" class="chart-muted" font-size="11" font-family="-apple-system, BlinkMacSystemFont, 'Segoe UI', Helvetica, Arial, sans-serif">0</text>
    <line x1="60" y1="290" x2="770" y2="290" class="chart-grid" stroke-opacity="0.3" />
    <text x="778" y="294" text-anchor="start" class="chart-muted" font-size="11" font-family="-apple-system, BlinkMacSystemFont, 'Segoe UI', Helvetica, Arial, sans-serif">500</text>
    <line x1="60" y1="230" x2="770" y2="230" class="chart-grid" stroke-opacity="0.3" />
    <text x="778" y="234" text-anchor="start" class="chart-muted" font-size="11" font-family="-apple-system, BlinkMacSystemFont, 'Segoe UI', Helvetica, Arial, sans-serif">1K</text>
    <line x1="60" y1="170" x2="770" y2="170" class="chart-grid" stroke-opacity="0.3" />
    <text x="778" y="174" text-anchor="start" class="chart-muted" font-size="11" font-family="-apple-system, BlinkMacSystemFont, 'Segoe UI', Helvetica, Arial, sans-serif">1.5K</text>
    <line x1="60" y1="110" x2="770" y2="110" class="chart-grid" stroke-opacity="0.3" />
    <text x="778" y="114" text-anchor="start" class="chart-muted" font-size="11" font-family="-apple-system, BlinkMacSystemFont, 'Segoe UI', Helvetica, Arial, sans-serif">2K</text>
    <line x1="60" y1="50" x2="770" y2="50" class="chart-grid" stroke-opacity="0.3" />
    <text x="778" y="54" text-anchor="start" class="chart-muted" font-size="11" font-family="-apple-system, BlinkMacSystemFont, 'Segoe UI', Helvetica, Arial, sans-serif">2.5K</text>
  </g>
  <g class="milestones">
    
  </g>
  <g class="x-axis">
    <text x="60" y="370" text-anchor="middle" class="chart-muted" font-size="11" font-family="-apple-system, BlinkMacSystemFont, 'Segoe UI', Helvetica, Arial, sans-serif">2023</text>
    <text x="206.89655172413794" y="370" text-anchor="middle" class="chart-muted" font-size="11" font-family="-apple-system, BlinkMacSystemFont, 'Segoe UI', Helvetica, Arial, sans-serif">2024</text>
    <text x="427.2413793103448" y="370" text-anchor="middle" class="chart-muted" font-size="11" font-family="-apple-system, BlinkMacSystemFont, 'Segoe UI', Helvetica, Arial, sans-serif">2025</text>
    <text x="623.1034482758621" y="370" text-anchor="middle" class="chart-muted" font-size="11" font-family="-apple-system, BlinkMacSystemFont, 'Segoe UI', Helvetica, Arial, sans-serif">2026</text>
  </g>
  <line x1="770" y1="50" x2="770" y2="350" class="chart-axis" stroke-width="1" />
  <line x1="60" y1="350" x2="770" y2="350" class="chart-axis" stroke-width="1" />
  <path d="M60,350 L60,349.88 C68.16091954022988,349.68 76.32183908045977,349.53999999999996 84.48275862068965,349.28 C92.64367816091954,349.02 100.80459770114942,348.68 108.9655172413793,348.32 C117.12643678160919,347.96 125.28735632183907,347.44 133.44827586206895,347.12 C141.60919540229884,346.8 149.77011494252872,346.88 157.9310344827586,346.4 C166.0919540229885,345.91999999999996 174.2528735632184,344.94 182.41379310344828,344.24 C190.57471264367817,343.54 198.73563218390805,343.24 206.89655172413794,342.2 C215.05747126436782,341.15999999999997 223.2183908045977,340.2 231.3793103448276,338 C239.54022988505747,335.8 247.70114942528735,331.78000000000003 255.86206896551724,329 C264.0229885057471,326.22 272.183908045977,323.8 280.34482758620686,321.32 C288.50574712643675,318.84 296.6666666666667,316.14 304.82758620689657,314.12 C312.98850574712645,312.1 321.14942528735634,311.12 329.3103448275862,309.2 C337.4712643678161,307.28 345.632183908046,304.48 353.7931034482759,302.6 C361.95402298850576,300.72 370.11494252873564,300 378.2758620689655,297.92 C386.4367816091954,295.84000000000003 394.5977011494253,292.68 402.7586206896552,290.12 C410.91954022988506,287.56 419.08045977011494,284.66 427.2413793103448,282.56 C435.4022988505747,280.46 443.5632183908046,280 451.7241379310345,277.52 C459.88505747126436,275.03999999999996 468.04597701149424,271.32 476.2068965517241,267.68 C484.367816091954,264.04 492.5287356321839,259.56 500.6896551724138,255.68 C508.85057471264366,251.8 517.0114942528736,248.18 525.1724137931035,244.4 C533.3333333333334,240.62 541.4942528735633,238.96 549.6551724137931,233 C557.816091954023,227.04 565.9770114942529,218.45999999999998 574.1379310344828,208.64 C582.2988505747127,198.82 590.4597701149426,181.95999999999998 598.6206896551724,174.07999999999998 C606.7816091954023,166.2 614.9425287356322,165.17999999999998 623.1034482758621,161.35999999999999 C631.264367816092,157.54 639.4252873563219,154.3 647.5862068965517,151.16000000000003 C655.7471264367816,148.02000000000004 663.9080459770115,145.24 672.0689655172414,142.52 C680.2298850574713,139.8 688.3908045977012,137.4 696.551724137931,134.84 C704.7126436781609,132.28 712.8735632183908,129.31132750368351 721.0344827586207,127.16 C729.1954022988506,125.00867249631648 737.3563218390805,126.73357746388167 745.5172413793103,121.51999999999998 C753.6781609195402,116.30642253611829 761.8390804597701,103.75999999999999 770,94.88 L770,350 L60,350 Z" fill="#6b63ff" fill-opacity="0.1" />
  <path d="M60,350 L60,349.88 C68.16091954022988,349.68 76.32183908045977,349.53999999999996 84.48275862068965,349.28 C92.64367816091954,349.02 100.80459770114942,348.68 108.9655172413793,348.32 C117.12643678160919,347.96 125.28735632183907,347.44 133.44827586206895,347.12 C141.60919540229884,346.8 149.77011494252872,346.88 157.9310344827586,346.4 C166.0919540229885,345.91999999999996 174.2528735632184,344.94 182.41379310344828,344.24 C190.57471264367817,343.54 198.73563218390805,343.24 206.89655172413794,342.2 C215.05747126436782,341.15999999999997 223.2183908045977,340.2 231.3793103448276,338 C239.54022988505747,335.8 247.70114942528735,331.78000000000003 255.86206896551724,329 C264.0229885057471,326.22 272.183908045977,323.8 280.34482758620686,321.32 C288.50574712643675,318.84 296.6666666666667,316.14 304.82758620689657,314.12 C312.98850574712645,312.1 321.14942528735634,311.12 329.3103448275862,309.2 C337.4712643678161,307.28 345.632183908046,304.48 353.7931034482759,302.6 C361.95402298850576,300.72 370.11494252873564,300 378.2758620689655,297.92 C386.4367816091954,295.84000000000003 394.5977011494253,292.68 402.7586206896552,290.12 C410.91954022988506,287.56 419.08045977011494,284.66 427.2413793103448,282.56 C435.4022988505747,280.46 443.5632183908046,280 451.7241379310345,277.52 C459.88505747126436,275.03999999999996 468.04597701149424,271.32 476.2068965517241,267.68 C484.367816091954,264.04 492.5287356321839,259.56 500.6896551724138,255.68 C508.85057471264366,251.8 517.0114942528736,248.18 525.1724137931035,244.4 C533.3333333333334,240.62 541.4942528735633,238.96 549.6551724137931,233 C557.816091954023,227.04 565.9770114942529,218.45999999999998 574.1379310344828,208.64 C582.2988505747127,198.82 590.4597701149426,181.95999999999998 598.6206896551724,174.07999999999998 C606.7816091954023,166.2 614.9425287356322,165.17999999999998 623.1034482758621,161.35999999999999 C631.264367816092,157.54 639.4252873563219,154.3 647.5862068965517,151.16000000000003 C655.7471264367816,148.02000000000004 663.9080459770115,145.24 672.0689655172414,142.52 C680.2298850574713,139.8 688.3908045977012,137.4 696.551724137931,134.84 C704.7126436781609,132.28 712.8735632183908,129.31132750368351 721.0344827586207,127.16 C729.1954022988506,125.00867249631648 737.3563218390805,126.73357746388167 745.5172413793103,121.51999999999998 C753.6781609195402,116.30642253611829 761.8390804597701,103.75999999999999 770,94.88" fill="none" stroke="#6b63ff" stroke-width="2.5" class="data-line-0" />
  <g class="points">
    
    <circle cx="60" cy="349.88" r="4" fill="#6b63ff" class="data-point" style="animation-delay: 1.50s" />
    <circle cx="84.48275862068965" cy="349.28" r="4" fill="#6b63ff" class="data-point" style="animation-delay: 1.55s" />
    <circle cx="108.9655172413793" cy="348.32" r="4" fill="#6b63ff" class="data-point" style="animation-delay: 1.60s" />
    <circle cx="133.44827586206895" cy="347.12" r="4" fill="#6b63ff" class="data-point" style="animation-delay: 1.65s" />
    <circle cx="157.9310344827586" cy="346.4" r="4" fill="#6b63ff" class="data-point" style="animation-delay: 1.70s" />
    <circle cx="182.41379310344828" cy="344.24" r="4" fill="#6b63ff" class="data-point" style="animation-delay: 1.75s" />
    <circle cx="206.89655172413794" cy="342.2" r="4" fill="#6b63ff" class="data-point" style="animation-delay: 1.80s" />
    <circle cx="231.3793103448276" cy="338" r="4" fill="#6b63ff" class="data-point" style="animation-delay: 1.85s" />
    <circle cx="255.86206896551724" cy="329" r="4" fill="#6b63ff" class="data-point" style="animation-delay: 1.90s" />
    <circle cx="280.34482758620686" cy="321.32" r="4" fill="#6b63ff" class="data-point" style="animation-delay: 1.95s" />
    <circle cx="304.82758620689657" cy="314.12" r="4" fill="#6b63ff" class="data-point" style="animation-delay: 2.00s" />
    <circle cx="329.3103448275862" cy="309.2" r="4" fill="#6b63ff" class="data-point" style="animation-delay: 2.05s" />
    <circle cx="353.7931034482759" cy="302.6" r="4" fill="#6b63ff" class="data-point" style="animation-delay: 2.10s" />
    <circle cx="378.2758620689655" cy="297.92" r="4" fill="#6b63ff" class="data-point" style="animation-delay: 2.15s" />
    <circle cx="402.7586206896552" cy="290.12" r="4" fill="#6b63ff" class="data-point" style="animation-delay: 2.20s" />
    <circle cx="427.2413793103448" cy="282.56" r="4" fill="#6b63ff" class="data-point" style="animation-delay: 2.25s" />
    <circle cx="451.7241379310345" cy="277.52" r="4" fill="#6b63ff" class="data-point" style="animation-delay: 2.30s" />
    <circle cx="476.2068965517241" cy="267.68" r="4" fill="#6b63ff" class="data-point" style="animation-delay: 2.35s" />
    <circle cx="500.6896551724138" cy="255.68" r="4" fill="#6b63ff" class="data-point" style="animation-delay: 2.40s" />
    <circle cx="525.1724137931035" cy="244.4" r="4" fill="#6b63ff" class="data-point" style="animation-delay: 2.45s" />
    <circle cx="549.6551724137931" cy="233" r="4" fill="#6b63ff" class="data-point" style="animation-delay: 2.50s" />
    <circle cx="574.1379310344828" cy="208.64" r="4" fill="#6b63ff" class="data-point" style="animation-delay: 2.55s" />
    <circle cx="598.6206896551724" cy="174.07999999999998" r="4" fill="#6b63ff" class="data-point" style="animation-delay: 2.60s" />
    <circle cx="623.1034482758621" cy="161.35999999999999" r="4" fill="#6b63ff" class="data-point" style="animation-delay: 2.65s" />
    <circle cx="647.5862068965517" cy="151.16000000000003" r="4" fill="#6b63ff" class="data-point" style="animation-delay: 2.70s" />
    <circle cx="672.0689655172414" cy="142.52" r="4" fill="#6b63ff" class="data-point" style="animation-delay: 2.75s" />
    <circle cx="696.551724137931" cy="134.84" r="4" fill="#6b63ff" class="data-point" style="animation-delay: 2.80s" />
    <circle cx="721.0344827586207" cy="127.16" r="4" fill="#6b63ff" class="data-point" style="animation-delay: 2.85s" />
    <circle cx="745.5172413793103" cy="121.51999999999998" r="4" fill="#6b63ff" class="data-point" style="animation-delay: 2.90s" />
    <circle cx="770" cy="94.88" r="4" fill="#6b63ff" class="data-point" style="animation-delay: 2.95s" />
  </g>
</svg>