<svg xmlns="http://www.w3.org/2000/svg" viewBox="0 0 800 400" width="800" height="400">
  <style>
    @keyframes drawLine {
      to { stroke-dashoffset: 0; }
    }
    @keyframes fadeInPoint {
      from { opacity: 0; }
      to { opacity: 1; }
    }
    .data-line-0 {
      stroke-dasharray: 1180;
      stroke-dashoffset: 1180;
      animation: drawLine 2s ease-out forwards;
    }
    .data-point {
      opacity: 0;
      animation: fadeInPoint 0.5s ease-out forwards;
    }
    .chart-bg { fill: #fff; }
    .chart-text { fill: #24292e; }
    .chart-muted { fill: #6a737d; }
    .chart-grid { stroke: #eee; }
    .chart-axis { stroke: #6a737d; }
    @media (prefers-color-scheme: dark) {
      .chart-bg { fill: #0d1117; }
      .chart-text { fill: #e6edf3; }
      .chart-muted { fill: #8b949e; }
      .chart-grid { stroke: #21262d; }
      .chart-axis { stroke: #8b949e; }
    }
  </style>
  <rect width="800" height="400" class="chart-bg" />
  <text x="400" y="14" text-anchor="middle" class="chart-text" font-size="16" font-weight="bold" font-family="-apple-system, BlinkMacSystemFont, 'Segoe UI', Helvetica, Arial, sans-serif">qemus/virtiso-whql Star History</text>
  
  <g class="grid">
    <line x1="60" y1="350" x2="770" y2="350" class="chart-grid" stroke-opacity="0.3" />
    <text x="778" y="354" text-anchor="start" class="chart-muted" font-size="11" font-family="-apple-system, BlinkMacSystemFont, 'Segoe UI', Helvetica, Arial, sans-serif">0</text>
    <line x1="60" y1="254.76190476190476" x2="770" y2="254.76190476190476" class="chart-grid" stroke-opacity="0.3" />
    <text x="778" y="258.76190476190476" text-anchor="start" class="chart-muted" font-size="11" font-family="-apple-system, BlinkMacSystemFont, 'Segoe UI', Helvetica, Arial, sans-serif">20</text>
    <line x1="60" y1="159.52380952380955" x2="770" y2="159.52380952380955" class="chart-grid" stroke-opacity="0.3" />
    <text x="778" y="163.52380952380955" text-anchor="start" class="chart-muted" font-size="11" font-family="-apple-system, BlinkMacSystemFont, 'Segoe UI', Helvetica, Arial, sans-serif">40</text>
    <line x1="60" y1="64.28571428571428" x2="770" y2="64.28571428571428" class="chart-grid" stroke-opacity="0.3" />
    <text x="778" y="68.28571428571428" text-anchor="start" class="chart-muted" font-size="11" font-family="-apple-system, BlinkMacSystemFont, 'Segoe UI', Helvetica, Arial, sans-serif">60</text>
  </g>
  <g class="milestones">
    
  </g>
  <g class="x-axis">
    <text x="60" y="370" text-anchor="middle" class="chart-muted" font-size="11" font-family="-apple-system, BlinkMacSystemFont, 'Segoe UI', Helvetica, Arial, sans-serif">2024</text>
    <text x="182.41379310344828" y="370" text-anchor="middle" class="chart-muted" font-size="11" font-family="-apple-system, BlinkMacSystemFont, 'Segoe UI', Helvetica, Arial, sans-serif">2025</text>
    <text x="574.1379310344828" y="370" text-anchor="middle" class="chart-muted" font-size="11" font-family="-apple-system, BlinkMacSystemFont, 'Segoe UI', Helvetica, Arial, sans-serif">2026</text>
  </g>
  <line x1="770" y1="50" x2="770" y2="350" class="chart-axis" stroke-width="1" />
  <line x1="60" y1="350" x2="770" y2="350" class="chart-axis" stroke-width="1" />
  <path d="M60,350 L60,345.23809523809524 C68.16091954022988,343.6507936507937 76.32183908045977,342.8571428571429 84.48275862068965,340.4761904761905 C92.64367816091954,338.0952380952381 100.80459770114942,334.12698412698415 108.9655172413793,330.95238095238096 C117.12643678160919,327.77777777777777 125.28735632183907,323.80952380952385 133.44827586206895,321.42857142857144 C141.60919540229884,319.04761904761904 149.77011494252872,318.25396825396825 157.9310344827586,316.6666666666667 C166.0919540229885,315.0793650793651 174.2528735632184,313.4920634920635 182.41379310344828,311.9047619047619 C190.57471264367817,310.31746031746036 198.73563218390805,307.14285714285717 206.89655172413794,307.14285714285717 C215.05747126436782,307.14285714285717 223.2183908045977,307.14285714285717 231.3793103448276,307.14285714285717 C239.54022988505747,307.14285714285717 247.70114942528735,297.61904761904765 255.86206896551724,292.8571428571429 C264.0229885057471,288.09523809523813 272.183908045977,282.53968253968253 280.34482758620686,278.57142857142856 C288.50574712643675,274.6031746031746 296.6666666666667,274.6031746031746 304.82758620689657,269.04761904761904 C312.98850574712645,263.4920634920635 321.14942528735634,245.23809523809524 329.3103448275862,245.23809523809524 C337.4712643678161,245.23809523809524 345.632183908046,245.23809523809524 353.7931034482759,245.23809523809524 C361.95402298850576,245.23809523809524 370.11494252873564,245.23809523809524 378.2758620689655,245.23809523809524 C386.4367816091954,245.23809523809524 394.5977011494253,245.23809523809524 402.7586206896552,245.23809523809524 C410.91954022988506,245.23809523809524 419.08045977011494,245.23809523809524 427.2413793103448,245.23809523809524 C435.4022988505747,245.23809523809524 443.5632183908046,229.3650793650794 451.7241379310345,221.42857142857144 C459.88505747126436,213.4920634920635 468.04597701149424,203.1746031746032 476.2068965517241,197.61904761904762 C484.367816091954,192.06349206349205 492.5287356321839,190.47619047619048 500.6896551724138,188.0952380952381 C508.85057471264366,185.71428571428572 517.0114942528736,185.7142857142857 525.1724137931035,183.33333333333331 C533.3333333333334,180.95238095238093 541.4942528735633,176.98412698412696 549.6551724137931,173.8095238095238 C557.816091954023,170.63492063492063 565.9770114942529,166.66666666666666 574.1379310344828,164.28571428571428 C582.2988505747127,161.9047619047619 590.4597701149426,162.6984126984127 598.6206896551724,159.52380952380955 C606.7816091954023,156.34920634920638 614.9425287356322,149.20634920634922 623.1034482758621,145.23809523809524 C631.264367816092,141.26984126984127 639.4252873563219,138.8888888888889 647.5862068965517,135.71428571428572 C655.7471264367816,132.53968253968253 663.9080459770115,128.57142857142856 672.0689655172414,126.19047619047618 C680.2298850574713,123.8095238095238 688.3908045977012,123.80952380952382 696.551724137931,121.42857142857144 C704.7126436781609,119.04761904761907 712.8735632183908,117.46031746031748 721.0344827586207,111.90476190476193 C729.1954022988506,106.34920634920637 737.3563218390805,93.65079365079363 745.5172413793103,88.09523809523807 C753.6781609195402,82.53968253968252 761.8390804597701,81.74603174603173 770,78.57142857142856 L770,350 L60,350 Z" fill="#6b63ff" fill-opacity="0.1" />
  <path d="M60,350 L60,345.23809523809524 C68.16091954022988,343.6507936507937 76.32183908045977,342.8571428571429 84.48275862068965,340.4761904761905 C92.64367816091954,338.0952380952381 100.80459770114942,334.12698412698415 108.9655172413793,330.95238095238096 C117.12643678160919,327.77777777777777 125.28735632183907,323.80952380952385 133.44827586206895,321.42857142857144 C141.60919540229884,319.04761904761904 149.77011494252872,318.25396825396825 157.9310344827586,316.6666666666667 C166.0919540229885,315.0793650793651 174.2528735632184,313.4920634920635 182.41379310344828,311.9047619047619 C190.57471264367817,310.31746031746036 198.73563218390805,307.14285714285717 206.89655172413794,307.14285714285717 C215.05747126436782,307.14285714285717 223.2183908045977,307.14285714285717 231.3793103448276,307.14285714285717 C239.54022988505747,307.14285714285717 247.70114942528735,297.61904761904765 255.86206896551724,292.8571428571429 C264.0229885057471,288.09523809523813 272.183908045977,282.53968253968253 280.34482758620686,278.57142857142856 C288.50574712643675,274.6031746031746 296.6666666666667,274.6031746031746 304.82758620689657,269.04761904761904 C312.98850574712645,263.4920634920635 321.14942528735634,245.23809523809524 329.3103448275862,245.23809523809524 C337.4712643678161,245.23809523809524 345.632183908046,245.23809523809524 353.7931034482759,245.23809523809524 C361.95402298850576,245.23809523809524 370.11494252873564,245.23809523809524 378.2758620689655,245.23809523809524 C386.4367816091954,245.23809523809524 394.5977011494253,245.23809523809524 402.7586206896552,245.23809523809524 C410.91954022988506,245.23809523809524 419.08045977011494,245.23809523809524 427.2413793103448,245.23809523809524 C435.4022988505747,245.23809523809524 443.5632183908046,229.3650793650794 451.7241379310345,221.42857142857144 C459.88505747126436,213.4920634920635 468.04597701149424,203.1746031746032 476.2068965517241,197.61904761904762 C484.367816091954,192.06349206349205 492.5287356321839,190.47619047619048 500.6896551724138,188.0952380952381 C508.85057471264366,185.71428571428572 517.0114942528736,185.7142857142857 525.1724137931035,183.33333333333331 C533.3333333333334,180.95238095238093 541.4942528735633,176.98412698412696 549.6551724137931,173.8095238095238 C557.816091954023,170.63492063492063 565.9770114942529,166.66666666666666 574.1379310344828,164.28571428571428 C582.2988505747127,161.9047619047619 590.4597701149426,162.6984126984127 598.6206896551724,159.52380952380955 C606.7816091954023,156.34920634920638 614.9425287356322,149.20634920634922 623.1034482758621,145.23809523809524 C631.264367816092,141.26984126984127 639.4252873563219,138.8888888888889 647.5862068965517,135.71428571428572 C655.7471264367816,132.53968253968253 663.9080459770115,128.57142857142856 672.0689655172414,126.19047619047618 C680.2298850574713,123.8095238095238 688.3908045977012,123.80952380952382 696.551724137931,121.42857142857144 C704.7126436781609,119.04761904761907 712.8735632183908,117.46031746031748 721.0344827586207,111.90476190476193 C729.1954022988506,106.34920634920637 737.3563218390805,93.65079365079363 745.5172413793103,88.09523809523807 C753.6781609195402,82.53968253968252 761.8390804597701,81.74603174603173 770,78.57142857142856" fill="none" stroke="#6b63ff" stroke-width="2.5" class="data-line-0" />
  <g class="points">
    
    <circle cx="60" cy="345.23809523809524" r="4" fill="#6b63ff" class="data-point" style="animation-delay: 1.50s" />
    <circle cx="84.48275862068965" cy="340.4761904761905" r="4" fill="#6b63ff" class="data-point" style="animation-delay: 1.55s" />
    <circle cx="108.9655172413793" cy="330.95238095238096" r="4" fill="#6b63ff" class="data-point" style="animation-delay: 1.60s" />
    <circle cx="133.44827586206895" cy="321.42857142857144" r="4" fill="#6b63ff" class="data-point" style="animation-delay: 1.65s" />
    <circle cx="157.9310344827586" cy="316.6666666666667" r="4" fill="#6b63ff" class="data-point" style="animation-delay: 1.70s" />
    <circle cx="182.41379310344828" cy="311.9047619047619" r="4" fill="#6b63ff" class="data-point" style="animation-delay: 1.75s" />
    <circle cx="206.89655172413794" cy="307.14285714285717" r="4" fill="#6b63ff" class="data-point" style="animation-delay: 1.80s" />
    <circle cx="231.3793103448276" cy="307.14285714285717" r="4" fill="#6b63ff" class="data-point" style="animation-delay: 1.85s" />
    <circle cx="255.86206896551724" cy="292.8571428571429" r="4" fill="#6b63ff" class="data-point" style="animation-delay: 1.90s" />
    <circle cx="280.34482758620686" cy="278.57142857142856" r="4" fill="#6b63ff" class="data-point" style="animation-delay: 1.95s" />
    <circle cx="304.82758620689657" cy="269.04761904761904" r="4" fill="#6b63ff" class="data-point" style="animation-delay: 2.00s" />
    <circle cx="329.3103448275862" cy="245.23809523809524" r="4" fill="#6b63ff" class="data-point" style="animation-delay: 2.05s" />
    <circle cx="353.7931034482759" cy="245.23809523809524" r="4" fill="#6b63ff" class="data-point" style="animation-delay: 2.10s" />
    <circle cx="378.2758620689655" cy="245.23809523809524" r="4" fill="#6b63ff" class="data-point" style="animation-delay: 2.15s" />
    <circle cx="402.7586206896552" cy="245.23809523809524" r="4" fill="#6b63ff" class="data-point" style="animation-delay: 2.20s" />
    <circle cx="427.2413793103448" cy="245.23809523809524" r="4" fill="#6b63ff" class="data-point" style="animation-delay: 2.25s" />
    <circle cx="451.7241379310345" cy="221.42857142857144" r="4" fill="#6b63ff" class="data-point" style="animation-delay: 2.30s" />
    <circle cx="476.2068965517241" cy="197.61904761904762" r="4" fill="#6b63ff" class="data-point" style="animation-delay: 2.35s" />
    <circle cx="500.6896551724138" cy="188.0952380952381" r="4" fill="#6b63ff" class="data-point" style="animation-delay: 2.40s" />
    <circle cx="525.1724137931035" cy="183.33333333333331" r="4" fill="#6b63ff" class="data-point" style="animation-delay: 2.45s" />
    <circle cx="549.6551724137931" cy="173.8095238095238" r="4" fill="#6b63ff" class="data-point" style="animation-delay: 2.50s" />
    <circle cx="574.1379310344828" cy="164.28571428571428" r="4" fill="#6b63ff" class="data-point" style="animation-delay: 2.55s" />
    <circle cx="598.6206896551724" cy="159.52380952380955" r="4" fill="#6b63ff" class="data-point" style="animation-delay: 2.60s" />
    <circle cx="623.1034482758621" cy="145.23809523809524" r="4" fill="#6b63ff" class="data-point" style="animation-delay: 2.65s" />
    <circle cx="647.5862068965517" cy="135.71428571428572" r="4" fill="#6b63ff" class="data-point" style="animation-delay: 2.70s" />
    <circle cx="672.0689655172414" cy="126.19047619047618" r="4" fill="#6b63ff" class="data-point" style="animation-delay: 2.75s" />
    <circle cx="696.551724137931" cy="121.42857142857144" r="4" fill="#6b63ff" class="data-point" style="animation-delay: 2.80s" />
    <circle cx="721.0344827586207" cy="111.90476190476193" r="4" fill="#6b63ff" class="data-point" style="animation-delay: 2.85s" />
    <circle cx="745.5172413793103" cy="88.09523809523807" r="4" fill="#6b63ff" class="data-point" style="animation-delay: 2.90s" />
    <circle cx="770" cy="78.57142857142856" r="4" fill="#6b63ff" class="data-point" style="animation-delay: 2.95s" />
  </g>
</svg>