<svg xmlns="http://www.w3.org/2000/svg" viewBox="0 0 800 400" width="800" height="400">
  <style>
    @keyframes drawLine {
      to { stroke-dashoffset: 0; }
    }
    @keyframes fadeInPoint {
      from { opacity: 0; }
      to { opacity: 1; }
    }
    .data-line-0 {
      stroke-dasharray: 1279;
      stroke-dashoffset: 1279;
      animation: drawLine 2s ease-out forwards;
    }
    .data-point {
      opacity: 0;
      animation: fadeInPoint 0.5s ease-out forwards;
    }
    .chart-bg { fill: #fff; }
    .chart-text { fill: #24292e; }
    .chart-muted { fill: #6a737d; }
    .chart-grid { stroke: #eee; }
    .chart-axis { stroke: #6a737d; }
    @media (prefers-color-scheme: dark) {
      .chart-bg { fill: #0d1117; }
      .chart-text { fill: #e6edf3; }
      .chart-muted { fill: #8b949e; }
      .chart-grid { stroke: #21262d; }
      .chart-axis { stroke: #8b949e; }
    }
  </style>
  <rect width="800" height="400" class="chart-bg" />
  <text x="400" y="14" text-anchor="middle" class="chart-text" font-size="16" font-weight="bold" font-family="-apple-system, BlinkMacSystemFont, 'Segoe UI', Helvetica, Arial, sans-serif">qemus/passt Star History</text>
  
  <g class="grid">
    <line x1="60" y1="350" x2="770" y2="350" class="chart-grid" stroke-opacity="0.3" />
    <text x="778" y="354" text-anchor="start" class="chart-muted" font-size="11" font-family="-apple-system, BlinkMacSystemFont, 'Segoe UI', Helvetica, Arial, sans-serif">0</text>
    <line x1="60" y1="300" x2="770" y2="300" class="chart-grid" stroke-opacity="0.3" />
    <text x="778" y="304" text-anchor="start" class="chart-muted" font-size="11" font-family="-apple-system, BlinkMacSystemFont, 'Segoe UI', Helvetica, Arial, sans-serif">2</text>
    <line x1="60" y1="250" x2="770" y2="250" class="chart-grid" stroke-opacity="0.3" />
    <text x="778" y="254" text-anchor="start" class="chart-muted" font-size="11" font-family="-apple-system, BlinkMacSystemFont, 'Segoe UI', Helvetica, Arial, sans-serif">4</text>
    <line x1="60" y1="200" x2="770" y2="200" class="chart-grid" stroke-opacity="0.3" />
    <text x="778" y="204" text-anchor="start" class="chart-muted" font-size="11" font-family="-apple-system, BlinkMacSystemFont, 'Segoe UI', Helvetica, Arial, sans-serif">6</text>
    <line x1="60" y1="150" x2="770" y2="150" class="chart-grid" stroke-opacity="0.3" />
    <text x="778" y="154" text-anchor="start" class="chart-muted" font-size="11" font-family="-apple-system, BlinkMacSystemFont, 'Segoe UI', Helvetica, Arial, sans-serif">8</text>
    <line x1="60" y1="100" x2="770" y2="100" class="chart-grid" stroke-opacity="0.3" />
    <text x="778" y="104" text-anchor="start" class="chart-muted" font-size="11" font-family="-apple-system, BlinkMacSystemFont, 'Segoe UI', Helvetica, Arial, sans-serif">10</text>
    <line x1="60" y1="50" x2="770" y2="50" class="chart-grid" stroke-opacity="0.3" />
    <text x="778" y="54" text-anchor="start" class="chart-muted" font-size="11" font-family="-apple-system, BlinkMacSystemFont, 'Segoe UI', Helvetica, Arial, sans-serif">12</text>
  </g>
  <g class="milestones">
    
  </g>
  <g class="x-axis">
    <text x="60" y="370" text-anchor="middle" class="chart-muted" font-size="11" font-family="-apple-system, BlinkMacSystemFont, 'Segoe UI', Helvetica, Arial, sans-serif">Oct 3</text>
    <text x="133.44827586206895" y="370" text-anchor="middle" class="chart-muted" font-size="11" font-family="-apple-system, BlinkMacSystemFont, 'Segoe UI', Helvetica, Arial, sans-serif">Oct 31</text>
    <text x="206.89655172413794" y="370" text-anchor="middle" class="chart-muted" font-size="11" font-family="-apple-system, BlinkMacSystemFont, 'Segoe UI', Helvetica, Arial, sans-serif">Nov 28</text>
    <text x="280.34482758620686" y="370" text-anchor="middle" class="chart-muted" font-size="11" font-family="-apple-system, BlinkMacSystemFont, 'Segoe UI', Helvetica, Arial, sans-serif">Dec 26</text>
    <text x="353.7931034482759" y="370" text-anchor="middle" class="chart-muted" font-size="11" font-family="-apple-system, BlinkMacSystemFont, 'Segoe UI', Helvetica, Arial, sans-serif">Jan 23</text>
    <text x="427.2413793103448" y="370" text-anchor="middle" class="chart-muted" font-size="11" font-family="-apple-system, BlinkMacSystemFont, 'Segoe UI', Helvetica, Arial, sans-serif">Feb 20</text>
    <text x="500.6896551724138" y="370" text-anchor="middle" class="chart-muted" font-size="11" font-family="-apple-system, BlinkMacSystemFont, 'Segoe UI', Helvetica, Arial, sans-serif">Mar 20</text>
    <text x="574.1379310344828" y="370" text-anchor="middle" class="chart-muted" font-size="11" font-family="-apple-system, BlinkMacSystemFont, 'Segoe UI', Helvetica, Arial, sans-serif">Apr 16</text>
    <text x="647.5862068965517" y="370" text-anchor="middle" class="chart-muted" font-size="11" font-family="-apple-system, BlinkMacSystemFont, 'Segoe UI', Helvetica, Arial, sans-serif">May 14</text>
    <text x="721.0344827586207" y="370" text-anchor="middle" class="chart-muted" font-size="11" font-family="-apple-system, BlinkMacSystemFont, 'Segoe UI', Helvetica, Arial, sans-serif">Jun 11</text>
    <text x="770" y="370" text-anchor="middle" class="chart-muted" font-size="11" font-family="-apple-system, BlinkMacSystemFont, 'Segoe UI', Helvetica, Arial, sans-serif">Jun 30</text>
  </g>
  <line x1="770" y1="50" x2="770" y2="350" class="chart-axis" stroke-width="1" />
  <line x1="60" y1="350" x2="770" y2="350" class="chart-axis" stroke-width="1" />
  <path d="M60,350 L60,325 C68.16091954022988,316.6666666666667 76.32183908045977,300 84.48275862068965,300 C92.64367816091954,300 100.80459770114942,300 108.9655172413793,300 C117.12643678160919,300 125.28735632183907,300 133.44827586206895,300 C141.60919540229884,300 149.77011494252872,300 157.9310344827586,300 C166.0919540229885,300 174.2528735632184,300 182.41379310344828,300 C190.57471264367817,300 198.73563218390805,300 206.89655172413794,300 C215.05747126436782,300 223.2183908045977,275 231.3793103448276,275 C239.54022988505747,275 247.70114942528735,275 255.86206896551724,275 C264.0229885057471,275 272.183908045977,275 280.34482758620686,275 C288.50574712643675,275 296.6666666666667,275 304.82758620689657,275 C312.98850574712645,275 321.14942528735634,250 329.3103448275862,250 C337.4712643678161,250 345.632183908046,250 353.7931034482759,250 C361.95402298850576,250 370.11494252873564,225 378.2758620689655,225 C386.4367816091954,225 394.5977011494253,225 402.7586206896552,225 C410.91954022988506,225 419.08045977011494,225 427.2413793103448,225 C435.4022988505747,225 443.5632183908046,225 451.7241379310345,225 C459.88505747126436,225 468.04597701149424,225 476.2068965517241,225 C484.367816091954,225 492.5287356321839,216.66666666666663 500.6896551724138,200 C508.85057471264366,183.33333333333331 517.0114942528736,125 525.1724137931035,125 C533.3333333333334,125 541.4942528735633,125 549.6551724137931,125 C557.816091954023,125 565.9770114942529,125 574.1379310344828,125 C582.2988505747127,125 590.4597701149426,100 598.6206896551724,100 C606.7816091954023,100 614.9425287356322,100 623.1034482758621,100 C631.264367816092,100 639.4252873563219,100 647.5862068965517,100 C655.7471264367816,100 663.9080459770115,100 672.0689655172414,100 C680.2298850574713,100 688.3908045977012,100 696.551724137931,100 C704.7126436781609,100 712.8735632183908,100 721.0344827586207,100 C729.1954022988506,100 737.3563218390805,100 745.5172413793103,100 C753.6781609195402,100 761.8390804597701,100 770,100 L770,350 L60,350 Z" fill="#6b63ff" fill-opacity="0.1" />
  <path d="M60,350 L60,325 C68.16091954022988,316.6666666666667 76.32183908045977,300 84.48275862068965,300 C92.64367816091954,300 100.80459770114942,300 108.9655172413793,300 C117.12643678160919,300 125.28735632183907,300 133.44827586206895,300 C141.60919540229884,300 149.77011494252872,300 157.9310344827586,300 C166.0919540229885,300 174.2528735632184,300 182.41379310344828,300 C190.57471264367817,300 198.73563218390805,300 206.89655172413794,300 C215.05747126436782,300 223.2183908045977,275 231.3793103448276,275 C239.54022988505747,275 247.70114942528735,275 255.86206896551724,275 C264.0229885057471,275 272.183908045977,275 280.34482758620686,275 C288.50574712643675,275 296.6666666666667,275 304.82758620689657,275 C312.98850574712645,275 321.14942528735634,250 329.3103448275862,250 C337.4712643678161,250 345.632183908046,250 353.7931034482759,250 C361.95402298850576,250 370.11494252873564,225 378.2758620689655,225 C386.4367816091954,225 394.5977011494253,225 402.7586206896552,225 C410.91954022988506,225 419.08045977011494,225 427.2413793103448,225 C435.4022988505747,225 443.5632183908046,225 451.7241379310345,225 C459.88505747126436,225 468.04597701149424,225 476.2068965517241,225 C484.367816091954,225 492.5287356321839,216.66666666666663 500.6896551724138,200 C508.85057471264366,183.33333333333331 517.0114942528736,125 525.1724137931035,125 C533.3333333333334,125 541.4942528735633,125 549.6551724137931,125 C557.816091954023,125 565.9770114942529,125 574.1379310344828,125 C582.2988505747127,125 590.4597701149426,100 598.6206896551724,100 C606.7816091954023,100 614.9425287356322,100 623.1034482758621,100 C631.264367816092,100 639.4252873563219,100 647.5862068965517,100 C655.7471264367816,100 663.9080459770115,100 672.0689655172414,100 C680.2298850574713,100 688.3908045977012,100 696.551724137931,100 C704.7126436781609,100 712.8735632183908,100 721.0344827586207,100 C729.1954022988506,100 737.3563218390805,100 745.5172413793103,100 C753.6781609195402,100 761.8390804597701,100 770,100" fill="none" stroke="#6b63ff" stroke-width="2.5" class="data-line-0" />
  <g class="points">
    
    <circle cx="60" cy="325" r="4" fill="#6b63ff" class="data-point" style="animation-delay: 1.50s" />
    <circle cx="84.48275862068965" cy="300" r="4" fill="#6b63ff" class="data-point" style="animation-delay: 1.55s" />
    <circle cx="108.9655172413793" cy="300" r="4" fill="#6b63ff" class="data-point" style="animation-delay: 1.60s" />
    <circle cx="133.44827586206895" cy="300" r="4" fill="#6b63ff" class="data-point" style="animation-delay: 1.65s" />
    <circle cx="157.9310344827586" cy="300" r="4" fill="#6b63ff" class="data-point" style="animation-delay: 1.70s" />
    <circle cx="182.41379310344828" cy="300" r="4" fill="#6b63ff" class="data-point" style="animation-delay: 1.75s" />
    <circle cx="206.89655172413794" cy="300" r="4" fill="#6b63ff" class="data-point" style="animation-delay: 1.80s" />
    <circle cx="231.3793103448276" cy="275" r="4" fill="#6b63ff" class="data-point" style="animation-delay: 1.85s" />
    <circle cx="255.86206896551724" cy="275" r="4" fill="#6b63ff" class="data-point" style="animation-delay: 1.90s" />
    <circle cx="280.34482758620686" cy="275" r="4" fill="#6b63ff" class="data-point" style="animation-delay: 1.95s" />
    <circle cx="304.82758620689657" cy="275" r="4" fill="#6b63ff" class="data-point" style="animation-delay: 2.00s" />
    <circle cx="329.3103448275862" cy="250" r="4" fill="#6b63ff" class="data-point" style="animation-delay: 2.05s" />
    <circle cx="353.7931034482759" cy="250" r="4" fill="#6b63ff" class="data-point" style="animation-delay: 2.10s" />
    <circle cx="378.2758620689655" cy="225" r="4" fill="#6b63ff" class="data-point" style="animation-delay: 2.15s" />
    <circle cx="402.7586206896552" cy="225" r="4" fill="#6b63ff" class="data-point" style="animation-delay: 2.20s" />
    <circle cx="427.2413793103448" cy="225" r="4" fill="#6b63ff" class="data-point" style="animation-delay: 2.25s" />
    <circle cx="451.7241379310345" cy="225" r="4" fill="#6b63ff" class="data-point" style="animation-delay: 2.30s" />
    <circle cx="476.2068965517241" cy="225" r="4" fill="#6b63ff" class="data-point" style="animation-delay: 2.35s" />
    <circle cx="500.6896551724138" cy="200" r="4" fill="#6b63ff" class="data-point" style="animation-delay: 2.40s" />
    <circle cx="525.1724137931035" cy="125" r="4" fill="#6b63ff" class="data-point" style="animation-delay: 2.45s" />
    <circle cx="549.6551724137931" cy="125" r="4" fill="#6b63ff" class="data-point" style="animation-delay: 2.50s" />
    <circle cx="574.1379310344828" cy="125" r="4" fill="#6b63ff" class="data-point" style="animation-delay: 2.55s" />
    <circle cx="598.6206896551724" cy="100" r="4" fill="#6b63ff" class="data-point" style="animation-delay: 2.60s" />
    <circle cx="623.1034482758621" cy="100" r="4" fill="#6b63ff" class="data-point" style="animation-delay: 2.65s" />
    <circle cx="647.5862068965517" cy="100" r="4" fill="#6b63ff" class="data-point" style="animation-delay: 2.70s" />
    <circle cx="672.0689655172414" cy="100" r="4" fill="#6b63ff" class="data-point" style="animation-delay: 2.75s" />
    <circle cx="696.551724137931" cy="100" r="4" fill="#6b63ff" class="data-point" style="animation-delay: 2.80s" />
    <circle cx="721.0344827586207" cy="100" r="4" fill="#6b63ff" class="data-point" style="animation-delay: 2.85s" />
    <circle cx="745.5172413793103" cy="100" r="4" fill="#6b63ff" class="data-point" style="animation-delay: 2.90s" />
    <circle cx="770" cy="100" r="4" fill="#6b63ff" class="data-point" style="animation-delay: 2.95s" />
  </g>
</svg>