<svg xmlns="http://www.w3.org/2000/svg" viewBox="0 0 800 400" width="800" height="400">
  <style>
    @keyframes drawLine {
      to { stroke-dashoffset: 0; }
    }
    @keyframes fadeInPoint {
      from { opacity: 0; }
      to { opacity: 1; }
    }
    .data-line-0 {
      stroke-dasharray: 1178;
      stroke-dashoffset: 1178;
      animation: drawLine 2s ease-out forwards;
    }
    .data-point {
      opacity: 0;
      animation: fadeInPoint 0.5s ease-out forwards;
    }
    .chart-bg { fill: #fff; }
    .chart-text { fill: #24292e; }
    .chart-muted { fill: #6a737d; }
    .chart-grid { stroke: #eee; }
    .chart-axis { stroke: #6a737d; }
    @media (prefers-color-scheme: dark) {
      .chart-bg { fill: #0d1117; }
      .chart-text { fill: #e6edf3; }
      .chart-muted { fill: #8b949e; }
      .chart-grid { stroke: #21262d; }
      .chart-axis { stroke: #8b949e; }
    }
  </style>
  <rect width="800" height="400" class="chart-bg" />
  <text x="400" y="34" text-anchor="middle" class="chart-text" font-size="16" font-weight="bold" font-family="-apple-system, BlinkMacSystemFont, 'Segoe UI', Helvetica, Arial, sans-serif">qemus/qemu Star History</text>
  
  <g class="grid">
    <line x1="60" y1="350" x2="770" y2="350" class="chart-grid" stroke-opacity="0.3" />
    <text x="778" y="354" text-anchor="start" class="chart-muted" font-size="11" font-family="-apple-system, BlinkMacSystemFont, 'Segoe UI', Helvetica, Arial, sans-serif">0</text>
    <line x1="60" y1="277.21979621542937" x2="770" y2="277.21979621542937" class="chart-grid" stroke-opacity="0.3" />
    <text x="778" y="281.21979621542937" text-anchor="start" class="chart-muted" font-size="11" font-family="-apple-system, BlinkMacSystemFont, 'Segoe UI', Helvetica, Arial, sans-serif">500</text>
    <line x1="60" y1="204.4395924308588" x2="770" y2="204.4395924308588" class="chart-grid" stroke-opacity="0.3" />
    <text x="778" y="208.4395924308588" text-anchor="start" class="chart-muted" font-size="11" font-family="-apple-system, BlinkMacSystemFont, 'Segoe UI', Helvetica, Arial, sans-serif">1K</text>
    <line x1="60" y1="131.65938864628822" x2="770" y2="131.65938864628822" class="chart-grid" stroke-opacity="0.3" />
    <text x="778" y="135.65938864628822" text-anchor="start" class="chart-muted" font-size="11" font-family="-apple-system, BlinkMacSystemFont, 'Segoe UI', Helvetica, Arial, sans-serif">1.5K</text>
    <line x1="60" y1="58.87918486171759" x2="770" y2="58.87918486171759" class="chart-grid" stroke-opacity="0.3" />
    <text x="778" y="62.87918486171759" text-anchor="start" class="chart-muted" font-size="11" font-family="-apple-system, BlinkMacSystemFont, 'Segoe UI', Helvetica, Arial, sans-serif">2K</text>
  </g>
  <g class="milestones">
    
  </g>
  <g class="x-axis">
    <text x="60" y="370" text-anchor="middle" class="chart-muted" font-size="11" font-family="-apple-system, BlinkMacSystemFont, 'Segoe UI', Helvetica, Arial, sans-serif">2023</text>
    <text x="231.3793103448276" y="370" text-anchor="middle" class="chart-muted" font-size="11" font-family="-apple-system, BlinkMacSystemFont, 'Segoe UI', Helvetica, Arial, sans-serif">2024</text>
    <text x="451.7241379310345" y="370" text-anchor="middle" class="chart-muted" font-size="11" font-family="-apple-system, BlinkMacSystemFont, 'Segoe UI', Helvetica, Arial, sans-serif">2025</text>
    <text x="672.0689655172414" y="370" text-anchor="middle" class="chart-muted" font-size="11" font-family="-apple-system, BlinkMacSystemFont, 'Segoe UI', Helvetica, Arial, sans-serif">2026</text>
  </g>
  <line x1="770" y1="50" x2="770" y2="350" class="chart-axis" stroke-width="1" />
  <line x1="60" y1="350" x2="770" y2="350" class="chart-axis" stroke-width="1" />
  <path d="M60,350 L60,349.8544395924309 C63.264367816091955,349.7768073750607 77.95402298850574,349.4856865599223 84.48275862068965,349.2721979621543 C91.01149425287356,349.05870936438623 102.43678160919539,348.6026200873363 108.9655172413793,348.2532751091703 C115.49425287356321,347.90393013100436 126.91954022988504,346.9820475497331 133.44827586206895,346.65211062590976 C139.97701149425285,346.3221737020864 151.40229885057468,346.16690926734594 157.9310344827586,345.7787481804949 C164.45977011494253,345.3905870936439 175.88505747126436,344.3231441048035 182.41379310344828,343.74090247452693 C188.9425287356322,343.1586608442504 200.36781609195404,342.1688500727802 206.89655172413794,341.41193595342065 C213.42528735632183,340.65502183406113 224.8505747126437,339.86899563318775 231.3793103448276,338.0640465793304 C237.90804597701148,336.25909752547307 249.33333333333334,330.3202328966521 255.86206896551724,327.87481804949056 C262.39080459770116,325.429403202329 273.81609195402297,322.11062590975257 280.34482758620686,319.72343522561863 C286.87356321839076,317.3362445414847 298.2988505747127,311.89228529839886 304.82758620689657,309.9708879184862 C311.35632183908046,308.04949053857354 322.7816091954023,306.7879670063076 329.3103448275862,305.31295487627364 C335.8390804597701,303.83794274623966 347.264367816092,300.790878214459 353.7931034482759,298.90829694323145 C360.32183908045977,297.0257156720039 371.7471264367816,292.9209121785541 378.2758620689655,291.19359534206694 C384.8045977011494,289.4662785055798 396.2298850574713,287.9912663755459 402.7586206896552,285.9534206695779 C409.28735632183907,283.9155749636099 420.71264367816093,278.29694323144105 427.2413793103448,275.9097525473071 C433.7701149425287,273.52256186317317 445.1954022988506,269.8738476467734 451.7241379310345,268.04949053857354 C458.2528735632184,266.22513343037366 469.67816091954023,264.42018437651626 476.2068965517241,262.2270742358079 C482.735632183908,260.0339640950995 494.1609195402299,254.84230955846678 500.6896551724138,251.60116448326056 C507.2183908045977,248.36001940805434 518.6436781609195,241.08199902959728 525.1724137931035,237.9184861717613 C531.7011494252874,234.7549733139253 543.1264367816092,231.2130033964095 549.6551724137931,227.87481804949053 C556.1839080459771,224.53663270257155 567.6091954022988,218.3939835031538 574.1379310344828,212.882096069869 C580.6666666666667,207.37020863658418 592.0919540229885,192.8432799611839 598.6206896551724,186.53566229985444 C605.1494252873564,180.22804463852498 616.5747126436781,173.43522561863173 623.1034482758621,165.5749636098981 C629.632183908046,157.71470160116448 641.0574712643678,134.22125181950508 647.5862068965517,127.58369723435226 C654.1149425287357,120.94614264919942 665.5402298850574,119.07326540514313 672.0689655172414,115.79330422125182 C678.5977011494253,112.5133430373605 690.0229885057471,105.8951965065502 696.551724137931,102.98398835516738 C703.080459770115,100.07278020378456 714.5057471264367,96.55992236778263 721.0344827586207,93.95924308588064 C727.5632183908046,91.35856380397865 738.9885057471264,85.69141193595344 745.5172413793103,83.47889374090249 C752.0459770114943,81.26637554585155 766.735632183908,78.18049490538574 770,77.36535662299855 L770,350 L60,350 Z" fill="#6b63ff" fill-opacity="0.1" />
  <path d="M60,350 L60,349.8544395924309 C63.264367816091955,349.7768073750607 77.95402298850574,349.4856865599223 84.48275862068965,349.2721979621543 C91.01149425287356,349.05870936438623 102.43678160919539,348.6026200873363 108.9655172413793,348.2532751091703 C115.49425287356321,347.90393013100436 126.91954022988504,346.9820475497331 133.44827586206895,346.65211062590976 C139.97701149425285,346.3221737020864 151.40229885057468,346.16690926734594 157.9310344827586,345.7787481804949 C164.45977011494253,345.3905870936439 175.88505747126436,344.3231441048035 182.41379310344828,343.74090247452693 C188.9425287356322,343.1586608442504 200.36781609195404,342.1688500727802 206.89655172413794,341.41193595342065 C213.42528735632183,340.65502183406113 224.8505747126437,339.86899563318775 231.3793103448276,338.0640465793304 C237.90804597701148,336.25909752547307 249.33333333333334,330.3202328966521 255.86206896551724,327.87481804949056 C262.39080459770116,325.429403202329 273.81609195402297,322.11062590975257 280.34482758620686,319.72343522561863 C286.87356321839076,317.3362445414847 298.2988505747127,311.89228529839886 304.82758620689657,309.9708879184862 C311.35632183908046,308.04949053857354 322.7816091954023,306.7879670063076 329.3103448275862,305.31295487627364 C335.8390804597701,303.83794274623966 347.264367816092,300.790878214459 353.7931034482759,298.90829694323145 C360.32183908045977,297.0257156720039 371.7471264367816,292.9209121785541 378.2758620689655,291.19359534206694 C384.8045977011494,289.4662785055798 396.2298850574713,287.9912663755459 402.7586206896552,285.9534206695779 C409.28735632183907,283.9155749636099 420.71264367816093,278.29694323144105 427.2413793103448,275.9097525473071 C433.7701149425287,273.52256186317317 445.1954022988506,269.8738476467734 451.7241379310345,268.04949053857354 C458.2528735632184,266.22513343037366 469.67816091954023,264.42018437651626 476.2068965517241,262.2270742358079 C482.735632183908,260.0339640950995 494.1609195402299,254.84230955846678 500.6896551724138,251.60116448326056 C507.2183908045977,248.36001940805434 518.6436781609195,241.08199902959728 525.1724137931035,237.9184861717613 C531.7011494252874,234.7549733139253 543.1264367816092,231.2130033964095 549.6551724137931,227.87481804949053 C556.1839080459771,224.53663270257155 567.6091954022988,218.3939835031538 574.1379310344828,212.882096069869 C580.6666666666667,207.37020863658418 592.0919540229885,192.8432799611839 598.6206896551724,186.53566229985444 C605.1494252873564,180.22804463852498 616.5747126436781,173.43522561863173 623.1034482758621,165.5749636098981 C629.632183908046,157.71470160116448 641.0574712643678,134.22125181950508 647.5862068965517,127.58369723435226 C654.1149425287357,120.94614264919942 665.5402298850574,119.07326540514313 672.0689655172414,115.79330422125182 C678.5977011494253,112.5133430373605 690.0229885057471,105.8951965065502 696.551724137931,102.98398835516738 C703.080459770115,100.07278020378456 714.5057471264367,96.55992236778263 721.0344827586207,93.95924308588064 C727.5632183908046,91.35856380397865 738.9885057471264,85.69141193595344 745.5172413793103,83.47889374090249 C752.0459770114943,81.26637554585155 766.735632183908,78.18049490538574 770,77.36535662299855" fill="none" stroke="#6b63ff" stroke-width="2.5" class="data-line-0" />
  <g class="points">
    
    <circle cx="60" cy="349.8544395924309" r="4" fill="#6b63ff" class="data-point" style="animation-delay: 1.50s" />
    <circle cx="84.48275862068965" cy="349.2721979621543" r="4" fill="#6b63ff" class="data-point" style="animation-delay: 1.55s" />
    <circle cx="108.9655172413793" cy="348.2532751091703" r="4" fill="#6b63ff" class="data-point" style="animation-delay: 1.60s" />
    <circle cx="133.44827586206895" cy="346.65211062590976" r="4" fill="#6b63ff" class="data-point" style="animation-delay: 1.65s" />
    <circle cx="157.9310344827586" cy="345.7787481804949" r="4" fill="#6b63ff" class="data-point" style="animation-delay: 1.70s" />
    <circle cx="182.41379310344828" cy="343.74090247452693" r="4" fill="#6b63ff" class="data-point" style="animation-delay: 1.75s" />
    <circle cx="206.89655172413794" cy="341.41193595342065" r="4" fill="#6b63ff" class="data-point" style="animation-delay: 1.80s" />
    <circle cx="231.3793103448276" cy="338.0640465793304" r="4" fill="#6b63ff" class="data-point" style="animation-delay: 1.85s" />
    <circle cx="255.86206896551724" cy="327.87481804949056" r="4" fill="#6b63ff" class="data-point" style="animation-delay: 1.90s" />
    <circle cx="280.34482758620686" cy="319.72343522561863" r="4" fill="#6b63ff" class="data-point" style="animation-delay: 1.95s" />
    <circle cx="304.82758620689657" cy="309.9708879184862" r="4" fill="#6b63ff" class="data-point" style="animation-delay: 2.00s" />
    <circle cx="329.3103448275862" cy="305.31295487627364" r="4" fill="#6b63ff" class="data-point" style="animation-delay: 2.05s" />
    <circle cx="353.7931034482759" cy="298.90829694323145" r="4" fill="#6b63ff" class="data-point" style="animation-delay: 2.10s" />
    <circle cx="378.2758620689655" cy="291.19359534206694" r="4" fill="#6b63ff" class="data-point" style="animation-delay: 2.15s" />
    <circle cx="402.7586206896552" cy="285.9534206695779" r="4" fill="#6b63ff" class="data-point" style="animation-delay: 2.20s" />
    <circle cx="427.2413793103448" cy="275.9097525473071" r="4" fill="#6b63ff" class="data-point" style="animation-delay: 2.25s" />
    <circle cx="451.7241379310345" cy="268.04949053857354" r="4" fill="#6b63ff" class="data-point" style="animation-delay: 2.30s" />
    <circle cx="476.2068965517241" cy="262.2270742358079" r="4" fill="#6b63ff" class="data-point" style="animation-delay: 2.35s" />
    <circle cx="500.6896551724138" cy="251.60116448326056" r="4" fill="#6b63ff" class="data-point" style="animation-delay: 2.40s" />
    <circle cx="525.1724137931035" cy="237.9184861717613" r="4" fill="#6b63ff" class="data-point" style="animation-delay: 2.45s" />
    <circle cx="549.6551724137931" cy="227.87481804949053" r="4" fill="#6b63ff" class="data-point" style="animation-delay: 2.50s" />
    <circle cx="574.1379310344828" cy="212.882096069869" r="4" fill="#6b63ff" class="data-point" style="animation-delay: 2.55s" />
    <circle cx="598.6206896551724" cy="186.53566229985444" r="4" fill="#6b63ff" class="data-point" style="animation-delay: 2.60s" />
    <circle cx="623.1034482758621" cy="165.5749636098981" r="4" fill="#6b63ff" class="data-point" style="animation-delay: 2.65s" />
    <circle cx="647.5862068965517" cy="127.58369723435226" r="4" fill="#6b63ff" class="data-point" style="animation-delay: 2.70s" />
    <circle cx="672.0689655172414" cy="115.79330422125182" r="4" fill="#6b63ff" class="data-point" style="animation-delay: 2.75s" />
    <circle cx="696.551724137931" cy="102.98398835516738" r="4" fill="#6b63ff" class="data-point" style="animation-delay: 2.80s" />
    <circle cx="721.0344827586207" cy="93.95924308588064" r="4" fill="#6b63ff" class="data-point" style="animation-delay: 2.85s" />
    <circle cx="745.5172413793103" cy="83.47889374090249" r="4" fill="#6b63ff" class="data-point" style="animation-delay: 2.90s" />
    <circle cx="770" cy="77.36535662299855" r="4" fill="#6b63ff" class="data-point" style="animation-delay: 2.95s" />
  </g>
</svg>