<svg xmlns="http://www.w3.org/2000/svg" viewBox="0 0 800 400" width="800" height="400">
  <style>
    @keyframes drawLine {
      to { stroke-dashoffset: 0; }
    }
    @keyframes fadeInPoint {
      from { opacity: 0; }
      to { opacity: 1; }
    }
    .data-line-0 {
      stroke-dasharray: 1178;
      stroke-dashoffset: 1178;
      animation: drawLine 2s ease-out forwards;
    }
    .data-point {
      opacity: 0;
      animation: fadeInPoint 0.5s ease-out forwards;
    }
    .chart-bg { fill: #fff; }
    .chart-text { fill: #24292e; }
    .chart-muted { fill: #6a737d; }
    .chart-grid { stroke: #eee; }
    .chart-axis { stroke: #6a737d; }
    @media (prefers-color-scheme: dark) {
      .chart-bg { fill: #0d1117; }
      .chart-text { fill: #e6edf3; }
      .chart-muted { fill: #8b949e; }
      .chart-grid { stroke: #21262d; }
      .chart-axis { stroke: #8b949e; }
    }
  </style>
  <rect width="800" height="400" class="chart-bg" />
  <text x="400" y="14" text-anchor="middle" class="chart-text" font-size="16" font-weight="bold" font-family="-apple-system, BlinkMacSystemFont, 'Segoe UI', Helvetica, Arial, sans-serif">qemus/qemu Star History</text>
  
  <g class="grid">
    <line x1="60" y1="350" x2="770" y2="350" class="chart-grid" stroke-opacity="0.3" />
    <text x="778" y="354" text-anchor="start" class="chart-muted" font-size="11" font-family="-apple-system, BlinkMacSystemFont, 'Segoe UI', Helvetica, Arial, sans-serif">0</text>
    <line x1="60" y1="277.3959341723137" x2="770" y2="277.3959341723137" class="chart-grid" stroke-opacity="0.3" />
    <text x="778" y="281.3959341723137" text-anchor="start" class="chart-muted" font-size="11" font-family="-apple-system, BlinkMacSystemFont, 'Segoe UI', Helvetica, Arial, sans-serif">500</text>
    <line x1="60" y1="204.7918683446273" x2="770" y2="204.7918683446273" class="chart-grid" stroke-opacity="0.3" />
    <text x="778" y="208.7918683446273" text-anchor="start" class="chart-muted" font-size="11" font-family="-apple-system, BlinkMacSystemFont, 'Segoe UI', Helvetica, Arial, sans-serif">1K</text>
    <line x1="60" y1="132.18780251694096" x2="770" y2="132.18780251694096" class="chart-grid" stroke-opacity="0.3" />
    <text x="778" y="136.18780251694096" text-anchor="start" class="chart-muted" font-size="11" font-family="-apple-system, BlinkMacSystemFont, 'Segoe UI', Helvetica, Arial, sans-serif">1.5K</text>
    <line x1="60" y1="59.58373668925458" x2="770" y2="59.58373668925458" class="chart-grid" stroke-opacity="0.3" />
    <text x="778" y="63.58373668925458" text-anchor="start" class="chart-muted" font-size="11" font-family="-apple-system, BlinkMacSystemFont, 'Segoe UI', Helvetica, Arial, sans-serif">2K</text>
  </g>
  <g class="milestones">
    
  </g>
  <g class="x-axis">
    <text x="60" y="370" text-anchor="middle" class="chart-muted" font-size="11" font-family="-apple-system, BlinkMacSystemFont, 'Segoe UI', Helvetica, Arial, sans-serif">2023</text>
    <text x="231.3793103448276" y="370" text-anchor="middle" class="chart-muted" font-size="11" font-family="-apple-system, BlinkMacSystemFont, 'Segoe UI', Helvetica, Arial, sans-serif">2024</text>
    <text x="451.7241379310345" y="370" text-anchor="middle" class="chart-muted" font-size="11" font-family="-apple-system, BlinkMacSystemFont, 'Segoe UI', Helvetica, Arial, sans-serif">2025</text>
    <text x="672.0689655172414" y="370" text-anchor="middle" class="chart-muted" font-size="11" font-family="-apple-system, BlinkMacSystemFont, 'Segoe UI', Helvetica, Arial, sans-serif">2026</text>
  </g>
  <line x1="770" y1="50" x2="770" y2="350" class="chart-axis" stroke-width="1" />
  <line x1="60" y1="350" x2="770" y2="350" class="chart-axis" stroke-width="1" />
  <path d="M60,350 L60,349.85479186834465 C63.264367816091955,349.77734753146177 77.95402298850574,349.486931268151 84.48275862068965,349.2739593417231 C91.01149425287356,349.06098741529524 102.43678160919539,348.60600193610844 108.9655172413793,348.25750242013555 C115.49425287356321,347.90900290416266 126.91954022988504,346.98935140367865 133.44827586206895,346.66021297192646 C139.97701149425285,346.33107454017426 151.40229885057468,346.1761858664085 157.9310344827586,345.7889641819942 C164.45977011494253,345.40174249757985 175.88505747126436,344.33688286544043 182.41379310344828,343.75605033881897 C188.9425287356322,343.1752178121975 200.36781609195404,342.1878025169409 206.89655172413794,341.432720232333 C213.42528735632183,340.6776379477251 224.8505747126437,339.9128751210068 231.3793103448276,338.09293320425945 C237.90804597701148,336.2729912875121 249.33333333333334,330.2226524685383 255.86206896551724,327.783155856728 C262.39080459770116,325.3436592449177 273.81609195402297,322.1974830590513 280.34482758620686,319.79670861568246 C286.87356321839076,317.3959341723136 298.2988505747127,311.69409486931266 304.82758620689657,309.77734753146177 C311.35632183908046,307.8606001936109 322.7816091954023,306.87318489835434 329.3103448275862,305.4211035818006 C335.8390804597701,303.96902226524685 347.264367816092,300.7647628267183 353.7931034482759,298.8867376573088 C360.32183908045977,297.0087124878993 371.7471264367816,293.0784123910939 378.2758620689655,291.33591481122943 C384.8045977011494,289.593417231365 396.2298850574713,287.8702807357212 402.7586206896552,285.81800580832527 C409.28735632183907,283.7657308809293 420.71264367816093,278.30590513068734 427.2413793103448,275.9438528557599 C433.7701149425287,273.5818005808325 445.1954022988506,269.9225556631171 451.7241379310345,268.1026137463698 C458.2528735632184,266.2826718296225 469.67816091954023,264.48209099709584 476.2068965517241,262.2942884801549 C482.735632183908,260.1064859632139 494.1609195402299,254.98547918683445 500.6896551724138,251.69409486931266 C507.2183908045977,248.40271055179088 518.6436781609195,240.91965150048404 525.1724137931035,237.60890609874153 C531.7011494252874,234.29816069699902 543.1264367816092,230.1161665053243 549.6551724137931,226.86350435624394 C556.1839080459771,223.61084220716359 567.6091954022988,218.6544046466602 574.1379310344828,213.2139399806389 C580.6666666666667,207.77347531461763 592.0919540229885,192.39109390125847 598.6206896551724,186.06001936108422 C605.1494252873564,179.72894482090996 616.5747126436781,173.53339787028074 623.1034482758621,165.73088092933205 C629.632183908046,157.92836398838335 641.0574712643678,134.162633107454 647.5862068965517,127.54114230396902 C654.1149425287357,120.91965150048404 665.5402298850574,119.32236205227494 672.0689655172414,116.06969990319459 C678.5977011494253,112.81703775411424 690.0229885057471,106.03097773475315 696.551724137931,103.14617618586641 C703.080459770115,100.26137463697967 714.5057471264367,97.02807357212005 721.0344827586207,94.43368828654405 C727.5632183908046,91.83930300096806 738.9885057471264,85.97289448209102 745.5172413793103,83.68828654404649 C752.0459770114943,81.40367860600196 766.735632183908,78.15101645692162 770,77.2991287512101 L770,350 L60,350 Z" fill="#6b63ff" fill-opacity="0.1" />
  <path d="M60,350 L60,349.85479186834465 C63.264367816091955,349.77734753146177 77.95402298850574,349.486931268151 84.48275862068965,349.2739593417231 C91.01149425287356,349.06098741529524 102.43678160919539,348.60600193610844 108.9655172413793,348.25750242013555 C115.49425287356321,347.90900290416266 126.91954022988504,346.98935140367865 133.44827586206895,346.66021297192646 C139.97701149425285,346.33107454017426 151.40229885057468,346.1761858664085 157.9310344827586,345.7889641819942 C164.45977011494253,345.40174249757985 175.88505747126436,344.33688286544043 182.41379310344828,343.75605033881897 C188.9425287356322,343.1752178121975 200.36781609195404,342.1878025169409 206.89655172413794,341.432720232333 C213.42528735632183,340.6776379477251 224.8505747126437,339.9128751210068 231.3793103448276,338.09293320425945 C237.90804597701148,336.2729912875121 249.33333333333334,330.2226524685383 255.86206896551724,327.783155856728 C262.39080459770116,325.3436592449177 273.81609195402297,322.1974830590513 280.34482758620686,319.79670861568246 C286.87356321839076,317.3959341723136 298.2988505747127,311.69409486931266 304.82758620689657,309.77734753146177 C311.35632183908046,307.8606001936109 322.7816091954023,306.87318489835434 329.3103448275862,305.4211035818006 C335.8390804597701,303.96902226524685 347.264367816092,300.7647628267183 353.7931034482759,298.8867376573088 C360.32183908045977,297.0087124878993 371.7471264367816,293.0784123910939 378.2758620689655,291.33591481122943 C384.8045977011494,289.593417231365 396.2298850574713,287.8702807357212 402.7586206896552,285.81800580832527 C409.28735632183907,283.7657308809293 420.71264367816093,278.30590513068734 427.2413793103448,275.9438528557599 C433.7701149425287,273.5818005808325 445.1954022988506,269.9225556631171 451.7241379310345,268.1026137463698 C458.2528735632184,266.2826718296225 469.67816091954023,264.48209099709584 476.2068965517241,262.2942884801549 C482.735632183908,260.1064859632139 494.1609195402299,254.98547918683445 500.6896551724138,251.69409486931266 C507.2183908045977,248.40271055179088 518.6436781609195,240.91965150048404 525.1724137931035,237.60890609874153 C531.7011494252874,234.29816069699902 543.1264367816092,230.1161665053243 549.6551724137931,226.86350435624394 C556.1839080459771,223.61084220716359 567.6091954022988,218.6544046466602 574.1379310344828,213.2139399806389 C580.6666666666667,207.77347531461763 592.0919540229885,192.39109390125847 598.6206896551724,186.06001936108422 C605.1494252873564,179.72894482090996 616.5747126436781,173.53339787028074 623.1034482758621,165.73088092933205 C629.632183908046,157.92836398838335 641.0574712643678,134.162633107454 647.5862068965517,127.54114230396902 C654.1149425287357,120.91965150048404 665.5402298850574,119.32236205227494 672.0689655172414,116.06969990319459 C678.5977011494253,112.81703775411424 690.0229885057471,106.03097773475315 696.551724137931,103.14617618586641 C703.080459770115,100.26137463697967 714.5057471264367,97.02807357212005 721.0344827586207,94.43368828654405 C727.5632183908046,91.83930300096806 738.9885057471264,85.97289448209102 745.5172413793103,83.68828654404649 C752.0459770114943,81.40367860600196 766.735632183908,78.15101645692162 770,77.2991287512101" fill="none" stroke="#6b63ff" stroke-width="2.5" class="data-line-0" />
  <g class="points">
    
    <circle cx="60" cy="349.85479186834465" r="4" fill="#6b63ff" class="data-point" style="animation-delay: 1.50s" />
    <circle cx="84.48275862068965" cy="349.2739593417231" r="4" fill="#6b63ff" class="data-point" style="animation-delay: 1.55s" />
    <circle cx="108.9655172413793" cy="348.25750242013555" r="4" fill="#6b63ff" class="data-point" style="animation-delay: 1.60s" />
    <circle cx="133.44827586206895" cy="346.66021297192646" r="4" fill="#6b63ff" class="data-point" style="animation-delay: 1.65s" />
    <circle cx="157.9310344827586" cy="345.7889641819942" r="4" fill="#6b63ff" class="data-point" style="animation-delay: 1.70s" />
    <circle cx="182.41379310344828" cy="343.75605033881897" r="4" fill="#6b63ff" class="data-point" style="animation-delay: 1.75s" />
    <circle cx="206.89655172413794" cy="341.432720232333" r="4" fill="#6b63ff" class="data-point" style="animation-delay: 1.80s" />
    <circle cx="231.3793103448276" cy="338.09293320425945" r="4" fill="#6b63ff" class="data-point" style="animation-delay: 1.85s" />
    <circle cx="255.86206896551724" cy="327.783155856728" r="4" fill="#6b63ff" class="data-point" style="animation-delay: 1.90s" />
    <circle cx="280.34482758620686" cy="319.79670861568246" r="4" fill="#6b63ff" class="data-point" style="animation-delay: 1.95s" />
    <circle cx="304.82758620689657" cy="309.77734753146177" r="4" fill="#6b63ff" class="data-point" style="animation-delay: 2.00s" />
    <circle cx="329.3103448275862" cy="305.4211035818006" r="4" fill="#6b63ff" class="data-point" style="animation-delay: 2.05s" />
    <circle cx="353.7931034482759" cy="298.8867376573088" r="4" fill="#6b63ff" class="data-point" style="animation-delay: 2.10s" />
    <circle cx="378.2758620689655" cy="291.33591481122943" r="4" fill="#6b63ff" class="data-point" style="animation-delay: 2.15s" />
    <circle cx="402.7586206896552" cy="285.81800580832527" r="4" fill="#6b63ff" class="data-point" style="animation-delay: 2.20s" />
    <circle cx="427.2413793103448" cy="275.9438528557599" r="4" fill="#6b63ff" class="data-point" style="animation-delay: 2.25s" />
    <circle cx="451.7241379310345" cy="268.1026137463698" r="4" fill="#6b63ff" class="data-point" style="animation-delay: 2.30s" />
    <circle cx="476.2068965517241" cy="262.2942884801549" r="4" fill="#6b63ff" class="data-point" style="animation-delay: 2.35s" />
    <circle cx="500.6896551724138" cy="251.69409486931266" r="4" fill="#6b63ff" class="data-point" style="animation-delay: 2.40s" />
    <circle cx="525.1724137931035" cy="237.60890609874153" r="4" fill="#6b63ff" class="data-point" style="animation-delay: 2.45s" />
    <circle cx="549.6551724137931" cy="226.86350435624394" r="4" fill="#6b63ff" class="data-point" style="animation-delay: 2.50s" />
    <circle cx="574.1379310344828" cy="213.2139399806389" r="4" fill="#6b63ff" class="data-point" style="animation-delay: 2.55s" />
    <circle cx="598.6206896551724" cy="186.06001936108422" r="4" fill="#6b63ff" class="data-point" style="animation-delay: 2.60s" />
    <circle cx="623.1034482758621" cy="165.73088092933205" r="4" fill="#6b63ff" class="data-point" style="animation-delay: 2.65s" />
    <circle cx="647.5862068965517" cy="127.54114230396902" r="4" fill="#6b63ff" class="data-point" style="animation-delay: 2.70s" />
    <circle cx="672.0689655172414" cy="116.06969990319459" r="4" fill="#6b63ff" class="data-point" style="animation-delay: 2.75s" />
    <circle cx="696.551724137931" cy="103.14617618586641" r="4" fill="#6b63ff" class="data-point" style="animation-delay: 2.80s" />
    <circle cx="721.0344827586207" cy="94.43368828654405" r="4" fill="#6b63ff" class="data-point" style="animation-delay: 2.85s" />
    <circle cx="745.5172413793103" cy="83.68828654404649" r="4" fill="#6b63ff" class="data-point" style="animation-delay: 2.90s" />
    <circle cx="770" cy="77.2991287512101" r="4" fill="#6b63ff" class="data-point" style="animation-delay: 2.95s" />
  </g>
</svg>