<svg xmlns="http://www.w3.org/2000/svg" viewBox="0 0 800 400" width="800" height="400">
  <style>
    @keyframes drawLine {
      to { stroke-dashoffset: 0; }
    }
    @keyframes fadeInPoint {
      from { opacity: 0; }
      to { opacity: 1; }
    }
    .data-line-0 {
      stroke-dasharray: 1171;
      stroke-dashoffset: 1171;
      animation: drawLine 2s ease-out forwards;
    }
    .data-point {
      opacity: 0;
      animation: fadeInPoint 0.5s ease-out forwards;
    }
    .chart-bg { fill: #fff; }
    .chart-text { fill: #24292e; }
    .chart-muted { fill: #6a737d; }
    .chart-grid { stroke: #eee; }
    .chart-axis { stroke: #6a737d; }
    @media (prefers-color-scheme: dark) {
      .chart-bg { fill: #0d1117; }
      .chart-text { fill: #e6edf3; }
      .chart-muted { fill: #8b949e; }
      .chart-grid { stroke: #21262d; }
      .chart-axis { stroke: #8b949e; }
    }
  </style>
  <rect width="800" height="400" class="chart-bg" />
  <text x="400" y="14" text-anchor="middle" class="chart-text" font-size="16" font-weight="bold" font-family="-apple-system, BlinkMacSystemFont, 'Segoe UI', Helvetica, Arial, sans-serif">qemus/virtiso-whql Star History</text>
  
  <g class="grid">
    <line x1="60" y1="350" x2="770" y2="350" class="chart-grid" stroke-opacity="0.3" />
    <text x="778" y="354" text-anchor="start" class="chart-muted" font-size="11" font-family="-apple-system, BlinkMacSystemFont, 'Segoe UI', Helvetica, Arial, sans-serif">0</text>
    <line x1="60" y1="257.6923076923077" x2="770" y2="257.6923076923077" class="chart-grid" stroke-opacity="0.3" />
    <text x="778" y="261.6923076923077" text-anchor="start" class="chart-muted" font-size="11" font-family="-apple-system, BlinkMacSystemFont, 'Segoe UI', Helvetica, Arial, sans-serif">20</text>
    <line x1="60" y1="165.3846153846154" x2="770" y2="165.3846153846154" class="chart-grid" stroke-opacity="0.3" />
    <text x="778" y="169.3846153846154" text-anchor="start" class="chart-muted" font-size="11" font-family="-apple-system, BlinkMacSystemFont, 'Segoe UI', Helvetica, Arial, sans-serif">40</text>
    <line x1="60" y1="73.07692307692304" x2="770" y2="73.07692307692304" class="chart-grid" stroke-opacity="0.3" />
    <text x="778" y="77.07692307692304" text-anchor="start" class="chart-muted" font-size="11" font-family="-apple-system, BlinkMacSystemFont, 'Segoe UI', Helvetica, Arial, sans-serif">60</text>
  </g>
  <g class="milestones">
    
  </g>
  <g class="x-axis">
    <text x="60" y="370" text-anchor="middle" class="chart-muted" font-size="11" font-family="-apple-system, BlinkMacSystemFont, 'Segoe UI', Helvetica, Arial, sans-serif">2024</text>
    <text x="182.41379310344828" y="370" text-anchor="middle" class="chart-muted" font-size="11" font-family="-apple-system, BlinkMacSystemFont, 'Segoe UI', Helvetica, Arial, sans-serif">2025</text>
    <text x="574.1379310344828" y="370" text-anchor="middle" class="chart-muted" font-size="11" font-family="-apple-system, BlinkMacSystemFont, 'Segoe UI', Helvetica, Arial, sans-serif">2026</text>
  </g>
  <line x1="770" y1="50" x2="770" y2="350" class="chart-axis" stroke-width="1" />
  <line x1="60" y1="350" x2="770" y2="350" class="chart-axis" stroke-width="1" />
  <path d="M60,350 L60,345.38461538461536 C68.16091954022988,343.8461538461538 76.32183908045977,343.0769230769231 84.48275862068965,340.7692307692308 C92.64367816091954,338.46153846153845 100.80459770114942,334.61538461538464 108.9655172413793,331.53846153846155 C117.12643678160919,328.46153846153845 125.28735632183907,324.61538461538464 133.44827586206895,322.3076923076923 C141.60919540229884,320 149.77011494252872,319.2307692307692 157.9310344827586,317.6923076923077 C166.0919540229885,316.15384615384613 174.2528735632184,314.61538461538464 182.41379310344828,313.0769230769231 C190.57471264367817,311.53846153846155 198.73563218390805,310 206.89655172413794,308.46153846153845 C215.05747126436782,306.9230769230769 223.2183908045977,306.1538461538462 231.3793103448276,303.84615384615387 C239.54022988505747,301.53846153846155 247.70114942528735,298.4615384615385 255.86206896551724,294.61538461538464 C264.0229885057471,290.7692307692308 272.183908045977,284.61538461538464 280.34482758620686,280.7692307692308 C288.50574712643675,276.9230769230769 296.6666666666667,276.92307692307696 304.82758620689657,271.53846153846155 C312.98850574712645,266.1538461538462 321.14942528735634,248.46153846153845 329.3103448275862,248.46153846153845 C337.4712643678161,248.46153846153845 345.632183908046,248.46153846153845 353.7931034482759,248.46153846153845 C361.95402298850576,248.46153846153845 370.11494252873564,248.46153846153845 378.2758620689655,248.46153846153845 C386.4367816091954,248.46153846153845 394.5977011494253,248.46153846153845 402.7586206896552,248.46153846153845 C410.91954022988506,248.46153846153845 419.08045977011494,243.07692307692307 427.2413793103448,239.23076923076923 C435.4022988505747,235.3846153846154 443.5632183908046,231.53846153846152 451.7241379310345,225.38461538461536 C459.88505747126436,219.2307692307692 468.04597701149424,207.69230769230768 476.2068965517241,202.3076923076923 C484.367816091954,196.9230769230769 492.5287356321839,195.38461538461536 500.6896551724138,193.07692307692307 C508.85057471264366,190.76923076923077 517.0114942528736,190.7692307692308 525.1724137931035,188.46153846153848 C533.3333333333334,186.1538461538462 541.4942528735633,182.30769230769232 549.6551724137931,179.23076923076923 C557.816091954023,176.15384615384613 565.9770114942529,172.30769230769232 574.1379310344828,170 C582.2988505747127,167.69230769230768 590.4597701149426,168.46153846153845 598.6206896551724,165.3846153846154 C606.7816091954023,162.30769230769232 614.9425287356322,155.3846153846154 623.1034482758621,151.53846153846155 C631.264367816092,147.6923076923077 639.4252873563219,145.3846153846154 647.5862068965517,142.30769230769232 C655.7471264367816,139.23076923076925 663.9080459770115,135.38461538461542 672.0689655172414,133.0769230769231 C680.2298850574713,130.76923076923077 688.3908045977012,132.3076923076923 696.551724137931,128.46153846153845 C704.7126436781609,124.6153846153846 712.8735632183908,116.15384615384615 721.0344827586207,110 C729.1954022988506,103.84615384615385 737.3563218390805,96.92307692307693 745.5172413793103,91.53846153846155 C753.6781609195402,86.15384615384616 761.8390804597701,82.3076923076923 770,77.69230769230768 L770,350 L60,350 Z" fill="#6b63ff" fill-opacity="0.1" />
  <path d="M60,350 L60,345.38461538461536 C68.16091954022988,343.8461538461538 76.32183908045977,343.0769230769231 84.48275862068965,340.7692307692308 C92.64367816091954,338.46153846153845 100.80459770114942,334.61538461538464 108.9655172413793,331.53846153846155 C117.12643678160919,328.46153846153845 125.28735632183907,324.61538461538464 133.44827586206895,322.3076923076923 C141.60919540229884,320 149.77011494252872,319.2307692307692 157.9310344827586,317.6923076923077 C166.0919540229885,316.15384615384613 174.2528735632184,314.61538461538464 182.41379310344828,313.0769230769231 C190.57471264367817,311.53846153846155 198.73563218390805,310 206.89655172413794,308.46153846153845 C215.05747126436782,306.9230769230769 223.2183908045977,306.1538461538462 231.3793103448276,303.84615384615387 C239.54022988505747,301.53846153846155 247.70114942528735,298.4615384615385 255.86206896551724,294.61538461538464 C264.0229885057471,290.7692307692308 272.183908045977,284.61538461538464 280.34482758620686,280.7692307692308 C288.50574712643675,276.9230769230769 296.6666666666667,276.92307692307696 304.82758620689657,271.53846153846155 C312.98850574712645,266.1538461538462 321.14942528735634,248.46153846153845 329.3103448275862,248.46153846153845 C337.4712643678161,248.46153846153845 345.632183908046,248.46153846153845 353.7931034482759,248.46153846153845 C361.95402298850576,248.46153846153845 370.11494252873564,248.46153846153845 378.2758620689655,248.46153846153845 C386.4367816091954,248.46153846153845 394.5977011494253,248.46153846153845 402.7586206896552,248.46153846153845 C410.91954022988506,248.46153846153845 419.08045977011494,243.07692307692307 427.2413793103448,239.23076923076923 C435.4022988505747,235.3846153846154 443.5632183908046,231.53846153846152 451.7241379310345,225.38461538461536 C459.88505747126436,219.2307692307692 468.04597701149424,207.69230769230768 476.2068965517241,202.3076923076923 C484.367816091954,196.9230769230769 492.5287356321839,195.38461538461536 500.6896551724138,193.07692307692307 C508.85057471264366,190.76923076923077 517.0114942528736,190.7692307692308 525.1724137931035,188.46153846153848 C533.3333333333334,186.1538461538462 541.4942528735633,182.30769230769232 549.6551724137931,179.23076923076923 C557.816091954023,176.15384615384613 565.9770114942529,172.30769230769232 574.1379310344828,170 C582.2988505747127,167.69230769230768 590.4597701149426,168.46153846153845 598.6206896551724,165.3846153846154 C606.7816091954023,162.30769230769232 614.9425287356322,155.3846153846154 623.1034482758621,151.53846153846155 C631.264367816092,147.6923076923077 639.4252873563219,145.3846153846154 647.5862068965517,142.30769230769232 C655.7471264367816,139.23076923076925 663.9080459770115,135.38461538461542 672.0689655172414,133.0769230769231 C680.2298850574713,130.76923076923077 688.3908045977012,132.3076923076923 696.551724137931,128.46153846153845 C704.7126436781609,124.6153846153846 712.8735632183908,116.15384615384615 721.0344827586207,110 C729.1954022988506,103.84615384615385 737.3563218390805,96.92307692307693 745.5172413793103,91.53846153846155 C753.6781609195402,86.15384615384616 761.8390804597701,82.3076923076923 770,77.69230769230768" fill="none" stroke="#6b63ff" stroke-width="2.5" class="data-line-0" />
  <g class="points">
    
    <circle cx="60" cy="345.38461538461536" r="4" fill="#6b63ff" class="data-point" style="animation-delay: 1.50s" />
    <circle cx="84.48275862068965" cy="340.7692307692308" r="4" fill="#6b63ff" class="data-point" style="animation-delay: 1.55s" />
    <circle cx="108.9655172413793" cy="331.53846153846155" r="4" fill="#6b63ff" class="data-point" style="animation-delay: 1.60s" />
    <circle cx="133.44827586206895" cy="322.3076923076923" r="4" fill="#6b63ff" class="data-point" style="animation-delay: 1.65s" />
    <circle cx="157.9310344827586" cy="317.6923076923077" r="4" fill="#6b63ff" class="data-point" style="animation-delay: 1.70s" />
    <circle cx="182.41379310344828" cy="313.0769230769231" r="4" fill="#6b63ff" class="data-point" style="animation-delay: 1.75s" />
    <circle cx="206.89655172413794" cy="308.46153846153845" r="4" fill="#6b63ff" class="data-point" style="animation-delay: 1.80s" />
    <circle cx="231.3793103448276" cy="303.84615384615387" r="4" fill="#6b63ff" class="data-point" style="animation-delay: 1.85s" />
    <circle cx="255.86206896551724" cy="294.61538461538464" r="4" fill="#6b63ff" class="data-point" style="animation-delay: 1.90s" />
    <circle cx="280.34482758620686" cy="280.7692307692308" r="4" fill="#6b63ff" class="data-point" style="animation-delay: 1.95s" />
    <circle cx="304.82758620689657" cy="271.53846153846155" r="4" fill="#6b63ff" class="data-point" style="animation-delay: 2.00s" />
    <circle cx="329.3103448275862" cy="248.46153846153845" r="4" fill="#6b63ff" class="data-point" style="animation-delay: 2.05s" />
    <circle cx="353.7931034482759" cy="248.46153846153845" r="4" fill="#6b63ff" class="data-point" style="animation-delay: 2.10s" />
    <circle cx="378.2758620689655" cy="248.46153846153845" r="4" fill="#6b63ff" class="data-point" style="animation-delay: 2.15s" />
    <circle cx="402.7586206896552" cy="248.46153846153845" r="4" fill="#6b63ff" class="data-point" style="animation-delay: 2.20s" />
    <circle cx="427.2413793103448" cy="239.23076923076923" r="4" fill="#6b63ff" class="data-point" style="animation-delay: 2.25s" />
    <circle cx="451.7241379310345" cy="225.38461538461536" r="4" fill="#6b63ff" class="data-point" style="animation-delay: 2.30s" />
    <circle cx="476.2068965517241" cy="202.3076923076923" r="4" fill="#6b63ff" class="data-point" style="animation-delay: 2.35s" />
    <circle cx="500.6896551724138" cy="193.07692307692307" r="4" fill="#6b63ff" class="data-point" style="animation-delay: 2.40s" />
    <circle cx="525.1724137931035" cy="188.46153846153848" r="4" fill="#6b63ff" class="data-point" style="animation-delay: 2.45s" />
    <circle cx="549.6551724137931" cy="179.23076923076923" r="4" fill="#6b63ff" class="data-point" style="animation-delay: 2.50s" />
    <circle cx="574.1379310344828" cy="170" r="4" fill="#6b63ff" class="data-point" style="animation-delay: 2.55s" />
    <circle cx="598.6206896551724" cy="165.3846153846154" r="4" fill="#6b63ff" class="data-point" style="animation-delay: 2.60s" />
    <circle cx="623.1034482758621" cy="151.53846153846155" r="4" fill="#6b63ff" class="data-point" style="animation-delay: 2.65s" />
    <circle cx="647.5862068965517" cy="142.30769230769232" r="4" fill="#6b63ff" class="data-point" style="animation-delay: 2.70s" />
    <circle cx="672.0689655172414" cy="133.0769230769231" r="4" fill="#6b63ff" class="data-point" style="animation-delay: 2.75s" />
    <circle cx="696.551724137931" cy="128.46153846153845" r="4" fill="#6b63ff" class="data-point" style="animation-delay: 2.80s" />
    <circle cx="721.0344827586207" cy="110" r="4" fill="#6b63ff" class="data-point" style="animation-delay: 2.85s" />
    <circle cx="745.5172413793103" cy="91.53846153846155" r="4" fill="#6b63ff" class="data-point" style="animation-delay: 2.90s" />
    <circle cx="770" cy="77.69230769230768" r="4" fill="#6b63ff" class="data-point" style="animation-delay: 2.95s" />
  </g>
</svg>