<svg xmlns="http://www.w3.org/2000/svg" viewBox="0 0 800 400" width="800" height="400">
  <style>
    @keyframes drawLine {
      to { stroke-dashoffset: 0; }
    }
    @keyframes fadeInPoint {
      from { opacity: 0; }
      to { opacity: 1; }
    }
    .data-line-0 {
      stroke-dasharray: 1210;
      stroke-dashoffset: 1210;
      animation: drawLine 2s ease-out forwards;
    }
    .data-point {
      opacity: 0;
      animation: fadeInPoint 0.5s ease-out forwards;
    }
    .chart-bg { fill: #fff; }
    .chart-text { fill: #24292e; }
    .chart-muted { fill: #6a737d; }
    .chart-grid { stroke: #eee; }
    .chart-axis { stroke: #6a737d; }
    @media (prefers-color-scheme: dark) {
      .chart-bg { fill: #0d1117; }
      .chart-text { fill: #e6edf3; }
      .chart-muted { fill: #8b949e; }
      .chart-grid { stroke: #21262d; }
      .chart-axis { stroke: #8b949e; }
    }
  </style>
  <rect width="800" height="400" class="chart-bg" />
  <text x="400" y="14" text-anchor="middle" class="chart-text" font-size="16" font-weight="bold" font-family="-apple-system, BlinkMacSystemFont, 'Segoe UI', Helvetica, Arial, sans-serif">qemus/virtiso-arm Star History</text>
  
  <g class="grid">
    <line x1="60" y1="350" x2="770" y2="350" class="chart-grid" stroke-opacity="0.3" />
    <text x="778" y="354" text-anchor="start" class="chart-muted" font-size="11" font-family="-apple-system, BlinkMacSystemFont, 'Segoe UI', Helvetica, Arial, sans-serif">0</text>
    <line x1="60" y1="300" x2="770" y2="300" class="chart-grid" stroke-opacity="0.3" />
    <text x="778" y="304" text-anchor="start" class="chart-muted" font-size="11" font-family="-apple-system, BlinkMacSystemFont, 'Segoe UI', Helvetica, Arial, sans-serif">5</text>
    <line x1="60" y1="250" x2="770" y2="250" class="chart-grid" stroke-opacity="0.3" />
    <text x="778" y="254" text-anchor="start" class="chart-muted" font-size="11" font-family="-apple-system, BlinkMacSystemFont, 'Segoe UI', Helvetica, Arial, sans-serif">10</text>
    <line x1="60" y1="200" x2="770" y2="200" class="chart-grid" stroke-opacity="0.3" />
    <text x="778" y="204" text-anchor="start" class="chart-muted" font-size="11" font-family="-apple-system, BlinkMacSystemFont, 'Segoe UI', Helvetica, Arial, sans-serif">15</text>
    <line x1="60" y1="150" x2="770" y2="150" class="chart-grid" stroke-opacity="0.3" />
    <text x="778" y="154" text-anchor="start" class="chart-muted" font-size="11" font-family="-apple-system, BlinkMacSystemFont, 'Segoe UI', Helvetica, Arial, sans-serif">20</text>
    <line x1="60" y1="100" x2="770" y2="100" class="chart-grid" stroke-opacity="0.3" />
    <text x="778" y="104" text-anchor="start" class="chart-muted" font-size="11" font-family="-apple-system, BlinkMacSystemFont, 'Segoe UI', Helvetica, Arial, sans-serif">25</text>
    <line x1="60" y1="50" x2="770" y2="50" class="chart-grid" stroke-opacity="0.3" />
    <text x="778" y="54" text-anchor="start" class="chart-muted" font-size="11" font-family="-apple-system, BlinkMacSystemFont, 'Segoe UI', Helvetica, Arial, sans-serif">30</text>
  </g>
  <g class="milestones">
    
  </g>
  <g class="x-axis">
    <text x="60" y="370" text-anchor="middle" class="chart-muted" font-size="11" font-family="-apple-system, BlinkMacSystemFont, 'Segoe UI', Helvetica, Arial, sans-serif">2024</text>
    <text x="304.82758620689657" y="370" text-anchor="middle" class="chart-muted" font-size="11" font-family="-apple-system, BlinkMacSystemFont, 'Segoe UI', Helvetica, Arial, sans-serif">2025</text>
    <text x="623.1034482758621" y="370" text-anchor="middle" class="chart-muted" font-size="11" font-family="-apple-system, BlinkMacSystemFont, 'Segoe UI', Helvetica, Arial, sans-serif">2026</text>
  </g>
  <line x1="770" y1="50" x2="770" y2="350" class="chart-axis" stroke-width="1" />
  <line x1="60" y1="350" x2="770" y2="350" class="chart-axis" stroke-width="1" />
  <path d="M60,350 L60,340 C63.264367816091955,338.6666666666667 77.95402298850574,331.3333333333333 84.48275862068965,330 C91.01149425287356,330 102.43678160919539,330 108.9655172413793,330 C115.49425287356321,330 126.91954022988504,330 133.44827586206895,330 C139.97701149425285,330 151.40229885057468,330 157.9310344827586,330 C164.45977011494253,330 175.88505747126436,330 182.41379310344828,330 C188.9425287356322,330 200.36781609195404,330 206.89655172413794,330 C213.42528735632183,328.6666666666667 224.8505747126437,321.3333333333333 231.3793103448276,320 C237.90804597701148,320 249.33333333333334,320 255.86206896551724,320 C262.39080459770116,320 273.81609195402297,320 280.34482758620686,320 C286.87356321839076,320 298.2988505747127,320 304.82758620689657,320 C311.35632183908046,320 322.7816091954023,320 329.3103448275862,320 C335.8390804597701,320 347.264367816092,320 353.7931034482759,320 C360.32183908045977,317.3333333333333 371.7471264367816,305.3333333333333 378.2758620689655,300 C384.8045977011494,294.6666666666667 396.2298850574713,282.6666666666667 402.7586206896552,280 C409.28735632183907,280 420.71264367816093,280 427.2413793103448,280 C433.7701149425287,280 445.1954022988506,280 451.7241379310345,280 C458.2528735632184,278.6666666666667 469.67816091954023,274 476.2068965517241,270 C482.735632183908,266 494.1609195402299,256.6666666666667 500.6896551724138,250 C507.2183908045977,243.33333333333334 518.6436781609195,224 525.1724137931035,220 C531.7011494252874,220 543.1264367816092,220 549.6551724137931,220 C556.1839080459771,217.33333333333334 567.6091954022988,204 574.1379310344828,200 C580.6666666666667,196 592.0919540229885,196.66666666666666 598.6206896551724,190 C605.1494252873564,183.33333333333334 616.5747126436781,156.66666666666666 623.1034482758621,150 C629.632183908046,143.33333333333334 641.0574712643678,142.66666666666666 647.5862068965517,140 C654.1149425287357,137.33333333333334 665.5402298850574,131.33333333333337 672.0689655172414,130.00000000000003 C678.5977011494253,130.00000000000003 690.0229885057471,130.00000000000003 696.551724137931,130.00000000000003 C703.080459770115,128.66666666666669 714.5057471264367,123.99999999999997 721.0344827586207,119.99999999999997 C727.5632183908046,115.99999999999997 738.9885057471264,102.66666666666666 745.5172413793103,100 C752.0459770114943,100 766.735632183908,100 770,100 L770,350 L60,350 Z" fill="#6b63ff" fill-opacity="0.1" />
  <path d="M60,350 L60,340 C63.264367816091955,338.6666666666667 77.95402298850574,331.3333333333333 84.48275862068965,330 C91.01149425287356,330 102.43678160919539,330 108.9655172413793,330 C115.49425287356321,330 126.91954022988504,330 133.44827586206895,330 C139.97701149425285,330 151.40229885057468,330 157.9310344827586,330 C164.45977011494253,330 175.88505747126436,330 182.41379310344828,330 C188.9425287356322,330 200.36781609195404,330 206.89655172413794,330 C213.42528735632183,328.6666666666667 224.8505747126437,321.3333333333333 231.3793103448276,320 C237.90804597701148,320 249.33333333333334,320 255.86206896551724,320 C262.39080459770116,320 273.81609195402297,320 280.34482758620686,320 C286.87356321839076,320 298.2988505747127,320 304.82758620689657,320 C311.35632183908046,320 322.7816091954023,320 329.3103448275862,320 C335.8390804597701,320 347.264367816092,320 353.7931034482759,320 C360.32183908045977,317.3333333333333 371.7471264367816,305.3333333333333 378.2758620689655,300 C384.8045977011494,294.6666666666667 396.2298850574713,282.6666666666667 402.7586206896552,280 C409.28735632183907,280 420.71264367816093,280 427.2413793103448,280 C433.7701149425287,280 445.1954022988506,280 451.7241379310345,280 C458.2528735632184,278.6666666666667 469.67816091954023,274 476.2068965517241,270 C482.735632183908,266 494.1609195402299,256.6666666666667 500.6896551724138,250 C507.2183908045977,243.33333333333334 518.6436781609195,224 525.1724137931035,220 C531.7011494252874,220 543.1264367816092,220 549.6551724137931,220 C556.1839080459771,217.33333333333334 567.6091954022988,204 574.1379310344828,200 C580.6666666666667,196 592.0919540229885,196.66666666666666 598.6206896551724,190 C605.1494252873564,183.33333333333334 616.5747126436781,156.66666666666666 623.1034482758621,150 C629.632183908046,143.33333333333334 641.0574712643678,142.66666666666666 647.5862068965517,140 C654.1149425287357,137.33333333333334 665.5402298850574,131.33333333333337 672.0689655172414,130.00000000000003 C678.5977011494253,130.00000000000003 690.0229885057471,130.00000000000003 696.551724137931,130.00000000000003 C703.080459770115,128.66666666666669 714.5057471264367,123.99999999999997 721.0344827586207,119.99999999999997 C727.5632183908046,115.99999999999997 738.9885057471264,102.66666666666666 745.5172413793103,100 C752.0459770114943,100 766.735632183908,100 770,100" fill="none" stroke="#6b63ff" stroke-width="2.5" class="data-line-0" />
  <g class="points">
    
    <circle cx="60" cy="340" r="4" fill="#6b63ff" class="data-point" style="animation-delay: 1.50s" />
    <circle cx="84.48275862068965" cy="330" r="4" fill="#6b63ff" class="data-point" style="animation-delay: 1.55s" />
    <circle cx="108.9655172413793" cy="330" r="4" fill="#6b63ff" class="data-point" style="animation-delay: 1.60s" />
    <circle cx="133.44827586206895" cy="330" r="4" fill="#6b63ff" class="data-point" style="animation-delay: 1.65s" />
    <circle cx="157.9310344827586" cy="330" r="4" fill="#6b63ff" class="data-point" style="animation-delay: 1.70s" />
    <circle cx="182.41379310344828" cy="330" r="4" fill="#6b63ff" class="data-point" style="animation-delay: 1.75s" />
    <circle cx="206.89655172413794" cy="330" r="4" fill="#6b63ff" class="data-point" style="animation-delay: 1.80s" />
    <circle cx="231.3793103448276" cy="320" r="4" fill="#6b63ff" class="data-point" style="animation-delay: 1.85s" />
    <circle cx="255.86206896551724" cy="320" r="4" fill="#6b63ff" class="data-point" style="animation-delay: 1.90s" />
    <circle cx="280.34482758620686" cy="320" r="4" fill="#6b63ff" class="data-point" style="animation-delay: 1.95s" />
    <circle cx="304.82758620689657" cy="320" r="4" fill="#6b63ff" class="data-point" style="animation-delay: 2.00s" />
    <circle cx="329.3103448275862" cy="320" r="4" fill="#6b63ff" class="data-point" style="animation-delay: 2.05s" />
    <circle cx="353.7931034482759" cy="320" r="4" fill="#6b63ff" class="data-point" style="animation-delay: 2.10s" />
    <circle cx="378.2758620689655" cy="300" r="4" fill="#6b63ff" class="data-point" style="animation-delay: 2.15s" />
    <circle cx="402.7586206896552" cy="280" r="4" fill="#6b63ff" class="data-point" style="animation-delay: 2.20s" />
    <circle cx="427.2413793103448" cy="280" r="4" fill="#6b63ff" class="data-point" style="animation-delay: 2.25s" />
    <circle cx="451.7241379310345" cy="280" r="4" fill="#6b63ff" class="data-point" style="animation-delay: 2.30s" />
    <circle cx="476.2068965517241" cy="270" r="4" fill="#6b63ff" class="data-point" style="animation-delay: 2.35s" />
    <circle cx="500.6896551724138" cy="250" r="4" fill="#6b63ff" class="data-point" style="animation-delay: 2.40s" />
    <circle cx="525.1724137931035" cy="220" r="4" fill="#6b63ff" class="data-point" style="animation-delay: 2.45s" />
    <circle cx="549.6551724137931" cy="220" r="4" fill="#6b63ff" class="data-point" style="animation-delay: 2.50s" />
    <circle cx="574.1379310344828" cy="200" r="4" fill="#6b63ff" class="data-point" style="animation-delay: 2.55s" />
    <circle cx="598.6206896551724" cy="190" r="4" fill="#6b63ff" class="data-point" style="animation-delay: 2.60s" />
    <circle cx="623.1034482758621" cy="150" r="4" fill="#6b63ff" class="data-point" style="animation-delay: 2.65s" />
    <circle cx="647.5862068965517" cy="140" r="4" fill="#6b63ff" class="data-point" style="animation-delay: 2.70s" />
    <circle cx="672.0689655172414" cy="130.00000000000003" r="4" fill="#6b63ff" class="data-point" style="animation-delay: 2.75s" />
    <circle cx="696.551724137931" cy="130.00000000000003" r="4" fill="#6b63ff" class="data-point" style="animation-delay: 2.80s" />
    <circle cx="721.0344827586207" cy="119.99999999999997" r="4" fill="#6b63ff" class="data-point" style="animation-delay: 2.85s" />
    <circle cx="745.5172413793103" cy="100" r="4" fill="#6b63ff" class="data-point" style="animation-delay: 2.90s" />
    <circle cx="770" cy="100" r="4" fill="#6b63ff" class="data-point" style="animation-delay: 2.95s" />
  </g>
</svg>