<svg xmlns="http://www.w3.org/2000/svg" viewBox="0 0 800 400" width="800" height="400">
  <style>
    @keyframes drawLine {
      to { stroke-dashoffset: 0; }
    }
    @keyframes fadeInPoint {
      from { opacity: 0; }
      to { opacity: 1; }
    }
    .data-line-0 {
      stroke-dasharray: 1369;
      stroke-dashoffset: 1369;
      animation: drawLine 2s ease-out forwards;
    }
    .data-point {
      opacity: 0;
      animation: fadeInPoint 0.5s ease-out forwards;
    }
    .chart-bg { fill: #fff; }
    .chart-text { fill: #24292e; }
    .chart-muted { fill: #6a737d; }
    .chart-grid { stroke: #eee; }
    .chart-axis { stroke: #6a737d; }
    @media (prefers-color-scheme: dark) {
      .chart-bg { fill: #0d1117; }
      .chart-text { fill: #e6edf3; }
      .chart-muted { fill: #8b949e; }
      .chart-grid { stroke: #21262d; }
      .chart-axis { stroke: #8b949e; }
    }
  </style>
  <rect width="800" height="400" class="chart-bg" />
  <text x="400" y="14" text-anchor="middle" class="chart-text" font-size="16" font-weight="bold" font-family="-apple-system, BlinkMacSystemFont, 'Segoe UI', Helvetica, Arial, sans-serif">qemus/proxmox Star History</text>
  
  <g class="grid">
    <line x1="60" y1="350" x2="770" y2="350" class="chart-grid" stroke-opacity="0.3" />
    <text x="778" y="354" text-anchor="start" class="chart-muted" font-size="11" font-family="-apple-system, BlinkMacSystemFont, 'Segoe UI', Helvetica, Arial, sans-serif">0</text>
    <line x1="60" y1="275" x2="770" y2="275" class="chart-grid" stroke-opacity="0.3" />
    <text x="778" y="279" text-anchor="start" class="chart-muted" font-size="11" font-family="-apple-system, BlinkMacSystemFont, 'Segoe UI', Helvetica, Arial, sans-serif">1</text>
    <line x1="60" y1="200" x2="770" y2="200" class="chart-grid" stroke-opacity="0.3" />
    <text x="778" y="204" text-anchor="start" class="chart-muted" font-size="11" font-family="-apple-system, BlinkMacSystemFont, 'Segoe UI', Helvetica, Arial, sans-serif">2</text>
    <line x1="60" y1="125" x2="770" y2="125" class="chart-grid" stroke-opacity="0.3" />
    <text x="778" y="129" text-anchor="start" class="chart-muted" font-size="11" font-family="-apple-system, BlinkMacSystemFont, 'Segoe UI', Helvetica, Arial, sans-serif">3</text>
    <line x1="60" y1="50" x2="770" y2="50" class="chart-grid" stroke-opacity="0.3" />
    <text x="778" y="54" text-anchor="start" class="chart-muted" font-size="11" font-family="-apple-system, BlinkMacSystemFont, 'Segoe UI', Helvetica, Arial, sans-serif">4</text>
  </g>
  <g class="milestones">
    
  </g>
  <g class="x-axis">
    <text x="60" y="370" text-anchor="middle" class="chart-muted" font-size="11" font-family="-apple-system, BlinkMacSystemFont, 'Segoe UI', Helvetica, Arial, sans-serif">Jun 9</text>
    <text x="133.44827586206895" y="370" text-anchor="middle" class="chart-muted" font-size="11" font-family="-apple-system, BlinkMacSystemFont, 'Segoe UI', Helvetica, Arial, sans-serif">Jun 11</text>
    <text x="206.89655172413794" y="370" text-anchor="middle" class="chart-muted" font-size="11" font-family="-apple-system, BlinkMacSystemFont, 'Segoe UI', Helvetica, Arial, sans-serif">Jun 13</text>
    <text x="280.34482758620686" y="370" text-anchor="middle" class="chart-muted" font-size="11" font-family="-apple-system, BlinkMacSystemFont, 'Segoe UI', Helvetica, Arial, sans-serif">Jun 14</text>
    <text x="353.7931034482759" y="370" text-anchor="middle" class="chart-muted" font-size="11" font-family="-apple-system, BlinkMacSystemFont, 'Segoe UI', Helvetica, Arial, sans-serif">Jun 16</text>
    <text x="427.2413793103448" y="370" text-anchor="middle" class="chart-muted" font-size="11" font-family="-apple-system, BlinkMacSystemFont, 'Segoe UI', Helvetica, Arial, sans-serif">Jun 18</text>
    <text x="500.6896551724138" y="370" text-anchor="middle" class="chart-muted" font-size="11" font-family="-apple-system, BlinkMacSystemFont, 'Segoe UI', Helvetica, Arial, sans-serif">Jun 20</text>
    <text x="574.1379310344828" y="370" text-anchor="middle" class="chart-muted" font-size="11" font-family="-apple-system, BlinkMacSystemFont, 'Segoe UI', Helvetica, Arial, sans-serif">Jun 22</text>
    <text x="647.5862068965517" y="370" text-anchor="middle" class="chart-muted" font-size="11" font-family="-apple-system, BlinkMacSystemFont, 'Segoe UI', Helvetica, Arial, sans-serif">Jun 24</text>
    <text x="721.0344827586207" y="370" text-anchor="middle" class="chart-muted" font-size="11" font-family="-apple-system, BlinkMacSystemFont, 'Segoe UI', Helvetica, Arial, sans-serif">Jun 25</text>
    <text x="770" y="370" text-anchor="middle" class="chart-muted" font-size="11" font-family="-apple-system, BlinkMacSystemFont, 'Segoe UI', Helvetica, Arial, sans-serif">Jun 27</text>
  </g>
  <line x1="770" y1="50" x2="770" y2="350" class="chart-axis" stroke-width="1" />
  <line x1="60" y1="350" x2="770" y2="350" class="chart-axis" stroke-width="1" />
  <path d="M60,350 L60,275 C63.264367816091955,275 77.95402298850574,275 84.48275862068965,275 C91.01149425287356,275 102.43678160919539,275 108.9655172413793,275 C115.49425287356321,275 126.91954022988504,275 133.44827586206895,275 C139.97701149425285,275 151.40229885057468,275 157.9310344827586,275 C164.45977011494253,255 175.88505747126436,145 182.41379310344828,125 C188.9425287356322,125 200.36781609195404,125 206.89655172413794,125 C213.42528735632183,125 224.8505747126437,125 231.3793103448276,125 C237.90804597701148,125 249.33333333333334,125 255.86206896551724,125 C262.39080459770116,125 273.81609195402297,125 280.34482758620686,125 C286.87356321839076,125 298.2988505747127,125 304.82758620689657,125 C311.35632183908046,125 322.7816091954023,125 329.3103448275862,125 C335.8390804597701,125 347.264367816092,125 353.7931034482759,125 C360.32183908045977,125 371.7471264367816,125 378.2758620689655,125 C384.8045977011494,125 396.2298850574713,125 402.7586206896552,125 C409.28735632183907,125 420.71264367816093,125 427.2413793103448,125 C433.7701149425287,125 445.1954022988506,125 451.7241379310345,125 C458.2528735632184,125 469.67816091954023,125 476.2068965517241,125 C482.735632183908,125 494.1609195402299,125 500.6896551724138,125 C507.2183908045977,125 518.6436781609195,125 525.1724137931035,125 C531.7011494252874,125 543.1264367816092,125 549.6551724137931,125 C556.1839080459771,125 567.6091954022988,125 574.1379310344828,125 C580.6666666666667,125 592.0919540229885,125 598.6206896551724,125 C605.1494252873564,125 616.5747126436781,125 623.1034482758621,125 C629.632183908046,125 641.0574712643678,125 647.5862068965517,125 C654.1149425287357,125 665.5402298850574,125 672.0689655172414,125 C678.5977011494253,125 690.0229885057471,125 696.551724137931,125 C703.080459770115,125 714.5057471264367,125 721.0344827586207,125 C727.5632183908046,125 738.9885057471264,125 745.5172413793103,125 C752.0459770114943,125 766.735632183908,125 770,125 L770,350 L60,350 Z" fill="#6b63ff" fill-opacity="0.1" />
  <path d="M60,350 L60,275 C63.264367816091955,275 77.95402298850574,275 84.48275862068965,275 C91.01149425287356,275 102.43678160919539,275 108.9655172413793,275 C115.49425287356321,275 126.91954022988504,275 133.44827586206895,275 C139.97701149425285,275 151.40229885057468,275 157.9310344827586,275 C164.45977011494253,255 175.88505747126436,145 182.41379310344828,125 C188.9425287356322,125 200.36781609195404,125 206.89655172413794,125 C213.42528735632183,125 224.8505747126437,125 231.3793103448276,125 C237.90804597701148,125 249.33333333333334,125 255.86206896551724,125 C262.39080459770116,125 273.81609195402297,125 280.34482758620686,125 C286.87356321839076,125 298.2988505747127,125 304.82758620689657,125 C311.35632183908046,125 322.7816091954023,125 329.3103448275862,125 C335.8390804597701,125 347.264367816092,125 353.7931034482759,125 C360.32183908045977,125 371.7471264367816,125 378.2758620689655,125 C384.8045977011494,125 396.2298850574713,125 402.7586206896552,125 C409.28735632183907,125 420.71264367816093,125 427.2413793103448,125 C433.7701149425287,125 445.1954022988506,125 451.7241379310345,125 C458.2528735632184,125 469.67816091954023,125 476.2068965517241,125 C482.735632183908,125 494.1609195402299,125 500.6896551724138,125 C507.2183908045977,125 518.6436781609195,125 525.1724137931035,125 C531.7011494252874,125 543.1264367816092,125 549.6551724137931,125 C556.1839080459771,125 567.6091954022988,125 574.1379310344828,125 C580.6666666666667,125 592.0919540229885,125 598.6206896551724,125 C605.1494252873564,125 616.5747126436781,125 623.1034482758621,125 C629.632183908046,125 641.0574712643678,125 647.5862068965517,125 C654.1149425287357,125 665.5402298850574,125 672.0689655172414,125 C678.5977011494253,125 690.0229885057471,125 696.551724137931,125 C703.080459770115,125 714.5057471264367,125 721.0344827586207,125 C727.5632183908046,125 738.9885057471264,125 745.5172413793103,125 C752.0459770114943,125 766.735632183908,125 770,125" fill="none" stroke="#6b63ff" stroke-width="2.5" class="data-line-0" />
  <g class="points">
    
    <circle cx="60" cy="275" r="4" fill="#6b63ff" class="data-point" style="animation-delay: 1.50s" />
    <circle cx="84.48275862068965" cy="275" r="4" fill="#6b63ff" class="data-point" style="animation-delay: 1.55s" />
    <circle cx="108.9655172413793" cy="275" r="4" fill="#6b63ff" class="data-point" style="animation-delay: 1.60s" />
    <circle cx="133.44827586206895" cy="275" r="4" fill="#6b63ff" class="data-point" style="animation-delay: 1.65s" />
    <circle cx="157.9310344827586" cy="275" r="4" fill="#6b63ff" class="data-point" style="animation-delay: 1.70s" />
    <circle cx="182.41379310344828" cy="125" r="4" fill="#6b63ff" class="data-point" style="animation-delay: 1.75s" />
    <circle cx="206.89655172413794" cy="125" r="4" fill="#6b63ff" class="data-point" style="animation-delay: 1.80s" />
    <circle cx="231.3793103448276" cy="125" r="4" fill="#6b63ff" class="data-point" style="animation-delay: 1.85s" />
    <circle cx="255.86206896551724" cy="125" r="4" fill="#6b63ff" class="data-point" style="animation-delay: 1.90s" />
    <circle cx="280.34482758620686" cy="125" r="4" fill="#6b63ff" class="data-point" style="animation-delay: 1.95s" />
    <circle cx="304.82758620689657" cy="125" r="4" fill="#6b63ff" class="data-point" style="animation-delay: 2.00s" />
    <circle cx="329.3103448275862" cy="125" r="4" fill="#6b63ff" class="data-point" style="animation-delay: 2.05s" />
    <circle cx="353.7931034482759" cy="125" r="4" fill="#6b63ff" class="data-point" style="animation-delay: 2.10s" />
    <circle cx="378.2758620689655" cy="125" r="4" fill="#6b63ff" class="data-point" style="animation-delay: 2.15s" />
    <circle cx="402.7586206896552" cy="125" r="4" fill="#6b63ff" class="data-point" style="animation-delay: 2.20s" />
    <circle cx="427.2413793103448" cy="125" r="4" fill="#6b63ff" class="data-point" style="animation-delay: 2.25s" />
    <circle cx="451.7241379310345" cy="125" r="4" fill="#6b63ff" class="data-point" style="animation-delay: 2.30s" />
    <circle cx="476.2068965517241" cy="125" r="4" fill="#6b63ff" class="data-point" style="animation-delay: 2.35s" />
    <circle cx="500.6896551724138" cy="125" r="4" fill="#6b63ff" class="data-point" style="animation-delay: 2.40s" />
    <circle cx="525.1724137931035" cy="125" r="4" fill="#6b63ff" class="data-point" style="animation-delay: 2.45s" />
    <circle cx="549.6551724137931" cy="125" r="4" fill="#6b63ff" class="data-point" style="animation-delay: 2.50s" />
    <circle cx="574.1379310344828" cy="125" r="4" fill="#6b63ff" class="data-point" style="animation-delay: 2.55s" />
    <circle cx="598.6206896551724" cy="125" r="4" fill="#6b63ff" class="data-point" style="animation-delay: 2.60s" />
    <circle cx="623.1034482758621" cy="125" r="4" fill="#6b63ff" class="data-point" style="animation-delay: 2.65s" />
    <circle cx="647.5862068965517" cy="125" r="4" fill="#6b63ff" class="data-point" style="animation-delay: 2.70s" />
    <circle cx="672.0689655172414" cy="125" r="4" fill="#6b63ff" class="data-point" style="animation-delay: 2.75s" />
    <circle cx="696.551724137931" cy="125" r="4" fill="#6b63ff" class="data-point" style="animation-delay: 2.80s" />
    <circle cx="721.0344827586207" cy="125" r="4" fill="#6b63ff" class="data-point" style="animation-delay: 2.85s" />
    <circle cx="745.5172413793103" cy="125" r="4" fill="#6b63ff" class="data-point" style="animation-delay: 2.90s" />
    <circle cx="770" cy="125" r="4" fill="#6b63ff" class="data-point" style="animation-delay: 2.95s" />
  </g>
</svg>