<svg xmlns="http://www.w3.org/2000/svg" viewBox="0 0 800 400" width="800" height="400">
  <style>
    @keyframes drawLine {
      to { stroke-dashoffset: 0; }
    }
    @keyframes fadeInPoint {
      from { opacity: 0; }
      to { opacity: 1; }
    }
    .data-line-0 {
      stroke-dasharray: 1201;
      stroke-dashoffset: 1201;
      animation: drawLine 2s ease-out forwards;
    }
    .data-point {
      opacity: 0;
      animation: fadeInPoint 0.5s ease-out forwards;
    }
    .chart-bg { fill: #fff; }
    .chart-text { fill: #24292e; }
    .chart-muted { fill: #6a737d; }
    .chart-grid { stroke: #eee; }
    .chart-axis { stroke: #6a737d; }
    @media (prefers-color-scheme: dark) {
      .chart-bg { fill: #0d1117; }
      .chart-text { fill: #e6edf3; }
      .chart-muted { fill: #8b949e; }
      .chart-grid { stroke: #21262d; }
      .chart-axis { stroke: #8b949e; }
    }
  </style>
  <rect width="800" height="400" class="chart-bg" />
  <text x="400" y="14" text-anchor="middle" class="chart-text" font-size="16" font-weight="bold" font-family="-apple-system, BlinkMacSystemFont, 'Segoe UI', Helvetica, Arial, sans-serif">qemus/virtiso Star History</text>
  
  <g class="grid">
    <line x1="60" y1="350" x2="770" y2="350" class="chart-grid" stroke-opacity="0.3" />
    <text x="778" y="354" text-anchor="start" class="chart-muted" font-size="11" font-family="-apple-system, BlinkMacSystemFont, 'Segoe UI', Helvetica, Arial, sans-serif">0</text>
    <line x1="60" y1="307.14285714285717" x2="770" y2="307.14285714285717" class="chart-grid" stroke-opacity="0.3" />
    <text x="778" y="311.14285714285717" text-anchor="start" class="chart-muted" font-size="11" font-family="-apple-system, BlinkMacSystemFont, 'Segoe UI', Helvetica, Arial, sans-serif">20</text>
    <line x1="60" y1="264.2857142857143" x2="770" y2="264.2857142857143" class="chart-grid" stroke-opacity="0.3" />
    <text x="778" y="268.2857142857143" text-anchor="start" class="chart-muted" font-size="11" font-family="-apple-system, BlinkMacSystemFont, 'Segoe UI', Helvetica, Arial, sans-serif">40</text>
    <line x1="60" y1="221.42857142857144" x2="770" y2="221.42857142857144" class="chart-grid" stroke-opacity="0.3" />
    <text x="778" y="225.42857142857144" text-anchor="start" class="chart-muted" font-size="11" font-family="-apple-system, BlinkMacSystemFont, 'Segoe UI', Helvetica, Arial, sans-serif">60</text>
    <line x1="60" y1="178.57142857142858" x2="770" y2="178.57142857142858" class="chart-grid" stroke-opacity="0.3" />
    <text x="778" y="182.57142857142858" text-anchor="start" class="chart-muted" font-size="11" font-family="-apple-system, BlinkMacSystemFont, 'Segoe UI', Helvetica, Arial, sans-serif">80</text>
    <line x1="60" y1="135.71428571428572" x2="770" y2="135.71428571428572" class="chart-grid" stroke-opacity="0.3" />
    <text x="778" y="139.71428571428572" text-anchor="start" class="chart-muted" font-size="11" font-family="-apple-system, BlinkMacSystemFont, 'Segoe UI', Helvetica, Arial, sans-serif">100</text>
    <line x1="60" y1="92.85714285714289" x2="770" y2="92.85714285714289" class="chart-grid" stroke-opacity="0.3" />
    <text x="778" y="96.85714285714289" text-anchor="start" class="chart-muted" font-size="11" font-family="-apple-system, BlinkMacSystemFont, 'Segoe UI', Helvetica, Arial, sans-serif">120</text>
    <line x1="60" y1="50" x2="770" y2="50" class="chart-grid" stroke-opacity="0.3" />
    <text x="778" y="54" text-anchor="start" class="chart-muted" font-size="11" font-family="-apple-system, BlinkMacSystemFont, 'Segoe UI', Helvetica, Arial, sans-serif">140</text>
  </g>
  <g class="milestones">
    
  </g>
  <g class="x-axis">
    <text x="60" y="370" text-anchor="middle" class="chart-muted" font-size="11" font-family="-apple-system, BlinkMacSystemFont, 'Segoe UI', Helvetica, Arial, sans-serif">2024</text>
    <text x="353.7931034482759" y="370" text-anchor="middle" class="chart-muted" font-size="11" font-family="-apple-system, BlinkMacSystemFont, 'Segoe UI', Helvetica, Arial, sans-serif">2025</text>
    <text x="647.5862068965517" y="370" text-anchor="middle" class="chart-muted" font-size="11" font-family="-apple-system, BlinkMacSystemFont, 'Segoe UI', Helvetica, Arial, sans-serif">2026</text>
  </g>
  <line x1="770" y1="50" x2="770" y2="350" class="chart-axis" stroke-width="1" />
  <line x1="60" y1="350" x2="770" y2="350" class="chart-axis" stroke-width="1" />
  <path d="M60,350 L60,347.85714285714283 C63.264367816091955,347.57142857142856 77.95402298850574,347.85714285714283 84.48275862068965,345.7142857142857 C91.01149425287356,342.57142857142856 102.43678160919539,327.7142857142857 108.9655172413793,324.2857142857143 C115.49425287356321,320.85714285714283 126.91954022988504,321.7142857142857 133.44827586206895,320 C139.97701149425285,318.2857142857143 151.40229885057468,314.5714285714286 157.9310344827586,311.42857142857144 C164.45977011494253,308.2857142857143 175.88505747126436,298.7142857142857 182.41379310344828,296.42857142857144 C188.9425287356322,294.2857142857143 200.36781609195404,295.1428571428571 206.89655172413794,294.2857142857143 C213.42528735632183,293.42857142857144 224.8505747126437,292 231.3793103448276,290 C237.90804597701148,288 249.33333333333334,281.57142857142856 255.86206896551724,279.2857142857143 C262.39080459770116,277 273.81609195402297,274.8571428571429 280.34482758620686,272.8571428571429 C286.87356321839076,270.8571428571429 298.2988505747127,265.7142857142857 304.82758620689657,264.2857142857143 C311.35632183908046,262.85714285714283 322.7816091954023,262.4285714285714 329.3103448275862,262.1428571428571 C335.8390804597701,262.1428571428571 347.264367816092,262.1428571428571 353.7931034482759,262.1428571428571 C360.32183908045977,261.2857142857143 371.7471264367816,256.57142857142856 378.2758620689655,255.71428571428572 C384.8045977011494,255.71428571428572 396.2298850574713,255.71428571428572 402.7586206896552,255.71428571428572 C409.28735632183907,254.57142857142858 420.71264367816093,249.14285714285714 427.2413793103448,247.14285714285714 C433.7701149425287,245.14285714285714 445.1954022988506,241.85714285714286 451.7241379310345,240.71428571428572 C458.2528735632184,239.57142857142858 469.67816091954023,239.42857142857142 476.2068965517241,238.57142857142856 C482.735632183908,237.7142857142857 494.1609195402299,235.42857142857142 500.6896551724138,234.28571428571428 C507.2183908045977,233.14285714285714 518.6436781609195,232 525.1724137931035,230 C531.7011494252874,228 543.1264367816092,221 549.6551724137931,219.28571428571428 C556.1839080459771,217.57142857142856 567.6091954022988,218 574.1379310344828,217.14285714285714 C580.6666666666667,216.28571428571428 592.0919540229885,215.14285714285714 598.6206896551724,212.85714285714286 C605.1494252873564,210.57142857142858 616.5747126436781,210.57142857142858 623.1034482758621,200 C629.632183908046,189.42857142857142 641.0574712643678,143 647.5862068965517,133.57142857142858 C654.1149425287357,129.28571428571428 665.5402298850574,130.42857142857142 672.0689655172414,129.28571428571428 C678.5977011494253,128.14285714285714 690.0229885057471,127 696.551724137931,125 C703.080459770115,123 714.5057471264367,118.28571428571428 721.0344827586207,114.28571428571428 C727.5632183908046,110.28571428571428 738.9885057471264,99.28571428571429 745.5172413793103,95 C752.0459770114943,90.71428571428571 766.735632183908,83.85714285714283 770,82.14285714285711 L770,350 L60,350 Z" fill="#6b63ff" fill-opacity="0.1" />
  <path d="M60,350 L60,347.85714285714283 C63.264367816091955,347.57142857142856 77.95402298850574,347.85714285714283 84.48275862068965,345.7142857142857 C91.01149425287356,342.57142857142856 102.43678160919539,327.7142857142857 108.9655172413793,324.2857142857143 C115.49425287356321,320.85714285714283 126.91954022988504,321.7142857142857 133.44827586206895,320 C139.97701149425285,318.2857142857143 151.40229885057468,314.5714285714286 157.9310344827586,311.42857142857144 C164.45977011494253,308.2857142857143 175.88505747126436,298.7142857142857 182.41379310344828,296.42857142857144 C188.9425287356322,294.2857142857143 200.36781609195404,295.1428571428571 206.89655172413794,294.2857142857143 C213.42528735632183,293.42857142857144 224.8505747126437,292 231.3793103448276,290 C237.90804597701148,288 249.33333333333334,281.57142857142856 255.86206896551724,279.2857142857143 C262.39080459770116,277 273.81609195402297,274.8571428571429 280.34482758620686,272.8571428571429 C286.87356321839076,270.8571428571429 298.2988505747127,265.7142857142857 304.82758620689657,264.2857142857143 C311.35632183908046,262.85714285714283 322.7816091954023,262.4285714285714 329.3103448275862,262.1428571428571 C335.8390804597701,262.1428571428571 347.264367816092,262.1428571428571 353.7931034482759,262.1428571428571 C360.32183908045977,261.2857142857143 371.7471264367816,256.57142857142856 378.2758620689655,255.71428571428572 C384.8045977011494,255.71428571428572 396.2298850574713,255.71428571428572 402.7586206896552,255.71428571428572 C409.28735632183907,254.57142857142858 420.71264367816093,249.14285714285714 427.2413793103448,247.14285714285714 C433.7701149425287,245.14285714285714 445.1954022988506,241.85714285714286 451.7241379310345,240.71428571428572 C458.2528735632184,239.57142857142858 469.67816091954023,239.42857142857142 476.2068965517241,238.57142857142856 C482.735632183908,237.7142857142857 494.1609195402299,235.42857142857142 500.6896551724138,234.28571428571428 C507.2183908045977,233.14285714285714 518.6436781609195,232 525.1724137931035,230 C531.7011494252874,228 543.1264367816092,221 549.6551724137931,219.28571428571428 C556.1839080459771,217.57142857142856 567.6091954022988,218 574.1379310344828,217.14285714285714 C580.6666666666667,216.28571428571428 592.0919540229885,215.14285714285714 598.6206896551724,212.85714285714286 C605.1494252873564,210.57142857142858 616.5747126436781,210.57142857142858 623.1034482758621,200 C629.632183908046,189.42857142857142 641.0574712643678,143 647.5862068965517,133.57142857142858 C654.1149425287357,129.28571428571428 665.5402298850574,130.42857142857142 672.0689655172414,129.28571428571428 C678.5977011494253,128.14285714285714 690.0229885057471,127 696.551724137931,125 C703.080459770115,123 714.5057471264367,118.28571428571428 721.0344827586207,114.28571428571428 C727.5632183908046,110.28571428571428 738.9885057471264,99.28571428571429 745.5172413793103,95 C752.0459770114943,90.71428571428571 766.735632183908,83.85714285714283 770,82.14285714285711" fill="none" stroke="#6b63ff" stroke-width="2.5" class="data-line-0" />
  <g class="points">
    
    <circle cx="60" cy="347.85714285714283" r="4" fill="#6b63ff" class="data-point" style="animation-delay: 1.50s" />
    <circle cx="84.48275862068965" cy="345.7142857142857" r="4" fill="#6b63ff" class="data-point" style="animation-delay: 1.55s" />
    <circle cx="108.9655172413793" cy="324.2857142857143" r="4" fill="#6b63ff" class="data-point" style="animation-delay: 1.60s" />
    <circle cx="133.44827586206895" cy="320" r="4" fill="#6b63ff" class="data-point" style="animation-delay: 1.65s" />
    <circle cx="157.9310344827586" cy="311.42857142857144" r="4" fill="#6b63ff" class="data-point" style="animation-delay: 1.70s" />
    <circle cx="182.41379310344828" cy="296.42857142857144" r="4" fill="#6b63ff" class="data-point" style="animation-delay: 1.75s" />
    <circle cx="206.89655172413794" cy="294.2857142857143" r="4" fill="#6b63ff" class="data-point" style="animation-delay: 1.80s" />
    <circle cx="231.3793103448276" cy="290" r="4" fill="#6b63ff" class="data-point" style="animation-delay: 1.85s" />
    <circle cx="255.86206896551724" cy="279.2857142857143" r="4" fill="#6b63ff" class="data-point" style="animation-delay: 1.90s" />
    <circle cx="280.34482758620686" cy="272.8571428571429" r="4" fill="#6b63ff" class="data-point" style="animation-delay: 1.95s" />
    <circle cx="304.82758620689657" cy="264.2857142857143" r="4" fill="#6b63ff" class="data-point" style="animation-delay: 2.00s" />
    <circle cx="329.3103448275862" cy="262.1428571428571" r="4" fill="#6b63ff" class="data-point" style="animation-delay: 2.05s" />
    <circle cx="353.7931034482759" cy="262.1428571428571" r="4" fill="#6b63ff" class="data-point" style="animation-delay: 2.10s" />
    <circle cx="378.2758620689655" cy="255.71428571428572" r="4" fill="#6b63ff" class="data-point" style="animation-delay: 2.15s" />
    <circle cx="402.7586206896552" cy="255.71428571428572" r="4" fill="#6b63ff" class="data-point" style="animation-delay: 2.20s" />
    <circle cx="427.2413793103448" cy="247.14285714285714" r="4" fill="#6b63ff" class="data-point" style="animation-delay: 2.25s" />
    <circle cx="451.7241379310345" cy="240.71428571428572" r="4" fill="#6b63ff" class="data-point" style="animation-delay: 2.30s" />
    <circle cx="476.2068965517241" cy="238.57142857142856" r="4" fill="#6b63ff" class="data-point" style="animation-delay: 2.35s" />
    <circle cx="500.6896551724138" cy="234.28571428571428" r="4" fill="#6b63ff" class="data-point" style="animation-delay: 2.40s" />
    <circle cx="525.1724137931035" cy="230" r="4" fill="#6b63ff" class="data-point" style="animation-delay: 2.45s" />
    <circle cx="549.6551724137931" cy="219.28571428571428" r="4" fill="#6b63ff" class="data-point" style="animation-delay: 2.50s" />
    <circle cx="574.1379310344828" cy="217.14285714285714" r="4" fill="#6b63ff" class="data-point" style="animation-delay: 2.55s" />
    <circle cx="598.6206896551724" cy="212.85714285714286" r="4" fill="#6b63ff" class="data-point" style="animation-delay: 2.60s" />
    <circle cx="623.1034482758621" cy="200" r="4" fill="#6b63ff" class="data-point" style="animation-delay: 2.65s" />
    <circle cx="647.5862068965517" cy="133.57142857142858" r="4" fill="#6b63ff" class="data-point" style="animation-delay: 2.70s" />
    <circle cx="672.0689655172414" cy="129.28571428571428" r="4" fill="#6b63ff" class="data-point" style="animation-delay: 2.75s" />
    <circle cx="696.551724137931" cy="125" r="4" fill="#6b63ff" class="data-point" style="animation-delay: 2.80s" />
    <circle cx="721.0344827586207" cy="114.28571428571428" r="4" fill="#6b63ff" class="data-point" style="animation-delay: 2.85s" />
    <circle cx="745.5172413793103" cy="95" r="4" fill="#6b63ff" class="data-point" style="animation-delay: 2.90s" />
    <circle cx="770" cy="82.14285714285711" r="4" fill="#6b63ff" class="data-point" style="animation-delay: 2.95s" />
  </g>
</svg>