<svg xmlns="http://www.w3.org/2000/svg" viewBox="0 0 800 400" width="800" height="400">
  <style>
    @keyframes drawLine {
      to { stroke-dashoffset: 0; }
    }
    @keyframes fadeInPoint {
      from { opacity: 0; }
      to { opacity: 1; }
    }
    .data-line-0 {
      stroke-dasharray: 1161;
      stroke-dashoffset: 1161;
      animation: drawLine 2s ease-out forwards;
    }
    .data-point {
      opacity: 0;
      animation: fadeInPoint 0.5s ease-out forwards;
    }
    .chart-bg { fill: #fff; }
    .chart-text { fill: #24292e; }
    .chart-muted { fill: #6a737d; }
    .chart-grid { stroke: #eee; }
    .chart-axis { stroke: #6a737d; }
    @media (prefers-color-scheme: dark) {
      .chart-bg { fill: #0d1117; }
      .chart-text { fill: #e6edf3; }
      .chart-muted { fill: #8b949e; }
      .chart-grid { stroke: #21262d; }
      .chart-axis { stroke: #8b949e; }
    }
  </style>
  <rect width="800" height="400" class="chart-bg" />
  <text x="400" y="34" text-anchor="middle" class="chart-text" font-size="16" font-weight="bold" font-family="-apple-system, BlinkMacSystemFont, 'Segoe UI', Helvetica, Arial, sans-serif">qemus/qemu-arm Star History</text>
  
  <g class="grid">
    <line x1="60" y1="350" x2="770" y2="350" class="chart-grid" stroke-opacity="0.3" />
    <text x="778" y="354" text-anchor="start" class="chart-muted" font-size="11" font-family="-apple-system, BlinkMacSystemFont, 'Segoe UI', Helvetica, Arial, sans-serif">0</text>
    <line x1="60" y1="282.12669683257917" x2="770" y2="282.12669683257917" class="chart-grid" stroke-opacity="0.3" />
    <text x="778" y="286.12669683257917" text-anchor="start" class="chart-muted" font-size="11" font-family="-apple-system, BlinkMacSystemFont, 'Segoe UI', Helvetica, Arial, sans-serif">50</text>
    <line x1="60" y1="214.25339366515837" x2="770" y2="214.25339366515837" class="chart-grid" stroke-opacity="0.3" />
    <text x="778" y="218.25339366515837" text-anchor="start" class="chart-muted" font-size="11" font-family="-apple-system, BlinkMacSystemFont, 'Segoe UI', Helvetica, Arial, sans-serif">100</text>
    <line x1="60" y1="146.38009049773754" x2="770" y2="146.38009049773754" class="chart-grid" stroke-opacity="0.3" />
    <text x="778" y="150.38009049773754" text-anchor="start" class="chart-muted" font-size="11" font-family="-apple-system, BlinkMacSystemFont, 'Segoe UI', Helvetica, Arial, sans-serif">150</text>
    <line x1="60" y1="78.50678733031674" x2="770" y2="78.50678733031674" class="chart-grid" stroke-opacity="0.3" />
    <text x="778" y="82.50678733031674" text-anchor="start" class="chart-muted" font-size="11" font-family="-apple-system, BlinkMacSystemFont, 'Segoe UI', Helvetica, Arial, sans-serif">200</text>
  </g>
  <g class="milestones">
    
  </g>
  <g class="x-axis">
    <text x="60" y="370" text-anchor="middle" class="chart-muted" font-size="11" font-family="-apple-system, BlinkMacSystemFont, 'Segoe UI', Helvetica, Arial, sans-serif">2024</text>
    <text x="329.3103448275862" y="370" text-anchor="middle" class="chart-muted" font-size="11" font-family="-apple-system, BlinkMacSystemFont, 'Segoe UI', Helvetica, Arial, sans-serif">2025</text>
    <text x="647.5862068965517" y="370" text-anchor="middle" class="chart-muted" font-size="11" font-family="-apple-system, BlinkMacSystemFont, 'Segoe UI', Helvetica, Arial, sans-serif">2026</text>
  </g>
  <line x1="770" y1="50" x2="770" y2="350" class="chart-axis" stroke-width="1" />
  <line x1="60" y1="350" x2="770" y2="350" class="chart-axis" stroke-width="1" />
  <path d="M60,350 L60,348.6425339366516 C63.264367816091955,348.46153846153845 77.95402298850574,347.82805429864254 84.48275862068965,347.28506787330315 C91.01149425287356,346.74208144796376 102.43678160919539,346.1990950226245 108.9655172413793,344.57013574660635 C115.49425287356321,342.94117647058823 126.91954022988504,337.96380090497735 133.44827586206895,335.0678733031674 C139.97701149425285,332.17194570135746 151.40229885057468,325.7466063348416 157.9310344827586,322.85067873303166 C164.45977011494253,319.9547511312217 175.88505747126436,316.0633484162896 182.41379310344828,313.34841628959276 C188.9425287356322,310.6334841628959 200.36781609195404,305.0226244343891 206.89655172413794,302.4886877828054 C213.42528735632183,299.9547511312217 224.8505747126437,297.420814479638 231.3793103448276,294.3438914027149 C237.90804597701148,291.2669683257918 249.33333333333334,282.85067873303166 255.86206896551724,279.4117647058823 C262.39080459770116,275.972850678733 273.81609195402297,271.99095022624437 280.34482758620686,268.552036199095 C286.87356321839076,265.1131221719457 298.2988505747127,256.6968325791855 304.82758620689657,253.61990950226243 C311.35632183908046,250.54298642533936 322.7816091954023,247.46606334841627 329.3103448275862,245.47511312217193 C335.8390804597701,243.4841628959276 347.264367816092,241.5837104072398 353.7931034482759,238.68778280542986 C360.32183908045977,235.79185520361992 371.7471264367816,227.01357466063348 378.2758620689655,223.7556561085973 C384.8045977011494,220.4977375565611 396.2298850574713,217.14932126696831 402.7586206896552,214.25339366515837 C409.28735632183907,211.35746606334843 420.71264367816093,205.65610859728505 427.2413793103448,202.03619909502262 C433.7701149425287,198.4162895927602 445.1954022988506,189.2760180995475 451.7241379310345,187.10407239819006 C458.2528735632184,185.7466063348416 469.67816091954023,186.83257918552033 476.2068965517241,185.7466063348416 C482.735632183908,184.66063348416287 494.1609195402299,181.13122171945702 500.6896551724138,178.95927601809956 C507.2183908045977,176.7873303167421 518.6436781609195,174.16289592760182 525.1724137931035,169.45701357466064 C531.7011494252874,164.75113122171945 543.1264367816092,149.0950226244344 549.6551724137931,143.66515837104072 C556.1839080459771,138.23529411764704 567.6091954022988,131.8099547511312 574.1379310344828,128.73303167420812 C580.6666666666667,125.65610859728504 592.0919540229885,122.76018099547511 598.6206896551724,120.58823529411765 C605.1494252873564,118.4162895927602 616.5747126436781,114.97737556561087 623.1034482758621,112.44343891402715 C629.632183908046,109.90950226244344 641.0574712643678,103.57466063348419 647.5862068965517,101.58371040723983 C654.1149425287357,99.59276018099548 665.5402298850574,99.14027149321265 672.0689655172414,97.51131221719456 C678.5977011494253,95.88235294117646 690.0229885057471,90.99547511312218 696.551724137931,89.36651583710409 C703.080459770115,87.737556561086 714.5057471264367,86.74208144796383 721.0344827586207,85.29411764705884 C727.5632183908046,83.84615384615385 738.9885057471264,79.59276018099547 745.5172413793103,78.50678733031674 C752.0459770114943,77.42081447963801 766.735632183908,77.33031674208146 770,77.14932126696834 L770,350 L60,350 Z" fill="#6b63ff" fill-opacity="0.1" />
  <path d="M60,350 L60,348.6425339366516 C63.264367816091955,348.46153846153845 77.95402298850574,347.82805429864254 84.48275862068965,347.28506787330315 C91.01149425287356,346.74208144796376 102.43678160919539,346.1990950226245 108.9655172413793,344.57013574660635 C115.49425287356321,342.94117647058823 126.91954022988504,337.96380090497735 133.44827586206895,335.0678733031674 C139.97701149425285,332.17194570135746 151.40229885057468,325.7466063348416 157.9310344827586,322.85067873303166 C164.45977011494253,319.9547511312217 175.88505747126436,316.0633484162896 182.41379310344828,313.34841628959276 C188.9425287356322,310.6334841628959 200.36781609195404,305.0226244343891 206.89655172413794,302.4886877828054 C213.42528735632183,299.9547511312217 224.8505747126437,297.420814479638 231.3793103448276,294.3438914027149 C237.90804597701148,291.2669683257918 249.33333333333334,282.85067873303166 255.86206896551724,279.4117647058823 C262.39080459770116,275.972850678733 273.81609195402297,271.99095022624437 280.34482758620686,268.552036199095 C286.87356321839076,265.1131221719457 298.2988505747127,256.6968325791855 304.82758620689657,253.61990950226243 C311.35632183908046,250.54298642533936 322.7816091954023,247.46606334841627 329.3103448275862,245.47511312217193 C335.8390804597701,243.4841628959276 347.264367816092,241.5837104072398 353.7931034482759,238.68778280542986 C360.32183908045977,235.79185520361992 371.7471264367816,227.01357466063348 378.2758620689655,223.7556561085973 C384.8045977011494,220.4977375565611 396.2298850574713,217.14932126696831 402.7586206896552,214.25339366515837 C409.28735632183907,211.35746606334843 420.71264367816093,205.65610859728505 427.2413793103448,202.03619909502262 C433.7701149425287,198.4162895927602 445.1954022988506,189.2760180995475 451.7241379310345,187.10407239819006 C458.2528735632184,185.7466063348416 469.67816091954023,186.83257918552033 476.2068965517241,185.7466063348416 C482.735632183908,184.66063348416287 494.1609195402299,181.13122171945702 500.6896551724138,178.95927601809956 C507.2183908045977,176.7873303167421 518.6436781609195,174.16289592760182 525.1724137931035,169.45701357466064 C531.7011494252874,164.75113122171945 543.1264367816092,149.0950226244344 549.6551724137931,143.66515837104072 C556.1839080459771,138.23529411764704 567.6091954022988,131.8099547511312 574.1379310344828,128.73303167420812 C580.6666666666667,125.65610859728504 592.0919540229885,122.76018099547511 598.6206896551724,120.58823529411765 C605.1494252873564,118.4162895927602 616.5747126436781,114.97737556561087 623.1034482758621,112.44343891402715 C629.632183908046,109.90950226244344 641.0574712643678,103.57466063348419 647.5862068965517,101.58371040723983 C654.1149425287357,99.59276018099548 665.5402298850574,99.14027149321265 672.0689655172414,97.51131221719456 C678.5977011494253,95.88235294117646 690.0229885057471,90.99547511312218 696.551724137931,89.36651583710409 C703.080459770115,87.737556561086 714.5057471264367,86.74208144796383 721.0344827586207,85.29411764705884 C727.5632183908046,83.84615384615385 738.9885057471264,79.59276018099547 745.5172413793103,78.50678733031674 C752.0459770114943,77.42081447963801 766.735632183908,77.33031674208146 770,77.14932126696834" fill="none" stroke="#6b63ff" stroke-width="2.5" class="data-line-0" />
  <g class="points">
    
    <circle cx="60" cy="348.6425339366516" r="4" fill="#6b63ff" class="data-point" style="animation-delay: 1.50s" />
    <circle cx="84.48275862068965" cy="347.28506787330315" r="4" fill="#6b63ff" class="data-point" style="animation-delay: 1.55s" />
    <circle cx="108.9655172413793" cy="344.57013574660635" r="4" fill="#6b63ff" class="data-point" style="animation-delay: 1.60s" />
    <circle cx="133.44827586206895" cy="335.0678733031674" r="4" fill="#6b63ff" class="data-point" style="animation-delay: 1.65s" />
    <circle cx="157.9310344827586" cy="322.85067873303166" r="4" fill="#6b63ff" class="data-point" style="animation-delay: 1.70s" />
    <circle cx="182.41379310344828" cy="313.34841628959276" r="4" fill="#6b63ff" class="data-point" style="animation-delay: 1.75s" />
    <circle cx="206.89655172413794" cy="302.4886877828054" r="4" fill="#6b63ff" class="data-point" style="animation-delay: 1.80s" />
    <circle cx="231.3793103448276" cy="294.3438914027149" r="4" fill="#6b63ff" class="data-point" style="animation-delay: 1.85s" />
    <circle cx="255.86206896551724" cy="279.4117647058823" r="4" fill="#6b63ff" class="data-point" style="animation-delay: 1.90s" />
    <circle cx="280.34482758620686" cy="268.552036199095" r="4" fill="#6b63ff" class="data-point" style="animation-delay: 1.95s" />
    <circle cx="304.82758620689657" cy="253.61990950226243" r="4" fill="#6b63ff" class="data-point" style="animation-delay: 2.00s" />
    <circle cx="329.3103448275862" cy="245.47511312217193" r="4" fill="#6b63ff" class="data-point" style="animation-delay: 2.05s" />
    <circle cx="353.7931034482759" cy="238.68778280542986" r="4" fill="#6b63ff" class="data-point" style="animation-delay: 2.10s" />
    <circle cx="378.2758620689655" cy="223.7556561085973" r="4" fill="#6b63ff" class="data-point" style="animation-delay: 2.15s" />
    <circle cx="402.7586206896552" cy="214.25339366515837" r="4" fill="#6b63ff" class="data-point" style="animation-delay: 2.20s" />
    <circle cx="427.2413793103448" cy="202.03619909502262" r="4" fill="#6b63ff" class="data-point" style="animation-delay: 2.25s" />
    <circle cx="451.7241379310345" cy="187.10407239819006" r="4" fill="#6b63ff" class="data-point" style="animation-delay: 2.30s" />
    <circle cx="476.2068965517241" cy="185.7466063348416" r="4" fill="#6b63ff" class="data-point" style="animation-delay: 2.35s" />
    <circle cx="500.6896551724138" cy="178.95927601809956" r="4" fill="#6b63ff" class="data-point" style="animation-delay: 2.40s" />
    <circle cx="525.1724137931035" cy="169.45701357466064" r="4" fill="#6b63ff" class="data-point" style="animation-delay: 2.45s" />
    <circle cx="549.6551724137931" cy="143.66515837104072" r="4" fill="#6b63ff" class="data-point" style="animation-delay: 2.50s" />
    <circle cx="574.1379310344828" cy="128.73303167420812" r="4" fill="#6b63ff" class="data-point" style="animation-delay: 2.55s" />
    <circle cx="598.6206896551724" cy="120.58823529411765" r="4" fill="#6b63ff" class="data-point" style="animation-delay: 2.60s" />
    <circle cx="623.1034482758621" cy="112.44343891402715" r="4" fill="#6b63ff" class="data-point" style="animation-delay: 2.65s" />
    <circle cx="647.5862068965517" cy="101.58371040723983" r="4" fill="#6b63ff" class="data-point" style="animation-delay: 2.70s" />
    <circle cx="672.0689655172414" cy="97.51131221719456" r="4" fill="#6b63ff" class="data-point" style="animation-delay: 2.75s" />
    <circle cx="696.551724137931" cy="89.36651583710409" r="4" fill="#6b63ff" class="data-point" style="animation-delay: 2.80s" />
    <circle cx="721.0344827586207" cy="85.29411764705884" r="4" fill="#6b63ff" class="data-point" style="animation-delay: 2.85s" />
    <circle cx="745.5172413793103" cy="78.50678733031674" r="4" fill="#6b63ff" class="data-point" style="animation-delay: 2.90s" />
    <circle cx="770" cy="77.14932126696834" r="4" fill="#6b63ff" class="data-point" style="animation-delay: 2.95s" />
  </g>
</svg>