<svg xmlns="http://www.w3.org/2000/svg" viewBox="0 0 800 400" width="800" height="400">
  <style>
    @keyframes drawLine {
      to { stroke-dashoffset: 0; }
    }
    @keyframes fadeInPoint {
      from { opacity: 0; }
      to { opacity: 1; }
    }
    .data-line-0 {
      stroke-dasharray: 1207;
      stroke-dashoffset: 1207;
      animation: drawLine 2s ease-out forwards;
    }
    .data-point {
      opacity: 0;
      animation: fadeInPoint 0.5s ease-out forwards;
    }
    .chart-bg { fill: #fff; }
    .chart-text { fill: #24292e; }
    .chart-muted { fill: #6a737d; }
    .chart-grid { stroke: #eee; }
    .chart-axis { stroke: #6a737d; }
    @media (prefers-color-scheme: dark) {
      .chart-bg { fill: #0d1117; }
      .chart-text { fill: #e6edf3; }
      .chart-muted { fill: #8b949e; }
      .chart-grid { stroke: #21262d; }
      .chart-axis { stroke: #8b949e; }
    }
  </style>
  <rect width="800" height="400" class="chart-bg" />
  <text x="400" y="34" text-anchor="middle" class="chart-text" font-size="16" font-weight="bold" font-family="-apple-system, BlinkMacSystemFont, 'Segoe UI', Helvetica, Arial, sans-serif">qemus/virtiso Star History</text>
  
  <g class="grid">
    <line x1="60" y1="350" x2="770" y2="350" class="chart-grid" stroke-opacity="0.3" />
    <text x="778" y="354" text-anchor="start" class="chart-muted" font-size="11" font-family="-apple-system, BlinkMacSystemFont, 'Segoe UI', Helvetica, Arial, sans-serif">0</text>
    <line x1="60" y1="306.52173913043475" x2="770" y2="306.52173913043475" class="chart-grid" stroke-opacity="0.3" />
    <text x="778" y="310.52173913043475" text-anchor="start" class="chart-muted" font-size="11" font-family="-apple-system, BlinkMacSystemFont, 'Segoe UI', Helvetica, Arial, sans-serif">20</text>
    <line x1="60" y1="263.04347826086956" x2="770" y2="263.04347826086956" class="chart-grid" stroke-opacity="0.3" />
    <text x="778" y="267.04347826086956" text-anchor="start" class="chart-muted" font-size="11" font-family="-apple-system, BlinkMacSystemFont, 'Segoe UI', Helvetica, Arial, sans-serif">40</text>
    <line x1="60" y1="219.56521739130434" x2="770" y2="219.56521739130434" class="chart-grid" stroke-opacity="0.3" />
    <text x="778" y="223.56521739130434" text-anchor="start" class="chart-muted" font-size="11" font-family="-apple-system, BlinkMacSystemFont, 'Segoe UI', Helvetica, Arial, sans-serif">60</text>
    <line x1="60" y1="176.08695652173913" x2="770" y2="176.08695652173913" class="chart-grid" stroke-opacity="0.3" />
    <text x="778" y="180.08695652173913" text-anchor="start" class="chart-muted" font-size="11" font-family="-apple-system, BlinkMacSystemFont, 'Segoe UI', Helvetica, Arial, sans-serif">80</text>
    <line x1="60" y1="132.6086956521739" x2="770" y2="132.6086956521739" class="chart-grid" stroke-opacity="0.3" />
    <text x="778" y="136.6086956521739" text-anchor="start" class="chart-muted" font-size="11" font-family="-apple-system, BlinkMacSystemFont, 'Segoe UI', Helvetica, Arial, sans-serif">100</text>
    <line x1="60" y1="89.13043478260869" x2="770" y2="89.13043478260869" class="chart-grid" stroke-opacity="0.3" />
    <text x="778" y="93.13043478260869" text-anchor="start" class="chart-muted" font-size="11" font-family="-apple-system, BlinkMacSystemFont, 'Segoe UI', Helvetica, Arial, sans-serif">120</text>
    <line x1="60" y1="45.65217391304344" x2="770" y2="45.65217391304344" class="chart-grid" stroke-opacity="0.3" />
    <text x="778" y="49.65217391304344" text-anchor="start" class="chart-muted" font-size="11" font-family="-apple-system, BlinkMacSystemFont, 'Segoe UI', Helvetica, Arial, sans-serif">140</text>
  </g>
  <g class="milestones">
    
  </g>
  <g class="x-axis">
    <text x="60" y="370" text-anchor="middle" class="chart-muted" font-size="11" font-family="-apple-system, BlinkMacSystemFont, 'Segoe UI', Helvetica, Arial, sans-serif">2024</text>
    <text x="353.7931034482759" y="370" text-anchor="middle" class="chart-muted" font-size="11" font-family="-apple-system, BlinkMacSystemFont, 'Segoe UI', Helvetica, Arial, sans-serif">2025</text>
    <text x="647.5862068965517" y="370" text-anchor="middle" class="chart-muted" font-size="11" font-family="-apple-system, BlinkMacSystemFont, 'Segoe UI', Helvetica, Arial, sans-serif">2026</text>
  </g>
  <line x1="770" y1="50" x2="770" y2="350" class="chart-axis" stroke-width="1" />
  <line x1="60" y1="350" x2="770" y2="350" class="chart-axis" stroke-width="1" />
  <path d="M60,350 L60,347.82608695652175 C63.264367816091955,347.536231884058 77.95402298850574,347.82608695652175 84.48275862068965,345.6521739130435 C91.01149425287356,342.46376811594206 102.43678160919539,327.39130434782606 108.9655172413793,323.9130434782609 C115.49425287356321,320.4347826086957 126.91954022988504,321.304347826087 133.44827586206895,319.5652173913044 C139.97701149425285,317.82608695652175 151.40229885057468,314.05797101449275 157.9310344827586,310.8695652173913 C164.45977011494253,307.6811594202899 175.88505747126436,297.9710144927536 182.41379310344828,295.6521739130435 C188.9425287356322,293.47826086956525 200.36781609195404,294.34782608695656 206.89655172413794,293.47826086956525 C213.42528735632183,292.60869565217394 224.8505747126437,291.15942028985506 231.3793103448276,289.1304347826087 C237.90804597701148,287.1014492753623 249.33333333333334,280.5797101449275 255.86206896551724,278.2608695652174 C262.39080459770116,275.94202898550725 273.81609195402297,273.768115942029 280.34482758620686,271.7391304347826 C286.87356321839076,269.71014492753625 298.2988505747127,264.4927536231884 304.82758620689657,263.04347826086956 C311.35632183908046,261.59420289855075 322.7816091954023,261.15942028985506 329.3103448275862,260.8695652173913 C335.8390804597701,260.8695652173913 347.264367816092,260.8695652173913 353.7931034482759,260.8695652173913 C360.32183908045977,260 371.7471264367816,255.21739130434784 378.2758620689655,254.34782608695653 C384.8045977011494,254.34782608695653 396.2298850574713,254.34782608695653 402.7586206896552,254.34782608695653 C409.28735632183907,253.18840579710147 420.71264367816093,247.68115942028987 427.2413793103448,245.6521739130435 C433.7701149425287,243.62318840579712 445.1954022988506,240.28985507246375 451.7241379310345,239.1304347826087 C458.2528735632184,237.97101449275362 469.67816091954023,237.82608695652175 476.2068965517241,236.95652173913044 C482.735632183908,236.08695652173913 494.1609195402299,233.47826086956522 500.6896551724138,232.6086956521739 C507.2183908045977,231.7391304347826 518.6436781609195,232.46376811594203 525.1724137931035,230.43478260869566 C531.7011494252874,228.40579710144928 543.1264367816092,219.42028985507247 549.6551724137931,217.3913043478261 C556.1839080459771,215.36231884057972 567.6091954022988,216.08695652173913 574.1379310344828,215.2173913043478 C580.6666666666667,214.3478260869565 592.0919540229885,212.8985507246377 598.6206896551724,210.8695652173913 C605.1494252873564,208.84057971014494 616.5747126436781,210.72463768115944 623.1034482758621,200 C629.632183908046,189.27536231884056 641.0574712643678,140.28985507246378 647.5862068965517,130.43478260869566 C654.1149425287357,126.08695652173913 665.5402298850574,127.2463768115942 672.0689655172414,126.08695652173913 C678.5977011494253,124.92753623188405 690.0229885057471,123.76811594202897 696.551724137931,121.7391304347826 C703.080459770115,119.71014492753622 714.5057471264367,114.92753623188406 721.0344827586207,110.86956521739131 C727.5632183908046,106.81159420289856 738.9885057471264,95.65217391304347 745.5172413793103,91.30434782608694 C752.0459770114943,86.95652173913041 766.735632183908,79.99999999999999 770,78.26086956521738 L770,350 L60,350 Z" fill="#6b63ff" fill-opacity="0.1" />
  <path d="M60,350 L60,347.82608695652175 C63.264367816091955,347.536231884058 77.95402298850574,347.82608695652175 84.48275862068965,345.6521739130435 C91.01149425287356,342.46376811594206 102.43678160919539,327.39130434782606 108.9655172413793,323.9130434782609 C115.49425287356321,320.4347826086957 126.91954022988504,321.304347826087 133.44827586206895,319.5652173913044 C139.97701149425285,317.82608695652175 151.40229885057468,314.05797101449275 157.9310344827586,310.8695652173913 C164.45977011494253,307.6811594202899 175.88505747126436,297.9710144927536 182.41379310344828,295.6521739130435 C188.9425287356322,293.47826086956525 200.36781609195404,294.34782608695656 206.89655172413794,293.47826086956525 C213.42528735632183,292.60869565217394 224.8505747126437,291.15942028985506 231.3793103448276,289.1304347826087 C237.90804597701148,287.1014492753623 249.33333333333334,280.5797101449275 255.86206896551724,278.2608695652174 C262.39080459770116,275.94202898550725 273.81609195402297,273.768115942029 280.34482758620686,271.7391304347826 C286.87356321839076,269.71014492753625 298.2988505747127,264.4927536231884 304.82758620689657,263.04347826086956 C311.35632183908046,261.59420289855075 322.7816091954023,261.15942028985506 329.3103448275862,260.8695652173913 C335.8390804597701,260.8695652173913 347.264367816092,260.8695652173913 353.7931034482759,260.8695652173913 C360.32183908045977,260 371.7471264367816,255.21739130434784 378.2758620689655,254.34782608695653 C384.8045977011494,254.34782608695653 396.2298850574713,254.34782608695653 402.7586206896552,254.34782608695653 C409.28735632183907,253.18840579710147 420.71264367816093,247.68115942028987 427.2413793103448,245.6521739130435 C433.7701149425287,243.62318840579712 445.1954022988506,240.28985507246375 451.7241379310345,239.1304347826087 C458.2528735632184,237.97101449275362 469.67816091954023,237.82608695652175 476.2068965517241,236.95652173913044 C482.735632183908,236.08695652173913 494.1609195402299,233.47826086956522 500.6896551724138,232.6086956521739 C507.2183908045977,231.7391304347826 518.6436781609195,232.46376811594203 525.1724137931035,230.43478260869566 C531.7011494252874,228.40579710144928 543.1264367816092,219.42028985507247 549.6551724137931,217.3913043478261 C556.1839080459771,215.36231884057972 567.6091954022988,216.08695652173913 574.1379310344828,215.2173913043478 C580.6666666666667,214.3478260869565 592.0919540229885,212.8985507246377 598.6206896551724,210.8695652173913 C605.1494252873564,208.84057971014494 616.5747126436781,210.72463768115944 623.1034482758621,200 C629.632183908046,189.27536231884056 641.0574712643678,140.28985507246378 647.5862068965517,130.43478260869566 C654.1149425287357,126.08695652173913 665.5402298850574,127.2463768115942 672.0689655172414,126.08695652173913 C678.5977011494253,124.92753623188405 690.0229885057471,123.76811594202897 696.551724137931,121.7391304347826 C703.080459770115,119.71014492753622 714.5057471264367,114.92753623188406 721.0344827586207,110.86956521739131 C727.5632183908046,106.81159420289856 738.9885057471264,95.65217391304347 745.5172413793103,91.30434782608694 C752.0459770114943,86.95652173913041 766.735632183908,79.99999999999999 770,78.26086956521738" fill="none" stroke="#6b63ff" stroke-width="2.5" class="data-line-0" />
  <g class="points">
    
    <circle cx="60" cy="347.82608695652175" r="4" fill="#6b63ff" class="data-point" style="animation-delay: 1.50s" />
    <circle cx="84.48275862068965" cy="345.6521739130435" r="4" fill="#6b63ff" class="data-point" style="animation-delay: 1.55s" />
    <circle cx="108.9655172413793" cy="323.9130434782609" r="4" fill="#6b63ff" class="data-point" style="animation-delay: 1.60s" />
    <circle cx="133.44827586206895" cy="319.5652173913044" r="4" fill="#6b63ff" class="data-point" style="animation-delay: 1.65s" />
    <circle cx="157.9310344827586" cy="310.8695652173913" r="4" fill="#6b63ff" class="data-point" style="animation-delay: 1.70s" />
    <circle cx="182.41379310344828" cy="295.6521739130435" r="4" fill="#6b63ff" class="data-point" style="animation-delay: 1.75s" />
    <circle cx="206.89655172413794" cy="293.47826086956525" r="4" fill="#6b63ff" class="data-point" style="animation-delay: 1.80s" />
    <circle cx="231.3793103448276" cy="289.1304347826087" r="4" fill="#6b63ff" class="data-point" style="animation-delay: 1.85s" />
    <circle cx="255.86206896551724" cy="278.2608695652174" r="4" fill="#6b63ff" class="data-point" style="animation-delay: 1.90s" />
    <circle cx="280.34482758620686" cy="271.7391304347826" r="4" fill="#6b63ff" class="data-point" style="animation-delay: 1.95s" />
    <circle cx="304.82758620689657" cy="263.04347826086956" r="4" fill="#6b63ff" class="data-point" style="animation-delay: 2.00s" />
    <circle cx="329.3103448275862" cy="260.8695652173913" r="4" fill="#6b63ff" class="data-point" style="animation-delay: 2.05s" />
    <circle cx="353.7931034482759" cy="260.8695652173913" r="4" fill="#6b63ff" class="data-point" style="animation-delay: 2.10s" />
    <circle cx="378.2758620689655" cy="254.34782608695653" r="4" fill="#6b63ff" class="data-point" style="animation-delay: 2.15s" />
    <circle cx="402.7586206896552" cy="254.34782608695653" r="4" fill="#6b63ff" class="data-point" style="animation-delay: 2.20s" />
    <circle cx="427.2413793103448" cy="245.6521739130435" r="4" fill="#6b63ff" class="data-point" style="animation-delay: 2.25s" />
    <circle cx="451.7241379310345" cy="239.1304347826087" r="4" fill="#6b63ff" class="data-point" style="animation-delay: 2.30s" />
    <circle cx="476.2068965517241" cy="236.95652173913044" r="4" fill="#6b63ff" class="data-point" style="animation-delay: 2.35s" />
    <circle cx="500.6896551724138" cy="232.6086956521739" r="4" fill="#6b63ff" class="data-point" style="animation-delay: 2.40s" />
    <circle cx="525.1724137931035" cy="230.43478260869566" r="4" fill="#6b63ff" class="data-point" style="animation-delay: 2.45s" />
    <circle cx="549.6551724137931" cy="217.3913043478261" r="4" fill="#6b63ff" class="data-point" style="animation-delay: 2.50s" />
    <circle cx="574.1379310344828" cy="215.2173913043478" r="4" fill="#6b63ff" class="data-point" style="animation-delay: 2.55s" />
    <circle cx="598.6206896551724" cy="210.8695652173913" r="4" fill="#6b63ff" class="data-point" style="animation-delay: 2.60s" />
    <circle cx="623.1034482758621" cy="200" r="4" fill="#6b63ff" class="data-point" style="animation-delay: 2.65s" />
    <circle cx="647.5862068965517" cy="130.43478260869566" r="4" fill="#6b63ff" class="data-point" style="animation-delay: 2.70s" />
    <circle cx="672.0689655172414" cy="126.08695652173913" r="4" fill="#6b63ff" class="data-point" style="animation-delay: 2.75s" />
    <circle cx="696.551724137931" cy="121.7391304347826" r="4" fill="#6b63ff" class="data-point" style="animation-delay: 2.80s" />
    <circle cx="721.0344827586207" cy="110.86956521739131" r="4" fill="#6b63ff" class="data-point" style="animation-delay: 2.85s" />
    <circle cx="745.5172413793103" cy="91.30434782608694" r="4" fill="#6b63ff" class="data-point" style="animation-delay: 2.90s" />
    <circle cx="770" cy="78.26086956521738" r="4" fill="#6b63ff" class="data-point" style="animation-delay: 2.95s" />
  </g>
</svg>