<svg xmlns="http://www.w3.org/2000/svg" viewBox="0 0 800 400" width="800" height="400">
  <style>
    @keyframes drawLine {
      to { stroke-dashoffset: 0; }
    }
    @keyframes fadeInPoint {
      from { opacity: 0; }
      to { opacity: 1; }
    }
    .data-line-0 {
      stroke-dasharray: 1181;
      stroke-dashoffset: 1181;
      animation: drawLine 2s ease-out forwards;
    }
    .data-point {
      opacity: 0;
      animation: fadeInPoint 0.5s ease-out forwards;
    }
    .chart-bg { fill: #fff; }
    .chart-text { fill: #24292e; }
    .chart-muted { fill: #6a737d; }
    .chart-grid { stroke: #eee; }
    .chart-axis { stroke: #6a737d; }
    @media (prefers-color-scheme: dark) {
      .chart-bg { fill: #0d1117; }
      .chart-text { fill: #e6edf3; }
      .chart-muted { fill: #8b949e; }
      .chart-grid { stroke: #21262d; }
      .chart-axis { stroke: #8b949e; }
    }
  </style>
  <rect width="800" height="400" class="chart-bg" />
  <text x="400" y="34" text-anchor="middle" class="chart-text" font-size="16" font-weight="bold" font-family="-apple-system, BlinkMacSystemFont, 'Segoe UI', Helvetica, Arial, sans-serif">qemus/virtiso-whql Star History</text>
  
  <g class="grid">
    <line x1="60" y1="350" x2="770" y2="350" class="chart-grid" stroke-opacity="0.3" />
    <text x="778" y="354" text-anchor="start" class="chart-muted" font-size="11" font-family="-apple-system, BlinkMacSystemFont, 'Segoe UI', Helvetica, Arial, sans-serif">0</text>
    <line x1="60" y1="253.22580645161293" x2="770" y2="253.22580645161293" class="chart-grid" stroke-opacity="0.3" />
    <text x="778" y="257.2258064516129" text-anchor="start" class="chart-muted" font-size="11" font-family="-apple-system, BlinkMacSystemFont, 'Segoe UI', Helvetica, Arial, sans-serif">20</text>
    <line x1="60" y1="156.45161290322582" x2="770" y2="156.45161290322582" class="chart-grid" stroke-opacity="0.3" />
    <text x="778" y="160.45161290322582" text-anchor="start" class="chart-muted" font-size="11" font-family="-apple-system, BlinkMacSystemFont, 'Segoe UI', Helvetica, Arial, sans-serif">40</text>
    <line x1="60" y1="59.67741935483872" x2="770" y2="59.67741935483872" class="chart-grid" stroke-opacity="0.3" />
    <text x="778" y="63.67741935483872" text-anchor="start" class="chart-muted" font-size="11" font-family="-apple-system, BlinkMacSystemFont, 'Segoe UI', Helvetica, Arial, sans-serif">60</text>
  </g>
  <g class="milestones">
    
  </g>
  <g class="x-axis">
    <text x="60" y="370" text-anchor="middle" class="chart-muted" font-size="11" font-family="-apple-system, BlinkMacSystemFont, 'Segoe UI', Helvetica, Arial, sans-serif">2024</text>
    <text x="182.41379310344828" y="370" text-anchor="middle" class="chart-muted" font-size="11" font-family="-apple-system, BlinkMacSystemFont, 'Segoe UI', Helvetica, Arial, sans-serif">2025</text>
    <text x="598.6206896551724" y="370" text-anchor="middle" class="chart-muted" font-size="11" font-family="-apple-system, BlinkMacSystemFont, 'Segoe UI', Helvetica, Arial, sans-serif">2026</text>
  </g>
  <line x1="770" y1="50" x2="770" y2="350" class="chart-axis" stroke-width="1" />
  <line x1="60" y1="350" x2="770" y2="350" class="chart-axis" stroke-width="1" />
  <path d="M60,350 L60,345.16129032258067 C63.264367816091955,344.5161290322581 77.95402298850574,342.258064516129 84.48275862068965,340.3225806451613 C91.01149425287356,338.38709677419354 102.43678160919539,333.22580645161287 108.9655172413793,330.64516129032256 C115.49425287356321,328.06451612903226 126.91954022988504,322.90322580645164 133.44827586206895,320.9677419354839 C139.97701149425285,319.03225806451616 151.40229885057468,317.4193548387097 157.9310344827586,316.1290322580645 C164.45977011494253,314.83870967741933 175.88505747126436,312.58064516129036 182.41379310344828,311.2903225806452 C188.9425287356322,310 200.36781609195404,307.09677419354836 206.89655172413794,306.4516129032258 C213.42528735632183,306.4516129032258 224.8505747126437,306.4516129032258 231.3793103448276,306.4516129032258 C237.90804597701148,304.51612903225805 249.33333333333334,295.80645161290323 255.86206896551724,291.93548387096774 C262.39080459770116,288.06451612903226 273.81609195402297,280.6451612903226 280.34482758620686,277.4193548387097 C286.87356321839076,274.19354838709677 298.2988505747127,272.258064516129 304.82758620689657,267.741935483871 C311.35632183908046,263.2258064516129 322.7816091954023,246.7741935483871 329.3103448275862,243.5483870967742 C335.8390804597701,243.5483870967742 347.264367816092,243.5483870967742 353.7931034482759,243.5483870967742 C360.32183908045977,243.5483870967742 371.7471264367816,243.5483870967742 378.2758620689655,243.5483870967742 C384.8045977011494,243.5483870967742 396.2298850574713,243.5483870967742 402.7586206896552,243.5483870967742 C409.28735632183907,243.5483870967742 420.71264367816093,243.5483870967742 427.2413793103448,243.5483870967742 C433.7701149425287,240.3225806451613 445.1954022988506,225.80645161290323 451.7241379310345,219.3548387096774 C458.2528735632184,212.9032258064516 469.67816091954023,199.03225806451613 476.2068965517241,195.16129032258064 C482.735632183908,191.29032258064515 494.1609195402299,192.25806451612905 500.6896551724138,190.3225806451613 C507.2183908045977,188.38709677419357 518.6436781609195,183.2258064516129 525.1724137931035,180.64516129032256 C531.7011494252874,178.06451612903223 543.1264367816092,173.5483870967742 549.6551724137931,170.96774193548387 C556.1839080459771,168.38709677419354 567.6091954022988,163.2258064516129 574.1379310344828,161.29032258064515 C580.6666666666667,159.3548387096774 592.0919540229885,158.38709677419357 598.6206896551724,156.45161290322582 C605.1494252873564,154.51612903225808 616.5747126436781,150 623.1034482758621,146.7741935483871 C629.632183908046,143.5483870967742 641.0574712643678,135.48387096774192 647.5862068965517,132.25806451612902 C654.1149425287357,129.03225806451613 665.5402298850574,124.51612903225808 672.0689655172414,122.58064516129033 C678.5977011494253,120.64516129032259 690.0229885057471,119.67741935483872 696.551724137931,117.74193548387098 C703.080459770115,115.80645161290323 714.5057471264367,112.58064516129035 721.0344827586207,108.06451612903228 C727.5632183908046,103.54838709677422 738.9885057471264,87.74193548387098 745.5172413793103,83.87096774193549 C752.0459770114943,80 766.735632183908,79.67741935483873 770,79.03225806451616 L770,350 L60,350 Z" fill="#6b63ff" fill-opacity="0.1" />
  <path d="M60,350 L60,345.16129032258067 C63.264367816091955,344.5161290322581 77.95402298850574,342.258064516129 84.48275862068965,340.3225806451613 C91.01149425287356,338.38709677419354 102.43678160919539,333.22580645161287 108.9655172413793,330.64516129032256 C115.49425287356321,328.06451612903226 126.91954022988504,322.90322580645164 133.44827586206895,320.9677419354839 C139.97701149425285,319.03225806451616 151.40229885057468,317.4193548387097 157.9310344827586,316.1290322580645 C164.45977011494253,314.83870967741933 175.88505747126436,312.58064516129036 182.41379310344828,311.2903225806452 C188.9425287356322,310 200.36781609195404,307.09677419354836 206.89655172413794,306.4516129032258 C213.42528735632183,306.4516129032258 224.8505747126437,306.4516129032258 231.3793103448276,306.4516129032258 C237.90804597701148,304.51612903225805 249.33333333333334,295.80645161290323 255.86206896551724,291.93548387096774 C262.39080459770116,288.06451612903226 273.81609195402297,280.6451612903226 280.34482758620686,277.4193548387097 C286.87356321839076,274.19354838709677 298.2988505747127,272.258064516129 304.82758620689657,267.741935483871 C311.35632183908046,263.2258064516129 322.7816091954023,246.7741935483871 329.3103448275862,243.5483870967742 C335.8390804597701,243.5483870967742 347.264367816092,243.5483870967742 353.7931034482759,243.5483870967742 C360.32183908045977,243.5483870967742 371.7471264367816,243.5483870967742 378.2758620689655,243.5483870967742 C384.8045977011494,243.5483870967742 396.2298850574713,243.5483870967742 402.7586206896552,243.5483870967742 C409.28735632183907,243.5483870967742 420.71264367816093,243.5483870967742 427.2413793103448,243.5483870967742 C433.7701149425287,240.3225806451613 445.1954022988506,225.80645161290323 451.7241379310345,219.3548387096774 C458.2528735632184,212.9032258064516 469.67816091954023,199.03225806451613 476.2068965517241,195.16129032258064 C482.735632183908,191.29032258064515 494.1609195402299,192.25806451612905 500.6896551724138,190.3225806451613 C507.2183908045977,188.38709677419357 518.6436781609195,183.2258064516129 525.1724137931035,180.64516129032256 C531.7011494252874,178.06451612903223 543.1264367816092,173.5483870967742 549.6551724137931,170.96774193548387 C556.1839080459771,168.38709677419354 567.6091954022988,163.2258064516129 574.1379310344828,161.29032258064515 C580.6666666666667,159.3548387096774 592.0919540229885,158.38709677419357 598.6206896551724,156.45161290322582 C605.1494252873564,154.51612903225808 616.5747126436781,150 623.1034482758621,146.7741935483871 C629.632183908046,143.5483870967742 641.0574712643678,135.48387096774192 647.5862068965517,132.25806451612902 C654.1149425287357,129.03225806451613 665.5402298850574,124.51612903225808 672.0689655172414,122.58064516129033 C678.5977011494253,120.64516129032259 690.0229885057471,119.67741935483872 696.551724137931,117.74193548387098 C703.080459770115,115.80645161290323 714.5057471264367,112.58064516129035 721.0344827586207,108.06451612903228 C727.5632183908046,103.54838709677422 738.9885057471264,87.74193548387098 745.5172413793103,83.87096774193549 C752.0459770114943,80 766.735632183908,79.67741935483873 770,79.03225806451616" fill="none" stroke="#6b63ff" stroke-width="2.5" class="data-line-0" />
  <g class="points">
    
    <circle cx="60" cy="345.16129032258067" r="4" fill="#6b63ff" class="data-point" style="animation-delay: 1.50s" />
    <circle cx="84.48275862068965" cy="340.3225806451613" r="4" fill="#6b63ff" class="data-point" style="animation-delay: 1.55s" />
    <circle cx="108.9655172413793" cy="330.64516129032256" r="4" fill="#6b63ff" class="data-point" style="animation-delay: 1.60s" />
    <circle cx="133.44827586206895" cy="320.9677419354839" r="4" fill="#6b63ff" class="data-point" style="animation-delay: 1.65s" />
    <circle cx="157.9310344827586" cy="316.1290322580645" r="4" fill="#6b63ff" class="data-point" style="animation-delay: 1.70s" />
    <circle cx="182.41379310344828" cy="311.2903225806452" r="4" fill="#6b63ff" class="data-point" style="animation-delay: 1.75s" />
    <circle cx="206.89655172413794" cy="306.4516129032258" r="4" fill="#6b63ff" class="data-point" style="animation-delay: 1.80s" />
    <circle cx="231.3793103448276" cy="306.4516129032258" r="4" fill="#6b63ff" class="data-point" style="animation-delay: 1.85s" />
    <circle cx="255.86206896551724" cy="291.93548387096774" r="4" fill="#6b63ff" class="data-point" style="animation-delay: 1.90s" />
    <circle cx="280.34482758620686" cy="277.4193548387097" r="4" fill="#6b63ff" class="data-point" style="animation-delay: 1.95s" />
    <circle cx="304.82758620689657" cy="267.741935483871" r="4" fill="#6b63ff" class="data-point" style="animation-delay: 2.00s" />
    <circle cx="329.3103448275862" cy="243.5483870967742" r="4" fill="#6b63ff" class="data-point" style="animation-delay: 2.05s" />
    <circle cx="353.7931034482759" cy="243.5483870967742" r="4" fill="#6b63ff" class="data-point" style="animation-delay: 2.10s" />
    <circle cx="378.2758620689655" cy="243.5483870967742" r="4" fill="#6b63ff" class="data-point" style="animation-delay: 2.15s" />
    <circle cx="402.7586206896552" cy="243.5483870967742" r="4" fill="#6b63ff" class="data-point" style="animation-delay: 2.20s" />
    <circle cx="427.2413793103448" cy="243.5483870967742" r="4" fill="#6b63ff" class="data-point" style="animation-delay: 2.25s" />
    <circle cx="451.7241379310345" cy="219.3548387096774" r="4" fill="#6b63ff" class="data-point" style="animation-delay: 2.30s" />
    <circle cx="476.2068965517241" cy="195.16129032258064" r="4" fill="#6b63ff" class="data-point" style="animation-delay: 2.35s" />
    <circle cx="500.6896551724138" cy="190.3225806451613" r="4" fill="#6b63ff" class="data-point" style="animation-delay: 2.40s" />
    <circle cx="525.1724137931035" cy="180.64516129032256" r="4" fill="#6b63ff" class="data-point" style="animation-delay: 2.45s" />
    <circle cx="549.6551724137931" cy="170.96774193548387" r="4" fill="#6b63ff" class="data-point" style="animation-delay: 2.50s" />
    <circle cx="574.1379310344828" cy="161.29032258064515" r="4" fill="#6b63ff" class="data-point" style="animation-delay: 2.55s" />
    <circle cx="598.6206896551724" cy="156.45161290322582" r="4" fill="#6b63ff" class="data-point" style="animation-delay: 2.60s" />
    <circle cx="623.1034482758621" cy="146.7741935483871" r="4" fill="#6b63ff" class="data-point" style="animation-delay: 2.65s" />
    <circle cx="647.5862068965517" cy="132.25806451612902" r="4" fill="#6b63ff" class="data-point" style="animation-delay: 2.70s" />
    <circle cx="672.0689655172414" cy="122.58064516129033" r="4" fill="#6b63ff" class="data-point" style="animation-delay: 2.75s" />
    <circle cx="696.551724137931" cy="117.74193548387098" r="4" fill="#6b63ff" class="data-point" style="animation-delay: 2.80s" />
    <circle cx="721.0344827586207" cy="108.06451612903228" r="4" fill="#6b63ff" class="data-point" style="animation-delay: 2.85s" />
    <circle cx="745.5172413793103" cy="83.87096774193549" r="4" fill="#6b63ff" class="data-point" style="animation-delay: 2.90s" />
    <circle cx="770" cy="79.03225806451616" r="4" fill="#6b63ff" class="data-point" style="animation-delay: 2.95s" />
  </g>
</svg>