<svg xmlns="http://www.w3.org/2000/svg" viewBox="0 0 800 400" width="800" height="400">
  <style>
    @keyframes drawLine {
      to { stroke-dashoffset: 0; }
    }
    @keyframes fadeInPoint {
      from { opacity: 0; }
      to { opacity: 1; }
    }
    .data-line-0 {
      stroke-dasharray: 1178;
      stroke-dashoffset: 1178;
      animation: drawLine 2s ease-out forwards;
    }
    .data-point {
      opacity: 0;
      animation: fadeInPoint 0.5s ease-out forwards;
    }
    .chart-bg { fill: #fff; }
    .chart-text { fill: #24292e; }
    .chart-muted { fill: #6a737d; }
    .chart-grid { stroke: #eee; }
    .chart-axis { stroke: #6a737d; }
    @media (prefers-color-scheme: dark) {
      .chart-bg { fill: #0d1117; }
      .chart-text { fill: #e6edf3; }
      .chart-muted { fill: #8b949e; }
      .chart-grid { stroke: #21262d; }
      .chart-axis { stroke: #8b949e; }
    }
  </style>
  <rect width="800" height="400" class="chart-bg" />
  <text x="400" y="14" text-anchor="middle" class="chart-text" font-size="16" font-weight="bold" font-family="-apple-system, BlinkMacSystemFont, 'Segoe UI', Helvetica, Arial, sans-serif">qemus/qemu Star History</text>
  
  <g class="grid">
    <line x1="60" y1="350" x2="770" y2="350" class="chart-grid" stroke-opacity="0.3" />
    <text x="778" y="354" text-anchor="start" class="chart-muted" font-size="11" font-family="-apple-system, BlinkMacSystemFont, 'Segoe UI', Helvetica, Arial, sans-serif">0</text>
    <line x1="60" y1="277.4310595065312" x2="770" y2="277.4310595065312" class="chart-grid" stroke-opacity="0.3" />
    <text x="778" y="281.4310595065312" text-anchor="start" class="chart-muted" font-size="11" font-family="-apple-system, BlinkMacSystemFont, 'Segoe UI', Helvetica, Arial, sans-serif">500</text>
    <line x1="60" y1="204.86211901306243" x2="770" y2="204.86211901306243" class="chart-grid" stroke-opacity="0.3" />
    <text x="778" y="208.86211901306243" text-anchor="start" class="chart-muted" font-size="11" font-family="-apple-system, BlinkMacSystemFont, 'Segoe UI', Helvetica, Arial, sans-serif">1K</text>
    <line x1="60" y1="132.29317851959362" x2="770" y2="132.29317851959362" class="chart-grid" stroke-opacity="0.3" />
    <text x="778" y="136.29317851959362" text-anchor="start" class="chart-muted" font-size="11" font-family="-apple-system, BlinkMacSystemFont, 'Segoe UI', Helvetica, Arial, sans-serif">1.5K</text>
    <line x1="60" y1="59.72423802612485" x2="770" y2="59.72423802612485" class="chart-grid" stroke-opacity="0.3" />
    <text x="778" y="63.72423802612485" text-anchor="start" class="chart-muted" font-size="11" font-family="-apple-system, BlinkMacSystemFont, 'Segoe UI', Helvetica, Arial, sans-serif">2K</text>
  </g>
  <g class="milestones">
    
  </g>
  <g class="x-axis">
    <text x="60" y="370" text-anchor="middle" class="chart-muted" font-size="11" font-family="-apple-system, BlinkMacSystemFont, 'Segoe UI', Helvetica, Arial, sans-serif">2023</text>
    <text x="231.3793103448276" y="370" text-anchor="middle" class="chart-muted" font-size="11" font-family="-apple-system, BlinkMacSystemFont, 'Segoe UI', Helvetica, Arial, sans-serif">2024</text>
    <text x="451.7241379310345" y="370" text-anchor="middle" class="chart-muted" font-size="11" font-family="-apple-system, BlinkMacSystemFont, 'Segoe UI', Helvetica, Arial, sans-serif">2025</text>
    <text x="672.0689655172414" y="370" text-anchor="middle" class="chart-muted" font-size="11" font-family="-apple-system, BlinkMacSystemFont, 'Segoe UI', Helvetica, Arial, sans-serif">2026</text>
  </g>
  <line x1="770" y1="50" x2="770" y2="350" class="chart-axis" stroke-width="1" />
  <line x1="60" y1="350" x2="770" y2="350" class="chart-axis" stroke-width="1" />
  <path d="M60,350 L60,349.85486211901303 C68.16091954022988,349.6613449443638 76.32183908045977,349.54039671020803 84.48275862068965,349.2743105950653 C92.64367816091954,349.00822447992255 100.80459770114942,348.6937590711176 108.9655172413793,348.25834542815676 C117.12643678160919,347.8229317851959 125.28735632183907,347.0730527334301 133.44827586206895,346.6618287373004 C141.60919540229884,346.2506047411708 149.77011494252872,346.2747943880019 157.9310344827586,345.7910014513788 C166.0919540229885,345.3072085147557 174.2528735632184,344.4847605224964 182.41379310344828,343.7590711175617 C190.57471264367817,343.03338171262703 198.73563218390805,342.3802612481858 206.89655172413794,341.4368650217707 C215.05747126436782,340.4934687953556 223.2183908045977,340.37252056119985 231.3793103448276,338.0986937590711 C239.54022988505747,335.8248669569424 247.70114942528735,330.86598935655536 255.86206896551724,327.7939042089985 C264.0229885057471,324.7218190614417 272.183908045977,322.66569908079344 280.34482758620686,319.66618287373007 C288.50574712643675,316.6666666666667 296.6666666666667,312.1915820029028 304.82758620689657,309.7968069666183 C312.98850574712645,307.40203193033386 321.14942528735634,307.11175616836 329.3103448275862,305.29753265602324 C337.4712643678161,303.4833091436865 345.632183908046,301.23367198838895 353.7931034482759,298.91146589259796 C361.95402298850576,296.58925979680697 370.11494252873564,293.5655539429124 378.2758620689655,291.3642960812772 C386.4367816091954,289.163038219642 394.5977011494253,288.29221093372036 402.7586206896552,285.7039187227866 C410.91954022988506,283.1156265118529 419.08045977011494,278.76149008224485 427.2413793103448,275.8345428156749 C435.4022988505747,272.907595549105 443.5632183908046,270.3918722786647 451.7241379310345,268.1422351233672 C459.88505747126436,265.89259796806965 468.04597701149424,265.09433962264154 476.2068965517241,262.3367198838897 C484.367816091954,259.5791001451379 492.5287356321839,255.73294629898405 500.6896551724138,251.59651669085633 C508.85057471264366,247.4600870827286 517.0114942528736,241.63038219641996 525.1724137931035,237.51814223512338 C533.3333333333334,233.40590227382683 541.4942528735633,230.9869375907112 549.6551724137931,226.92307692307693 C557.816091954023,222.85921625544267 565.9770114942529,219.93226898887278 574.1379310344828,213.13497822931785 C582.2988505747127,206.33768746976293 590.4597701149426,194.02515723270437 598.6206896551724,186.13933236574744 C606.7816091954023,178.2535074987905 614.9425287356322,175.56845670053218 623.1034482758621,165.8200290275762 C631.264367816092,156.0716013546202 639.4252873563219,135.92162554426707 647.5862068965517,127.64876632801162 C655.7471264367816,119.37590711175618 663.9080459770115,120.29511369134009 672.0689655172414,116.18287373004353 C680.2298850574713,112.07063376874696 688.3908045977012,106.62796323173681 696.551724137931,102.97532656023222 C704.7126436781609,99.32268988872762 712.8735632183908,97.48427672955977 721.0344827586207,94.26705370101598 C729.1954022988506,91.0498306724722 737.3563218390805,86.50217706821479 745.5172413793103,83.67198838896951 C753.6781609195402,80.84179970972423 761.8390804597701,79.41461054668603 770,77.28592162554429 L770,350 L60,350 Z" fill="#6b63ff" fill-opacity="0.1" />
  <path d="M60,350 L60,349.85486211901303 C68.16091954022988,349.6613449443638 76.32183908045977,349.54039671020803 84.48275862068965,349.2743105950653 C92.64367816091954,349.00822447992255 100.80459770114942,348.6937590711176 108.9655172413793,348.25834542815676 C117.12643678160919,347.8229317851959 125.28735632183907,347.0730527334301 133.44827586206895,346.6618287373004 C141.60919540229884,346.2506047411708 149.77011494252872,346.2747943880019 157.9310344827586,345.7910014513788 C166.0919540229885,345.3072085147557 174.2528735632184,344.4847605224964 182.41379310344828,343.7590711175617 C190.57471264367817,343.03338171262703 198.73563218390805,342.3802612481858 206.89655172413794,341.4368650217707 C215.05747126436782,340.4934687953556 223.2183908045977,340.37252056119985 231.3793103448276,338.0986937590711 C239.54022988505747,335.8248669569424 247.70114942528735,330.86598935655536 255.86206896551724,327.7939042089985 C264.0229885057471,324.7218190614417 272.183908045977,322.66569908079344 280.34482758620686,319.66618287373007 C288.50574712643675,316.6666666666667 296.6666666666667,312.1915820029028 304.82758620689657,309.7968069666183 C312.98850574712645,307.40203193033386 321.14942528735634,307.11175616836 329.3103448275862,305.29753265602324 C337.4712643678161,303.4833091436865 345.632183908046,301.23367198838895 353.7931034482759,298.91146589259796 C361.95402298850576,296.58925979680697 370.11494252873564,293.5655539429124 378.2758620689655,291.3642960812772 C386.4367816091954,289.163038219642 394.5977011494253,288.29221093372036 402.7586206896552,285.7039187227866 C410.91954022988506,283.1156265118529 419.08045977011494,278.76149008224485 427.2413793103448,275.8345428156749 C435.4022988505747,272.907595549105 443.5632183908046,270.3918722786647 451.7241379310345,268.1422351233672 C459.88505747126436,265.89259796806965 468.04597701149424,265.09433962264154 476.2068965517241,262.3367198838897 C484.367816091954,259.5791001451379 492.5287356321839,255.73294629898405 500.6896551724138,251.59651669085633 C508.85057471264366,247.4600870827286 517.0114942528736,241.63038219641996 525.1724137931035,237.51814223512338 C533.3333333333334,233.40590227382683 541.4942528735633,230.9869375907112 549.6551724137931,226.92307692307693 C557.816091954023,222.85921625544267 565.9770114942529,219.93226898887278 574.1379310344828,213.13497822931785 C582.2988505747127,206.33768746976293 590.4597701149426,194.02515723270437 598.6206896551724,186.13933236574744 C606.7816091954023,178.2535074987905 614.9425287356322,175.56845670053218 623.1034482758621,165.8200290275762 C631.264367816092,156.0716013546202 639.4252873563219,135.92162554426707 647.5862068965517,127.64876632801162 C655.7471264367816,119.37590711175618 663.9080459770115,120.29511369134009 672.0689655172414,116.18287373004353 C680.2298850574713,112.07063376874696 688.3908045977012,106.62796323173681 696.551724137931,102.97532656023222 C704.7126436781609,99.32268988872762 712.8735632183908,97.48427672955977 721.0344827586207,94.26705370101598 C729.1954022988506,91.0498306724722 737.3563218390805,86.50217706821479 745.5172413793103,83.67198838896951 C753.6781609195402,80.84179970972423 761.8390804597701,79.41461054668603 770,77.28592162554429" fill="none" stroke="#6b63ff" stroke-width="2.5" class="data-line-0" />
  <g class="points">
    
    <circle cx="60" cy="349.85486211901303" r="4" fill="#6b63ff" class="data-point" style="animation-delay: 1.50s" />
    <circle cx="84.48275862068965" cy="349.2743105950653" r="4" fill="#6b63ff" class="data-point" style="animation-delay: 1.55s" />
    <circle cx="108.9655172413793" cy="348.25834542815676" r="4" fill="#6b63ff" class="data-point" style="animation-delay: 1.60s" />
    <circle cx="133.44827586206895" cy="346.6618287373004" r="4" fill="#6b63ff" class="data-point" style="animation-delay: 1.65s" />
    <circle cx="157.9310344827586" cy="345.7910014513788" r="4" fill="#6b63ff" class="data-point" style="animation-delay: 1.70s" />
    <circle cx="182.41379310344828" cy="343.7590711175617" r="4" fill="#6b63ff" class="data-point" style="animation-delay: 1.75s" />
    <circle cx="206.89655172413794" cy="341.4368650217707" r="4" fill="#6b63ff" class="data-point" style="animation-delay: 1.80s" />
    <circle cx="231.3793103448276" cy="338.0986937590711" r="4" fill="#6b63ff" class="data-point" style="animation-delay: 1.85s" />
    <circle cx="255.86206896551724" cy="327.7939042089985" r="4" fill="#6b63ff" class="data-point" style="animation-delay: 1.90s" />
    <circle cx="280.34482758620686" cy="319.66618287373007" r="4" fill="#6b63ff" class="data-point" style="animation-delay: 1.95s" />
    <circle cx="304.82758620689657" cy="309.7968069666183" r="4" fill="#6b63ff" class="data-point" style="animation-delay: 2.00s" />
    <circle cx="329.3103448275862" cy="305.29753265602324" r="4" fill="#6b63ff" class="data-point" style="animation-delay: 2.05s" />
    <circle cx="353.7931034482759" cy="298.91146589259796" r="4" fill="#6b63ff" class="data-point" style="animation-delay: 2.10s" />
    <circle cx="378.2758620689655" cy="291.3642960812772" r="4" fill="#6b63ff" class="data-point" style="animation-delay: 2.15s" />
    <circle cx="402.7586206896552" cy="285.7039187227866" r="4" fill="#6b63ff" class="data-point" style="animation-delay: 2.20s" />
    <circle cx="427.2413793103448" cy="275.8345428156749" r="4" fill="#6b63ff" class="data-point" style="animation-delay: 2.25s" />
    <circle cx="451.7241379310345" cy="268.1422351233672" r="4" fill="#6b63ff" class="data-point" style="animation-delay: 2.30s" />
    <circle cx="476.2068965517241" cy="262.3367198838897" r="4" fill="#6b63ff" class="data-point" style="animation-delay: 2.35s" />
    <circle cx="500.6896551724138" cy="251.59651669085633" r="4" fill="#6b63ff" class="data-point" style="animation-delay: 2.40s" />
    <circle cx="525.1724137931035" cy="237.51814223512338" r="4" fill="#6b63ff" class="data-point" style="animation-delay: 2.45s" />
    <circle cx="549.6551724137931" cy="226.92307692307693" r="4" fill="#6b63ff" class="data-point" style="animation-delay: 2.50s" />
    <circle cx="574.1379310344828" cy="213.13497822931785" r="4" fill="#6b63ff" class="data-point" style="animation-delay: 2.55s" />
    <circle cx="598.6206896551724" cy="186.13933236574744" r="4" fill="#6b63ff" class="data-point" style="animation-delay: 2.60s" />
    <circle cx="623.1034482758621" cy="165.8200290275762" r="4" fill="#6b63ff" class="data-point" style="animation-delay: 2.65s" />
    <circle cx="647.5862068965517" cy="127.64876632801162" r="4" fill="#6b63ff" class="data-point" style="animation-delay: 2.70s" />
    <circle cx="672.0689655172414" cy="116.18287373004353" r="4" fill="#6b63ff" class="data-point" style="animation-delay: 2.75s" />
    <circle cx="696.551724137931" cy="102.97532656023222" r="4" fill="#6b63ff" class="data-point" style="animation-delay: 2.80s" />
    <circle cx="721.0344827586207" cy="94.26705370101598" r="4" fill="#6b63ff" class="data-point" style="animation-delay: 2.85s" />
    <circle cx="745.5172413793103" cy="83.67198838896951" r="4" fill="#6b63ff" class="data-point" style="animation-delay: 2.90s" />
    <circle cx="770" cy="77.28592162554429" r="4" fill="#6b63ff" class="data-point" style="animation-delay: 2.95s" />
  </g>
</svg>