<svg xmlns="http://www.w3.org/2000/svg" viewBox="0 0 800 400" width="800" height="400">
  <style>
    @keyframes drawLine {
      to { stroke-dashoffset: 0; }
    }
    @keyframes fadeInPoint {
      from { opacity: 0; }
      to { opacity: 1; }
    }
    .data-line-0 {
      stroke-dasharray: 1178;
      stroke-dashoffset: 1178;
      animation: drawLine 2s ease-out forwards;
    }
    .data-point {
      opacity: 0;
      animation: fadeInPoint 0.5s ease-out forwards;
    }
    .chart-bg { fill: #fff; }
    .chart-text { fill: #24292e; }
    .chart-muted { fill: #6a737d; }
    .chart-grid { stroke: #eee; }
    .chart-axis { stroke: #6a737d; }
    @media (prefers-color-scheme: dark) {
      .chart-bg { fill: #0d1117; }
      .chart-text { fill: #e6edf3; }
      .chart-muted { fill: #8b949e; }
      .chart-grid { stroke: #21262d; }
      .chart-axis { stroke: #8b949e; }
    }
  </style>
  <rect width="800" height="400" class="chart-bg" />
  <text x="400" y="34" text-anchor="middle" class="chart-text" font-size="16" font-weight="bold" font-family="-apple-system, BlinkMacSystemFont, 'Segoe UI', Helvetica, Arial, sans-serif">qemus/qemu Star History</text>
  
  <g class="grid">
    <line x1="60" y1="350" x2="770" y2="350" class="chart-grid" stroke-opacity="0.3" />
    <text x="778" y="354" text-anchor="start" class="chart-muted" font-size="11" font-family="-apple-system, BlinkMacSystemFont, 'Segoe UI', Helvetica, Arial, sans-serif">0</text>
    <line x1="60" y1="277.21979621542937" x2="770" y2="277.21979621542937" class="chart-grid" stroke-opacity="0.3" />
    <text x="778" y="281.21979621542937" text-anchor="start" class="chart-muted" font-size="11" font-family="-apple-system, BlinkMacSystemFont, 'Segoe UI', Helvetica, Arial, sans-serif">500</text>
    <line x1="60" y1="204.4395924308588" x2="770" y2="204.4395924308588" class="chart-grid" stroke-opacity="0.3" />
    <text x="778" y="208.4395924308588" text-anchor="start" class="chart-muted" font-size="11" font-family="-apple-system, BlinkMacSystemFont, 'Segoe UI', Helvetica, Arial, sans-serif">1K</text>
    <line x1="60" y1="131.65938864628822" x2="770" y2="131.65938864628822" class="chart-grid" stroke-opacity="0.3" />
    <text x="778" y="135.65938864628822" text-anchor="start" class="chart-muted" font-size="11" font-family="-apple-system, BlinkMacSystemFont, 'Segoe UI', Helvetica, Arial, sans-serif">1.5K</text>
    <line x1="60" y1="58.87918486171759" x2="770" y2="58.87918486171759" class="chart-grid" stroke-opacity="0.3" />
    <text x="778" y="62.87918486171759" text-anchor="start" class="chart-muted" font-size="11" font-family="-apple-system, BlinkMacSystemFont, 'Segoe UI', Helvetica, Arial, sans-serif">2K</text>
  </g>
  <g class="milestones">
    
  </g>
  <g class="x-axis">
    <text x="60" y="370" text-anchor="middle" class="chart-muted" font-size="11" font-family="-apple-system, BlinkMacSystemFont, 'Segoe UI', Helvetica, Arial, sans-serif">2023</text>
    <text x="231.3793103448276" y="370" text-anchor="middle" class="chart-muted" font-size="11" font-family="-apple-system, BlinkMacSystemFont, 'Segoe UI', Helvetica, Arial, sans-serif">2024</text>
    <text x="451.7241379310345" y="370" text-anchor="middle" class="chart-muted" font-size="11" font-family="-apple-system, BlinkMacSystemFont, 'Segoe UI', Helvetica, Arial, sans-serif">2025</text>
    <text x="672.0689655172414" y="370" text-anchor="middle" class="chart-muted" font-size="11" font-family="-apple-system, BlinkMacSystemFont, 'Segoe UI', Helvetica, Arial, sans-serif">2026</text>
  </g>
  <line x1="770" y1="50" x2="770" y2="350" class="chart-axis" stroke-width="1" />
  <line x1="60" y1="350" x2="770" y2="350" class="chart-axis" stroke-width="1" />
  <path d="M60,350 L60,349.8544395924309 L84.48275862068965,349.2721979621543 L108.9655172413793,348.2532751091703 L133.44827586206895,346.65211062590976 L157.9310344827586,345.7787481804949 L182.41379310344828,343.74090247452693 L206.89655172413794,341.41193595342065 L231.3793103448276,338.0640465793304 L255.86206896551724,327.87481804949056 L280.34482758620686,319.72343522561863 L304.82758620689657,309.9708879184862 L329.3103448275862,305.31295487627364 L353.7931034482759,298.90829694323145 L378.2758620689655,291.19359534206694 L402.7586206896552,285.9534206695779 L427.2413793103448,275.9097525473071 L451.7241379310345,268.04949053857354 L476.2068965517241,262.2270742358079 L500.6896551724138,251.60116448326056 L525.1724137931035,237.9184861717613 L549.6551724137931,227.87481804949053 L574.1379310344828,213.02765647743814 L598.6206896551724,186.53566229985444 L623.1034482758621,165.5749636098981 L647.5862068965517,127.58369723435226 L672.0689655172414,115.79330422125182 L696.551724137931,103.12954876273653 L721.0344827586207,93.95924308588064 L745.5172413793103,83.47889374090249 L770,77.36535662299855 L770,350 L60,350 Z" fill="#6b63ff" fill-opacity="0.1" />
  <path d="M60,350 L60,349.8544395924309 L84.48275862068965,349.2721979621543 L108.9655172413793,348.2532751091703 L133.44827586206895,346.65211062590976 L157.9310344827586,345.7787481804949 L182.41379310344828,343.74090247452693 L206.89655172413794,341.41193595342065 L231.3793103448276,338.0640465793304 L255.86206896551724,327.87481804949056 L280.34482758620686,319.72343522561863 L304.82758620689657,309.9708879184862 L329.3103448275862,305.31295487627364 L353.7931034482759,298.90829694323145 L378.2758620689655,291.19359534206694 L402.7586206896552,285.9534206695779 L427.2413793103448,275.9097525473071 L451.7241379310345,268.04949053857354 L476.2068965517241,262.2270742358079 L500.6896551724138,251.60116448326056 L525.1724137931035,237.9184861717613 L549.6551724137931,227.87481804949053 L574.1379310344828,213.02765647743814 L598.6206896551724,186.53566229985444 L623.1034482758621,165.5749636098981 L647.5862068965517,127.58369723435226 L672.0689655172414,115.79330422125182 L696.551724137931,103.12954876273653 L721.0344827586207,93.95924308588064 L745.5172413793103,83.47889374090249 L770,77.36535662299855" fill="none" stroke="#6b63ff" stroke-width="2.5" class="data-line-0" />
  <g class="points">
    
    <circle cx="60" cy="349.8544395924309" r="4" fill="#6b63ff" class="data-point" style="animation-delay: 1.50s" />
    <circle cx="84.48275862068965" cy="349.2721979621543" r="4" fill="#6b63ff" class="data-point" style="animation-delay: 1.55s" />
    <circle cx="108.9655172413793" cy="348.2532751091703" r="4" fill="#6b63ff" class="data-point" style="animation-delay: 1.60s" />
    <circle cx="133.44827586206895" cy="346.65211062590976" r="4" fill="#6b63ff" class="data-point" style="animation-delay: 1.65s" />
    <circle cx="157.9310344827586" cy="345.7787481804949" r="4" fill="#6b63ff" class="data-point" style="animation-delay: 1.70s" />
    <circle cx="182.41379310344828" cy="343.74090247452693" r="4" fill="#6b63ff" class="data-point" style="animation-delay: 1.75s" />
    <circle cx="206.89655172413794" cy="341.41193595342065" r="4" fill="#6b63ff" class="data-point" style="animation-delay: 1.80s" />
    <circle cx="231.3793103448276" cy="338.0640465793304" r="4" fill="#6b63ff" class="data-point" style="animation-delay: 1.85s" />
    <circle cx="255.86206896551724" cy="327.87481804949056" r="4" fill="#6b63ff" class="data-point" style="animation-delay: 1.90s" />
    <circle cx="280.34482758620686" cy="319.72343522561863" r="4" fill="#6b63ff" class="data-point" style="animation-delay: 1.95s" />
    <circle cx="304.82758620689657" cy="309.9708879184862" r="4" fill="#6b63ff" class="data-point" style="animation-delay: 2.00s" />
    <circle cx="329.3103448275862" cy="305.31295487627364" r="4" fill="#6b63ff" class="data-point" style="animation-delay: 2.05s" />
    <circle cx="353.7931034482759" cy="298.90829694323145" r="4" fill="#6b63ff" class="data-point" style="animation-delay: 2.10s" />
    <circle cx="378.2758620689655" cy="291.19359534206694" r="4" fill="#6b63ff" class="data-point" style="animation-delay: 2.15s" />
    <circle cx="402.7586206896552" cy="285.9534206695779" r="4" fill="#6b63ff" class="data-point" style="animation-delay: 2.20s" />
    <circle cx="427.2413793103448" cy="275.9097525473071" r="4" fill="#6b63ff" class="data-point" style="animation-delay: 2.25s" />
    <circle cx="451.7241379310345" cy="268.04949053857354" r="4" fill="#6b63ff" class="data-point" style="animation-delay: 2.30s" />
    <circle cx="476.2068965517241" cy="262.2270742358079" r="4" fill="#6b63ff" class="data-point" style="animation-delay: 2.35s" />
    <circle cx="500.6896551724138" cy="251.60116448326056" r="4" fill="#6b63ff" class="data-point" style="animation-delay: 2.40s" />
    <circle cx="525.1724137931035" cy="237.9184861717613" r="4" fill="#6b63ff" class="data-point" style="animation-delay: 2.45s" />
    <circle cx="549.6551724137931" cy="227.87481804949053" r="4" fill="#6b63ff" class="data-point" style="animation-delay: 2.50s" />
    <circle cx="574.1379310344828" cy="213.02765647743814" r="4" fill="#6b63ff" class="data-point" style="animation-delay: 2.55s" />
    <circle cx="598.6206896551724" cy="186.53566229985444" r="4" fill="#6b63ff" class="data-point" style="animation-delay: 2.60s" />
    <circle cx="623.1034482758621" cy="165.5749636098981" r="4" fill="#6b63ff" class="data-point" style="animation-delay: 2.65s" />
    <circle cx="647.5862068965517" cy="127.58369723435226" r="4" fill="#6b63ff" class="data-point" style="animation-delay: 2.70s" />
    <circle cx="672.0689655172414" cy="115.79330422125182" r="4" fill="#6b63ff" class="data-point" style="animation-delay: 2.75s" />
    <circle cx="696.551724137931" cy="103.12954876273653" r="4" fill="#6b63ff" class="data-point" style="animation-delay: 2.80s" />
    <circle cx="721.0344827586207" cy="93.95924308588064" r="4" fill="#6b63ff" class="data-point" style="animation-delay: 2.85s" />
    <circle cx="745.5172413793103" cy="83.47889374090249" r="4" fill="#6b63ff" class="data-point" style="animation-delay: 2.90s" />
    <circle cx="770" cy="77.36535662299855" r="4" fill="#6b63ff" class="data-point" style="animation-delay: 2.95s" />
  </g>
</svg>