<svg xmlns="http://www.w3.org/2000/svg" viewBox="0 0 800 400" width="800" height="400">
  <style>
    @keyframes drawLine {
      to { stroke-dashoffset: 0; }
    }
    @keyframes fadeInPoint {
      from { opacity: 0; }
      to { opacity: 1; }
    }
    .data-line-0 {
      stroke-dasharray: 1228;
      stroke-dashoffset: 1228;
      animation: drawLine 2s ease-out forwards;
    }
    .data-point {
      opacity: 0;
      animation: fadeInPoint 0.5s ease-out forwards;
    }
    .chart-bg { fill: #fff; }
    .chart-text { fill: #24292e; }
    .chart-muted { fill: #6a737d; }
    .chart-grid { stroke: #eee; }
    .chart-axis { stroke: #6a737d; }
    @media (prefers-color-scheme: dark) {
      .chart-bg { fill: #0d1117; }
      .chart-text { fill: #e6edf3; }
      .chart-muted { fill: #8b949e; }
      .chart-grid { stroke: #21262d; }
      .chart-axis { stroke: #8b949e; }
    }
  </style>
  <rect width="800" height="400" class="chart-bg" />
  <text x="400" y="34" text-anchor="middle" class="chart-text" font-size="16" font-weight="bold" font-family="-apple-system, BlinkMacSystemFont, 'Segoe UI', Helvetica, Arial, sans-serif">qemus/qemu-host Star History</text>
  
  <g class="grid">
    <line x1="60" y1="350" x2="770" y2="350" class="chart-grid" stroke-opacity="0.3" />
    <text x="778" y="354" text-anchor="start" class="chart-muted" font-size="11" font-family="-apple-system, BlinkMacSystemFont, 'Segoe UI', Helvetica, Arial, sans-serif">0</text>
    <line x1="60" y1="256.25" x2="770" y2="256.25" class="chart-grid" stroke-opacity="0.3" />
    <text x="778" y="260.25" text-anchor="start" class="chart-muted" font-size="11" font-family="-apple-system, BlinkMacSystemFont, 'Segoe UI', Helvetica, Arial, sans-serif">10</text>
    <line x1="60" y1="162.5" x2="770" y2="162.5" class="chart-grid" stroke-opacity="0.3" />
    <text x="778" y="166.5" text-anchor="start" class="chart-muted" font-size="11" font-family="-apple-system, BlinkMacSystemFont, 'Segoe UI', Helvetica, Arial, sans-serif">20</text>
    <line x1="60" y1="68.75" x2="770" y2="68.75" class="chart-grid" stroke-opacity="0.3" />
    <text x="778" y="72.75" text-anchor="start" class="chart-muted" font-size="11" font-family="-apple-system, BlinkMacSystemFont, 'Segoe UI', Helvetica, Arial, sans-serif">30</text>
  </g>
  <g class="milestones">
    
  </g>
  <g class="x-axis">
    <text x="60" y="370" text-anchor="middle" class="chart-muted" font-size="11" font-family="-apple-system, BlinkMacSystemFont, 'Segoe UI', Helvetica, Arial, sans-serif">2023</text>
    <text x="231.3793103448276" y="370" text-anchor="middle" class="chart-muted" font-size="11" font-family="-apple-system, BlinkMacSystemFont, 'Segoe UI', Helvetica, Arial, sans-serif">2024</text>
    <text x="451.7241379310345" y="370" text-anchor="middle" class="chart-muted" font-size="11" font-family="-apple-system, BlinkMacSystemFont, 'Segoe UI', Helvetica, Arial, sans-serif">2025</text>
    <text x="672.0689655172414" y="370" text-anchor="middle" class="chart-muted" font-size="11" font-family="-apple-system, BlinkMacSystemFont, 'Segoe UI', Helvetica, Arial, sans-serif">2026</text>
  </g>
  <line x1="770" y1="50" x2="770" y2="350" class="chart-axis" stroke-width="1" />
  <line x1="60" y1="350" x2="770" y2="350" class="chart-axis" stroke-width="1" />
  <path d="M60,350 L60,340.625 C63.264367816091955,340.625 77.95402298850574,340.625 84.48275862068965,340.625 C91.01149425287356,338.125 102.43678160919539,324.375 108.9655172413793,321.875 C115.49425287356321,321.875 126.91954022988504,321.875 133.44827586206895,321.875 C139.97701149425285,320.625 151.40229885057468,313.75 157.9310344827586,312.5 C164.45977011494253,312.5 175.88505747126436,312.5 182.41379310344828,312.5 C188.9425287356322,311.25 200.36781609195404,304.375 206.89655172413794,303.125 C213.42528735632183,303.125 224.8505747126437,303.125 231.3793103448276,303.125 C237.90804597701148,301.875 249.33333333333334,295 255.86206896551724,293.75 C262.39080459770116,293.75 273.81609195402297,293.75 280.34482758620686,293.75 C286.87356321839076,291.25 298.2988505747127,277.5 304.82758620689657,275 C311.35632183908046,275 322.7816091954023,275 329.3103448275862,275 C335.8390804597701,275 347.264367816092,275 353.7931034482759,275 C360.32183908045977,272.5 371.7471264367816,258.75 378.2758620689655,256.25 C384.8045977011494,256.25 396.2298850574713,256.25 402.7586206896552,256.25 C409.28735632183907,252.5 420.71264367816093,231.875 427.2413793103448,228.125 C433.7701149425287,228.125 445.1954022988506,228.125 451.7241379310345,228.125 C458.2528735632184,225.625 469.67816091954023,215.625 476.2068965517241,209.375 C482.735632183908,203.125 494.1609195402299,190 500.6896551724138,181.25 C507.2183908045977,172.5 518.6436781609195,151.25 525.1724137931035,143.75 C531.7011494252874,136.25 543.1264367816092,127.5 549.6551724137931,125 C556.1839080459771,125 567.6091954022988,125 574.1379310344828,125 C580.6666666666667,121.25 592.0919540229885,100.625 598.6206896551724,96.875 C605.1494252873564,96.875 616.5747126436781,96.875 623.1034482758621,96.875 C629.632183908046,96.875 641.0574712643678,96.875 647.5862068965517,96.875 C654.1149425287357,96.875 665.5402298850574,96.875 672.0689655172414,96.875 C678.5977011494253,95.625 690.0229885057471,88.75 696.551724137931,87.5 C703.080459770115,87.5 714.5057471264367,87.5 721.0344827586207,87.5 C727.5632183908046,87.5 738.9885057471264,87.5 745.5172413793103,87.5 C752.0459770114943,86.25 766.735632183908,79.375 770,78.125 L770,350 L60,350 Z" fill="#6b63ff" fill-opacity="0.1" />
  <path d="M60,350 L60,340.625 C63.264367816091955,340.625 77.95402298850574,340.625 84.48275862068965,340.625 C91.01149425287356,338.125 102.43678160919539,324.375 108.9655172413793,321.875 C115.49425287356321,321.875 126.91954022988504,321.875 133.44827586206895,321.875 C139.97701149425285,320.625 151.40229885057468,313.75 157.9310344827586,312.5 C164.45977011494253,312.5 175.88505747126436,312.5 182.41379310344828,312.5 C188.9425287356322,311.25 200.36781609195404,304.375 206.89655172413794,303.125 C213.42528735632183,303.125 224.8505747126437,303.125 231.3793103448276,303.125 C237.90804597701148,301.875 249.33333333333334,295 255.86206896551724,293.75 C262.39080459770116,293.75 273.81609195402297,293.75 280.34482758620686,293.75 C286.87356321839076,291.25 298.2988505747127,277.5 304.82758620689657,275 C311.35632183908046,275 322.7816091954023,275 329.3103448275862,275 C335.8390804597701,275 347.264367816092,275 353.7931034482759,275 C360.32183908045977,272.5 371.7471264367816,258.75 378.2758620689655,256.25 C384.8045977011494,256.25 396.2298850574713,256.25 402.7586206896552,256.25 C409.28735632183907,252.5 420.71264367816093,231.875 427.2413793103448,228.125 C433.7701149425287,228.125 445.1954022988506,228.125 451.7241379310345,228.125 C458.2528735632184,225.625 469.67816091954023,215.625 476.2068965517241,209.375 C482.735632183908,203.125 494.1609195402299,190 500.6896551724138,181.25 C507.2183908045977,172.5 518.6436781609195,151.25 525.1724137931035,143.75 C531.7011494252874,136.25 543.1264367816092,127.5 549.6551724137931,125 C556.1839080459771,125 567.6091954022988,125 574.1379310344828,125 C580.6666666666667,121.25 592.0919540229885,100.625 598.6206896551724,96.875 C605.1494252873564,96.875 616.5747126436781,96.875 623.1034482758621,96.875 C629.632183908046,96.875 641.0574712643678,96.875 647.5862068965517,96.875 C654.1149425287357,96.875 665.5402298850574,96.875 672.0689655172414,96.875 C678.5977011494253,95.625 690.0229885057471,88.75 696.551724137931,87.5 C703.080459770115,87.5 714.5057471264367,87.5 721.0344827586207,87.5 C727.5632183908046,87.5 738.9885057471264,87.5 745.5172413793103,87.5 C752.0459770114943,86.25 766.735632183908,79.375 770,78.125" fill="none" stroke="#6b63ff" stroke-width="2.5" class="data-line-0" />
  <g class="points">
    
    <circle cx="60" cy="340.625" r="4" fill="#6b63ff" class="data-point" style="animation-delay: 1.50s" />
    <circle cx="84.48275862068965" cy="340.625" r="4" fill="#6b63ff" class="data-point" style="animation-delay: 1.55s" />
    <circle cx="108.9655172413793" cy="321.875" r="4" fill="#6b63ff" class="data-point" style="animation-delay: 1.60s" />
    <circle cx="133.44827586206895" cy="321.875" r="4" fill="#6b63ff" class="data-point" style="animation-delay: 1.65s" />
    <circle cx="157.9310344827586" cy="312.5" r="4" fill="#6b63ff" class="data-point" style="animation-delay: 1.70s" />
    <circle cx="182.41379310344828" cy="312.5" r="4" fill="#6b63ff" class="data-point" style="animation-delay: 1.75s" />
    <circle cx="206.89655172413794" cy="303.125" r="4" fill="#6b63ff" class="data-point" style="animation-delay: 1.80s" />
    <circle cx="231.3793103448276" cy="303.125" r="4" fill="#6b63ff" class="data-point" style="animation-delay: 1.85s" />
    <circle cx="255.86206896551724" cy="293.75" r="4" fill="#6b63ff" class="data-point" style="animation-delay: 1.90s" />
    <circle cx="280.34482758620686" cy="293.75" r="4" fill="#6b63ff" class="data-point" style="animation-delay: 1.95s" />
    <circle cx="304.82758620689657" cy="275" r="4" fill="#6b63ff" class="data-point" style="animation-delay: 2.00s" />
    <circle cx="329.3103448275862" cy="275" r="4" fill="#6b63ff" class="data-point" style="animation-delay: 2.05s" />
    <circle cx="353.7931034482759" cy="275" r="4" fill="#6b63ff" class="data-point" style="animation-delay: 2.10s" />
    <circle cx="378.2758620689655" cy="256.25" r="4" fill="#6b63ff" class="data-point" style="animation-delay: 2.15s" />
    <circle cx="402.7586206896552" cy="256.25" r="4" fill="#6b63ff" class="data-point" style="animation-delay: 2.20s" />
    <circle cx="427.2413793103448" cy="228.125" r="4" fill="#6b63ff" class="data-point" style="animation-delay: 2.25s" />
    <circle cx="451.7241379310345" cy="228.125" r="4" fill="#6b63ff" class="data-point" style="animation-delay: 2.30s" />
    <circle cx="476.2068965517241" cy="209.375" r="4" fill="#6b63ff" class="data-point" style="animation-delay: 2.35s" />
    <circle cx="500.6896551724138" cy="181.25" r="4" fill="#6b63ff" class="data-point" style="animation-delay: 2.40s" />
    <circle cx="525.1724137931035" cy="143.75" r="4" fill="#6b63ff" class="data-point" style="animation-delay: 2.45s" />
    <circle cx="549.6551724137931" cy="125" r="4" fill="#6b63ff" class="data-point" style="animation-delay: 2.50s" />
    <circle cx="574.1379310344828" cy="125" r="4" fill="#6b63ff" class="data-point" style="animation-delay: 2.55s" />
    <circle cx="598.6206896551724" cy="96.875" r="4" fill="#6b63ff" class="data-point" style="animation-delay: 2.60s" />
    <circle cx="623.1034482758621" cy="96.875" r="4" fill="#6b63ff" class="data-point" style="animation-delay: 2.65s" />
    <circle cx="647.5862068965517" cy="96.875" r="4" fill="#6b63ff" class="data-point" style="animation-delay: 2.70s" />
    <circle cx="672.0689655172414" cy="96.875" r="4" fill="#6b63ff" class="data-point" style="animation-delay: 2.75s" />
    <circle cx="696.551724137931" cy="87.5" r="4" fill="#6b63ff" class="data-point" style="animation-delay: 2.80s" />
    <circle cx="721.0344827586207" cy="87.5" r="4" fill="#6b63ff" class="data-point" style="animation-delay: 2.85s" />
    <circle cx="745.5172413793103" cy="87.5" r="4" fill="#6b63ff" class="data-point" style="animation-delay: 2.90s" />
    <circle cx="770" cy="78.125" r="4" fill="#6b63ff" class="data-point" style="animation-delay: 2.95s" />
  </g>
</svg>