<svg xmlns="http://www.w3.org/2000/svg" viewBox="0 0 800 400" width="800" height="400">
  <style>
    @keyframes drawLine {
      to { stroke-dashoffset: 0; }
    }
    @keyframes fadeInPoint {
      from { opacity: 0; }
      to { opacity: 1; }
    }
    .data-line-0 {
      stroke-dasharray: 1178;
      stroke-dashoffset: 1178;
      animation: drawLine 2s ease-out forwards;
    }
    .data-point {
      opacity: 0;
      animation: fadeInPoint 0.5s ease-out forwards;
    }
    .chart-bg { fill: #fff; }
    .chart-text { fill: #24292e; }
    .chart-muted { fill: #6a737d; }
    .chart-grid { stroke: #eee; }
    .chart-axis { stroke: #6a737d; }
    @media (prefers-color-scheme: dark) {
      .chart-bg { fill: #0d1117; }
      .chart-text { fill: #e6edf3; }
      .chart-muted { fill: #8b949e; }
      .chart-grid { stroke: #21262d; }
      .chart-axis { stroke: #8b949e; }
    }
  </style>
  <rect width="800" height="400" class="chart-bg" />
  <text x="400" y="14" text-anchor="middle" class="chart-text" font-size="16" font-weight="bold" font-family="-apple-system, BlinkMacSystemFont, 'Segoe UI', Helvetica, Arial, sans-serif">qemus/qemu Star History</text>
  
  <g class="grid">
    <line x1="60" y1="350" x2="770" y2="350" class="chart-grid" stroke-opacity="0.3" />
    <text x="778" y="354" text-anchor="start" class="chart-muted" font-size="11" font-family="-apple-system, BlinkMacSystemFont, 'Segoe UI', Helvetica, Arial, sans-serif">0</text>
    <line x1="60" y1="277.4310595065312" x2="770" y2="277.4310595065312" class="chart-grid" stroke-opacity="0.3" />
    <text x="778" y="281.4310595065312" text-anchor="start" class="chart-muted" font-size="11" font-family="-apple-system, BlinkMacSystemFont, 'Segoe UI', Helvetica, Arial, sans-serif">500</text>
    <line x1="60" y1="204.86211901306243" x2="770" y2="204.86211901306243" class="chart-grid" stroke-opacity="0.3" />
    <text x="778" y="208.86211901306243" text-anchor="start" class="chart-muted" font-size="11" font-family="-apple-system, BlinkMacSystemFont, 'Segoe UI', Helvetica, Arial, sans-serif">1K</text>
    <line x1="60" y1="132.29317851959362" x2="770" y2="132.29317851959362" class="chart-grid" stroke-opacity="0.3" />
    <text x="778" y="136.29317851959362" text-anchor="start" class="chart-muted" font-size="11" font-family="-apple-system, BlinkMacSystemFont, 'Segoe UI', Helvetica, Arial, sans-serif">1.5K</text>
    <line x1="60" y1="59.72423802612485" x2="770" y2="59.72423802612485" class="chart-grid" stroke-opacity="0.3" />
    <text x="778" y="63.72423802612485" text-anchor="start" class="chart-muted" font-size="11" font-family="-apple-system, BlinkMacSystemFont, 'Segoe UI', Helvetica, Arial, sans-serif">2K</text>
  </g>
  <g class="milestones">
    
  </g>
  <g class="x-axis">
    <text x="60" y="370" text-anchor="middle" class="chart-muted" font-size="11" font-family="-apple-system, BlinkMacSystemFont, 'Segoe UI', Helvetica, Arial, sans-serif">2023</text>
    <text x="231.3793103448276" y="370" text-anchor="middle" class="chart-muted" font-size="11" font-family="-apple-system, BlinkMacSystemFont, 'Segoe UI', Helvetica, Arial, sans-serif">2024</text>
    <text x="451.7241379310345" y="370" text-anchor="middle" class="chart-muted" font-size="11" font-family="-apple-system, BlinkMacSystemFont, 'Segoe UI', Helvetica, Arial, sans-serif">2025</text>
    <text x="672.0689655172414" y="370" text-anchor="middle" class="chart-muted" font-size="11" font-family="-apple-system, BlinkMacSystemFont, 'Segoe UI', Helvetica, Arial, sans-serif">2026</text>
  </g>
  <line x1="770" y1="50" x2="770" y2="350" class="chart-axis" stroke-width="1" />
  <line x1="60" y1="350" x2="770" y2="350" class="chart-axis" stroke-width="1" />
  <path d="M60,350 L60,349.85486211901303 C68.16091954022988,349.6613449443638 76.32183908045977,349.54039671020803 84.48275862068965,349.2743105950653 C92.64367816091954,349.00822447992255 100.80459770114942,348.6937590711176 108.9655172413793,348.25834542815676 C117.12643678160919,347.8229317851959 125.28735632183907,347.0730527334301 133.44827586206895,346.6618287373004 C141.60919540229884,346.2506047411708 149.77011494252872,346.2989840348331 157.9310344827586,345.7910014513788 C166.0919540229885,345.2830188679245 174.2528735632184,344.33962264150944 182.41379310344828,343.6139332365747 C190.57471264367817,342.88824383164007 198.73563218390805,342.35607160135464 206.89655172413794,341.4368650217707 C215.05747126436782,340.51765844218676 223.2183908045977,340.396710208031 231.3793103448276,338.0986937590711 C239.54022988505747,335.80067731011127 247.70114942528735,330.74504112239964 255.86206896551724,327.6487663280116 C264.0229885057471,324.5524915336236 272.183908045977,322.5205611998065 280.34482758620686,319.5210449927431 C288.50574712643675,316.5215287856797 296.6666666666667,312.04644412191584 304.82758620689657,309.65166908563134 C312.98850574712645,307.2568940493469 321.14942528735634,306.96661828737297 329.3103448275862,305.15239477503627 C337.4712643678161,303.3381712626996 345.632183908046,301.088534107402 353.7931034482759,298.766328011611 C361.95402298850576,296.44412191582 370.11494252873564,293.4687953555878 378.2758620689655,291.2191582002903 C386.4367816091954,288.96952104499275 394.5977011494253,287.8567972907596 402.7586206896552,285.26850507982584 C410.91954022988506,282.6802128688921 419.08045977011494,278.54378326076437 427.2413793103448,275.68940493468796 C435.4022988505747,272.83502660861154 443.5632183908046,270.36768263183353 451.7241379310345,268.1422351233672 C459.88505747126436,265.91678761490084 468.04597701149424,265.23947750362845 476.2068965517241,262.3367198838897 C484.367816091954,259.433962264151 492.5287356321839,254.958877600387 500.6896551724138,250.72568940493468 C508.85057471264366,246.49250120948233 517.0114942528736,241.34010643444608 525.1724137931035,236.93759071117563 C533.3333333333334,232.5350749879052 541.4942528735633,228.3744557329463 549.6551724137931,224.31059506531204 C557.816091954023,220.24673439767778 565.9770114942529,219.0856313497823 574.1379310344828,212.5544267053701 C582.2988505747127,206.02322206095792 590.4597701149426,192.98500241896468 598.6206896551724,185.1233671988389 C606.7816091954023,177.26173197871313 614.9425287356322,175.0604741170779 623.1034482758621,165.3846153846154 C631.264367816092,155.70875665215289 639.4252873563219,135.43783260764394 647.5862068965517,127.06821480406387 C655.7471264367816,118.6985970004838 663.9080459770115,119.2549588776004 672.0689655172414,115.166908563135 C680.2298850574713,111.07885824866959 688.3908045977012,106.1441702951137 696.551724137931,102.53991291727141 C704.7126436781609,98.93565553942912 712.8735632183908,96.7343976777939 721.0344827586207,93.54136429608127 C729.1954022988506,90.34833091436865 737.3563218390805,86.09095307208513 745.5172413793103,83.38171262699564 C753.6781609195402,80.67247218190614 761.8390804597701,79.3178519593614 770,77.28592162554429 L770,350 L60,350 Z" fill="#6b63ff" fill-opacity="0.1" />
  <path d="M60,350 L60,349.85486211901303 C68.16091954022988,349.6613449443638 76.32183908045977,349.54039671020803 84.48275862068965,349.2743105950653 C92.64367816091954,349.00822447992255 100.80459770114942,348.6937590711176 108.9655172413793,348.25834542815676 C117.12643678160919,347.8229317851959 125.28735632183907,347.0730527334301 133.44827586206895,346.6618287373004 C141.60919540229884,346.2506047411708 149.77011494252872,346.2989840348331 157.9310344827586,345.7910014513788 C166.0919540229885,345.2830188679245 174.2528735632184,344.33962264150944 182.41379310344828,343.6139332365747 C190.57471264367817,342.88824383164007 198.73563218390805,342.35607160135464 206.89655172413794,341.4368650217707 C215.05747126436782,340.51765844218676 223.2183908045977,340.396710208031 231.3793103448276,338.0986937590711 C239.54022988505747,335.80067731011127 247.70114942528735,330.74504112239964 255.86206896551724,327.6487663280116 C264.0229885057471,324.5524915336236 272.183908045977,322.5205611998065 280.34482758620686,319.5210449927431 C288.50574712643675,316.5215287856797 296.6666666666667,312.04644412191584 304.82758620689657,309.65166908563134 C312.98850574712645,307.2568940493469 321.14942528735634,306.96661828737297 329.3103448275862,305.15239477503627 C337.4712643678161,303.3381712626996 345.632183908046,301.088534107402 353.7931034482759,298.766328011611 C361.95402298850576,296.44412191582 370.11494252873564,293.4687953555878 378.2758620689655,291.2191582002903 C386.4367816091954,288.96952104499275 394.5977011494253,287.8567972907596 402.7586206896552,285.26850507982584 C410.91954022988506,282.6802128688921 419.08045977011494,278.54378326076437 427.2413793103448,275.68940493468796 C435.4022988505747,272.83502660861154 443.5632183908046,270.36768263183353 451.7241379310345,268.1422351233672 C459.88505747126436,265.91678761490084 468.04597701149424,265.23947750362845 476.2068965517241,262.3367198838897 C484.367816091954,259.433962264151 492.5287356321839,254.958877600387 500.6896551724138,250.72568940493468 C508.85057471264366,246.49250120948233 517.0114942528736,241.34010643444608 525.1724137931035,236.93759071117563 C533.3333333333334,232.5350749879052 541.4942528735633,228.3744557329463 549.6551724137931,224.31059506531204 C557.816091954023,220.24673439767778 565.9770114942529,219.0856313497823 574.1379310344828,212.5544267053701 C582.2988505747127,206.02322206095792 590.4597701149426,192.98500241896468 598.6206896551724,185.1233671988389 C606.7816091954023,177.26173197871313 614.9425287356322,175.0604741170779 623.1034482758621,165.3846153846154 C631.264367816092,155.70875665215289 639.4252873563219,135.43783260764394 647.5862068965517,127.06821480406387 C655.7471264367816,118.6985970004838 663.9080459770115,119.2549588776004 672.0689655172414,115.166908563135 C680.2298850574713,111.07885824866959 688.3908045977012,106.1441702951137 696.551724137931,102.53991291727141 C704.7126436781609,98.93565553942912 712.8735632183908,96.7343976777939 721.0344827586207,93.54136429608127 C729.1954022988506,90.34833091436865 737.3563218390805,86.09095307208513 745.5172413793103,83.38171262699564 C753.6781609195402,80.67247218190614 761.8390804597701,79.3178519593614 770,77.28592162554429" fill="none" stroke="#6b63ff" stroke-width="2.5" class="data-line-0" />
  <g class="points">
    
    <circle cx="60" cy="349.85486211901303" r="4" fill="#6b63ff" class="data-point" style="animation-delay: 1.50s" />
    <circle cx="84.48275862068965" cy="349.2743105950653" r="4" fill="#6b63ff" class="data-point" style="animation-delay: 1.55s" />
    <circle cx="108.9655172413793" cy="348.25834542815676" r="4" fill="#6b63ff" class="data-point" style="animation-delay: 1.60s" />
    <circle cx="133.44827586206895" cy="346.6618287373004" r="4" fill="#6b63ff" class="data-point" style="animation-delay: 1.65s" />
    <circle cx="157.9310344827586" cy="345.7910014513788" r="4" fill="#6b63ff" class="data-point" style="animation-delay: 1.70s" />
    <circle cx="182.41379310344828" cy="343.6139332365747" r="4" fill="#6b63ff" class="data-point" style="animation-delay: 1.75s" />
    <circle cx="206.89655172413794" cy="341.4368650217707" r="4" fill="#6b63ff" class="data-point" style="animation-delay: 1.80s" />
    <circle cx="231.3793103448276" cy="338.0986937590711" r="4" fill="#6b63ff" class="data-point" style="animation-delay: 1.85s" />
    <circle cx="255.86206896551724" cy="327.6487663280116" r="4" fill="#6b63ff" class="data-point" style="animation-delay: 1.90s" />
    <circle cx="280.34482758620686" cy="319.5210449927431" r="4" fill="#6b63ff" class="data-point" style="animation-delay: 1.95s" />
    <circle cx="304.82758620689657" cy="309.65166908563134" r="4" fill="#6b63ff" class="data-point" style="animation-delay: 2.00s" />
    <circle cx="329.3103448275862" cy="305.15239477503627" r="4" fill="#6b63ff" class="data-point" style="animation-delay: 2.05s" />
    <circle cx="353.7931034482759" cy="298.766328011611" r="4" fill="#6b63ff" class="data-point" style="animation-delay: 2.10s" />
    <circle cx="378.2758620689655" cy="291.2191582002903" r="4" fill="#6b63ff" class="data-point" style="animation-delay: 2.15s" />
    <circle cx="402.7586206896552" cy="285.26850507982584" r="4" fill="#6b63ff" class="data-point" style="animation-delay: 2.20s" />
    <circle cx="427.2413793103448" cy="275.68940493468796" r="4" fill="#6b63ff" class="data-point" style="animation-delay: 2.25s" />
    <circle cx="451.7241379310345" cy="268.1422351233672" r="4" fill="#6b63ff" class="data-point" style="animation-delay: 2.30s" />
    <circle cx="476.2068965517241" cy="262.3367198838897" r="4" fill="#6b63ff" class="data-point" style="animation-delay: 2.35s" />
    <circle cx="500.6896551724138" cy="250.72568940493468" r="4" fill="#6b63ff" class="data-point" style="animation-delay: 2.40s" />
    <circle cx="525.1724137931035" cy="236.93759071117563" r="4" fill="#6b63ff" class="data-point" style="animation-delay: 2.45s" />
    <circle cx="549.6551724137931" cy="224.31059506531204" r="4" fill="#6b63ff" class="data-point" style="animation-delay: 2.50s" />
    <circle cx="574.1379310344828" cy="212.5544267053701" r="4" fill="#6b63ff" class="data-point" style="animation-delay: 2.55s" />
    <circle cx="598.6206896551724" cy="185.1233671988389" r="4" fill="#6b63ff" class="data-point" style="animation-delay: 2.60s" />
    <circle cx="623.1034482758621" cy="165.3846153846154" r="4" fill="#6b63ff" class="data-point" style="animation-delay: 2.65s" />
    <circle cx="647.5862068965517" cy="127.06821480406387" r="4" fill="#6b63ff" class="data-point" style="animation-delay: 2.70s" />
    <circle cx="672.0689655172414" cy="115.166908563135" r="4" fill="#6b63ff" class="data-point" style="animation-delay: 2.75s" />
    <circle cx="696.551724137931" cy="102.53991291727141" r="4" fill="#6b63ff" class="data-point" style="animation-delay: 2.80s" />
    <circle cx="721.0344827586207" cy="93.54136429608127" r="4" fill="#6b63ff" class="data-point" style="animation-delay: 2.85s" />
    <circle cx="745.5172413793103" cy="83.38171262699564" r="4" fill="#6b63ff" class="data-point" style="animation-delay: 2.90s" />
    <circle cx="770" cy="77.28592162554429" r="4" fill="#6b63ff" class="data-point" style="animation-delay: 2.95s" />
  </g>
</svg>