<svg xmlns="http://www.w3.org/2000/svg" viewBox="0 0 800 400" width="800" height="400">
  <style>
    @keyframes drawLine {
      to { stroke-dashoffset: 0; }
    }
    @keyframes fadeInPoint {
      from { opacity: 0; }
      to { opacity: 1; }
    }
    .data-line-0 {
      stroke-dasharray: 1200;
      stroke-dashoffset: 1200;
      animation: drawLine 2s ease-out forwards;
    }
    .data-point {
      opacity: 0;
      animation: fadeInPoint 0.5s ease-out forwards;
    }
    .chart-bg { fill: #fff; }
    .chart-text { fill: #24292e; }
    .chart-muted { fill: #6a737d; }
    .chart-grid { stroke: #eee; }
    .chart-axis { stroke: #6a737d; }
    @media (prefers-color-scheme: dark) {
      .chart-bg { fill: #0d1117; }
      .chart-text { fill: #e6edf3; }
      .chart-muted { fill: #8b949e; }
      .chart-grid { stroke: #21262d; }
      .chart-axis { stroke: #8b949e; }
    }
  </style>
  <rect width="800" height="400" class="chart-bg" />
  <text x="400" y="14" text-anchor="middle" class="chart-text" font-size="16" font-weight="bold" font-family="-apple-system, BlinkMacSystemFont, 'Segoe UI', Helvetica, Arial, sans-serif">qemus/virtiso Star History</text>
  
  <g class="grid">
    <line x1="60" y1="350" x2="770" y2="350" class="chart-grid" stroke-opacity="0.3" />
    <text x="778" y="354" text-anchor="start" class="chart-muted" font-size="11" font-family="-apple-system, BlinkMacSystemFont, 'Segoe UI', Helvetica, Arial, sans-serif">0</text>
    <line x1="60" y1="307.14285714285717" x2="770" y2="307.14285714285717" class="chart-grid" stroke-opacity="0.3" />
    <text x="778" y="311.14285714285717" text-anchor="start" class="chart-muted" font-size="11" font-family="-apple-system, BlinkMacSystemFont, 'Segoe UI', Helvetica, Arial, sans-serif">20</text>
    <line x1="60" y1="264.2857142857143" x2="770" y2="264.2857142857143" class="chart-grid" stroke-opacity="0.3" />
    <text x="778" y="268.2857142857143" text-anchor="start" class="chart-muted" font-size="11" font-family="-apple-system, BlinkMacSystemFont, 'Segoe UI', Helvetica, Arial, sans-serif">40</text>
    <line x1="60" y1="221.42857142857144" x2="770" y2="221.42857142857144" class="chart-grid" stroke-opacity="0.3" />
    <text x="778" y="225.42857142857144" text-anchor="start" class="chart-muted" font-size="11" font-family="-apple-system, BlinkMacSystemFont, 'Segoe UI', Helvetica, Arial, sans-serif">60</text>
    <line x1="60" y1="178.57142857142858" x2="770" y2="178.57142857142858" class="chart-grid" stroke-opacity="0.3" />
    <text x="778" y="182.57142857142858" text-anchor="start" class="chart-muted" font-size="11" font-family="-apple-system, BlinkMacSystemFont, 'Segoe UI', Helvetica, Arial, sans-serif">80</text>
    <line x1="60" y1="135.71428571428572" x2="770" y2="135.71428571428572" class="chart-grid" stroke-opacity="0.3" />
    <text x="778" y="139.71428571428572" text-anchor="start" class="chart-muted" font-size="11" font-family="-apple-system, BlinkMacSystemFont, 'Segoe UI', Helvetica, Arial, sans-serif">100</text>
    <line x1="60" y1="92.85714285714289" x2="770" y2="92.85714285714289" class="chart-grid" stroke-opacity="0.3" />
    <text x="778" y="96.85714285714289" text-anchor="start" class="chart-muted" font-size="11" font-family="-apple-system, BlinkMacSystemFont, 'Segoe UI', Helvetica, Arial, sans-serif">120</text>
    <line x1="60" y1="50" x2="770" y2="50" class="chart-grid" stroke-opacity="0.3" />
    <text x="778" y="54" text-anchor="start" class="chart-muted" font-size="11" font-family="-apple-system, BlinkMacSystemFont, 'Segoe UI', Helvetica, Arial, sans-serif">140</text>
  </g>
  <g class="milestones">
    
  </g>
  <g class="x-axis">
    <text x="60" y="370" text-anchor="middle" class="chart-muted" font-size="11" font-family="-apple-system, BlinkMacSystemFont, 'Segoe UI', Helvetica, Arial, sans-serif">2024</text>
    <text x="353.7931034482759" y="370" text-anchor="middle" class="chart-muted" font-size="11" font-family="-apple-system, BlinkMacSystemFont, 'Segoe UI', Helvetica, Arial, sans-serif">2025</text>
    <text x="647.5862068965517" y="370" text-anchor="middle" class="chart-muted" font-size="11" font-family="-apple-system, BlinkMacSystemFont, 'Segoe UI', Helvetica, Arial, sans-serif">2026</text>
  </g>
  <line x1="770" y1="50" x2="770" y2="350" class="chart-axis" stroke-width="1" />
  <line x1="60" y1="350" x2="770" y2="350" class="chart-axis" stroke-width="1" />
  <path d="M60,350 L60,347.85714285714283 C68.16091954022988,347.47381691814286 76.32183908045977,347.82257837878547 84.48275862068965,345.7142857142857 C92.64367816091954,343.605993049786 100.80459770114942,328.1189736757139 108.9655172413793,324.2857142857143 C117.12643678160919,320.45245489571465 125.28735632183907,321.9166296949998 133.44827586206895,320 C141.60919540229884,318.0833703050002 149.77011494252872,315.3571428571429 157.9310344827586,311.42857142857144 C166.0919540229885,307.5 174.2528735632184,298.43499109479086 182.41379310344828,296.42857142857144 C190.57471264367817,294.42215176235203 198.73563218390805,295.03812166054655 206.89655172413794,294.2857142857143 C215.05747126436782,293.533306910882 223.2183908045977,292.5 231.3793103448276,290 C239.54022988505747,287.5 247.70114942528735,282.1428571428571 255.86206896551724,279.2857142857143 C264.0229885057471,276.42857142857144 272.183908045977,275.3571428571429 280.34482758620686,272.8571428571429 C288.50574712643675,270.3571428571429 296.6666666666667,266.07142857142856 304.82758620689657,264.2857142857143 C312.98850574712645,262.5 321.14942528735634,262.1428571428571 329.3103448275862,262.1428571428571 C337.4712643678161,262.1428571428571 345.632183908046,262.1428571428571 353.7931034482759,262.1428571428571 C361.95402298850576,262.1428571428571 370.11494252873564,255.71428571428572 378.2758620689655,255.71428571428572 C386.4367816091954,255.71428571428572 394.5977011494253,255.71428571428572 402.7586206896552,255.71428571428572 C410.91954022988506,255.71428571428572 419.08045977011494,249.64285714285714 427.2413793103448,247.14285714285714 C435.4022988505747,244.64285714285714 443.5632183908046,242.14285714285717 451.7241379310345,240.71428571428572 C459.88505747126436,239.28571428571428 468.04597701149424,239.64285714285714 476.2068965517241,238.57142857142856 C484.367816091954,237.49999999999997 492.5287356321839,236.07142857142856 500.6896551724138,234.28571428571428 C508.85057471264366,232.5 517.0114942528736,230.35714285714286 525.1724137931035,227.85714285714286 C533.3333333333334,225.35714285714286 541.4942528735633,221.07142857142856 549.6551724137931,219.28571428571428 C557.816091954023,217.5 565.9770114942529,218.21428571428572 574.1379310344828,217.14285714285714 C582.2988505747127,216.07142857142856 590.4597701149426,215.57427876106837 598.6206896551724,212.85714285714286 C606.7816091954023,210.14000695321735 614.9425287356322,212.56675355565545 623.1034482758621,200 C631.264367816092,187.43324644434455 639.4252873563219,137.80878073239188 647.5862068965517,133.57142857142858 C655.7471264367816,129.3340764104653 663.9080459770115,129.92773734040568 672.0689655172414,129.28571428571428 C680.2298850574713,128.64369123102287 688.3908045977012,125.35714285714286 696.551724137931,122.85714285714286 C704.7126436781609,120.35714285714286 712.8735632183908,118.92857142857142 721.0344827586207,114.28571428571428 C729.1954022988506,109.64285714285714 737.3563218390805,100.35714285714286 745.5172413793103,95 C753.6781609195402,89.64285714285714 761.8390804597701,86.4285714285714 770,82.14285714285711 L770,350 L60,350 Z" fill="#6b63ff" fill-opacity="0.1" />
  <path d="M60,350 L60,347.85714285714283 C68.16091954022988,347.47381691814286 76.32183908045977,347.82257837878547 84.48275862068965,345.7142857142857 C92.64367816091954,343.605993049786 100.80459770114942,328.1189736757139 108.9655172413793,324.2857142857143 C117.12643678160919,320.45245489571465 125.28735632183907,321.9166296949998 133.44827586206895,320 C141.60919540229884,318.0833703050002 149.77011494252872,315.3571428571429 157.9310344827586,311.42857142857144 C166.0919540229885,307.5 174.2528735632184,298.43499109479086 182.41379310344828,296.42857142857144 C190.57471264367817,294.42215176235203 198.73563218390805,295.03812166054655 206.89655172413794,294.2857142857143 C215.05747126436782,293.533306910882 223.2183908045977,292.5 231.3793103448276,290 C239.54022988505747,287.5 247.70114942528735,282.1428571428571 255.86206896551724,279.2857142857143 C264.0229885057471,276.42857142857144 272.183908045977,275.3571428571429 280.34482758620686,272.8571428571429 C288.50574712643675,270.3571428571429 296.6666666666667,266.07142857142856 304.82758620689657,264.2857142857143 C312.98850574712645,262.5 321.14942528735634,262.1428571428571 329.3103448275862,262.1428571428571 C337.4712643678161,262.1428571428571 345.632183908046,262.1428571428571 353.7931034482759,262.1428571428571 C361.95402298850576,262.1428571428571 370.11494252873564,255.71428571428572 378.2758620689655,255.71428571428572 C386.4367816091954,255.71428571428572 394.5977011494253,255.71428571428572 402.7586206896552,255.71428571428572 C410.91954022988506,255.71428571428572 419.08045977011494,249.64285714285714 427.2413793103448,247.14285714285714 C435.4022988505747,244.64285714285714 443.5632183908046,242.14285714285717 451.7241379310345,240.71428571428572 C459.88505747126436,239.28571428571428 468.04597701149424,239.64285714285714 476.2068965517241,238.57142857142856 C484.367816091954,237.49999999999997 492.5287356321839,236.07142857142856 500.6896551724138,234.28571428571428 C508.85057471264366,232.5 517.0114942528736,230.35714285714286 525.1724137931035,227.85714285714286 C533.3333333333334,225.35714285714286 541.4942528735633,221.07142857142856 549.6551724137931,219.28571428571428 C557.816091954023,217.5 565.9770114942529,218.21428571428572 574.1379310344828,217.14285714285714 C582.2988505747127,216.07142857142856 590.4597701149426,215.57427876106837 598.6206896551724,212.85714285714286 C606.7816091954023,210.14000695321735 614.9425287356322,212.56675355565545 623.1034482758621,200 C631.264367816092,187.43324644434455 639.4252873563219,137.80878073239188 647.5862068965517,133.57142857142858 C655.7471264367816,129.3340764104653 663.9080459770115,129.92773734040568 672.0689655172414,129.28571428571428 C680.2298850574713,128.64369123102287 688.3908045977012,125.35714285714286 696.551724137931,122.85714285714286 C704.7126436781609,120.35714285714286 712.8735632183908,118.92857142857142 721.0344827586207,114.28571428571428 C729.1954022988506,109.64285714285714 737.3563218390805,100.35714285714286 745.5172413793103,95 C753.6781609195402,89.64285714285714 761.8390804597701,86.4285714285714 770,82.14285714285711" fill="none" stroke="#6b63ff" stroke-width="2.5" class="data-line-0" />
  <g class="points">
    
    <circle cx="60" cy="347.85714285714283" r="4" fill="#6b63ff" class="data-point" style="animation-delay: 1.50s" />
    <circle cx="84.48275862068965" cy="345.7142857142857" r="4" fill="#6b63ff" class="data-point" style="animation-delay: 1.55s" />
    <circle cx="108.9655172413793" cy="324.2857142857143" r="4" fill="#6b63ff" class="data-point" style="animation-delay: 1.60s" />
    <circle cx="133.44827586206895" cy="320" r="4" fill="#6b63ff" class="data-point" style="animation-delay: 1.65s" />
    <circle cx="157.9310344827586" cy="311.42857142857144" r="4" fill="#6b63ff" class="data-point" style="animation-delay: 1.70s" />
    <circle cx="182.41379310344828" cy="296.42857142857144" r="4" fill="#6b63ff" class="data-point" style="animation-delay: 1.75s" />
    <circle cx="206.89655172413794" cy="294.2857142857143" r="4" fill="#6b63ff" class="data-point" style="animation-delay: 1.80s" />
    <circle cx="231.3793103448276" cy="290" r="4" fill="#6b63ff" class="data-point" style="animation-delay: 1.85s" />
    <circle cx="255.86206896551724" cy="279.2857142857143" r="4" fill="#6b63ff" class="data-point" style="animation-delay: 1.90s" />
    <circle cx="280.34482758620686" cy="272.8571428571429" r="4" fill="#6b63ff" class="data-point" style="animation-delay: 1.95s" />
    <circle cx="304.82758620689657" cy="264.2857142857143" r="4" fill="#6b63ff" class="data-point" style="animation-delay: 2.00s" />
    <circle cx="329.3103448275862" cy="262.1428571428571" r="4" fill="#6b63ff" class="data-point" style="animation-delay: 2.05s" />
    <circle cx="353.7931034482759" cy="262.1428571428571" r="4" fill="#6b63ff" class="data-point" style="animation-delay: 2.10s" />
    <circle cx="378.2758620689655" cy="255.71428571428572" r="4" fill="#6b63ff" class="data-point" style="animation-delay: 2.15s" />
    <circle cx="402.7586206896552" cy="255.71428571428572" r="4" fill="#6b63ff" class="data-point" style="animation-delay: 2.20s" />
    <circle cx="427.2413793103448" cy="247.14285714285714" r="4" fill="#6b63ff" class="data-point" style="animation-delay: 2.25s" />
    <circle cx="451.7241379310345" cy="240.71428571428572" r="4" fill="#6b63ff" class="data-point" style="animation-delay: 2.30s" />
    <circle cx="476.2068965517241" cy="238.57142857142856" r="4" fill="#6b63ff" class="data-point" style="animation-delay: 2.35s" />
    <circle cx="500.6896551724138" cy="234.28571428571428" r="4" fill="#6b63ff" class="data-point" style="animation-delay: 2.40s" />
    <circle cx="525.1724137931035" cy="227.85714285714286" r="4" fill="#6b63ff" class="data-point" style="animation-delay: 2.45s" />
    <circle cx="549.6551724137931" cy="219.28571428571428" r="4" fill="#6b63ff" class="data-point" style="animation-delay: 2.50s" />
    <circle cx="574.1379310344828" cy="217.14285714285714" r="4" fill="#6b63ff" class="data-point" style="animation-delay: 2.55s" />
    <circle cx="598.6206896551724" cy="212.85714285714286" r="4" fill="#6b63ff" class="data-point" style="animation-delay: 2.60s" />
    <circle cx="623.1034482758621" cy="200" r="4" fill="#6b63ff" class="data-point" style="animation-delay: 2.65s" />
    <circle cx="647.5862068965517" cy="133.57142857142858" r="4" fill="#6b63ff" class="data-point" style="animation-delay: 2.70s" />
    <circle cx="672.0689655172414" cy="129.28571428571428" r="4" fill="#6b63ff" class="data-point" style="animation-delay: 2.75s" />
    <circle cx="696.551724137931" cy="122.85714285714286" r="4" fill="#6b63ff" class="data-point" style="animation-delay: 2.80s" />
    <circle cx="721.0344827586207" cy="114.28571428571428" r="4" fill="#6b63ff" class="data-point" style="animation-delay: 2.85s" />
    <circle cx="745.5172413793103" cy="95" r="4" fill="#6b63ff" class="data-point" style="animation-delay: 2.90s" />
    <circle cx="770" cy="82.14285714285711" r="4" fill="#6b63ff" class="data-point" style="animation-delay: 2.95s" />
  </g>
</svg>