<svg xmlns="http://www.w3.org/2000/svg" viewBox="0 0 800 400" width="800" height="400">
  <style>
    @keyframes drawLine {
      to { stroke-dashoffset: 0; }
    }
    @keyframes fadeInPoint {
      from { opacity: 0; }
      to { opacity: 1; }
    }
    .data-line-0 {
      stroke-dasharray: 1180;
      stroke-dashoffset: 1180;
      animation: drawLine 2s ease-out forwards;
    }
    .data-point {
      opacity: 0;
      animation: fadeInPoint 0.5s ease-out forwards;
    }
    .chart-bg { fill: #fff; }
    .chart-text { fill: #24292e; }
    .chart-muted { fill: #6a737d; }
    .chart-grid { stroke: #eee; }
    .chart-axis { stroke: #6a737d; }
    @media (prefers-color-scheme: dark) {
      .chart-bg { fill: #0d1117; }
      .chart-text { fill: #e6edf3; }
      .chart-muted { fill: #8b949e; }
      .chart-grid { stroke: #21262d; }
      .chart-axis { stroke: #8b949e; }
    }
  </style>
  <rect width="800" height="400" class="chart-bg" />
  <text x="400" y="14" text-anchor="middle" class="chart-text" font-size="16" font-weight="bold" font-family="-apple-system, BlinkMacSystemFont, 'Segoe UI', Helvetica, Arial, sans-serif">qemus/virtiso-whql Star History</text>
  
  <g class="grid">
    <line x1="60" y1="350" x2="770" y2="350" class="chart-grid" stroke-opacity="0.3" />
    <text x="778" y="354" text-anchor="start" class="chart-muted" font-size="11" font-family="-apple-system, BlinkMacSystemFont, 'Segoe UI', Helvetica, Arial, sans-serif">0</text>
    <line x1="60" y1="254.76190476190476" x2="770" y2="254.76190476190476" class="chart-grid" stroke-opacity="0.3" />
    <text x="778" y="258.76190476190476" text-anchor="start" class="chart-muted" font-size="11" font-family="-apple-system, BlinkMacSystemFont, 'Segoe UI', Helvetica, Arial, sans-serif">20</text>
    <line x1="60" y1="159.52380952380955" x2="770" y2="159.52380952380955" class="chart-grid" stroke-opacity="0.3" />
    <text x="778" y="163.52380952380955" text-anchor="start" class="chart-muted" font-size="11" font-family="-apple-system, BlinkMacSystemFont, 'Segoe UI', Helvetica, Arial, sans-serif">40</text>
    <line x1="60" y1="64.28571428571428" x2="770" y2="64.28571428571428" class="chart-grid" stroke-opacity="0.3" />
    <text x="778" y="68.28571428571428" text-anchor="start" class="chart-muted" font-size="11" font-family="-apple-system, BlinkMacSystemFont, 'Segoe UI', Helvetica, Arial, sans-serif">60</text>
  </g>
  <g class="milestones">
    
  </g>
  <g class="x-axis">
    <text x="60" y="370" text-anchor="middle" class="chart-muted" font-size="11" font-family="-apple-system, BlinkMacSystemFont, 'Segoe UI', Helvetica, Arial, sans-serif">2024</text>
    <text x="182.41379310344828" y="370" text-anchor="middle" class="chart-muted" font-size="11" font-family="-apple-system, BlinkMacSystemFont, 'Segoe UI', Helvetica, Arial, sans-serif">2025</text>
    <text x="574.1379310344828" y="370" text-anchor="middle" class="chart-muted" font-size="11" font-family="-apple-system, BlinkMacSystemFont, 'Segoe UI', Helvetica, Arial, sans-serif">2026</text>
  </g>
  <line x1="770" y1="50" x2="770" y2="350" class="chart-axis" stroke-width="1" />
  <line x1="60" y1="350" x2="770" y2="350" class="chart-axis" stroke-width="1" />
  <path d="M60,350 L60,345.23809523809524 C63.264367816091955,344.6031746031746 77.95402298850574,342.3809523809524 84.48275862068965,340.4761904761905 C91.01149425287356,338.57142857142856 102.43678160919539,333.4920634920635 108.9655172413793,330.95238095238096 C115.49425287356321,328.41269841269843 126.91954022988504,323.33333333333337 133.44827586206895,321.42857142857144 C139.97701149425285,319.5238095238095 151.40229885057468,317.93650793650795 157.9310344827586,316.6666666666667 C164.45977011494253,315.3968253968254 175.88505747126436,313.1746031746032 182.41379310344828,311.9047619047619 C188.9425287356322,310.63492063492066 200.36781609195404,307.7777777777778 206.89655172413794,307.14285714285717 C213.42528735632183,307.14285714285717 224.8505747126437,307.14285714285717 231.3793103448276,307.14285714285717 C237.90804597701148,305.23809523809524 249.33333333333334,296.6666666666667 255.86206896551724,292.8571428571429 C262.39080459770116,289.0476190476191 273.81609195402297,281.74603174603175 280.34482758620686,278.57142857142856 C286.87356321839076,275.39682539682536 298.2988505747127,273.4920634920635 304.82758620689657,269.04761904761904 C311.35632183908046,264.6031746031746 322.7816091954023,248.4126984126984 329.3103448275862,245.23809523809524 C335.8390804597701,245.23809523809524 347.264367816092,245.23809523809524 353.7931034482759,245.23809523809524 C360.32183908045977,245.23809523809524 371.7471264367816,245.23809523809524 378.2758620689655,245.23809523809524 C384.8045977011494,245.23809523809524 396.2298850574713,245.23809523809524 402.7586206896552,245.23809523809524 C409.28735632183907,245.23809523809524 420.71264367816093,245.23809523809524 427.2413793103448,245.23809523809524 C433.7701149425287,242.06349206349208 445.1954022988506,227.7777777777778 451.7241379310345,221.42857142857144 C458.2528735632184,215.0793650793651 469.67816091954023,201.42857142857144 476.2068965517241,197.61904761904762 C482.735632183908,193.8095238095238 494.1609195402299,194.76190476190476 500.6896551724138,192.85714285714286 C507.2183908045977,190.95238095238096 518.6436781609195,185.87301587301585 525.1724137931035,183.33333333333331 C531.7011494252874,180.79365079365078 543.1264367816092,176.34920634920633 549.6551724137931,173.8095238095238 C556.1839080459771,171.26984126984127 567.6091954022988,166.19047619047618 574.1379310344828,164.28571428571428 C580.6666666666667,162.38095238095238 592.0919540229885,162.06349206349208 598.6206896551724,159.52380952380955 C605.1494252873564,156.98412698412702 616.5747126436781,148.4126984126984 623.1034482758621,145.23809523809524 C629.632183908046,142.06349206349208 641.0574712643678,138.25396825396825 647.5862068965517,135.71428571428572 C654.1149425287357,133.1746031746032 665.5402298850574,128.09523809523807 672.0689655172414,126.19047619047618 C678.5977011494253,124.28571428571428 690.0229885057471,123.33333333333334 696.551724137931,121.42857142857144 C703.080459770115,119.52380952380955 714.5057471264367,116.34920634920638 721.0344827586207,111.90476190476193 C727.5632183908046,107.46031746031747 738.9885057471264,92.53968253968253 745.5172413793103,88.09523809523807 C752.0459770114943,83.65079365079362 766.735632183908,79.84126984126982 770,78.57142857142856 L770,350 L60,350 Z" fill="#6b63ff" fill-opacity="0.1" />
  <path d="M60,350 L60,345.23809523809524 C63.264367816091955,344.6031746031746 77.95402298850574,342.3809523809524 84.48275862068965,340.4761904761905 C91.01149425287356,338.57142857142856 102.43678160919539,333.4920634920635 108.9655172413793,330.95238095238096 C115.49425287356321,328.41269841269843 126.91954022988504,323.33333333333337 133.44827586206895,321.42857142857144 C139.97701149425285,319.5238095238095 151.40229885057468,317.93650793650795 157.9310344827586,316.6666666666667 C164.45977011494253,315.3968253968254 175.88505747126436,313.1746031746032 182.41379310344828,311.9047619047619 C188.9425287356322,310.63492063492066 200.36781609195404,307.7777777777778 206.89655172413794,307.14285714285717 C213.42528735632183,307.14285714285717 224.8505747126437,307.14285714285717 231.3793103448276,307.14285714285717 C237.90804597701148,305.23809523809524 249.33333333333334,296.6666666666667 255.86206896551724,292.8571428571429 C262.39080459770116,289.0476190476191 273.81609195402297,281.74603174603175 280.34482758620686,278.57142857142856 C286.87356321839076,275.39682539682536 298.2988505747127,273.4920634920635 304.82758620689657,269.04761904761904 C311.35632183908046,264.6031746031746 322.7816091954023,248.4126984126984 329.3103448275862,245.23809523809524 C335.8390804597701,245.23809523809524 347.264367816092,245.23809523809524 353.7931034482759,245.23809523809524 C360.32183908045977,245.23809523809524 371.7471264367816,245.23809523809524 378.2758620689655,245.23809523809524 C384.8045977011494,245.23809523809524 396.2298850574713,245.23809523809524 402.7586206896552,245.23809523809524 C409.28735632183907,245.23809523809524 420.71264367816093,245.23809523809524 427.2413793103448,245.23809523809524 C433.7701149425287,242.06349206349208 445.1954022988506,227.7777777777778 451.7241379310345,221.42857142857144 C458.2528735632184,215.0793650793651 469.67816091954023,201.42857142857144 476.2068965517241,197.61904761904762 C482.735632183908,193.8095238095238 494.1609195402299,194.76190476190476 500.6896551724138,192.85714285714286 C507.2183908045977,190.95238095238096 518.6436781609195,185.87301587301585 525.1724137931035,183.33333333333331 C531.7011494252874,180.79365079365078 543.1264367816092,176.34920634920633 549.6551724137931,173.8095238095238 C556.1839080459771,171.26984126984127 567.6091954022988,166.19047619047618 574.1379310344828,164.28571428571428 C580.6666666666667,162.38095238095238 592.0919540229885,162.06349206349208 598.6206896551724,159.52380952380955 C605.1494252873564,156.98412698412702 616.5747126436781,148.4126984126984 623.1034482758621,145.23809523809524 C629.632183908046,142.06349206349208 641.0574712643678,138.25396825396825 647.5862068965517,135.71428571428572 C654.1149425287357,133.1746031746032 665.5402298850574,128.09523809523807 672.0689655172414,126.19047619047618 C678.5977011494253,124.28571428571428 690.0229885057471,123.33333333333334 696.551724137931,121.42857142857144 C703.080459770115,119.52380952380955 714.5057471264367,116.34920634920638 721.0344827586207,111.90476190476193 C727.5632183908046,107.46031746031747 738.9885057471264,92.53968253968253 745.5172413793103,88.09523809523807 C752.0459770114943,83.65079365079362 766.735632183908,79.84126984126982 770,78.57142857142856" fill="none" stroke="#6b63ff" stroke-width="2.5" class="data-line-0" />
  <g class="points">
    
    <circle cx="60" cy="345.23809523809524" r="4" fill="#6b63ff" class="data-point" style="animation-delay: 1.50s" />
    <circle cx="84.48275862068965" cy="340.4761904761905" r="4" fill="#6b63ff" class="data-point" style="animation-delay: 1.55s" />
    <circle cx="108.9655172413793" cy="330.95238095238096" r="4" fill="#6b63ff" class="data-point" style="animation-delay: 1.60s" />
    <circle cx="133.44827586206895" cy="321.42857142857144" r="4" fill="#6b63ff" class="data-point" style="animation-delay: 1.65s" />
    <circle cx="157.9310344827586" cy="316.6666666666667" r="4" fill="#6b63ff" class="data-point" style="animation-delay: 1.70s" />
    <circle cx="182.41379310344828" cy="311.9047619047619" r="4" fill="#6b63ff" class="data-point" style="animation-delay: 1.75s" />
    <circle cx="206.89655172413794" cy="307.14285714285717" r="4" fill="#6b63ff" class="data-point" style="animation-delay: 1.80s" />
    <circle cx="231.3793103448276" cy="307.14285714285717" r="4" fill="#6b63ff" class="data-point" style="animation-delay: 1.85s" />
    <circle cx="255.86206896551724" cy="292.8571428571429" r="4" fill="#6b63ff" class="data-point" style="animation-delay: 1.90s" />
    <circle cx="280.34482758620686" cy="278.57142857142856" r="4" fill="#6b63ff" class="data-point" style="animation-delay: 1.95s" />
    <circle cx="304.82758620689657" cy="269.04761904761904" r="4" fill="#6b63ff" class="data-point" style="animation-delay: 2.00s" />
    <circle cx="329.3103448275862" cy="245.23809523809524" r="4" fill="#6b63ff" class="data-point" style="animation-delay: 2.05s" />
    <circle cx="353.7931034482759" cy="245.23809523809524" r="4" fill="#6b63ff" class="data-point" style="animation-delay: 2.10s" />
    <circle cx="378.2758620689655" cy="245.23809523809524" r="4" fill="#6b63ff" class="data-point" style="animation-delay: 2.15s" />
    <circle cx="402.7586206896552" cy="245.23809523809524" r="4" fill="#6b63ff" class="data-point" style="animation-delay: 2.20s" />
    <circle cx="427.2413793103448" cy="245.23809523809524" r="4" fill="#6b63ff" class="data-point" style="animation-delay: 2.25s" />
    <circle cx="451.7241379310345" cy="221.42857142857144" r="4" fill="#6b63ff" class="data-point" style="animation-delay: 2.30s" />
    <circle cx="476.2068965517241" cy="197.61904761904762" r="4" fill="#6b63ff" class="data-point" style="animation-delay: 2.35s" />
    <circle cx="500.6896551724138" cy="192.85714285714286" r="4" fill="#6b63ff" class="data-point" style="animation-delay: 2.40s" />
    <circle cx="525.1724137931035" cy="183.33333333333331" r="4" fill="#6b63ff" class="data-point" style="animation-delay: 2.45s" />
    <circle cx="549.6551724137931" cy="173.8095238095238" r="4" fill="#6b63ff" class="data-point" style="animation-delay: 2.50s" />
    <circle cx="574.1379310344828" cy="164.28571428571428" r="4" fill="#6b63ff" class="data-point" style="animation-delay: 2.55s" />
    <circle cx="598.6206896551724" cy="159.52380952380955" r="4" fill="#6b63ff" class="data-point" style="animation-delay: 2.60s" />
    <circle cx="623.1034482758621" cy="145.23809523809524" r="4" fill="#6b63ff" class="data-point" style="animation-delay: 2.65s" />
    <circle cx="647.5862068965517" cy="135.71428571428572" r="4" fill="#6b63ff" class="data-point" style="animation-delay: 2.70s" />
    <circle cx="672.0689655172414" cy="126.19047619047618" r="4" fill="#6b63ff" class="data-point" style="animation-delay: 2.75s" />
    <circle cx="696.551724137931" cy="121.42857142857144" r="4" fill="#6b63ff" class="data-point" style="animation-delay: 2.80s" />
    <circle cx="721.0344827586207" cy="111.90476190476193" r="4" fill="#6b63ff" class="data-point" style="animation-delay: 2.85s" />
    <circle cx="745.5172413793103" cy="88.09523809523807" r="4" fill="#6b63ff" class="data-point" style="animation-delay: 2.90s" />
    <circle cx="770" cy="78.57142857142856" r="4" fill="#6b63ff" class="data-point" style="animation-delay: 2.95s" />
  </g>
</svg>