<svg xmlns="http://www.w3.org/2000/svg" viewBox="0 0 800 400" width="800" height="400">
  <style>
    @keyframes drawLine {
      to { stroke-dashoffset: 0; }
    }
    @keyframes fadeInPoint {
      from { opacity: 0; }
      to { opacity: 1; }
    }
    .data-line-0 {
      stroke-dasharray: 1159;
      stroke-dashoffset: 1159;
      animation: drawLine 2s ease-out forwards;
    }
    .data-point {
      opacity: 0;
      animation: fadeInPoint 0.5s ease-out forwards;
    }
    .chart-bg { fill: #fff; }
    .chart-text { fill: #24292e; }
    .chart-muted { fill: #6a737d; }
    .chart-grid { stroke: #eee; }
    .chart-axis { stroke: #6a737d; }
    @media (prefers-color-scheme: dark) {
      .chart-bg { fill: #0d1117; }
      .chart-text { fill: #e6edf3; }
      .chart-muted { fill: #8b949e; }
      .chart-grid { stroke: #21262d; }
      .chart-axis { stroke: #8b949e; }
    }
  </style>
  <rect width="800" height="400" class="chart-bg" />
  <text x="400" y="34" text-anchor="middle" class="chart-text" font-size="16" font-weight="bold" font-family="-apple-system, BlinkMacSystemFont, 'Segoe UI', Helvetica, Arial, sans-serif">qemus/qemu-arm Star History</text>
  
  <g class="grid">
    <line x1="60" y1="350" x2="770" y2="350" class="chart-grid" stroke-opacity="0.3" />
    <text x="778" y="354" text-anchor="start" class="chart-muted" font-size="11" font-family="-apple-system, BlinkMacSystemFont, 'Segoe UI', Helvetica, Arial, sans-serif">0</text>
    <line x1="60" y1="282.12669683257917" x2="770" y2="282.12669683257917" class="chart-grid" stroke-opacity="0.3" />
    <text x="778" y="286.12669683257917" text-anchor="start" class="chart-muted" font-size="11" font-family="-apple-system, BlinkMacSystemFont, 'Segoe UI', Helvetica, Arial, sans-serif">50</text>
    <line x1="60" y1="214.25339366515837" x2="770" y2="214.25339366515837" class="chart-grid" stroke-opacity="0.3" />
    <text x="778" y="218.25339366515837" text-anchor="start" class="chart-muted" font-size="11" font-family="-apple-system, BlinkMacSystemFont, 'Segoe UI', Helvetica, Arial, sans-serif">100</text>
    <line x1="60" y1="146.38009049773754" x2="770" y2="146.38009049773754" class="chart-grid" stroke-opacity="0.3" />
    <text x="778" y="150.38009049773754" text-anchor="start" class="chart-muted" font-size="11" font-family="-apple-system, BlinkMacSystemFont, 'Segoe UI', Helvetica, Arial, sans-serif">150</text>
    <line x1="60" y1="78.50678733031674" x2="770" y2="78.50678733031674" class="chart-grid" stroke-opacity="0.3" />
    <text x="778" y="82.50678733031674" text-anchor="start" class="chart-muted" font-size="11" font-family="-apple-system, BlinkMacSystemFont, 'Segoe UI', Helvetica, Arial, sans-serif">200</text>
  </g>
  <g class="milestones">
    
  </g>
  <g class="x-axis">
    <text x="60" y="370" text-anchor="middle" class="chart-muted" font-size="11" font-family="-apple-system, BlinkMacSystemFont, 'Segoe UI', Helvetica, Arial, sans-serif">2024</text>
    <text x="329.3103448275862" y="370" text-anchor="middle" class="chart-muted" font-size="11" font-family="-apple-system, BlinkMacSystemFont, 'Segoe UI', Helvetica, Arial, sans-serif">2025</text>
    <text x="647.5862068965517" y="370" text-anchor="middle" class="chart-muted" font-size="11" font-family="-apple-system, BlinkMacSystemFont, 'Segoe UI', Helvetica, Arial, sans-serif">2026</text>
  </g>
  <line x1="770" y1="50" x2="770" y2="350" class="chart-axis" stroke-width="1" />
  <line x1="60" y1="350" x2="770" y2="350" class="chart-axis" stroke-width="1" />
  <path d="M60,348.6425339366516 L84.48275862068965,347.28506787330315 L108.9655172413793,344.57013574660635 L133.44827586206895,335.0678733031674 L157.9310344827586,322.85067873303166 L182.41379310344828,313.34841628959276 L206.89655172413794,302.4886877828054 L231.3793103448276,294.3438914027149 L255.86206896551724,279.4117647058823 L280.34482758620686,268.552036199095 L304.82758620689657,253.61990950226243 L329.3103448275862,245.47511312217193 L353.7931034482759,238.68778280542986 L378.2758620689655,223.7556561085973 L402.7586206896552,215.6108597285068 L427.2413793103448,202.03619909502262 L451.7241379310345,187.10407239819006 L476.2068965517241,185.7466063348416 L500.6896551724138,178.95927601809956 L525.1724137931035,169.45701357466064 L549.6551724137931,143.66515837104072 L574.1379310344828,130.09049773755657 L598.6206896551724,120.58823529411765 L623.1034482758621,112.44343891402715 L647.5862068965517,101.58371040723983 L672.0689655172414,98.86877828054298 L696.551724137931,89.36651583710409 L721.0344827586207,85.29411764705884 L745.5172413793103,78.50678733031674 L770,77.14932126696834 L770,350 L60,350 Z" fill="#6b63ff" fill-opacity="0.1" />
  <path d="M60,348.6425339366516 L84.48275862068965,347.28506787330315 L108.9655172413793,344.57013574660635 L133.44827586206895,335.0678733031674 L157.9310344827586,322.85067873303166 L182.41379310344828,313.34841628959276 L206.89655172413794,302.4886877828054 L231.3793103448276,294.3438914027149 L255.86206896551724,279.4117647058823 L280.34482758620686,268.552036199095 L304.82758620689657,253.61990950226243 L329.3103448275862,245.47511312217193 L353.7931034482759,238.68778280542986 L378.2758620689655,223.7556561085973 L402.7586206896552,215.6108597285068 L427.2413793103448,202.03619909502262 L451.7241379310345,187.10407239819006 L476.2068965517241,185.7466063348416 L500.6896551724138,178.95927601809956 L525.1724137931035,169.45701357466064 L549.6551724137931,143.66515837104072 L574.1379310344828,130.09049773755657 L598.6206896551724,120.58823529411765 L623.1034482758621,112.44343891402715 L647.5862068965517,101.58371040723983 L672.0689655172414,98.86877828054298 L696.551724137931,89.36651583710409 L721.0344827586207,85.29411764705884 L745.5172413793103,78.50678733031674 L770,77.14932126696834" fill="none" stroke="#6b63ff" stroke-width="2" class="data-line-0" />
  <g class="points">
    
    <circle cx="60" cy="348.6425339366516" r="4" fill="#6b63ff" class="data-point" style="animation-delay: 1.50s" />
    <circle cx="84.48275862068965" cy="347.28506787330315" r="4" fill="#6b63ff" class="data-point" style="animation-delay: 1.55s" />
    <circle cx="108.9655172413793" cy="344.57013574660635" r="4" fill="#6b63ff" class="data-point" style="animation-delay: 1.60s" />
    <circle cx="133.44827586206895" cy="335.0678733031674" r="4" fill="#6b63ff" class="data-point" style="animation-delay: 1.65s" />
    <circle cx="157.9310344827586" cy="322.85067873303166" r="4" fill="#6b63ff" class="data-point" style="animation-delay: 1.70s" />
    <circle cx="182.41379310344828" cy="313.34841628959276" r="4" fill="#6b63ff" class="data-point" style="animation-delay: 1.75s" />
    <circle cx="206.89655172413794" cy="302.4886877828054" r="4" fill="#6b63ff" class="data-point" style="animation-delay: 1.80s" />
    <circle cx="231.3793103448276" cy="294.3438914027149" r="4" fill="#6b63ff" class="data-point" style="animation-delay: 1.85s" />
    <circle cx="255.86206896551724" cy="279.4117647058823" r="4" fill="#6b63ff" class="data-point" style="animation-delay: 1.90s" />
    <circle cx="280.34482758620686" cy="268.552036199095" r="4" fill="#6b63ff" class="data-point" style="animation-delay: 1.95s" />
    <circle cx="304.82758620689657" cy="253.61990950226243" r="4" fill="#6b63ff" class="data-point" style="animation-delay: 2.00s" />
    <circle cx="329.3103448275862" cy="245.47511312217193" r="4" fill="#6b63ff" class="data-point" style="animation-delay: 2.05s" />
    <circle cx="353.7931034482759" cy="238.68778280542986" r="4" fill="#6b63ff" class="data-point" style="animation-delay: 2.10s" />
    <circle cx="378.2758620689655" cy="223.7556561085973" r="4" fill="#6b63ff" class="data-point" style="animation-delay: 2.15s" />
    <circle cx="402.7586206896552" cy="215.6108597285068" r="4" fill="#6b63ff" class="data-point" style="animation-delay: 2.20s" />
    <circle cx="427.2413793103448" cy="202.03619909502262" r="4" fill="#6b63ff" class="data-point" style="animation-delay: 2.25s" />
    <circle cx="451.7241379310345" cy="187.10407239819006" r="4" fill="#6b63ff" class="data-point" style="animation-delay: 2.30s" />
    <circle cx="476.2068965517241" cy="185.7466063348416" r="4" fill="#6b63ff" class="data-point" style="animation-delay: 2.35s" />
    <circle cx="500.6896551724138" cy="178.95927601809956" r="4" fill="#6b63ff" class="data-point" style="animation-delay: 2.40s" />
    <circle cx="525.1724137931035" cy="169.45701357466064" r="4" fill="#6b63ff" class="data-point" style="animation-delay: 2.45s" />
    <circle cx="549.6551724137931" cy="143.66515837104072" r="4" fill="#6b63ff" class="data-point" style="animation-delay: 2.50s" />
    <circle cx="574.1379310344828" cy="130.09049773755657" r="4" fill="#6b63ff" class="data-point" style="animation-delay: 2.55s" />
    <circle cx="598.6206896551724" cy="120.58823529411765" r="4" fill="#6b63ff" class="data-point" style="animation-delay: 2.60s" />
    <circle cx="623.1034482758621" cy="112.44343891402715" r="4" fill="#6b63ff" class="data-point" style="animation-delay: 2.65s" />
    <circle cx="647.5862068965517" cy="101.58371040723983" r="4" fill="#6b63ff" class="data-point" style="animation-delay: 2.70s" />
    <circle cx="672.0689655172414" cy="98.86877828054298" r="4" fill="#6b63ff" class="data-point" style="animation-delay: 2.75s" />
    <circle cx="696.551724137931" cy="89.36651583710409" r="4" fill="#6b63ff" class="data-point" style="animation-delay: 2.80s" />
    <circle cx="721.0344827586207" cy="85.29411764705884" r="4" fill="#6b63ff" class="data-point" style="animation-delay: 2.85s" />
    <circle cx="745.5172413793103" cy="78.50678733031674" r="4" fill="#6b63ff" class="data-point" style="animation-delay: 2.90s" />
    <circle cx="770" cy="77.14932126696834" r="4" fill="#6b63ff" class="data-point" style="animation-delay: 2.95s" />
  </g>
</svg>