<svg xmlns="http://www.w3.org/2000/svg" viewBox="0 0 800 400" width="800" height="400">
  <style>
    @keyframes drawLine {
      to { stroke-dashoffset: 0; }
    }
    @keyframes fadeInPoint {
      from { opacity: 0; }
      to { opacity: 1; }
    }
    .data-line-0 {
      stroke-dasharray: 1180;
      stroke-dashoffset: 1180;
      animation: drawLine 2s ease-out forwards;
    }
    .data-point {
      opacity: 0;
      animation: fadeInPoint 0.5s ease-out forwards;
    }
    .chart-bg { fill: #fff; }
    .chart-text { fill: #24292e; }
    .chart-muted { fill: #6a737d; }
    .chart-grid { stroke: #eee; }
    .chart-axis { stroke: #6a737d; }
    @media (prefers-color-scheme: dark) {
      .chart-bg { fill: #0d1117; }
      .chart-text { fill: #e6edf3; }
      .chart-muted { fill: #8b949e; }
      .chart-grid { stroke: #21262d; }
      .chart-axis { stroke: #8b949e; }
    }
  </style>
  <rect width="800" height="400" class="chart-bg" />
  <text x="400" y="14" text-anchor="middle" class="chart-text" font-size="16" font-weight="bold" font-family="-apple-system, BlinkMacSystemFont, 'Segoe UI', Helvetica, Arial, sans-serif">qemus/virtiso-whql Star History</text>
  
  <g class="grid">
    <line x1="60" y1="350" x2="770" y2="350" class="chart-grid" stroke-opacity="0.3" />
    <text x="778" y="354" text-anchor="start" class="chart-muted" font-size="11" font-family="-apple-system, BlinkMacSystemFont, 'Segoe UI', Helvetica, Arial, sans-serif">0</text>
    <line x1="60" y1="256.25" x2="770" y2="256.25" class="chart-grid" stroke-opacity="0.3" />
    <text x="778" y="260.25" text-anchor="start" class="chart-muted" font-size="11" font-family="-apple-system, BlinkMacSystemFont, 'Segoe UI', Helvetica, Arial, sans-serif">20</text>
    <line x1="60" y1="162.5" x2="770" y2="162.5" class="chart-grid" stroke-opacity="0.3" />
    <text x="778" y="166.5" text-anchor="start" class="chart-muted" font-size="11" font-family="-apple-system, BlinkMacSystemFont, 'Segoe UI', Helvetica, Arial, sans-serif">40</text>
    <line x1="60" y1="68.75" x2="770" y2="68.75" class="chart-grid" stroke-opacity="0.3" />
    <text x="778" y="72.75" text-anchor="start" class="chart-muted" font-size="11" font-family="-apple-system, BlinkMacSystemFont, 'Segoe UI', Helvetica, Arial, sans-serif">60</text>
  </g>
  <g class="milestones">
    
  </g>
  <g class="x-axis">
    <text x="60" y="370" text-anchor="middle" class="chart-muted" font-size="11" font-family="-apple-system, BlinkMacSystemFont, 'Segoe UI', Helvetica, Arial, sans-serif">2024</text>
    <text x="182.41379310344828" y="370" text-anchor="middle" class="chart-muted" font-size="11" font-family="-apple-system, BlinkMacSystemFont, 'Segoe UI', Helvetica, Arial, sans-serif">2025</text>
    <text x="574.1379310344828" y="370" text-anchor="middle" class="chart-muted" font-size="11" font-family="-apple-system, BlinkMacSystemFont, 'Segoe UI', Helvetica, Arial, sans-serif">2026</text>
  </g>
  <line x1="770" y1="50" x2="770" y2="350" class="chart-axis" stroke-width="1" />
  <line x1="60" y1="350" x2="770" y2="350" class="chart-axis" stroke-width="1" />
  <path d="M60,350 L60,345.3125 C68.16091954022988,343.75 76.32183908045977,342.96875 84.48275862068965,340.625 C92.64367816091954,338.28125 100.80459770114942,334.375 108.9655172413793,331.25 C117.12643678160919,328.125 125.28735632183907,324.21875 133.44827586206895,321.875 C141.60919540229884,319.53125 149.77011494252872,318.75 157.9310344827586,317.1875 C166.0919540229885,315.625 174.2528735632184,314.0625 182.41379310344828,312.5 C190.57471264367817,310.9375 198.73563218390805,307.8125 206.89655172413794,307.8125 C215.05747126436782,307.8125 223.2183908045977,307.8125 231.3793103448276,307.8125 C239.54022988505747,307.8125 247.70114942528735,298.4375 255.86206896551724,293.75 C264.0229885057471,289.0625 272.183908045977,283.59375 280.34482758620686,279.6875 C288.50574712643675,275.78125 296.6666666666667,275.78125 304.82758620689657,270.3125 C312.98850574712645,264.84375 321.14942528735634,246.875 329.3103448275862,246.875 C337.4712643678161,246.875 345.632183908046,246.875 353.7931034482759,246.875 C361.95402298850576,246.875 370.11494252873564,246.875 378.2758620689655,246.875 C386.4367816091954,246.875 394.5977011494253,246.875 402.7586206896552,246.875 C410.91954022988506,246.875 419.08045977011494,246.875 427.2413793103448,246.875 C435.4022988505747,246.875 443.5632183908046,231.25 451.7241379310345,223.4375 C459.88505747126436,215.625 468.04597701149424,205.46875 476.2068965517241,200 C484.367816091954,194.53125 492.5287356321839,192.96875 500.6896551724138,190.625 C508.85057471264366,188.28125 517.0114942528736,188.28125 525.1724137931035,185.9375 C533.3333333333334,183.59375 541.4942528735633,179.6875 549.6551724137931,176.5625 C557.816091954023,173.4375 565.9770114942529,169.53125 574.1379310344828,167.1875 C582.2988505747127,164.84375 590.4597701149426,165.625 598.6206896551724,162.5 C606.7816091954023,159.375 614.9425287356322,152.34375 623.1034482758621,148.4375 C631.264367816092,144.53125 639.4252873563219,142.1875 647.5862068965517,139.0625 C655.7471264367816,135.9375 663.9080459770115,132.03125 672.0689655172414,129.6875 C680.2298850574713,127.34375 688.3908045977012,127.34375 696.551724137931,125 C704.7126436781609,122.65625 712.8735632183908,121.09375 721.0344827586207,115.625 C729.1954022988506,110.15625 737.3563218390805,98.4375 745.5172413793103,92.1875 C753.6781609195402,85.9375 761.8390804597701,82.8125 770,78.125 L770,350 L60,350 Z" fill="#6b63ff" fill-opacity="0.1" />
  <path d="M60,350 L60,345.3125 C68.16091954022988,343.75 76.32183908045977,342.96875 84.48275862068965,340.625 C92.64367816091954,338.28125 100.80459770114942,334.375 108.9655172413793,331.25 C117.12643678160919,328.125 125.28735632183907,324.21875 133.44827586206895,321.875 C141.60919540229884,319.53125 149.77011494252872,318.75 157.9310344827586,317.1875 C166.0919540229885,315.625 174.2528735632184,314.0625 182.41379310344828,312.5 C190.57471264367817,310.9375 198.73563218390805,307.8125 206.89655172413794,307.8125 C215.05747126436782,307.8125 223.2183908045977,307.8125 231.3793103448276,307.8125 C239.54022988505747,307.8125 247.70114942528735,298.4375 255.86206896551724,293.75 C264.0229885057471,289.0625 272.183908045977,283.59375 280.34482758620686,279.6875 C288.50574712643675,275.78125 296.6666666666667,275.78125 304.82758620689657,270.3125 C312.98850574712645,264.84375 321.14942528735634,246.875 329.3103448275862,246.875 C337.4712643678161,246.875 345.632183908046,246.875 353.7931034482759,246.875 C361.95402298850576,246.875 370.11494252873564,246.875 378.2758620689655,246.875 C386.4367816091954,246.875 394.5977011494253,246.875 402.7586206896552,246.875 C410.91954022988506,246.875 419.08045977011494,246.875 427.2413793103448,246.875 C435.4022988505747,246.875 443.5632183908046,231.25 451.7241379310345,223.4375 C459.88505747126436,215.625 468.04597701149424,205.46875 476.2068965517241,200 C484.367816091954,194.53125 492.5287356321839,192.96875 500.6896551724138,190.625 C508.85057471264366,188.28125 517.0114942528736,188.28125 525.1724137931035,185.9375 C533.3333333333334,183.59375 541.4942528735633,179.6875 549.6551724137931,176.5625 C557.816091954023,173.4375 565.9770114942529,169.53125 574.1379310344828,167.1875 C582.2988505747127,164.84375 590.4597701149426,165.625 598.6206896551724,162.5 C606.7816091954023,159.375 614.9425287356322,152.34375 623.1034482758621,148.4375 C631.264367816092,144.53125 639.4252873563219,142.1875 647.5862068965517,139.0625 C655.7471264367816,135.9375 663.9080459770115,132.03125 672.0689655172414,129.6875 C680.2298850574713,127.34375 688.3908045977012,127.34375 696.551724137931,125 C704.7126436781609,122.65625 712.8735632183908,121.09375 721.0344827586207,115.625 C729.1954022988506,110.15625 737.3563218390805,98.4375 745.5172413793103,92.1875 C753.6781609195402,85.9375 761.8390804597701,82.8125 770,78.125" fill="none" stroke="#6b63ff" stroke-width="2.5" class="data-line-0" />
  <g class="points">
    
    <circle cx="60" cy="345.3125" r="4" fill="#6b63ff" class="data-point" style="animation-delay: 1.50s" />
    <circle cx="84.48275862068965" cy="340.625" r="4" fill="#6b63ff" class="data-point" style="animation-delay: 1.55s" />
    <circle cx="108.9655172413793" cy="331.25" r="4" fill="#6b63ff" class="data-point" style="animation-delay: 1.60s" />
    <circle cx="133.44827586206895" cy="321.875" r="4" fill="#6b63ff" class="data-point" style="animation-delay: 1.65s" />
    <circle cx="157.9310344827586" cy="317.1875" r="4" fill="#6b63ff" class="data-point" style="animation-delay: 1.70s" />
    <circle cx="182.41379310344828" cy="312.5" r="4" fill="#6b63ff" class="data-point" style="animation-delay: 1.75s" />
    <circle cx="206.89655172413794" cy="307.8125" r="4" fill="#6b63ff" class="data-point" style="animation-delay: 1.80s" />
    <circle cx="231.3793103448276" cy="307.8125" r="4" fill="#6b63ff" class="data-point" style="animation-delay: 1.85s" />
    <circle cx="255.86206896551724" cy="293.75" r="4" fill="#6b63ff" class="data-point" style="animation-delay: 1.90s" />
    <circle cx="280.34482758620686" cy="279.6875" r="4" fill="#6b63ff" class="data-point" style="animation-delay: 1.95s" />
    <circle cx="304.82758620689657" cy="270.3125" r="4" fill="#6b63ff" class="data-point" style="animation-delay: 2.00s" />
    <circle cx="329.3103448275862" cy="246.875" r="4" fill="#6b63ff" class="data-point" style="animation-delay: 2.05s" />
    <circle cx="353.7931034482759" cy="246.875" r="4" fill="#6b63ff" class="data-point" style="animation-delay: 2.10s" />
    <circle cx="378.2758620689655" cy="246.875" r="4" fill="#6b63ff" class="data-point" style="animation-delay: 2.15s" />
    <circle cx="402.7586206896552" cy="246.875" r="4" fill="#6b63ff" class="data-point" style="animation-delay: 2.20s" />
    <circle cx="427.2413793103448" cy="246.875" r="4" fill="#6b63ff" class="data-point" style="animation-delay: 2.25s" />
    <circle cx="451.7241379310345" cy="223.4375" r="4" fill="#6b63ff" class="data-point" style="animation-delay: 2.30s" />
    <circle cx="476.2068965517241" cy="200" r="4" fill="#6b63ff" class="data-point" style="animation-delay: 2.35s" />
    <circle cx="500.6896551724138" cy="190.625" r="4" fill="#6b63ff" class="data-point" style="animation-delay: 2.40s" />
    <circle cx="525.1724137931035" cy="185.9375" r="4" fill="#6b63ff" class="data-point" style="animation-delay: 2.45s" />
    <circle cx="549.6551724137931" cy="176.5625" r="4" fill="#6b63ff" class="data-point" style="animation-delay: 2.50s" />
    <circle cx="574.1379310344828" cy="167.1875" r="4" fill="#6b63ff" class="data-point" style="animation-delay: 2.55s" />
    <circle cx="598.6206896551724" cy="162.5" r="4" fill="#6b63ff" class="data-point" style="animation-delay: 2.60s" />
    <circle cx="623.1034482758621" cy="148.4375" r="4" fill="#6b63ff" class="data-point" style="animation-delay: 2.65s" />
    <circle cx="647.5862068965517" cy="139.0625" r="4" fill="#6b63ff" class="data-point" style="animation-delay: 2.70s" />
    <circle cx="672.0689655172414" cy="129.6875" r="4" fill="#6b63ff" class="data-point" style="animation-delay: 2.75s" />
    <circle cx="696.551724137931" cy="125" r="4" fill="#6b63ff" class="data-point" style="animation-delay: 2.80s" />
    <circle cx="721.0344827586207" cy="115.625" r="4" fill="#6b63ff" class="data-point" style="animation-delay: 2.85s" />
    <circle cx="745.5172413793103" cy="92.1875" r="4" fill="#6b63ff" class="data-point" style="animation-delay: 2.90s" />
    <circle cx="770" cy="78.125" r="4" fill="#6b63ff" class="data-point" style="animation-delay: 2.95s" />
  </g>
</svg>