<svg xmlns="http://www.w3.org/2000/svg" viewBox="0 0 800 400" width="800" height="400">
  <style>
    @keyframes drawLine {
      to { stroke-dashoffset: 0; }
    }
    @keyframes fadeInPoint {
      from { opacity: 0; }
      to { opacity: 1; }
    }
    .data-line-0 {
      stroke-dasharray: 1210;
      stroke-dashoffset: 1210;
      animation: drawLine 2s ease-out forwards;
    }
    .data-point {
      opacity: 0;
      animation: fadeInPoint 0.5s ease-out forwards;
    }
    .chart-bg { fill: #fff; }
    .chart-text { fill: #24292e; }
    .chart-muted { fill: #6a737d; }
    .chart-grid { stroke: #eee; }
    .chart-axis { stroke: #6a737d; }
    @media (prefers-color-scheme: dark) {
      .chart-bg { fill: #0d1117; }
      .chart-text { fill: #e6edf3; }
      .chart-muted { fill: #8b949e; }
      .chart-grid { stroke: #21262d; }
      .chart-axis { stroke: #8b949e; }
    }
  </style>
  <rect width="800" height="400" class="chart-bg" />
  <text x="400" y="14" text-anchor="middle" class="chart-text" font-size="16" font-weight="bold" font-family="-apple-system, BlinkMacSystemFont, 'Segoe UI', Helvetica, Arial, sans-serif">qemus/virtiso-arm Star History</text>
  
  <g class="grid">
    <line x1="60" y1="350" x2="770" y2="350" class="chart-grid" stroke-opacity="0.3" />
    <text x="778" y="354" text-anchor="start" class="chart-muted" font-size="11" font-family="-apple-system, BlinkMacSystemFont, 'Segoe UI', Helvetica, Arial, sans-serif">0</text>
    <line x1="60" y1="300" x2="770" y2="300" class="chart-grid" stroke-opacity="0.3" />
    <text x="778" y="304" text-anchor="start" class="chart-muted" font-size="11" font-family="-apple-system, BlinkMacSystemFont, 'Segoe UI', Helvetica, Arial, sans-serif">5</text>
    <line x1="60" y1="250" x2="770" y2="250" class="chart-grid" stroke-opacity="0.3" />
    <text x="778" y="254" text-anchor="start" class="chart-muted" font-size="11" font-family="-apple-system, BlinkMacSystemFont, 'Segoe UI', Helvetica, Arial, sans-serif">10</text>
    <line x1="60" y1="200" x2="770" y2="200" class="chart-grid" stroke-opacity="0.3" />
    <text x="778" y="204" text-anchor="start" class="chart-muted" font-size="11" font-family="-apple-system, BlinkMacSystemFont, 'Segoe UI', Helvetica, Arial, sans-serif">15</text>
    <line x1="60" y1="150" x2="770" y2="150" class="chart-grid" stroke-opacity="0.3" />
    <text x="778" y="154" text-anchor="start" class="chart-muted" font-size="11" font-family="-apple-system, BlinkMacSystemFont, 'Segoe UI', Helvetica, Arial, sans-serif">20</text>
    <line x1="60" y1="100" x2="770" y2="100" class="chart-grid" stroke-opacity="0.3" />
    <text x="778" y="104" text-anchor="start" class="chart-muted" font-size="11" font-family="-apple-system, BlinkMacSystemFont, 'Segoe UI', Helvetica, Arial, sans-serif">25</text>
    <line x1="60" y1="50" x2="770" y2="50" class="chart-grid" stroke-opacity="0.3" />
    <text x="778" y="54" text-anchor="start" class="chart-muted" font-size="11" font-family="-apple-system, BlinkMacSystemFont, 'Segoe UI', Helvetica, Arial, sans-serif">30</text>
  </g>
  <g class="milestones">
    
  </g>
  <g class="x-axis">
    <text x="60" y="370" text-anchor="middle" class="chart-muted" font-size="11" font-family="-apple-system, BlinkMacSystemFont, 'Segoe UI', Helvetica, Arial, sans-serif">2024</text>
    <text x="304.82758620689657" y="370" text-anchor="middle" class="chart-muted" font-size="11" font-family="-apple-system, BlinkMacSystemFont, 'Segoe UI', Helvetica, Arial, sans-serif">2025</text>
    <text x="623.1034482758621" y="370" text-anchor="middle" class="chart-muted" font-size="11" font-family="-apple-system, BlinkMacSystemFont, 'Segoe UI', Helvetica, Arial, sans-serif">2026</text>
  </g>
  <line x1="770" y1="50" x2="770" y2="350" class="chart-axis" stroke-width="1" />
  <line x1="60" y1="350" x2="770" y2="350" class="chart-axis" stroke-width="1" />
  <path d="M60,350 L60,340 C68.16091954022988,336.6666666666667 76.32183908045977,330 84.48275862068965,330 C92.64367816091954,330 100.80459770114942,330 108.9655172413793,330 C117.12643678160919,330 125.28735632183907,330 133.44827586206895,330 C141.60919540229884,330 149.77011494252872,330 157.9310344827586,330 C166.0919540229885,330 174.2528735632184,330 182.41379310344828,330 C190.57471264367817,330 198.73563218390805,330 206.89655172413794,330 C215.05747126436782,330 223.2183908045977,320 231.3793103448276,320 C239.54022988505747,320 247.70114942528735,320 255.86206896551724,320 C264.0229885057471,320 272.183908045977,320 280.34482758620686,320 C288.50574712643675,320 296.6666666666667,320 304.82758620689657,320 C312.98850574712645,320 321.14942528735634,320 329.3103448275862,320 C337.4712643678161,320 345.632183908046,320 353.7931034482759,320 C361.95402298850576,320 370.11494252873564,306.6666666666667 378.2758620689655,300 C386.4367816091954,293.3333333333333 394.5977011494253,280 402.7586206896552,280 C410.91954022988506,280 419.08045977011494,280 427.2413793103448,280 C435.4022988505747,280 443.5632183908046,280 451.7241379310345,280 C459.88505747126436,280 468.04597701149424,275 476.2068965517241,270 C484.367816091954,265 492.5287356321839,258.3333333333333 500.6896551724138,250 C508.85057471264366,241.66666666666666 517.0114942528736,220 525.1724137931035,220 C533.3333333333334,220 541.4942528735633,220 549.6551724137931,220 C557.816091954023,220 565.9770114942529,205 574.1379310344828,200 C582.2988505747127,195 590.4597701149426,198.33333333333334 598.6206896551724,190 C606.7816091954023,181.66666666666666 614.9425287356322,158.33333333333334 623.1034482758621,150 C631.264367816092,141.66666666666666 639.4252873563219,143.33333333333331 647.5862068965517,140 C655.7471264367816,136.66666666666669 663.9080459770115,130.00000000000003 672.0689655172414,130.00000000000003 C680.2298850574713,130.00000000000003 688.3908045977012,130.00000000000003 696.551724137931,130.00000000000003 C704.7126436781609,130.00000000000003 712.8735632183908,124.99999999999997 721.0344827586207,119.99999999999997 C729.1954022988506,114.99999999999997 737.3563218390805,100 745.5172413793103,100 C753.6781609195402,100 761.8390804597701,100 770,100 L770,350 L60,350 Z" fill="#6b63ff" fill-opacity="0.1" />
  <path d="M60,350 L60,340 C68.16091954022988,336.6666666666667 76.32183908045977,330 84.48275862068965,330 C92.64367816091954,330 100.80459770114942,330 108.9655172413793,330 C117.12643678160919,330 125.28735632183907,330 133.44827586206895,330 C141.60919540229884,330 149.77011494252872,330 157.9310344827586,330 C166.0919540229885,330 174.2528735632184,330 182.41379310344828,330 C190.57471264367817,330 198.73563218390805,330 206.89655172413794,330 C215.05747126436782,330 223.2183908045977,320 231.3793103448276,320 C239.54022988505747,320 247.70114942528735,320 255.86206896551724,320 C264.0229885057471,320 272.183908045977,320 280.34482758620686,320 C288.50574712643675,320 296.6666666666667,320 304.82758620689657,320 C312.98850574712645,320 321.14942528735634,320 329.3103448275862,320 C337.4712643678161,320 345.632183908046,320 353.7931034482759,320 C361.95402298850576,320 370.11494252873564,306.6666666666667 378.2758620689655,300 C386.4367816091954,293.3333333333333 394.5977011494253,280 402.7586206896552,280 C410.91954022988506,280 419.08045977011494,280 427.2413793103448,280 C435.4022988505747,280 443.5632183908046,280 451.7241379310345,280 C459.88505747126436,280 468.04597701149424,275 476.2068965517241,270 C484.367816091954,265 492.5287356321839,258.3333333333333 500.6896551724138,250 C508.85057471264366,241.66666666666666 517.0114942528736,220 525.1724137931035,220 C533.3333333333334,220 541.4942528735633,220 549.6551724137931,220 C557.816091954023,220 565.9770114942529,205 574.1379310344828,200 C582.2988505747127,195 590.4597701149426,198.33333333333334 598.6206896551724,190 C606.7816091954023,181.66666666666666 614.9425287356322,158.33333333333334 623.1034482758621,150 C631.264367816092,141.66666666666666 639.4252873563219,143.33333333333331 647.5862068965517,140 C655.7471264367816,136.66666666666669 663.9080459770115,130.00000000000003 672.0689655172414,130.00000000000003 C680.2298850574713,130.00000000000003 688.3908045977012,130.00000000000003 696.551724137931,130.00000000000003 C704.7126436781609,130.00000000000003 712.8735632183908,124.99999999999997 721.0344827586207,119.99999999999997 C729.1954022988506,114.99999999999997 737.3563218390805,100 745.5172413793103,100 C753.6781609195402,100 761.8390804597701,100 770,100" fill="none" stroke="#6b63ff" stroke-width="2.5" class="data-line-0" />
  <g class="points">
    
    <circle cx="60" cy="340" r="4" fill="#6b63ff" class="data-point" style="animation-delay: 1.50s" />
    <circle cx="84.48275862068965" cy="330" r="4" fill="#6b63ff" class="data-point" style="animation-delay: 1.55s" />
    <circle cx="108.9655172413793" cy="330" r="4" fill="#6b63ff" class="data-point" style="animation-delay: 1.60s" />
    <circle cx="133.44827586206895" cy="330" r="4" fill="#6b63ff" class="data-point" style="animation-delay: 1.65s" />
    <circle cx="157.9310344827586" cy="330" r="4" fill="#6b63ff" class="data-point" style="animation-delay: 1.70s" />
    <circle cx="182.41379310344828" cy="330" r="4" fill="#6b63ff" class="data-point" style="animation-delay: 1.75s" />
    <circle cx="206.89655172413794" cy="330" r="4" fill="#6b63ff" class="data-point" style="animation-delay: 1.80s" />
    <circle cx="231.3793103448276" cy="320" r="4" fill="#6b63ff" class="data-point" style="animation-delay: 1.85s" />
    <circle cx="255.86206896551724" cy="320" r="4" fill="#6b63ff" class="data-point" style="animation-delay: 1.90s" />
    <circle cx="280.34482758620686" cy="320" r="4" fill="#6b63ff" class="data-point" style="animation-delay: 1.95s" />
    <circle cx="304.82758620689657" cy="320" r="4" fill="#6b63ff" class="data-point" style="animation-delay: 2.00s" />
    <circle cx="329.3103448275862" cy="320" r="4" fill="#6b63ff" class="data-point" style="animation-delay: 2.05s" />
    <circle cx="353.7931034482759" cy="320" r="4" fill="#6b63ff" class="data-point" style="animation-delay: 2.10s" />
    <circle cx="378.2758620689655" cy="300" r="4" fill="#6b63ff" class="data-point" style="animation-delay: 2.15s" />
    <circle cx="402.7586206896552" cy="280" r="4" fill="#6b63ff" class="data-point" style="animation-delay: 2.20s" />
    <circle cx="427.2413793103448" cy="280" r="4" fill="#6b63ff" class="data-point" style="animation-delay: 2.25s" />
    <circle cx="451.7241379310345" cy="280" r="4" fill="#6b63ff" class="data-point" style="animation-delay: 2.30s" />
    <circle cx="476.2068965517241" cy="270" r="4" fill="#6b63ff" class="data-point" style="animation-delay: 2.35s" />
    <circle cx="500.6896551724138" cy="250" r="4" fill="#6b63ff" class="data-point" style="animation-delay: 2.40s" />
    <circle cx="525.1724137931035" cy="220" r="4" fill="#6b63ff" class="data-point" style="animation-delay: 2.45s" />
    <circle cx="549.6551724137931" cy="220" r="4" fill="#6b63ff" class="data-point" style="animation-delay: 2.50s" />
    <circle cx="574.1379310344828" cy="200" r="4" fill="#6b63ff" class="data-point" style="animation-delay: 2.55s" />
    <circle cx="598.6206896551724" cy="190" r="4" fill="#6b63ff" class="data-point" style="animation-delay: 2.60s" />
    <circle cx="623.1034482758621" cy="150" r="4" fill="#6b63ff" class="data-point" style="animation-delay: 2.65s" />
    <circle cx="647.5862068965517" cy="140" r="4" fill="#6b63ff" class="data-point" style="animation-delay: 2.70s" />
    <circle cx="672.0689655172414" cy="130.00000000000003" r="4" fill="#6b63ff" class="data-point" style="animation-delay: 2.75s" />
    <circle cx="696.551724137931" cy="130.00000000000003" r="4" fill="#6b63ff" class="data-point" style="animation-delay: 2.80s" />
    <circle cx="721.0344827586207" cy="119.99999999999997" r="4" fill="#6b63ff" class="data-point" style="animation-delay: 2.85s" />
    <circle cx="745.5172413793103" cy="100" r="4" fill="#6b63ff" class="data-point" style="animation-delay: 2.90s" />
    <circle cx="770" cy="100" r="4" fill="#6b63ff" class="data-point" style="animation-delay: 2.95s" />
  </g>
</svg>