<svg xmlns="http://www.w3.org/2000/svg" viewBox="0 0 800 400" width="800" height="400">
  <style>
    @keyframes drawLine {
      to { stroke-dashoffset: 0; }
    }
    @keyframes fadeInPoint {
      from { opacity: 0; }
      to { opacity: 1; }
    }
    .data-line-0 {
      stroke-dasharray: 1221;
      stroke-dashoffset: 1221;
      animation: drawLine 2s ease-out forwards;
    }
    .data-point {
      opacity: 0;
      animation: fadeInPoint 0.5s ease-out forwards;
    }
    .chart-bg { fill: #fff; }
    .chart-text { fill: #24292e; }
    .chart-muted { fill: #6a737d; }
    .chart-grid { stroke: #eee; }
    .chart-axis { stroke: #6a737d; }
    @media (prefers-color-scheme: dark) {
      .chart-bg { fill: #0d1117; }
      .chart-text { fill: #e6edf3; }
      .chart-muted { fill: #8b949e; }
      .chart-grid { stroke: #21262d; }
      .chart-axis { stroke: #8b949e; }
    }
  </style>
  <rect width="800" height="400" class="chart-bg" />
  <text x="400" y="34" text-anchor="middle" class="chart-text" font-size="16" font-weight="bold" font-family="-apple-system, BlinkMacSystemFont, 'Segoe UI', Helvetica, Arial, sans-serif">qemus/virtiso-arm Star History</text>
  
  <g class="grid">
    <line x1="60" y1="350" x2="770" y2="350" class="chart-grid" stroke-opacity="0.3" />
    <text x="778" y="354" text-anchor="start" class="chart-muted" font-size="11" font-family="-apple-system, BlinkMacSystemFont, 'Segoe UI', Helvetica, Arial, sans-serif">0</text>
    <line x1="60" y1="296.42857142857144" x2="770" y2="296.42857142857144" class="chart-grid" stroke-opacity="0.3" />
    <text x="778" y="300.42857142857144" text-anchor="start" class="chart-muted" font-size="11" font-family="-apple-system, BlinkMacSystemFont, 'Segoe UI', Helvetica, Arial, sans-serif">5</text>
    <line x1="60" y1="242.85714285714286" x2="770" y2="242.85714285714286" class="chart-grid" stroke-opacity="0.3" />
    <text x="778" y="246.85714285714286" text-anchor="start" class="chart-muted" font-size="11" font-family="-apple-system, BlinkMacSystemFont, 'Segoe UI', Helvetica, Arial, sans-serif">10</text>
    <line x1="60" y1="189.28571428571428" x2="770" y2="189.28571428571428" class="chart-grid" stroke-opacity="0.3" />
    <text x="778" y="193.28571428571428" text-anchor="start" class="chart-muted" font-size="11" font-family="-apple-system, BlinkMacSystemFont, 'Segoe UI', Helvetica, Arial, sans-serif">15</text>
    <line x1="60" y1="135.71428571428572" x2="770" y2="135.71428571428572" class="chart-grid" stroke-opacity="0.3" />
    <text x="778" y="139.71428571428572" text-anchor="start" class="chart-muted" font-size="11" font-family="-apple-system, BlinkMacSystemFont, 'Segoe UI', Helvetica, Arial, sans-serif">20</text>
    <line x1="60" y1="82.14285714285711" x2="770" y2="82.14285714285711" class="chart-grid" stroke-opacity="0.3" />
    <text x="778" y="86.14285714285711" text-anchor="start" class="chart-muted" font-size="11" font-family="-apple-system, BlinkMacSystemFont, 'Segoe UI', Helvetica, Arial, sans-serif">25</text>
    <line x1="60" y1="28.571428571428555" x2="770" y2="28.571428571428555" class="chart-grid" stroke-opacity="0.3" />
    <text x="778" y="32.571428571428555" text-anchor="start" class="chart-muted" font-size="11" font-family="-apple-system, BlinkMacSystemFont, 'Segoe UI', Helvetica, Arial, sans-serif">30</text>
  </g>
  <g class="milestones">
    
  </g>
  <g class="x-axis">
    <text x="60" y="370" text-anchor="middle" class="chart-muted" font-size="11" font-family="-apple-system, BlinkMacSystemFont, 'Segoe UI', Helvetica, Arial, sans-serif">2024</text>
    <text x="304.82758620689657" y="370" text-anchor="middle" class="chart-muted" font-size="11" font-family="-apple-system, BlinkMacSystemFont, 'Segoe UI', Helvetica, Arial, sans-serif">2025</text>
    <text x="623.1034482758621" y="370" text-anchor="middle" class="chart-muted" font-size="11" font-family="-apple-system, BlinkMacSystemFont, 'Segoe UI', Helvetica, Arial, sans-serif">2026</text>
  </g>
  <line x1="770" y1="50" x2="770" y2="350" class="chart-axis" stroke-width="1" />
  <line x1="60" y1="350" x2="770" y2="350" class="chart-axis" stroke-width="1" />
  <path d="M60,350 L60,339.2857142857143 C63.264367816091955,337.85714285714283 77.95402298850574,330 84.48275862068965,328.57142857142856 C91.01149425287356,328.57142857142856 102.43678160919539,328.57142857142856 108.9655172413793,328.57142857142856 C115.49425287356321,328.57142857142856 126.91954022988504,328.57142857142856 133.44827586206895,328.57142857142856 C139.97701149425285,328.57142857142856 151.40229885057468,328.57142857142856 157.9310344827586,328.57142857142856 C164.45977011494253,328.57142857142856 175.88505747126436,328.57142857142856 182.41379310344828,328.57142857142856 C188.9425287356322,328.57142857142856 200.36781609195404,328.57142857142856 206.89655172413794,328.57142857142856 C213.42528735632183,327.1428571428571 224.8505747126437,319.28571428571433 231.3793103448276,317.8571428571429 C237.90804597701148,317.8571428571429 249.33333333333334,317.8571428571429 255.86206896551724,317.8571428571429 C262.39080459770116,317.8571428571429 273.81609195402297,317.8571428571429 280.34482758620686,317.8571428571429 C286.87356321839076,317.8571428571429 298.2988505747127,317.8571428571429 304.82758620689657,317.8571428571429 C311.35632183908046,317.8571428571429 322.7816091954023,317.8571428571429 329.3103448275862,317.8571428571429 C335.8390804597701,317.8571428571429 347.264367816092,317.8571428571429 353.7931034482759,317.8571428571429 C360.32183908045977,315.00000000000006 371.7471264367816,300.7142857142857 378.2758620689655,296.42857142857144 C384.8045977011494,292.14285714285717 396.2298850574713,288.57142857142856 402.7586206896552,285.7142857142857 C409.28735632183907,282.8571428571429 420.71264367816093,276.42857142857144 427.2413793103448,275 C433.7701149425287,275 445.1954022988506,275 451.7241379310345,275 C458.2528735632184,273.57142857142856 469.67816091954023,267.1428571428571 476.2068965517241,264.2857142857143 C482.735632183908,261.42857142857144 494.1609195402299,260.7142857142857 500.6896551724138,253.57142857142856 C507.2183908045977,246.42857142857142 518.6436781609195,216.42857142857144 525.1724137931035,210.71428571428572 C531.7011494252874,210.71428571428572 543.1264367816092,210.71428571428572 549.6551724137931,210.71428571428572 C556.1839080459771,207.85714285714286 567.6091954022988,193.57142857142856 574.1379310344828,189.28571428571428 C580.6666666666667,185 592.0919540229885,184.2857142857143 598.6206896551724,178.57142857142858 C605.1494252873564,172.85714285714286 616.5747126436781,153.57142857142856 623.1034482758621,146.42857142857142 C629.632183908046,139.28571428571428 641.0574712643678,129.28571428571428 647.5862068965517,125 C654.1149425287357,120.71428571428571 665.5402298850574,115.71428571428571 672.0689655172414,114.28571428571428 C678.5977011494253,114.28571428571428 690.0229885057471,114.28571428571428 696.551724137931,114.28571428571428 C703.080459770115,112.85714285714285 714.5057471264367,107.85714285714288 721.0344827586207,103.57142857142858 C727.5632183908046,99.28571428571429 738.9885057471264,84.99999999999997 745.5172413793103,82.14285714285711 C752.0459770114943,82.14285714285711 766.735632183908,82.14285714285711 770,82.14285714285711 L770,350 L60,350 Z" fill="#6b63ff" fill-opacity="0.1" />
  <path d="M60,350 L60,339.2857142857143 C63.264367816091955,337.85714285714283 77.95402298850574,330 84.48275862068965,328.57142857142856 C91.01149425287356,328.57142857142856 102.43678160919539,328.57142857142856 108.9655172413793,328.57142857142856 C115.49425287356321,328.57142857142856 126.91954022988504,328.57142857142856 133.44827586206895,328.57142857142856 C139.97701149425285,328.57142857142856 151.40229885057468,328.57142857142856 157.9310344827586,328.57142857142856 C164.45977011494253,328.57142857142856 175.88505747126436,328.57142857142856 182.41379310344828,328.57142857142856 C188.9425287356322,328.57142857142856 200.36781609195404,328.57142857142856 206.89655172413794,328.57142857142856 C213.42528735632183,327.1428571428571 224.8505747126437,319.28571428571433 231.3793103448276,317.8571428571429 C237.90804597701148,317.8571428571429 249.33333333333334,317.8571428571429 255.86206896551724,317.8571428571429 C262.39080459770116,317.8571428571429 273.81609195402297,317.8571428571429 280.34482758620686,317.8571428571429 C286.87356321839076,317.8571428571429 298.2988505747127,317.8571428571429 304.82758620689657,317.8571428571429 C311.35632183908046,317.8571428571429 322.7816091954023,317.8571428571429 329.3103448275862,317.8571428571429 C335.8390804597701,317.8571428571429 347.264367816092,317.8571428571429 353.7931034482759,317.8571428571429 C360.32183908045977,315.00000000000006 371.7471264367816,300.7142857142857 378.2758620689655,296.42857142857144 C384.8045977011494,292.14285714285717 396.2298850574713,288.57142857142856 402.7586206896552,285.7142857142857 C409.28735632183907,282.8571428571429 420.71264367816093,276.42857142857144 427.2413793103448,275 C433.7701149425287,275 445.1954022988506,275 451.7241379310345,275 C458.2528735632184,273.57142857142856 469.67816091954023,267.1428571428571 476.2068965517241,264.2857142857143 C482.735632183908,261.42857142857144 494.1609195402299,260.7142857142857 500.6896551724138,253.57142857142856 C507.2183908045977,246.42857142857142 518.6436781609195,216.42857142857144 525.1724137931035,210.71428571428572 C531.7011494252874,210.71428571428572 543.1264367816092,210.71428571428572 549.6551724137931,210.71428571428572 C556.1839080459771,207.85714285714286 567.6091954022988,193.57142857142856 574.1379310344828,189.28571428571428 C580.6666666666667,185 592.0919540229885,184.2857142857143 598.6206896551724,178.57142857142858 C605.1494252873564,172.85714285714286 616.5747126436781,153.57142857142856 623.1034482758621,146.42857142857142 C629.632183908046,139.28571428571428 641.0574712643678,129.28571428571428 647.5862068965517,125 C654.1149425287357,120.71428571428571 665.5402298850574,115.71428571428571 672.0689655172414,114.28571428571428 C678.5977011494253,114.28571428571428 690.0229885057471,114.28571428571428 696.551724137931,114.28571428571428 C703.080459770115,112.85714285714285 714.5057471264367,107.85714285714288 721.0344827586207,103.57142857142858 C727.5632183908046,99.28571428571429 738.9885057471264,84.99999999999997 745.5172413793103,82.14285714285711 C752.0459770114943,82.14285714285711 766.735632183908,82.14285714285711 770,82.14285714285711" fill="none" stroke="#6b63ff" stroke-width="2.5" class="data-line-0" />
  <g class="points">
    
    <circle cx="60" cy="339.2857142857143" r="4" fill="#6b63ff" class="data-point" style="animation-delay: 1.50s" />
    <circle cx="84.48275862068965" cy="328.57142857142856" r="4" fill="#6b63ff" class="data-point" style="animation-delay: 1.55s" />
    <circle cx="108.9655172413793" cy="328.57142857142856" r="4" fill="#6b63ff" class="data-point" style="animation-delay: 1.60s" />
    <circle cx="133.44827586206895" cy="328.57142857142856" r="4" fill="#6b63ff" class="data-point" style="animation-delay: 1.65s" />
    <circle cx="157.9310344827586" cy="328.57142857142856" r="4" fill="#6b63ff" class="data-point" style="animation-delay: 1.70s" />
    <circle cx="182.41379310344828" cy="328.57142857142856" r="4" fill="#6b63ff" class="data-point" style="animation-delay: 1.75s" />
    <circle cx="206.89655172413794" cy="328.57142857142856" r="4" fill="#6b63ff" class="data-point" style="animation-delay: 1.80s" />
    <circle cx="231.3793103448276" cy="317.8571428571429" r="4" fill="#6b63ff" class="data-point" style="animation-delay: 1.85s" />
    <circle cx="255.86206896551724" cy="317.8571428571429" r="4" fill="#6b63ff" class="data-point" style="animation-delay: 1.90s" />
    <circle cx="280.34482758620686" cy="317.8571428571429" r="4" fill="#6b63ff" class="data-point" style="animation-delay: 1.95s" />
    <circle cx="304.82758620689657" cy="317.8571428571429" r="4" fill="#6b63ff" class="data-point" style="animation-delay: 2.00s" />
    <circle cx="329.3103448275862" cy="317.8571428571429" r="4" fill="#6b63ff" class="data-point" style="animation-delay: 2.05s" />
    <circle cx="353.7931034482759" cy="317.8571428571429" r="4" fill="#6b63ff" class="data-point" style="animation-delay: 2.10s" />
    <circle cx="378.2758620689655" cy="296.42857142857144" r="4" fill="#6b63ff" class="data-point" style="animation-delay: 2.15s" />
    <circle cx="402.7586206896552" cy="285.7142857142857" r="4" fill="#6b63ff" class="data-point" style="animation-delay: 2.20s" />
    <circle cx="427.2413793103448" cy="275" r="4" fill="#6b63ff" class="data-point" style="animation-delay: 2.25s" />
    <circle cx="451.7241379310345" cy="275" r="4" fill="#6b63ff" class="data-point" style="animation-delay: 2.30s" />
    <circle cx="476.2068965517241" cy="264.2857142857143" r="4" fill="#6b63ff" class="data-point" style="animation-delay: 2.35s" />
    <circle cx="500.6896551724138" cy="253.57142857142856" r="4" fill="#6b63ff" class="data-point" style="animation-delay: 2.40s" />
    <circle cx="525.1724137931035" cy="210.71428571428572" r="4" fill="#6b63ff" class="data-point" style="animation-delay: 2.45s" />
    <circle cx="549.6551724137931" cy="210.71428571428572" r="4" fill="#6b63ff" class="data-point" style="animation-delay: 2.50s" />
    <circle cx="574.1379310344828" cy="189.28571428571428" r="4" fill="#6b63ff" class="data-point" style="animation-delay: 2.55s" />
    <circle cx="598.6206896551724" cy="178.57142857142858" r="4" fill="#6b63ff" class="data-point" style="animation-delay: 2.60s" />
    <circle cx="623.1034482758621" cy="146.42857142857142" r="4" fill="#6b63ff" class="data-point" style="animation-delay: 2.65s" />
    <circle cx="647.5862068965517" cy="125" r="4" fill="#6b63ff" class="data-point" style="animation-delay: 2.70s" />
    <circle cx="672.0689655172414" cy="114.28571428571428" r="4" fill="#6b63ff" class="data-point" style="animation-delay: 2.75s" />
    <circle cx="696.551724137931" cy="114.28571428571428" r="4" fill="#6b63ff" class="data-point" style="animation-delay: 2.80s" />
    <circle cx="721.0344827586207" cy="103.57142857142858" r="4" fill="#6b63ff" class="data-point" style="animation-delay: 2.85s" />
    <circle cx="745.5172413793103" cy="82.14285714285711" r="4" fill="#6b63ff" class="data-point" style="animation-delay: 2.90s" />
    <circle cx="770" cy="82.14285714285711" r="4" fill="#6b63ff" class="data-point" style="animation-delay: 2.95s" />
  </g>
</svg>