<svg xmlns="http://www.w3.org/2000/svg" viewBox="0 0 800 400" width="800" height="400">
  <style>
    @keyframes drawLine {
      to { stroke-dashoffset: 0; }
    }
    @keyframes fadeInPoint {
      from { opacity: 0; }
      to { opacity: 1; }
    }
    .data-line-0 {
      stroke-dasharray: 1287;
      stroke-dashoffset: 1287;
      animation: drawLine 2s ease-out forwards;
    }
    .data-point {
      opacity: 0;
      animation: fadeInPoint 0.5s ease-out forwards;
    }
    .chart-bg { fill: #fff; }
    .chart-text { fill: #24292e; }
    .chart-muted { fill: #6a737d; }
    .chart-grid { stroke: #eee; }
    .chart-axis { stroke: #6a737d; }
    @media (prefers-color-scheme: dark) {
      .chart-bg { fill: #0d1117; }
      .chart-text { fill: #e6edf3; }
      .chart-muted { fill: #8b949e; }
      .chart-grid { stroke: #21262d; }
      .chart-axis { stroke: #8b949e; }
    }
  </style>
  <rect width="800" height="400" class="chart-bg" />
  <text x="400" y="34" text-anchor="middle" class="chart-text" font-size="16" font-weight="bold" font-family="-apple-system, BlinkMacSystemFont, 'Segoe UI', Helvetica, Arial, sans-serif">qemus/passt Star History</text>
  
  <g class="grid">
    <line x1="60" y1="350" x2="770" y2="350" class="chart-grid" stroke-opacity="0.3" />
    <text x="778" y="354" text-anchor="start" class="chart-muted" font-size="11" font-family="-apple-system, BlinkMacSystemFont, 'Segoe UI', Helvetica, Arial, sans-serif">0</text>
    <line x1="60" y1="295.45454545454544" x2="770" y2="295.45454545454544" class="chart-grid" stroke-opacity="0.3" />
    <text x="778" y="299.45454545454544" text-anchor="start" class="chart-muted" font-size="11" font-family="-apple-system, BlinkMacSystemFont, 'Segoe UI', Helvetica, Arial, sans-serif">2</text>
    <line x1="60" y1="240.9090909090909" x2="770" y2="240.9090909090909" class="chart-grid" stroke-opacity="0.3" />
    <text x="778" y="244.9090909090909" text-anchor="start" class="chart-muted" font-size="11" font-family="-apple-system, BlinkMacSystemFont, 'Segoe UI', Helvetica, Arial, sans-serif">4</text>
    <line x1="60" y1="186.36363636363637" x2="770" y2="186.36363636363637" class="chart-grid" stroke-opacity="0.3" />
    <text x="778" y="190.36363636363637" text-anchor="start" class="chart-muted" font-size="11" font-family="-apple-system, BlinkMacSystemFont, 'Segoe UI', Helvetica, Arial, sans-serif">6</text>
    <line x1="60" y1="131.8181818181818" x2="770" y2="131.8181818181818" class="chart-grid" stroke-opacity="0.3" />
    <text x="778" y="135.8181818181818" text-anchor="start" class="chart-muted" font-size="11" font-family="-apple-system, BlinkMacSystemFont, 'Segoe UI', Helvetica, Arial, sans-serif">8</text>
    <line x1="60" y1="77.27272727272731" x2="770" y2="77.27272727272731" class="chart-grid" stroke-opacity="0.3" />
    <text x="778" y="81.27272727272731" text-anchor="start" class="chart-muted" font-size="11" font-family="-apple-system, BlinkMacSystemFont, 'Segoe UI', Helvetica, Arial, sans-serif">10</text>
    <line x1="60" y1="22.727272727272748" x2="770" y2="22.727272727272748" class="chart-grid" stroke-opacity="0.3" />
    <text x="778" y="26.727272727272748" text-anchor="start" class="chart-muted" font-size="11" font-family="-apple-system, BlinkMacSystemFont, 'Segoe UI', Helvetica, Arial, sans-serif">12</text>
  </g>
  <g class="milestones">
    
  </g>
  <g class="x-axis">
    <text x="60" y="370" text-anchor="middle" class="chart-muted" font-size="11" font-family="-apple-system, BlinkMacSystemFont, 'Segoe UI', Helvetica, Arial, sans-serif">Oct 3</text>
    <text x="133.44827586206895" y="370" text-anchor="middle" class="chart-muted" font-size="11" font-family="-apple-system, BlinkMacSystemFont, 'Segoe UI', Helvetica, Arial, sans-serif">Oct 31</text>
    <text x="206.89655172413794" y="370" text-anchor="middle" class="chart-muted" font-size="11" font-family="-apple-system, BlinkMacSystemFont, 'Segoe UI', Helvetica, Arial, sans-serif">Nov 27</text>
    <text x="280.34482758620686" y="370" text-anchor="middle" class="chart-muted" font-size="11" font-family="-apple-system, BlinkMacSystemFont, 'Segoe UI', Helvetica, Arial, sans-serif">Dec 25</text>
    <text x="353.7931034482759" y="370" text-anchor="middle" class="chart-muted" font-size="11" font-family="-apple-system, BlinkMacSystemFont, 'Segoe UI', Helvetica, Arial, sans-serif">Jan 21</text>
    <text x="427.2413793103448" y="370" text-anchor="middle" class="chart-muted" font-size="11" font-family="-apple-system, BlinkMacSystemFont, 'Segoe UI', Helvetica, Arial, sans-serif">Feb 17</text>
    <text x="500.6896551724138" y="370" text-anchor="middle" class="chart-muted" font-size="11" font-family="-apple-system, BlinkMacSystemFont, 'Segoe UI', Helvetica, Arial, sans-serif">Mar 17</text>
    <text x="574.1379310344828" y="370" text-anchor="middle" class="chart-muted" font-size="11" font-family="-apple-system, BlinkMacSystemFont, 'Segoe UI', Helvetica, Arial, sans-serif">Apr 13</text>
    <text x="647.5862068965517" y="370" text-anchor="middle" class="chart-muted" font-size="11" font-family="-apple-system, BlinkMacSystemFont, 'Segoe UI', Helvetica, Arial, sans-serif">May 11</text>
    <text x="721.0344827586207" y="370" text-anchor="middle" class="chart-muted" font-size="11" font-family="-apple-system, BlinkMacSystemFont, 'Segoe UI', Helvetica, Arial, sans-serif">Jun 7</text>
    <text x="770" y="370" text-anchor="middle" class="chart-muted" font-size="11" font-family="-apple-system, BlinkMacSystemFont, 'Segoe UI', Helvetica, Arial, sans-serif">Jun 25</text>
  </g>
  <line x1="770" y1="50" x2="770" y2="350" class="chart-axis" stroke-width="1" />
  <line x1="60" y1="350" x2="770" y2="350" class="chart-axis" stroke-width="1" />
  <path d="M60,350 L60,322.72727272727275 C63.264367816091955,319.0909090909091 77.95402298850574,299.09090909090907 84.48275862068965,295.45454545454544 C91.01149425287356,295.45454545454544 102.43678160919539,295.45454545454544 108.9655172413793,295.45454545454544 C115.49425287356321,295.45454545454544 126.91954022988504,295.45454545454544 133.44827586206895,295.45454545454544 C139.97701149425285,295.45454545454544 151.40229885057468,295.45454545454544 157.9310344827586,295.45454545454544 C164.45977011494253,295.45454545454544 175.88505747126436,295.45454545454544 182.41379310344828,295.45454545454544 C188.9425287356322,295.45454545454544 200.36781609195404,295.45454545454544 206.89655172413794,295.45454545454544 C213.42528735632183,291.8181818181818 224.8505747126437,271.8181818181818 231.3793103448276,268.1818181818182 C237.90804597701148,268.1818181818182 249.33333333333334,268.1818181818182 255.86206896551724,268.1818181818182 C262.39080459770116,268.1818181818182 273.81609195402297,268.1818181818182 280.34482758620686,268.1818181818182 C286.87356321839076,268.1818181818182 298.2988505747127,268.1818181818182 304.82758620689657,268.1818181818182 C311.35632183908046,264.54545454545456 322.7816091954023,244.54545454545453 329.3103448275862,240.9090909090909 C335.8390804597701,240.9090909090909 347.264367816092,240.9090909090909 353.7931034482759,240.9090909090909 C360.32183908045977,237.27272727272728 371.7471264367816,217.27272727272728 378.2758620689655,213.63636363636365 C384.8045977011494,213.63636363636365 396.2298850574713,213.63636363636365 402.7586206896552,213.63636363636365 C409.28735632183907,213.63636363636365 420.71264367816093,213.63636363636365 427.2413793103448,213.63636363636365 C433.7701149425287,213.63636363636365 445.1954022988506,213.63636363636365 451.7241379310345,213.63636363636365 C458.2528735632184,213.63636363636365 469.67816091954023,213.63636363636365 476.2068965517241,213.63636363636365 C482.735632183908,210.00000000000003 494.1609195402299,193.63636363636365 500.6896551724138,186.36363636363637 C507.2183908045977,179.0909090909091 518.6436781609195,170 525.1724137931035,159.0909090909091 C531.7011494252874,148.1818181818182 543.1264367816092,111.81818181818181 549.6551724137931,104.54545454545453 C556.1839080459771,104.54545454545453 567.6091954022988,104.54545454545453 574.1379310344828,104.54545454545453 C580.6666666666667,104.54545454545453 592.0919540229885,104.54545454545453 598.6206896551724,104.54545454545453 C605.1494252873564,100.9090909090909 616.5747126436781,80.90909090909093 623.1034482758621,77.27272727272731 C629.632183908046,77.27272727272731 641.0574712643678,77.27272727272731 647.5862068965517,77.27272727272731 C654.1149425287357,77.27272727272731 665.5402298850574,77.27272727272731 672.0689655172414,77.27272727272731 C678.5977011494253,77.27272727272731 690.0229885057471,77.27272727272731 696.551724137931,77.27272727272731 C703.080459770115,77.27272727272731 714.5057471264367,77.27272727272731 721.0344827586207,77.27272727272731 C727.5632183908046,77.27272727272731 738.9885057471264,77.27272727272731 745.5172413793103,77.27272727272731 C752.0459770114943,77.27272727272731 766.735632183908,77.27272727272731 770,77.27272727272731 L770,350 L60,350 Z" fill="#6b63ff" fill-opacity="0.1" />
  <path d="M60,350 L60,322.72727272727275 C63.264367816091955,319.0909090909091 77.95402298850574,299.09090909090907 84.48275862068965,295.45454545454544 C91.01149425287356,295.45454545454544 102.43678160919539,295.45454545454544 108.9655172413793,295.45454545454544 C115.49425287356321,295.45454545454544 126.91954022988504,295.45454545454544 133.44827586206895,295.45454545454544 C139.97701149425285,295.45454545454544 151.40229885057468,295.45454545454544 157.9310344827586,295.45454545454544 C164.45977011494253,295.45454545454544 175.88505747126436,295.45454545454544 182.41379310344828,295.45454545454544 C188.9425287356322,295.45454545454544 200.36781609195404,295.45454545454544 206.89655172413794,295.45454545454544 C213.42528735632183,291.8181818181818 224.8505747126437,271.8181818181818 231.3793103448276,268.1818181818182 C237.90804597701148,268.1818181818182 249.33333333333334,268.1818181818182 255.86206896551724,268.1818181818182 C262.39080459770116,268.1818181818182 273.81609195402297,268.1818181818182 280.34482758620686,268.1818181818182 C286.87356321839076,268.1818181818182 298.2988505747127,268.1818181818182 304.82758620689657,268.1818181818182 C311.35632183908046,264.54545454545456 322.7816091954023,244.54545454545453 329.3103448275862,240.9090909090909 C335.8390804597701,240.9090909090909 347.264367816092,240.9090909090909 353.7931034482759,240.9090909090909 C360.32183908045977,237.27272727272728 371.7471264367816,217.27272727272728 378.2758620689655,213.63636363636365 C384.8045977011494,213.63636363636365 396.2298850574713,213.63636363636365 402.7586206896552,213.63636363636365 C409.28735632183907,213.63636363636365 420.71264367816093,213.63636363636365 427.2413793103448,213.63636363636365 C433.7701149425287,213.63636363636365 445.1954022988506,213.63636363636365 451.7241379310345,213.63636363636365 C458.2528735632184,213.63636363636365 469.67816091954023,213.63636363636365 476.2068965517241,213.63636363636365 C482.735632183908,210.00000000000003 494.1609195402299,193.63636363636365 500.6896551724138,186.36363636363637 C507.2183908045977,179.0909090909091 518.6436781609195,170 525.1724137931035,159.0909090909091 C531.7011494252874,148.1818181818182 543.1264367816092,111.81818181818181 549.6551724137931,104.54545454545453 C556.1839080459771,104.54545454545453 567.6091954022988,104.54545454545453 574.1379310344828,104.54545454545453 C580.6666666666667,104.54545454545453 592.0919540229885,104.54545454545453 598.6206896551724,104.54545454545453 C605.1494252873564,100.9090909090909 616.5747126436781,80.90909090909093 623.1034482758621,77.27272727272731 C629.632183908046,77.27272727272731 641.0574712643678,77.27272727272731 647.5862068965517,77.27272727272731 C654.1149425287357,77.27272727272731 665.5402298850574,77.27272727272731 672.0689655172414,77.27272727272731 C678.5977011494253,77.27272727272731 690.0229885057471,77.27272727272731 696.551724137931,77.27272727272731 C703.080459770115,77.27272727272731 714.5057471264367,77.27272727272731 721.0344827586207,77.27272727272731 C727.5632183908046,77.27272727272731 738.9885057471264,77.27272727272731 745.5172413793103,77.27272727272731 C752.0459770114943,77.27272727272731 766.735632183908,77.27272727272731 770,77.27272727272731" fill="none" stroke="#6b63ff" stroke-width="2.5" class="data-line-0" />
  <g class="points">
    
    <circle cx="60" cy="322.72727272727275" r="4" fill="#6b63ff" class="data-point" style="animation-delay: 1.50s" />
    <circle cx="84.48275862068965" cy="295.45454545454544" r="4" fill="#6b63ff" class="data-point" style="animation-delay: 1.55s" />
    <circle cx="108.9655172413793" cy="295.45454545454544" r="4" fill="#6b63ff" class="data-point" style="animation-delay: 1.60s" />
    <circle cx="133.44827586206895" cy="295.45454545454544" r="4" fill="#6b63ff" class="data-point" style="animation-delay: 1.65s" />
    <circle cx="157.9310344827586" cy="295.45454545454544" r="4" fill="#6b63ff" class="data-point" style="animation-delay: 1.70s" />
    <circle cx="182.41379310344828" cy="295.45454545454544" r="4" fill="#6b63ff" class="data-point" style="animation-delay: 1.75s" />
    <circle cx="206.89655172413794" cy="295.45454545454544" r="4" fill="#6b63ff" class="data-point" style="animation-delay: 1.80s" />
    <circle cx="231.3793103448276" cy="268.1818181818182" r="4" fill="#6b63ff" class="data-point" style="animation-delay: 1.85s" />
    <circle cx="255.86206896551724" cy="268.1818181818182" r="4" fill="#6b63ff" class="data-point" style="animation-delay: 1.90s" />
    <circle cx="280.34482758620686" cy="268.1818181818182" r="4" fill="#6b63ff" class="data-point" style="animation-delay: 1.95s" />
    <circle cx="304.82758620689657" cy="268.1818181818182" r="4" fill="#6b63ff" class="data-point" style="animation-delay: 2.00s" />
    <circle cx="329.3103448275862" cy="240.9090909090909" r="4" fill="#6b63ff" class="data-point" style="animation-delay: 2.05s" />
    <circle cx="353.7931034482759" cy="240.9090909090909" r="4" fill="#6b63ff" class="data-point" style="animation-delay: 2.10s" />
    <circle cx="378.2758620689655" cy="213.63636363636365" r="4" fill="#6b63ff" class="data-point" style="animation-delay: 2.15s" />
    <circle cx="402.7586206896552" cy="213.63636363636365" r="4" fill="#6b63ff" class="data-point" style="animation-delay: 2.20s" />
    <circle cx="427.2413793103448" cy="213.63636363636365" r="4" fill="#6b63ff" class="data-point" style="animation-delay: 2.25s" />
    <circle cx="451.7241379310345" cy="213.63636363636365" r="4" fill="#6b63ff" class="data-point" style="animation-delay: 2.30s" />
    <circle cx="476.2068965517241" cy="213.63636363636365" r="4" fill="#6b63ff" class="data-point" style="animation-delay: 2.35s" />
    <circle cx="500.6896551724138" cy="186.36363636363637" r="4" fill="#6b63ff" class="data-point" style="animation-delay: 2.40s" />
    <circle cx="525.1724137931035" cy="159.0909090909091" r="4" fill="#6b63ff" class="data-point" style="animation-delay: 2.45s" />
    <circle cx="549.6551724137931" cy="104.54545454545453" r="4" fill="#6b63ff" class="data-point" style="animation-delay: 2.50s" />
    <circle cx="574.1379310344828" cy="104.54545454545453" r="4" fill="#6b63ff" class="data-point" style="animation-delay: 2.55s" />
    <circle cx="598.6206896551724" cy="104.54545454545453" r="4" fill="#6b63ff" class="data-point" style="animation-delay: 2.60s" />
    <circle cx="623.1034482758621" cy="77.27272727272731" r="4" fill="#6b63ff" class="data-point" style="animation-delay: 2.65s" />
    <circle cx="647.5862068965517" cy="77.27272727272731" r="4" fill="#6b63ff" class="data-point" style="animation-delay: 2.70s" />
    <circle cx="672.0689655172414" cy="77.27272727272731" r="4" fill="#6b63ff" class="data-point" style="animation-delay: 2.75s" />
    <circle cx="696.551724137931" cy="77.27272727272731" r="4" fill="#6b63ff" class="data-point" style="animation-delay: 2.80s" />
    <circle cx="721.0344827586207" cy="77.27272727272731" r="4" fill="#6b63ff" class="data-point" style="animation-delay: 2.85s" />
    <circle cx="745.5172413793103" cy="77.27272727272731" r="4" fill="#6b63ff" class="data-point" style="animation-delay: 2.90s" />
    <circle cx="770" cy="77.27272727272731" r="4" fill="#6b63ff" class="data-point" style="animation-delay: 2.95s" />
  </g>
</svg>