<svg xmlns="http://www.w3.org/2000/svg" viewBox="0 0 800 400" width="800" height="400">
  <style>
    @keyframes drawLine {
      to { stroke-dashoffset: 0; }
    }
    @keyframes fadeInPoint {
      from { opacity: 0; }
      to { opacity: 1; }
    }
    .data-line-0 {
      stroke-dasharray: 1165;
      stroke-dashoffset: 1165;
      animation: drawLine 2s ease-out forwards;
    }
    .data-point {
      opacity: 0;
      animation: fadeInPoint 0.5s ease-out forwards;
    }
    .chart-bg { fill: #fff; }
    .chart-text { fill: #24292e; }
    .chart-muted { fill: #6a737d; }
    .chart-grid { stroke: #eee; }
    .chart-axis { stroke: #6a737d; }
    @media (prefers-color-scheme: dark) {
      .chart-bg { fill: #0d1117; }
      .chart-text { fill: #e6edf3; }
      .chart-muted { fill: #8b949e; }
      .chart-grid { stroke: #21262d; }
      .chart-axis { stroke: #8b949e; }
    }
  </style>
  <rect width="800" height="400" class="chart-bg" />
  <text x="400" y="14" text-anchor="middle" class="chart-text" font-size="16" font-weight="bold" font-family="-apple-system, BlinkMacSystemFont, 'Segoe UI', Helvetica, Arial, sans-serif">vdsm/virtual-dsm Star History</text>
  
  <g class="grid">
    <line x1="60" y1="350" x2="770" y2="350" class="chart-grid" stroke-opacity="0.3" />
    <text x="778" y="354" text-anchor="start" class="chart-muted" font-size="11" font-family="-apple-system, BlinkMacSystemFont, 'Segoe UI', Helvetica, Arial, sans-serif">0</text>
    <line x1="60" y1="279.2786421499293" x2="770" y2="279.2786421499293" class="chart-grid" stroke-opacity="0.3" />
    <text x="778" y="283.2786421499293" text-anchor="start" class="chart-muted" font-size="11" font-family="-apple-system, BlinkMacSystemFont, 'Segoe UI', Helvetica, Arial, sans-serif">1K</text>
    <line x1="60" y1="208.55728429985857" x2="770" y2="208.55728429985857" class="chart-grid" stroke-opacity="0.3" />
    <text x="778" y="212.55728429985857" text-anchor="start" class="chart-muted" font-size="11" font-family="-apple-system, BlinkMacSystemFont, 'Segoe UI', Helvetica, Arial, sans-serif">2K</text>
    <line x1="60" y1="137.83592644978785" x2="770" y2="137.83592644978785" class="chart-grid" stroke-opacity="0.3" />
    <text x="778" y="141.83592644978785" text-anchor="start" class="chart-muted" font-size="11" font-family="-apple-system, BlinkMacSystemFont, 'Segoe UI', Helvetica, Arial, sans-serif">3K</text>
    <line x1="60" y1="67.11456859971713" x2="770" y2="67.11456859971713" class="chart-grid" stroke-opacity="0.3" />
    <text x="778" y="71.11456859971713" text-anchor="start" class="chart-muted" font-size="11" font-family="-apple-system, BlinkMacSystemFont, 'Segoe UI', Helvetica, Arial, sans-serif">4K</text>
  </g>
  <g class="milestones">
    
  </g>
  <g class="x-axis">
    <text x="60" y="370" text-anchor="middle" class="chart-muted" font-size="11" font-family="-apple-system, BlinkMacSystemFont, 'Segoe UI', Helvetica, Arial, sans-serif">2023</text>
    <text x="231.3793103448276" y="370" text-anchor="middle" class="chart-muted" font-size="11" font-family="-apple-system, BlinkMacSystemFont, 'Segoe UI', Helvetica, Arial, sans-serif">2024</text>
    <text x="451.7241379310345" y="370" text-anchor="middle" class="chart-muted" font-size="11" font-family="-apple-system, BlinkMacSystemFont, 'Segoe UI', Helvetica, Arial, sans-serif">2025</text>
    <text x="672.0689655172414" y="370" text-anchor="middle" class="chart-muted" font-size="11" font-family="-apple-system, BlinkMacSystemFont, 'Segoe UI', Helvetica, Arial, sans-serif">2026</text>
  </g>
  <line x1="770" y1="50" x2="770" y2="350" class="chart-axis" stroke-width="1" />
  <line x1="60" y1="350" x2="770" y2="350" class="chart-axis" stroke-width="1" />
  <path d="M60,350 L60,349.92927864214994 C68.16091954022988,340.42904290429044 76.32183908045977,326.554090524608 84.48275862068965,321.42857142857144 C92.64367816091954,316.3030523325349 100.80459770114942,319.1630214885912 108.9655172413793,314.4978783592645 C117.12643678160919,309.83273522993784 125.28735632183907,295.53276756247055 133.44827586206895,289.1796322489392 C141.60919540229884,282.8264969354078 149.77011494252872,280.0801508722301 157.9310344827586,276.37906647807637 C166.0919540229885,272.67798208392264 174.2528735632184,269.7194719471947 182.41379310344828,266.97312588401695 C190.57471264367817,264.2267798208392 198.73563218390805,262.8123526638378 206.89655172413794,259.9009900990099 C215.05747126436782,256.989627534182 223.2183908045977,252.93493635077795 231.3793103448276,249.5049504950495 C239.54022988505747,246.07496463932108 247.70114942528735,243.88260254596887 255.86206896551724,239.3210749646393 C264.0229885057471,234.75954738330975 272.183908045977,226.75624705327675 280.34482758620686,222.13578500707214 C288.50574712643675,217.5153229608675 296.6666666666667,214.992927864215 304.82758620689657,211.5983026874116 C312.98850574712645,208.2036775106082 321.14942528735634,205.48090523338047 329.3103448275862,201.76803394625176 C337.4712643678161,198.05516265912306 345.632183908046,192.29137199434228 353.7931034482759,189.3210749646393 C361.95402298850576,186.35077793493633 370.11494252873564,186.64545025931164 378.2758620689655,183.94625176803393 C386.4367816091954,181.24705327675622 394.5977011494253,176.89768976897687 402.7586206896552,173.12588401697312 C410.91954022988506,169.35407826496936 419.08045977011494,164.1206977840641 427.2413793103448,161.3154172560113 C435.4022988505747,158.5101367279585 443.5632183908046,158.43941537010843 451.7241379310345,156.2942008486563 C459.88505747126436,154.14898632720414 468.04597701149424,151.26119754832627 476.2068965517241,148.44413012729845 C484.367816091954,145.62706270627064 492.5287356321839,142.65676567656766 500.6896551724138,139.3917963224894 C508.85057471264366,136.12682696841114 517.0114942528736,131.77746346063176 525.1724137931035,128.85431400282883 C533.3333333333334,125.93116454502591 541.4942528735633,123.43234323432341 549.6551724137931,121.85289957567184 C557.816091954023,120.27345591702027 565.9770114942529,120.04950495049505 574.1379310344828,119.37765205091938 C582.2988505747127,118.70579915134371 590.4597701149426,119.13012729844414 598.6206896551724,117.82178217821783 C606.7816091954023,116.51343705799152 614.9425287356322,113.43705799151343 623.1034482758621,111.52758132956151 C631.264367816092,109.6181046676096 639.4252873563219,109.67703913248468 647.5862068965517,106.36492220650638 C655.7471264367816,103.05280528052808 663.9080459770115,95.02593116454504 672.0689655172414,91.65487977369168 C680.2298850574713,88.28382838283831 688.3908045977012,87.62376237623764 696.551724137931,86.13861386138615 C704.7126436781609,84.65346534653466 712.8735632183908,83.6987270155587 721.0344827586207,82.74398868458275 C729.1954022988506,81.78925035360679 737.3563218390805,81.31777463460635 745.5172413793103,80.41018387553044 C753.6781609195402,79.50259311645452 761.8390804597701,78.33569071192834 770,77.29844413012728 L770,350 L60,350 Z" fill="#6b63ff" fill-opacity="0.1" />
  <path d="M60,350 L60,349.92927864214994 C68.16091954022988,340.42904290429044 76.32183908045977,326.554090524608 84.48275862068965,321.42857142857144 C92.64367816091954,316.3030523325349 100.80459770114942,319.1630214885912 108.9655172413793,314.4978783592645 C117.12643678160919,309.83273522993784 125.28735632183907,295.53276756247055 133.44827586206895,289.1796322489392 C141.60919540229884,282.8264969354078 149.77011494252872,280.0801508722301 157.9310344827586,276.37906647807637 C166.0919540229885,272.67798208392264 174.2528735632184,269.7194719471947 182.41379310344828,266.97312588401695 C190.57471264367817,264.2267798208392 198.73563218390805,262.8123526638378 206.89655172413794,259.9009900990099 C215.05747126436782,256.989627534182 223.2183908045977,252.93493635077795 231.3793103448276,249.5049504950495 C239.54022988505747,246.07496463932108 247.70114942528735,243.88260254596887 255.86206896551724,239.3210749646393 C264.0229885057471,234.75954738330975 272.183908045977,226.75624705327675 280.34482758620686,222.13578500707214 C288.50574712643675,217.5153229608675 296.6666666666667,214.992927864215 304.82758620689657,211.5983026874116 C312.98850574712645,208.2036775106082 321.14942528735634,205.48090523338047 329.3103448275862,201.76803394625176 C337.4712643678161,198.05516265912306 345.632183908046,192.29137199434228 353.7931034482759,189.3210749646393 C361.95402298850576,186.35077793493633 370.11494252873564,186.64545025931164 378.2758620689655,183.94625176803393 C386.4367816091954,181.24705327675622 394.5977011494253,176.89768976897687 402.7586206896552,173.12588401697312 C410.91954022988506,169.35407826496936 419.08045977011494,164.1206977840641 427.2413793103448,161.3154172560113 C435.4022988505747,158.5101367279585 443.5632183908046,158.43941537010843 451.7241379310345,156.2942008486563 C459.88505747126436,154.14898632720414 468.04597701149424,151.26119754832627 476.2068965517241,148.44413012729845 C484.367816091954,145.62706270627064 492.5287356321839,142.65676567656766 500.6896551724138,139.3917963224894 C508.85057471264366,136.12682696841114 517.0114942528736,131.77746346063176 525.1724137931035,128.85431400282883 C533.3333333333334,125.93116454502591 541.4942528735633,123.43234323432341 549.6551724137931,121.85289957567184 C557.816091954023,120.27345591702027 565.9770114942529,120.04950495049505 574.1379310344828,119.37765205091938 C582.2988505747127,118.70579915134371 590.4597701149426,119.13012729844414 598.6206896551724,117.82178217821783 C606.7816091954023,116.51343705799152 614.9425287356322,113.43705799151343 623.1034482758621,111.52758132956151 C631.264367816092,109.6181046676096 639.4252873563219,109.67703913248468 647.5862068965517,106.36492220650638 C655.7471264367816,103.05280528052808 663.9080459770115,95.02593116454504 672.0689655172414,91.65487977369168 C680.2298850574713,88.28382838283831 688.3908045977012,87.62376237623764 696.551724137931,86.13861386138615 C704.7126436781609,84.65346534653466 712.8735632183908,83.6987270155587 721.0344827586207,82.74398868458275 C729.1954022988506,81.78925035360679 737.3563218390805,81.31777463460635 745.5172413793103,80.41018387553044 C753.6781609195402,79.50259311645452 761.8390804597701,78.33569071192834 770,77.29844413012728" fill="none" stroke="#6b63ff" stroke-width="2.5" class="data-line-0" />
  <g class="points">
    
    <circle cx="60" cy="349.92927864214994" r="4" fill="#6b63ff" class="data-point" style="animation-delay: 1.50s" />
    <circle cx="84.48275862068965" cy="321.42857142857144" r="4" fill="#6b63ff" class="data-point" style="animation-delay: 1.55s" />
    <circle cx="108.9655172413793" cy="314.4978783592645" r="4" fill="#6b63ff" class="data-point" style="animation-delay: 1.60s" />
    <circle cx="133.44827586206895" cy="289.1796322489392" r="4" fill="#6b63ff" class="data-point" style="animation-delay: 1.65s" />
    <circle cx="157.9310344827586" cy="276.37906647807637" r="4" fill="#6b63ff" class="data-point" style="animation-delay: 1.70s" />
    <circle cx="182.41379310344828" cy="266.97312588401695" r="4" fill="#6b63ff" class="data-point" style="animation-delay: 1.75s" />
    <circle cx="206.89655172413794" cy="259.9009900990099" r="4" fill="#6b63ff" class="data-point" style="animation-delay: 1.80s" />
    <circle cx="231.3793103448276" cy="249.5049504950495" r="4" fill="#6b63ff" class="data-point" style="animation-delay: 1.85s" />
    <circle cx="255.86206896551724" cy="239.3210749646393" r="4" fill="#6b63ff" class="data-point" style="animation-delay: 1.90s" />
    <circle cx="280.34482758620686" cy="222.13578500707214" r="4" fill="#6b63ff" class="data-point" style="animation-delay: 1.95s" />
    <circle cx="304.82758620689657" cy="211.5983026874116" r="4" fill="#6b63ff" class="data-point" style="animation-delay: 2.00s" />
    <circle cx="329.3103448275862" cy="201.76803394625176" r="4" fill="#6b63ff" class="data-point" style="animation-delay: 2.05s" />
    <circle cx="353.7931034482759" cy="189.3210749646393" r="4" fill="#6b63ff" class="data-point" style="animation-delay: 2.10s" />
    <circle cx="378.2758620689655" cy="183.94625176803393" r="4" fill="#6b63ff" class="data-point" style="animation-delay: 2.15s" />
    <circle cx="402.7586206896552" cy="173.12588401697312" r="4" fill="#6b63ff" class="data-point" style="animation-delay: 2.20s" />
    <circle cx="427.2413793103448" cy="161.3154172560113" r="4" fill="#6b63ff" class="data-point" style="animation-delay: 2.25s" />
    <circle cx="451.7241379310345" cy="156.2942008486563" r="4" fill="#6b63ff" class="data-point" style="animation-delay: 2.30s" />
    <circle cx="476.2068965517241" cy="148.44413012729845" r="4" fill="#6b63ff" class="data-point" style="animation-delay: 2.35s" />
    <circle cx="500.6896551724138" cy="139.3917963224894" r="4" fill="#6b63ff" class="data-point" style="animation-delay: 2.40s" />
    <circle cx="525.1724137931035" cy="128.85431400282883" r="4" fill="#6b63ff" class="data-point" style="animation-delay: 2.45s" />
    <circle cx="549.6551724137931" cy="121.85289957567184" r="4" fill="#6b63ff" class="data-point" style="animation-delay: 2.50s" />
    <circle cx="574.1379310344828" cy="119.37765205091938" r="4" fill="#6b63ff" class="data-point" style="animation-delay: 2.55s" />
    <circle cx="598.6206896551724" cy="117.82178217821783" r="4" fill="#6b63ff" class="data-point" style="animation-delay: 2.60s" />
    <circle cx="623.1034482758621" cy="111.52758132956151" r="4" fill="#6b63ff" class="data-point" style="animation-delay: 2.65s" />
    <circle cx="647.5862068965517" cy="106.36492220650638" r="4" fill="#6b63ff" class="data-point" style="animation-delay: 2.70s" />
    <circle cx="672.0689655172414" cy="91.65487977369168" r="4" fill="#6b63ff" class="data-point" style="animation-delay: 2.75s" />
    <circle cx="696.551724137931" cy="86.13861386138615" r="4" fill="#6b63ff" class="data-point" style="animation-delay: 2.80s" />
    <circle cx="721.0344827586207" cy="82.74398868458275" r="4" fill="#6b63ff" class="data-point" style="animation-delay: 2.85s" />
    <circle cx="745.5172413793103" cy="80.41018387553044" r="4" fill="#6b63ff" class="data-point" style="animation-delay: 2.90s" />
    <circle cx="770" cy="77.29844413012728" r="4" fill="#6b63ff" class="data-point" style="animation-delay: 2.95s" />
  </g>
</svg>