<svg xmlns="http://www.w3.org/2000/svg" viewBox="0 0 800 400" width="800" height="400">
  <style>
    @keyframes drawLine {
      to { stroke-dashoffset: 0; }
    }
    @keyframes fadeInPoint {
      from { opacity: 0; }
      to { opacity: 1; }
    }
    .data-line-0 {
      stroke-dasharray: 1165;
      stroke-dashoffset: 1165;
      animation: drawLine 2s ease-out forwards;
    }
    .data-point {
      opacity: 0;
      animation: fadeInPoint 0.5s ease-out forwards;
    }
    .chart-bg { fill: #fff; }
    .chart-text { fill: #24292e; }
    .chart-muted { fill: #6a737d; }
    .chart-grid { stroke: #eee; }
    .chart-axis { stroke: #6a737d; }
    @media (prefers-color-scheme: dark) {
      .chart-bg { fill: #0d1117; }
      .chart-text { fill: #e6edf3; }
      .chart-muted { fill: #8b949e; }
      .chart-grid { stroke: #21262d; }
      .chart-axis { stroke: #8b949e; }
    }
  </style>
  <rect width="800" height="400" class="chart-bg" />
  <text x="400" y="14" text-anchor="middle" class="chart-text" font-size="16" font-weight="bold" font-family="-apple-system, BlinkMacSystemFont, 'Segoe UI', Helvetica, Arial, sans-serif">vdsm/virtual-dsm Star History</text>
  
  <g class="grid">
    <line x1="60" y1="350" x2="770" y2="350" class="chart-grid" stroke-opacity="0.3" />
    <text x="778" y="354" text-anchor="start" class="chart-muted" font-size="11" font-family="-apple-system, BlinkMacSystemFont, 'Segoe UI', Helvetica, Arial, sans-serif">0</text>
    <line x1="60" y1="279.21189240207644" x2="770" y2="279.21189240207644" class="chart-grid" stroke-opacity="0.3" />
    <text x="778" y="283.21189240207644" text-anchor="start" class="chart-muted" font-size="11" font-family="-apple-system, BlinkMacSystemFont, 'Segoe UI', Helvetica, Arial, sans-serif">1K</text>
    <line x1="60" y1="208.42378480415292" x2="770" y2="208.42378480415292" class="chart-grid" stroke-opacity="0.3" />
    <text x="778" y="212.42378480415292" text-anchor="start" class="chart-muted" font-size="11" font-family="-apple-system, BlinkMacSystemFont, 'Segoe UI', Helvetica, Arial, sans-serif">2K</text>
    <line x1="60" y1="137.63567720622936" x2="770" y2="137.63567720622936" class="chart-grid" stroke-opacity="0.3" />
    <text x="778" y="141.63567720622936" text-anchor="start" class="chart-muted" font-size="11" font-family="-apple-system, BlinkMacSystemFont, 'Segoe UI', Helvetica, Arial, sans-serif">3K</text>
    <line x1="60" y1="66.84756960830583" x2="770" y2="66.84756960830583" class="chart-grid" stroke-opacity="0.3" />
    <text x="778" y="70.84756960830583" text-anchor="start" class="chart-muted" font-size="11" font-family="-apple-system, BlinkMacSystemFont, 'Segoe UI', Helvetica, Arial, sans-serif">4K</text>
  </g>
  <g class="milestones">
    
  </g>
  <g class="x-axis">
    <text x="60" y="370" text-anchor="middle" class="chart-muted" font-size="11" font-family="-apple-system, BlinkMacSystemFont, 'Segoe UI', Helvetica, Arial, sans-serif">2023</text>
    <text x="231.3793103448276" y="370" text-anchor="middle" class="chart-muted" font-size="11" font-family="-apple-system, BlinkMacSystemFont, 'Segoe UI', Helvetica, Arial, sans-serif">2024</text>
    <text x="451.7241379310345" y="370" text-anchor="middle" class="chart-muted" font-size="11" font-family="-apple-system, BlinkMacSystemFont, 'Segoe UI', Helvetica, Arial, sans-serif">2025</text>
    <text x="672.0689655172414" y="370" text-anchor="middle" class="chart-muted" font-size="11" font-family="-apple-system, BlinkMacSystemFont, 'Segoe UI', Helvetica, Arial, sans-serif">2026</text>
  </g>
  <line x1="770" y1="50" x2="770" y2="350" class="chart-axis" stroke-width="1" />
  <line x1="60" y1="350" x2="770" y2="350" class="chart-axis" stroke-width="1" />
  <path d="M60,350 L60,349.92921189240207 C63.264367816091955,346.11609249646057 77.95402298850574,326.0594620103822 84.48275862068965,321.33081642284094 C91.01149425287356,316.60217083529966 102.43678160919539,318.74941009910333 108.9655172413793,314.4643699858424 C115.49425287356321,310.17932987258143 126.91954022988504,294.27088249174136 133.44827586206895,289.19301557338366 C139.97701149425285,284.11514865502596 151.40229885057468,279.3534686172723 157.9310344827586,276.3803680981595 C164.45977011494253,273.40726757904673 175.88505747126436,269.10335063709294 182.41379310344828,266.89476168003773 C188.9425287356322,264.6861727229825 200.36781609195404,262.13780084945734 206.89655172413794,259.8159509202454 C213.42528735632183,257.4941009910335 224.8505747126437,252.23690420009436 231.3793103448276,249.48088721094854 C237.90804597701148,246.72487022180272 249.33333333333334,242.70410571024067 255.86206896551724,239.1458235016517 C262.39080459770116,235.58754129306274 273.81609195402297,226.4841906559698 280.34482758620686,222.79377064653139 C286.87356321839076,219.10335063709297 298.2988505747127,214.2520056630486 304.82758620689657,211.4676734308636 C311.35632183908046,208.68334119867862 322.7816091954023,204.85606418121756 329.3103448275862,201.91127890514394 C335.8390804597701,198.96649362907033 347.264367816092,191.80745634733364 353.7931034482759,189.38178386031146 C360.32183908045977,186.95611137328927 371.7471264367816,185.80462482302974 378.2758620689655,183.7187352524776 C384.8045977011494,181.63284568192543 396.2298850574713,176.72015101462955 402.7586206896552,173.73761208117037 C409.28735632183907,170.7550731477112 420.71264367816093,163.70929683813117 427.2413793103448,161.34969325153372 C433.7701149425287,158.99008966493628 445.1954022988506,157.68286927796132 451.7241379310345,156.0405851816895 C458.2528735632184,154.39830108541767 469.67816091954023,151.24115148655025 476.2068965517241,149.03256252949504 C482.735632183908,146.82397357243983 494.1609195402299,142.1566776781501 500.6896551724138,139.47616800377537 C507.2183908045977,136.79565832940065 518.6436781609195,131.30722038697496 525.1724137931035,128.92873997168473 C531.7011494252874,126.55025955639451 543.1264367816092,122.94950448324681 549.6551724137931,121.63756488909863 C556.1839080459771,120.32562529495044 567.6091954022988,119.58942897593202 574.1379310344828,119.08919301557336 C580.6666666666667,118.58895705521469 592.0919540229885,118.88626710712599 598.6206896551724,117.88579518640867 C605.1494252873564,116.88532326569135 616.5747126436781,113.15243039169418 623.1034482758621,111.58565361019348 C629.632183908046,110.01887682869277 641.0574712643678,108.83435582822085 647.5862068965517,106.13496932515338 C654.1149425287357,103.4355828220859 665.5402298850574,93.93581878244458 672.0689655172414,91.34025483718739 C678.5977011494253,88.74469089193019 690.0229885057471,87.81028787163757 696.551724137931,86.6682397357244 C703.080459770115,85.52619159981123 714.5057471264367,83.60547428032088 721.0344827586207,82.77489381783857 C727.5632183908046,81.94431335535627 738.9885057471264,81.16564417177915 745.5172413793103,80.43888626710714 C752.0459770114943,79.71212836243512 766.735632183908,77.73949976403964 770,77.32420953279848 L770,350 L60,350 Z" fill="#6b63ff" fill-opacity="0.1" />
  <path d="M60,350 L60,349.92921189240207 C63.264367816091955,346.11609249646057 77.95402298850574,326.0594620103822 84.48275862068965,321.33081642284094 C91.01149425287356,316.60217083529966 102.43678160919539,318.74941009910333 108.9655172413793,314.4643699858424 C115.49425287356321,310.17932987258143 126.91954022988504,294.27088249174136 133.44827586206895,289.19301557338366 C139.97701149425285,284.11514865502596 151.40229885057468,279.3534686172723 157.9310344827586,276.3803680981595 C164.45977011494253,273.40726757904673 175.88505747126436,269.10335063709294 182.41379310344828,266.89476168003773 C188.9425287356322,264.6861727229825 200.36781609195404,262.13780084945734 206.89655172413794,259.8159509202454 C213.42528735632183,257.4941009910335 224.8505747126437,252.23690420009436 231.3793103448276,249.48088721094854 C237.90804597701148,246.72487022180272 249.33333333333334,242.70410571024067 255.86206896551724,239.1458235016517 C262.39080459770116,235.58754129306274 273.81609195402297,226.4841906559698 280.34482758620686,222.79377064653139 C286.87356321839076,219.10335063709297 298.2988505747127,214.2520056630486 304.82758620689657,211.4676734308636 C311.35632183908046,208.68334119867862 322.7816091954023,204.85606418121756 329.3103448275862,201.91127890514394 C335.8390804597701,198.96649362907033 347.264367816092,191.80745634733364 353.7931034482759,189.38178386031146 C360.32183908045977,186.95611137328927 371.7471264367816,185.80462482302974 378.2758620689655,183.7187352524776 C384.8045977011494,181.63284568192543 396.2298850574713,176.72015101462955 402.7586206896552,173.73761208117037 C409.28735632183907,170.7550731477112 420.71264367816093,163.70929683813117 427.2413793103448,161.34969325153372 C433.7701149425287,158.99008966493628 445.1954022988506,157.68286927796132 451.7241379310345,156.0405851816895 C458.2528735632184,154.39830108541767 469.67816091954023,151.24115148655025 476.2068965517241,149.03256252949504 C482.735632183908,146.82397357243983 494.1609195402299,142.1566776781501 500.6896551724138,139.47616800377537 C507.2183908045977,136.79565832940065 518.6436781609195,131.30722038697496 525.1724137931035,128.92873997168473 C531.7011494252874,126.55025955639451 543.1264367816092,122.94950448324681 549.6551724137931,121.63756488909863 C556.1839080459771,120.32562529495044 567.6091954022988,119.58942897593202 574.1379310344828,119.08919301557336 C580.6666666666667,118.58895705521469 592.0919540229885,118.88626710712599 598.6206896551724,117.88579518640867 C605.1494252873564,116.88532326569135 616.5747126436781,113.15243039169418 623.1034482758621,111.58565361019348 C629.632183908046,110.01887682869277 641.0574712643678,108.83435582822085 647.5862068965517,106.13496932515338 C654.1149425287357,103.4355828220859 665.5402298850574,93.93581878244458 672.0689655172414,91.34025483718739 C678.5977011494253,88.74469089193019 690.0229885057471,87.81028787163757 696.551724137931,86.6682397357244 C703.080459770115,85.52619159981123 714.5057471264367,83.60547428032088 721.0344827586207,82.77489381783857 C727.5632183908046,81.94431335535627 738.9885057471264,81.16564417177915 745.5172413793103,80.43888626710714 C752.0459770114943,79.71212836243512 766.735632183908,77.73949976403964 770,77.32420953279848" fill="none" stroke="#6b63ff" stroke-width="2.5" class="data-line-0" />
  <g class="points">
    
    <circle cx="60" cy="349.92921189240207" r="4" fill="#6b63ff" class="data-point" style="animation-delay: 1.50s" />
    <circle cx="84.48275862068965" cy="321.33081642284094" r="4" fill="#6b63ff" class="data-point" style="animation-delay: 1.55s" />
    <circle cx="108.9655172413793" cy="314.4643699858424" r="4" fill="#6b63ff" class="data-point" style="animation-delay: 1.60s" />
    <circle cx="133.44827586206895" cy="289.19301557338366" r="4" fill="#6b63ff" class="data-point" style="animation-delay: 1.65s" />
    <circle cx="157.9310344827586" cy="276.3803680981595" r="4" fill="#6b63ff" class="data-point" style="animation-delay: 1.70s" />
    <circle cx="182.41379310344828" cy="266.89476168003773" r="4" fill="#6b63ff" class="data-point" style="animation-delay: 1.75s" />
    <circle cx="206.89655172413794" cy="259.8159509202454" r="4" fill="#6b63ff" class="data-point" style="animation-delay: 1.80s" />
    <circle cx="231.3793103448276" cy="249.48088721094854" r="4" fill="#6b63ff" class="data-point" style="animation-delay: 1.85s" />
    <circle cx="255.86206896551724" cy="239.1458235016517" r="4" fill="#6b63ff" class="data-point" style="animation-delay: 1.90s" />
    <circle cx="280.34482758620686" cy="222.79377064653139" r="4" fill="#6b63ff" class="data-point" style="animation-delay: 1.95s" />
    <circle cx="304.82758620689657" cy="211.4676734308636" r="4" fill="#6b63ff" class="data-point" style="animation-delay: 2.00s" />
    <circle cx="329.3103448275862" cy="201.91127890514394" r="4" fill="#6b63ff" class="data-point" style="animation-delay: 2.05s" />
    <circle cx="353.7931034482759" cy="189.38178386031146" r="4" fill="#6b63ff" class="data-point" style="animation-delay: 2.10s" />
    <circle cx="378.2758620689655" cy="183.7187352524776" r="4" fill="#6b63ff" class="data-point" style="animation-delay: 2.15s" />
    <circle cx="402.7586206896552" cy="173.73761208117037" r="4" fill="#6b63ff" class="data-point" style="animation-delay: 2.20s" />
    <circle cx="427.2413793103448" cy="161.34969325153372" r="4" fill="#6b63ff" class="data-point" style="animation-delay: 2.25s" />
    <circle cx="451.7241379310345" cy="156.0405851816895" r="4" fill="#6b63ff" class="data-point" style="animation-delay: 2.30s" />
    <circle cx="476.2068965517241" cy="149.03256252949504" r="4" fill="#6b63ff" class="data-point" style="animation-delay: 2.35s" />
    <circle cx="500.6896551724138" cy="139.47616800377537" r="4" fill="#6b63ff" class="data-point" style="animation-delay: 2.40s" />
    <circle cx="525.1724137931035" cy="128.92873997168473" r="4" fill="#6b63ff" class="data-point" style="animation-delay: 2.45s" />
    <circle cx="549.6551724137931" cy="121.63756488909863" r="4" fill="#6b63ff" class="data-point" style="animation-delay: 2.50s" />
    <circle cx="574.1379310344828" cy="119.08919301557336" r="4" fill="#6b63ff" class="data-point" style="animation-delay: 2.55s" />
    <circle cx="598.6206896551724" cy="117.88579518640867" r="4" fill="#6b63ff" class="data-point" style="animation-delay: 2.60s" />
    <circle cx="623.1034482758621" cy="111.58565361019348" r="4" fill="#6b63ff" class="data-point" style="animation-delay: 2.65s" />
    <circle cx="647.5862068965517" cy="106.13496932515338" r="4" fill="#6b63ff" class="data-point" style="animation-delay: 2.70s" />
    <circle cx="672.0689655172414" cy="91.34025483718739" r="4" fill="#6b63ff" class="data-point" style="animation-delay: 2.75s" />
    <circle cx="696.551724137931" cy="86.6682397357244" r="4" fill="#6b63ff" class="data-point" style="animation-delay: 2.80s" />
    <circle cx="721.0344827586207" cy="82.77489381783857" r="4" fill="#6b63ff" class="data-point" style="animation-delay: 2.85s" />
    <circle cx="745.5172413793103" cy="80.43888626710714" r="4" fill="#6b63ff" class="data-point" style="animation-delay: 2.90s" />
    <circle cx="770" cy="77.32420953279848" r="4" fill="#6b63ff" class="data-point" style="animation-delay: 2.95s" />
  </g>
</svg>