<svg xmlns="http://www.w3.org/2000/svg" viewBox="0 0 800 400" width="800" height="400">
  <style>
    @keyframes drawLine {
      to { stroke-dashoffset: 0; }
    }
    @keyframes fadeInPoint {
      from { opacity: 0; }
      to { opacity: 1; }
    }
    .data-line-0 {
      stroke-dasharray: 1165;
      stroke-dashoffset: 1165;
      animation: drawLine 2s ease-out forwards;
    }
    .data-point {
      opacity: 0;
      animation: fadeInPoint 0.5s ease-out forwards;
    }
    .chart-bg { fill: #fff; }
    .chart-text { fill: #24292e; }
    .chart-muted { fill: #6a737d; }
    .chart-grid { stroke: #eee; }
    .chart-axis { stroke: #6a737d; }
    @media (prefers-color-scheme: dark) {
      .chart-bg { fill: #0d1117; }
      .chart-text { fill: #e6edf3; }
      .chart-muted { fill: #8b949e; }
      .chart-grid { stroke: #21262d; }
      .chart-axis { stroke: #8b949e; }
    }
  </style>
  <rect width="800" height="400" class="chart-bg" />
  <text x="400" y="14" text-anchor="middle" class="chart-text" font-size="16" font-weight="bold" font-family="-apple-system, BlinkMacSystemFont, 'Segoe UI', Helvetica, Arial, sans-serif">vdsm/virtual-dsm Star History</text>
  
  <g class="grid">
    <line x1="60" y1="350" x2="770" y2="350" class="chart-grid" stroke-opacity="0.3" />
    <text x="778" y="354" text-anchor="start" class="chart-muted" font-size="11" font-family="-apple-system, BlinkMacSystemFont, 'Segoe UI', Helvetica, Arial, sans-serif">0</text>
    <line x1="60" y1="279.2953099222249" x2="770" y2="279.2953099222249" class="chart-grid" stroke-opacity="0.3" />
    <text x="778" y="283.2953099222249" text-anchor="start" class="chart-muted" font-size="11" font-family="-apple-system, BlinkMacSystemFont, 'Segoe UI', Helvetica, Arial, sans-serif">1K</text>
    <line x1="60" y1="208.5906198444497" x2="770" y2="208.5906198444497" class="chart-grid" stroke-opacity="0.3" />
    <text x="778" y="212.5906198444497" text-anchor="start" class="chart-muted" font-size="11" font-family="-apple-system, BlinkMacSystemFont, 'Segoe UI', Helvetica, Arial, sans-serif">2K</text>
    <line x1="60" y1="137.88592976667454" x2="770" y2="137.88592976667454" class="chart-grid" stroke-opacity="0.3" />
    <text x="778" y="141.88592976667454" text-anchor="start" class="chart-muted" font-size="11" font-family="-apple-system, BlinkMacSystemFont, 'Segoe UI', Helvetica, Arial, sans-serif">3K</text>
    <line x1="60" y1="67.18123968889938" x2="770" y2="67.18123968889938" class="chart-grid" stroke-opacity="0.3" />
    <text x="778" y="71.18123968889938" text-anchor="start" class="chart-muted" font-size="11" font-family="-apple-system, BlinkMacSystemFont, 'Segoe UI', Helvetica, Arial, sans-serif">4K</text>
  </g>
  <g class="milestones">
    
  </g>
  <g class="x-axis">
    <text x="60" y="370" text-anchor="middle" class="chart-muted" font-size="11" font-family="-apple-system, BlinkMacSystemFont, 'Segoe UI', Helvetica, Arial, sans-serif">2023</text>
    <text x="231.3793103448276" y="370" text-anchor="middle" class="chart-muted" font-size="11" font-family="-apple-system, BlinkMacSystemFont, 'Segoe UI', Helvetica, Arial, sans-serif">2024</text>
    <text x="451.7241379310345" y="370" text-anchor="middle" class="chart-muted" font-size="11" font-family="-apple-system, BlinkMacSystemFont, 'Segoe UI', Helvetica, Arial, sans-serif">2025</text>
    <text x="672.0689655172414" y="370" text-anchor="middle" class="chart-muted" font-size="11" font-family="-apple-system, BlinkMacSystemFont, 'Segoe UI', Helvetica, Arial, sans-serif">2026</text>
  </g>
  <line x1="770" y1="50" x2="770" y2="350" class="chart-axis" stroke-width="1" />
  <line x1="60" y1="350" x2="770" y2="350" class="chart-axis" stroke-width="1" />
  <path d="M60,350 L60,349.9292953099222 C68.16091954022988,340.4312986094744 76.32183908045977,326.55452680243775 84.48275862068965,321.4353052085788 C92.64367816091954,316.3160836147199 100.80459770114942,319.1758748591875 108.9655172413793,314.5062455809569 C117.12643678160919,309.83661630272627 125.28735632183907,295.4748998350224 133.44827586206895,289.1232618430356 C141.60919540229884,282.7716238510488 149.77011494252872,280.0848456280933 157.9310344827586,276.396417629036 C166.0919540229885,272.7079896299787 174.2528735632184,269.76196087673816 182.41379310344828,266.99269384869194 C190.57471264367817,264.2234268206458 198.73563218390805,262.6797077539477 206.89655172413794,259.7808154607589 C215.05747126436782,256.8819231675701 223.2183908045977,253.00494932830546 231.3793103448276,249.5993400895593 C239.54022988505747,246.19373085081313 247.70114942528735,243.93118076832428 255.86206896551724,239.34716002828185 C264.0229885057471,234.76313928823942 272.183908045977,226.71458873438604 280.34482758620686,222.09521564930475 C288.50574712643675,217.47584256422343 296.6666666666667,215.04831487155315 304.82758620689657,211.630921517794 C312.98850574712645,208.21352816403487 321.14942528735634,205.30285175583313 329.3103448275862,201.59085552674995 C337.4712643678161,197.87885929766676 345.632183908046,192.29318878152253 353.7931034482759,189.35894414329485 C361.95402298850576,186.42469950506717 370.11494252873564,186.69573415036533 378.2758620689655,183.98538769738394 C386.4367816091954,181.27504124440256 394.5977011494253,176.87956634456754 402.7586206896552,173.09686542540655 C410.91954022988506,169.31416450624556 419.08045977011494,164.08201744049023 427.2413793103448,161.2891821824181 C435.4022988505747,158.49634692434597 443.5632183908046,158.484562809333 451.7241379310345,156.33985387697382 C459.88505747126436,154.19514494461464 468.04597701149424,151.260900306387 476.2068965517241,148.42092858826302 C484.367816091954,145.58095687013906 492.5287356321839,142.56422342682063 500.6896551724138,139.30002356823002 C508.85057471264366,136.0358237096394 517.0114942528736,131.74640584492104 525.1724137931035,128.8357294367193 C533.3333333333334,125.92505302851757 541.4942528735633,123.40325241574358 549.6551724137931,121.83596511901956 C557.816091954023,120.26867782229554 565.9770114942529,120.13905255715295 574.1379310344828,119.4320056563752 C582.2988505747127,118.72495875559744 590.4597701149426,118.9252887108178 598.6206896551724,117.59368371435303 C606.7816091954023,116.26207871788827 614.9425287356322,113.31604996464766 623.1034482758621,111.44237567758663 C631.264367816092,109.56870139052559 639.4252873563219,109.62762196559038 647.5862068965517,106.35163799198679 C655.7471264367816,103.0756540183832 663.9080459770115,95.15672872967241 672.0689655172414,91.78647183596513 C680.2298850574713,88.41621494225785 688.3908045977012,87.62667923638934 696.551724137931,86.1300966297431 C704.7126436781609,84.63351402309685 712.8735632183908,83.73792128211174 721.0344827586207,82.8069761960877 C729.1954022988506,81.87603111006366 737.3563218390805,81.46358708460997 745.5172413793103,80.54442611359889 C753.6781609195402,79.6252651425878 761.8390804597701,78.37614895121378 770,77.29201037002122 L770,350 L60,350 Z" fill="#6b63ff" fill-opacity="0.1" />
  <path d="M60,350 L60,349.9292953099222 C68.16091954022988,340.4312986094744 76.32183908045977,326.55452680243775 84.48275862068965,321.4353052085788 C92.64367816091954,316.3160836147199 100.80459770114942,319.1758748591875 108.9655172413793,314.5062455809569 C117.12643678160919,309.83661630272627 125.28735632183907,295.4748998350224 133.44827586206895,289.1232618430356 C141.60919540229884,282.7716238510488 149.77011494252872,280.0848456280933 157.9310344827586,276.396417629036 C166.0919540229885,272.7079896299787 174.2528735632184,269.76196087673816 182.41379310344828,266.99269384869194 C190.57471264367817,264.2234268206458 198.73563218390805,262.6797077539477 206.89655172413794,259.7808154607589 C215.05747126436782,256.8819231675701 223.2183908045977,253.00494932830546 231.3793103448276,249.5993400895593 C239.54022988505747,246.19373085081313 247.70114942528735,243.93118076832428 255.86206896551724,239.34716002828185 C264.0229885057471,234.76313928823942 272.183908045977,226.71458873438604 280.34482758620686,222.09521564930475 C288.50574712643675,217.47584256422343 296.6666666666667,215.04831487155315 304.82758620689657,211.630921517794 C312.98850574712645,208.21352816403487 321.14942528735634,205.30285175583313 329.3103448275862,201.59085552674995 C337.4712643678161,197.87885929766676 345.632183908046,192.29318878152253 353.7931034482759,189.35894414329485 C361.95402298850576,186.42469950506717 370.11494252873564,186.69573415036533 378.2758620689655,183.98538769738394 C386.4367816091954,181.27504124440256 394.5977011494253,176.87956634456754 402.7586206896552,173.09686542540655 C410.91954022988506,169.31416450624556 419.08045977011494,164.08201744049023 427.2413793103448,161.2891821824181 C435.4022988505747,158.49634692434597 443.5632183908046,158.484562809333 451.7241379310345,156.33985387697382 C459.88505747126436,154.19514494461464 468.04597701149424,151.260900306387 476.2068965517241,148.42092858826302 C484.367816091954,145.58095687013906 492.5287356321839,142.56422342682063 500.6896551724138,139.30002356823002 C508.85057471264366,136.0358237096394 517.0114942528736,131.74640584492104 525.1724137931035,128.8357294367193 C533.3333333333334,125.92505302851757 541.4942528735633,123.40325241574358 549.6551724137931,121.83596511901956 C557.816091954023,120.26867782229554 565.9770114942529,120.13905255715295 574.1379310344828,119.4320056563752 C582.2988505747127,118.72495875559744 590.4597701149426,118.9252887108178 598.6206896551724,117.59368371435303 C606.7816091954023,116.26207871788827 614.9425287356322,113.31604996464766 623.1034482758621,111.44237567758663 C631.264367816092,109.56870139052559 639.4252873563219,109.62762196559038 647.5862068965517,106.35163799198679 C655.7471264367816,103.0756540183832 663.9080459770115,95.15672872967241 672.0689655172414,91.78647183596513 C680.2298850574713,88.41621494225785 688.3908045977012,87.62667923638934 696.551724137931,86.1300966297431 C704.7126436781609,84.63351402309685 712.8735632183908,83.73792128211174 721.0344827586207,82.8069761960877 C729.1954022988506,81.87603111006366 737.3563218390805,81.46358708460997 745.5172413793103,80.54442611359889 C753.6781609195402,79.6252651425878 761.8390804597701,78.37614895121378 770,77.29201037002122" fill="none" stroke="#6b63ff" stroke-width="2.5" class="data-line-0" />
  <g class="points">
    
    <circle cx="60" cy="349.9292953099222" r="4" fill="#6b63ff" class="data-point" style="animation-delay: 1.50s" />
    <circle cx="84.48275862068965" cy="321.4353052085788" r="4" fill="#6b63ff" class="data-point" style="animation-delay: 1.55s" />
    <circle cx="108.9655172413793" cy="314.5062455809569" r="4" fill="#6b63ff" class="data-point" style="animation-delay: 1.60s" />
    <circle cx="133.44827586206895" cy="289.1232618430356" r="4" fill="#6b63ff" class="data-point" style="animation-delay: 1.65s" />
    <circle cx="157.9310344827586" cy="276.396417629036" r="4" fill="#6b63ff" class="data-point" style="animation-delay: 1.70s" />
    <circle cx="182.41379310344828" cy="266.99269384869194" r="4" fill="#6b63ff" class="data-point" style="animation-delay: 1.75s" />
    <circle cx="206.89655172413794" cy="259.7808154607589" r="4" fill="#6b63ff" class="data-point" style="animation-delay: 1.80s" />
    <circle cx="231.3793103448276" cy="249.5993400895593" r="4" fill="#6b63ff" class="data-point" style="animation-delay: 1.85s" />
    <circle cx="255.86206896551724" cy="239.34716002828185" r="4" fill="#6b63ff" class="data-point" style="animation-delay: 1.90s" />
    <circle cx="280.34482758620686" cy="222.09521564930475" r="4" fill="#6b63ff" class="data-point" style="animation-delay: 1.95s" />
    <circle cx="304.82758620689657" cy="211.630921517794" r="4" fill="#6b63ff" class="data-point" style="animation-delay: 2.00s" />
    <circle cx="329.3103448275862" cy="201.59085552674995" r="4" fill="#6b63ff" class="data-point" style="animation-delay: 2.05s" />
    <circle cx="353.7931034482759" cy="189.35894414329485" r="4" fill="#6b63ff" class="data-point" style="animation-delay: 2.10s" />
    <circle cx="378.2758620689655" cy="183.98538769738394" r="4" fill="#6b63ff" class="data-point" style="animation-delay: 2.15s" />
    <circle cx="402.7586206896552" cy="173.09686542540655" r="4" fill="#6b63ff" class="data-point" style="animation-delay: 2.20s" />
    <circle cx="427.2413793103448" cy="161.2891821824181" r="4" fill="#6b63ff" class="data-point" style="animation-delay: 2.25s" />
    <circle cx="451.7241379310345" cy="156.33985387697382" r="4" fill="#6b63ff" class="data-point" style="animation-delay: 2.30s" />
    <circle cx="476.2068965517241" cy="148.42092858826302" r="4" fill="#6b63ff" class="data-point" style="animation-delay: 2.35s" />
    <circle cx="500.6896551724138" cy="139.30002356823002" r="4" fill="#6b63ff" class="data-point" style="animation-delay: 2.40s" />
    <circle cx="525.1724137931035" cy="128.8357294367193" r="4" fill="#6b63ff" class="data-point" style="animation-delay: 2.45s" />
    <circle cx="549.6551724137931" cy="121.83596511901956" r="4" fill="#6b63ff" class="data-point" style="animation-delay: 2.50s" />
    <circle cx="574.1379310344828" cy="119.4320056563752" r="4" fill="#6b63ff" class="data-point" style="animation-delay: 2.55s" />
    <circle cx="598.6206896551724" cy="117.59368371435303" r="4" fill="#6b63ff" class="data-point" style="animation-delay: 2.60s" />
    <circle cx="623.1034482758621" cy="111.44237567758663" r="4" fill="#6b63ff" class="data-point" style="animation-delay: 2.65s" />
    <circle cx="647.5862068965517" cy="106.35163799198679" r="4" fill="#6b63ff" class="data-point" style="animation-delay: 2.70s" />
    <circle cx="672.0689655172414" cy="91.78647183596513" r="4" fill="#6b63ff" class="data-point" style="animation-delay: 2.75s" />
    <circle cx="696.551724137931" cy="86.1300966297431" r="4" fill="#6b63ff" class="data-point" style="animation-delay: 2.80s" />
    <circle cx="721.0344827586207" cy="82.8069761960877" r="4" fill="#6b63ff" class="data-point" style="animation-delay: 2.85s" />
    <circle cx="745.5172413793103" cy="80.54442611359889" r="4" fill="#6b63ff" class="data-point" style="animation-delay: 2.90s" />
    <circle cx="770" cy="77.29201037002122" r="4" fill="#6b63ff" class="data-point" style="animation-delay: 2.95s" />
  </g>
</svg>