<svg xmlns="http://www.w3.org/2000/svg" viewBox="0 0 800 400" width="800" height="400">
  <style>
    @keyframes drawLine {
      to { stroke-dashoffset: 0; }
    }
    @keyframes fadeInPoint {
      from { opacity: 0; }
      to { opacity: 1; }
    }
    .data-line-0 {
      stroke-dasharray: 1167;
      stroke-dashoffset: 1167;
      animation: drawLine 2s ease-out forwards;
    }
    .data-point {
      opacity: 0;
      animation: fadeInPoint 0.5s ease-out forwards;
    }
    .chart-bg { fill: #fff; }
    .chart-text { fill: #24292e; }
    .chart-muted { fill: #6a737d; }
    .chart-grid { stroke: #eee; }
    .chart-axis { stroke: #6a737d; }
    @media (prefers-color-scheme: dark) {
      .chart-bg { fill: #0d1117; }
      .chart-text { fill: #e6edf3; }
      .chart-muted { fill: #8b949e; }
      .chart-grid { stroke: #21262d; }
      .chart-axis { stroke: #8b949e; }
    }
  </style>
  <rect width="800" height="400" class="chart-bg" />
  <text x="400" y="14" text-anchor="middle" class="chart-text" font-size="16" font-weight="bold" font-family="-apple-system, BlinkMacSystemFont, 'Segoe UI', Helvetica, Arial, sans-serif">vdsm/virtual-dsm Star History</text>
  
  <g class="grid">
    <line x1="60" y1="350" x2="770" y2="350" class="chart-grid" stroke-opacity="0.3" />
    <text x="778" y="354" text-anchor="start" class="chart-muted" font-size="11" font-family="-apple-system, BlinkMacSystemFont, 'Segoe UI', Helvetica, Arial, sans-serif">0</text>
    <line x1="60" y1="281.27147766323026" x2="770" y2="281.27147766323026" class="chart-grid" stroke-opacity="0.3" />
    <text x="778" y="285.27147766323026" text-anchor="start" class="chart-muted" font-size="11" font-family="-apple-system, BlinkMacSystemFont, 'Segoe UI', Helvetica, Arial, sans-serif">1K</text>
    <line x1="60" y1="212.5429553264605" x2="770" y2="212.5429553264605" class="chart-grid" stroke-opacity="0.3" />
    <text x="778" y="216.5429553264605" text-anchor="start" class="chart-muted" font-size="11" font-family="-apple-system, BlinkMacSystemFont, 'Segoe UI', Helvetica, Arial, sans-serif">2K</text>
    <line x1="60" y1="143.81443298969072" x2="770" y2="143.81443298969072" class="chart-grid" stroke-opacity="0.3" />
    <text x="778" y="147.81443298969072" text-anchor="start" class="chart-muted" font-size="11" font-family="-apple-system, BlinkMacSystemFont, 'Segoe UI', Helvetica, Arial, sans-serif">3K</text>
    <line x1="60" y1="75.08591065292097" x2="770" y2="75.08591065292097" class="chart-grid" stroke-opacity="0.3" />
    <text x="778" y="79.08591065292097" text-anchor="start" class="chart-muted" font-size="11" font-family="-apple-system, BlinkMacSystemFont, 'Segoe UI', Helvetica, Arial, sans-serif">4K</text>
  </g>
  <g class="milestones">
    
  </g>
  <g class="x-axis">
    <text x="60" y="370" text-anchor="middle" class="chart-muted" font-size="11" font-family="-apple-system, BlinkMacSystemFont, 'Segoe UI', Helvetica, Arial, sans-serif">2023</text>
    <text x="231.3793103448276" y="370" text-anchor="middle" class="chart-muted" font-size="11" font-family="-apple-system, BlinkMacSystemFont, 'Segoe UI', Helvetica, Arial, sans-serif">2024</text>
    <text x="451.7241379310345" y="370" text-anchor="middle" class="chart-muted" font-size="11" font-family="-apple-system, BlinkMacSystemFont, 'Segoe UI', Helvetica, Arial, sans-serif">2025</text>
    <text x="647.5862068965517" y="370" text-anchor="middle" class="chart-muted" font-size="11" font-family="-apple-system, BlinkMacSystemFont, 'Segoe UI', Helvetica, Arial, sans-serif">2026</text>
  </g>
  <line x1="770" y1="50" x2="770" y2="350" class="chart-axis" stroke-width="1" />
  <line x1="60" y1="350" x2="770" y2="350" class="chart-axis" stroke-width="1" />
  <path d="M60,350 L60,349.93127147766324 C68.16091954022988,340.37800687285227 76.32183908045977,326.3876726161129 84.48275862068965,321.27147766323026 C92.64367816091954,316.1552827103476 100.80459770114942,319.0213884180645 108.9655172413793,314.3298969072165 C117.12643678160919,309.6384053963685 125.28735632183907,294.93699885452463 133.44827586206895,288.6254295532646 C141.60919540229884,282.3138602520046 149.77011494252872,279.5990836197022 157.9310344827586,276.46048109965636 C166.0919540229885,273.32187857961054 174.2528735632184,272.88659793814435 182.41379310344828,269.7938144329897 C190.57471264367817,266.70103092783506 198.73563218390805,261.38602520045816 206.89655172413794,257.9037800687285 C215.05747126436782,254.42153493699885 223.2183908045977,252.3138602520046 231.3793103448276,248.9003436426117 C239.54022988505747,245.4868270332188 247.70114942528735,242.0160366552119 255.86206896551724,237.42268041237114 C264.0229885057471,232.82932416953037 272.183908045977,225.4295532646048 280.34482758620686,221.340206185567 C288.50574712643675,217.25085910652922 296.6666666666667,215.9450171821306 304.82758620689657,212.88659793814435 C312.98850574712645,209.82817869415808 321.14942528735634,205.9679266895762 329.3103448275862,202.98969072164948 C337.4712643678161,200.01145475372277 345.632183908046,198.6139747995418 353.7931034482759,195.0171821305842 C361.95402298850576,191.42038946162657 370.11494252873564,184.67353951890033 378.2758620689655,181.40893470790377 C386.4367816091954,178.1443298969072 394.5977011494253,177.99541809851087 402.7586206896552,175.4295532646048 C410.91954022988506,172.86368843069874 419.08045977011494,169.69072164948452 427.2413793103448,166.01374570446734 C435.4022988505747,162.33676975945016 443.5632183908046,156.39175257731958 451.7241379310345,153.36769759450172 C459.88505747126436,150.34364261168386 468.04597701149424,149.59908361970218 476.2068965517241,147.86941580756013 C484.367816091954,146.13974799541808 492.5287356321839,145.2577319587629 500.6896551724138,142.98969072164948 C508.85057471264366,140.72164948453607 517.0114942528736,136.75830469644904 525.1724137931035,134.26116838487974 C533.3333333333334,131.76403207331043 541.4942528735633,130.30927835051546 549.6551724137931,128.00687285223367 C557.816091954023,125.70446735395188 565.9770114942529,120.57618445520208 574.1379310344828,120.44673539518902 C582.2988505747127,120.31728633517596 590.4597701149426,120.3495058373535 598.6206896551724,120.30927835051546 C606.7816091954023,120.2690508636774 614.9425287356322,120.3089685223003 623.1034482758621,117.69759450171821 C631.264367816092,115.08622048113612 639.4252873563219,106.46048109965639 647.5862068965517,102.30240549828181 C655.7471264367816,98.14432989690724 663.9080459770115,92.74914089347078 672.0689655172414,92.74914089347078 C680.2298850574713,92.74914089347078 688.3908045977012,92.74914089347078 696.551724137931,92.74914089347078 C704.7126436781609,92.74914089347078 712.8735632183908,92.34822451317295 721.0344827586207,91.64948453608247 C729.1954022988506,90.95074455899199 737.3563218390805,90.950744558992 745.5172413793103,88.55670103092785 C753.6781609195402,86.16265750286371 761.8390804597701,81.04238258877434 770,77.2852233676976 L770,350 L60,350 Z" fill="#6b63ff" fill-opacity="0.1" />
  <path d="M60,350 L60,349.93127147766324 C68.16091954022988,340.37800687285227 76.32183908045977,326.3876726161129 84.48275862068965,321.27147766323026 C92.64367816091954,316.1552827103476 100.80459770114942,319.0213884180645 108.9655172413793,314.3298969072165 C117.12643678160919,309.6384053963685 125.28735632183907,294.93699885452463 133.44827586206895,288.6254295532646 C141.60919540229884,282.3138602520046 149.77011494252872,279.5990836197022 157.9310344827586,276.46048109965636 C166.0919540229885,273.32187857961054 174.2528735632184,272.88659793814435 182.41379310344828,269.7938144329897 C190.57471264367817,266.70103092783506 198.73563218390805,261.38602520045816 206.89655172413794,257.9037800687285 C215.05747126436782,254.42153493699885 223.2183908045977,252.3138602520046 231.3793103448276,248.9003436426117 C239.54022988505747,245.4868270332188 247.70114942528735,242.0160366552119 255.86206896551724,237.42268041237114 C264.0229885057471,232.82932416953037 272.183908045977,225.4295532646048 280.34482758620686,221.340206185567 C288.50574712643675,217.25085910652922 296.6666666666667,215.9450171821306 304.82758620689657,212.88659793814435 C312.98850574712645,209.82817869415808 321.14942528735634,205.9679266895762 329.3103448275862,202.98969072164948 C337.4712643678161,200.01145475372277 345.632183908046,198.6139747995418 353.7931034482759,195.0171821305842 C361.95402298850576,191.42038946162657 370.11494252873564,184.67353951890033 378.2758620689655,181.40893470790377 C386.4367816091954,178.1443298969072 394.5977011494253,177.99541809851087 402.7586206896552,175.4295532646048 C410.91954022988506,172.86368843069874 419.08045977011494,169.69072164948452 427.2413793103448,166.01374570446734 C435.4022988505747,162.33676975945016 443.5632183908046,156.39175257731958 451.7241379310345,153.36769759450172 C459.88505747126436,150.34364261168386 468.04597701149424,149.59908361970218 476.2068965517241,147.86941580756013 C484.367816091954,146.13974799541808 492.5287356321839,145.2577319587629 500.6896551724138,142.98969072164948 C508.85057471264366,140.72164948453607 517.0114942528736,136.75830469644904 525.1724137931035,134.26116838487974 C533.3333333333334,131.76403207331043 541.4942528735633,130.30927835051546 549.6551724137931,128.00687285223367 C557.816091954023,125.70446735395188 565.9770114942529,120.57618445520208 574.1379310344828,120.44673539518902 C582.2988505747127,120.31728633517596 590.4597701149426,120.3495058373535 598.6206896551724,120.30927835051546 C606.7816091954023,120.2690508636774 614.9425287356322,120.3089685223003 623.1034482758621,117.69759450171821 C631.264367816092,115.08622048113612 639.4252873563219,106.46048109965639 647.5862068965517,102.30240549828181 C655.7471264367816,98.14432989690724 663.9080459770115,92.74914089347078 672.0689655172414,92.74914089347078 C680.2298850574713,92.74914089347078 688.3908045977012,92.74914089347078 696.551724137931,92.74914089347078 C704.7126436781609,92.74914089347078 712.8735632183908,92.34822451317295 721.0344827586207,91.64948453608247 C729.1954022988506,90.95074455899199 737.3563218390805,90.950744558992 745.5172413793103,88.55670103092785 C753.6781609195402,86.16265750286371 761.8390804597701,81.04238258877434 770,77.2852233676976" fill="none" stroke="#6b63ff" stroke-width="2.5" class="data-line-0" />
  <g class="points">
    
    <circle cx="60" cy="349.93127147766324" r="4" fill="#6b63ff" class="data-point" style="animation-delay: 1.50s" />
    <circle cx="84.48275862068965" cy="321.27147766323026" r="4" fill="#6b63ff" class="data-point" style="animation-delay: 1.55s" />
    <circle cx="108.9655172413793" cy="314.3298969072165" r="4" fill="#6b63ff" class="data-point" style="animation-delay: 1.60s" />
    <circle cx="133.44827586206895" cy="288.6254295532646" r="4" fill="#6b63ff" class="data-point" style="animation-delay: 1.65s" />
    <circle cx="157.9310344827586" cy="276.46048109965636" r="4" fill="#6b63ff" class="data-point" style="animation-delay: 1.70s" />
    <circle cx="182.41379310344828" cy="269.7938144329897" r="4" fill="#6b63ff" class="data-point" style="animation-delay: 1.75s" />
    <circle cx="206.89655172413794" cy="257.9037800687285" r="4" fill="#6b63ff" class="data-point" style="animation-delay: 1.80s" />
    <circle cx="231.3793103448276" cy="248.9003436426117" r="4" fill="#6b63ff" class="data-point" style="animation-delay: 1.85s" />
    <circle cx="255.86206896551724" cy="237.42268041237114" r="4" fill="#6b63ff" class="data-point" style="animation-delay: 1.90s" />
    <circle cx="280.34482758620686" cy="221.340206185567" r="4" fill="#6b63ff" class="data-point" style="animation-delay: 1.95s" />
    <circle cx="304.82758620689657" cy="212.88659793814435" r="4" fill="#6b63ff" class="data-point" style="animation-delay: 2.00s" />
    <circle cx="329.3103448275862" cy="202.98969072164948" r="4" fill="#6b63ff" class="data-point" style="animation-delay: 2.05s" />
    <circle cx="353.7931034482759" cy="195.0171821305842" r="4" fill="#6b63ff" class="data-point" style="animation-delay: 2.10s" />
    <circle cx="378.2758620689655" cy="181.40893470790377" r="4" fill="#6b63ff" class="data-point" style="animation-delay: 2.15s" />
    <circle cx="402.7586206896552" cy="175.4295532646048" r="4" fill="#6b63ff" class="data-point" style="animation-delay: 2.20s" />
    <circle cx="427.2413793103448" cy="166.01374570446734" r="4" fill="#6b63ff" class="data-point" style="animation-delay: 2.25s" />
    <circle cx="451.7241379310345" cy="153.36769759450172" r="4" fill="#6b63ff" class="data-point" style="animation-delay: 2.30s" />
    <circle cx="476.2068965517241" cy="147.86941580756013" r="4" fill="#6b63ff" class="data-point" style="animation-delay: 2.35s" />
    <circle cx="500.6896551724138" cy="142.98969072164948" r="4" fill="#6b63ff" class="data-point" style="animation-delay: 2.40s" />
    <circle cx="525.1724137931035" cy="134.26116838487974" r="4" fill="#6b63ff" class="data-point" style="animation-delay: 2.45s" />
    <circle cx="549.6551724137931" cy="128.00687285223367" r="4" fill="#6b63ff" class="data-point" style="animation-delay: 2.50s" />
    <circle cx="574.1379310344828" cy="120.44673539518902" r="4" fill="#6b63ff" class="data-point" style="animation-delay: 2.55s" />
    <circle cx="598.6206896551724" cy="120.30927835051546" r="4" fill="#6b63ff" class="data-point" style="animation-delay: 2.60s" />
    <circle cx="623.1034482758621" cy="117.69759450171821" r="4" fill="#6b63ff" class="data-point" style="animation-delay: 2.65s" />
    <circle cx="647.5862068965517" cy="102.30240549828181" r="4" fill="#6b63ff" class="data-point" style="animation-delay: 2.70s" />
    <circle cx="672.0689655172414" cy="92.74914089347078" r="4" fill="#6b63ff" class="data-point" style="animation-delay: 2.75s" />
    <circle cx="696.551724137931" cy="92.74914089347078" r="4" fill="#6b63ff" class="data-point" style="animation-delay: 2.80s" />
    <circle cx="721.0344827586207" cy="91.64948453608247" r="4" fill="#6b63ff" class="data-point" style="animation-delay: 2.85s" />
    <circle cx="745.5172413793103" cy="88.55670103092785" r="4" fill="#6b63ff" class="data-point" style="animation-delay: 2.90s" />
    <circle cx="770" cy="77.2852233676976" r="4" fill="#6b63ff" class="data-point" style="animation-delay: 2.95s" />
  </g>
</svg>