<svg xmlns="http://www.w3.org/2000/svg" viewBox="0 0 800 400" width="800" height="400">
  <style>
    @keyframes drawLine {
      to { stroke-dashoffset: 0; }
    }
    @keyframes fadeInPoint {
      from { opacity: 0; }
      to { opacity: 1; }
    }
    .data-line-0 {
      stroke-dasharray: 1165;
      stroke-dashoffset: 1165;
      animation: drawLine 2s ease-out forwards;
    }
    .data-point {
      opacity: 0;
      animation: fadeInPoint 0.5s ease-out forwards;
    }
    .chart-bg { fill: #fff; }
    .chart-text { fill: #24292e; }
    .chart-muted { fill: #6a737d; }
    .chart-grid { stroke: #eee; }
    .chart-axis { stroke: #6a737d; }
    @media (prefers-color-scheme: dark) {
      .chart-bg { fill: #0d1117; }
      .chart-text { fill: #e6edf3; }
      .chart-muted { fill: #8b949e; }
      .chart-grid { stroke: #21262d; }
      .chart-axis { stroke: #8b949e; }
    }
  </style>
  <rect width="800" height="400" class="chart-bg" />
  <text x="400" y="14" text-anchor="middle" class="chart-text" font-size="16" font-weight="bold" font-family="-apple-system, BlinkMacSystemFont, 'Segoe UI', Helvetica, Arial, sans-serif">vdsm/virtual-dsm Star History</text>
  
  <g class="grid">
    <line x1="60" y1="350" x2="770" y2="350" class="chart-grid" stroke-opacity="0.3" />
    <text x="778" y="354" text-anchor="start" class="chart-muted" font-size="11" font-family="-apple-system, BlinkMacSystemFont, 'Segoe UI', Helvetica, Arial, sans-serif">0</text>
    <line x1="60" y1="279.26196651733085" x2="770" y2="279.26196651733085" class="chart-grid" stroke-opacity="0.3" />
    <text x="778" y="283.26196651733085" text-anchor="start" class="chart-muted" font-size="11" font-family="-apple-system, BlinkMacSystemFont, 'Segoe UI', Helvetica, Arial, sans-serif">1K</text>
    <line x1="60" y1="208.52393303466164" x2="770" y2="208.52393303466164" class="chart-grid" stroke-opacity="0.3" />
    <text x="778" y="212.52393303466164" text-anchor="start" class="chart-muted" font-size="11" font-family="-apple-system, BlinkMacSystemFont, 'Segoe UI', Helvetica, Arial, sans-serif">2K</text>
    <line x1="60" y1="137.78589955199246" x2="770" y2="137.78589955199246" class="chart-grid" stroke-opacity="0.3" />
    <text x="778" y="141.78589955199246" text-anchor="start" class="chart-muted" font-size="11" font-family="-apple-system, BlinkMacSystemFont, 'Segoe UI', Helvetica, Arial, sans-serif">3K</text>
    <line x1="60" y1="67.04786606932328" x2="770" y2="67.04786606932328" class="chart-grid" stroke-opacity="0.3" />
    <text x="778" y="71.04786606932328" text-anchor="start" class="chart-muted" font-size="11" font-family="-apple-system, BlinkMacSystemFont, 'Segoe UI', Helvetica, Arial, sans-serif">4K</text>
  </g>
  <g class="milestones">
    
  </g>
  <g class="x-axis">
    <text x="60" y="370" text-anchor="middle" class="chart-muted" font-size="11" font-family="-apple-system, BlinkMacSystemFont, 'Segoe UI', Helvetica, Arial, sans-serif">2023</text>
    <text x="231.3793103448276" y="370" text-anchor="middle" class="chart-muted" font-size="11" font-family="-apple-system, BlinkMacSystemFont, 'Segoe UI', Helvetica, Arial, sans-serif">2024</text>
    <text x="451.7241379310345" y="370" text-anchor="middle" class="chart-muted" font-size="11" font-family="-apple-system, BlinkMacSystemFont, 'Segoe UI', Helvetica, Arial, sans-serif">2025</text>
    <text x="672.0689655172414" y="370" text-anchor="middle" class="chart-muted" font-size="11" font-family="-apple-system, BlinkMacSystemFont, 'Segoe UI', Helvetica, Arial, sans-serif">2026</text>
  </g>
  <line x1="770" y1="50" x2="770" y2="350" class="chart-axis" stroke-width="1" />
  <line x1="60" y1="350" x2="770" y2="350" class="chart-axis" stroke-width="1" />
  <path d="M60,350 L60,349.92926196651734 C68.16091954022988,340.4267861353454 76.32183908045977,326.5587579638355 84.48275862068965,321.42183447300164 C92.64367816091954,316.2849109821678 100.80459770114942,319.1445236883838 108.9655172413793,314.48950719170006 C117.12643678160919,309.8344906950163 125.28735632183907,295.6496109408158 133.44827586206895,289.30676727186983 C141.60919540229884,282.96392360292384 149.77011494252872,280.1579816081113 157.9310344827586,276.43244517802407 C166.0919540229885,272.70690874793684 174.2528735632184,269.7005423249234 182.41379310344828,266.9535486913464 C190.57471264367817,264.2065550577694 198.73563218390805,262.83895307710446 206.89655172413794,259.95048337656215 C215.05747126436782,257.06201367601983 223.2183908045977,253.065314784249 231.3793103448276,249.62273048809243 C239.54022988505747,246.18014619193585 247.70114942528735,243.763263381278 255.86206896551724,239.2949775996227 C264.0229885057471,234.82669181796746 272.183908045977,227.43456731902853 280.34482758620686,222.81301579816082 C288.50574712643675,218.1914642772931 296.6666666666667,215.05541145956144 304.82758620689657,211.5656684744164 C312.98850574712645,208.0759254892714 321.14942528735634,205.57651497288376 329.3103448275862,201.87455788729073 C337.4712643678161,198.1726008016977 345.632183908046,192.3485027116246 353.7931034482759,189.35392596085828 C361.95402298850576,186.35934921009195 370.11494252873564,186.57156331053997 378.2758620689655,183.90709738269277 C386.4367816091954,181.24263145484557 394.5977011494253,177.12803584060364 402.7586206896552,173.36713039377506 C410.91954022988506,169.60622494694647 419.08045977011494,164.2065550577694 427.2413793103448,161.3416647017213 C435.4022988505747,158.4767743456732 443.5632183908046,158.20561188398963 451.7241379310345,156.17778825748644 C459.88505747126436,154.14996463098325 468.04597701149424,151.92171657627918 476.2068965517241,149.1747229427022 C484.367816091954,146.42772930912523 492.5287356321839,143.04409337420418 500.6896551724138,139.69582645602452 C508.85057471264366,136.34755953784483 517.0114942528736,132.05611883989627 525.1724137931035,129.08512143362415 C533.3333333333334,126.11412402735205 541.4942528735633,123.49681678849329 549.6551724137931,121.86984201839189 C557.816091954023,120.2428672482905 565.9770114942529,119.96978901735399 574.1379310344828,119.32327281301579 C582.2988505747127,118.6767566086776 590.4597701149426,119.16690975537786 598.6206896551724,117.90851214336243 C606.7816091954023,116.650114531347 614.9425287356322,113.53454373968404 623.1034482758621,111.61282716340486 C631.264367816092,109.69111058712568 639.4252873563219,109.7146899316199 647.5862068965517,106.37821268568734 C655.7471264367816,103.04173543975479 663.9080459770115,94.8832822447536 672.0689655172414,91.59396368780949 C680.2298850574713,88.30464513086538 688.3908045977012,88.1160103749116 696.551724137931,86.64230134402266 C704.7126436781609,85.16859231313371 712.8735632183908,83.80099033246874 721.0344827586207,82.75170950247582 C729.1954022988506,81.7024286724829 737.3563218390805,81.25442112709267 745.5172413793103,80.34661636406508 C753.6781609195402,79.4388116010375 761.8390804597701,78.31879273756192 770,77.30488092431034 L770,350 L60,350 Z" fill="#6b63ff" fill-opacity="0.1" />
  <path d="M60,350 L60,349.92926196651734 C68.16091954022988,340.4267861353454 76.32183908045977,326.5587579638355 84.48275862068965,321.42183447300164 C92.64367816091954,316.2849109821678 100.80459770114942,319.1445236883838 108.9655172413793,314.48950719170006 C117.12643678160919,309.8344906950163 125.28735632183907,295.6496109408158 133.44827586206895,289.30676727186983 C141.60919540229884,282.96392360292384 149.77011494252872,280.1579816081113 157.9310344827586,276.43244517802407 C166.0919540229885,272.70690874793684 174.2528735632184,269.7005423249234 182.41379310344828,266.9535486913464 C190.57471264367817,264.2065550577694 198.73563218390805,262.83895307710446 206.89655172413794,259.95048337656215 C215.05747126436782,257.06201367601983 223.2183908045977,253.065314784249 231.3793103448276,249.62273048809243 C239.54022988505747,246.18014619193585 247.70114942528735,243.763263381278 255.86206896551724,239.2949775996227 C264.0229885057471,234.82669181796746 272.183908045977,227.43456731902853 280.34482758620686,222.81301579816082 C288.50574712643675,218.1914642772931 296.6666666666667,215.05541145956144 304.82758620689657,211.5656684744164 C312.98850574712645,208.0759254892714 321.14942528735634,205.57651497288376 329.3103448275862,201.87455788729073 C337.4712643678161,198.1726008016977 345.632183908046,192.3485027116246 353.7931034482759,189.35392596085828 C361.95402298850576,186.35934921009195 370.11494252873564,186.57156331053997 378.2758620689655,183.90709738269277 C386.4367816091954,181.24263145484557 394.5977011494253,177.12803584060364 402.7586206896552,173.36713039377506 C410.91954022988506,169.60622494694647 419.08045977011494,164.2065550577694 427.2413793103448,161.3416647017213 C435.4022988505747,158.4767743456732 443.5632183908046,158.20561188398963 451.7241379310345,156.17778825748644 C459.88505747126436,154.14996463098325 468.04597701149424,151.92171657627918 476.2068965517241,149.1747229427022 C484.367816091954,146.42772930912523 492.5287356321839,143.04409337420418 500.6896551724138,139.69582645602452 C508.85057471264366,136.34755953784483 517.0114942528736,132.05611883989627 525.1724137931035,129.08512143362415 C533.3333333333334,126.11412402735205 541.4942528735633,123.49681678849329 549.6551724137931,121.86984201839189 C557.816091954023,120.2428672482905 565.9770114942529,119.96978901735399 574.1379310344828,119.32327281301579 C582.2988505747127,118.6767566086776 590.4597701149426,119.16690975537786 598.6206896551724,117.90851214336243 C606.7816091954023,116.650114531347 614.9425287356322,113.53454373968404 623.1034482758621,111.61282716340486 C631.264367816092,109.69111058712568 639.4252873563219,109.7146899316199 647.5862068965517,106.37821268568734 C655.7471264367816,103.04173543975479 663.9080459770115,94.8832822447536 672.0689655172414,91.59396368780949 C680.2298850574713,88.30464513086538 688.3908045977012,88.1160103749116 696.551724137931,86.64230134402266 C704.7126436781609,85.16859231313371 712.8735632183908,83.80099033246874 721.0344827586207,82.75170950247582 C729.1954022988506,81.7024286724829 737.3563218390805,81.25442112709267 745.5172413793103,80.34661636406508 C753.6781609195402,79.4388116010375 761.8390804597701,78.31879273756192 770,77.30488092431034" fill="none" stroke="#6b63ff" stroke-width="2.5" class="data-line-0" />
  <g class="points">
    
    <circle cx="60" cy="349.92926196651734" r="4" fill="#6b63ff" class="data-point" style="animation-delay: 1.50s" />
    <circle cx="84.48275862068965" cy="321.42183447300164" r="4" fill="#6b63ff" class="data-point" style="animation-delay: 1.55s" />
    <circle cx="108.9655172413793" cy="314.48950719170006" r="4" fill="#6b63ff" class="data-point" style="animation-delay: 1.60s" />
    <circle cx="133.44827586206895" cy="289.30676727186983" r="4" fill="#6b63ff" class="data-point" style="animation-delay: 1.65s" />
    <circle cx="157.9310344827586" cy="276.43244517802407" r="4" fill="#6b63ff" class="data-point" style="animation-delay: 1.70s" />
    <circle cx="182.41379310344828" cy="266.9535486913464" r="4" fill="#6b63ff" class="data-point" style="animation-delay: 1.75s" />
    <circle cx="206.89655172413794" cy="259.95048337656215" r="4" fill="#6b63ff" class="data-point" style="animation-delay: 1.80s" />
    <circle cx="231.3793103448276" cy="249.62273048809243" r="4" fill="#6b63ff" class="data-point" style="animation-delay: 1.85s" />
    <circle cx="255.86206896551724" cy="239.2949775996227" r="4" fill="#6b63ff" class="data-point" style="animation-delay: 1.90s" />
    <circle cx="280.34482758620686" cy="222.81301579816082" r="4" fill="#6b63ff" class="data-point" style="animation-delay: 1.95s" />
    <circle cx="304.82758620689657" cy="211.5656684744164" r="4" fill="#6b63ff" class="data-point" style="animation-delay: 2.00s" />
    <circle cx="329.3103448275862" cy="201.87455788729073" r="4" fill="#6b63ff" class="data-point" style="animation-delay: 2.05s" />
    <circle cx="353.7931034482759" cy="189.35392596085828" r="4" fill="#6b63ff" class="data-point" style="animation-delay: 2.10s" />
    <circle cx="378.2758620689655" cy="183.90709738269277" r="4" fill="#6b63ff" class="data-point" style="animation-delay: 2.15s" />
    <circle cx="402.7586206896552" cy="173.36713039377506" r="4" fill="#6b63ff" class="data-point" style="animation-delay: 2.20s" />
    <circle cx="427.2413793103448" cy="161.3416647017213" r="4" fill="#6b63ff" class="data-point" style="animation-delay: 2.25s" />
    <circle cx="451.7241379310345" cy="156.17778825748644" r="4" fill="#6b63ff" class="data-point" style="animation-delay: 2.30s" />
    <circle cx="476.2068965517241" cy="149.1747229427022" r="4" fill="#6b63ff" class="data-point" style="animation-delay: 2.35s" />
    <circle cx="500.6896551724138" cy="139.69582645602452" r="4" fill="#6b63ff" class="data-point" style="animation-delay: 2.40s" />
    <circle cx="525.1724137931035" cy="129.08512143362415" r="4" fill="#6b63ff" class="data-point" style="animation-delay: 2.45s" />
    <circle cx="549.6551724137931" cy="121.86984201839189" r="4" fill="#6b63ff" class="data-point" style="animation-delay: 2.50s" />
    <circle cx="574.1379310344828" cy="119.32327281301579" r="4" fill="#6b63ff" class="data-point" style="animation-delay: 2.55s" />
    <circle cx="598.6206896551724" cy="117.90851214336243" r="4" fill="#6b63ff" class="data-point" style="animation-delay: 2.60s" />
    <circle cx="623.1034482758621" cy="111.61282716340486" r="4" fill="#6b63ff" class="data-point" style="animation-delay: 2.65s" />
    <circle cx="647.5862068965517" cy="106.37821268568734" r="4" fill="#6b63ff" class="data-point" style="animation-delay: 2.70s" />
    <circle cx="672.0689655172414" cy="91.59396368780949" r="4" fill="#6b63ff" class="data-point" style="animation-delay: 2.75s" />
    <circle cx="696.551724137931" cy="86.64230134402266" r="4" fill="#6b63ff" class="data-point" style="animation-delay: 2.80s" />
    <circle cx="721.0344827586207" cy="82.75170950247582" r="4" fill="#6b63ff" class="data-point" style="animation-delay: 2.85s" />
    <circle cx="745.5172413793103" cy="80.34661636406508" r="4" fill="#6b63ff" class="data-point" style="animation-delay: 2.90s" />
    <circle cx="770" cy="77.30488092431034" r="4" fill="#6b63ff" class="data-point" style="animation-delay: 2.95s" />
  </g>
</svg>