<svg xmlns="http://www.w3.org/2000/svg" viewBox="0 0 800 400" width="800" height="400">
  <style>
    @keyframes drawLine {
      to { stroke-dashoffset: 0; }
    }
    @keyframes fadeInPoint {
      from { opacity: 0; }
      to { opacity: 1; }
    }
    .data-line-0 {
      stroke-dasharray: 1165;
      stroke-dashoffset: 1165;
      animation: drawLine 2s ease-out forwards;
    }
    .data-point {
      opacity: 0;
      animation: fadeInPoint 0.5s ease-out forwards;
    }
    .chart-bg { fill: #fff; }
    .chart-text { fill: #24292e; }
    .chart-muted { fill: #6a737d; }
    .chart-grid { stroke: #eee; }
    .chart-axis { stroke: #6a737d; }
    @media (prefers-color-scheme: dark) {
      .chart-bg { fill: #0d1117; }
      .chart-text { fill: #e6edf3; }
      .chart-muted { fill: #8b949e; }
      .chart-grid { stroke: #21262d; }
      .chart-axis { stroke: #8b949e; }
    }
  </style>
  <rect width="800" height="400" class="chart-bg" />
  <text x="400" y="34" text-anchor="middle" class="chart-text" font-size="16" font-weight="bold" font-family="-apple-system, BlinkMacSystemFont, 'Segoe UI', Helvetica, Arial, sans-serif">vdsm/virtual-dsm Star History</text>
  
  <g class="grid">
    <line x1="60" y1="350" x2="770" y2="350" class="chart-grid" stroke-opacity="0.3" />
    <text x="778" y="354" text-anchor="start" class="chart-muted" font-size="11" font-family="-apple-system, BlinkMacSystemFont, 'Segoe UI', Helvetica, Arial, sans-serif">0</text>
    <line x1="60" y1="279.2285916489738" x2="770" y2="279.2285916489738" class="chart-grid" stroke-opacity="0.3" />
    <text x="778" y="283.2285916489738" text-anchor="start" class="chart-muted" font-size="11" font-family="-apple-system, BlinkMacSystemFont, 'Segoe UI', Helvetica, Arial, sans-serif">1K</text>
    <line x1="60" y1="208.45718329794764" x2="770" y2="208.45718329794764" class="chart-grid" stroke-opacity="0.3" />
    <text x="778" y="212.45718329794764" text-anchor="start" class="chart-muted" font-size="11" font-family="-apple-system, BlinkMacSystemFont, 'Segoe UI', Helvetica, Arial, sans-serif">2K</text>
    <line x1="60" y1="137.68577494692144" x2="770" y2="137.68577494692144" class="chart-grid" stroke-opacity="0.3" />
    <text x="778" y="141.68577494692144" text-anchor="start" class="chart-muted" font-size="11" font-family="-apple-system, BlinkMacSystemFont, 'Segoe UI', Helvetica, Arial, sans-serif">3K</text>
    <line x1="60" y1="66.91436659589527" x2="770" y2="66.91436659589527" class="chart-grid" stroke-opacity="0.3" />
    <text x="778" y="70.91436659589527" text-anchor="start" class="chart-muted" font-size="11" font-family="-apple-system, BlinkMacSystemFont, 'Segoe UI', Helvetica, Arial, sans-serif">4K</text>
  </g>
  <g class="milestones">
    
  </g>
  <g class="x-axis">
    <text x="60" y="370" text-anchor="middle" class="chart-muted" font-size="11" font-family="-apple-system, BlinkMacSystemFont, 'Segoe UI', Helvetica, Arial, sans-serif">2023</text>
    <text x="231.3793103448276" y="370" text-anchor="middle" class="chart-muted" font-size="11" font-family="-apple-system, BlinkMacSystemFont, 'Segoe UI', Helvetica, Arial, sans-serif">2024</text>
    <text x="451.7241379310345" y="370" text-anchor="middle" class="chart-muted" font-size="11" font-family="-apple-system, BlinkMacSystemFont, 'Segoe UI', Helvetica, Arial, sans-serif">2025</text>
    <text x="672.0689655172414" y="370" text-anchor="middle" class="chart-muted" font-size="11" font-family="-apple-system, BlinkMacSystemFont, 'Segoe UI', Helvetica, Arial, sans-serif">2026</text>
  </g>
  <line x1="770" y1="50" x2="770" y2="350" class="chart-axis" stroke-width="1" />
  <line x1="60" y1="350" x2="770" y2="350" class="chart-axis" stroke-width="1" />
  <path d="M60,350 L60,349.92922859164895 C63.264367816091955,346.12644491625383 77.95402298850574,326.13588110403396 84.48275862068965,321.4083510261854 C91.01149425287356,316.6808209483369 102.43678160919539,318.77565463552725 108.9655172413793,314.47275300778483 C115.49425287356321,310.1698513800424 126.91954022988504,294.22269403161124 133.44827586206895,289.1365888181175 C139.97701149425285,284.05048360462376 151.40229885057468,279.28992686954473 157.9310344827586,276.32696390658174 C164.45977011494253,273.36400094361875 175.88505747126436,269.1224345364473 182.41379310344828,266.9143665958953 C188.9425287356322,264.70629865534323 200.36781609195404,262.0971927341354 206.89655172413794,259.7664543524416 C213.42528735632183,257.4357159707478 224.8505747126437,252.17975937721158 231.3793103448276,249.43382873319177 C237.90804597701148,246.68789808917197 249.33333333333334,242.6350554376032 255.86206896551724,239.171974522293 C262.39080459770116,235.7088936069828 273.81609195402297,227.15027129039868 280.34482758620686,223.46072186836517 C286.87356321839076,219.77117244633166 298.2988505747127,214.36895494220335 304.82758620689657,211.50035385704174 C311.35632183908046,208.63175277188014 322.7816091954023,204.8903043170559 329.3103448275862,201.9462137296532 C335.8390804597701,199.00212314225053 347.264367816092,191.84477471101675 353.7931034482759,189.4196744515216 C360.32183908045977,186.99457419202642 371.7471264367816,185.76786978060863 378.2758620689655,183.7579617834395 C384.8045977011494,181.74805378627036 396.2298850574713,177.3177636234961 402.7586206896552,174.345364472753 C409.28735632183907,171.37296532200992 420.71264367816093,163.89950460014154 427.2413793103448,161.46496815286625 C433.7701149425287,159.03043170559096 445.1954022988506,157.73767397971218 451.7241379310345,156.08634111818824 C458.2528735632184,154.4350082566643 469.67816091954023,151.2974758197688 476.2068965517241,149.07997169143664 C482.735632183908,146.86246756310447 494.1609195402299,142.11606510969565 500.6896551724138,139.45506015569708 C507.2183908045977,136.7940552016985 518.6436781609195,131.4814814814815 525.1724137931035,129.1224345364473 C531.7011494252874,126.76338759141308 543.1264367816092,123.09271054493983 549.6551724137931,121.76220806794055 C556.1839080459771,120.43170559094126 567.6091954022988,119.65322009907999 574.1379310344828,119.1436659589526 C580.6666666666667,118.6341118188252 592.0919540229885,118.91247935833921 598.6206896551724,117.94055201698512 C605.1494252873564,116.96862467563103 616.5747126436781,113.40174569473935 623.1034482758621,111.85421089879691 C629.632183908046,110.30667610285447 641.0574712643678,109.05166312809627 647.5862068965517,106.33404104741686 C654.1149425287357,103.61641896673746 665.5402298850574,94.01037980655815 672.0689655172414,91.47204529370134 C678.5977011494253,88.93371078084454 690.0229885057471,88.45718329794761 696.551724137931,87.29653220099078 C703.080459770115,86.13588110403396 714.5057471264367,83.66359990563815 721.0344827586207,82.76716206652515 C727.5632183908046,81.87072422741214 738.9885057471264,81.29983486671384 745.5172413793103,80.57324840764329 C752.0459770114943,79.84666194857274 766.735632183908,77.75182826138239 770,77.31776362349609 L770,350 L60,350 Z" fill="#6b63ff" fill-opacity="0.1" />
  <path d="M60,350 L60,349.92922859164895 C63.264367816091955,346.12644491625383 77.95402298850574,326.13588110403396 84.48275862068965,321.4083510261854 C91.01149425287356,316.6808209483369 102.43678160919539,318.77565463552725 108.9655172413793,314.47275300778483 C115.49425287356321,310.1698513800424 126.91954022988504,294.22269403161124 133.44827586206895,289.1365888181175 C139.97701149425285,284.05048360462376 151.40229885057468,279.28992686954473 157.9310344827586,276.32696390658174 C164.45977011494253,273.36400094361875 175.88505747126436,269.1224345364473 182.41379310344828,266.9143665958953 C188.9425287356322,264.70629865534323 200.36781609195404,262.0971927341354 206.89655172413794,259.7664543524416 C213.42528735632183,257.4357159707478 224.8505747126437,252.17975937721158 231.3793103448276,249.43382873319177 C237.90804597701148,246.68789808917197 249.33333333333334,242.6350554376032 255.86206896551724,239.171974522293 C262.39080459770116,235.7088936069828 273.81609195402297,227.15027129039868 280.34482758620686,223.46072186836517 C286.87356321839076,219.77117244633166 298.2988505747127,214.36895494220335 304.82758620689657,211.50035385704174 C311.35632183908046,208.63175277188014 322.7816091954023,204.8903043170559 329.3103448275862,201.9462137296532 C335.8390804597701,199.00212314225053 347.264367816092,191.84477471101675 353.7931034482759,189.4196744515216 C360.32183908045977,186.99457419202642 371.7471264367816,185.76786978060863 378.2758620689655,183.7579617834395 C384.8045977011494,181.74805378627036 396.2298850574713,177.3177636234961 402.7586206896552,174.345364472753 C409.28735632183907,171.37296532200992 420.71264367816093,163.89950460014154 427.2413793103448,161.46496815286625 C433.7701149425287,159.03043170559096 445.1954022988506,157.73767397971218 451.7241379310345,156.08634111818824 C458.2528735632184,154.4350082566643 469.67816091954023,151.2974758197688 476.2068965517241,149.07997169143664 C482.735632183908,146.86246756310447 494.1609195402299,142.11606510969565 500.6896551724138,139.45506015569708 C507.2183908045977,136.7940552016985 518.6436781609195,131.4814814814815 525.1724137931035,129.1224345364473 C531.7011494252874,126.76338759141308 543.1264367816092,123.09271054493983 549.6551724137931,121.76220806794055 C556.1839080459771,120.43170559094126 567.6091954022988,119.65322009907999 574.1379310344828,119.1436659589526 C580.6666666666667,118.6341118188252 592.0919540229885,118.91247935833921 598.6206896551724,117.94055201698512 C605.1494252873564,116.96862467563103 616.5747126436781,113.40174569473935 623.1034482758621,111.85421089879691 C629.632183908046,110.30667610285447 641.0574712643678,109.05166312809627 647.5862068965517,106.33404104741686 C654.1149425287357,103.61641896673746 665.5402298850574,94.01037980655815 672.0689655172414,91.47204529370134 C678.5977011494253,88.93371078084454 690.0229885057471,88.45718329794761 696.551724137931,87.29653220099078 C703.080459770115,86.13588110403396 714.5057471264367,83.66359990563815 721.0344827586207,82.76716206652515 C727.5632183908046,81.87072422741214 738.9885057471264,81.29983486671384 745.5172413793103,80.57324840764329 C752.0459770114943,79.84666194857274 766.735632183908,77.75182826138239 770,77.31776362349609" fill="none" stroke="#6b63ff" stroke-width="2.5" class="data-line-0" />
  <g class="points">
    
    <circle cx="60" cy="349.92922859164895" r="4" fill="#6b63ff" class="data-point" style="animation-delay: 1.50s" />
    <circle cx="84.48275862068965" cy="321.4083510261854" r="4" fill="#6b63ff" class="data-point" style="animation-delay: 1.55s" />
    <circle cx="108.9655172413793" cy="314.47275300778483" r="4" fill="#6b63ff" class="data-point" style="animation-delay: 1.60s" />
    <circle cx="133.44827586206895" cy="289.1365888181175" r="4" fill="#6b63ff" class="data-point" style="animation-delay: 1.65s" />
    <circle cx="157.9310344827586" cy="276.32696390658174" r="4" fill="#6b63ff" class="data-point" style="animation-delay: 1.70s" />
    <circle cx="182.41379310344828" cy="266.9143665958953" r="4" fill="#6b63ff" class="data-point" style="animation-delay: 1.75s" />
    <circle cx="206.89655172413794" cy="259.7664543524416" r="4" fill="#6b63ff" class="data-point" style="animation-delay: 1.80s" />
    <circle cx="231.3793103448276" cy="249.43382873319177" r="4" fill="#6b63ff" class="data-point" style="animation-delay: 1.85s" />
    <circle cx="255.86206896551724" cy="239.171974522293" r="4" fill="#6b63ff" class="data-point" style="animation-delay: 1.90s" />
    <circle cx="280.34482758620686" cy="223.46072186836517" r="4" fill="#6b63ff" class="data-point" style="animation-delay: 1.95s" />
    <circle cx="304.82758620689657" cy="211.50035385704174" r="4" fill="#6b63ff" class="data-point" style="animation-delay: 2.00s" />
    <circle cx="329.3103448275862" cy="201.9462137296532" r="4" fill="#6b63ff" class="data-point" style="animation-delay: 2.05s" />
    <circle cx="353.7931034482759" cy="189.4196744515216" r="4" fill="#6b63ff" class="data-point" style="animation-delay: 2.10s" />
    <circle cx="378.2758620689655" cy="183.7579617834395" r="4" fill="#6b63ff" class="data-point" style="animation-delay: 2.15s" />
    <circle cx="402.7586206896552" cy="174.345364472753" r="4" fill="#6b63ff" class="data-point" style="animation-delay: 2.20s" />
    <circle cx="427.2413793103448" cy="161.46496815286625" r="4" fill="#6b63ff" class="data-point" style="animation-delay: 2.25s" />
    <circle cx="451.7241379310345" cy="156.08634111818824" r="4" fill="#6b63ff" class="data-point" style="animation-delay: 2.30s" />
    <circle cx="476.2068965517241" cy="149.07997169143664" r="4" fill="#6b63ff" class="data-point" style="animation-delay: 2.35s" />
    <circle cx="500.6896551724138" cy="139.45506015569708" r="4" fill="#6b63ff" class="data-point" style="animation-delay: 2.40s" />
    <circle cx="525.1724137931035" cy="129.1224345364473" r="4" fill="#6b63ff" class="data-point" style="animation-delay: 2.45s" />
    <circle cx="549.6551724137931" cy="121.76220806794055" r="4" fill="#6b63ff" class="data-point" style="animation-delay: 2.50s" />
    <circle cx="574.1379310344828" cy="119.1436659589526" r="4" fill="#6b63ff" class="data-point" style="animation-delay: 2.55s" />
    <circle cx="598.6206896551724" cy="117.94055201698512" r="4" fill="#6b63ff" class="data-point" style="animation-delay: 2.60s" />
    <circle cx="623.1034482758621" cy="111.85421089879691" r="4" fill="#6b63ff" class="data-point" style="animation-delay: 2.65s" />
    <circle cx="647.5862068965517" cy="106.33404104741686" r="4" fill="#6b63ff" class="data-point" style="animation-delay: 2.70s" />
    <circle cx="672.0689655172414" cy="91.47204529370134" r="4" fill="#6b63ff" class="data-point" style="animation-delay: 2.75s" />
    <circle cx="696.551724137931" cy="87.29653220099078" r="4" fill="#6b63ff" class="data-point" style="animation-delay: 2.80s" />
    <circle cx="721.0344827586207" cy="82.76716206652515" r="4" fill="#6b63ff" class="data-point" style="animation-delay: 2.85s" />
    <circle cx="745.5172413793103" cy="80.57324840764329" r="4" fill="#6b63ff" class="data-point" style="animation-delay: 2.90s" />
    <circle cx="770" cy="77.31776362349609" r="4" fill="#6b63ff" class="data-point" style="animation-delay: 2.95s" />
  </g>
</svg>