<svg xmlns="http://www.w3.org/2000/svg" viewBox="0 0 800 400" width="800" height="400">
  <style>
    @keyframes drawLine {
      to { stroke-dashoffset: 0; }
    }
    @keyframes fadeInPoint {
      from { opacity: 0; }
      to { opacity: 1; }
    }
    .data-line-0 {
      stroke-dasharray: 1165;
      stroke-dashoffset: 1165;
      animation: drawLine 2s ease-out forwards;
    }
    .data-point {
      opacity: 0;
      animation: fadeInPoint 0.5s ease-out forwards;
    }
    .chart-bg { fill: #fff; }
    .chart-text { fill: #24292e; }
    .chart-muted { fill: #6a737d; }
    .chart-grid { stroke: #eee; }
    .chart-axis { stroke: #6a737d; }
    @media (prefers-color-scheme: dark) {
      .chart-bg { fill: #0d1117; }
      .chart-text { fill: #e6edf3; }
      .chart-muted { fill: #8b949e; }
      .chart-grid { stroke: #21262d; }
      .chart-axis { stroke: #8b949e; }
    }
  </style>
  <rect width="800" height="400" class="chart-bg" />
  <text x="400" y="14" text-anchor="middle" class="chart-text" font-size="16" font-weight="bold" font-family="-apple-system, BlinkMacSystemFont, 'Segoe UI', Helvetica, Arial, sans-serif">vdsm/virtual-dsm Star History</text>
  
  <g class="grid">
    <line x1="60" y1="350" x2="770" y2="350" class="chart-grid" stroke-opacity="0.3" />
    <text x="778" y="354" text-anchor="start" class="chart-muted" font-size="11" font-family="-apple-system, BlinkMacSystemFont, 'Segoe UI', Helvetica, Arial, sans-serif">0</text>
    <line x1="60" y1="279.26196651733085" x2="770" y2="279.26196651733085" class="chart-grid" stroke-opacity="0.3" />
    <text x="778" y="283.26196651733085" text-anchor="start" class="chart-muted" font-size="11" font-family="-apple-system, BlinkMacSystemFont, 'Segoe UI', Helvetica, Arial, sans-serif">1K</text>
    <line x1="60" y1="208.52393303466164" x2="770" y2="208.52393303466164" class="chart-grid" stroke-opacity="0.3" />
    <text x="778" y="212.52393303466164" text-anchor="start" class="chart-muted" font-size="11" font-family="-apple-system, BlinkMacSystemFont, 'Segoe UI', Helvetica, Arial, sans-serif">2K</text>
    <line x1="60" y1="137.78589955199246" x2="770" y2="137.78589955199246" class="chart-grid" stroke-opacity="0.3" />
    <text x="778" y="141.78589955199246" text-anchor="start" class="chart-muted" font-size="11" font-family="-apple-system, BlinkMacSystemFont, 'Segoe UI', Helvetica, Arial, sans-serif">3K</text>
    <line x1="60" y1="67.04786606932328" x2="770" y2="67.04786606932328" class="chart-grid" stroke-opacity="0.3" />
    <text x="778" y="71.04786606932328" text-anchor="start" class="chart-muted" font-size="11" font-family="-apple-system, BlinkMacSystemFont, 'Segoe UI', Helvetica, Arial, sans-serif">4K</text>
  </g>
  <g class="milestones">
    
  </g>
  <g class="x-axis">
    <text x="60" y="370" text-anchor="middle" class="chart-muted" font-size="11" font-family="-apple-system, BlinkMacSystemFont, 'Segoe UI', Helvetica, Arial, sans-serif">2023</text>
    <text x="231.3793103448276" y="370" text-anchor="middle" class="chart-muted" font-size="11" font-family="-apple-system, BlinkMacSystemFont, 'Segoe UI', Helvetica, Arial, sans-serif">2024</text>
    <text x="451.7241379310345" y="370" text-anchor="middle" class="chart-muted" font-size="11" font-family="-apple-system, BlinkMacSystemFont, 'Segoe UI', Helvetica, Arial, sans-serif">2025</text>
    <text x="672.0689655172414" y="370" text-anchor="middle" class="chart-muted" font-size="11" font-family="-apple-system, BlinkMacSystemFont, 'Segoe UI', Helvetica, Arial, sans-serif">2026</text>
  </g>
  <line x1="770" y1="50" x2="770" y2="350" class="chart-axis" stroke-width="1" />
  <line x1="60" y1="350" x2="770" y2="350" class="chart-axis" stroke-width="1" />
  <path d="M60,350 L60,349.92926196651734 C68.16091954022988,340.4267861353454 76.32183908045977,326.54856213284296 84.48275862068965,321.42183447300164 C92.64367816091954,316.2951068131603 100.80459770114942,319.1557503311963 108.9655172413793,314.48950719170006 C117.12643678160919,309.8232640522038 125.28735632183907,295.5081348738505 133.44827586206895,289.1652912049045 C141.60919540229884,282.82244753595853 149.77011494252872,280.13440226361706 157.9310344827586,276.43244517802407 C166.0919540229885,272.730488092431 174.2528735632184,269.7241216694176 182.41379310344828,266.9535486913464 C190.57471264367817,264.1829757132752 198.73563218390805,262.6974770101391 206.89655172413794,259.8090073095968 C215.05747126436782,256.92053760905446 223.2183908045977,253.04173543975477 231.3793103448276,249.62273048809243 C239.54022988505747,246.20372553643008 247.70114942528735,243.7868427257722 255.86206896551724,239.2949775996227 C264.0229885057471,234.80311247347322 272.183908045977,227.2930912520632 280.34482758620686,222.67153973119548 C288.50574712643675,218.04998821032774 296.6666666666667,215.04362178731432 304.82758620689657,211.5656684744164 C312.98850574712645,208.0877151615185 321.14942528735634,205.50577693940107 329.3103448275862,201.80381985380805 C337.4712643678161,198.10186276821503 345.632183908046,192.33671303937749 353.7931034482759,189.35392596085828 C361.95402298850576,186.37113888233907 370.11494252873564,186.5833529827871 378.2758620689655,183.90709738269277 C386.4367816091954,181.23084178259845 394.5977011494253,177.06908747936808 402.7586206896552,173.29639236029237 C410.91954022988506,169.52369724121667 419.08045977011494,164.1240273520396 427.2413793103448,161.27092666823862 C435.4022988505747,158.41782598443763 443.5632183908046,158.25277057297808 451.7241379310345,156.17778825748644 C459.88505747126436,154.1028059419948 468.04597701149424,151.57981608111294 476.2068965517241,148.82103277528884 C484.367816091954,146.06224946946475 492.5287356321839,142.9497759962273 500.6896551724138,139.62508842254184 C508.85057471264366,136.30040084885638 517.0114942528736,131.83211506720116 525.1724137931035,128.87290733317616 C533.3333333333334,125.91369959915117 541.4942528735633,123.46144777175195 549.6551724137931,121.86984201839189 C557.816091954023,120.27823626503184 565.9770114942529,119.96052069615159 574.1379310344828,119.32327281301579 C582.2988505747127,118.68602492987999 590.4597701149426,119.17162848314946 598.6206896551724,117.90851214336243 C606.7816091954023,116.6453958035754 614.9425287356322,113.4048573449658 623.1034482758621,111.47135109643952 C631.264367816092,109.53784484791323 639.4252873563219,109.62037255364302 647.5862068965517,106.30747465220469 C655.7471264367816,102.99457675076636 663.9080459770115,94.93044093374206 672.0689655172414,91.59396368780949 C680.2298850574713,88.25748644187692 688.3908045977012,87.77410987974532 696.551724137931,86.28861117660927 C704.7126436781609,84.8031124734732 712.8735632183908,83.67130393775052 721.0344827586207,82.68097146899316 C729.1954022988506,81.6906390002358 737.3563218390805,81.24263145484555 745.5172413793103,80.34661636406508 C753.6781609195402,79.45060127328462 761.8390804597701,78.31879273756192 770,77.30488092431034 L770,350 L60,350 Z" fill="#6b63ff" fill-opacity="0.1" />
  <path d="M60,350 L60,349.92926196651734 C68.16091954022988,340.4267861353454 76.32183908045977,326.54856213284296 84.48275862068965,321.42183447300164 C92.64367816091954,316.2951068131603 100.80459770114942,319.1557503311963 108.9655172413793,314.48950719170006 C117.12643678160919,309.8232640522038 125.28735632183907,295.5081348738505 133.44827586206895,289.1652912049045 C141.60919540229884,282.82244753595853 149.77011494252872,280.13440226361706 157.9310344827586,276.43244517802407 C166.0919540229885,272.730488092431 174.2528735632184,269.7241216694176 182.41379310344828,266.9535486913464 C190.57471264367817,264.1829757132752 198.73563218390805,262.6974770101391 206.89655172413794,259.8090073095968 C215.05747126436782,256.92053760905446 223.2183908045977,253.04173543975477 231.3793103448276,249.62273048809243 C239.54022988505747,246.20372553643008 247.70114942528735,243.7868427257722 255.86206896551724,239.2949775996227 C264.0229885057471,234.80311247347322 272.183908045977,227.2930912520632 280.34482758620686,222.67153973119548 C288.50574712643675,218.04998821032774 296.6666666666667,215.04362178731432 304.82758620689657,211.5656684744164 C312.98850574712645,208.0877151615185 321.14942528735634,205.50577693940107 329.3103448275862,201.80381985380805 C337.4712643678161,198.10186276821503 345.632183908046,192.33671303937749 353.7931034482759,189.35392596085828 C361.95402298850576,186.37113888233907 370.11494252873564,186.5833529827871 378.2758620689655,183.90709738269277 C386.4367816091954,181.23084178259845 394.5977011494253,177.06908747936808 402.7586206896552,173.29639236029237 C410.91954022988506,169.52369724121667 419.08045977011494,164.1240273520396 427.2413793103448,161.27092666823862 C435.4022988505747,158.41782598443763 443.5632183908046,158.25277057297808 451.7241379310345,156.17778825748644 C459.88505747126436,154.1028059419948 468.04597701149424,151.57981608111294 476.2068965517241,148.82103277528884 C484.367816091954,146.06224946946475 492.5287356321839,142.9497759962273 500.6896551724138,139.62508842254184 C508.85057471264366,136.30040084885638 517.0114942528736,131.83211506720116 525.1724137931035,128.87290733317616 C533.3333333333334,125.91369959915117 541.4942528735633,123.46144777175195 549.6551724137931,121.86984201839189 C557.816091954023,120.27823626503184 565.9770114942529,119.96052069615159 574.1379310344828,119.32327281301579 C582.2988505747127,118.68602492987999 590.4597701149426,119.17162848314946 598.6206896551724,117.90851214336243 C606.7816091954023,116.6453958035754 614.9425287356322,113.4048573449658 623.1034482758621,111.47135109643952 C631.264367816092,109.53784484791323 639.4252873563219,109.62037255364302 647.5862068965517,106.30747465220469 C655.7471264367816,102.99457675076636 663.9080459770115,94.93044093374206 672.0689655172414,91.59396368780949 C680.2298850574713,88.25748644187692 688.3908045977012,87.77410987974532 696.551724137931,86.28861117660927 C704.7126436781609,84.8031124734732 712.8735632183908,83.67130393775052 721.0344827586207,82.68097146899316 C729.1954022988506,81.6906390002358 737.3563218390805,81.24263145484555 745.5172413793103,80.34661636406508 C753.6781609195402,79.45060127328462 761.8390804597701,78.31879273756192 770,77.30488092431034" fill="none" stroke="#6b63ff" stroke-width="2.5" class="data-line-0" />
  <g class="points">
    
    <circle cx="60" cy="349.92926196651734" r="4" fill="#6b63ff" class="data-point" style="animation-delay: 1.50s" />
    <circle cx="84.48275862068965" cy="321.42183447300164" r="4" fill="#6b63ff" class="data-point" style="animation-delay: 1.55s" />
    <circle cx="108.9655172413793" cy="314.48950719170006" r="4" fill="#6b63ff" class="data-point" style="animation-delay: 1.60s" />
    <circle cx="133.44827586206895" cy="289.1652912049045" r="4" fill="#6b63ff" class="data-point" style="animation-delay: 1.65s" />
    <circle cx="157.9310344827586" cy="276.43244517802407" r="4" fill="#6b63ff" class="data-point" style="animation-delay: 1.70s" />
    <circle cx="182.41379310344828" cy="266.9535486913464" r="4" fill="#6b63ff" class="data-point" style="animation-delay: 1.75s" />
    <circle cx="206.89655172413794" cy="259.8090073095968" r="4" fill="#6b63ff" class="data-point" style="animation-delay: 1.80s" />
    <circle cx="231.3793103448276" cy="249.62273048809243" r="4" fill="#6b63ff" class="data-point" style="animation-delay: 1.85s" />
    <circle cx="255.86206896551724" cy="239.2949775996227" r="4" fill="#6b63ff" class="data-point" style="animation-delay: 1.90s" />
    <circle cx="280.34482758620686" cy="222.67153973119548" r="4" fill="#6b63ff" class="data-point" style="animation-delay: 1.95s" />
    <circle cx="304.82758620689657" cy="211.5656684744164" r="4" fill="#6b63ff" class="data-point" style="animation-delay: 2.00s" />
    <circle cx="329.3103448275862" cy="201.80381985380805" r="4" fill="#6b63ff" class="data-point" style="animation-delay: 2.05s" />
    <circle cx="353.7931034482759" cy="189.35392596085828" r="4" fill="#6b63ff" class="data-point" style="animation-delay: 2.10s" />
    <circle cx="378.2758620689655" cy="183.90709738269277" r="4" fill="#6b63ff" class="data-point" style="animation-delay: 2.15s" />
    <circle cx="402.7586206896552" cy="173.29639236029237" r="4" fill="#6b63ff" class="data-point" style="animation-delay: 2.20s" />
    <circle cx="427.2413793103448" cy="161.27092666823862" r="4" fill="#6b63ff" class="data-point" style="animation-delay: 2.25s" />
    <circle cx="451.7241379310345" cy="156.17778825748644" r="4" fill="#6b63ff" class="data-point" style="animation-delay: 2.30s" />
    <circle cx="476.2068965517241" cy="148.82103277528884" r="4" fill="#6b63ff" class="data-point" style="animation-delay: 2.35s" />
    <circle cx="500.6896551724138" cy="139.62508842254184" r="4" fill="#6b63ff" class="data-point" style="animation-delay: 2.40s" />
    <circle cx="525.1724137931035" cy="128.87290733317616" r="4" fill="#6b63ff" class="data-point" style="animation-delay: 2.45s" />
    <circle cx="549.6551724137931" cy="121.86984201839189" r="4" fill="#6b63ff" class="data-point" style="animation-delay: 2.50s" />
    <circle cx="574.1379310344828" cy="119.32327281301579" r="4" fill="#6b63ff" class="data-point" style="animation-delay: 2.55s" />
    <circle cx="598.6206896551724" cy="117.90851214336243" r="4" fill="#6b63ff" class="data-point" style="animation-delay: 2.60s" />
    <circle cx="623.1034482758621" cy="111.47135109643952" r="4" fill="#6b63ff" class="data-point" style="animation-delay: 2.65s" />
    <circle cx="647.5862068965517" cy="106.30747465220469" r="4" fill="#6b63ff" class="data-point" style="animation-delay: 2.70s" />
    <circle cx="672.0689655172414" cy="91.59396368780949" r="4" fill="#6b63ff" class="data-point" style="animation-delay: 2.75s" />
    <circle cx="696.551724137931" cy="86.28861117660927" r="4" fill="#6b63ff" class="data-point" style="animation-delay: 2.80s" />
    <circle cx="721.0344827586207" cy="82.68097146899316" r="4" fill="#6b63ff" class="data-point" style="animation-delay: 2.85s" />
    <circle cx="745.5172413793103" cy="80.34661636406508" r="4" fill="#6b63ff" class="data-point" style="animation-delay: 2.90s" />
    <circle cx="770" cy="77.30488092431034" r="4" fill="#6b63ff" class="data-point" style="animation-delay: 2.95s" />
  </g>
</svg>