<svg xmlns="http://www.w3.org/2000/svg" viewBox="0 0 800 400" width="800" height="400">
  <style>
    @keyframes drawLine {
      to { stroke-dashoffset: 0; }
    }
    @keyframes fadeInPoint {
      from { opacity: 0; }
      to { opacity: 1; }
    }
    .data-line-0 {
      stroke-dasharray: 1165;
      stroke-dashoffset: 1165;
      animation: drawLine 2s ease-out forwards;
    }
    .data-point {
      opacity: 0;
      animation: fadeInPoint 0.5s ease-out forwards;
    }
    .chart-bg { fill: #fff; }
    .chart-text { fill: #24292e; }
    .chart-muted { fill: #6a737d; }
    .chart-grid { stroke: #eee; }
    .chart-axis { stroke: #6a737d; }
    @media (prefers-color-scheme: dark) {
      .chart-bg { fill: #0d1117; }
      .chart-text { fill: #e6edf3; }
      .chart-muted { fill: #8b949e; }
      .chart-grid { stroke: #21262d; }
      .chart-axis { stroke: #8b949e; }
    }
  </style>
  <rect width="800" height="400" class="chart-bg" />
  <text x="400" y="14" text-anchor="middle" class="chart-text" font-size="16" font-weight="bold" font-family="-apple-system, BlinkMacSystemFont, 'Segoe UI', Helvetica, Arial, sans-serif">vdsm/virtual-dsm Star History</text>
  
  <g class="grid">
    <line x1="60" y1="350" x2="770" y2="350" class="chart-grid" stroke-opacity="0.3" />
    <text x="778" y="354" text-anchor="start" class="chart-muted" font-size="11" font-family="-apple-system, BlinkMacSystemFont, 'Segoe UI', Helvetica, Arial, sans-serif">0</text>
    <line x1="60" y1="279.2285916489738" x2="770" y2="279.2285916489738" class="chart-grid" stroke-opacity="0.3" />
    <text x="778" y="283.2285916489738" text-anchor="start" class="chart-muted" font-size="11" font-family="-apple-system, BlinkMacSystemFont, 'Segoe UI', Helvetica, Arial, sans-serif">1K</text>
    <line x1="60" y1="208.45718329794764" x2="770" y2="208.45718329794764" class="chart-grid" stroke-opacity="0.3" />
    <text x="778" y="212.45718329794764" text-anchor="start" class="chart-muted" font-size="11" font-family="-apple-system, BlinkMacSystemFont, 'Segoe UI', Helvetica, Arial, sans-serif">2K</text>
    <line x1="60" y1="137.68577494692144" x2="770" y2="137.68577494692144" class="chart-grid" stroke-opacity="0.3" />
    <text x="778" y="141.68577494692144" text-anchor="start" class="chart-muted" font-size="11" font-family="-apple-system, BlinkMacSystemFont, 'Segoe UI', Helvetica, Arial, sans-serif">3K</text>
    <line x1="60" y1="66.91436659589527" x2="770" y2="66.91436659589527" class="chart-grid" stroke-opacity="0.3" />
    <text x="778" y="70.91436659589527" text-anchor="start" class="chart-muted" font-size="11" font-family="-apple-system, BlinkMacSystemFont, 'Segoe UI', Helvetica, Arial, sans-serif">4K</text>
  </g>
  <g class="milestones">
    
  </g>
  <g class="x-axis">
    <text x="60" y="370" text-anchor="middle" class="chart-muted" font-size="11" font-family="-apple-system, BlinkMacSystemFont, 'Segoe UI', Helvetica, Arial, sans-serif">2023</text>
    <text x="231.3793103448276" y="370" text-anchor="middle" class="chart-muted" font-size="11" font-family="-apple-system, BlinkMacSystemFont, 'Segoe UI', Helvetica, Arial, sans-serif">2024</text>
    <text x="451.7241379310345" y="370" text-anchor="middle" class="chart-muted" font-size="11" font-family="-apple-system, BlinkMacSystemFont, 'Segoe UI', Helvetica, Arial, sans-serif">2025</text>
    <text x="672.0689655172414" y="370" text-anchor="middle" class="chart-muted" font-size="11" font-family="-apple-system, BlinkMacSystemFont, 'Segoe UI', Helvetica, Arial, sans-serif">2026</text>
  </g>
  <line x1="770" y1="50" x2="770" y2="350" class="chart-axis" stroke-width="1" />
  <line x1="60" y1="350" x2="770" y2="350" class="chart-axis" stroke-width="1" />
  <path d="M60,350 L60,349.92922859164895 C68.16091954022988,340.4222694031611 76.32183908045977,326.54259584983174 84.48275862068965,321.4083510261854 C92.64367816091954,316.2741062025391 100.80459770114942,319.1355901230724 108.9655172413793,314.47275300778483 C117.12643678160919,309.80991589249726 125.28735632183907,295.5531965086105 133.44827586206895,289.2073602264685 C141.60919540229884,282.8615239443265 149.77011494252872,280.11323425336167 157.9310344827586,276.3977353149328 C166.0919540229885,272.6822363765039 174.2528735632184,269.6626562868601 182.41379310344828,266.9143665958953 C190.57471264367817,264.16607690493043 198.73563218390805,262.8096249115357 206.89655172413794,259.90799716914364 C215.05747126436782,257.0063694267516 223.2183908045977,252.96060391601793 231.3793103448276,249.50460014154282 C239.54022988505747,246.04859636706772 247.70114942528735,243.6187780136825 255.86206896551724,239.171974522293 C264.0229885057471,234.7251710309035 272.183908045977,227.43571597074782 280.34482758620686,222.82377919320595 C288.50574712643675,218.21184241566408 296.6666666666667,214.9799481009672 304.82758620689657,211.50035385704174 C312.98850574712645,208.0207596131163 321.14942528735634,205.62632696390656 329.3103448275862,201.9462137296532 C337.4712643678161,198.26610049539985 345.632183908046,192.45104977589054 353.7931034482759,189.4196744515216 C361.95402298850576,186.38829912715264 370.11494252873564,186.40009436187782 378.2758620689655,183.7579617834395 C386.4367816091954,181.11582920500118 394.5977011494253,177.3177636234961 402.7586206896552,173.56687898089172 C410.91954022988506,169.81599433828734 419.08045977011494,164.1660769049304 427.2413793103448,161.25265392781316 C435.4022988505747,158.3392309506959 443.5632183908046,158.11512149091766 451.7241379310345,156.08634111818824 C459.88505747126436,154.05756074545883 468.04597701149424,151.84005661712666 476.2068965517241,149.07997169143664 C484.367816091954,146.31988676574662 492.5287356321839,142.88747346072188 500.6896551724138,139.52583156404813 C508.85057471264366,136.1641896673744 517.0114942528736,131.87072422741213 525.1724137931035,128.9101203113942 C533.3333333333334,125.94951639537626 541.4942528735633,123.38995046001415 549.6551724137931,121.76220806794055 C557.816091954023,120.13446567586695 565.9770114942529,119.68572638760286 574.1379310344828,119.1436659589526 C582.2988505747127,118.60160553030234 590.4597701149426,119.01463471819952 598.6206896551724,117.94055201698512 C606.7816091954023,116.86646931577073 614.9425287356322,113.52913422977115 623.1034482758621,111.57112526539277 C631.264367816092,109.61311630101439 639.4252873563219,109.5423448926634 647.5862068965517,106.19249823071482 C655.7471264367816,102.84265156876624 663.9080459770115,94.72753007784856 672.0689655172414,91.47204529370134 C680.2298850574713,88.21656050955413 688.3908045977012,88.12219863175277 696.551724137931,86.65958952583156 C704.7126436781609,85.19698041991036 712.8735632183908,83.74616654871431 721.0344827586207,82.6963906581741 C729.1954022988506,81.64661476763388 737.3563218390805,81.25737202170326 745.5172413793103,80.36093418259026 C753.6781609195402,79.46449634347725 761.8390804597701,78.33215380986081 770,77.31776362349609 L770,350 L60,350 Z" fill="#6b63ff" fill-opacity="0.1" />
  <path d="M60,350 L60,349.92922859164895 C68.16091954022988,340.4222694031611 76.32183908045977,326.54259584983174 84.48275862068965,321.4083510261854 C92.64367816091954,316.2741062025391 100.80459770114942,319.1355901230724 108.9655172413793,314.47275300778483 C117.12643678160919,309.80991589249726 125.28735632183907,295.5531965086105 133.44827586206895,289.2073602264685 C141.60919540229884,282.8615239443265 149.77011494252872,280.11323425336167 157.9310344827586,276.3977353149328 C166.0919540229885,272.6822363765039 174.2528735632184,269.6626562868601 182.41379310344828,266.9143665958953 C190.57471264367817,264.16607690493043 198.73563218390805,262.8096249115357 206.89655172413794,259.90799716914364 C215.05747126436782,257.0063694267516 223.2183908045977,252.96060391601793 231.3793103448276,249.50460014154282 C239.54022988505747,246.04859636706772 247.70114942528735,243.6187780136825 255.86206896551724,239.171974522293 C264.0229885057471,234.7251710309035 272.183908045977,227.43571597074782 280.34482758620686,222.82377919320595 C288.50574712643675,218.21184241566408 296.6666666666667,214.9799481009672 304.82758620689657,211.50035385704174 C312.98850574712645,208.0207596131163 321.14942528735634,205.62632696390656 329.3103448275862,201.9462137296532 C337.4712643678161,198.26610049539985 345.632183908046,192.45104977589054 353.7931034482759,189.4196744515216 C361.95402298850576,186.38829912715264 370.11494252873564,186.40009436187782 378.2758620689655,183.7579617834395 C386.4367816091954,181.11582920500118 394.5977011494253,177.3177636234961 402.7586206896552,173.56687898089172 C410.91954022988506,169.81599433828734 419.08045977011494,164.1660769049304 427.2413793103448,161.25265392781316 C435.4022988505747,158.3392309506959 443.5632183908046,158.11512149091766 451.7241379310345,156.08634111818824 C459.88505747126436,154.05756074545883 468.04597701149424,151.84005661712666 476.2068965517241,149.07997169143664 C484.367816091954,146.31988676574662 492.5287356321839,142.88747346072188 500.6896551724138,139.52583156404813 C508.85057471264366,136.1641896673744 517.0114942528736,131.87072422741213 525.1724137931035,128.9101203113942 C533.3333333333334,125.94951639537626 541.4942528735633,123.38995046001415 549.6551724137931,121.76220806794055 C557.816091954023,120.13446567586695 565.9770114942529,119.68572638760286 574.1379310344828,119.1436659589526 C582.2988505747127,118.60160553030234 590.4597701149426,119.01463471819952 598.6206896551724,117.94055201698512 C606.7816091954023,116.86646931577073 614.9425287356322,113.52913422977115 623.1034482758621,111.57112526539277 C631.264367816092,109.61311630101439 639.4252873563219,109.5423448926634 647.5862068965517,106.19249823071482 C655.7471264367816,102.84265156876624 663.9080459770115,94.72753007784856 672.0689655172414,91.47204529370134 C680.2298850574713,88.21656050955413 688.3908045977012,88.12219863175277 696.551724137931,86.65958952583156 C704.7126436781609,85.19698041991036 712.8735632183908,83.74616654871431 721.0344827586207,82.6963906581741 C729.1954022988506,81.64661476763388 737.3563218390805,81.25737202170326 745.5172413793103,80.36093418259026 C753.6781609195402,79.46449634347725 761.8390804597701,78.33215380986081 770,77.31776362349609" fill="none" stroke="#6b63ff" stroke-width="2.5" class="data-line-0" />
  <g class="points">
    
    <circle cx="60" cy="349.92922859164895" r="4" fill="#6b63ff" class="data-point" style="animation-delay: 1.50s" />
    <circle cx="84.48275862068965" cy="321.4083510261854" r="4" fill="#6b63ff" class="data-point" style="animation-delay: 1.55s" />
    <circle cx="108.9655172413793" cy="314.47275300778483" r="4" fill="#6b63ff" class="data-point" style="animation-delay: 1.60s" />
    <circle cx="133.44827586206895" cy="289.2073602264685" r="4" fill="#6b63ff" class="data-point" style="animation-delay: 1.65s" />
    <circle cx="157.9310344827586" cy="276.3977353149328" r="4" fill="#6b63ff" class="data-point" style="animation-delay: 1.70s" />
    <circle cx="182.41379310344828" cy="266.9143665958953" r="4" fill="#6b63ff" class="data-point" style="animation-delay: 1.75s" />
    <circle cx="206.89655172413794" cy="259.90799716914364" r="4" fill="#6b63ff" class="data-point" style="animation-delay: 1.80s" />
    <circle cx="231.3793103448276" cy="249.50460014154282" r="4" fill="#6b63ff" class="data-point" style="animation-delay: 1.85s" />
    <circle cx="255.86206896551724" cy="239.171974522293" r="4" fill="#6b63ff" class="data-point" style="animation-delay: 1.90s" />
    <circle cx="280.34482758620686" cy="222.82377919320595" r="4" fill="#6b63ff" class="data-point" style="animation-delay: 1.95s" />
    <circle cx="304.82758620689657" cy="211.50035385704174" r="4" fill="#6b63ff" class="data-point" style="animation-delay: 2.00s" />
    <circle cx="329.3103448275862" cy="201.9462137296532" r="4" fill="#6b63ff" class="data-point" style="animation-delay: 2.05s" />
    <circle cx="353.7931034482759" cy="189.4196744515216" r="4" fill="#6b63ff" class="data-point" style="animation-delay: 2.10s" />
    <circle cx="378.2758620689655" cy="183.7579617834395" r="4" fill="#6b63ff" class="data-point" style="animation-delay: 2.15s" />
    <circle cx="402.7586206896552" cy="173.56687898089172" r="4" fill="#6b63ff" class="data-point" style="animation-delay: 2.20s" />
    <circle cx="427.2413793103448" cy="161.25265392781316" r="4" fill="#6b63ff" class="data-point" style="animation-delay: 2.25s" />
    <circle cx="451.7241379310345" cy="156.08634111818824" r="4" fill="#6b63ff" class="data-point" style="animation-delay: 2.30s" />
    <circle cx="476.2068965517241" cy="149.07997169143664" r="4" fill="#6b63ff" class="data-point" style="animation-delay: 2.35s" />
    <circle cx="500.6896551724138" cy="139.52583156404813" r="4" fill="#6b63ff" class="data-point" style="animation-delay: 2.40s" />
    <circle cx="525.1724137931035" cy="128.9101203113942" r="4" fill="#6b63ff" class="data-point" style="animation-delay: 2.45s" />
    <circle cx="549.6551724137931" cy="121.76220806794055" r="4" fill="#6b63ff" class="data-point" style="animation-delay: 2.50s" />
    <circle cx="574.1379310344828" cy="119.1436659589526" r="4" fill="#6b63ff" class="data-point" style="animation-delay: 2.55s" />
    <circle cx="598.6206896551724" cy="117.94055201698512" r="4" fill="#6b63ff" class="data-point" style="animation-delay: 2.60s" />
    <circle cx="623.1034482758621" cy="111.57112526539277" r="4" fill="#6b63ff" class="data-point" style="animation-delay: 2.65s" />
    <circle cx="647.5862068965517" cy="106.19249823071482" r="4" fill="#6b63ff" class="data-point" style="animation-delay: 2.70s" />
    <circle cx="672.0689655172414" cy="91.47204529370134" r="4" fill="#6b63ff" class="data-point" style="animation-delay: 2.75s" />
    <circle cx="696.551724137931" cy="86.65958952583156" r="4" fill="#6b63ff" class="data-point" style="animation-delay: 2.80s" />
    <circle cx="721.0344827586207" cy="82.6963906581741" r="4" fill="#6b63ff" class="data-point" style="animation-delay: 2.85s" />
    <circle cx="745.5172413793103" cy="80.36093418259026" r="4" fill="#6b63ff" class="data-point" style="animation-delay: 2.90s" />
    <circle cx="770" cy="77.31776362349609" r="4" fill="#6b63ff" class="data-point" style="animation-delay: 2.95s" />
  </g>
</svg>